<svg xmlns="http://www.w3.org/2000/svg" width="66" height="66"><path fill="#fff" d="M63.43 34.065l-7.01 7.01c-.568.57-1.56.57-2.13 0l-1.688-1.688 9.14-9.14 1.687 1.688c.286.286.442.663.442 1.065 0 .402-.156.78-.44 1.065zM49.473 32a7.437 7.437 0 00-5.296-2.194c-2 0-3.88.779-5.296 2.194l-4.284 4.285-4.882-4.882 3.532-3.532a9.994 9.994 0 002.947-7.113 9.994 9.994 0 00-2.947-7.113l-4.311-4.312a9.996 9.996 0 00-7.113-2.946h-4.35l.054-.054a14.259 14.259 0 0110.15-4.204c3.835 0 7.439 1.492 10.152 4.204L51.18 19.686l1.064 5.323 2.67 2.668h4.257l1.065 1.065-9.14 9.14-1.065-1.065V32.56zm-34.57 27.172l-1.156-1.156 13.8-13.801a4.042 4.042 0 001.195-2.882 4.08 4.08 0 00-4.076-4.075 4.055 4.055 0 00-2.882 1.193l-13.8 13.802-1.156-1.156 19.785-19.785 8.075 8.075zM9.49 53.758l13.8-13.801a1.948 1.948 0 012.753 2.753l-13.8 13.8zm3.596 9.36a2.548 2.548 0 01-1.816.753H8.957l-6.828-6.828v-2.312c0-.687.267-1.332.754-1.817a2.548 2.548 0 011.816-.753h.183l8.957 8.957v.183a2.55 2.55 0 01-.754 1.817zm51.85-32.688l-4.881-4.882h-4.258l-1.59-1.59-1.064-5.322L39.334 4.828A16.378 16.378 0 0027.677 0a16.378 16.378 0 00-11.656 4.828l-3.688 3.688h9.49a7.88 7.88 0 015.608 2.323l4.31 4.312a7.874 7.874 0 012.324 5.607c0 2.119-.825 4.11-2.323 5.608l-3.532 3.532-1.597-1.597L4.882 50.032h-.183a4.667 4.667 0 00-3.324 1.377A4.666 4.666 0 000 54.73v3.194L8.075 66h3.194a4.668 4.668 0 003.323-1.376 4.666 4.666 0 001.376-3.323v-.183l21.73-21.73-1.596-1.598 4.285-4.284a5.323 5.323 0 013.79-1.57c1.402 0 2.721.534 3.726 1.506v4.257l4.881 4.882a3.61 3.61 0 002.57 1.064c.973 0 1.885-.378 2.57-1.064l7.011-7.011A3.613 3.613 0 0066 33c0-.97-.378-1.883-1.065-2.57z"/></svg>