<svg xmlns="http://www.w3.org/2000/svg" width="47" height="66"><path fill="#fff" d="M23.58 35.129c-6.456 0-11.709-5.253-11.709-11.71 0-6.456 5.253-11.71 11.71-11.71 6.456 0 11.71 5.254 11.71 11.71 0 6.457-5.254 11.71-11.71 11.71zm0-25.548c-7.63 0-13.838 6.208-13.838 13.838 0 7.63 6.208 13.84 13.839 13.84 7.63 0 13.838-6.21 13.838-13.84S31.211 9.581 23.581 9.581z"/><path fill="#fff" d="M40.933 28.558c.484-1.63.745-3.354.745-5.139 0-1.784-.261-3.509-.745-5.138a5.332 5.332 0 013.938 5.138 5.332 5.332 0 01-3.938 5.14zm-2.298 9.917a5.333 5.333 0 01-6.422.846 18.226 18.226 0 007.269-7.268 5.333 5.333 0 01-.847 6.422zm-.861 25.396l-4.713-3.534-3.534 3.534h-.787l-2.897-17.385a7.48 7.48 0 005.014-5.498 7.43 7.43 0 003.465 1.149l3.951 21.734zm-19.332-23.1c1.63.484 3.354.745 5.139.745 1.784 0 3.509-.26 5.139-.744a5.331 5.331 0 01-5.14 3.938 5.331 5.331 0 01-5.138-3.938zm-.021 23.1h-.787L14.1 60.337 9.388 63.87h-.5l3.951-21.734a7.433 7.433 0 003.465-1.15 7.48 7.48 0 005.015 5.5zM7.679 32.053a18.228 18.228 0 007.27 7.269 5.333 5.333 0 01-6.423-.847 5.333 5.333 0 01-.847-6.422zM2.29 23.419a5.331 5.331 0 013.938-5.138 18.044 18.044 0 00-.744 5.138c0 1.785.26 3.51.744 5.14a5.331 5.331 0 01-3.938-5.14zM8.525 8.365a5.333 5.333 0 016.422-.847 18.226 18.226 0 00-7.268 7.27 5.333 5.333 0 01.846-6.423zm15.056-6.236a5.331 5.331 0 015.139 3.938 18.044 18.044 0 00-5.14-.744c-1.784 0-3.508.26-5.138.744a5.331 5.331 0 015.139-3.938zm15.055 6.236a5.333 5.333 0 01.847 6.422 18.228 18.228 0 00-7.269-7.269 5.332 5.332 0 016.422.847zM23.581 39.387c-8.805 0-15.968-7.163-15.968-15.968 0-8.804 7.163-15.967 15.968-15.967 8.804 0 15.967 7.163 15.967 15.967 0 8.805-7.163 15.968-15.967 15.968zM47 23.42c0-3.558-2.51-6.542-5.852-7.276 1.843-2.883 1.508-6.766-1.008-9.283-2.517-2.516-6.401-2.852-9.283-1.007C30.123 2.51 27.14 0 23.58 0s-6.543 2.51-7.277 5.852c-2.882-1.844-6.766-1.51-9.284 1.008-2.517 2.517-2.851 6.4-1.007 9.283C2.67 16.877.16 19.86.16 23.419c0 3.56 2.51 6.543 5.853 7.277-1.844 2.882-1.51 6.767 1.007 9.284a7.412 7.412 0 003.683 2.007L6.338 66h3.759l3.803-2.853L16.753 66h3.471l3.194-19.165c.054 0 .108.004.163.004.054 0 .108-.003.162-.004L26.937 66h3.472l2.852-2.853L37.065 66h3.759l-4.367-24.013a7.413 7.413 0 003.683-2.007c2.517-2.517 2.852-6.401 1.007-9.284C44.49 29.962 47 26.978 47 23.42z"/></svg>