<svg xmlns="http://www.w3.org/2000/svg" width="58" height="66"><path fill="#fff" d="M46.839 63.871v-6.387h-2.13v6.387H33.324l4.347-2.899-1.975-2.962 8.22-3.083-1.775-5.328 4.025 1.647a14.733 14.733 0 019.154 12.625zM11.32 51.246l4.025-1.647-1.776 5.328 8.22 3.083-1.974 2.962 4.346 2.899H12.774v-6.387h-2.129v6.387H2.166a14.732 14.732 0 019.154-12.625zm14.19-8.883zm2.894 1.227l.338.113.336-.112a19.897 19.897 0 002.895-1.226 5.288 5.288 0 002.555 4.057 53.33 53.33 0 01-.6 1.482H23.555a48.15 48.15 0 01-.602-1.482 5.29 5.29 0 002.556-4.059c.92.48 1.886.891 2.894 1.227zM17.032 24.858V17.8a16.394 16.394 0 006.564 1.361h13.662a3.197 3.197 0 013.194 3.194v2.503a17.59 17.59 0 01-11.71 16.596 17.59 17.59 0 01-11.71-16.596zm-4.258 1.755a3.19 3.19 0 012.13-2.998v1.243c0 1.684.22 3.326.623 4.904a3.19 3.19 0 01-2.753-3.15zm.258-11.329c.594.503 1.21.98 1.871 1.393v4.72a5.286 5.286 0 00-2.129.984v-4.284c0-.949.093-1.888.258-2.813zm-1.32-8.897c2.09 4.996 7.027 8.516 12.772 8.516h7.451v-2.129h-7.451c-6.099 0-11.122-4.685-11.662-10.645h15.92c8.805 0 15.968 7.163 15.968 15.968v4.286a5.276 5.276 0 00-2.227-.995c-.457-2.474-2.621-4.356-5.225-4.356H23.596A14.174 14.174 0 019.83 6.387zm30.245 23.375a19.77 19.77 0 00.624-4.904v-1.243a3.19 3.19 0 012.129 2.998 3.188 3.188 0 01-2.753 3.149zM24.48 50.032h8.525c-1.382 3.121-3.177 6.944-4.263 9.235-1.085-2.292-2.88-6.116-4.262-9.235zm-8.243 3.622l1.706-5.118 3.063-1.253c1.633 4.194 6.547 14.442 6.776 14.92l.801 1.668H28l-5.233-3.488 2.283-3.425zm25.01 0l-8.812 3.304 2.283 3.425-5.234 3.488h-.585l.802-1.668c.23-.477 5.14-10.71 6.777-14.92l3.061 1.253zm5.723-4.38l-10.921-4.467a3.182 3.182 0 01-1.984-2.957v-.764a19.704 19.704 0 007.195-9.15h.256a5.329 5.329 0 005.323-5.323v-8.516C46.839 8.118 38.72 0 28.742 0H10.645v1.065c0 1.1.143 2.166.387 3.193H7.259l.206 1.24a16.329 16.329 0 003.774 8.029 18.146 18.146 0 00-.594 4.57v8.516a5.329 5.329 0 005.323 5.322h.256a19.699 19.699 0 007.195 9.151v.764a3.18 3.18 0 01-1.984 2.955l-10.92 4.468A16.864 16.864 0 000 64.936V66h57.484v-1.064c0-6.9-4.127-13.048-10.514-15.662z"/><path fill="#fff" d="M34.065 23.42a1.065 1.065 0 112.129 0 1.065 1.065 0 01-2.13 0zm-12.775 0a1.065 1.065 0 112.13 0 1.065 1.065 0 01-2.13 0zM33 33h-2.129a2.131 2.131 0 01-2.13 2.129A2.131 2.131 0 0126.614 33h-2.13a4.262 4.262 0 004.259 4.258A4.262 4.262 0 0033 33z"/></svg>