<svg xmlns="http://www.w3.org/2000/svg" width="210" height="60"><path fill="#e31e24" d="M185.812 46.07V8.75h7.248V20.4c.73-.618.536-.47 1.429-.777 8.254-2.834 15.502 3.394 15.502 11.739V46.07h-7.224V30.714c0-5.048-9.656-5.737-9.667-.984l-.04 16.34h-7.248zm-37.064-26.395h6.869v27.396h-6.869zm3.323-15.924a7.508 7.508 0 110 15.016 7.508 7.508 0 010-15.016zM.214 11.148h7.512v25.617c0 1.026.265 1.798.79 2.32.522.518 1.307.776 2.349.776h5.824v7.03h-5.954c-3.562 0-6.209-.822-7.936-2.47C1.073 42.773.214 40.234.214 36.808v-25.66zM100.91 45.335c-.04 4.323-.838 6.7-3.237 9.054-2.403 2.358-5.834 4.488-10.284 4.488-1.574 0-3.157-.099-4.749-.307a39.484 39.484 0 01-3.172-.531v-8.034a30.68 30.68 0 002.829.647 22.75 22.75 0 003.952.37c2.506 0 4.236-.485 5.192-1.453.952-.964 2.697-2.853 2.697-5.66v-9.896c0-.104-.005-.207-.014-.309a6.87 6.87 0 00.014-.431c0-3.727-2.998-6.75-6.696-6.75-3.698 0-6.696 3.023-6.696 6.75s2.998 6.75 6.696 6.75c1.81 0 3.45-.724 4.655-1.9l.358-.11v8.514c-.76.144-1.447.244-2.053.316-.615.072-2.081.108-2.588.108-3.907 0-7.127-1.291-9.66-3.873-2.541-2.582-3.808-5.86-3.808-9.832 0-3.964 1.285-7.25 3.844-9.85 2.56-2.6 5.789-3.9 9.67-3.9 2.704 0 5.146.686 7.317 2.067 2.17 1.372 3.808 3.268 4.902 5.679.425.92.729 1.942.914 3.06.185 1.12.03 2.9.008 5.327l-.09 9.706zm15.972-25.601c7.455 0 13.499 6.044 13.499 13.498 0 .959-.1 1.894-.29 2.796h-17.639v-6.15h10.334a6.789 6.789 0 10-.59 7.581l5.009 4.47a13.468 13.468 0 01-10.323 4.802c-7.454 0-13.498-6.044-13.498-13.499 0-7.454 6.044-13.498 13.498-13.498zm26.038-.839c1.059 0 2.078.167 3.034.474v6.635c-2.803-.633-5.974.423-5.989 2.343V47.01h-6.868c0-6.069-.08-12.152-.08-18.21 0-5.47 4.434-9.905 9.903-9.905zm29.55.294c4.909 0 9.215 2.575 11.645 6.448l-5.588 3.981a6.901 6.901 0 10.24 6.135l5.368 4.43a13.727 13.727 0 01-11.666 6.481c-7.587 0-13.737-6.15-13.737-13.738 0-7.587 6.15-13.737 13.737-13.737zM32.056 26.606a6.789 6.789 0 110 13.578 6.789 6.789 0 010-13.578zm-13.498 6.79c0 7.454 6.043 13.498 13.498 13.498 7.455 0 13.498-6.044 13.498-13.499 0-7.454-6.043-13.498-13.498-13.498-7.455 0-13.498 6.044-13.498 13.498zm46.446-.915c0-3.053-2.299-5.53-5.132-5.53-2.834 0-5.133 2.477-5.133 5.53v14.571h-6.868V36.538l-.02-.057v-4c0-7.15 5.384-12.95 12.02-12.95 6.61 0 11.975 5.75 12.02 12.86h.001v14.661h-6.869v-3.208l-.019-11.363z"/><path fill="#2b2a29" d="M111.442.093v9.335h-4.528l-5.619-7.02v7.02h-2.682V.093h4.525l5.618 6.997V.093zM84.133 9.428V.093h10.415v2.099h-7.621v1.616h7.123V5.66h-7.123v1.674h7.62v2.094zm-15.479 0V.093h9.31c.052 0 .104.002.156.005.302.02.602.064.895.135.191.046.379.106.56.179.224.09.432.213.617.367.174.146.324.32.442.515.12.2.216.413.283.636.087.293.146.594.176.898.027.284.048.57.061.854.036.704.04 1.41.014 2.115a16.03 16.03 0 01-.06.896 3.805 3.805 0 01-.474 1.534 1.882 1.882 0 01-.426.507 2.32 2.32 0 01-.632.375 3.95 3.95 0 01-.535.17 6.303 6.303 0 01-.687.123c-.13.017-.26.026-.39.026zm7.657-2.27l.105-.001.175-.003c.12-.003.243-.01.364-.02.096-.009.192-.021.287-.038.146-.025.287-.073.417-.14a.875.875 0 00.268-.214 1.08 1.08 0 00.192-.332c.067-.191.113-.39.135-.591.059-.542.077-1.09.054-1.634a8.118 8.118 0 00-.034-.456 2.285 2.285 0 00-.125-.54 1.262 1.262 0 00-.198-.359.863.863 0 00-.249-.213 1.509 1.509 0 00-.405-.157 2.766 2.766 0 00-.62-.07H71.53v4.768zm-13.618.577h-6.035l-.916 1.693h-3.168L57.785.093h3.827l5.104 9.335h-3.134zm-3.028-5.634l-2.007 3.696h4.002zM42 .093h2.876v7.01h6.42v2.325H42V.093zm-10.574 0h2.876v7.01h6.42v2.325h-9.296zm-17.2 4.54a31.286 31.286 0 01.058-1.863 3.92 3.92 0 01.215-1.043c.097-.269.238-.52.42-.74.18-.218.406-.395.66-.52a3.558 3.558 0 011.08-.325c.244-.033.49-.058.736-.073.339-.021.68-.034 1.02-.038L20.42 0l2.28.012c.413.002.828.014 1.24.035.222.012.44.032.66.062.332.046.653.148.95.3.273.14.517.33.72.56.19.216.34.464.442.733.13.345.212.707.242 1.075.017.217.03.436.039.654.014.383.024.766.029 1.15.009.64-.006 1.28-.046 1.918a4.219 4.219 0 01-.187.994 2.77 2.77 0 01-.362.74 2.127 2.127 0 01-.658.62 3.3 3.3 0 01-1.046.407 9.09 9.09 0 01-.898.135c-.402.04-.806.065-1.21.074l-2.15.051c-.173.004-.346.006-.52.004-.438-.005-.876-.012-1.314-.022a21.304 21.304 0 01-.91-.042c-.245-.015-.49-.038-.734-.067a4.42 4.42 0 01-.977-.233 2.764 2.764 0 01-.703-.38 2.287 2.287 0 01-.672-.795 3.33 3.33 0 01-.35-1.211c-.02-.235-.035-.47-.041-.706a45.91 45.91 0 01-.017-1.434zm2.937 1.295c.021.218.071.432.15.635a.864.864 0 00.221.326c.088.08.194.14.309.174.24.07.486.114.736.131.267.018.536.029.805.034a36.962 36.962 0 001.05.007l1.263-.013c.243-.003.486-.012.727-.029.176-.012.351-.03.526-.057.217-.033.43-.099.626-.196a.897.897 0 00.326-.273.837.837 0 00.138-.298c.055-.229.089-.461.1-.697.02-.353.03-.708.033-1.063 0-.187-.003-.375-.012-.562a7.876 7.876 0 00-.04-.493 2.584 2.584 0 00-.16-.642.809.809 0 00-.213-.304.775.775 0 00-.28-.16 2.706 2.706 0 00-.59-.12 11.53 11.53 0 00-.534-.035 17.312 17.312 0 00-.624-.014l-.367.001a278.845 278.845 0 00-1.785.016l-.326.005a8.382 8.382 0 00-.866.053c-.17.02-.34.06-.501.119-.111.04-.215.1-.306.176a.954.954 0 00-.254.332 1.88 1.88 0 00-.157.57 7.48 7.48 0 00-.035.432c-.03.649-.017 1.298.04 1.945zm-14.26 3.5H0V.093h8.697a13.791 13.791 0 01.477.018c.179.011.358.03.536.056.15.022.302.051.45.088.24.059.468.154.678.284a1.787 1.787 0 01.714.83c.077.182.133.372.17.566.032.175.056.352.072.53.043.488.035.981-.026 1.468a2.66 2.66 0 01-.338 1.023c-.063.106-.14.202-.232.285-.1.09-.211.167-.332.227a2.733 2.733 0 01-.263.115 6.65 6.65 0 01-.417.14l-.13.04a9.863 9.863 0 00-.26.078l.228.043.115.02a12.238 12.238 0 01.554.105c.108.027.212.068.309.123a1.328 1.328 0 01.65.908c.02.106.035.214.044.322.01.127.015.255.014.383l-.004.298v1.385H8.821v-.895l-.001-.147c0-.064 0-.128-.002-.192a4.986 4.986 0 00-.027-.421.982.982 0 00-.058-.23.716.716 0 00-.099-.178.574.574 0 00-.138-.13.958.958 0 00-.215-.106 1.633 1.633 0 00-.4-.084 2.815 2.815 0 00-.28-.014H2.902v2.397zm0-4.67h4.285l.33.007a4.667 4.667 0 00.603-.022c.12-.012.237-.04.35-.082a.925.925 0 00.252-.145.51.51 0 00.13-.159.72.72 0 00.077-.231c.012-.08.02-.159.024-.24.008-.141.01-.284.01-.426a2.73 2.73 0 00-.045-.501.71.71 0 00-.081-.218.607.607 0 00-.14-.165.679.679 0 00-.205-.115 1.346 1.346 0 00-.322-.071 8.834 8.834 0 00-.55-.03l-.175-.003-.076-.001H2.903v2.403zm207.116 51.171v1.763h-3.46V55.93zm-12.193-5.102v5.965h.026l2.379-3.029h2.257l-2.394 3.029 2.495 3.09h-2.358l-2.379-3.013h-.026v3.014H195.9v-9.056h1.925zm-3.598 9.056h-1.925v-6.12h1.925zm-2.028-8.11c0-.293.103-.543.311-.751.206-.208.456-.312.746-.312.292 0 .544.104.75.312.208.208.312.458.312.752 0 .29-.104.54-.312.748-.206.21-.458.314-.75.314-.29 0-.54-.104-.746-.314a1.021 1.021 0 01-.311-.748zm-5.75 1.99v.876c.566-.666 1.23-.998 1.99-.998.635 0 1.166.202 1.591.609.427.407.64.987.64 1.743v3.89h-1.925v-3.728c0-.817-.319-1.224-.954-1.224-.453 0-.9.336-1.343 1.011v3.94h-1.925v-6.119h1.925zm-7.714-2.936v3.839h.027c.535-.684 1.182-1.025 1.938-1.025.653 0 1.188.206 1.611.618.42.413.633.986.633 1.72v3.904h-1.927v-3.494c0-.89-.33-1.336-.992-1.336-.436 0-.865.31-1.29.927v3.903h-1.924v-9.056h1.925zm-3.24 7.383v1.38c-.75.273-1.441.41-2.067.41-1.078 0-1.936-.29-2.58-.865-.644-.578-.967-1.34-.967-2.292 0-.93.325-1.695.976-2.299.65-.602 1.48-.903 2.487-.903.648 0 1.334.133 2.06.4v1.434c-.532-.272-1.054-.409-1.57-.409-.572 0-1.032.16-1.38.48-.345.321-.518.748-.518 1.283 0 .54.169.976.505 1.306.338.332.781.498 1.33.498.407 0 .98-.142 1.723-.423zm-10.948-2.086h2.657c-.104-.892-.547-1.337-1.33-1.337-.79 0-1.232.445-1.327 1.337zm4.245 1.86v1.21c-.734.538-1.646.806-2.73.806-1.075 0-1.936-.29-2.58-.865-.643-.578-.964-1.341-.964-2.292 0-.934.3-1.702.907-2.301.604-.602 1.376-.9 2.314-.9.943 0 1.715.316 2.317.948.604.633.885 1.48.845 2.545h-4.394c.04.553.237.978.59 1.276.355.3.83.447 1.426.447.72 0 1.477-.292 2.27-.874zm-6.962-4.221v1.316h-2.23v2.523c0 .3.081.54.25.714.166.177.396.264.69.264.396 0 .827-.12 1.29-.357v1.394c-.615.255-1.208.383-1.783.383-.753 0-1.335-.195-1.75-.584-.414-.39-.622-.96-.622-1.71v-2.627h-.876v-.376l2.56-2.865h.24v1.925zm-8.633 1.75h.026c.558-1.248 1.208-1.872 1.95-1.872.356 0 .78.186 1.278.558l-.533 1.703c-.473-.303-.854-.453-1.14-.453-.444 0-.82.276-1.126.827-.303.551-.455.872-.455.963v2.644h-1.925v-6.12h1.925zm-4.921.61c-.104-.89-.546-1.336-1.33-1.336-.79 0-1.232.445-1.327 1.337zm1.589 3.072c-.735.537-1.647.805-2.73.805-1.076 0-1.937-.29-2.58-.865-.644-.578-.965-1.341-.965-2.292 0-.934.3-1.702.907-2.301.604-.602 1.376-.9 2.314-.9.943 0 1.715.316 2.317.948.604.633.885 1.48.845 2.545h-4.394c.04.553.237.978.59 1.276.355.3.83.447 1.426.447.72 0 1.477-.292 2.27-.874zm-6.963-5.432v1.316h-2.23v2.523c0 .3.082.54.25.714.166.177.396.264.69.264.396 0 .827-.12 1.29-.357v1.394c-.615.255-1.208.383-1.783.383-.753 0-1.335-.195-1.75-.584-.414-.39-.622-.96-.622-1.71v-2.627h-.876v-.376l2.56-2.865h.24v1.925zm-5.855.332zm0 1.367c-.734-.449-1.415-.675-2.042-.675-.462 0-.694.16-.694.474 0 .082.048.164.146.243.097.08.471.248 1.12.507.647.256 1.105.553 1.373.89.268.338.4.707.4 1.108 0 .635-.214 1.126-.648 1.471-.431.347-1.046.52-1.847.52-.82 0-1.551-.15-2.19-.447v-1.356c.787.347 1.447.52 1.978.52.621 0 .933-.153.933-.454 0-.117-.057-.228-.172-.332-.115-.104-.5-.283-1.157-.537-.658-.255-1.107-.536-1.348-.843a1.607 1.607 0 01-.363-1.025c0-.557.233-1.01.697-1.36.465-.35 1.075-.525 1.837-.525.73 0 1.389.15 1.977.454zm-10.022-1.699v.876c.566-.666 1.23-.998 1.991-.998.635 0 1.166.202 1.591.609.427.407.64.987.64 1.743v3.89h-1.925v-3.728c0-.817-.32-1.224-.954-1.224-.454 0-.9.336-1.343 1.011v3.94h-1.925v-6.119zm-7.525 2.36h2.657c-.104-.89-.546-1.336-1.33-1.336-.79 0-1.232.445-1.327 1.337zm4.246 1.861v1.21c-.735.538-1.646.806-2.73.806-1.075 0-1.936-.29-2.58-.865-.644-.578-.965-1.341-.965-2.292 0-.934.301-1.702.908-2.301.604-.602 1.376-.9 2.314-.9.942 0 1.714.316 2.316.948.604.633.885 1.48.845 2.545h-4.394c.04.553.237.978.591 1.276.354.3.83.447 1.425.447.721 0 1.478-.292 2.27-.874zm-7.144-5.498h-3.978v2.023h3.978v1.659h-3.978v3.715h-2.257v-9.056h6.235zm-11.414 5.206h-3.46V55.93h3.46z"/></svg>