<svg width="13" height="16" fill="none" xmlns="http://www.w3.org/2000/svg"><path d="M10.858 11.08L6.5 15.524 2.142 11.08a6.336 6.336 0 01-1.69-3.223 6.415 6.415 0 01.352-3.64 6.268 6.268 0 012.272-2.825A6.078 6.078 0 016.5.333a6.08 6.08 0 013.424 1.06 6.268 6.268 0 012.272 2.824c.468 1.15.59 2.417.352 3.64a6.335 6.335 0 01-1.69 3.223zM6.5 8.433c.474 0 .926-.191 1.26-.53a1.82 1.82 0 00.518-1.276 1.82 1.82 0 00-.519-1.274A1.764 1.764 0 006.5 4.82c-.474 0-.926.192-1.26.532a1.82 1.82 0 00-.518 1.274c0 .477.186.936.519 1.275.333.34.785.531 1.259.531z" fill="#EC5118" stroke="#000" stroke-width=".667"/></svg>