<svg width="28" height="28" viewBox="0 0 28 28" fill="none" xmlns="http://www.w3.org/2000/svg">
<path fill-rule="evenodd" clip-rule="evenodd" d="M6 5H22C23.1 5 24 5.9 24 7V18C24 19.1 23.1 20 22 20C22 20 11.5 18.5 8.5 19C5.5 19.5 4 24 4 24L4.01 7C4.01 5.9 4.9 5 6 5ZM7.8199 12.9819C8.03329 10.796 10.0007 9.21192 12.1818 9.46985L18.8104 10.2537C19.5367 10.3396 20.0559 10.9981 19.97 11.7245C19.8761 12.519 19.1063 13.0518 18.3276 12.8681C16.1874 12.3633 12.269 11.5 10.5 11.5C8 11.5 7.8199 12.9819 7.8199 12.9819ZM12.1451 12.7121C10.0204 12.3278 8.01728 13.8312 7.79289 15.9787C8.21516 15.0956 9.15515 14.5819 10.1264 14.7033L12.5 15L15.0658 15.3665C15.5966 15.4424 16.0988 15.1047 16.2289 14.5845C16.3756 13.9975 15.9954 13.4087 15.4 13.301L12.1451 12.7121Z" fill="#EF5D50"/>
</svg>
