<svg width="24" height="24" viewBox="0 0 24 24" fill="none" xmlns="http://www.w3.org/2000/svg">
<path d="M19.1953 24C18.7207 24 18.2568 23.8592 17.8622 23.5955C17.4677 23.3318 17.1601 22.957 16.9785 22.5184C16.7969 22.0799 16.7494 21.5973 16.842 21.1318C16.9346 20.6662 17.1631 20.2386 17.4986 19.9029C17.8342 19.5673 18.2617 19.3387 18.7272 19.2461C19.1926 19.1535 19.6751 19.201 20.1135 19.3827C20.5519 19.5643 20.9267 19.872 21.1903 20.2666C21.454 20.6613 21.5947 21.1253 21.5947 21.6C21.5947 22.2365 21.3419 22.847 20.8919 23.2971C20.4419 23.7471 19.8316 24 19.1953 24ZM7.19823 24C6.72367 24 6.25977 23.8592 5.86519 23.5955C5.47061 23.3318 5.16307 22.957 4.98147 22.5184C4.79986 22.0799 4.75234 21.5973 4.84493 21.1318C4.93751 20.6662 5.16603 20.2386 5.50159 19.9029C5.83716 19.5673 6.26469 19.3387 6.73013 19.2461C7.19557 19.1535 7.67801 19.201 8.11645 19.3827C8.55488 19.5643 8.92962 19.872 9.19327 20.2666C9.45692 20.6613 9.59764 21.1253 9.59764 21.6C9.59764 22.2365 9.34485 22.847 8.89487 23.2971C8.4449 23.7471 7.8346 24 7.19823 24ZM21.5947 18H7.19823C6.78265 18.0022 6.37379 17.8951 6.01254 17.6896C5.6513 17.4841 5.35033 17.1874 5.13974 16.829C4.92399 16.4685 4.80665 16.0576 4.79946 15.6375C4.79226 15.2174 4.89547 14.8027 5.09875 14.435L6.71735 11.506L2.39941 2.4H0V0H3.92404L5.05176 2.4H22.8044C23.0125 2.39967 23.2171 2.45378 23.3979 2.55697C23.5787 2.66015 23.7294 2.80883 23.835 2.98824C23.9406 3.16765 23.9974 3.37155 23.9999 3.57973C24.0024 3.78791 23.9504 3.99312 23.8491 4.175L19.5502 11.963C19.3435 12.3386 19.0395 12.6515 18.67 12.8689C18.3005 13.0862 17.8793 13.1999 17.4507 13.198H8.51791L7.19823 15.6H21.5947V18ZM5.99853 4.8L8.87682 10.8H17.2748L20.6349 4.8H5.99853Z" fill="#EF5D50"/>
</svg>
