<svg width="21" height="28" viewBox="0 0 21 28" fill="none" xmlns="http://www.w3.org/2000/svg">
<path d="M12.0834 2C12.5818 3.82805 12.8714 5.70671 12.9467 7.6C12.9881 8.15074 12.9164 8.70413 12.736 9.22613C12.5556 9.74813 12.2703 10.2277 11.8977 10.6353C11.525 11.0429 11.0729 11.37 10.5691 11.5964C10.0654 11.8228 9.52061 11.9437 8.96837 11.9517C8.40273 11.9503 7.84307 11.8359 7.32223 11.6153C6.80139 11.3946 6.32987 11.0722 5.93537 10.6668C5.54087 10.2614 5.23132 9.78132 5.02491 9.25468C4.8185 8.72804 4.71938 8.16547 4.73337 7.6L4.76836 7.18C2.32685 10.0837 0.991917 13.7579 1.00004 17.5517C1.00004 20.027 1.98336 22.401 3.7337 24.1513C5.48404 25.9017 7.85802 26.885 10.3334 26.885C12.8087 26.885 15.1827 25.9017 16.933 24.1513C18.6834 22.401 19.6667 20.027 19.6667 17.5517C19.6499 14.5567 18.9597 11.6038 17.647 8.9118C16.3343 6.21977 14.4328 3.85752 12.0834 2ZM9.99504 23.385C9.50766 23.3918 9.02374 23.3023 8.57098 23.1218C8.11822 22.9412 7.70554 22.6731 7.35657 22.3328C7.0076 21.9925 6.7292 21.5867 6.53732 21.1387C6.34544 20.6906 6.24385 20.2091 6.23838 19.7217C6.23705 18.8167 6.57159 17.9434 7.17723 17.2709C7.78287 16.5985 8.61652 16.1747 9.51671 16.0817C11.6121 15.7454 13.5213 14.6793 14.9067 13.0717C15.366 14.6005 15.5979 16.1886 15.595 17.785C15.595 19.2702 15.005 20.6946 13.9548 21.7448C12.9046 22.795 11.4803 23.385 9.99504 23.385Z" fill="#EF5D50" stroke="#EF5D50"/>
</svg>
