<svg width="24" height="24" viewBox="0 0 24 24" fill="none" xmlns="http://www.w3.org/2000/svg">
<path d="M12 2.85C12.8354 2.85 13.6366 3.18187 14.2274 3.77261C14.8181 4.36335 15.15 5.16457 15.15 6C15.15 6.83543 14.8181 7.63665 14.2274 8.22739C13.6366 8.81813 12.8354 9.15 12 9.15C11.1646 9.15 10.3634 8.81813 9.77263 8.22739C9.18189 7.63665 8.85 6.83543 8.85 6C8.85 5.16457 9.18189 4.36335 9.77263 3.77261C10.3634 3.18187 11.1646 2.85 12 2.85ZM12 16.35C16.4544 16.35 21.15 18.54 21.15 19.5V21.15H2.85V19.5C2.85 18.54 7.5456 16.35 12 16.35ZM12 0C10.4087 0 8.88259 0.632136 7.75737 1.75735C6.63215 2.88257 6 4.4087 6 6C6 7.5913 6.63215 9.11742 7.75737 10.2426C8.88259 11.3679 10.4087 12 12 12C13.5913 12 15.1174 11.3679 16.2426 10.2426C17.3678 9.11742 18 7.5913 18 6C18 4.4087 17.3678 2.88257 16.2426 1.75735C15.1174 0.632136 13.5913 0 12 0ZM12 13.5C7.9944 13.5 0 15.51 0 19.5V24H24V19.5C24 15.51 16.0056 13.5 12 13.5Z" fill="#EF5D50"/>
</svg>
