<svg width="9" height="12" viewBox="0 0 9 12" fill="none" xmlns="http://www.w3.org/2000/svg">
<path d="M4.56569 6.27795C3.33262 6.3024 2.15954 6.81476 1.30362 7.70273C0.447711 8.5907 -0.0211975 9.78181 -0.000307329 11.015C-0.000307329 11.0648 0.0194991 11.1126 0.0547559 11.1479C0.0900128 11.1831 0.137832 11.203 0.187692 11.203H8.94269C8.99255 11.203 9.04037 11.1831 9.07563 11.1479C9.11088 11.1126 9.13069 11.0648 9.13069 11.015C9.15159 9.78198 8.68281 8.59102 7.82711 7.70308C6.97142 6.81514 5.79859 6.30266 4.56569 6.27795ZM0.380692 10.826C0.380692 9.71589 0.821664 8.65129 1.6066 7.86636C2.39153 7.08143 3.45613 6.64046 4.56619 6.64046C5.67626 6.64046 6.74085 7.08143 7.52579 7.86636C8.31072 8.65129 8.75169 9.71589 8.75169 10.826H0.380692Z" fill="#060A2E"/>
<path d="M4.48685 5.76097C5.0299 5.77971 5.56616 5.63578 6.02685 5.34765C6.48754 5.05953 6.85165 4.64035 7.07249 4.14388C7.29332 3.6474 7.3608 3.09628 7.26627 2.5612C7.17174 2.02611 6.91952 1.53146 6.54195 1.1407C6.16439 0.749943 5.67869 0.480887 5.14717 0.368046C4.61564 0.255205 4.06253 0.303724 3.55876 0.507381C3.055 0.711038 2.62357 1.06054 2.3198 1.51107C2.01603 1.9616 1.85378 2.4926 1.85385 3.03597C1.84261 3.74621 2.11348 4.43192 2.60706 4.94275C3.10064 5.45358 3.77665 5.74783 4.48685 5.76097ZM4.48685 0.686974C4.95555 0.66802 5.41919 0.789704 5.81818 1.03638C6.21716 1.28305 6.53323 1.64344 6.72574 2.07119C6.91825 2.49894 6.9784 2.97451 6.89846 3.43672C6.81852 3.89894 6.60214 4.32667 6.27714 4.66492C5.95215 5.00317 5.5334 5.23646 5.07474 5.33481C4.61609 5.43315 4.13851 5.39204 3.70341 5.21677C3.2683 5.0415 2.89558 4.74008 2.63316 4.35128C2.37075 3.96247 2.23064 3.50405 2.23085 3.03497C2.21986 2.42479 2.45109 1.83511 2.87392 1.39504C3.29674 0.954969 3.87672 0.700367 4.48685 0.686974Z" fill="#060A2E"/>
</svg>
