<svg width="19" height="15" viewBox="0 0 19 15" fill="none" xmlns="http://www.w3.org/2000/svg">
<path d="M6.69707 8.00708C5.18534 8.00708 3.73552 8.60761 2.66656 9.67657C1.5976 10.7455 0.99707 12.1953 0.99707 13.7071C0.997598 13.7821 1.02775 13.8538 1.08096 13.9066C1.13416 13.9594 1.20609 13.9891 1.28107 13.9891H12.1111C12.1864 13.9891 12.2586 13.9592 12.3119 13.9059C12.3651 13.8526 12.3951 13.7804 12.3951 13.7051C12.3945 12.194 11.794 10.745 10.7256 9.67657C9.65711 8.6081 8.20811 8.00761 6.69707 8.00708V8.00708ZM1.58107 13.4201C1.65425 12.1114 2.22567 10.8804 3.17802 9.97982C4.13036 9.07924 5.39135 8.57744 6.70207 8.57744C8.01279 8.57744 9.27378 9.07924 10.2261 9.97982C11.1785 10.8804 11.7499 12.1114 11.8231 13.4201H1.58107Z" stroke="#060A2E"/>
<path d="M6.79219 7.26406C7.44487 7.26406 8.08289 7.07052 8.62557 6.70791C9.16825 6.34531 9.59122 5.82991 9.84099 5.22692C10.0908 4.62392 10.1561 3.9604 10.0288 3.32027C9.90145 2.68013 9.58715 2.09212 9.12564 1.63061C8.66413 1.1691 8.07612 0.854804 7.43599 0.727473C6.79585 0.600141 6.13233 0.665492 5.52933 0.915262C4.92634 1.16503 4.41095 1.588 4.04834 2.13068C3.68573 2.67336 3.49219 3.31139 3.49219 3.96406C3.49219 4.83928 3.83986 5.67865 4.45873 6.29752C5.0776 6.91639 5.91697 7.26406 6.79219 7.26406V7.26406ZM6.79219 1.23506C7.33209 1.23526 7.85981 1.39554 8.30862 1.69564C8.75744 1.99573 9.10719 2.42217 9.31367 2.92103C9.52014 3.41989 9.57406 3.96877 9.46861 4.49827C9.36316 5.02778 9.10307 5.51412 8.72124 5.89582C8.3394 6.27752 7.85296 6.53742 7.32342 6.64268C6.79387 6.74794 6.24502 6.69382 5.74623 6.48716C5.24745 6.2805 4.82114 5.93059 4.52121 5.48167C4.22127 5.03274 4.06119 4.50496 4.06119 3.96506C4.06198 3.24109 4.35 2.54702 4.86202 2.03519C5.37404 1.52336 6.06822 1.23559 6.79219 1.23506Z" stroke="#060A2E"/>
<path d="M14.416 9.39905C13.6484 9.39908 12.8947 9.60415 12.233 9.99305C12.2008 10.012 12.1727 10.037 12.1502 10.0668C12.1277 10.0966 12.1113 10.1305 12.1019 10.1666C12.0925 10.2028 12.0903 10.2404 12.0955 10.2773C12.1007 10.3143 12.113 10.3499 12.132 10.382C12.1509 10.4142 12.1759 10.4424 12.2057 10.4648C12.2355 10.4873 12.2694 10.5037 12.3055 10.5131C12.3417 10.5225 12.3793 10.5247 12.4162 10.5195C12.4532 10.5143 12.4888 10.502 12.521 10.483C13.068 10.1623 13.6876 9.98582 14.3215 9.97026C14.9555 9.95471 15.583 10.1005 16.1451 10.3941C16.7072 10.6876 17.1854 11.1193 17.5349 11.6484C17.8844 12.1775 18.0936 12.7868 18.143 13.419H13.436C13.3605 13.419 13.2881 13.449 13.2348 13.5024C13.1814 13.5557 13.1515 13.6281 13.1515 13.7035C13.1515 13.779 13.1814 13.8514 13.2348 13.9047C13.2881 13.9581 13.3605 13.988 13.436 13.988H18.436C18.4733 13.988 18.5102 13.9807 18.5446 13.9664C18.5791 13.9522 18.6104 13.9312 18.6368 13.9049C18.6631 13.8785 18.6841 13.8472 18.6983 13.8127C18.7126 13.7783 18.72 13.7413 18.72 13.704C18.7178 12.5631 18.2637 11.4695 17.4571 10.6626C16.6504 9.85578 15.5569 9.40143 14.416 9.39905V9.39905Z" stroke="#060A2E"/>
<path d="M14.4849 8.54207C14.9844 8.54226 15.4727 8.39434 15.888 8.11701C16.3034 7.83968 16.6272 7.4454 16.8184 6.98404C17.0097 6.52267 17.0599 6.01495 16.9625 5.52508C16.8652 5.03521 16.6248 4.5852 16.2717 4.23198C15.9186 3.87875 15.4687 3.63817 14.9789 3.54066C14.4891 3.44315 13.9813 3.49309 13.5199 3.68418C13.0585 3.87526 12.664 4.19889 12.3865 4.61415C12.1091 5.0294 11.9609 5.51763 11.9609 6.01707C11.9617 6.68632 12.2279 7.32795 12.701 7.80128C13.1742 8.27461 13.8157 8.54101 14.4849 8.54207ZM14.4849 4.06007C14.872 4.05987 15.2505 4.17448 15.5725 4.38939C15.8944 4.60431 16.1454 4.90988 16.2937 5.26746C16.442 5.62504 16.4809 6.01856 16.4055 6.39824C16.3301 6.77793 16.1438 7.12673 15.8701 7.40052C15.5965 7.67431 15.2477 7.8608 14.8681 7.93639C14.4885 8.01198 14.0949 7.97328 13.7373 7.82519C13.3796 7.6771 13.0739 7.42627 12.8588 7.10442C12.6437 6.78257 12.5289 6.40417 12.5289 6.01707C12.5297 5.49855 12.7361 5.00149 13.1027 4.63484C13.4694 4.26819 13.9664 4.06186 14.4849 4.06107V4.06007Z" stroke="#060A2E"/>
</svg>
