<svg width="19" height="15" viewBox="0 0 19 15" fill="none" xmlns="http://www.w3.org/2000/svg">
<path d="M6.69707 8.00699C5.18534 8.00699 3.73552 8.60752 2.66656 9.67648C1.5976 10.7454 0.99707 12.1953 0.99707 13.707C0.997598 13.782 1.02775 13.8537 1.08096 13.9065C1.13416 13.9593 1.20609 13.989 1.28107 13.989H12.1111C12.1864 13.989 12.2586 13.9591 12.3119 13.9058C12.3651 13.8525 12.3951 13.7803 12.3951 13.705C12.3945 12.1939 11.794 10.7449 10.7256 9.67648C9.65711 8.60801 8.20811 8.00752 6.69707 8.00699V8.00699ZM1.58107 13.42C1.65425 12.1113 2.22567 10.8803 3.17802 9.97973C4.13036 9.07915 5.39135 8.57735 6.70207 8.57735C8.01279 8.57735 9.27378 9.07915 10.2261 9.97973C11.1785 10.8803 11.7499 12.1113 11.8231 13.42H1.58107Z" stroke="white"/>
<path d="M6.79219 7.264C7.44487 7.264 8.08289 7.07046 8.62557 6.70785C9.16825 6.34524 9.59122 5.82985 9.84099 5.22686C10.0908 4.62386 10.1561 3.96034 10.0288 3.3202C9.90145 2.68007 9.58715 2.09206 9.12564 1.63055C8.66413 1.16904 8.07612 0.854743 7.43599 0.727412C6.79585 0.60008 6.13233 0.665431 5.52933 0.915201C4.92634 1.16497 4.41095 1.58794 4.04834 2.13062C3.68573 2.6733 3.49219 3.31133 3.49219 3.964C3.49219 4.83922 3.83986 5.67859 4.45873 6.29746C5.0776 6.91633 5.91697 7.264 6.79219 7.264V7.264ZM6.79219 1.235C7.33209 1.2352 7.85981 1.39548 8.30862 1.69558C8.75744 1.99567 9.10719 2.42211 9.31367 2.92097C9.52014 3.41983 9.57406 3.96871 9.46861 4.49821C9.36316 5.02771 9.10307 5.51406 8.72124 5.89576C8.3394 6.27745 7.85296 6.53736 7.32342 6.64262C6.79387 6.74788 6.24502 6.69375 5.74623 6.4871C5.24745 6.28044 4.82114 5.93053 4.52121 5.48161C4.22127 5.03268 4.06119 4.5049 4.06119 3.965C4.06198 3.24103 4.35 2.54696 4.86202 2.03513C5.37404 1.5233 6.06822 1.23553 6.79219 1.235Z" stroke="white"/>
<path d="M14.416 9.39902C13.6484 9.39905 12.8947 9.60411 12.233 9.99302C12.2008 10.0119 12.1727 10.037 12.1502 10.0668C12.1277 10.0966 12.1113 10.1305 12.1019 10.1666C12.0925 10.2027 12.0903 10.2403 12.0955 10.2773C12.1007 10.3143 12.113 10.3498 12.132 10.382C12.1509 10.4142 12.1759 10.4423 12.2057 10.4648C12.2355 10.4873 12.2694 10.5037 12.3055 10.5131C12.3417 10.5225 12.3793 10.5246 12.4162 10.5195C12.4532 10.5143 12.4888 10.5019 12.521 10.483C13.068 10.1622 13.6876 9.98579 14.3215 9.97023C14.9555 9.95467 15.583 10.1005 16.1451 10.3941C16.7072 10.6876 17.1854 11.1192 17.5349 11.6484C17.8844 12.1775 18.0936 12.7868 18.143 13.419H13.436C13.3605 13.419 13.2881 13.449 13.2348 13.5023C13.1814 13.5557 13.1515 13.6281 13.1515 13.7035C13.1515 13.779 13.1814 13.8513 13.2348 13.9047C13.2881 13.958 13.3605 13.988 13.436 13.988H18.436C18.4733 13.988 18.5102 13.9807 18.5446 13.9664C18.5791 13.9521 18.6104 13.9312 18.6368 13.9048C18.6631 13.8785 18.6841 13.8472 18.6983 13.8127C18.7126 13.7782 18.72 13.7413 18.72 13.704C18.7178 12.5631 18.2637 11.4695 17.4571 10.6626C16.6504 9.85575 15.5569 9.4014 14.416 9.39902V9.39902Z" stroke="white"/>
<path d="M14.4849 8.54201C14.9844 8.5422 15.4727 8.39428 15.888 8.11695C16.3034 7.83962 16.6272 7.44534 16.8184 6.98398C17.0097 6.52261 17.0599 6.01488 16.9625 5.52502C16.8652 5.03515 16.6248 4.58514 16.2717 4.23192C15.9186 3.87869 15.4687 3.6381 14.9789 3.5406C14.4891 3.44309 13.9813 3.49303 13.5199 3.68411C13.0585 3.8752 12.664 4.19883 12.3865 4.61409C12.1091 5.02934 11.9609 5.51757 11.9609 6.01701C11.9617 6.68626 12.2279 7.32789 12.701 7.80122C13.1742 8.27455 13.8157 8.54095 14.4849 8.54201ZM14.4849 4.06001C14.872 4.05981 15.2505 4.17442 15.5725 4.38933C15.8944 4.60425 16.1454 4.90982 16.2937 5.2674C16.442 5.62498 16.4809 6.0185 16.4055 6.39818C16.3301 6.77787 16.1438 7.12667 15.8701 7.40046C15.5965 7.67425 15.2477 7.86074 14.8681 7.93633C14.4885 8.01192 14.0949 7.97322 13.7373 7.82513C13.3796 7.67704 13.0739 7.42621 12.8588 7.10436C12.6437 6.78251 12.5289 6.40411 12.5289 6.01701C12.5297 5.49849 12.7361 5.00143 13.1027 4.63478C13.4694 4.26813 13.9664 4.0618 14.4849 4.06101V4.06001Z" stroke="white"/>
</svg>
