<svg width="9" height="12" viewBox="0 0 9 12" fill="none" xmlns="http://www.w3.org/2000/svg">
<path d="M4.56569 6.27805C3.33262 6.30249 2.15954 6.81486 1.30362 7.70282C0.447711 8.59079 -0.0211975 9.7819 -0.000307329 11.015C-0.000307329 11.0649 0.0194991 11.1127 0.0547559 11.148C0.0900128 11.1832 0.137832 11.203 0.187692 11.203H8.94269C8.99255 11.203 9.04037 11.1832 9.07563 11.148C9.11088 11.1127 9.13069 11.0649 9.13069 11.015C9.15159 9.78207 8.68281 8.59111 7.82711 7.70317C6.97142 6.81523 5.79859 6.30275 4.56569 6.27805ZM0.380692 10.826C0.380692 9.71598 0.821664 8.65138 1.6066 7.86645C2.39153 7.08152 3.45613 6.64055 4.56619 6.64055C5.67626 6.64055 6.74085 7.08152 7.52579 7.86645C8.31072 8.65138 8.75169 9.71598 8.75169 10.826H0.380692Z" fill="white"/>
<path d="M4.48685 5.76104C5.0299 5.77977 5.56616 5.63584 6.02685 5.34771C6.48754 5.05959 6.85165 4.64041 7.07249 4.14394C7.29332 3.64746 7.3608 3.09634 7.26627 2.56126C7.17174 2.02617 6.91952 1.53152 6.54195 1.14076C6.16439 0.750004 5.67869 0.480948 5.14717 0.368107C4.61564 0.255266 4.06253 0.303785 3.55876 0.507442C3.055 0.711099 2.62357 1.06061 2.3198 1.51113C2.01603 1.96166 1.85378 2.49267 1.85385 3.03604C1.84261 3.74627 2.11348 4.43199 2.60706 4.94281C3.10064 5.45364 3.77665 5.74789 4.48685 5.76104ZM4.48685 0.687035C4.95555 0.668081 5.41919 0.789765 5.81818 1.03644C6.21716 1.28311 6.53323 1.6435 6.72574 2.07125C6.91825 2.499 6.9784 2.97457 6.89846 3.43678C6.81852 3.899 6.60214 4.32673 6.27714 4.66498C5.95215 5.00323 5.5334 5.23652 5.07474 5.33487C4.61609 5.43321 4.13851 5.3921 3.70341 5.21683C3.2683 5.04156 2.89558 4.74014 2.63316 4.35134C2.37075 3.96253 2.23064 3.50411 2.23085 3.03504C2.21986 2.42485 2.45109 1.83517 2.87392 1.3951C3.29674 0.955031 3.87672 0.700428 4.48685 0.687035Z" fill="white"/>
</svg>
