<svg width="20" height="20" viewBox="0 0 20 20" fill="none" xmlns="http://www.w3.org/2000/svg">
<path fill-rule="evenodd" clip-rule="evenodd" d="M13.932 12.2571H13.047L12.739 11.952C13.867 10.6425 14.487 8.97138 14.486 7.24304C14.486 5.32208 13.7229 3.47979 12.3646 2.12146C11.0062 0.763134 9.16394 0 7.24298 0C5.32202 0 3.47972 0.763134 2.1214 2.12146C0.763073 3.47979 0 5.32208 0 7.24304C0 9.16401 0.763073 11.0063 2.1214 12.3646C3.47972 13.7229 5.32202 14.4861 7.24298 14.4861C8.9707 14.4873 10.6414 13.8679 11.951 12.741L12.259 13.046V13.9291L17.829 19.491L19.49 17.8301L13.932 12.2581V12.2571ZM7.24402 12.2571C6.58537 12.2573 5.93309 12.1278 5.32452 11.8759C4.71596 11.6239 4.163 11.2544 3.69727 10.7887C3.23153 10.323 2.86216 9.77007 2.61023 9.1615C2.3583 8.55293 2.22874 7.90072 2.229 7.24207C2.22887 6.58345 2.35849 5.93126 2.61047 5.32275C2.86245 4.71425 3.23186 4.16127 3.69757 3.69556C4.16328 3.22984 4.7162 2.8605 5.32471 2.60852C5.93321 2.35654 6.5854 2.22692 7.24402 2.22705C8.57408 2.22705 9.84967 2.75543 10.7902 3.69592C11.7307 4.63642 12.259 5.912 12.259 7.24207C12.2591 7.90068 12.1295 8.55287 11.8775 9.16138C11.6255 9.76988 11.2561 10.3227 10.7904 10.7885C10.3247 11.2542 9.77184 11.6235 9.16333 11.8755C8.55482 12.1275 7.90263 12.2572 7.24402 12.2571Z" fill="#060A2E"/>
</svg>
