<svg xmlns="http://www.w3.org/2000/svg" width="51" height="42"><path fill="#fcd069" d="M48.839 33.46c-1.178 6.216-13.72 10.014-26.905 8.18C8.748 39.805-.253 34.837.88 27.147c.919-6.24 13.385-9.092 26.695-7.848 12.809 1.197 22.798 6.065 21.264 14.162z"/><path fill="#f6aa44" d="M22.242 40.989C6.788 38.93 2.174 33.799.954 30.058c1.257 6.039 9.541 9.99 20.98 11.582 10.633 1.479 20.844-.706 25.017-4.866-2.412 1.819-10.9 6.054-24.709 4.215z"/><path fill="#f6aa44" d="M47.429 31.004c-1.861-.343-3.697-.783-5.525-1.21-3.892-.91-7.732-1.942-11.663-2.757-3.87-.801-7.792-1.468-11.73-2.055-3.82-.57-7.196-1.334-10.82-2.368-1.488-.423-3.145-.801-4.58-1.404a2.597 2.597 0 00-.34.134c.012.117-.03.243-.146.372-.56.614-.922 1.313-.714 2.063.105.373.318.632.664.892.206.155.35.248.42.472a.488.488 0 01-.153.534 2.278 2.278 0 01-.17.717c-.227.54-.744 1.024-.364 1.607.32.492 1.042.757 1.835.856-.105.159-.206.32-.277.488a2.707 2.707 0 00-.173 1.607c.225 1.066 1.212 2.016 2.603 2.336.657.15 1.223.002 1.86.024 2.404.085 2.21.908 3.06 2.013.93 1.207 2.088.52 3.485.91 1.327.368 1.254 1.035 1.782 1.93.312.53.693 1.005 1.318 1.357 1.06.598 2.388.59 3.389-.068.512-.338.752-.816 1.204-1.182.958-.774 1.426-.29 2.239.336.383.295.784.605 1.299.766.268.083 2.165.14 2.12.09.365.413 1.148.436 1.506 0 .687-.838 2.61.35 3.426.524.679.146 1.425.177 2.08-.053.498-.174.848-.453 1.098-.822.553-.815.206-2.084 2.307-1.213.31.128.76.11 1.009-.1.948-.802 2.05-.421 3.197-.264.238-.121.402-.405.65-.584.367-.265.825-.47 1.25-.68.816-.401 2.574-1.078 2.003-1.988a.49.49 0 01.026-.585c-.056-.088-.111-.175-.168-.261a.578.578 0 01-.07-.145l-.011-.006.01-.001c-.193-.612.904-1.091 1.429-.624.184-.094.367-.191.547-.291.308-.331.524-.715.679-1.126-.537-.047-1.074-.146-1.591-.241z"/><path fill="#6cc62e" d="M48.802 27.01a25.783 25.783 0 00-3.075-1.998.689.689 0 01-.332-.354 34.384 34.384 0 00-3.032-.998c-3.93-1.082-8.185-1.566-12.265-2.232-4.115-.672-8.211-1.095-12.363-1.599-4.045-.49-8.234-1.138-11.995.473a1.02 1.02 0 01-.713.045c-.683.138-1.422.19-2.007.559-1.191.751-2.156 2.291-.93 3.297.34.281.788.428 1.225.451.056.402-.007.823-.16 1.184-.23.541-.746 1.024-.366 1.607.32.492 1.04.757 1.835.856-.104.159-.207.32-.277.488a2.715 2.715 0 00-.174 1.607c.227 1.066 1.212 2.016 2.604 2.336.658.151 1.223.002 1.86.024 2.404.085 2.21.908 3.06 2.013.93 1.207 2.088.521 3.486.91 1.326.368 1.254 1.035 1.78 1.93.313.53.694 1.005 1.319 1.357 1.06.598 2.388.59 3.389-.068.513-.338.752-.816 1.204-1.182.958-.774 1.425-.29 2.24.336.382.295.784.605 1.298.766.269.083 2.165.14 2.12.09.365.413 1.148.436 1.506 0 .688-.838 2.612.351 3.425.524.68.146 1.426.177 2.08-.053.498-.174.85-.453 1.1-.822.553-.815.205-2.084 2.306-1.214.31.129.76.112 1.009-.098.948-.803 2.05-.422 3.197-.265.239-.121.402-.404.65-.584.366-.265.825-.469 1.25-.679.816-.402 2.574-1.079 2.004-1.989a.49.49 0 01.025-.585 14.447 14.447 0 00-.168-.261.62.62 0 01-.07-.145l-.011-.006.01-.001c-.192-.612.904-1.091 1.43-.624 1.325-.674 2.65-1.509 2.324-2.848-.196-.807-1.418-1.191-1.798-2.248z"/><path fill="#4dbd38" d="M49.227 27.955c-1.038 5.59-12.85 9.388-25.436 7.637C11.204 33.84 2.474 28.829 3.449 21.908c7.135-3.9 10.154-1.39 22.85-.17 12.22 1.175 17.996 1.377 22.928 6.217z"/><path fill="#cb1d33" d="M49.547 27.518c-1.038 5.591-12.941 8.92-25.535 7.167C11.418 32.932 2.77 28.388 3.745 21.468c.79-5.615 12.635-8.09 25.339-6.87 12.227 1.174 21.816 5.636 20.463 12.92z"/><path fill="#ac1d2c" d="M4.081 20.326c0 3.82 6.813 7.63 12.238 9.085 5.605 1.504 14.328 2.736 20.251 2.215 4.624-.407 12.156-2.717 13.092-5.708-.234-6.337-9.275-10.235-20.578-11.321-11.806-1.134-22.863.926-25.003 5.729zm14.403 12.178c-.154-.062-.292.12-.136.173.097.033.135.044.237.025.037-.008.071-.043.054-.072-.04-.071-.06-.087-.155-.126zm-2.844-1.417c-.206-.136-.387.157-.152.193a.465.465 0 00.21 0c.038-.008.07-.042.054-.071a.247.247 0 00-.112-.122zm8.335.538c-.022-.118-.298-.118-.32 0a.987.987 0 00-.01.053c-.041.21.38.213.34 0l-.01-.053zm-1.911-.83l-.044-.004c-.135-.014-.281.04-.276.156v.03c.006.15.24.24.405.146.144-.082.127-.307-.085-.328zm3.186 2.915c-.181.133.163.31.261.15.074-.12-.116-.255-.261-.15zm5.627.006c-.17.124.153.29.245.141.069-.113-.109-.24-.245-.141zm2.403-1.047c-.436 0-.437.502 0 .502.434 0 .435-.502 0-.502zm-2.071-.313c-.121 0-.121.14 0 .14.12 0 .12-.14 0-.14zm13.436-.949l-.043-.02c-.133-.07-.32.068-.227.167l.03.031c.162.174.473-.055.24-.178zm1.945-1.346l-.046-.016c-.188-.065-.366.066-.277.206l.02.034c.159.25.642-.105.303-.224zm.22-.656c-.193 0-.194.224 0 .224s.194-.224 0-.224zm1.643-.86c-.099-.101-.278.03-.142.105a.19.19 0 00.126.03c.033 0 .056-.017.058-.041.003-.044-.007-.058-.042-.094z"/><path fill="#e7a186" d="M44.632 22.746c-2.36-.78-5.037-1.248-7.597-1.432-1.981-.141-4.462-.317-6.226.513a5.912 5.912 0 00-.821-.546c-2.608-1.444-6.243-2.162-9.227-3.046-3.316-.983-6.683-1.416-10.2-1.758a1.166 1.166 0 00-.266.004.453.453 0 00-.358.095C5.602 20.225 4.294 24.619 7.4 29.105c1.265 1.829 4.253.24 6.128-.29 3.257-.92 6.282-1.445 9.699-1.896 1.703-.224 4.276-.31 6.216-.923.635.777 1.385 1.524 1.828 2.187a20.429 20.429 0 011.84 3.37c.369.865.458 1.908 1 2.71.947 1.4 2.938.978 4.503.443 2.558-.875 4.083-2.394 5.792-4.006 1.378-1.3 3.182-2.68 3.375-4.423.188-1.7-1.176-2.88-3.15-3.531z"/><path fill="#f5ed09" d="M45.18 22.11c-2.393-.778-5.107-1.247-7.703-1.43-2.01-.142-4.525-.318-6.314.512a5.887 5.887 0 00-.833-.545c-2.644-1.445-6.331-2.163-9.357-3.047-3.362-.982-6.776-1.416-10.344-1.758a1.325 1.325 0 00-.27.004.472.472 0 00-.363.095C5.6 19.59 4.275 23.984 7.423 28.47c1.284 1.829 4.314.24 6.215-.29 3.304-.92 6.37-1.444 9.836-1.896 1.727-.224 4.337-.31 6.304-.923.643.778 1.404 1.524 1.854 2.187a20.441 20.441 0 011.866 3.372c.373.863.464 1.907 1.014 2.709.959 1.399 2.979.978 4.566.442 2.594-.875 4.14-2.394 5.874-4.006 1.398-1.3 3.227-2.678 3.422-4.423.19-1.7-1.192-2.88-3.193-3.531z"/><path fill="#e7a186" d="M23.406 21.09c1.55 1.1 3.673 3.419 1.75 5.553-2.227 2.469-8.285 4.239-14.746 1.39-3.69-1.626-5.269-5.83-.502-7.79 4.507-1.853 10.393-1.363 13.498.847z"/><path fill="#ed1b3a" d="M23.348 20.448c1.549 1.102 3.673 3.419 1.749 5.553-2.226 2.469-8.284 4.239-14.745 1.39-3.69-1.626-5.27-5.83-.502-7.79 4.507-1.853 10.393-1.363 13.498.847z"/><path fill="#f1453e" d="M13.366 27.484c4.591 1.162 11.045-.385 12.28-2.31.836-1.882-.948-3.766-2.299-4.726-3.105-2.21-8.99-2.7-13.498-.847-1.822.75-2.714 1.826-2.919 2.962.3 2.506 3.31 4.13 6.436 4.921z"/><path fill="#ed1b3a" d="M8.856 22.741c-.218.105-.445.294-.43.525.085 1.205 1.451 2.296 2.848 2.614.292.106.603.168.92.172 1.251.014 3.12-.672 3.69-1.605 1.275-2.087-5.782-2.306-7.028-1.706zm6.936-3.355c-.284-.175-.649-.287-1.142-.307-.768-.031-1.519.09-2.261.233-.561.107-1.269.194-1.716.536-.993.76.175 1.55 1.033 1.782.829.223 1.665.376 2.49.626.625.19 1.267.422 1.919.478 1.113-.284.294-2.172-.323-3.348zm5.871 5.745c-1-.674-4.166-2.396-4.88-1.147a7.027 7.027 0 00-.52 1.08c-.068.188-.147.386-.193.585a1.764 1.764 0 00-.26.6c-.15.727.73.97 1.51 1.034 1.43.12 6.474-.716 4.343-2.152zm-.523-5.084c-.877-.405-1.685-.252-2.198.408a6.617 6.617 0 00-.628.923c-.314.253-.606.518-.767.85-.162.336-.076.707.318.928.268.152.62.198.916.116.394.213.87.18 1.325.261 1.016.183 2.045.738 3.097.29 2.317-.99-.817-3.2-2.063-3.776z"/><path fill="#e7a186" d="M39.959 22.102c5.146 2.346 3.126 6.939-1.062 8.603-7.335 2.912-13.925.73-16.227-2.084-1.99-2.434.511-4.92 2.296-6.081 3.581-2.331 10.126-2.656 14.993-.438z"/><path fill="#ed1b3a" d="M40.065 21.394c5.146 2.346 3.126 6.938-1.062 8.602-7.335 2.913-13.925.731-16.227-2.084-1.99-2.433.511-4.919 2.296-6.08 3.581-2.33 10.126-2.656 14.993-.438z"/><path fill="#f1453e" d="M35.66 29.988c-5.155 1.116-12.196-.834-13.438-3.012-.803-2.113 1.294-4.131 2.85-5.144 3.581-2.33 10.126-2.656 14.993-.438 1.967.896 2.885 2.121 3.036 3.385-.494 2.763-3.928 4.447-7.44 5.208z"/><path fill="#ed1b3a" d="M40.96 24.905c.234.124.474.342.44.597-.171 1.33-1.753 2.488-3.321 2.788-.33.106-.678.164-1.028.156-1.386-.03-3.408-.86-3.979-1.914-1.275-2.356 6.548-2.337 7.888-1.627zm-7.457-3.97c.326-.183.737-.292 1.284-.297.853-.006 1.675.156 2.487.341.614.14 1.39.261 1.864.657 1.05.88-.294 1.708-1.26 1.933-.931.217-1.866.355-2.795.601-.704.187-1.43.421-2.155.458-1.213-.355-.184-2.415.575-3.693zm-6.871 6.142c1.15-.71 4.767-2.497 5.476-1.09.194.387.388.814.505 1.215.063.21.137.433.174.654.128.22.218.448.25.675.117.81-.871 1.046-1.74 1.088-1.59.078-7.116-1.032-4.665-2.542zm.91-5.607c.997-.416 1.881-.217 2.407.533.201.287.452.656.634 1.044.33.292.637.596.793.969.158.378.039.786-.411 1.016-.308.158-.7.195-1.022.094-.45.221-.973.166-1.483.24-1.138.166-2.311.741-3.445.206-2.501-1.181 1.111-3.512 2.527-4.102z"/><path fill="#e7a186" d="M46.563 18.54c-1.06-1.12-3.547-1.568-5.188-2.022-4.402-1.217-8.824-1.969-13.527-2.152-5.075-.197-10.123.198-15.085.998-2.173.35-5.413.601-6.775 2.09-.903.983-.98 2.156-.706 3.293 4.01 3.4 11.569 5.162 20.76 5.366 8.292.184 15.882-1.584 20.435-4.338.779-.907.73-2.555.086-3.235z"/><path fill="#fcd069" d="M50.884 15.119c.15 5.829-11.434 10.634-24.843 10.336-13.41-.298-23.347-3.912-23.853-11.09C1.777 8.54 10.66 1.16 24.88.742 39.774.304 50.689 7.525 50.884 15.119z"/><path fill="#f6aa44" d="M26.098 24.723C11.577 24.486 4.08 20.326 2.223 14.68c.773 6.967 10.608 10.482 23.818 10.775 11.097.247 20.935-3.002 23.916-7.433-3.001 3.188-11.582 6.903-23.86 6.702z"/><path fill="#fdda8d" d="M25.596 1.554c-15.972 0-22.336 9.373-19.884 10.237 2.01.708 2.715-.132 4.57.516 1.07.373 1.367 1.485 2.375 2.01 2.294 1.195 5.11.091 7.627.34 1.476.144 2.825.255 4.125.824 1.035.453 2.049.964 3.3.992 1.057.023 1.69-.268 2.466-.746.75-.463 1.509-.75 2.089-1.309.392-.378.446-1.034 1.215-.923.253.037.615.372.886.451.692.203 1.453.154 1.986-.252.222-.169.269-.522.463-.658.542-.378 1.103-.162 1.825-.159 1.182.005 1.844-.317 2.909-.612 2.153-.597 4.707.91 5.952-1.29 1.03-1.822-5.931-9.42-21.904-9.42z"/><path fill="#f8a532" d="M30.063 8.591c-.018-.013-.03-.027-.048-.041-.172-.134-.416.01-.382.165.053.245.149.46.298.684.13.194.495.16.636 0 .285-.325-.045-.722-.505-.807zm8.745-2.351a1.023 1.023 0 00-.796-.546c-.177-.023-.303.041-.362.129-.052.024-.086.068-.066.117.012.03.035.051.05.079a.2.2 0 00.017.027c.166.268.478.415.888.455.17.017.329-.146.269-.261zM22.087 5.15a.576.576 0 00-.383.357.224.224 0 00.022.184c-.001.014-.004.027-.003.043.015.172.217.3.453.255.335-.062.465-.256.525-.488.073-.281-.275-.461-.614-.35zm4.158 6.958c-.104-.08-.298-.075-.414-.004-.236.146-.288.422-.269.636.017.18.243.347.501.284.262-.065.463-.21.53-.414.075-.229-.069-.437-.348-.502zM10.889 7.582c-.12-.092-.245-.101-.41-.083a.28.28 0 00-.108.036 1.264 1.264 0 01-.091.006 1.465 1.465 0 00-.498.103c-.276.104-.205.434.086.487.163.029.347.028.513.004a1.167 1.167 0 00.33-.104l.053-.03c.229-.066.298-.286.125-.42zm4.905 2.568c.002-.014-.003-.027-.003-.042l-.001-.021a.318.318 0 00-.035-.116.97.97 0 00.009-.097c.002-.082-.075-.125-.163-.135a.332.332 0 00-.293-.002c-.238-.028-.437.153-.31.315a.014.014 0 01-.005.002c.06.072.102.136.198.186.083.043.177.06.255.11.106.073.327.029.31-.095-.001-.014-.005-.026-.007-.04a.106.106 0 00.045-.064zM31.8 3.18a.23.23 0 00-.208-.082.297.297 0 00-.308.067c-.06 0-.115.042-.078.093l.014.019c-.05.17.059.34.258.435.02.01.046.014.07.018l.018.024c.043.058.185.067.224 0a.43.43 0 00.054-.171.353.353 0 00-.044-.402zm6.128 6.142a1.55 1.55 0 00-.99.006c-.274.086-.17.395.079.448.218.046.44.059.663.026.114-.017.178-.065.206-.124.183-.067.27-.28.042-.356zM19.151 3.591a1.55 1.55 0 00-.989.005c-.275.086-.17.395.078.448.218.046.44.06.663.027.114-.017.177-.065.206-.124.183-.067.271-.28.042-.356zm7.502 4.082a1.885 1.885 0 00-.528-.116.49.49 0 00-.34-.037.364.364 0 00-.178.093.252.252 0 00-.098.082c-.112.03-.182.135-.075.224.321.263.902.293 1.275.076.137-.079.09-.267-.056-.322zm6.357-1.83a1.022 1.022 0 00-.275-.17 1.682 1.682 0 00-.051-.038h-.002l-.006-.004c-.022-.014-.045-.026-.068-.039l-.002.002a.461.461 0 00-.265-.029c-.15-.022-.316.078-.307.192.002.021.01.04.017.058-.046.193.162.394.419.474.044.016.09.028.138.031a.546.546 0 00.33-.056c.189-.106.245-.283.073-.42zm-6.929-3.144a.648.648 0 00-.144-.147.612.612 0 00-.25-.2c-.156-.067-.349-.002-.4.122-.124.299.338.586.71.462.116-.038.141-.163.084-.237zm-3.952 6.736c.056-.054.082-.12.07-.188-.021-.124-.12-.216-.3-.223-.375-.013-.723.343-.584.606.07.136.279.23.469.141.015-.006.028-.015.04-.023a.447.447 0 00.305-.313zM15.37 6.022a.18.18 0 00-.006-.032.413.413 0 00-.017-.045c-.004-.006-.007-.014-.012-.02a.284.284 0 00-.058-.069.3.3 0 00-.4-.123c-.013.006-.022.014-.032.021-.205.034-.367.164-.276.352.012.023.033.035.05.053.015.098.07.195.167.28.1.084.264.06.367 0a.43.43 0 00.217-.417z"/><path fill="#fff" d="M39.114 32.862c-.064-.166-.309-.277-.537-.226a.856.856 0 00-.328.128c-.088.062-.075.067-.156.104-.102.046-.257.096-.367.155-.27.04-.342.287-.109.41.041.024.052.03.038.017.027.022.05.048.086.064.056.024.132.044.196.058.196.042.4.041.59-.014.381-.112.712-.374.587-.696zm7.624-8.292c-.056-.038-.135 0-.122.053.081.326.11.667-.162.951-.187.193-.514.364-.756.516-.536.335-1.069.662-1.564 1.033-.059.043 0 .12.081.103 1.042-.21 1.925-.674 2.683-1.237.677-.502.516-.963-.16-1.419zM8.726 28.192h-.001c-.008-.146-.248-.275-.362-.37-.161-.134-.336-.3-.435-.463-.078-.128-.393-.069-.368.074.036.202.066.39.227.561.164.177.337.318.615.39.053.013.11.004.162-.012.12.002.249-.09.162-.18zm28.233.641c-.358-.054-.729-.03-1.093-.02-.157.005-.19.17-.037.205.347.079.696.173 1.062.189.285.012.352-.331.068-.374zm-20.665-1.585c-.156-.108-.355-.123-.551-.166-.193-.042-.4-.174-.601-.16-.093.008-.207.06-.193.144.062.352 1.01.605 1.345.324.047-.04.056-.103 0-.142zm3.383 10.963a.049.049 0 01-.007-.003c-.077-.094-.211-.116-.346-.174-.17-.074-.233-.2-.376-.29-.14-.09-.371-.034-.373.113-.002.19.217.362.408.471.099.056.213.11.333.137.148.035.217-.02.323-.043.135-.028.147-.157.038-.21zm17.313-1.718c-.257-.158-.697-.013-.928.107-.228.12-.394.398-.488.589-.037.074.12.12.171.053.18-.242.538-.315.888-.365.154-.021.33-.026.423-.136.076-.088.038-.184-.066-.248zm8.425-2.446a.93.93 0 00-.167.15c-.284.314.382.704.713.409.058-.052.11-.1.15-.16.219-.333-.313-.658-.696-.4zM7.492 31.983c-.115.036-.203.158-.082.232.221.137.536.173.816.187.208.011.608-.023.654-.225.087-.38-1.145-.269-1.388-.194z"/></svg>