<svg xmlns="http://www.w3.org/2000/svg" width="74" height="54"><path fill="#d7d6d2" d="M69.195 42.779c.008 6.08-15.411 11.025-34.44 11.047C15.728 53.85.296 48.939.289 42.859c-.008-6.081 15.41-11.027 34.439-11.05 19.029-.021 34.46 4.89 34.468 10.97z"/><path fill="#ddefb1" d="M68.722 41.844c0 5.147-15.14 9.32-33.816 9.32-18.676 0-33.815-4.173-33.815-9.32s15.14-9.319 33.815-9.319c18.675 0 33.816 4.172 33.816 9.319z"/><path fill="#f4ecc8" d="M68.722 41.023c0 5.147-15.14 9.32-33.816 9.32-18.676 0-33.815-4.173-33.815-9.32s15.14-9.32 33.815-9.32c18.675 0 33.816 4.173 33.816 9.32z"/><path fill="#e9da99" d="M2.58 41.023c0 2.392 3.42 4.564 8.988 6.164a8.264 8.264 0 01-.208-.078 27.136 27.136 0 01-.514-.208c-.068-.027-.133-.056-.201-.085-.06-.026-.121-.052-.181-.08a7.684 7.684 0 01-.207-.093l-.191-.09a14.05 14.05 0 01-.215-.104l-.193-.095-.234-.122-.183-.096-.294-.165a14.415 14.415 0 01-1.023-.638l.033-.057c-.108-.07-.217-.142-.324-.216 0 0 2.452-4.38 3.737-4.49.263-.021.529-.032.794-.032h.002a8.1 8.1 0 011.638.156c1.308-1.681 1.089-3.968.384-6.51-7.094 1.634-11.607 4.09-11.607 6.839zm11.949-6.916c.712 2.572.94 4.905-.367 6.678.202.06.379.132.52.214l.004.002.005.003.002.002.006.003a.757.757 0 01.098.07l-.001-.056c0-1.785 3.065-3.375 7.825-4.388a14.25 14.25 0 011.355-1.018c.13-.088.242-.157.322-.207a28.497 28.497 0 01-5.42-2.125 69.134 69.134 0 00-4.35.822zm37.724 4.042l-.76-.315 7.068-2.846 1.05.328zM41.216 35.56c.526-.145.815-.245.815-.245s.527.247 1.213.66c4.599.58 8.27 1.622 10.225 2.91l-.516-.368 8.236-2.668c.613.206 1.532.698 1.532.698l-8.848 2.628c.74.577 1.145 1.2 1.145 1.847 0 3.06-9.004 5.542-20.112 5.542-9.356 0-17.22-1.761-19.467-4.146-.021.61-.254 1.428-.74 2.422-.796 1.632-1.507 2.509-1.7 2.733 5.76 1.464 13.455 2.358 21.907 2.358 17.854 0 32.326-3.99 32.326-8.91 0-3.732-8.331-6.93-20.147-8.254a22.05 22.05 0 01-5.87 2.793zm12.657 3.615l-.006-.005.006.005z"/><path fill="#ddc86e" d="M32.956 36.654c.25 0 .497-.003.74-.009l-.213.001c-1.948 0-3.91-.16-5.837-.487 1.852.36 3.649.495 5.31.495zm13.064 1.781c2.143.698 3.435 1.602 3.435 2.587 0 2.215-6.514 4.01-14.55 4.01-8.033 0-14.547-1.795-14.547-4.01 0-.193.05-.383.146-.568a1.79 1.79 0 01-.023-.813c.232-1.14 1.21-2.214 2.14-3.007-4.76 1.014-7.825 2.603-7.825 4.388v.057a.799.799 0 01.165.186l.03.018c.309.184.469.57.448 1.135 2.246 2.386 10.11 4.147 19.467 4.147 11.108 0 20.11-2.482 20.11-5.543 0-.649-.404-1.273-1.15-1.85l-.397-.286c-1.955-1.289-5.626-2.33-10.225-2.909.94.57 2.183 1.457 2.776 2.458z"/><path fill="#d8b94e" d="M46.02 38.435c.18.302.3.614.333.932l.001.004v.003l.001.005c.018.17.012.345-.018.522v.004c-.347 2.053-3.922 4.502-12.715 4.552l-.302.001c-.172 0-.343 0-.512-.002-7.91-.08-11.793-2.017-12.305-4.002a1.235 1.235 0 00-.145.568c0 2.215 6.514 4.01 14.548 4.01 8.035 0 14.55-1.795 14.55-4.01 0-.985-1.293-1.889-3.436-2.587z"/><path fill="#ddc86e" d="M58.56 34.988l-7.067 2.846.76.315 7.358-2.833zm2.628.862l-8.235 2.668.515.369c.142.093.275.188.4.284l.005.005 8.847-2.628s-.919-.492-1.532-.698z"/><path fill="#c4e8b0" d="M54.94 18.566c-2.338-.383-4.089 2.956-6.893 4.817-2.803 1.86-6.366.329-7.884-.602-1.519-.93-2.979-.986-2.979-.986s-.058-.437-2.22-.875c-2.16-.438-3.97.875-8.877 2.9-8.702 2.848-11.68-3.338-14.075-5.363-2.2-1.682-3.945-.803-4.8-.12a25.594 25.594 0 003.078 7.209c4.993 7.964 14.897 11.366 24.266 11.084 12.328-.371 19.017-8.543 22.08-16.168-.112-.823-.516-1.702-1.697-1.896z"/><path fill="#ddefb1" d="M59.319 9.862L6.435 9.205s-.545 4.018.777 9.133c.855-.684 2.599-1.563 4.8.118 2.395 2.026 5.373 8.211 14.075 5.365 4.906-2.026 6.717-3.339 8.878-2.902 2.161.439 2.219.876 2.219.876s1.46.055 2.979.985c1.518.931 5.081 2.464 7.885.603 2.803-1.861 4.554-5.201 6.891-4.817 1.181.193 1.585 1.073 1.696 1.896.1-.25.197-.499.289-.747 2.92-7.828 2.395-9.853 2.395-9.853z"/><path fill="#95d070" d="M52.712 19.248a15.6 15.6 0 00-1.231 1.062c.417-.402.823-.768 1.231-1.062zm1.768-.379c.152 0 .307.02.467.06a6.993 6.993 0 01-.154 2.1l-.006.027-.062.001a.93.93 0 01-.346-.065c-.181-.072-.341-.214-.293-.37.035-.117.087-.188.152-.21a.19.19 0 01.064-.01c.088 0 .185.046.218.065a.182.182 0 00.243-.045.158.158 0 00-.048-.228.855.855 0 00-.413-.12.55.55 0 00-.184.03c-.177.06-.302.204-.37.428-.092.301.106.607.493.762.129.052.291.085.467.094-1.604 6.453-6.912 11.371-13.262 14.096 7.695-2.454 12.358-8.439 14.875-14.269-2.542 5.89-7.27 11.94-15.106 14.346-1.251.346-3.847.948-7.09 1.071 11.461-1.213 15.922-9.299 16.288-13.55a3.523 3.523 0 00-.093-1.209c.297-.278.573-.539.831-.784 1.477-1.4 2.34-2.22 3.329-2.22zm2.148 1.61zm-2.059-1.944c.111 0 .225.008.339.025v.002l.003.02a2.327 2.327 0 00-.44-.044h-.023l.12-.003z"/><path fill="#c1de70" d="M53.483 15.067c.739 1.067 1.255 2.234 1.425 3.494a2.295 2.295 0 00-.34-.025h-.001c-.04 0-.08 0-.12.003-.591.007-1.133.26-1.734.71-.408.294-.815.66-1.232 1.063-.184.172-.377.355-.58.547-.22.208-.45.427-.7.66-.98-2.425-5.128-2.997-10.576-2.997-2.294 0-4.82.1-7.435.208-7.762-.27-13.26-1.16-17.145-2.31.103-.087.208-.17.313-.248 4.684 1.41 10.84 2.285 17.563 2.285 8.337 0 15.744-1.343 20.562-3.39zM6.407 9.464l-.001.07c0 2.53 3.302 4.868 8.558 6.516a8.7 8.7 0 00-.304.254c-5.23-1.615-7.425-3.706-8.332-5.322.012-.707.05-1.23.079-1.518z"/><path fill="#74cfb0" d="M11.14 22.44c-.935 0-1.216-.479-1.296-.7a1.091 1.091 0 01.472-1.27c.178-.103.654-.284 1.194.24a.157.157 0 01-.004.231.183.183 0 01-.248-.003c-.265-.257-.527-.322-.76-.188a.767.767 0 00-.322.883c.131.365.57.53 1.234.464.608-.06 1.034-.272 1.265-.632.461-.714.061-1.802 0-1.958-.126-.156-1.164-1.4-2.654-1.608-.864-.119-1.73.13-2.573.742a.185.185 0 01-.247-.03.157.157 0 01.032-.23c.923-.669 1.878-.94 2.842-.806 1.731.241 2.85 1.696 2.898 1.758l.02.034c.023.055.566 1.364-.018 2.268-.29.452-.806.718-1.528.79-.11.01-.212.015-.308.015z"/><path fill="#74cfb0" d="M21.93 24.785c-2.905 0-6.442-1.757-9.217-5.234a.157.157 0 01.035-.23.183.183 0 01.245.033c5.365 6.722 12.033 5.268 16.804 2.736 4.903-2.602 7.402-.506 7.506-.415.498.547.565 1.33.184 2.01-.39.695-1.152 1.078-1.986.996-1.14-.109-1.355-.568-1.38-.833-.038-.357.237-.68.516-.759a.53.53 0 01.428.046c.256.153.315.5.321.54.014.09-.053.171-.148.185-.097.013-.185-.05-.199-.139-.009-.06-.06-.248-.164-.31-.023-.013-.062-.029-.137-.008a.424.424 0 00-.27.415c.028.28.418.474 1.07.537.701.067 1.312-.24 1.64-.823.313-.56.263-1.2-.128-1.63-.009-.007-2.415-2.003-7.08.474-2.274 1.207-5.09 2.41-8.04 2.41z"/><path fill="#74cfb0" d="M44.674 24.888c-1.83 0-3.44-1.002-4.38-1.646-1.465-1.002-3.038-1.257-3.052-1.26-.094-.014-.159-.1-.143-.188.015-.09.106-.151.201-.135.06.009 1.665.267 3.2 1.318 1.722 1.18 5.857 2.497 9.168-.963.461-.422.865-.807 1.233-1.155 1.812-1.72 2.81-2.668 4.297-2.202.494.153.811.398.944.727.147.368.297.837-.035 1.372-.412.66-1.373.736-1.867.539-.386-.155-.585-.461-.493-.762.07-.224.194-.37.37-.43.283-.097.566.072.597.092.08.05.103.15.05.227a.184.184 0 01-.244.046c-.04-.025-.184-.091-.283-.056-.065.023-.117.094-.152.21-.048.156.112.298.293.37a.963.963 0 001.183-.415c.276-.444.361-.807.253-1.077-.094-.232-.338-.411-.727-.532-1.279-.4-2.168.442-3.936 2.12-.37.352-.776.737-1.23 1.153-1.668 1.744-3.554 2.647-5.247 2.647z"/><path fill="#e3f4d7" d="M56.629 20.478l-.001.001"/><path fill="#80c55a" d="M54.908 18.563l.003.02c.094.018.189.043.288.074.493.154.81.399.943.727.148.368.297.838-.035 1.372-.285.457-.834.635-1.308.635a1.36 1.36 0 01-.091-.003c-1.604 6.453-6.912 11.37-13.262 14.096 8.019-2.557 12.746-8.95 15.182-15.004v-.001l.008-.017c-.112-.823-.516-1.702-1.697-1.896z"/><path fill="#80c55a" d="M54.947 18.928a6.993 6.993 0 01-.154 2.101l-.006.027a.973.973 0 00.774-.48c.277-.444.362-.806.253-1.077-.094-.23-.338-.41-.726-.53a1.241 1.241 0 00-.141-.04z"/><path fill="#59c395" d="M54.91 18.583c.016.114.028.23.037.346.047.01.094.024.14.039.389.12.634.3.727.532.109.27.024.633-.253 1.077a.973.973 0 01-.774.48c-.025.11-.052.22-.08.33.03.003.06.004.092.004.474 0 1.023-.178 1.308-.635.332-.534.183-1.004.035-1.372-.132-.328-.45-.573-.943-.727a2.599 2.599 0 00-.288-.074z"/><path fill="#88c95b" d="M54.908 18.56v.003l.03.003-.006-.001z"/><path fill="#b2d757" d="M59.242 9.861c-.215 1.938-2.333 3.75-5.76 5.205.74 1.067 1.256 2.234 1.426 3.495l.02.003.01.002c1.182.193 1.586 1.073 1.698 1.896.099-.25.196-.499.289-.747.99-2.657 1.585-4.646 1.938-6.113l.239-1.098c.206-1.062.254-1.742.254-2.146 0-.354-.037-.496-.037-.496z"/><path fill="#f4ecc8" d="M59.26 9.533c0 4.807-11.744 8.923-26.34 8.923S6.405 14.34 6.405 9.533 18.237.83 32.832.83C47.43.83 59.26 4.726 59.26 9.533z"/><path fill="#e9da99" d="M20.806 16.727c3.315.603 7.093.964 11.113 1.012-4.02-.048-7.797-.409-11.113-1.012zm-4.627-1.084zm34.934-7.568l-.085-.027c.202.068.402.14.597.211.37-.554.849-3.749.849-3.749l1.91.917c-.131.808-1.031 3.473-1.051 3.53 1.614.735 2.897 1.56 3.773 2.448-2.541 3.586-12.21 6.27-23.824 6.338 13.563-.079 24.483-3.725 24.483-8.21 0-1.99-2.154-3.818-5.735-5.24-.213 1.32-.917 3.782-.917 3.782zM7.9 9.534c0 2.355 3.012 4.478 7.836 5.976-3.348-1.04-5.823-2.381-7.023-3.893 3.203-3.552 12.863-6.134 24.295-6.134 6.892 0 13.14.939 17.72 2.463l-.404-.136c.439-.602.934-3.765.934-3.765l.382.098c-4.572-1.728-11.303-2.82-18.808-2.82-13.77 0-24.932 3.676-24.932 8.21z"/><path fill="#edb761" d="M47.872 10.026c0-.121.314-.219.7-.219.388 0 .702.098.702.219s-.314.219-.701.219c-.387 0-.701-.098-.701-.219zm-2.321-.903c0-.204.529-.37 1.182-.37.654 0 1.183.166 1.183.37s-.53.369-1.183.369-1.182-.165-1.182-.369zm-30.677.082c-5.528 1.727-2.824 3.79 2.317 5.334.792-1.686 6.783-4.139 17.244-4.139.96 0 1.957.021 2.99.065 6.363.269 9.868 1.173 9.869 2.546 0 1.431-3.928 2.769-8.758 2.982a43.59 43.59 0 01-1.891.044c-3.63 0-5.884-.535-6.014-1.47-.08-.574.695-1.096 2.019-1.362a8.098 8.098 0 011.595-.173c2.06 0 2.656 1.026 2.687 1.079a.16.16 0 01-.076.221.175.175 0 01-.081.019.176.176 0 01-.154-.088c-.011-.017-.548-.899-2.397-.9-.426 0-.923.047-1.5.163-1.258.253-1.788.695-1.746.999.062.444 1.357 1.185 5.605 1.185.588 0 1.23-.014 1.936-.045 4.823-.213 8.425-1.576 8.424-2.654 0-.877-2.505-1.92-9.533-2.218a69.941 69.941 0 00-3.04-.067c-10.726 0-16.145 2.58-16.842 3.912.174.051.35.101.529.15h.033c.78.014 1.404.175 1.859.478 3.703.861 8.006 1.452 11.395 1.548.474.013.948.02 1.424.02 9.14 0 18.432-2.43 20.653-4.563 2.336-2.245-5.665-5.365-17.054-5.748a60.834 60.834 0 00-1.995-.033c-10.548 0-19.498 2.715-19.498 2.715z"/><path fill="#74cfb0" d="M24.453 35.316s-3.505 2.026-3.972 4.325c-.467 2.3 3.563 4.871 13.14 4.817 9.579-.055 12.966-2.956 12.732-5.09-.233-2.136-4.322-4.052-4.322-4.052s-8.701 3.011-17.578 0zM59.26 11.778s3.213-3.449 8.352-2.025c5.14 1.422 6.716 7.171 5.198 11.057-1.519 3.886-9.695 10.948-21.376 8.211 0 0 2.686-3.12 3.797-5.474.408-.985 2.277-.986 3.387-.219 1.11.767 1.635 3.394-1.344 3.504 0 0 4.614.93 9.287-2.683 4.672-3.613 3.153-10.072-1.46-11.167-4.614-1.095-6.366 1.205-6.366 1.205z"/><path fill="#f1993a" d="M34.435 10.4c-10.46 0-16.452 2.453-17.244 4.14.111.032.223.066.337.098.697-1.332 6.116-3.912 16.842-3.912.97 0 1.982.021 3.04.067 7.028.297 9.533 1.341 9.533 2.218.001 1.077-3.602 2.441-8.424 2.654a44.17 44.17 0 01-1.937.045c-4.248 0-5.543-.74-5.604-1.185-.042-.304.487-.746 1.745-.999a7.633 7.633 0 011.5-.163c1.85 0 2.387.883 2.398.9a.175.175 0 00.154.088.178.178 0 00.081-.019.16.16 0 00.075-.22c-.03-.054-.626-1.08-2.686-1.08-.456 0-.985.05-1.595.173-1.324.266-2.099.788-2.02 1.362.13.935 2.384 1.47 6.015 1.47.594 0 1.226-.015 1.891-.044 4.83-.213 8.758-1.55 8.757-2.983 0-1.372-3.505-2.276-9.868-2.546a71.985 71.985 0 00-2.99-.064z"/><path fill="#eea94c" d="M18.034 15.117a3.15 3.15 0 00-.496.04c.093.119.256.218.49.299.092.03.14.125.106.21a.176.176 0 01-.165.108.18.18 0 01-.06-.01c-.418-.143-.63-.337-.73-.527a4.782 4.782 0 00-1 .407c1.304.386 2.732.727 4.263 1.016a1.646 1.646 0 00-.356-.822c-.387-.461-1.06-.705-2.004-.721zm-.573-.301l-.004.02c.192-.031.381-.048.566-.048h.033a43.43 43.43 0 01-.529-.15.716.716 0 00-.066.178zm-8.748-3.2c1.2 1.513 3.675 2.854 7.023 3.894a5.355 5.355 0 011.364-.595.8.8 0 01.017-.163.925.925 0 01.074-.212c-5.142-1.544-7.846-3.607-2.318-5.335 0 0 8.95-2.715 19.498-2.715.66 0 1.325.01 1.995.034 11.39.382 19.39 3.502 17.054 5.747-2.22 2.133-11.513 4.564-20.652 4.564-.477 0-.95-.007-1.425-.02-3.389-.097-7.692-.687-11.395-1.548.16.106.298.23.416.37.296.355.408.756.441 1.09 3.315.604 7.094.965 11.113 1.012h.116l.008.002h.165l.012.002h.394l.016.002h.416l.012-.001h.224c11.614-.068 21.284-2.752 23.825-6.338-.876-.888-2.16-1.714-3.774-2.448l-1.734-.663.026-.035a31.498 31.498 0 00-.596-.213l-.3-.101c-4.578-1.524-10.827-2.463-17.72-2.463-11.432 0-21.092 2.582-24.295 6.134z"/><path fill="#f18a2b" d="M17.539 15.158c.092.118.256.216.49.298.092.03.139.125.105.21a.175.175 0 01-.165.107.201.201 0 01-.059-.009c-.418-.143-.631-.337-.731-.527.121-.033.241-.059.36-.079zm-.348-.619l.337.1a.697.697 0 00-.066.177l-.004.02a4.25 4.25 0 00-.358.078.937.937 0 01.091-.375z"/><path fill="#74cfb0" d="M62.637 26.273c-2.474.544-4.632.62-4.844.627.85.078 2.666.112 4.844-.627zm3.89-2.098l-.038.03-.022.016a13.455 13.455 0 01-3.818 2.05l-.012.002a13.438 13.438 0 003.9-2.105z"/><path fill="#74cfb0" d="M57.794 26.9l-.01-.001h-.012z"/><path fill="#bfe9d4" d="M62.649 26.27zm3.889-2.103h-.001zm-9.752-1.389c-.697 0-1.318.238-1.545.744.227-.507.847-.744 1.545-.744zM72.81 20.81c-1.283 3.281-7.31 8.825-16.185 8.826 8.874-.002 14.902-5.545 16.185-8.826z"/><path fill="#41b996" d="M65.211 9.9c1.408-.001 2.765.349 3.818.947 5.737 3.53 3.285 10.88 1.183 12.728-5.608 5.46-10.996 5.418-13.58 5.583a20.51 20.51 0 01-1.283.049c-1.859 0-2.89-.441-1.301-2.471 1.402-1.791 1.56-3.085 2.672-3.085.2 0 .428.042.701.129 1.795.575 1.139 2.299-.395 2.586-1.532.288-1.095.862-1.095.862.754.063 1.476.09 2.166.09 7.051 0 10.806-3.017 11.763-4.401 2.673-4.556 1.49-8.662-2.058-10.92-1.182-.753-2.453-1.004-3.621-1.004-2.337 0-4.263 1.004-4.263 1.004C61.369 10.52 63.335 9.9 65.211 9.9zm-.062-.492c-3.682 0-5.889 2.37-5.889 2.37l-.158.726-.094.43c.99-.571 2.55-1.243 4.412-1.243.586 0 1.203.067 1.841.224 4.161 1.026 6.527 4.31 4.731 9.484-.961 2.77-4.335 4.208-7.343 4.87a12.314 12.314 0 01-3.913.67h-.041c-.366 0-.672-.018-.904-.04h-.02.011c-.32-.03-.5-.066-.507-.067h-.001c1.644-.06 2.221-.888 2.222-1.746 0-.697-.38-1.414-.877-1.758l-.011-.006-.004-.003-.011-.008c-.516-.347-1.19-.532-1.805-.533h-.002c-.698 0-1.319.238-1.545.745l-.003.009-.003.003-.004.012c-1.11 2.354-3.797 5.474-3.797 5.474 1.82.426 3.554.615 5.191.615h.001c8.874-.001 14.902-5.545 16.184-8.826a8.407 8.407 0 00.552-3.05c-.001-3.357-1.851-6.928-5.75-8.007l-.029-.01a9.212 9.212 0 00-2.432-.335zm-6.14 3.526h-.001l-.273 1.253.128-.585z"/><path fill="#41b996" d="M62.649 26.27zm3.889-2.102v-.001l.007-.005z"/><path fill="#09916b" d="M63.42 11.69c-1.862 0-3.422.673-4.411 1.245l-.274 1.252c.007-.01 1.152-1.5 4.014-1.5.684 0 1.465.085 2.352.296 2.668.633 4.3 3.059 4.3 5.69 0 1.92-.87 3.953-2.84 5.476l-.008.007-.005.004-.003.002-.007.006h-.001l-.01.008-.038.029h-.001l-.02.016a13.484 13.484 0 01-3.82 2.05c3.009-.663 6.383-2.102 7.344-4.872 1.796-5.173-.57-8.458-4.73-9.483a7.648 7.648 0 00-1.842-.225z"/><path fill="#41b996" d="M57.782 26.899h-.011.02z"/><path fill="#c0e9d3" d="M65.952 10.1c-.276 0-.485.07-.5.179-.018.134.27.279.642.322.072.008.14.013.207.013.275 0 .484-.07.499-.18.017-.134-.27-.278-.642-.321a1.651 1.651 0 00-.206-.013z"/><path fill="#41b996" d="M42.03 35.316s-.288.1-.814.245c-1.252.346-3.848.948-7.091 1.071a29.8 29.8 0 01-1.17.022c-1.66 0-3.457-.136-5.31-.495a24.169 24.169 0 01-3.192-.843h-.001l-.001.001h-.001l-.003.002-.001.001h-.001l-.003.002h-.001v.001l-.143.086c-.081.051-.191.12-.323.207l-.104.071c.68.351 3.37 1.551 8.33 1.551 2.255 0 4.977-.248 8.195-.937a.305.305 0 01.088-.014c.632 0 1.51 2.026.668 4.05-.843 2.025-3.407 4.05-9.663 4.05-.35 0-.712-.007-1.085-.02a43.519 43.519 0 002.918.092h.3c8.793-.052 12.368-2.5 12.715-4.554-.263 1.553-2.373 3.331-7.191 4.13 9.174-1.97 4.43-6.915 2.48-8.59.263-.08.405-.129.405-.129zm4.323 4.051l.001.004"/><path fill="#609831" d="M46.337 39.904v.001"/><path fill="#09916b" d="M42.03 35.316s-.141.05-.404.128c1.95 1.676 6.694 6.621-2.48 8.59 4.818-.798 6.928-2.576 7.19-4.129v-.002l.002-.002a2.061 2.061 0 00.017-.522l-.001-.005v-.003l-.001-.004c-.233-2.135-4.322-4.05-4.322-4.05z"/><path fill="#c0e9d3" d="M23.926 36.192s-6.658 4.324.817 6.788c.187.042.285.064.313.064.263 0-5.508-1.907-1.13-6.852z"/><path fill="#ede3b1" d="M51.64 4.143l.39.15c.002-.015.005-.031.006-.047z"/><path fill="#e4d184" d="M51.258 4.044s-.495 3.163-.934 3.765l.404.136.3.102.084.03s.705-2.465.917-3.783a17.525 17.525 0 00-.389-.15z"/><path fill="#e9a243" d="M50.728 7.946l.3.102c-.1-.036-.199-.069-.3-.103z"/><path fill="#e4d184" d="M52.473 4.51s-.478 3.196-.849 3.75c.604.222 1.174.455 1.708.698.02-.057.92-2.722 1.051-3.53z"/><path fill="#e9a243" d="M51.625 8.26l-.026.034 1.734.664a24.708 24.708 0 00-1.708-.699z"/><path fill="#fff" d="M9.483 17.488c.409 0 .853.078 1.328.268h-.001a3.553 3.553 0 00-1.327-.268z"/><path fill="#d6efc8" d="M10.204 22.195c.197.137.493.245.935.245.088 0 .183-.005.283-.015a9.7 9.7 0 00-.05 2.03 34.663 34.663 0 01-1.168-2.26zm-1.701-4.127c.216.82 1.091 3.868 2.934 6.967.03.208.067.416.111.624.034.156.069.312.106.468-1.881-2.68-3.041-5.476-3.752-7.78.199-.113.4-.206.601-.279zm1.098-.198c.14 0 .28.01.42.03 1.118.154 1.981.894 2.396 1.319a9.97 9.97 0 00-.945 2.871l-.062.007a2.876 2.876 0 01-.27.014c-.513 0-.851-.165-.964-.478a.767.767 0 01.323-.884.484.484 0 01.245-.067c.165 0 .34.086.514.255a.181.181 0 00.248.004.156.156 0 00.004-.232c-.283-.275-.549-.356-.762-.356a.873.873 0 00-.432.116 1.099 1.099 0 00-.523.831 42.951 42.951 0 01-1.272-3.238 3.193 3.193 0 011.08-.192zm-.118-.382c.408 0 .852.078 1.327.268a3.693 3.693 0 00-1.214-.215c-.604 0-1.205.16-1.794.48l-.019-.07a3.447 3.447 0 011.697-.463z"/><path fill="#e8f4c8" d="M6.814 13.2s.151 1.97.969 4.75a3.447 3.447 0 011.697-.461h.003c.409 0 .853.077 1.328.268.794.282 1.406.784 1.774 1.146.357-.644.788-1.255 1.289-1.816.045-.052.091-.102.137-.152-1.802-.61-6.097-2.19-7.197-3.734z"/><path fill="#a3dfc5" d="M10.316 20.47a1.094 1.094 0 00-.523.83c.137.308.274.606.41.896.198.137.494.244.936.244.088 0 .183-.004.283-.014.015-.112.031-.223.05-.335l-.063.007a3.199 3.199 0 01-.269.013c-.513 0-.852-.165-.964-.477a.768.768 0 01.322-.884.484.484 0 01.245-.067c.165 0 .34.086.515.255.034.034.08.05.126.05a.18.18 0 00.122-.046.159.159 0 00.004-.233c-.283-.274-.549-.355-.763-.355a.872.872 0 00-.43.116zm-2.514-2.45c.032.109.065.218.1.328.2-.113.4-.206.601-.28a9.536 9.536 0 01-.053-.214l.071.209a3.193 3.193 0 011.08-.192c.14 0 .28.009.42.029 1.118.154 1.981.894 2.395 1.319a19.1 19.1 0 01.168-.316c-.367-.362-.979-.864-1.773-1.146a3.727 3.727 0 00-1.215-.215c-.604 0-1.205.16-1.794.479z"/><path fill="#d6efc8" d="M13.206 20.14c.425.488.863.936 1.314 1.347.927 11.345 16.035 14.359 14.873 14.359-.076 0-.221-.013-.443-.037-8.282-.816-13.483-4.644-16.742-8.924-.094-.343-.18-.685-.258-1.026.89 1.363 1.972 2.698 3.275 3.819 0 0-1.545-1.361-3.403-4.451a9.288 9.288 0 01-.04-2.853c.549-.112.949-.36 1.194-.738.3-.467.302-1.041.23-1.495zm-.531-.632c.06.155.462 1.243 0 1.957-.172.268-.452.455-.836.557a9.615 9.615 0 01.827-2.526z"/><path fill="#e8f4c8" d="M14.368 17.053a9.697 9.697 0 00-1.533 2.113c.08.092.128.152.137.166l.022.022c.488.612.987 1.156 1.494 1.637a15.315 15.315 0 01.328-3.794s-.166-.05-.448-.144z"/><path fill="#a3dfc5" d="M12.68 19.468c.003.03.013.058.034.083.16.202.325.4.492.59.072.454.07 1.028-.23 1.494-.246.38-.646.626-1.195.74.018-.119.036-.236.058-.354.384-.102.664-.288.837-.556.46-.714.06-1.802-.001-1.958l-.01-.01zm.155-.302c.08.092.127.152.137.166a.182.182 0 00-.118-.043.179.179 0 00-.098.027c.024-.05.051-.1.078-.15z"/><path fill="#a3dfc5" d="M12.853 19.289a.193.193 0 00-.098.027c-.026.05-.05.102-.076.153a.156.156 0 00.034.082c.161.202.326.4.493.59.424.487.863.935 1.313 1.346a13.278 13.278 0 01-.03-.495 16.125 16.125 0 01-1.495-1.638l-.022-.022a.185.185 0 00-.119-.043z"/><path fill="#ecf8e3" d="M8.521 18.062l-.018.006c.216.82 1.091 3.868 2.934 6.967a9.435 9.435 0 01-.065-.58 34.663 34.663 0 01-1.168-2.26.951.951 0 01-.36-.456c-.05-.14-.065-.29-.05-.439a42.784 42.784 0 01-1.273-3.238z"/><path fill="#d4f0e0" d="M9.794 21.3c.136.308.273.606.41.895a.948.948 0 01-.36-.456.99.99 0 01-.05-.439zM8.45 17.854l.07.208-.016.006-.054-.214z"/><path fill="#ecf8e3" d="M11.822 25.227c.02.123.044.246.07.368l.058.264c.89 1.363 1.972 2.698 3.274 3.819 0 0-1.545-1.361-3.402-4.451z"/><path fill="#e4aa45" d="M18.056 14.788c.606.167 1.24.327 1.893.479-.456-.304-1.079-.465-1.86-.48z"/><path fill="#d4dc85" d="M14.66 16.304a9.123 9.123 0 00-.648.63c.132.046.252.086.356.12.22-.23.446-.441.677-.634-.13-.038-.26-.077-.385-.116z"/><path fill="#b8cd4e" d="M14.963 16.05a8.7 8.7 0 00-.304.254c.126.038.255.078.385.116.104-.087.208-.17.314-.249-.133-.04-.265-.08-.395-.121z"/><path fill="#e9da99" d="M15.737 15.51c-.261.157-.52.337-.773.54.129.041.26.081.394.121.272-.203.546-.38.82-.527-.15-.044-.295-.089-.441-.134zm4.705 1.15c.011.074.017.146.021.212l.354.086c0-.071-.004-.15-.012-.23l-.363-.068z"/><path fill="#ddc86e" d="M20.442 16.66l.363.068v-.001a38.99 38.99 0 01-.363-.067z"/><path fill="#e59b32" d="M15.737 15.51c.145.045.294.09.442.133a4.83 4.83 0 011-.406.702.702 0 01-.079-.322 5.35 5.35 0 00-1.363.595zm2.286-.722c-.185 0-.374.017-.565.049a.388.388 0 00.081.32 3.15 3.15 0 01.496-.04h.048c.942.016 1.617.259 2.003.72.219.262.317.559.356.823l.363.067a1.977 1.977 0 00-.44-1.09 1.922 1.922 0 00-.416-.37 49.206 49.206 0 01-1.893-.48z"/><path fill="#e77d17" d="M17.458 14.837c-.118.02-.237.046-.357.078 0 .098.02.21.079.322.12-.032.24-.06.359-.08a.39.39 0 01-.081-.32z"/><path fill="#f4ecc8" d="M12.205 28.12c.276.895.584 1.79.887 2.668.34.986.675 1.958.954 2.9l.342-.074c-.282-.952-.62-1.932-.962-2.928-.222-.643-.447-1.296-.66-1.95a19.362 19.362 0 01-.561-.617z"/><path fill="#e9da99" d="M14.387 33.614l-.342.074c.05.165.097.331.143.495l.341-.076a37.55 37.55 0 00-.142-.492z"/><path fill="#ddc86e" d="M14.529 34.107c-.115.025-.228.05-.341.077.704 2.542.924 4.829-.385 6.51.126.027.247.058.359.09 1.306-1.772 1.079-4.105.367-6.677z"/><path fill="#bbd682" d="M11.654 26.128c.156.662.345 1.327.55 1.992.183.21.37.415.56.617a40.69 40.69 0 01-.556-1.852 22.445 22.445 0 01-.554-.757z"/><path fill="#e9da99" d="M11.568 47.187l.04.015.162.06.196.068.122.042.14.046.112.036c.04.013.082.025.119.038.032.01.062.02.092.028l.096.03.073.02.076.022.048.013.054.014.024.006.025.007.052-.059a45.08 45.08 0 01-1.431-.386z"/><path fill="#ddc86e" d="M15.149 42.063c-.003.618-.234 1.464-.742 2.504-.935 1.916-1.752 2.792-1.752 2.792h-.002c-.06-.015-2.425-.617-4.696-2.083l-.034.058a14.786 14.786 0 001.318.802l.182.096.235.122.192.095c.072.036.145.072.216.105l.19.089c.07.032.138.064.207.094l.181.079c.068.029.134.058.201.085l.168.07c.068.029.133.054.198.08l.149.058.208.079c.463.132.939.26 1.431.386.193-.224.904-1.101 1.7-2.733.485-.994.719-1.812.74-2.422a3.081 3.081 0 01-.29-.356z"/><path fill="#d8b94e" d="M14.96 41.265c.123.192.188.456.188.784v.013c.084.12.18.24.292.356.02-.565-.14-.95-.45-1.135z"/><path fill="#cddd99" d="M11.447 22.424l-.024.002a9.622 9.622 0 00-.051 2.029c.15.268.302.526.45.772a9.288 9.288 0 01-.04-2.853 3.583 3.583 0 01-.335.05zm.026-.333c.13-.016.253-.039.366-.069a9.615 9.615 0 01.827-2.526 4.032 4.032 0 00-.25-.277 9.957 9.957 0 00-.943 2.872z"/><path fill="#dde19a" d="M14.011 16.935l-.138.151a10.043 10.043 0 00-1.289 1.817c.104.101.187.191.25.263a9.702 9.702 0 011.533-2.113l-.356-.118z"/><path fill="#9ad19b" d="M11.473 22.091a9.32 9.32 0 00-.05.335l.023-.002c.117-.012.23-.029.335-.05.017-.118.035-.235.057-.352-.112.03-.234.053-.365.07zm.943-2.872c.127.13.212.231.25.277l.013-.028a.158.158 0 01.07-.147l.006-.005c.025-.05.052-.1.08-.15a4.463 4.463 0 00-.25-.263c-.059.104-.114.21-.169.316z"/><path fill="#9ad19b" d="M12.755 19.316l-.007.005a.158.158 0 00-.069.147l.076-.152z"/><path fill="#cddd99" d="M11.437 25.035c.03.208.067.417.111.624.034.156.07.313.106.468.178.255.362.507.554.758-.094-.343-.18-.685-.258-1.026-.179-.275-.35-.549-.513-.824z"/><path fill="#e1e5b1" d="M11.372 24.455c.016.194.038.387.065.58.164.275.334.55.513.824-.02-.089-.04-.177-.057-.264a7.741 7.741 0 01-.071-.369 31.25 31.25 0 01-.45-.77z"/><path fill="#e8a55d" d="M7.632 45.06s2.452-4.38 3.737-4.489c1.285-.11 2.687.055 3.33.438.642.383.642 1.642-.293 3.558-.934 1.916-1.752 2.792-1.752 2.792s-2.628-.657-5.022-2.299z"/><path fill="#df8332" d="M8.129 44.814s2.146-3.9 3.197-3.9c1.052 0 2.905.15 2.775 1.218-.132 1.067-1.534 4.146-1.972 4.35a.351.351 0 01-.15.026c-.716 0-3.085-1.015-3.85-1.694zm4.035-4.276c-.265 0-.532.01-.794.033-1.285.11-3.737 4.489-3.737 4.489.297.204.597.392.896.567 1.282.513 2.976 1.158 3.409 1.158h.016c1.402-.301 2.482-3.45 2.658-4.735.107-.784-1.09-1.253-2.038-1.5.866.037 1.662.19 2.108.449-.516-.298-1.497-.461-2.516-.461zm-3.635 5.089l-.004-.002c2.082 1.213 4.074 1.72 4.128 1.734-.055-.014-2.044-.52-4.124-1.732zm6.162-4.623l.002.002.006.003a2.387 2.387 0 00-.008-.005zm0 0l-.004-.002.004.002zm-.004-.002a.75.75 0 00-.005-.003l.003.002z"/><path fill="#d4601e" d="M9.963 43.603l.026-.096.01.03zm-.064-.719a2.016 2.016 0 00-.04.082l-.042.083c-.049.09-.099.146-.15.167l-.058-.054a.124.124 0 00-.088.062.34.34 0 00-.028.104.363.363 0 01-.028.103l.024.007.031-.005a.134.134 0 01.038-.007l.012.002c.01.005.016.018.018.038a7.79 7.79 0 01-.347.6c-.157.243-.25.393-.286.451.02.018.022.04.012.066a.635.635 0 01-.035.074c.012.017.024.03.042.038.016.008.04.012.072.012l.02-.001h.026c.027 0 .043.002.053.007.021.01.03.039.021.086l.034-.013v.108c.004.002.02.01.046.026l.025.007.027-.011c.058-.068.061-.123.008-.162l.096-.026c.01.024.01.042-.003.053-.006.057.021.094.082.111l.03-.047a1.28 1.28 0 00.072-.239l-.028-.025-.026-.005a.155.155 0 00-.04.006.176.176 0 01-.04.006l-.026-.005-.016-.011c.031-.124.065-.219.1-.284a.695.695 0 01.108-.147 1.12 1.12 0 00.054-.125c.023-.056.04-.096.054-.122a.35.35 0 01.058-.072.383.383 0 00.051-.065.242.242 0 00.021-.058.327.327 0 01.018-.054c.012-.023.033-.034.062-.035.01.002.02.016.034.042l.048.005c.006.002.025.017.058.042a.144.144 0 00.07.033c.02-.042.07-.114.146-.213l.002-.003c-.002-.035-.016-.059-.045-.072a.24.24 0 00-.088-.016.272.272 0 01-.09-.016.499.499 0 01.055-.15c.018-.032.05-.081.097-.146a.793.793 0 00.137-.232l-.056-.053a.522.522 0 00-.126-.092.171.171 0 00-.077-.019c-.072 0-.139.054-.199.164zm-.699 2.01v-.001.001zm1.384-.701l.089-.166c.036-.067.077-.108.125-.123l.037-.066c.009.026.02.042.036.046l.034-.012a.571.571 0 00-.055.145.682.682 0 01-.05.144c-.03.053-.071.079-.127.079h-.001zm-.161-.452l-.277.32c.007.033-.005.075-.033.126l-.055.099c.009.017.008.036-.005.06l-.015.02-.013.024c-.018.032-.012.056.018.073l-.036.009c.013.013.015.029.004.048l-.025.046c-.014.054-.002.116.035.189a.343.343 0 01.049.172c.038.018.069.055.093.11.023.057.046.09.068.1a.128.128 0 00.055.012.31.31 0 00.063-.008h.022a.223.223 0 00.117-.035.365.365 0 01.133-.048l.008-.021c.009-.02.036-.04.078-.062.04-.022.066-.041.074-.056.014-.025.003-.056-.032-.095-.02-.048-.044-.08-.073-.092l-.037-.008a.212.212 0 00-.111.04 4.76 4.76 0 00-.143.106l-.02.002-.037-.01c-.043-.02-.067-.058-.072-.116.047-.028.085-.094.117-.197.03-.093.077-.151.14-.173l.012.084.034-.012c.004.014.05.037.14.067l.007-.083a.427.427 0 01.049-.167l.022.263a.122.122 0 00.04.037l.03.005h.013l.01-.001a.09.09 0 01.04.009l.042.03a.301.301 0 00.06-.056l.047-.083a.175.175 0 01.065-.07c.074-.164.109-.333.105-.508a.633.633 0 00-.25-.235.371.371 0 00-.257-.027l-.027-.02a.095.095 0 00-.044-.01c-.06 0-.136.047-.228.142zm1.225 1.216a.106.106 0 01-.05-.013l-.123.146a.843.843 0 00-.107.17v.074c-.001.027.009.045.029.054l.038.008.276-.452a.202.202 0 01-.063.013zm.673-.245l-.215.394a3.112 3.112 0 01-.245.39c.01.012.008.036-.011.07l-.025.04a.706.706 0 00-.041.091.95.95 0 01-.044.098.26.26 0 01-.051.066.133.133 0 00-.08-.089.517.517 0 00-.09-.03.723.723 0 01-.084-.029c-.051-.025-.066-.067-.046-.127a.673.673 0 01-.123.012.509.509 0 01-.225-.05.35.35 0 01-.101-.07c-.046-.173-.047-.3-.002-.383a.464.464 0 01.052-.072c.11-.192.258-.288.442-.288a.517.517 0 01.28.051l.044.025.024-.004c.018 0 .04.006.064.017l.082.04.006.032c.003 0 .066-.038.188-.11a.49.49 0 01.2-.074zm-.585-.58l.048.003.315.1a.87.87 0 01.089.095c.006-.002.025-.003.057-.005.023 0 .038-.006.044-.018l.009-.029c.015.003.028.018.038.043l-.033.01c.019.115.014.2-.017.256a.265.265 0 01-.09.093h-.005c-.027 0-.058.015-.09.045a.132.132 0 01-.094.046H12a.14.14 0 01-.055-.013c-.03-.014-.035-.047-.016-.097a.394.394 0 00.035-.118c.03-.047.035-.092.01-.134l-.034-.004c-.073 0-.164.05-.272.151l-.01-.033a.701.701 0 01-.154-.046.38.38 0 01-.111-.08c.074-.103.126-.166.155-.193a.282.282 0 01.187-.072z"/><path fill="#cb4422" d="M12.574 40.55c.949.247 2.145.716 2.038 1.5-.176 1.286-1.256 4.434-2.658 4.735h-.016c-.433 0-2.132-.646-3.413-1.16a17.751 17.751 0 004.128 1.734h.002s.817-.875 1.752-2.791c.51-1.048.742-1.9.742-2.518 0-.33-.065-.592-.188-.784a.825.825 0 00-.262-.257c-.443-.264-1.248-.42-2.125-.46z"/><path fill="#ecb67f" d="M11.46 41.13c-.214 0-.65.09-1.17.693-.176.203-.181.282-.09.282.294 0 1.605-.833 1.404-.959 0 0-.051-.017-.143-.017z"/><path fill="#a85222" d="M20.073 15.364c-.455-.544-1.221-.831-2.275-.849-1.345-.029-2.912.835-4.216 2.298-2.1 2.354-2.968 5.559-2.325 8.572.364 1.706.962 3.446 1.544 5.129 1.366 3.969 2.658 7.716.537 10.117a.157.157 0 00.023.231.182.182 0 00.246-.022c2.244-2.539.924-6.37-.473-10.427-.578-1.674-1.174-3.405-1.534-5.092-.622-2.917.219-6.019 2.25-8.297 1.222-1.369 2.672-2.181 3.893-2.181h.048c.942.017 1.617.26 2.004.721.28.334.362.728.376 1.035l.354.086c-.001-.368-.085-.881-.452-1.321z"/><path fill="#f9f6e6" d="M8.098 7.509c-.072.085-3.639 4.356 6.017 7.608 0 0-10.279-2.627-6.017-7.608z"/><path fill="#f1993a" d="M46.733 8.753c-.653 0-1.183.166-1.183.37s.53.37 1.183.37 1.183-.166 1.183-.37-.53-.37-1.183-.37zm1.84 1.054c-.387 0-.701.098-.701.22 0 .12.314.218.7.218.388 0 .702-.099.702-.219s-.314-.219-.701-.219z"/></svg>