<svg xmlns="http://www.w3.org/2000/svg" width="46" height="54"><path fill="#d2b364" d="M33.278 52.12c-.32.171-.652.327-.996.47.449-.143.789-.3.996-.47z"/><path fill="#e48baf" d="M25.363 53.798l.09-.001c-.36.015-.722.022-1.085.023l.348-.012c.204-.002.408-.006.614-.012zm-6.016-.364l.168.023c.456.063.908.123 1.364.176a34.056 34.056 0 01-1.532-.2z"/><path fill="#df3981" d="M25.117 53.787c-.134.008-.268.016-.4.021.204-.002.408-.006.614-.012z"/><path fill="#f78eac" d="M26.803 49.804c1.483.135 2.805.326 3.874.556.224-.073.442-.15.655-.235a67.626 67.626 0 00-4.529-.321z"/><path fill="#f68a98" d="M21.944 49.591c-2.432 0-4.604.161-6.206.436l.25.052c2.183-.216 4.73-.341 7.452-.341 1.157 0 2.283.023 3.363.066a52.826 52.826 0 00-3.482-.196 53.562 53.562 0 00-1.377-.017z"/><path fill="#f68392" d="M23.44 49.739c-2.722 0-5.27.125-7.451.34.376.08.789.162 1.232.244 1.145-.28 2.97-.45 5.07-.45.316 0 .639.004.966.012 2.653.064 4.958.382 6.198.8.421-.09.829-.198 1.222-.325-1.069-.23-2.39-.421-3.874-.556a84.771 84.771 0 00-3.363-.065z"/><path fill="#f37881" d="M22.29 49.872c-2.1 0-3.924.171-5.068.45 2.133.396 4.962.79 7.757.79 1.542 0 3.076-.12 4.476-.427-1.24-.418-3.545-.737-6.197-.8a39.646 39.646 0 00-.967-.013z"/><path fill="#f46d9a" d="M12.946 50.481l.103.496c.245-.294.875-.556 1.794-.77a38.73 38.73 0 00-1.897.274zm17.732-.122c1.105.238 1.942.517 2.41.816.088-.033.175-.068.262-.102l.109-.67a45.647 45.647 0 00-2.126-.278c-.213.085-.432.162-.655.234z"/><path fill="#f46787" d="M15.738 50.027c-.322.056-.622.115-.896.18.37-.045.75-.087 1.147-.127l-.251-.053z"/><path fill="#f36583" d="M30.677 50.36c1.106.237 1.943.516 2.412.815-2.908 1.106-6.006 1.496-8.925 1.496a37.51 37.51 0 01-5.27-.389c.098-.022.185-.044.259-.067 1.135.166 2.499.28 3.97.315.327.008.649.012.966.012 3.544 0 6.302-.487 6.337-1.158.012-.246-.342-.486-.971-.699.42-.09.829-.199 1.222-.326zm-14.688-.28c.376.078.789.16 1.232.242-.788.193-1.253.435-1.267.708-.007.125.082.248.252.366a77.794 77.794 0 00-2.336-.137 37.67 37.67 0 01-.81-.224l-.011-.059c.245-.293.875-.555 1.794-.77.369-.045.75-.087 1.146-.127z"/><path fill="#f36583" d="M13.87 51.259c1.306.347 3.039.74 5.025 1.023.097-.022.184-.044.258-.067-1.423-.207-2.486-.497-2.947-.818-.694-.053-1.48-.1-2.336-.138z"/><path fill="#f05d76" d="M17.221 50.322c-.788.192-1.254.435-1.268.708-.006.125.082.248.252.366 2.033.156 3.287.371 3.287.61 0 .071-.117.141-.339.21 1.134.165 2.5.278 3.97.314.327.008.65.012.965.012 3.544 0 6.303-.488 6.337-1.158.013-.247-.342-.486-.97-.699-1.4.306-2.934.426-4.476.426-2.796 0-5.624-.392-7.758-.788z"/><path fill="#f05d76" d="M16.206 51.397c.46.32 1.524.61 2.947.818.223-.067.34-.137.34-.21 0-.237-1.255-.452-3.287-.608z"/><path fill="#f25288" d="M33.35 51.074l-.262.102c.084.052.156.106.216.161l.045-.264z"/><path fill="#f04f77" d="M33.088 51.175c.084.053.156.107.216.162l-.003.015a5.872 5.872 0 01-.057.29c-2.082 1.211-4.993 1.634-7.972 1.634h-.016c-2.808 0-5.654-.37-7.892-.768a14.744 14.744 0 001.531-.226 37.51 37.51 0 005.27.39c2.917 0 6.016-.39 8.923-1.497zm-20.027-.14c.247.071.517.146.81.224l-.77-.032z"/><path fill="#f04f77" d="M13.101 51.228l.08.379a55.27 55.27 0 004.183.9 14.52 14.52 0 001.531-.224 43.97 43.97 0 01-5.025-1.024l-.769-.031z"/><path fill="#f681a4" d="M23.06 44.523a4.814 4.814 0 00-.247.335c.137.323.295.57.451.65.336.176.891.554 1.573.554.34 0 .711-.094 1.103-.352.453-.298.874-.54 1.246-.73a17.663 17.663 0 00-.418-.338 9.954 9.954 0 00-.89.525c-.336.222-.7.323-1.035.323h-.006c-.677-.008-1.143-.352-1.376-.463l.17-.156-.172.154c-.205-.121-.297-.287-.399-.502z"/><path fill="#e0aec8" d="M24.426 43.935a.757.757 0 00-.698.412s.327-.17.888-.17c.234 0 .51.03.818.113 0 0-.512-.355-1.008-.355z"/><path fill="#d7aac2" d="M26.81 44.62c-.015.007-.029.014-.045.02l.004.001.04-.02zm-3.787-.176c.013.027.024.054.037.079l.017-.02a.2.2 0 01-.054-.06z"/><path fill="#f2bdd0" d="M24.524 43.662a.58.58 0 00-.537.316s.251-.129.683-.129c.18 0 .39.022.627.085 0 0-.393-.272-.773-.272z"/><path fill="#f8a0bb" d="M34.243 16.665c.367-.09.735-.181 1.106-.28-.35-.089-.699-.174-1.049-.255l-.057.535zm-14.43-1.791L18.118 18.1c.018.003.036.004.053.005l.027.002h.023a48.58 48.58 0 003.312.113h.006a52.92 52.92 0 009.676-.91l.141-1.764c-3.135-.523-6.199-.723-9.054-.723-.85 0-1.68.018-2.489.05z"/><path fill="#eb086e" d="M6.13 15.867c.006-.088.082-.166.19-.194 5.893-1.553 11.27-2.081 15.855-2.081 8.164 0 13.817 1.674 15.446 2.22.105.034.17.117.17.205-.003.09-.074.169-.18.202-6.026 1.803-11.435 2.442-16.071 2.442-7.05-.001-12.311-1.476-15.253-2.582-.103-.04-.165-.123-.157-.212zm30.61.138c-2.17-.661-7.383-1.972-14.565-1.971-4.356 0-9.435.48-15.002 1.88 2.978 1.049 7.907 2.308 14.367 2.307 4.397 0 9.507-.583 15.2-2.216z"/><path fill="#f25491" d="M7.172 15.915l.348.12-.175-.163-.173.043zm27.128.215c.35.081.7.166 1.05.256.191-.05.384-.102.577-.155l.025-.007c.031-.007.06-.016.09-.024.038-.01.077-.02.117-.032h.002l.58-.163a36.59 36.59 0 00-2.36-.629l-.08.754zm-12.126-2.097c-.63 0-1.276.01-1.936.031l-.425.81c.81-.033 1.64-.05 2.49-.05 2.855 0 5.918.2 9.053.722l.061-.762a55.941 55.941 0 00-9.236-.75z"/><path fill="#e90f58" d="M36.042 16.2l-.09.025.09-.024zm-29.245-.42c.121.046.247.09.375.136.058-.015.115-.03.173-.043l-.195-.181-.353.089zm27.584-.404c.987.23 1.781.454 2.358.629l.393-.114a36.176 36.176 0 00-2.727-.738l-.024.223zM20.355 13.84l-.117.224c.66-.022 1.305-.031 1.936-.031h.007c3.628 0 6.753.334 9.236.75l.02-.221a56.47 56.47 0 00-9.26-.75c-.595 0-1.202.01-1.822.028z"/><path fill="#f9e30e" d="M30.15 34.817s2.181-29.246 2.538-30.84c.358-1.593 2.454-3.66 5.25-3.477 2.795.182 6.772 3.38 7.469 5.63l-1.925.463s-2.034-3.806-5.373-4.172c-3.339-.365-3.186 5.23-3.403 7.272l-2.661 24.954z"/><path fill="#fadb05" d="M39.524 2.551c2.305.904 3.721 3.125 4.108 3.774l.561-.134c-.625-.966-2.277-3.161-4.669-3.64z"/><path fill="#f9d606" d="M37.318.712c-2.299.125-4.05 1.918-4.354 3.304-.029.122-.079.5-.136 1.056-.228 2.131-.631 6.965-1.042 12.13.242-.048.486-.096.73-.148.514-6.443 1.011-12.32 1.165-13.012.285-1.268 1.673-2.836 3.637-3.33z"/><path fill="#f6e839" d="M37.794 1.177c-2.076 0-3.01 1.617-3.01 1.617.898-1.152 2.433-1.381 3.512-1.381.71 0 1.224.1 1.224.1-.647-.239-1.22-.336-1.727-.336z"/><path fill="#f8be09" d="M29.87 34.804c0-.002 1.8-24.17 2.398-29.768.06-.564.105-.933.143-1.098.385-1.684 2.545-3.836 5.55-3.657 3.007.232 6.948 3.435 7.718 5.798.034.112-.048.226-.19.26l-1.925.463c-.138.033-.287-.021-.342-.124-.005-.002-.497-.931-1.403-1.906-.904-.978-2.21-1.97-3.752-2.134-.038-.006-.075-.008-.11-.011-.937-.06-1.53.423-1.989 1.294-.442.862-.658 2.05-.777 3.17-.11 1.018-.138 1.978-.206 2.62l-2.66 24.953c-.012.105-.116.189-.249.2l-1.895.17a.542.542 0 01-.057 0 .32.32 0 01-.169-.06c-.058-.043-.092-.105-.086-.17zm2.957-29.731c-.56 5.245-2.18 26.874-2.378 29.495l1.334-.12c.23-2.147 2.435-22.836 2.642-24.773.066-.62.098-1.59.207-2.62.122-1.14.337-2.355.817-3.297.462-.932 1.283-1.653 2.555-1.568.048.002.099.007.144.013 3.12.374 5.024 3.353 5.484 4.123l1.436-.344C44.262 3.85 40.42.847 37.915.717l-.033-.002c-2.571-.168-4.59 1.804-4.918 3.3-.028.123-.078.5-.136 1.058z"/><path fill="#ee1f48" d="M2.456 11.197A6404.1 6404.1 0 0114.8 22.672c.378.363.546.36.618.316L12.243 5.186C8.803 5.8 5.27 7.49 2.456 11.198z"/><path fill="#f25966" d="M15.537 23.023l-.048.032c-.051.034-.135.05-.219.034-.146-.029-.308-.126-.557-.362-.449-.43-8.72-8.11-12.342-11.473l-.051-.047.04-.055c2.827-3.726 6.391-5.433 9.858-6.05l.119-.022zM12.15 5.293c-3.358.623-6.794 2.285-9.557 5.895 3.649 3.388 11.842 10.995 12.292 11.428.199.192.337.272.407.295z"/><path fill="#f25966" d="M15.466 22.928l8.66-16.507c-2.15-.766-6.922-2.121-11.884-1.235l3.175 17.802a.12.12 0 00.05-.06z"/><path fill="#ef2d4d" d="M24.27 6.377l-8.699 16.58a.192.192 0 01-.084.099l-.154.095-3.215-18.032.1-.018c2.792-.498 5.52-.293 7.76.119a27.41 27.41 0 014.194 1.122zM12.367 5.253l3.11 17.429 8.505-16.215a27.171 27.171 0 00-4.056-1.076c-2.189-.403-4.845-.605-7.559-.138z"/><path fill="#c3dd13" d="M24.08 6.501l.105.038 1.059-2.018-.093-.037c-.34-.13-.673-.253-1.003-.37-.994.485-1.975.99-2.872 1.561a26.8 26.8 0 012.804.826z"/><path fill="#b8c919" d="M19.924 5.39c.475.087.925.184 1.352.285.896-.571 1.877-1.076 2.872-1.561a34.92 34.92 0 00-2.684-.836c-.978.635-1.952 1.259-2.93 1.896.48.062.945.134 1.39.216z"/><path fill="#c3dd13" d="M18.534 5.174c.979-.637 1.953-1.26 2.93-1.896a29.25 29.25 0 00-2.23-.505h-.006a25.575 25.575 0 00-1.648-.25c-.817.814-1.608 1.646-2.416 2.466 1.176-.025 2.31.05 3.37.185z"/><path fill="#b8c919" d="M12.33 5.26c.958-.167 1.909-.25 2.834-.271.809-.82 1.599-1.652 2.416-2.466a22.762 22.762 0 00-3.107-.159 52.03 52.03 0 00-2.224 2.337c.034.185.062.371.082.559z"/><path fill="#c3dd13" d="M12.249 4.701a51.499 51.499 0 012.224-2.337 19.622 19.622 0 00-2.855.262c.269.68.5 1.366.63 2.075z"/><path fill="#a4ca1e" d="M7.54 6.904c-1.096-.338-2.174-.746-3.267-1.151A15.873 15.873 0 001.95 7.902c.94.323 1.866.66 2.8.959a14.886 14.886 0 012.79-1.959z"/><path fill="#a0c120" d="M.679 9.608c.002-.004.405-.723 1.272-1.706.94.323 1.866.66 2.8.959a16.462 16.462 0 00-2.198 2.382l-.08.105-.102-.094L.695 9.699.65 9.657zM7.54 6.904a15.334 15.334 0 013.366-1.331L6.746 4.21a16.255 16.255 0 00-2.473 1.541c1.093.405 2.17.813 3.267 1.151z"/><path fill="#a4ca1e" d="M10.906 5.572c.476-.126.95-.229 1.425-.312-.09-.91-.375-1.777-.713-2.634a16.974 16.974 0 00-4.872 1.585l4.16 1.361z"/><path fill="#c3dd13" d="M11.724 2.6c.34.86.627 1.733.718 2.654l.007.075-.094.017c-3.405.595-6.9 2.25-9.707 5.94l-.159.212-.102-.093-.102-.094A2148.29 2148.29 0 00.617 9.76l-.009-.008-.088-.081.028-.051.03-.052c.003-.006 1.308-2.34 4.295-4.366 1.682-1.141 3.903-2.187 6.721-2.662l.1-.016zM5.02 5.336C2.07 7.338.783 9.639.78 9.643l-.01.019.018-.012.023.02.088.082.336.313 1.221 1.133-.07-.067.084-.055.047.042c2.795-3.638 6.29-5.313 9.694-5.926-.094-.846-.355-1.657-.67-2.463-2.728.475-4.883 1.493-6.52 2.606zM.721 9.68l-.026.018.031-.016z"/><path fill="#62af32" d="M19.254 2.687h.006l-.025.083.025-.081c1.83.336 3.807.892 5.94 1.718l.188.072-1.142 2.177-.212-.074a27.021 27.021 0 00-4.135-1.107C14.943 4.574 7.68 4.67 2.648 11.288l-.158.21-.204-.187C1.326 10.42.694 9.834.618 9.76H.614L.61 9.754.519 9.67l.029-.048.03-.054c.004-.006 1.309-2.34 4.296-4.365 2.953-2.01 7.585-3.716 14.178-2.553l-.001-.001zm-.053.17C12.57 1.639 7.968 3.335 5.02 5.336 2.07 7.338.784 9.639.78 9.643l.008.007.023.02.088.083.336.312 1.222 1.133-.072-.067.086-.055.046.043c5.08-6.616 12.457-6.73 17.433-5.814 1.765.324 3.227.779 4.177 1.116l.974-1.857v-.001c-2.118-.82-4.08-1.371-5.888-1.703l-.007-.001z"/><path fill="#f03653" d="M17.641 14.417c-.323 0-.596.143-.684.51-.103.432.003 1.385.403 1.443a.238.238 0 00.04.003c.133 0 .28-.094.42-.234a.468.468 0 01-.27.093c-.013 0-.025 0-.038-.002h-.015c-.23-.057-.305-.278-.363-.516a1.754 1.754 0 01-.008-.695l.082.011-.082-.012.011-.039c.08-.289.337-.415.611-.415a.924.924 0 01.2.021l.018.003c.216.04.395.155.456.334-.023-.29-.272-.443-.598-.49a1.296 1.296 0 00-.183-.015z"/><path fill="#963b1d" d="M17.209 15.03c.08-.34.366-.434.68-.388.313.046.536.215.455.555-.082.34-.506 1.015-.82.969-.313-.046-.397-.795-.315-1.135z"/><path fill="#852c23" d="M18.412 15.257a2.073 2.073 0 01-.34.63c-.16.194-.33.366-.56.344l-.015-.002c-.23-.056-.305-.276-.363-.514a1.76 1.76 0 01-.008-.696l.082.012-.082-.013.011-.04c.094-.341.44-.455.768-.4a.62.62 0 01.042.008l.02.003c.315.058.55.276.458.62a.568.568 0 01-.013.048zm-.162-.03l.011-.042c.064-.301-.093-.417-.353-.471l-.035-.007c-.275-.034-.482.022-.573.3a.46.46 0 00-.01.036c-.038.157-.038.424.01.65.04.23.158.406.235.408v.004l.003-.004.007.002c.072.014.247-.1.384-.284.146-.186.271-.424.321-.591z"/><path fill="#ba6f3f" d="M17.9 15.228c-.086 0-.192.099-.252.235-.064.152-.046.293.043.317l.026.004c.085 0 .193-.1.251-.237.066-.151.047-.292-.042-.315z"/><path fill="#ed1742" d="M6.79 11.53a.909.909 0 00-.286.052c-.311.105-.49.32-.302.658.173.312.734.862 1.064.862a.276.276 0 00.077-.011c.112-.04.166-.166.178-.33a.257.257 0 01-.157.176l-.011.005a.323.323 0 01-.082.01c-.163 0-.32-.11-.476-.233a1.91 1.91 0 01-.421-.476l.062-.022-.062.022-.017-.032c-.14-.27.032-.476.29-.558l.034-.01.015-.005a.703.703 0 01.198-.03c.11 0 .222.029.316.093a.57.57 0 00-.42-.17z"/><path fill="#c12026" d="M7.2 12.563c-.072 0-.158-.087-.2-.205-.046-.128-.023-.245.052-.262l.018-.002c.072 0 .159.086.2.205.047.128.024.245-.052.262zm-.47-.819l-.028.009c-.21.079-.318.193-.215.419l.014.026c.068.124.227.307.395.446.144.125.305.201.379.201l.027-.006.002.003.002-.004.005-.001c.058-.017.11-.16.095-.338a1.49 1.49 0 00-.132-.524l-.017-.033c-.097-.164-.214-.224-.351-.224a.708.708 0 00-.176.026z"/><path fill="#ba1f27" d="M7.275 12.845c-.074 0-.236-.076-.379-.201a1.862 1.862 0 01-.396-.445.332.332 0 00-.013-.027c-.104-.226.005-.34.215-.418l.028-.01a.661.661 0 01.176-.026c.136 0 .254.06.35.224l.018.033c.065.133.122.344.132.525.015.177-.037.32-.095.338h-.005l-.002.004v-.003h-.002zm-.579-1.207l-.016.005-.033.01c-.259.082-.43.288-.29.558l.016.032c.08.139.242.327.421.476.157.123.314.233.477.233a.329.329 0 00.082-.01l.011-.005a.26.26 0 00.157-.176.842.842 0 00.023-.266 1.563 1.563 0 00-.14-.56l-.02-.037a.525.525 0 00-.175-.197.556.556 0 00-.316-.092.696.696 0 00-.197.029z"/><path fill="#cc2427" d="M7.07 12.094l-.018.002c-.075.017-.098.134-.052.262.042.118.128.205.2.205l.018-.002c.076-.017.099-.134.053-.262-.042-.119-.13-.205-.201-.205z"/><path fill="#ed1742" d="M10.096 13.354a1.13 1.13 0 00-.32.05c-.39.116-.627.373-.422.796.192.394.851 1.107 1.256 1.107a.287.287 0 00.083-.012c.14-.041.215-.196.244-.396a.33.33 0 01-.207.21l-.013.005a.426.426 0 01-.086.009c-.206 0-.396-.145-.584-.308a2.274 2.274 0 01-.48-.605l.078-.024-.08.024c-.007-.013-.012-.027-.018-.04-.15-.337.073-.583.4-.671l.04-.011.02-.006a.874.874 0 01.214-.027c.148 0 .293.04.412.128a.692.692 0 00-.537-.23z"/><path fill="#c12026" d="M10.56 14.641c-.09 0-.19-.11-.233-.26-.047-.16-.01-.303.084-.32h.018c.09 0 .192.11.236.26.046.16.008.302-.085.32zm-.52-1.027l-.034.01c-.264.087-.406.221-.296.504a.57.57 0 00.015.034c.075.154.256.387.452.565.17.163.366.264.455.264a.091.091 0 00.03-.005l.003.003v-.004l.008-.002c.072-.018.147-.19.14-.41a1.83 1.83 0 00-.121-.65l-.02-.042c-.111-.215-.258-.29-.436-.29a.91.91 0 00-.195.023z"/><path fill="#ba1f27" d="M10.177 14.726a2.187 2.187 0 01-.468-.598c-.109-.283.033-.417.296-.504l.035-.01a.927.927 0 01.196-.024c.177 0 .325.076.436.291l.02.042c.07.166.123.427.122.65.006.22-.07.392-.142.41l-.007.001v.005l-.003-.004a.064.064 0 01-.03.006c-.09 0-.285-.1-.455-.265zm-.17-1.245l-.02.006-.04.011c-.327.09-.55.334-.4.672l.018.04.08-.025-.079.025c.086.176.272.414.481.604.188.163.378.308.584.308a.426.426 0 00.086-.009l.013-.005a.33.33 0 00.207-.21 1.05 1.05 0 00.05-.324 1.906 1.906 0 00-.133-.694.705.705 0 00-.022-.047.629.629 0 00-.199-.25.688.688 0 00-.412-.129.924.924 0 00-.215.027z"/><path fill="#cc2427" d="M10.43 14.06h-.02c-.093.019-.13.16-.084.32.043.15.145.26.235.26h.018c.094-.017.131-.16.085-.32-.044-.15-.145-.26-.235-.26z"/><path fill="#f03653" d="M18.23 10.649c-.35 0-.642.152-.699.547-.065.438.13 1.383.532 1.419h.023c.14 0 .284-.103.415-.257a.441.441 0 01-.283.109l-.015-.001-.016-.001c-.234-.043-.33-.257-.408-.493a1.754 1.754 0 01-.07-.693l.081.007-.082-.007a.24.24 0 01.006-.04c.056-.31.33-.448.623-.448.036 0 .071.002.107.005.015 0 .028.003.042.005l.02.002c.218.028.407.132.485.307-.05-.288-.312-.426-.642-.455a1.2 1.2 0 00-.119-.006z"/><path fill="#963b1d" d="M17.79 11.286c.05-.345.326-.454.644-.426.316.03.553.185.504.53-.05.342-.413 1.04-.73 1.01-.316-.028-.47-.77-.418-1.114z"/><path fill="#852c23" d="M19.013 11.445c-.04.188-.145.44-.283.647-.142.202-.295.382-.527.374h-.016c-.234-.043-.33-.258-.408-.494a1.771 1.771 0 01-.071-.693.413.413 0 01.007-.04c.062-.346.397-.48.729-.442a.485.485 0 01.042.005h.02c.32.042.575.247.515.595l-.008.049zm-.165-.02a.341.341 0 00.006-.043c.037-.304-.13-.412-.395-.452l-.034-.003c-.28-.018-.48.049-.545.333a.202.202 0 00-.006.034c-.023.159 0 .426.068.648.062.227.197.397.273.395v.003l.003-.003h.008c.07.009.235-.114.356-.305a1.93 1.93 0 00.266-.606z"/><path fill="#ba6f3f" d="M18.505 11.445c-.087 0-.188.105-.236.249-.051.154-.02.295.072.313h.02c.085 0 .187-.103.235-.247.051-.155.018-.294-.07-.313z"/><path fill="#f03653" d="M15.569 12.248h-.007c-.31.001-.56.133-.555.47.002.335.259 1.035.569 1.035.112 0 .216-.093.302-.226a.31.31 0 01-.213.103l-.007.001h-.004c-.183-.016-.28-.172-.368-.344a1.377 1.377 0 01-.136-.519h.064-.064v-.033c.006-.26.237-.387.489-.387h.01l.033.001h.016c.169.004.324.07.404.197-.071-.213-.282-.298-.533-.298z"/><path fill="#963b1d" d="M15.213 12.767c-.002-.264.194-.367.438-.368.242-.002.441.098.443.363.002.264-.19.817-.433.818-.242.002-.445-.548-.447-.813z"/><path fill="#852c23" d="M16.158 12.799a1.477 1.477 0 01-.138.51c-.084.164-.179.312-.355.32l-.011.002c-.183-.015-.28-.171-.368-.343a1.376 1.376 0 01-.136-.52l.064-.001h-.064v-.031c.007-.266.244-.391.5-.388h.048c.247.009.465.145.46.414zm-.128-.003v-.034c-.008-.232-.147-.301-.353-.313h-.027c-.212.007-.355.07-.373.29v.028c.001.122.051.322.129.486.072.167.194.286.252.278l.001.003.002-.003h.006c.055.003.165-.103.234-.256.074-.155.123-.35.129-.48z"/><path fill="#ba6f3f" d="M15.78 12.835c-.068 0-.137.09-.156.206-.021.12.02.225.09.231l.008.001c.069 0 .138-.089.158-.207.019-.12-.021-.223-.092-.23z"/><path fill="#f46977" d="M17.555 18.058h.004l.078-.182zM15.13 5.66s7.641.078 2.508 12.217l4.958-11.12S19.392 5.62 16.144 5.62c-.339 0-.678.013-1.014.04z"/><path fill="#f797b6" d="M22.813 43.667c.137.366.295.646.45.737.337.199.892.627 1.575.627.34 0 .71-.106 1.102-.398.453-.338.874-.61 1.246-.827a8.077 8.077 0 011.342-.645c.448-.155 1.3-.188 1.32-.983.023-.794-2.023-3.234-2.023-3.234s-.35-.125-.912-.131h-.034c-.474 0-1.092.084-1.787.394 0 0-2.288 1.053-2.583 1.837-.204.543-.004 1.8.304 2.623zm7.94-3.978c.446 0 .806-.282.806-.63 0-.35-.36-.631-.805-.631-.445 0-.805.282-.805.63 0 .349.36.63.805.63zm.432-1.384c.229 0 .413-.144.413-.322 0-.18-.184-.323-.413-.323-.227 0-.412.144-.412.323 0 .178.185.322.412.322zM12.968 35.72s-.26 2.207.115 2.734c.2.28.463.35.72.35.222 0 .44-.051.614-.062a4.64 4.64 0 01.224-.005c.237 0 .563.015.969.063.348.042.753.107 1.212.206.158.036.302.05.43.05.839 0 1.085-.655 1.259-.95.063-.104.042-.337-.034-.62-.167-.637-.605-1.535-.99-1.843-.555-.443-2.567-.51-2.567-.51a3.266 3.266 0 00-1.402.245c-.374.16-.55.342-.55.342zm-.607-.425c.255 0 .46-.162.46-.36 0-.2-.205-.361-.46-.361-.254 0-.46.16-.46.36 0 .199.206.36.46.36zm3.902-5.891c-.166.454-.748 1.429.664 1.949.542.199.998.4 1.374.585.599.296.994.554 1.199.715.273.214.547.649 1.146.649.128 0 .27-.02.43-.065.912-.26 2.988-2.534 2.988-2.534s.022-.286-.167-.683c-.16-.335-.47-.75-1.078-1.138 0 0-1.891-1.17-2.91-1.17-.025 0-.053 0-.078.002-.69.044-2.055.619-2.885 1.12-.37.22-.633.429-.683.57zm-.31-1.018c.766 0 1.386-.486 1.386-1.086 0-.6-.62-1.085-1.386-1.085-.766 0-1.386.486-1.386 1.085 0 .6.62 1.086 1.386 1.086zm-.743-2.382c.39 0 .71-.25.71-.556 0-.307-.32-.556-.71-.556-.393 0-.71.249-.71.556 0 .307.317.556.71.556zm-6.408-3.263c.172.05.353.103.545.157l.088.459s-.023-.17-.028-.442c2.794.778 7.484 1.763 13.299 1.763 2.476 0 5.156-.178 7.98-.63l-.404 5.296-.143-.023c-.82-.198-1.79-.203-1.813-.217a1.69 1.69 0 00-.107-.003c-.595 0-1.056.122-1.378.264l-.02.009c-.39.172-.575.36-.593.377l-.016.032c-.07.054-.103.089-.103.089s-.315 2.674.14 3.312c.244.34.56.425.872.425.269 0 .535-.063.744-.075.076-.004.169-.007.277-.007.286 0 .679.018 1.167.077.2.024.414.054.644.09l-.083 1.109c-.006.065.027.127.086.17a.317.317 0 00.169.06l.023.002.033-.001 1.896-.17c.133-.012.236-.096.248-.2l.14-1.311c.166-.213.27-.44.359-.59.074-.127.05-.408-.04-.752a4.96 4.96 0 00-.132-.42l.456-4.274c.318 7.827-.855 18.395-.855 18.395l2.935-22.593c.24-.061.48-.124.72-.19-1.166 9.456-3.214 25.927-3.337 26.024a8.351 8.351 0 01-1.238.68 59.36 59.36 0 00-4.53-.364 47.9 47.9 0 00-4.86-.241c-2.43 0-4.602.183-6.205.494-1.307-.316-2.114-.57-2.114-.57zm2.365-3.32c.772.72 1.472 1.37 2.042 1.9a90.032 90.032 0 00-3.718.548c.157-.858.585-1.875 1.676-2.447zM31.18 17.77l-.091 1.142-.707.15.078-.002c.218 0 .418.056.604.162l-.147 1.886c-2.515-.326-5.058-.456-7.511-.456-2.38 0-4.677.122-6.784.306l.71-1.355c1.546.415 3.126.566 4.585.566 1.948 0 3.68-.27 4.823-.54 1.145-.267 1.7-.537 1.297-.537-.13 0-.36.029-.703.094-1.337.255-3.295.332-5.185.332-1.851 0-3.636-.074-4.704-.13l.45-.86c.702.052 1.424.09 2.169.112h.009c.02 0 .04 0 .06.002h.017c.016 0 .03 0 .047.002h.035c.013 0 .026 0 .039.002a.42.42 0 01.036 0h.04l.042.003h.078l.034.002h.049l.028.002h.079l.05.002h.08l.028.002h.132l.028.002h.135l.025.002h.512c.359 0 .723-.004 1.09-.013l.009-.001h.039l.018-.001.03-.001h.027l.023-.001.033-.001h.02l.038-.002h.012l.044-.001.013-.001.046-.001c2.5-.076 5.204-.341 8.09-.868zM7.665 16.563c.207.067.42.136.642.203.408.378.81.753 1.207 1.12l-1.201-.288.844 4.328-.49.086zm29.036-.08l-.687 5.595a29.62 29.62 0 00-.668-.167l.522-4.02-1.795.383.12-1.138a60.44 60.44 0 002.508-.652z"/><path fill="#ee1785" d="M22.738 18.648zm-2.665-.008c.02 0 .04 0 .06.002l-.06-.002zm-.01 0zM7.666 16.563a38.786 38.786 0 000-.001zm.58.184l.06.019h.002l-.062-.02zm28.456-.264z"/><path fill="#f5749d" d="M9.157 21.926l-.49.086.135.73c.172.05.353.103.544.157zm26.03 1.194c.24-.061.48-.124.722-.19l.104-.852c-.22-.058-.444-.114-.668-.167zM9.492 21.87a5.289 5.289 0 00-.084 1.046c2.794.778 7.484 1.763 13.299 1.763 2.476 0 5.156-.178 7.98-.63.007-.062.012-.127.017-.192-1.345.282-3.954.693-7.754.693-2.797 0-6.238-.222-10.297-.881 0 0 .838-.498 2.287-.746a2.931 2.931 0 01-.226-.196c-.108-.103-.667-.625-1.504-1.405a90.032 90.032 0 00-3.718.548zm7.13-.912l-.981 1.87c.296-.028.61-.044.944-.044.832 0 1.775.102 2.808.379 2.977.794 4.269 1.007 5.218 1.007.347 0 .649-.03.969-.068.87-.104 3.637-.666 5.16-.718l.178-2.276c-2.515-.326-5.058-.456-7.511-.456-2.38 0-4.677.122-6.784.306z"/><path fill="#f686ac" d="M16.584 22.783a9.99 9.99 0 00-.943.045l-.07.13a.158.158 0 01-.035.057v.008l-.047.031-.016.01-.14.086-.01-.055a.331.331 0 01-.052-.006.842.842 0 01-.332-.167c-1.45.248-2.287.746-2.287.746 4.059.66 7.5.882 10.297.882 3.8 0 6.409-.412 7.754-.694.012-.157.025-.314.036-.472-1.523.051-4.29.613-5.16.717-.32.04-.622.068-.97.068-.948 0-2.24-.213-5.216-1.007a10.868 10.868 0 00-2.81-.379z"/><path fill="#f576a3" d="M6.73 16.242l1.09 5.926c.262-.05.545-.102.847-.156l-1.002-5.45a36.78 36.78 0 01-.935-.32zm30.18 6.404c-.388 3.16-.88 7.128-1.376 11.104-.55 4.401-1.105 8.81-1.535 12.124a484.24 484.24 0 01-.532 4.016l-.008.058a39.2 39.2 0 00-2.126-.314 8.256 8.256 0 001.238-.68c.123-.098 2.17-16.568 3.338-26.024.332-.09.667-.185 1-.284zm-29.037-.193c.27.088.58.186.928.288l4.822 26.212s.809.253 2.115.57c-.322.062-.622.13-.895.202a33.75 33.75 0 00-1.897.312zm29.631-6.203l.184.064c-.074.598-.353 2.88-.74 6.018-.31-.089-.62-.174-.934-.255l.686-5.594c.267-.075.534-.153.804-.233z"/><path fill="#ee187a" d="M37.504 16.25c-.27.08-.536.157-.803.232v.001c.267-.075.534-.153.804-.233z"/><path fill="#f3598b" d="M36.014 22.077c.314.08.625.166.935.255-.012.105-.025.209-.04.315-.333.098-.668.193-1 .283l.105-.853zm-27.212.664c-.348-.102-.658-.2-.93-.288l-.052-.285c.262-.05.545-.101.848-.156z"/><path fill="#f681a4" d="M17.367 36.975c.036.097.066.193.092.284l.002.002.003.014c.045.022.09.049.137.08 0 0-.031-.003-.087-.003h-.032c.02.092.03.178.03.259a.41.41 0 01-.047.219l-.256-.09.254.092c-.101.156-.312.78-1.136.79h-.013a1.69 1.69 0 01-.363-.041 6.61 6.61 0 00-.267-.053c-.027.094-.051.186-.074.273.348.042.753.107 1.212.206.158.035.302.05.43.05.839 0 1.085-.655 1.259-.95.063-.105.042-.337-.034-.62a5.99 5.99 0 00-1.11-.512z"/><path fill="#f681a4" d="M13.518 35.378c-.374.161-.55.343-.55.343s-.26 2.207.114 2.733c.202.281.463.351.72.351.223 0 .442-.052.614-.063.062-.003.137-.005.225-.005a8.2 8.2 0 01.97.064 9.79 9.79 0 01.073-.274 8.52 8.52 0 00-.52-.082l-.03-.003a5.584 5.584 0 00-.635-.043c-.055 0-.1.002-.143.004-.065 0-.234.041-.445.043h-.03c-.239 0-.55-.105-.717-.356-.167-.254-.17-.608-.179-.992 0-.522.061-1.046.063-1.049l.055-.112c.018-.017.162-.163.461-.295l.013-.006c.106-.046.23-.09.374-.124a13.592 13.592 0 00-.433-.134z"/><path fill="#f681a4" d="M14.817 35.132c-.57 0-.998.117-1.299.246.131.038.278.083.433.134.188-.045.41-.075.662-.075h.009l.084.001c.031.02 1.393.004 1.987.423.284.241.522.693.674 1.114.44.143.853.362 1.11.511-.167-.636-.605-1.535-.99-1.842-.555-.444-2.567-.51-2.567-.51l-.103-.002z"/><path fill="#f57ea2" d="M17.463 37.275l.02.077h.031c.055 0 .087.004.087.004a1.122 1.122 0 00-.138-.081z"/><path fill="#f681a4" d="M29.309 33.605c.2.023.414.053.644.09l.036-.475c-.191-.04-.372-.074-.542-.103-.053.17-.1.335-.138.488zm3.156-.25c.166-.214.27-.44.359-.59.074-.128.05-.41-.04-.753a6.641 6.641 0 00-.166-.094c-.06.551-.11 1.034-.153 1.436z"/><path fill="#f681a4" d="M26.212 29.783c-.068.054-.103.09-.103.09s-.316 2.674.14 3.311c.243.341.56.425.871.425.27 0 .535-.062.744-.075.076-.004.17-.007.278-.007.285 0 .678.02 1.167.077.04-.152.085-.317.137-.487a10.9 10.9 0 00-.515-.075l-.02-.003a7.242 7.242 0 00-.864-.056c-.075 0-.138.003-.194.006-.115.002-.339.058-.605.06h-.038c-.302 0-.679-.127-.894-.447-.207-.31-.222-.795-.23-1.313 0-.707.085-1.422.085-1.425zm6.44 1.81c.052.146.096.288.132.419-.05-.03-.107-.06-.167-.094l.035-.326zm-2.37-2.248v.014c-.048-.015-.096-.026-.144-.038zm-3.369 9.468a19.05 19.05 0 00-.386.355c.433.016.7.11.724.12l.116.079c.005.032 1.565 1.804 1.604 2.595v.01h-.001v.005c-.016.786-.968.872-1.183.95a5.932 5.932 0 00-.978.47l-.04.025c.149.132.29.262.417.384a7.995 7.995 0 011.342-.645c.448-.155 1.3-.188 1.322-.983.02-.794-2.025-3.234-2.025-3.234s-.35-.125-.912-.131z"/><path fill="#f681a4" d="M26.878 38.813c-.474 0-1.092.084-1.787.394 0 0-2.288 1.053-2.583 1.836-.204.543-.004 1.802.305 2.624.065-.11.148-.24.247-.38a2.419 2.419 0 01-.037-.09l-.01-.02c-.178-.478-.309-1.112-.309-1.614 0-.197.018-.374.075-.524.341-.776 2.094-1.51 2.116-1.54a3.644 3.644 0 011.491-.332h.013l.022-.001h.035c.024 0 .047 0 .07.002.137-.13.268-.25.386-.355zm-9.932-9.979c-.37.222-.633.43-.684.57-.166.454-.747 1.43.664 1.95.542.2.999.4 1.374.584.077-.106.156-.22.236-.339a11.86 11.86 0 00-.646-.259c-.665-.234-.915-.66-.901-1.025.002-.34.163-.64.22-.798.103-.229.337-.373.646-.57v-.002l.029-.016a10.355 10.355 0 00-.938-.095z"/><path fill="#f681a4" d="M23.877 30.016c.129.279.143.498.143.58v.026l-.052.127c-.04.015-1.6 1.81-2.53 2.112a1.558 1.558 0 01-.43.064h-.012c-.682-.011-.954-.478-1.118-.585a5.622 5.622 0 00-.901-.536l-.012-.006a10.18 10.18 0 00-.43-.2c-.08.12-.158.234-.234.34.599.297.994.555 1.199.716.273.214.547.649 1.147.649.127 0 .269-.02.429-.065.912-.26 2.988-2.535 2.988-2.535s.022-.286-.166-.682z"/><path fill="#f681a4" d="M19.91 27.712a1.07 1.07 0 00-.08.003c-.69.044-2.054.618-2.884 1.12.25.013.585.041.939.094.71-.415 1.757-.87 2.427-.927.028 0 .059-.003.093-.003 1.026.027 2.474.985 2.51.991.525.332.805.696.947.995l.006.011.009.02.02.005c-.16-.335-.47-.749-1.078-1.138 0 0-1.891-1.17-2.91-1.17z"/><path fill="#e0aec8" d="M16.468 37.212a1.153 1.153 0 00-.246.04 3.839 3.839 0 00-.4.85c.088.016.182.035.278.055.09.02.163.028.226.028h.023c.332 0 .463-.287.604-.537-.009-.002.001 0 0-.038a.83.83 0 00-.017-.143 1.713 1.713 0 00-.509.32s.105-.273.324-.449l-.024-.012a3.298 3.298 0 00-.259-.114z"/><path fill="#e0aec8" d="M16.012 37.078l-.004.002h-.002l-.018.01c-.012.01-.028.02-.044.037a.455.455 0 00-.04.045l-.015.02a.974.974 0 01-.103.23s.016-.038.024-.103c-.079.14-.16.325-.229.513-.024.072-.048.144-.068.216.098.015.201.033.308.052.11-.309.243-.615.4-.847a1.17 1.17 0 00-.47.262s.132-.343.41-.406a.794.794 0 00-.07-.017.754.754 0 00-.079-.014z"/><path fill="#e0aec6" d="M16.222 37.252l-.002.001a3.874 3.874 0 00.002 0z"/><path fill="#e0aec8" d="M15.89 37.192a1.467 1.467 0 00-.08.128.422.422 0 01-.024.102.986.986 0 00.103-.23zm.862.146c-.22.176-.324.45-.324.45a1.7 1.7 0 01.509-.32l-.007-.037-.014-.008c-.05-.027-.105-.057-.164-.085z"/><path fill="#d7aac2" d="M15.988 37.09a.364.364 0 00-.084.082.323.323 0 01.081-.08zm.026-.014l.076.016a.754.754 0 00-.078-.014zm1.468.276c.02.092.032.178.032.259a.422.422 0 01-.05.219l-.255-.09.254.092c-.101.156-.312.78-1.136.791h-.013c-.115 0-.235-.014-.363-.042a6.57 6.57 0 00-.266-.053l.03-.101.002-.005.002-.007a7.14 7.14 0 01.102-.314l.28.056c.089.02.163.028.226.028h.023c.332 0 .463-.287.604-.537-.01-.002 0 0 0-.037a.84.84 0 00-.017-.144l.034-.013.047.028a.344.344 0 00.317.009.232.232 0 00.125-.138zm-.021-.091l.003.014-.001-.001-.003-.013-.001-.002z"/><path fill="#d7aac2" d="M15.582 37.832a3.37 3.37 0 00-.13.437c-.027.104-.143.176-.274.176h-.013c.156.02.33.046.52.082l.03-.1.002-.005.002-.007c.03-.104.065-.209.102-.314a9.522 9.522 0 00-.307-.053c.02-.07.044-.144.068-.216z"/><path fill="#d7a9c2" d="M16.93 37.43l.007.037.034-.012zm.532-.156a.162.162 0 01-.003.079l.023-.001-.019-.077z"/><path fill="#d7aac2" d="M16.727 37.326l.024.012"/><path fill="#e1b4ce" d="M15.393 36.986a1.05 1.05 0 01.093-.116 1.393 1.393 0 00-.188-.141c.06.07.098.154.095.257zm-1.794-.826a9.919 9.919 0 00-.053.938c-.008.352.05.72.107.778.109.132.14.122.258.132h.005c.1 0 .236-.033.403-.042.052-.002.112-.003.18-.003h.038c.116 0 .257.004.42.018.04-.138.088-.285.143-.43.06-.16.13-.315.219-.454-.016-.181-.15-.475-.783-.687 0 0 .108.012.247.049a8.855 8.855 0 00-1.042-.388 1.159 1.159 0 00-.142.089z"/><path fill="#d7bbd3" d="M15.1 37.551a7.062 7.062 0 00-.138.43h-.004a5.53 5.53 0 01.142-.43zm.394-.676c-.036.037-.07.076-.102.117v-.007a1.05 1.05 0 01.094-.116z"/><path fill="#d7aac2" d="M15.32 37.097a2.44 2.44 0 00-.09.159l.09-.156zm-2.217-1.16l-.055.112a9.63 9.63 0 00-.063 1.049c.008.384.013.738.18.992.165.25.477.357.715.357h.031c.211-.002.381-.043.445-.043.043-.002.088-.004.144-.004.15 0 .362.01.634.043l.031.003-.03-.004a.295.295 0 01-.189-.091.18.18 0 01-.043-.17c.016-.063.034-.131.055-.2a4.99 4.99 0 00-.42-.02H14.5c-.069 0-.129.002-.18.005-.168.01-.304.042-.404.042h-.005c-.118-.011-.149 0-.258-.133-.056-.056-.115-.425-.108-.777 0-.385.038-.78.054-.938a1.02 1.02 0 01.142-.09c-.045-.012-.087-.025-.128-.035-.1-.032-.172-.106-.179-.191-.009-.08.041-.158.13-.202-.299.132-.443.278-.46.295z"/><path fill="#ceb3c9" d="M15.81 37.32c-.08.14-.16.325-.228.512a3.267 3.267 0 01.229-.524zm.079-.128v-.002l.015-.018z"/><path fill="#ceb3c9" d="M15.89 37.19a1.418 1.418 0 00-.079.118v.012c.026-.05.053-.092.078-.128z"/><path fill="#cdb3c7" d="M15.908 37.114a.51.51 0 01-.018.075l.014-.017a.34.34 0 01.08-.08.327.327 0 01-.076.022zm-.516-.122a.584.584 0 01-.09.27s.026-.066.018-.162c-.031.051-.06.104-.09.156-.048.094-.09.194-.13.295a7.062 7.062 0 00-.138.43h-.004c-.021.07-.038.136-.055.2-.016.06 0 .121.043.17a.294.294 0 00.189.09l.03.004h.013c.13 0 .247-.072.275-.176a3.37 3.37 0 01.129-.437 3.267 3.267 0 01.229-.524.65.65 0 00-.01-.192l-.023-.004a.273.273 0 01-.181-.113.523.523 0 00-.103-.124 1.643 1.643 0 00-.102.117z"/><path fill="#cdb3c7" d="M15.908 37.114a.407.407 0 01-.106.003.645.645 0 01.009.19 1.72 1.72 0 01.079-.117.543.543 0 00.018-.075z"/><path fill="#f0b6cd" d="M14.622 35.875l-.05.001c.512.186 1.063.434 1.388.762l.033-.002h.036c.023 0 .053.001.07.007.103.016.205.04.302.066-.306-.303-.84-.58-1.397-.813-.191-.015-.32-.019-.318-.019l-.064-.002z"/><path fill="#f0b6cd" d="M15.004 35.897c.558.23 1.09.51 1.397.812.109.03.213.066.312.105-.138-.292-.307-.563-.421-.646-.08-.08-.511-.19-.89-.232a8.57 8.57 0 00-.398-.04z"/><path fill="#d7aac2" d="M16.794 36.845h-.006c.23.097.426.205.566.285l.105.129a3.448 3.448 0 00-.092-.284 2.972 2.972 0 00-.513-.125l-.047-.005zm-.695-.201a2.311 2.311 0 01-.07-.008c.037 0 .06.006.07.008zm.19.036l.112.029a2.881 2.881 0 00-.113-.029zm-2.712-1.044l-.013.006c-.09.044-.138.122-.13.202.007.085.079.159.179.19.04.01.083.024.128.037.304.09.694.23 1.042.387.17.045.39.128.515.27.073.048.137.095.188.14a.742.742 0 01.135-.112c-.158-.188-.44-.387-.928-.55 0 0 .786.09 1.099.47a.94.94 0 01.2-.04c-.01 0-.021 0-.032.002-.325-.328-.876-.576-1.388-.762l.05-.001.064.002c-.002 0 .127.004.318.02-.36-.15-.727-.28-1.053-.385a2.212 2.212 0 00-.374.124z"/><path fill="#d7aac2" d="M14.613 35.437c-.252 0-.474.03-.662.075.326.106.694.236 1.053.385.116.009.255.02.399.039.378.042.81.153.889.232.114.082.283.354.42.646a3.498 3.498 0 01.075.031h.019a2.96 2.96 0 01.561.13c-.151-.421-.39-.873-.674-1.114-.594-.42-1.956-.403-1.987-.423l-.084-.001z"/><path fill="#d7a9c2" d="M14.693 36.206c.488.163.77.361.928.55a.692.692 0 01.171-.08c-.313-.38-1.099-.47-1.099-.47z"/><path fill="#ceb3c9" d="M16.916 37.423l.014.008"/><path fill="#cdb3c7" d="M16.97 37.454a.35.35 0 00.364.037.232.232 0 00.126-.138c-.115.005-.29.026-.49.101zm-.638-.346a.632.632 0 01.24.106s-.022-.003-.061-.003l-.04.001c.088.035.175.074.256.114l.025.012a.611.611 0 01.389-.146c.097 0 .204.024.322.082l-.003-.013-.001-.002-.106-.129a5.212 5.212 0 00-.565-.285.504.504 0 00-.221.062.884.884 0 00-.235.201z"/><path fill="#cdb3c7" d="M15.486 36.869l.008.006a.494.494 0 01.102.124.28.28 0 00.182.114l.023.003a.793.793 0 00-.18-.36.742.742 0 00-.135.113zm.507-.233a.95.95 0 00-.202.04.524.524 0 01.117.439.344.344 0 00.077-.024l.003-.001.02-.013-.002-.002.008.001a1.698 1.698 0 01.15.034.383.383 0 01.167-.002.846.846 0 01.234-.201 1.117 1.117 0 00-.163-.198c-.099-.027-.2-.05-.303-.065-.01-.002-.033-.007-.07-.008z"/><path fill="#cdb3c7" d="M16.565 36.907a.863.863 0 00-.235.2h.002a.88.88 0 01.235-.2zm-.163-.197c.065.063.12.13.163.196a.473.473 0 01.223-.06 3.303 3.303 0 00-.386-.137z"/><path fill="#cdb3c7" d="M16.788 36.845a.466.466 0 00-.223.062h.002a.504.504 0 01.22-.062zm-.996-.169a.75.75 0 00-.171.08c.109.129.16.254.18.36a.355.355 0 00.107-.002.523.523 0 00-.116-.438zm1.348.516a.616.616 0 00-.389.146c.06.029.115.058.164.085l.014.008.041.024c.2-.076.374-.097.49-.102a.162.162 0 00.002-.08.723.723 0 00-.322-.081z"/><path fill="#f2bfd4" d="M14.536 36.41c.633.211.768.505.783.686l.028-.04c.014-.024.03-.047.046-.07a.37.37 0 00-.095-.258 4.356 4.356 0 00-.515-.27 1.87 1.87 0 00-.247-.049z"/><path fill="#ebb9cc" d="M15.346 37.057a.35.35 0 00-.027.04l.001.003.026-.043z"/><path fill="#e8bfd0" d="M15.392 36.992a1.484 1.484 0 00-.046.064l-.026.043c.008.097-.019.162-.019.162a.587.587 0 00.091-.269z"/><path fill="#ebb9cc" d="M14.783 36.458c.192.087.37.18.515.271-.124-.143-.344-.226-.515-.27z"/><path fill="#f2bdd0" d="M16.297 37.15a1.187 1.187 0 00-.075.103c.098-.028.184-.038.246-.041a4.305 4.305 0 00-.17-.062z"/><path fill="#f2bdd0" d="M16.16 37.11c-.276.062-.41.406-.41.406a1.17 1.17 0 01.47-.262c.025-.037.05-.072.076-.104a2.298 2.298 0 00-.135-.04z"/><path fill="#f2bdd0" d="M16.296 37.15a1.467 1.467 0 00-.075.104l.002-.001c.024-.037.049-.071.075-.103z"/><path fill="#eabed2" d="M16.297 37.149c.058.02.115.04.171.063h.002a4.009 4.009 0 00-.173-.063zm-.134-.039h-.002c.045.012.09.025.135.04v-.001a1.824 1.824 0 00-.133-.04zm.134.039h-.001.002z"/><path fill="#e8bfd0" d="M16.332 37.108l-.034.04c.057.02.115.04.173.064h.04c.039 0 .06.002.06.002a.648.648 0 00-.24-.106zm-.082-.008c-.03 0-.06.003-.087.01.044.01.089.024.134.039a.736.736 0 01.033-.041.374.374 0 00-.08-.008z"/><path fill="#e8bfd0" d="M16.33 37.108l-.033.04.035-.04z"/><path fill="#e0aec8" d="M30.107 31.652c-.203.272-.376.65-.518 1.04.138.023.283.05.433.08l.085-1.12z"/><path fill="#e0aec8" d="M30.104 31.178a.14.14 0 00-.056.021l-.026.012-.02.012a.523.523 0 00-.063.058.188.188 0 00-.03.032c-.167.191-.348.577-.487.967-.042.123-.08.248-.114.367.09.012.184.027.28.044.142-.39.316-.771.52-1.044l.002-.034a1.62 1.62 0 00-.356.246s.121-.314.372-.475l.016-.2z"/><path fill="#e0aec6" d="M30.107 31.647c-.203.273-.377.654-.519 1.044h.001c.142-.388.315-.767.518-1.04z"/><path fill="#d7aac2" d="M30.107 31.178h-.003l.038.006v-.001l-.035-.005zm-.517 1.514c-.053.142-.1.285-.144.426.17.028.351.062.542.102l.034-.447a11.812 11.812 0 00-.433-.081z"/><path fill="#d7aac2" d="M29.422 32.28a5.39 5.39 0 00-.175.588c-.025.103-.14.176-.27.176a.36.36 0 01-.048-.002l-.019-.003.021.003c.16.02.331.044.515.075.043-.14.09-.283.142-.426a9.441 9.441 0 00-.28-.045c.034-.118.072-.243.114-.366z"/><path fill="#d7a9c2" d="M29.588 32.69a8.535 8.535 0 00.002.002z"/><path fill="#e1b4ce" d="M27.005 29.8a1.409 1.409 0 00-.281.175c-.021.192-.075.761-.075 1.314-.007.486.062.986.158 1.099.16.204.258.211.442.222h.006c.158 0 .347-.046.56-.059a3.74 3.74 0 01.233-.007c.185 0 .422.009.705.036.062-.219.138-.459.229-.69a3.084 3.084 0 01.375-.719 1.294 1.294 0 00-.094-.108c.014.126-.019.274-.12.447 0 0 .151-.373-.269-.749a3.487 3.487 0 00-.676-.3s.127.015.308.056a2.988 2.988 0 00-.407-.168s.59.067.93.335c.18.078.351.18.473.315l.023-.022c-.346-.355-1.2-.728-1.937-.988h-.002l-.018-.006-.008-.003-.012-.004a11.502 11.502 0 00-.544-.176z"/><path fill="#e2b2cc" d="M29.029 30.684c.18.078.352.18.474.315-.053.052-.101.11-.146.172a1.007 1.007 0 00-.094-.108.557.557 0 00-.234-.379zm-.83-.223s.127.015.308.056c.155.08.275.162.368.244a3.515 3.515 0 00-.676-.3z"/><path fill="#d7bbd3" d="M29.361 31.176a1.932 1.932 0 00-.09.127c.027-.045.056-.09.086-.132zm.174-.19l-.025.022-.007-.01.023-.021z"/><path fill="#d8bad3" d="M29.503 31c-.053.051-.101.11-.146.171l.004.005a1.52 1.52 0 01.15-.168z"/><path fill="#d7bbd3" d="M28.981 31.89a7.421 7.421 0 00-.229.69h.003c.065-.22.136-.46.226-.69z"/><path fill="#d7afc6" d="M26.822 29.374c-.391.172-.576.361-.594.377l-.016.032c.096-.075.26-.187.5-.297a.231.231 0 01.11-.112z"/><path fill="#d7aac2" d="M29.012 31.813zm.128-.28zm-2.928-1.75l-.04.082c0 .003-.085.718-.085 1.425.008.518.023 1.003.23 1.313.215.32.592.447.894.447l.038-.001c.266-.001.49-.057.605-.06.056-.002.119-.005.194-.005.208 0 .499.012.863.056a.303.303 0 01-.169-.087.189.189 0 01-.045-.17l.055-.202a7.157 7.157 0 00-.705-.036c-.09 0-.169.003-.233.006-.213.013-.402.059-.56.059h-.006c-.184-.011-.28-.018-.442-.222-.096-.113-.165-.613-.158-1.098 0-.554.054-1.122.075-1.315.05-.041.14-.105.281-.175l-.126-.036c-.104-.031-.172-.104-.18-.19a.175.175 0 01.014-.087 2.544 2.544 0 00-.5.297z"/><path fill="#ceb3c9" d="M29.908 31.313c-.166.191-.347.577-.486.966.07-.204.15-.407.24-.584.077-.157.164-.293.246-.382zm.094-.09l.014-.01.006-.002z"/><path fill="#cdb3c7" d="M29.526 30.977l.009.009-.025.022c.194.218.256.517.014.926 0 0 .144-.353-.163-.758a1.932 1.932 0 00-.09.127 5.765 5.765 0 00-.132.23c-.057.114-.11.234-.158.357-.09.232-.161.47-.226.69h-.002a5.2 5.2 0 00-.055.203.186.186 0 00.045.17.3.3 0 00.168.087h.018a.383.383 0 00.047.004c.131 0 .246-.072.272-.175a5.4 5.4 0 01.174-.59c.07-.203.15-.406.24-.583.077-.157.164-.293.246-.383a.522.522 0 01.095-.09l.013-.01a.334.334 0 01-.197.019.278.278 0 01-.183-.115.666.666 0 00-.11-.14z"/><path fill="#cdb3c7" d="M29.51 31.008a1.418 1.418 0 00-.149.168c.306.404.163.758.163.758.242-.409.18-.708-.014-.926z"/><path fill="#f0b6cd" d="M28.218 29.542c-.169 0-.322.011-.46.03.796.27 1.756.657 2.24 1.174l.054-.006c.016 0 .032-.003.048-.004.028 0 .053.002.074.005h.001l.07-.925a5.396 5.396 0 00-.948-.19 11.638 11.638 0 00-.995-.082l-.084-.002z"/><path fill="#e5bdd3" d="M30.1 30.737c-.016 0-.032.003-.048.004l.048-.001h.007c.015 0 .041 0 .067.002a.527.527 0 00-.074-.005z"/><path fill="#d7afc6" d="M28.218 29.102c-.595 0-1.056.122-1.378.264l-.018.008a.244.244 0 00-.11.113l.064-.03c.858.256 2.275.733 3.12 1.313-.845-.58-2.262-1.057-3.12-1.312.364-.156.881-.297 1.574-.297.041 0 .082 0 .123.002 0 0 .837.028 1.665.159-.818-.2-1.789-.203-1.813-.217a1.69 1.69 0 00-.107-.003z"/><path fill="#d7aac2" d="M26.776 29.458l-.063.028a.177.177 0 00-.015.088c.009.085.077.158.181.19l.126.036c.165.05.35.108.543.176l.012.003.009.003.018.007h.001c.738.26 1.591.633 1.938.988a.877.877 0 01.37-.207c-.845-.58-2.262-1.057-3.12-1.312z"/><path fill="#d7aac2" d="M26.776 29.458c.858.255 2.275.731 3.12 1.311.05-.012.1-.022.156-.029l-.055.006c-.483-.517-1.443-.904-2.239-1.174.138-.019.291-.03.46-.03l.084.002c.002 0 .466.013.995.081.331.038.691.11.95.191.01-.149.022-.303.034-.458l-.143-.037c-.828-.13-1.665-.159-1.665-.159a5.045 5.045 0 00-.123-.002c-.692 0-1.21.142-1.574.298z"/><path fill="#ceb3c9" d="M30.098 31.176a.183.183 0 00-.082.037l.006-.002.026-.013a.144.144 0 01.056-.02h-.002l-.002-.002z"/><path fill="#cdb3c7" d="M29.896 30.77a.87.87 0 00-.37.207.666.666 0 01.11.14.278.278 0 00.183.115.334.334 0 00.197-.019.183.183 0 01.082-.037h.002l.002.002h.005c.011 0 .023.003.035.005l.016-.213a3.042 3.042 0 00-.262-.2z"/><path fill="#cdb3c7" d="M30.107 30.74h-.055a1.396 1.396 0 00-.156.03c.096.066.183.133.262.2l.017-.228h-.001c-.026-.003-.051-.003-.067-.003z"/><path fill="#f2bfd4" d="M28.874 30.76c.166.1.293.202.39.303.014.126-.019.274-.122.447 0 0 .152-.373-.268-.75zm-.775-.411s.59.067.93.335a2.974 2.974 0 00-.523-.167 2.988 2.988 0 00-.407-.168z"/><path fill="#f2bdd4" d="M28.506 30.517c.155.079.275.162.368.244.166.099.293.2.39.302a.566.566 0 00-.236-.38 2.966 2.966 0 00-.522-.166z"/><path fill="#f2bdd0" d="M30.127 31.384c-.251.161-.372.475-.372.475.118-.108.239-.187.355-.246.006-.076.01-.152.017-.229z"/><path fill="#e0aec8" d="M24.426 42.622c.497 0 1.008.402 1.008.402a2.798 2.798 0 00-.817-.127c-.562 0-.89.19-.89.19.176-.351.436-.465.699-.465zm.098-.31c.38 0 .774.31.774.31a2.123 2.123 0 00-.627-.097c-.433 0-.684.146-.684.146.134-.27.334-.36.537-.36zm.01-.206l-.01.006h-.002a1.746 1.746 0 00-.172.123l-.007.005-.006.005c-.316.255-.59.628-.755.889.086.215.199.367.215.372v-.001c.279.172.66.438 1.026.438h.015c.185-.002.39-.051.653-.244.265-.2.518-.37.75-.514-.524-.484-1.286-1.047-1.608-1.078l-.03-.001c-.017-.003-.03-.003-.031-.003a.374.374 0 00-.037.003z"/><path fill="#d7aac2" d="M24.337 42.244c-.348.281-.646.704-.8.964-.046.078-.144.125-.252.125h-.024a.31.31 0 01-.184-.069l-.017.023c.102.243.195.432.4.568l.17-.174-.168.176c.232.127.698.516 1.376.525h.006c.335 0 .699-.114 1.035-.367.323-.24.623-.436.89-.593l-.003-.003a.362.362 0 01-.123.022.312.312 0 01-.216-.08 8.369 8.369 0 00-.185-.177c-.233.145-.486.316-.751.514-.262.193-.467.242-.653.244h-.015c-.366 0-.747-.265-1.025-.437l-.001.001c-.016-.005-.13-.158-.215-.372.165-.262.44-.634.755-.89z"/><path fill="#e1b4ce" d="M26.553 39.61c-.463.414-1.108 1.085-1.434 1.648l-.003.006-.003.006a1.529 1.529 0 00-.184.455c.194.058.39.15.577.265a1.37 1.37 0 01-.064-.077c-.767-.652.445-1.35.445-1.35l-.01.01c.177-.143.324-.228.324-.228-.943.918-.643 1.555-.437 1.814.13.09.255.189.376.29.193.157.377.322.547.476.374-.204.672-.33.872-.4.47-.158.825-.124.85-.544-.002-.014 0-.018 0-.018.015-.195-.357-.84-.742-1.362a17.763 17.763 0 00-.716-.93 1.984 1.984 0 00-.398-.061z"/><path fill="#e2b2cc" d="M26.202 40.345s-.147.085-.324.228c-.95.931-.23 1.484-.23 1.484a1.595 1.595 0 01-.206-.145c.02.026.04.051.065.078.087.051.173.109.258.168-.207-.258-.506-.895.437-1.813z"/><path fill="#d7bbd3" d="M25.77 42.164a5.985 5.985 0 01-.006-.005zm-.84-.438c.194.06.391.154.583.27l-.007-.006a2.484 2.484 0 00-.577-.265z"/><path fill="#d8bad3" d="M25.506 41.99l.007.006c.086.052.172.108.256.168l-.005-.006a4.073 4.073 0 00-.258-.169z"/><path fill="#d7aac2" d="M26.527 39.168l-.01.008a.258.258 0 01.18.138c.033.075.013.157-.054.216l-.09.08c.192.011.326.041.399.061.118.143.417.513.716.93.384.521.756 1.167.74 1.361.002 0 0 .005 0 .02-.024.418-.38.384-.85.542a6.21 6.21 0 00-.871.401c-.17-.154-.353-.319-.547-.477.259.213.502.44.719.633.049.046.07.107.062.167a.21.21 0 01-.112.15c.442-.258.79-.407.978-.47.215-.079 1.167-.165 1.183-.95l-.001-.006v-.01c-.038-.79-1.597-2.564-1.602-2.596l-.116-.079a2.518 2.518 0 00-.724-.119z"/><path fill="#d7aac2" d="M26.457 39.166l.027.004.035.006.008-.008c-.023 0-.047 0-.07-.002z"/><path fill="#ceb3c9" d="M24.67 42.106h-.039c.322.032 1.084.595 1.61 1.079l.002-.001c-.507-.47-1.245-1.007-1.574-1.078z"/><path fill="#cdb3c7" d="M24.731 42.095a.4.4 0 01-.062.011c.33.071 1.068.608 1.575 1.078l-.002.001c.065.06.128.12.184.177.055.052.135.08.216.08a.34.34 0 00.123-.023 13.98 13.98 0 00-.28-.243c-.584-.492-1.244-.961-1.754-1.081z"/><path fill="#cdb3c7" d="M24.93 41.725a.572.572 0 00-.013.14.192.192 0 01-.084.18.263.263 0 01-.096.048c.508.124 1.166.593 1.748 1.083.095.08.19.162.28.243a.223.223 0 00.044-.021.213.213 0 00.111-.15.189.189 0 00-.06-.167c-.218-.194-.46-.42-.72-.632a5.985 5.985 0 00-.37-.285c.065.082.12.124.12.124a1.672 1.672 0 01-.377-.292 2.657 2.657 0 00-.584-.27z"/><path fill="#cdb3c7" d="M24.737 42.093l-.006.002c.51.12 1.17.589 1.754 1.081-.582-.49-1.24-.959-1.748-1.083zm.776-.097c.092.1.215.195.377.292 0 0-.055-.042-.12-.124a4.015 4.015 0 00-.257-.168z"/><path fill="#d7aac2" d="M25.12 41.258l-.003.006"/><path fill="#f0b6cd" d="M25.756 39.68a3.123 3.123 0 00-.58.199s-.428.196-.88.465c-.455.26-.92.625-.979.819-.032.08-.053.226-.053.4 0 .273.048.615.123.938.176-.222.393-.455.655-.643l.007-.005.005-.004c.038-.027.077-.054.118-.08a.658.658 0 01.204-.084c.124-.68.798-1.436 1.38-2.004z"/><path fill="#e5bdd3" d="M24.377 41.685a.672.672 0 00-.204.085 2.018 2.018 0 00-.004.003.67.67 0 01.208-.087z"/><path fill="#d7aac2" d="M26.518 39.176c-.727.691-1.64 1.683-1.88 2.49l.035.004c.085.011.17.029.256.055.026-.137.091-.291.184-.455l.004-.006.003-.006c.325-.563.97-1.234 1.433-1.648l.09-.08c.066-.059.087-.141.055-.215a.259.259 0 00-.18-.139z"/><path fill="#d7aac2" d="M26.422 39.165l-.021.001h-.014c-.404 0-.924.077-1.491.332-.022.03-1.775.765-2.116 1.54-.057.15-.075.327-.075.524 0 .502.13 1.136.309 1.615l.01.02-.01-.02.016-.157c.188-.304.525-.809 1.013-1.163a3.34 3.34 0 00-.655.644 4.4 4.4 0 01-.123-.939c0-.173.02-.32.053-.399.058-.194.524-.559.978-.819.453-.27.88-.465.88-.465.206-.093.4-.156.58-.198-.581.568-1.255 1.324-1.38 2.004a.807.807 0 01.196-.024h.005l.06.005c.24-.808 1.155-1.799 1.882-2.49l-.035-.006-.027-.004h-.035z"/><path fill="#ceb3c9" d="M24.577 42.1a.094.094 0 00-.042.006.19.19 0 01.068 0h.066a.262.262 0 00-.065-.008z"/><path fill="#d7aac2" d="M24.054 41.849l-.005.004"/><path fill="#cdb3c7" d="M24.49 42.065a.549.549 0 00-.292.074c-.462.288-.848.74-1.121 1.125.047.04.11.066.184.07h.024c.107 0 .206-.047.252-.125.154-.26.452-.683.8-.964l.007-.005.006-.005c.056-.045.114-.086.172-.122l.002-.001.01-.006a.097.097 0 01.043-.006l.027-.002c.02 0 .04.002.066.008a.388.388 0 00.06-.011 1.289 1.289 0 00-.24-.03zm.147-.399c-.04.132-.06.26-.06.38v.02c.051.004.105.014.16.027a.28.28 0 00.096-.048.195.195 0 00.084-.18.56.56 0 01.012-.14 1.583 1.583 0 00-.256-.055l-.034.218.034-.218c-.013 0-.024-.003-.036-.004z"/><path fill="#cdb3c7" d="M24.578 42.066v.003c.049.005.1.014.153.026l.006-.002a1.392 1.392 0 00-.16-.027zm-.006-.405a.852.852 0 00-.195.023v.001a.66.66 0 00-.208.087 3.27 3.27 0 00-.115.076l-.004.004-.007.005c-.49.354-.825.86-1.013 1.163l-.016.157.009.02a.205.205 0 00.054.067c.273-.385.659-.837 1.12-1.125a.56.56 0 01.3-.078c.026 0 .053.001.08.004v-.02c0-.12.02-.247.06-.379a1.323 1.323 0 00-.06-.005z"/><path fill="#cdb3c7" d="M24.497 42.062a.56.56 0 00-.3.077.549.549 0 01.294-.074.87.87 0 01.087.004v-.003a.757.757 0 00-.081-.004z"/><path fill="#f2bfd4" d="M25.887 40.563s-1.212.698-.445 1.35c-.398-.53.078-1.052.435-1.34z"/><path fill="#f2bdd4" d="M25.878 40.572c-.357.288-.833.812-.436 1.34.058.049.125.098.207.145 0 0-.72-.553.229-1.485z"/><path fill="#e1b4ce" d="M18.07 29.371c-.205.134-.33.26-.322.267l-.27-.06.27.061c-.075.194-.2.446-.198.676.013.241.083.434.58.628.24.09.46.177.66.264.218-.356.417-.727.526-1.05a1.046 1.046 0 00-.506-.683c.33 0 .508.09.595.215a.602.602 0 00-.016-.13 5.294 5.294 0 00-.92-.18c.559.287.118 1.064.118 1.064 0-.586-.321-.922-.516-1.072z"/><path fill="#e1b4ce" d="M19.394 29.56a.643.643 0 01.014.135c.185.278-.065.719-.065.719 0-.092-.01-.176-.026-.253-.11.323-.309.693-.527 1.046l.22.098c.184-.27.376-.583.515-.865.121-.25.2-.474.194-.624a.376.376 0 00-.013-.096v-.005c-.019-.044-.029-.046-.038-.051a2.032 2.032 0 00-.274-.104z"/><path fill="#e2b2cc" d="M19.317 30.16c-.11.324-.309.694-.528 1.047.22-.355.417-.726.527-1.05zm.077-.6a.643.643 0 01.014.135l-.003-.005a.595.595 0 00-.016-.131zm-1.284-.214l-.04.025c.196.15.517.487.517 1.073 0 0 .44-.778-.117-1.065a7.375 7.375 0 00-.36-.033z"/><path fill="#d7aac2" d="M17.856 28.945l-.001.001c-.31.197-.543.342-.646.57-.057.159-.218.459-.22.8-.014.363.236.79.901 1.025.237.086.451.172.646.257.085-.126.171-.257.254-.39a13.32 13.32 0 00-.66-.265c-.498-.194-.567-.388-.581-.628-.001-.23.123-.482.199-.677l-.269-.06.269.06c-.008-.008.117-.133.323-.267a.332.332 0 00-.042-.03l-.023-.002c-.117-.007-.215-.069-.249-.156-.032-.087.005-.183.099-.237z"/><path fill="#d7aac2" d="M19.525 30.44a7.415 7.415 0 01-.516.865l-.219-.097a11.45 11.45 0 01-.254.39c.156.07.299.136.428.2l.012.006-.011-.006c-.127-.064-.169-.193-.096-.294.224-.306.483-.71.656-1.064z"/><path fill="#d7a9c2" d="M18.029 29.341l.042.03.04-.025-.082-.005z"/><path fill="#e1b4ce" d="M21.16 29.806c.417.084.746.248.746.248l-.004-.001c.067.027.106.047.106.047a3.142 3.142 0 00-.757-.102c-.853 0-1.11.467-1.11.467.098-.265.258-.425.446-.512a1.917 1.917 0 00-.331.079c-.063.3-.23.64-.422.965a9.73 9.73 0 01-.35.54c.376.2.635.372.789.494.269.227.436.457.703.457l.02-.001a.985.985 0 00.249-.038c.227-.05.869-.557 1.355-1.03.393-.373.73-.731.858-.867a1.12 1.12 0 00-.075-.308 28.049 28.049 0 00-.275-.075c-.572-.15-1.307-.31-1.947-.363z"/><path fill="#e2b2cc" d="M20.756 29.787h-.013a3.253 3.253 0 00-.463.035 1.19 1.19 0 01-.025.21 1.94 1.94 0 01.331-.079 1.09 1.09 0 01.457-.092c.348 0 .691.122.86.192l.002.001s-.329-.164-.745-.248a4.773 4.773 0 00-.404-.019z"/><path fill="#d7bbd3" d="M20.256 30.032h-.001c-.062.302-.228.64-.421.966.193-.325.36-.664.422-.966z"/><path fill="#d8bad3" d="M20.28 29.823a1.306 1.306 0 00.001 0z"/><path fill="#ceb3ca" d="M19.705 29.715l.002.005"/><path fill="#d7aac2" d="M23.876 30.015c.027.075 0 .158-.071.213a.32.32 0 01-.2.066.348.348 0 01-.095-.014 14.361 14.361 0 00-.127-.036c.054.137.07.246.075.308-.127.136-.465.494-.857.868-.487.472-1.13.98-1.356 1.029a.973.973 0 01-.25.038h-.018c-.268 0-.435-.23-.704-.456a5.335 5.335 0 00-.79-.493 11.926 11.926 0 01-.125.181.29.29 0 01-.242.112.362.362 0 01-.14-.027c.459.227.758.424.902.536.164.107.435.574 1.118.585h.012c.134 0 .278-.02.43-.064.93-.301 2.49-2.097 2.53-2.112l.052-.127v-.026c0-.082-.014-.301-.143-.58z"/><path fill="#ceb3ca" d="M19.707 29.72a.37.37 0 01.013.096c.005.15-.074.375-.195.624.122-.251.203-.477.198-.627a.39.39 0 00-.008-.072l-.008-.02z"/><path fill="#cdb3c7" d="M19.714 29.74a.413.413 0 01.008.073c.005.15-.075.376-.197.627a7.527 7.527 0 01-.657 1.064c-.073.1-.03.23.097.294l.011.006a.367.367 0 00.207.021.298.298 0 00.176-.106c.15-.216.321-.465.474-.722.193-.325.36-.664.421-.966-.503.168-.673.478-.673.478.138-.378.377-.582.651-.678-.052.011-.1.022-.143.037a.349.349 0 01-.235-.005.236.236 0 01-.14-.123z"/><path fill="#cdb3c7" d="M20.28 29.823a.42.42 0 00-.048.009c-.273.096-.513.3-.65.678 0 0 .17-.31.673-.478.014-.071.023-.142.025-.21z"/><path fill="#efb9d1" d="M20.136 29.397h-.017"/><path fill="#f0b6cd" d="M20.136 29.397h-.017l.002.003z"/><path fill="#f0b6cd" d="M20.422 28.439h-.017a.25.25 0 00-.04.003c-.306.012-.985.254-1.57.533.188.027.386.065.581.113l.008.003.02.005.02.005c.182.048.36.109.526.183a.616.616 0 01.17.114l.016-.001a3.4 3.4 0 01.607-.05c.732.003 1.576.167 2.264.336a2.513 2.513 0 00-.442-.35s-.369-.228-.835-.457c-.452-.226-1.022-.437-1.309-.437z"/><path fill="#e5bdd3" d="M18.794 28.976a5.741 5.741 0 010-.001z"/><path fill="#e5bfd5" d="M20.12 29.398h-.001"/><path fill="#d7aac2" d="M17.884 28.929l-.028.017.054-.012zm2.446.464h-.005c-.063 0-.127 0-.188.004l-.015.003a.546.546 0 01.159.413v.002c.137-.041.28-.058.425-.058.155 0 .31.02.455.049.64.053 1.375.214 1.947.363.146.038.282.077.402.11a.348.348 0 00.096.015.32.32 0 00.199-.066c.072-.055.098-.138.07-.213l-.031-.01-.027-.007a2.013 2.013 0 01-.108-.03c-.023-.006-.046-.013-.07-.018l-.022-.007-.066-.018c-.886-.238-2.15-.521-3.165-.532z"/><path fill="#d7aac2" d="M20.405 28l-.093.002c-.67.056-1.717.512-2.428.927l.027.005.136-.032c.2.012.463.032.748.073.585-.28 1.263-.522 1.57-.534.019-.003.032-.003.04-.003h.017c.287 0 .857.211 1.308.438.467.228.835.457.835.457.184.116.328.234.443.35-.688-.169-1.533-.333-2.264-.335a3.42 3.42 0 00-.608.048c.062-.002.125-.003.189-.003h.06c1.017.01 2.28.293 3.166.532l.066.017.022.007.07.02.045.011.063.018.026.008.033.01-.008-.019-.006-.012c-.143-.299-.422-.663-.946-.995-.037-.006-1.486-.964-2.511-.99z"/><path fill="#d7a9c2" d="M20.706 29.757c-.144 0-.288.017-.425.058v.007a2.6 2.6 0 01.463-.035h.013c.128 0 .263.007.404.02a2.331 2.331 0 00-.455-.05z"/><path fill="#d7aac2" d="M19.424 29.101c.182.048.36.108.527.182a.619.619 0 01-.001 0 3.543 3.543 0 00-.526-.182z"/><path fill="#ceb3ca" d="M18.47 29.38c.298.033.633.09.92.18v-.002a5.306 5.306 0 00-.92-.179zm1.199.283c.009.006.019.008.036.052l.002.005v.001l.008.02c-.012-.06-.034-.073-.046-.078z"/><path fill="#cdb3c7" d="M17.91 28.934l-.054.012c-.093.054-.131.15-.098.238.033.087.132.148.249.155l.022.002c-.063-.046-.106-.066-.106-.066.244 0 .42.039.547.104.297.034.633.09.92.179a.303.303 0 00-.012-.043l.004-.002-.004.002a.379.379 0 00-.161-.214l-.004-.003h-.002a.368.368 0 00-.044-.023c-.367-.17-.825-.275-1.256-.341zm2.209.464a2.906 2.906 0 00-.737.115.405.405 0 01.012.047c.099.03.192.065.275.104.012.005.034.017.046.077a.244.244 0 00.139.123.345.345 0 00.236.005 1.01 1.01 0 01.142-.037l.049-.017v-.002a.546.546 0 00-.16-.413z"/><path fill="#cdb3c7" d="M19.381 29.513l-.004.002a.303.303 0 01.012.043l.005.002c-.003-.016-.008-.031-.013-.047zm-1.334-.61l-.136.03c.43.068.889.173 1.256.342.016.007.03.015.044.024h.002l.004.002a.373.373 0 01.165.212c.212-.067.462-.103.737-.115a.614.614 0 00-.17-.114 3.507 3.507 0 00-.526-.183l-.018-.005-.02-.005-.008-.002a5.98 5.98 0 00-.583-.113v-.001a8.978 8.978 0 00-.747-.072z"/><path fill="#cdb3c7" d="M19.216 29.301a.373.373 0 01.165.212l-.004.002a.375.375 0 00-.16-.214zm1.064.514l-.048.017a.42.42 0 01.049-.01zm-2.358-.54s.043.02.106.066c.028 0 .055.003.083.005.108.007.23.018.359.033-.126-.065-.303-.104-.547-.104z"/><path fill="#f2bfd4" d="M20.962 29.926c-.138 0-.263.011-.376.027a.853.853 0 00-.444.512s.256-.467 1.108-.467c.213 0 .464.029.757.102 0 0-.039-.02-.106-.047a3.927 3.927 0 00-.939-.127z"/><path fill="#f2bdd4" d="M21.044 29.862c-.156 0-.314.025-.457.092.113-.017.238-.028.376-.028.265 0 .575.038.939.127a2.373 2.373 0 00-.858-.191z"/><path fill="#f2bfd4" d="M18.81 29.474s.396.194.506.683c.057-.172.09-.331.09-.467-.088-.125-.265-.216-.596-.216z"/><path fill="#f2bfd4" d="M19.408 29.695c0 .137-.032.295-.091.466.017.077.027.16.027.253 0 0 .25-.441.064-.72z"/><path fill="#f2bdd4" d="M19.405 29.69c0 .136-.031.295-.09.467l.002.004c.059-.171.092-.33.09-.466z"/><path fill="#f46b8f" d="M14.73 25.284c-.025-.126.124-.248.332-.274a.525.525 0 01.079-.006c.175 0 .322.076.345.186.025.126-.123.249-.332.274a.664.664 0 01-.077.005c-.177 0-.324-.075-.346-.185zm-.23.165c0 .307.317.555.71.555.392 0 .71-.248.71-.555 0-.307-.318-.556-.71-.556-.393 0-.71.249-.71.556zm.522 1.424c-.043-.21.205-.415.554-.458a.995.995 0 01.13-.009c.295 0 .542.126.578.31.043.21-.205.416-.554.458a.995.995 0 01-.131.009c-.294 0-.541-.126-.577-.31zm-.455.428c0 .6.62 1.086 1.386 1.086.766 0 1.386-.486 1.386-1.086 0-.6-.62-1.085-1.386-1.085-.766 0-1.386.485-1.386 1.085z"/><path fill="#f89bb6" d="M15.707 26.407a.995.995 0 00-.131.009c-.348.043-.597.248-.554.458.037.183.283.309.577.309.043 0 .087-.003.13-.008.35-.042.598-.248.555-.458-.036-.184-.283-.31-.577-.31zm-.567-1.403a.535.535 0 00-.079.006c-.208.025-.357.147-.33.273.021.111.17.186.346.186.025 0 .05-.002.077-.005.21-.025.356-.148.332-.274-.024-.11-.17-.186-.346-.186z"/><path fill="#f46b8f" d="M31.217 37.99c-.12-.015-.207-.086-.19-.159.012-.064.096-.108.2-.108l.045.003c.12.016.207.087.192.16-.013.064-.098.107-.2.107a.367.367 0 01-.047-.003zm-.444-.008c0 .178.184.323.412.323.23 0 .413-.145.413-.323 0-.178-.184-.323-.413-.323-.228 0-.412.145-.412.323zm.11 1.003c-.201-.025-.346-.145-.321-.267.02-.106.164-.18.334-.18.025 0 .05.002.077.005.203.025.346.145.322.267-.021.106-.164.18-.335.18a.678.678 0 01-.077-.005zm-.934.074c0 .348.36.63.804.63.445 0 .806-.282.806-.63 0-.35-.36-.631-.806-.631-.444 0-.805.281-.805.631z"/><path fill="#f89bb6" d="M30.896 38.538c-.17 0-.313.073-.335.18-.024.122.12.242.321.266a.693.693 0 00.077.005c.171 0 .314-.073.335-.18.025-.122-.119-.242-.32-.266a.678.678 0 00-.078-.005zm.331-.814c-.104 0-.188.044-.2.107-.017.074.07.145.19.16a.367.367 0 00.046.003c.103 0 .188-.043.201-.108.015-.072-.072-.143-.192-.16a.352.352 0 00-.045-.002z"/><path fill="#f46b8f" d="M12.05 34.828c-.016-.082.08-.16.215-.179a.45.45 0 01.05-.003c.115 0 .21.05.226.12.016.082-.08.162-.215.18a.432.432 0 01-.05.002c-.115 0-.212-.049-.226-.12zm-.15.107c0 .2.207.361.46.361.256 0 .462-.162.462-.36 0-.2-.206-.362-.461-.362-.254 0-.46.161-.46.361z"/><path fill="#f89bb6" d="M12.316 34.647a.45.45 0 00-.051.003c-.135.018-.231.097-.215.179.014.07.111.12.226.12a.432.432 0 00.05-.003c.135-.018.231-.097.215-.18-.015-.07-.111-.12-.225-.12z"/><path fill="#fbc062" d="M32.21 20.939c.3.86.517 1.978.667 3.26l-1.093 10.249-.612.055c.113-1.51.553-7.375 1.038-13.564zm1.406-3.67l-.121 1.129-1.104.235.088-1.116c.376-.078.755-.16 1.137-.247z"/><path fill="#fab944" d="M31.588 19.7c.24.313.445.732.621 1.239-.484 6.189-.924 12.054-1.038 13.564l-.722.065c.104-1.386.606-8.085 1.14-14.867zm.891-2.183l-.088 1.116-.73.156.088-1.126c.242-.047.486-.096.73-.146z"/><path fill="#f9ac5b" d="M31.064 19.222c.19.108.364.269.525.478-.534 6.783-1.036 13.482-1.14 14.868l.723-.065.612-.055 1.093-10.25c.112.96.186 2.012.23 3.12-.17 1.609-.327 3.079-.455 4.275l-.034.325c-.06.551-.111 1.034-.153 1.436l-.14 1.31c-.012.105-.115.189-.248.201l-1.896.169-.033.001-.023-.001a.308.308 0 01-.17-.059c-.058-.044-.091-.107-.085-.171l.083-1.108c.01-.146.022-.304.036-.476.01-.141.02-.29.033-.447l.085-1.121v-.005c0-.012.002-.023.003-.034.006-.076.01-.152.017-.229l.015-.2v-.001l.016-.213.017-.229.07-.924.036-.458v-.014l.406-5.295.016-.193.036-.473c.059-.749.117-1.509.178-2.276l.147-1.886zm.685-1.56l-.09 1.127-.57.122.09-1.141.57-.108zm2.445-.526l-.121 1.138-.578.124.12-1.128c.192-.043.386-.088.579-.134z"/><path fill="#f2527b" d="M8.738 16.896c.396.366.787.73 1.17 1.086l4.466 1.076a8.088 8.088 0 00-1.122-.082c-.776 0-1.397.134-1.893.355a656.04 656.04 0 013.526 3.286c.199.19.336.27.407.295l-.851-4.77a42.661 42.661 0 01-5.703-1.246z"/><path fill="#f5748e" d="M15.536 23.024l-.047.03-.017.01.015-.008a.298.298 0 00.048-.04zM11.36 19.33a790.708 790.708 0 013.526 3.287c.198.19.336.27.406.295l.033.183c-.018 0-.036-.003-.054-.006a.813.813 0 01-.33-.167 2.718 2.718 0 01-.228-.195c-.107-.104-.667-.625-1.504-1.405l-2.042-1.9c.062-.031.126-.062.193-.092zm-3.052-2.564zm0 0l.431.13 1.17 1.086-.395-.095-1.205-1.12zm6.364 1.41l.804 4.506 1.645-3.138-.217-.063-1.34 2.537-.22-1.511c.094.198.21.279.339.279.426 0 .98-.886 1.219-1.307-.156-.047-.31-.096-.463-.149 0 0 .19.013.528.033.006-.011.01-.022.016-.031l.035-.068-.036.068-.016.031.244.013.454-.866-.29-.024c-.113.254-.231.513-.355.778l.347-.779a45.656 45.656 0 01-2.693-.309z"/><path fill="#f35a7f" d="M17.211 19.376l.234.012.451-.86-.231-.018zm-1.919 3.536l.032.183.01.056.138-.086.015-.01a.364.364 0 00.049-.04.167.167 0 00.035-.057l.069-.13.982-1.871.711-1.354-.211-.06-1.646 3.139-.804-4.506-.231-.033z"/><path fill="#f57c95" d="M17.366 18.485l-.348.779c.124-.264.243-.523.356-.778zm-.462.995l-1.34 2.538-.22-1.511c.093.198.21.279.338.279.426 0 .981-.886 1.22-1.307zm.07-.133l.008-.015zm-.008.016l.008-.016a.483.483 0 01-.008.016zm.016-.031l.036-.068z"/><path fill="#eb086e" d="M12.648 51.503L6.103 15.918c-.02-.105.06-.208.192-.241l.028-.006a.365.365 0 01.207.011c2.885 1.082 8.062 2.54 15.009 2.54 4.57 0 9.909-.63 15.87-2.413a.332.332 0 01.212.004c.312.103.483.17.488.171.106.039.168.127.156.217-.001.012-4.163 34.033-4.48 35.282-.028.042.037.007-.105.156-2.26 1.513-5.234 2.154-8.317 2.155l-.246-.013c-2.03.146-3.8-.093-5.602-.373-3.754-.582-6.68-1.729-6.692-1.732-.094-.029-.161-.096-.175-.173zm12.609 1.701c2.985.001 5.902-.477 7.987-1.851.003-.009.004-.018.006-.028.013-.067.03-.169.052-.3.04-.263.095-.649.165-1.135.134-.975.318-2.359.532-4.016.429-3.315.985-7.722 1.535-12.124a6528.99 6528.99 0 002.153-17.435l-.183-.065c-5.983 1.78-11.356 2.411-15.965 2.411-6.708-.001-11.797-1.339-14.81-2.419l6.45 35.071c.442.129 1.824.525 3.709.923 2.304.484 5.357.968 8.369.968z"/><path fill="#fbcedc" d="M9.435 23.358s-.023-.17-.028-.443l-.06-.016zm-1.122-5.76l.844 4.328.334-.057c.157-.857.585-1.875 1.676-2.446l-1.654-1.536z"/><path fill="#fabed0" d="M9.49 21.87l-.333.056.189.972.06.017c-.004-.27.01-.64.085-1.046z"/><path fill="#f9adc0" d="M9.908 17.982l1.45 1.349c.497-.221 1.118-.355 1.894-.355.343 0 .716.026 1.122.082z"/><path fill="#fabcc9" d="M9.513 17.887l1.653 1.536c.062-.032.126-.063.193-.093l-1.45-1.348z"/><path fill="#fbcedc" d="M32.253 45.713s1.173-10.568.855-18.395l.406-3.801a51.045 51.045 0 001.674-.397zm3.093-23.802a40.044 40.044 0 00-1.624-.351l.35-3.286 1.796-.383z"/><path fill="#fabed0" d="M33.722 21.56l-.209 1.957a51.097 51.097 0 001.675-.397l.157-1.21a39.631 39.631 0 00-1.623-.35z"/><path fill="#fbcedc" d="M31.088 18.911l-.707.15.078-.002c.218 0 .418.056.605.163.007-.104.016-.207.024-.31z"/><path fill="#fdddb1" d="M33.495 18.398l-1.104.235-.181 2.306c.3.86.517 1.979.667 3.26l.618-5.801z"/><path fill="#fddba4" d="M32.391 18.633l-.73.156-.073.911c.24.313.445.732.621 1.239l.182-2.306z"/><path fill="#fcd4af" d="M31.089 18.912l-.025.31c.19.109.364.27.525.479l.07-.911zm2.406-.514l-.618 5.8c.112.96.186 2.013.23 3.12a11077.838 11077.838 0 00.615-5.758l.35-3.286z"/><path fill="#fbcedc" d="M28.037 19.092c-.13 0-.36.028-.703.094-1.337.255-3.295.332-5.185.332-1.851 0-3.636-.074-4.704-.13l-.112.215c1.545.415 3.125.565 4.584.565 1.948 0 3.68-.268 4.823-.538 1.145-.268 1.7-.538 1.297-.538z"/><path fill="#fabcc9" d="M16.966 19.363l-.062.118.217.063.09-.168-.245-.014z"/><path fill="#f9b1c3" d="M17.21 19.376l-.089.168.212.06.112-.216a35.695 35.695 0 01-.235-.012z"/><path fill="#fabcc9" d="M16.438 19.33c.153.053.308.102.463.148l.065-.116a50.582 50.582 0 01-.528-.032z"/><path fill="#fabfcb" d="M16.966 19.363l-.065.116.003.002z"/></svg>