<svg xmlns="http://www.w3.org/2000/svg" width="77" height="55"><path fill="#fff" d="M74.222 46.72c-.562 1.841-4.989 7.982-34.947 7.982-31.263 0-37.398-5.246-38.708-7.576 2.417 3.016 18.283 5.887 37.055 5.887 19.617 0 35.311-3.079 36.6-6.293z"/><path fill="#f0f1f2" d="M74.31 46.304s0 .022-.005.062c-.012.067-.033.186-.083.35v.004c-1.289 3.214-16.983 6.856-36.6 6.856-18.772 0-34.638-3.434-37.055-6.45-.292-.512-.33-.822-.33-.822 0-3.41 16.581-6.175 37.033-6.175 20.46 0 37.04 2.764 37.04 6.175z"/><path fill="#dcdedf" d="M69.838 46.259c.224 2.674-14.178 5.487-31.664 5.292-20.117-.226-31.92-2.337-31.666-5.292.194-2.247 14.178-4.081 31.665-4.081 17.488 0 31.478 1.833 31.665 4.081z"/><path fill="#f0f1f2" d="M72.622 11.766c6.993 2.859 4.606 20.168-9.387 20.016l-.184-.073c.344-.715.637-1.374.868-1.96a15.3 15.3 0 00.51-1.575h.344c8.187-1.356 8.532-11.59 6.139-12.648-2.387-1.052-4.607 1.655-4.607 1.655l-.223-.011c.127-1.435.229-2.831.312-4.126.523-.423 3.299-2.471 6.228-1.278z"/><path fill="#6d1b70" d="M72.334 17.517c-.122-.108-.284-.462-.406-.57.978 3.13-.486 10.122-7.155 11.226h-.344a16.1 16.1 0 01-.317 1.033c6.724.103 10.017-6.412 8.222-11.689z" opacity=".1"/><path fill="#f0f1f2" d="M72.622 11.766c-2.93-1.193-5.705.855-6.228 1.278a171.18 171.18 0 01-.312 4.126l.223.01s2.22-2.706 4.607-1.654c.443.197.793.709 1.016 1.422l.366.323c1.795 5.277-1.458 12.039-8.182 11.935-.063.187-.128.376-.193.544a30.124 30.124 0 01-.868 1.959l.184.073c13.993.152 16.38-17.157 9.387-20.016z"/><path fill="#f9faf9" d="M66.394 13.044a176.461 176.461 0 01-.312 4.126c-.358 3.95-.88 8.156-1.654 11.004a15.06 15.06 0 01-.51 1.576c-.23.586-.523 1.244-.868 1.959-2.54 5.246-7.8 13.77-12.45 16.146-6.062 3.095-23.709 2.66-28.183-.47-3.362-2.347-8.753-8.567-11.478-15.603C9.14 27.138 7.29 8.344 7.11 6.526 7.257 7.55 9.043 8.502 12.017 9.3c5.335 1.44 14.49 2.387 24.898 2.387 11.224 0 21-1.104 26.084-2.736 2.38-.76 3.733-1.633 3.733-2.567 0 0-.083 2.86-.338 6.659z"/><path fill="#dcdedf" d="M66.732 6.385c0 .934-1.353 1.807-3.732 2.566-2.776-4.277-30.392-5.448-40.372-3.359-8.173 1.71-10.579 3.613-10.579 3.613l-.032.096c-2.973-.8-4.76-1.751-4.907-2.775a2.255 2.255 0 00-.013-.141c0-2.933 13.349-5.308 29.818-5.308 16.468 0 29.817 2.375 29.817 5.308z"/><path fill="#562826" d="M63 8.951c-5.086 1.632-14.86 2.736-26.085 2.736-10.407 0-19.562-.946-24.897-2.387l.032-.096s2.405-1.902 10.579-3.613c9.979-2.088 37.596-.918 40.37 3.36z"/><path fill="none" stroke="#f9faf9" stroke-miterlimit="20" d="M66.735 6.427c0 3.07-13.311 5.559-29.73 5.559-16.42 0-29.731-2.489-29.731-5.559 0-3.069 13.311-5.558 29.731-5.558 16.419 0 29.73 2.489 29.73 5.558z"/><path fill="#c1c0bc" d="M66.548 44.292c.734.216 1.466.458 2.165.815.346.185.692.387.987.7.148.151.28.346.345.582.063.232.036.51-.067.716-.204.425-.54.706-.874.921-.334.228-.688.4-1.043.566-.714.318-1.448.56-2.184.78-2.962.831-5.987 1.28-9.012 1.668-6.058.716-12.153.975-18.242 1.004-6.089-.027-12.183-.246-18.243-.937-3.025-.362-6.05-.79-9.02-1.546-1.473-.409-2.974-.819-4.294-1.728-.307-.25-.645-.557-.726-1.03-.09-.49.245-.892.537-1.139.63-.509 1.356-.787 2.075-1.045a.125.125 0 01.162.076.128.128 0 01-.075.161c-.694.276-1.399.588-1.938 1.062-.257.236-.462.541-.383.825.054.287.318.541.6.747 1.222.78 2.728 1.151 4.182 1.49 2.941.664 5.953 1.037 8.964 1.328 6.031.553 12.096.784 18.157.744 6.061-.007 12.125-.25 18.147-.873 3.005-.322 6.02-.708 8.928-1.46.726-.188 1.447-.397 2.132-.672.657-.276 1.397-.625 1.688-1.15.305-.512-.394-1.087-1.004-1.419-.642-.36-1.35-.627-2.063-.866a.168.168 0 01-.108-.21.17.17 0 01.207-.11z"/><path fill="#fff" d="M31.816 5.943c-.473-.903-13.319.563-14.117 2.78-.194.537 3.457-.25 6.899-.88 4.227-.774 7.457-1.442 7.218-1.9zm2.604.912c-.607-.366-8.362 1.053-7.699 2.067.663 1.015 8.704-1.46 7.7-2.067zm1.677 1.198c-.537-.413-3.662.762-3.354 1.25.521.826 4.243-.569 3.354-1.25z"/><path fill="#6d1b70" d="M62.484 12.205c-2.709.124-9.651 20.545-20.658 24.907-11.007 4.363-17.547 8.443-16.112 9.991 1.436 1.548 20.1 1.83 24.885-.985 4.786-2.814 10.336-12.652 11.964-18.715.718-2.674 3.51-15.362-.079-15.198z" opacity=".05"/></svg>