<svg xmlns="http://www.w3.org/2000/svg" width="79" height="36"><path fill="#c4c9a7" d="M78.79 20.908c0 8.106-16.675 14.678-37.246 14.678-20.57 0-37.245-6.572-37.245-14.678 0-8.106 16.675-14.678 37.245-14.678 20.57 0 37.246 6.572 37.246 14.678z" opacity=".5"/><path fill="#f7d6a4" d="M75.32 19.037c0 8.106-16.674 14.678-37.245 14.678-20.57 0-37.246-6.572-37.246-14.678 0-8.106 16.676-14.678 37.246-14.678 20.57 0 37.246 6.572 37.246 14.678z"/><path fill="none" stroke="#802429" stroke-miterlimit="20" stroke-width=".75" d="M75.32 19.037c0 8.106-16.674 14.678-37.245 14.678-20.57 0-37.246-6.572-37.246-14.678 0-8.106 16.676-14.678 37.246-14.678 20.57 0 37.246 6.572 37.246 14.678z"/><path fill="#f4e9d5" d="M72.765 19.037c0 7.55-15.531 13.671-34.69 13.671-19.158 0-34.69-6.12-34.69-13.67s15.532-13.67 34.69-13.67c19.159 0 34.69 6.12 34.69 13.67z"/><path fill="none" stroke="#802429" stroke-miterlimit="20" stroke-width=".75" d="M72.765 19.037c0 7.55-15.531 13.671-34.69 13.671-19.158 0-34.69-6.12-34.69-13.67s15.532-13.67 34.69-13.67c19.159 0 34.69 6.12 34.69 13.67z"/><path fill="#507b2d" d="M38.438 14.857c1.694.887 4.176 1.428 6.688 1.474a.253.253 0 00.093.016c7.604.01 16.53-.612 22.044-3.358.75-.372 2.2-1.016 1.902-1.61-.264-.525-1.588-.612-2.349-.911-1.317-.518.63-1.077.406-1.667-.114-.303-.683-.435-1.174-.59-.773-.24-.946-.535-.819-.953.16-.526.648-1.09.024-1.59-.294-.236-.788-.422-1.339-.5-.627-.087-1.24.029-1.868-.02-1.058-.083-.816-.617-1.179-.966-.213-.204-.58-.33-1.047-.378-1.397-.142-2.403.464-3.13.937-2.278 1.483-3.646 3.219-6.63 4.445-2.703 1.11-6.002 1.805-8.979 2.723-2.126.656-4.98 1.724-2.643 2.948z"/><path fill="#6e8f48" d="M39.308 14.285c.414 0 .825-.007 1.233-.017 3.938-.785 7.815-1.835 10.777-3.316a9.418 9.418 0 002.84-2.132c-.07.007-.132-.036-.061-.058l.159-.05c.126-.14.248-.282.367-.426.703-.847 1.39-1.768 2.842-2.394.075-.033.183.024.12.06-1.367.799-2.121 1.694-2.92 2.633a43.914 43.914 0 002.6-.897c1.008-.388 1.878-.85 2.88-1.237.048-.02.103.013.07.035-.712.48-1.735.88-2.688 1.25a31.46 31.46 0 01-2.972.979l-.01.012c-.837.98-1.956 1.829-3.566 2.567-2.764 1.267-6.181 2.284-9.771 2.953 6.34-.24 12.047-1.628 17.397-3.244-.041-.026-.012-.071.076-.065l.115.007c1.694-.514 3.352-1.05 4.983-1.578.12-.04.254.048.133.088a253.26 253.26 0 01-4.716 1.515c1.65.094 3.263.104 4.933.13.078 0 .063.054-.003.06-1.653.166-3.556.089-5.202-.107-5.657 1.727-11.74 3.195-18.516 3.337-.125.022-.25.044-.375.064-.08.014-.132-.028-.101-.056-.2.002-.397.005-.597.005-.16 0-.187-.118-.027-.118z"/><path fill="#6e8f48" d="M58.145 9.645c-.871.892-2.242 1.713-3.584 2.452-.062.034-.172-.008-.114-.043 1.286-.787 2.363-1.636 3.594-2.439.041-.027.133 0 .104.03zm-11.877 4.352c3.073.122 6.152.055 9.177-.232 3.07-.292 5.814-.869 8.614-1.513.062-.014.113.032.057.05-2.521.794-5.577 1.277-8.511 1.583-3.068.32-6.25.391-9.361.19-.107-.007-.081-.082.024-.078z"/><path fill="#47a93a" d="M47.97 13.009c2.345-1.336 4.202-2.888 7.107-3.98 1.438-.541 3.06-.957 4.519-1.484.554-.2 1.883-.629 1.329-1.048-.632-.48-2.05.207-2.786-.16-.775-.387.389-.996.759-1.333.184-.168.688-.714.035-.789a1.805 1.805 0 00-.525.037c-.92.171-1.665.546-2.65.632-.744.064-1.3-.102-1.288-.51.004-.144.13-.28.104-.426-.026-.137-.14-.292-.372-.38-.274-.105-.527-.09-.822-.02-.587.139-1.127.472-1.611.682-.724.312-1.918.923-2.641.263-.281-.255-.314-.56-.68-.797-.645-.421-1.854-.436-2.742-.187a3.99 3.99 0 00-2.18 1.471c-.544.716-.823 1.483-1.12 2.228a13.729 13.729 0 00-.561 1.719c-.05.013-.09.037-.098.072-.202.797-.401 1.616-.408 2.42-.006.597.174 1.233.925 1.73.608.402 1.565.723 2.627.754 1.35.039 2.28-.439 3.079-.894z"/><path fill="#6cb856" d="M44.497 12.588c.114-1.302 1.974-2.514 3.354-3.59.727-.567 1.472-1.13 2.195-1.7.786-.617 1.747-1.168 2.664-1.742.065-.04-.068-.095-.143-.06-1.056.523-1.842 1.154-2.69 1.75-.874.613-1.677 1.25-2.48 1.884-1.239.975-2.822 2.063-3.07 3.233-.862-1.174-.439-2.504.037-3.697.506-1.265 1.408-2.483 2.56-3.647.043-.045-.12-.083-.167-.038-1.266 1.2-2.134 2.487-2.643 3.809-.474 1.229-.83 2.63.192 3.817.04.044.187.027.191-.02zm.794-.012c1.269-1.23 2.924-2.317 4.737-3.375.943-.552 1.852-1.117 2.804-1.665.955-.55 2.315-.882 3.242-1.432.073-.043-.07-.1-.153-.063-1.057.472-2.275.844-3.204 1.379-.98.565-1.93 1.144-2.876 1.722-1.74 1.067-3.566 2.15-4.646 3.412-.023.026.07.048.096.022zm10.702-4.668c.042-.017-.004-.05-.053-.038-1.095.242-2.2.517-3.265.789-.933.238-1.75.52-2.362.936-.056.038.065.073.125.039.813-.47 1.88-.783 3.006-1.055.852-.206 1.819-.371 2.549-.671z"/><path fill="#6cb856" d="M46.347 8.275c.615-.433 1.163-.897 1.447-1.404.022-.04-.088-.055-.12-.02-.45.473-.886.939-1.487 1.375-.068.049.091.098.16.049z"/><path fill="#efe107" d="M55.502 8.591c-.043-.291-.355-.583-.855-.737-.58-.18-1.314-.136-1.845.06-.433.16-.76.409-.777.673-.02.329.508.636 1.128.768.565.12 1.268.095 1.76-.083.449-.162.626-.421.589-.68z"/><path fill="#f7e35b" d="M55.501 8.592c.037.259-.139.517-.587.68-.493.178-1.196.203-1.762.082-.619-.131-1.147-.438-1.127-.767.016-.264.344-.512.776-.673.531-.196 1.267-.24 1.846-.061.5.155.813.447.854.739zm-1.337.28c.5-.066.738-.31.553-.537-.142-.174-.495-.302-.886-.307a1.443 1.443 0 00-.693.098c-.336.148-.36.405-.079.573.253.15.712.225 1.105.173z" opacity=".69"/><path fill="#507b2d" d="M43.264 17.256c3.382.506 6.95.756 10.177 1.483 3.56.803 5.85 2.302 8.876 3.442.965.364 2.274.82 3.54.504.423-.105.707-.273.798-.497.155-.382-.376-.866.597-1.08.576-.128 1.233-.094 1.788-.258.488-.145.86-.387 1.01-.65.32-.564-.463-1.044-.912-1.53-.355-.388-.353-.694.255-1.025.388-.21.863-.41.804-.716-.115-.597-2.304-.889-1.324-1.555.566-.385 1.794-.637 1.754-1.178-.045-.608-1.803-1.045-2.734-1.309-6.851-1.945-15.8-1.41-23.125-.434a.156.156 0 00-.078.028c-2.397.363-4.486 1.2-5.623 2.27-1.57 1.477 1.78 2.144 4.197 2.505z"/><path fill="#6e8f48" d="M40.225 15.191c.399-.052.799-.098 1.198-.14 4.234.256 8.558.776 12.24 1.826a16.448 16.448 0 013.933 1.694c-.073.001-.11.052-.028.064l.18.027c.2.12.398.24.593.364 1.15.727 2.328 1.527 4.078 1.947.09.022.163-.048.083-.074-1.765-.596-2.992-1.362-4.287-2.166 1.018.157 2.026.331 3.007.534 1.189.246 2.285.58 3.469.826.055.012.09-.026.048-.042-.956-.373-2.166-.629-3.291-.863a42.21 42.21 0 00-3.412-.566l-.017-.01c-1.356-.84-2.908-1.514-4.872-2.02-3.373-.87-7.235-1.417-11.07-1.606 6.245-.575 12.522.038 18.583.915-.026.031.027.071.109.054l.107-.022c1.919.28 3.817.586 5.685.888.138.022.218-.079.079-.102-1.77-.294-3.57-.589-5.393-.86 1.539-.3 3.087-.516 4.682-.753.075-.01.03-.06-.037-.058-1.686.051-3.476.367-4.953.766-6.418-.946-13.103-1.588-19.714-.864l-.396-.014c-.084-.002-.111.045-.066.068-.193.022-.386.045-.578.07-.153.02-.114.138.04.117z"/><path fill="#6e8f48" d="M60.975 17.269c-1.338-.75-3.119-1.366-4.826-1.908-.078-.025-.162.03-.086.057 1.681.595 3.193 1.275 4.828 1.893.055.02.13-.017.084-.042zm-13.882-2.685a65.18 65.18 0 018.975-.943c3.122-.109 6.09.098 9.15.363.065.006.09-.045.025-.055-2.874-.445-6.088-.522-9.088-.444-3.136.081-6.242.417-9.129 1.007-.099.02-.032.09.067.072z"/><path fill="#9fd738" d="M58.946 11.95c-.12-.176-.341-.31-.643-.397-.508-.167-1.194-.222-1.832-.212-.025-.01-.05-.02-.073-.036.287-.254.464-.537.34-.827-.107-.25-.432-.51-.905-.64a2.95 2.95 0 00-.69-.1c-.072-.002-.712.008-.71.052-.028-.409-.13-.874-.874-1.126-.558-.189-1.24-.196-1.736-.003-.512-.446-1.565-.862-2.56-.205-2.372 1.571-5.21 2.676-8.44 3.723-.944.306-2.437.77-1.877 1.423.5.583 2.412.376 3.394.291 1.705-.148 3.352-.43 5.074-.538 1.815-.112 3.616.04 5.423.113 1.508.061 3.174.082 4.584-.225 1.042-.227 1.917-.72 1.525-1.294z"/><path fill="#b3df5c" d="M50.848 9.704c.092-.056-.093-.116-.187-.063-2.787 1.565-6.186 2.732-10.177 3.505-.08.016-.026.072.054.058 4.024-.667 7.664-1.908 10.31-3.5zm4.601 2.666c-1.203.13-2.315.014-3.524-.02a46.301 46.301 0 00-4.732.131c1.62-.464 3.977-.749 4.333-1.74.013-.036-.102-.047-.126-.014-.708 1-2.967 1.211-4.581 1.782a78.285 78.285 0 00-5.036.602c-.098.014-.048.096.05.082a89.839 89.839 0 014.785-.56.129.129 0 00.087.001l.035-.012a55.164 55.164 0 012.208-.143 42.07 42.07 0 013.742-.003c.912.044 1.949.178 2.79-.056.052-.014.036-.058-.031-.05z"/><path fill="#b3df5c" d="M54.688 11.303c.038-.019 0-.061-.059-.044-1.414.391-2.62.771-4.24.96-.068.008-.053.059.017.052 1.509-.148 3.189-.428 4.282-.968z"/><path fill="#507b2d" d="M45.056 13.016c1.133-2.14 1.46-4.399 3.513-6.409 1.017-.995 2.386-1.896 3.443-2.88.4-.374 1.422-1.212.305-1.546-1.275-.38-2.1.775-3.364.55-1.333-.239-.708-1.239-.674-1.72.016-.24-.04-.997-.872-.91a1.535 1.535 0 00-.557.18c-.85.435-1.27 1.06-2.294 1.416-.773.27-1.6.225-2.06-.244-.16-.165-.172-.353-.373-.513a1.718 1.718 0 00-.864-.336c-.434-.048-.705.036-.96.193-.51.313-.742.835-1.053 1.201-.464.547-1.12 1.557-2.709.995-.616-.219-1.005-.557-1.697-.732-1.223-.31-2.62-.01-3.346.507-.903.643-.949 1.508-.789 2.252.207.96.776 1.908 1.298 2.836.4.711.846 1.414 1.346 2.11-.042.028-.06.066-.029.108.69.962 1.41 1.95 2.33 2.868.685.684 1.624 1.362 3.055 1.732 1.16.3 2.622.414 3.87.171 1.586-.31 2.096-1.1 2.481-1.829z"/><path fill="#6e8f48" d="M40.606 13.447c-1.375-1.516-.651-3.386-.321-4.977.175-.84.375-1.677.543-2.516.183-.913.643-1.794 1.027-2.69.026-.063-.189-.09-.232-.029-.603.872-.77 1.8-1.05 2.703-.288.928-.468 1.867-.654 2.801-.286 1.438-.836 3.095.233 4.496-2.34-1.113-3.395-2.743-4.23-4.23-.885-1.577-1.262-3.204-1.294-4.834-.001-.063-.231-.063-.233 0-.057 1.704.439 3.4 1.384 5.042.88 1.527 2.093 3.22 4.63 4.306.096.04.246-.018.197-.072zm.893-.222c.027-1.735.659-3.412 1.504-5.097.441-.876.826-1.76 1.279-2.635.454-.879 1.623-1.616 2.046-2.487.033-.068-.196-.095-.248-.03-.661.815-1.622 1.56-2.063 2.414a56.476 56.476 0 00-1.292 2.722c-.755 1.674-1.586 3.388-1.361 5.113.005.036.135.037.135 0zm6.821-8.137c.027-.031-.063-.055-.106-.03A62.65 62.65 0 0045.4 6.817c-.79.517-1.395 1.053-1.614 1.689-.02.058.16.066.187.01.386-.748 1.242-1.385 2.212-1.992.735-.46 1.648-.901 2.135-1.435z"/><path fill="#6e8f48" d="M37.734 8.04c.202-.656.29-1.33.029-1.984-.02-.05-.164-.039-.161.01.034.658.075 1.304-.108 1.958-.021.074.217.088.24.015z"/><path fill="#9fd738" d="M44.698 6.303a2.505 2.505 0 00-.917.114c-.473.141-.81.393-1.02.65-.028.005-.056.011-.088.015a3.136 3.136 0 00-1.32-.428c-.475-.047-1.042-.01-1.438.13a1.21 1.21 0 00-.417.238c-.03.027-.24.284-.16.3-.723-.136-1.569-.26-2.272-.056-.527.154-.784.421-.622.686-.959.043-2.058.312-1.267.94 1.89 1.496 2.805 3.011 3.478 4.661.197.482.473 1.237 1.81 1.248 1.191.01 1.511-.82 1.712-1.238.35-.728.441-1.48.87-2.198.45-.758 1.354-1.416 2.123-2.105.642-.575 1.272-1.227 1.238-1.894-.024-.492-.574-1.014-1.71-1.063z"/><path fill="#b3df5c" d="M37.912 8.708c-.063-.056-.234-.004-.176.052 1.734 1.658 2.555 3.418 2.483 5.271-.002.037.114.035.12 0 .268-1.829-.596-3.71-2.427-5.323zm6.274-.872c-.202.522-.798.921-1.288 1.387a7.38 7.38 0 00-1.112 1.33 7.245 7.245 0 00-.343.588c-.229-.806.113-1.839-1.486-2.332-.057-.018-.118.024-.069.045 1.489.635 1.053 1.604 1.472 2.445-.359.725-.581 1.465-.742 2.206-.01.044.151.053.162.01.175-.702.393-1.404.725-2.093.024-.005.041-.017.034-.033l-.009-.018c.153-.31.327-.62.535-.925.35-.51.783-1.01 1.327-1.48.399-.346 1.001-.709.894-1.125-.006-.025-.089-.034-.1-.005z"/><path fill="#b3df5c" d="M42.06 7.758c-.02-.022-.105-.022-.098.007.177.699.41 1.311.163 2.019-.01.03.084.041.097.011.278-.649.388-1.412-.163-2.037z"/><path fill="#507b2d" d="M40.753 16.475c-1.318.008-2.54.377-3.343.857-.99.594-1.293 1.374-1.36 2.114-.092.994.052 2.013.202 3.004.007.044.052.074.113.092.107.716.27 1.43.48 2.14.273.932.522 1.889 1.105 2.789.451.698 1.185 1.468 2.512 1.88 1.067.334 2.565.35 3.416-.151.481-.284.561-.66.94-.968.977-.795 2.377-.006 3.233.402.573.272 1.2.699 1.907.888.357.095.668.12 1.02-.001.298-.103.46-.291.507-.46.053-.18-.088-.351-.075-.53.037-.504.745-.695 1.656-.593 1.208.134 2.084.619 3.2.856.202.043.425.08.645.06.816-.073.261-.763.054-.976-.416-.427-1.779-1.213-.77-1.67.954-.433 2.622.456 3.464-.12.737-.502-.854-1.07-1.513-1.332-1.739-.694-3.692-1.255-5.403-1.964-3.458-1.434-5.56-3.405-8.294-5.124-.93-.586-2.022-1.203-3.696-1.193z"/><path fill="#6e8f48" d="M40.102 18.09c-.02 1.614 2.128 3.165 3.7 4.535.828.723 1.68 1.44 2.503 2.164.895.787 2.014 1.496 3.077 2.23.074.053-.096.118-.185.07-1.24-.675-2.134-1.478-3.11-2.24-1.002-.782-1.916-1.593-2.83-2.4-1.41-1.241-3.233-2.631-3.393-4.085-1.213 1.427-.856 3.085-.416 4.573.467 1.58 1.432 3.11 2.71 4.584.048.056-.158.099-.21.042-1.416-1.522-2.329-3.137-2.794-4.786-.432-1.533-.699-3.277.714-4.715.054-.055.235-.03.234.028zm.981.037c1.415 1.556 3.327 2.949 5.436 4.31 1.099.708 2.152 1.433 3.261 2.137 1.113.708 2.754 1.158 3.832 1.864.084.055-.1.122-.197.073-1.249-.613-2.709-1.108-3.791-1.796a138.253 138.253 0 01-3.342-2.213c-2.02-1.368-4.141-2.758-5.32-4.351-.025-.033.091-.057.121-.024zm12.652 6.077c.05.022-.01.06-.07.045a119.622 119.622 0 01-3.94-1.068c-1.124-.32-2.098-.693-2.804-1.225-.065-.048.09-.088.16-.044.946.604 2.226 1.02 3.585 1.39 1.028.279 2.204.51 3.07.902z"/><path fill="#6e8f48" d="M41.852 23.476c.707.553 1.326 1.143 1.615 1.778.022.05-.116.065-.153.021-.497-.598-.977-1.187-1.666-1.742-.077-.062.125-.119.204-.057z"/><path fill="#47a93a" d="M39.095 18.262c2.752 1.065 5.876 1.924 8.313 3.167 2.69 1.37 3.66 3.167 5.59 4.759.617.507 1.48 1.16 2.903 1.09.473-.023.867-.13 1.125-.322.44-.328.319-.871 1.39-.9.634-.016 1.219.13 1.862.076.565-.05 1.099-.21 1.442-.428.734-.467.375-1.05.335-1.583-.032-.421.207-.706 1.029-.906.522-.127 1.118-.23 1.3-.525.356-.575-1.454-1.231-.027-1.678.823-.26 2.159-.277 2.54-.787.429-.574-.868-1.288-1.53-1.697-4.864-3.012-13.597-4.087-21.16-4.467a.236.236 0 00-.094.012c-2.51-.083-5.098.328-6.982 1.123-2.6 1.097-.002 2.305 1.964 3.066z"/><path fill="#6cb856" d="M37.866 15.808c.412.021.818.05 1.222.081 3.738.981 7.356 2.224 9.968 3.847 1.12.695 1.808 1.454 2.344 2.266-.068-.01-.14.03-.075.054.05.02.098.04.147.058.094.146.184.293.27.442.507.878.983 1.83 2.285 2.526.068.037.188-.015.134-.054-1.18-.864-1.728-1.792-2.31-2.766.825.324 1.627.663 2.382 1.024.916.438 1.676.94 2.587 1.377.042.021.103-.008.076-.03-.6-.515-1.527-.965-2.39-1.38-.855-.41-1.76-.785-2.736-1.126l-.007-.013c-.61-1.018-1.533-1.918-2.967-2.734-2.463-1.402-5.63-2.588-9.05-3.437 6.25.562 11.611 2.235 16.566 4.116-.047.024-.028.07.061.068h.116c1.568.597 3.096 1.214 4.6 1.823.11.045.262-.035.151-.08a212.467 212.467 0 00-4.348-1.748c1.663-.009 3.268.063 4.934.123.078.003.075-.05.011-.06-1.607-.25-3.515-.27-5.197-.159-5.234-2.007-10.952-3.779-17.657-4.266l-.358-.083c-.077-.017-.138.022-.114.051a57.002 57.002 0 00-.592-.036c-.157-.008-.212.108-.053.116z"/><path fill="#6cb856" d="M55.55 21.386c-.666-.931-1.844-1.818-3.012-2.622-.053-.037-.173 0-.123.038 1.102.848 1.981 1.747 3.024 2.608.034.029.132.007.11-.024zM44.72 16.45c3.084.036 6.13.26 9.073.701 2.987.447 5.585 1.161 8.223 1.945.058.017.12-.026.068-.047-2.328-.918-5.256-1.555-8.105-2.01a54.742 54.742 0 00-9.265-.667c-.107.001-.098.077.007.078z"/><path fill="#8da9ae" d="M29.874 7.741c5.448-.298 10.907-.652 16.293-1.148 1.869-.173 3.735-.355 5.608-.517.348-.029 1.462-.011 1.255-.292-1.907-2.58-7.341-4.654-13.387-3.962-2.586.295-5.168.878-7.037 1.814-2.198 1.1-2.719 2.513-2.997 3.975-.013.073.104.139.265.13z" opacity=".5"/><path fill="#e11e25" d="M28.778 7.219c5.448-.299 10.908-.652 16.293-1.148 1.87-.173 3.735-.355 5.61-.517.346-.03 1.46-.012 1.253-.292-1.906-2.58-7.34-4.654-13.386-3.962-2.586.295-5.169.878-7.038 1.814-2.198 1.1-2.719 2.512-2.996 3.975-.014.073.103.139.264.13z"/><path fill="#f2583e" d="M45.353 2.73c-2.472-.59-5.448-.77-8.101-.367-4.377.663-7.109 2.67-6.994 4.773 4.956-.281 9.915-.614 14.813-1.065 1.837-.17 3.671-.348 5.511-.508-.413-1.224-3.099-2.325-5.229-2.833z"/><path fill="#e11e25" d="M31.874 6.718c.21.056.459.07.701.077.859.027 5.621-.085 4.787-.988-.092-.099-.238-.185-.363-.276-.182-.133-.261-.271-.226-.43a.47.47 0 01.183-.279c.528-.406 2.013-.522 2.91-.462.341.022.68.07.963.164.799.265.529.656.258 1.023-.166.225-.012.429.506.491.504.059 1.074.022 1.58-.012a83.843 83.843 0 004.305-.378c.611-.074 1.277-.191 1.1-.546-.678-1.362-3.989-2.178-6.567-2.34-2.985-.186-6.152.322-8.384 1.358-.281.13-.541.271-.771.423-.711.469-1.215 1.052-1.355 1.63-.043.18-.017.431.343.537l.03.008z"/><path fill="#fbc40a" d="M43.835 5.366c.393-.098 1.153-.234 1.141-.485-.003-.05-.097-.078-.183-.09-.245-.033-.461.049-.648.113-.205.069-.4.146-.606.214-.275.092-.012.324.296.248zm-.523-.806c.127-.11.25-.21.303-.335.053-.13-.287-.17-.447-.092-.184.09-.285.203-.404.315-.178.164.365.27.547.113zm-2.454-.645c.047.2.64.156.636-.037-.003-.147.06-.357-.157-.477-.105-.058-.325-.074-.428 0-.205.145-.09.35-.051.514zm-2.707-.013c.052.18.625.147.587-.034-.019-.085-.032-.166-.086-.248-.08-.125-.524-.1-.542.03-.01.087.017.168.041.252zm-2.626.383c.102.097.289.16.457.23.327.138.764-.124.419-.254-.15-.056-.301-.132-.486-.158-.22-.031-.517.06-.39.182zm-.97.9c.207.045.457.041.68.051.389.017.483-.268.09-.287-.22-.012-.474-.042-.692-.017-.258.03-.346.193-.078.253zm.231.959c.35-.012.28-.263-.064-.256-.264.006-.523-.01-.785-.008-.168 0-.447.017-.437.125.02.21 1.02.148 1.286.139z"/><path fill="#8da9ae" d="M57.769 10.46c.15 2.614.417 5.238.987 7.838.198.903.418 1.805.592 2.709.032.167-.101.695.502.62 5.557-.681 10.364-3.082 9.442-6.013-.394-1.254-1.388-2.531-3.181-3.5-2.11-1.14-5.015-1.51-8.048-1.767-.151-.013-.298.037-.294.114z" opacity=".5"/><path fill="#e11e25" d="M56.673 9.938c.151 2.613.417 5.237.987 7.837.198.903.417 1.805.592 2.71.032.166-.102.694.502.62 5.557-.682 10.363-3.083 9.442-6.014-.394-1.254-1.388-2.53-3.18-3.499-2.11-1.139-5.016-1.509-8.049-1.768-.15-.013-.298.037-.294.114z"/><path fill="#f2583e" d="M64.617 18.2c1.446-1.124 2.08-2.522 1.47-3.816-1.008-2.137-4.965-3.608-9.368-3.736.157 2.378.422 4.762.941 7.127.194.887.41 1.774.582 2.661 2.593-.09 5.13-1.27 6.375-2.237z"/><path fill="#e11e25" d="M57.451 11.452a.57.57 0 00-.222.326c-.13.406-.309 2.677 1.65 2.359.216-.035.407-.097.61-.148.293-.075.588-.1.917-.07.202.019.403.052.568.11.802.287.916 1.002.713 1.423a1.01 1.01 0 01-.426.443c-.624.357-1.418.195-2.162.034-.456-.1-.896-.043-1.069.198-.168.234-.14.508-.112.75.08.696.183 1.39.417 2.078.101.297.286.623 1.045.57 2.904-.204 4.898-1.705 5.458-2.916.648-1.401-.138-2.95-2.109-4.1a6.772 6.772 0 00-.818-.402c-.918-.38-2.093-.668-3.288-.784-.373-.037-.9-.046-1.152.116l-.02.013z"/><path fill="#fbc40a" d="M59.24 17.25c.17.195.388.568.915.583a.243.243 0 00.203-.08c.09-.111-.062-.221-.18-.316-.128-.104-.269-.203-.396-.307-.167-.138-.676-.033-.543.12zm1.728-.18c.22.07.418.138.676.173.264.037.379-.12.23-.204-.173-.095-.4-.153-.621-.219-.33-.098-.6.15-.285.25zm1.562-1.108c-.422.005-.382.29.02.305.31.01.742.06 1.011-.033.13-.045.185-.148.04-.203-.287-.11-.726-.073-1.072-.07zm.262-1.284c-.38.008-.36.283.02.28.18 0 .35 0 .527-.018.268-.028.254-.24-.018-.26-.178-.012-.35-.006-.528-.002zm-.572-1.281c-.211.04-.36.123-.522.197-.315.144.193.373.495.22.13-.064.303-.13.373-.216.083-.101-.08-.251-.346-.201zm-1.798-.539c-.113.094-.126.213-.167.318-.069.184.518.253.594.07.042-.105.128-.223.095-.329-.039-.125-.375-.182-.522-.059zm-2.023.027c-.004.167.524.155.54-.009.012-.125.065-.247.086-.371.013-.08.003-.214-.224-.219-.442-.009-.4.471-.402.599z"/><path fill="#47a93a" d="M61.512 15.081c.48-.019 1.537-.026 1.828-.278.318-.276-.473-.53-.762-.716-1.21-.775 1.207-.819 1.998-1.108.428-.156.749-.45.442-.697-.243-.196-.756-.23-1.188-.252-.312-.014-.842.01-1.107-.089-.721-.27.382-.62.659-.802.832-.546-.328-1.163-1.608-.962-.304.048-.562.144-.832.222-.21.061-.661.227-.913.09.019.01.107-.3.106-.293.043-.278-.078-.586-.588-.759-1.341-.454-2.208.572-2.683.971-.765.642-1.745.955-3.277 1.018-1.15.047-2.251.107-3.341.302-.655.12-1.42.297-1.667.64-.14.192-.087.406.227.554.205.097.469.16.728.22 1.846.425 3.678.87 5.555 1.262 2.003.42 4.206.763 6.423.677z"/><path fill="#6cb856" d="M56.938 12.529c1.67-.1 2.962-.706 4.28-1.154.085-.029.02-.089-.079-.069-.638.13-1.162.353-1.709.552-.855.308-1.703.533-2.787.582-.943.043-1.91.009-2.854-.017-.467-.014-.933-.031-1.399-.049-.17-.007-.635-.055-1.018-.077.225 0 .454.001.532-.001.361-.013.722-.025 1.082-.045a22.993 22.993 0 002.585-.263c1.323-.222 2.47-.613 3.218-1.184.055-.042-.08-.082-.138-.041-1.79 1.264-5.18 1.465-8.12 1.52-.074.001-.074.049-.003.055 2.064.155 4.32.316 6.41.191zm-.343.641c2.136-.056 4.27-.3 6.353-.52.083-.009.05-.067-.031-.06-2.098.16-4.191.412-6.315.476-2.294.07-4.465-.164-6.667-.447-.08-.01-.117.047-.038.058 2.155.288 4.442.552 6.698.493zm2.658 1.099c.075-.005.08-.065.005-.072-1.312-.13-2.452-.27-3.673-.543-1.05-.236-2.08-.484-3.21-.625-.11-.014-.163.066-.053.08 1.364.179 2.587.514 3.86.799.935.21 2.017.43 3.071.36z"/><path fill="#9fd738" d="M35.203 17.752c1.956 1.472 4.49 2.787 5.789 4.44.642.817.98 1.68 1.589 2.503.23.312.683 1.046 1.69.922 1.15-.14.209-.993 1.167-1.216 1.01-.234 1.872.48 2.432.75.28.135 1.218.53 1.566.257.094-.074.097-.165.086-.25-.061-.469-.583-.923-.455-1.396.096-.357.599-.559 1.41-.429.287.045.519.144.82.176.28.031.625.026.873-.053.293-.092.34-.212.289-.368-.1-.308-.6-.655-.871-.938-.404-.424-1.26-1.152.277-1.28.597-.049 1.214.028 1.8-.065 1.038-.165 1.435-.71 1.209-1.189-.282-.595-1.296-1.078-2.276-1.438-1.264-.464-2.712-.824-4.111-1.186a86.959 86.959 0 00-3.263-.778c-.012-.027-.047-.052-.115-.067-1.53-.334-3.107-.674-4.71-.922-1.193-.184-2.517-.296-3.738-.106-.99.153-1.921.49-2.307.963-.49.601.183 1.17.849 1.67z"/><path fill="#b3df5c" d="M37.101 16.303c2.568.448 4.421 1.662 6.152 2.616.912.503 1.81 1.012 2.726 1.514.997.545 1.806 1.15 2.672 1.74.061.042.213 0 .161-.047-.72-.638-1.742-1.187-2.675-1.754-.959-.583-1.988-1.142-3.009-1.7-1.57-.859-3.263-1.909-5.525-2.377 2.608-.034 5.138.563 7.375 1.142a41.81 41.81 0 016.51 2.272c.075.034.2-.029.125-.064-2.015-.94-4.319-1.725-6.805-2.36-2.312-.588-5.004-1.178-7.685-1.074-.102.004-.113.076-.022.092zm-.218.365c2.07.95 3.74 2.033 5.303 3.178.814.597 1.666 1.18 2.471 1.78.81.602 1.06 1.32 1.875 1.909.063.046.221-.001.172-.05-.62-.624-.992-1.29-1.779-1.875a106.015 106.015 0 00-2.567-1.83c-1.6-1.115-3.209-2.274-5.402-3.15-.046-.017-.117.018-.073.038zm6.069 6.28c.02.024.099.013.092-.013a16.305 16.305 0 00-.582-1.722c-.191-.496-.507-.953-1.151-1.358-.06-.037-.166.008-.115.045.69.512.99 1.091 1.192 1.686.152.45.188.94.564 1.362z"/><path fill="#b3df5c" d="M45.156 18.457c.677.41 1.439.8 2.366 1.085.07.02.136-.023.075-.05-.808-.348-1.607-.687-2.293-1.093-.077-.045-.224.012-.148.058z"/><path fill="#507b2d" d="M32.582 16.685c-4.325.635-8.445 1.65-13.008 1.854-2.258.1-4.531.012-6.792.09-.857.03-2.844.049-2.862.663-.02.7 2.423.442 2.669 1.06.259.65-1.81.91-2.672 1.142-.428.115-1.723.52-1.151.808.154.077.381.109.6.13 1.195.118 2.499-.032 3.645.195.863.17 1.206.523.617.943-.207.148-.53.248-.709.409-.167.15-.266.348-.151.515.137.197.421.262.827.284.806.044 1.838-.13 2.636-.191 1.195-.092 3.296-.343 3.117.574-.07.356-.465.683-.421 1.047.077.644 1.312 1.048 2.586 1.075 1.585.033 3.123-.39 4.344-.83 1.575-.568 2.949-1.276 4.31-1.955a61.082 61.082 0 003.012-1.605c.07 0 .145-.01.204-.044 1.335-.763 2.7-1.551 3.842-2.383.851-.62 1.561-1.337 1.483-2.094-.063-.614-.604-1.254-1.664-1.627-1.348-.475-2.991-.276-4.462-.06z"/><path fill="#6e8f48" d="M35.595 18.237c-1.958 1.317-5.603 1.978-8.556 2.653-1.558.357-3.127.701-4.682 1.06-1.69.391-3.468.655-5.23.956-.125.022-.065.122.065.108 1.834-.203 3.542-.607 5.268-.954 1.772-.356 3.507-.76 5.238-1.161 2.663-.616 5.845-1.237 7.755-2.373-.763 1.496-3.082 2.743-5.262 3.829-2.313 1.153-4.97 2.128-7.81 2.968-.11.032.006.124.118.093 3.013-.842 5.73-1.899 8.127-3.109 2.23-1.125 4.581-2.467 5.193-4.028.024-.059-.154-.089-.224-.042zm-.842-.243c-3.054.87-6.311 1.47-9.69 1.987-1.76.27-3.502.565-5.265.828-1.77.266-3.653.174-5.393.448-.136.021-.07.126.07.114 1.765-.15 3.555-.146 5.277-.404 1.817-.272 3.624-.569 5.422-.867 3.316-.548 6.74-1.087 9.648-2.052.06-.02-.004-.073-.07-.054zM17.04 19.408c-.068.004-.065.052.001.057 1.478.101 3.016.17 4.506.23 1.306.051 2.553.02 3.777-.216.112-.02.035-.097-.075-.08-1.507.226-3.058.21-4.613.131-1.177-.06-2.415-.199-3.597-.122z"/><path fill="#6e8f48" d="M27.58 22.124c-1.25.252-2.476.56-3.49.995-.076.033.016.085.1.06 1.136-.348 2.246-.693 3.486-.952.139-.029.044-.13-.096-.103z"/><path fill="#507b2d" d="M29.495 11.869c-1.484-1.592-3.589-3.07-4.368-4.794-.385-.853-.456-1.731-.806-2.587-.134-.325-.355-1.083-1.389-1.031-1.182.06-.512.969-1.527 1.122-1.07.162-1.706-.604-2.178-.911-.234-.153-1.042-.61-1.47-.362a.312.312 0 00-.16.24c-.084.469.293.954.022 1.413-.205.347-.764.512-1.527.327-.269-.065-.469-.18-.757-.232-.269-.05-.61-.068-.88-.008-.318.07-.4.186-.398.344.003.312.393.689.574.989.27.448.894 1.227-.665 1.246-.606.008-1.193-.111-1.803-.06-1.076.09-1.636.602-1.558 1.092.097.608.953 1.156 1.811 1.58 1.11.548 2.432 1.006 3.704 1.46a70.8 70.8 0 002.991.997c.003.028.03.055.092.074 1.412.437 2.868.883 4.378 1.24 1.123.265 2.4.468 3.666.365 1.026-.083 2.051-.351 2.576-.793.668-.56.177-1.17-.328-1.711z"/><path fill="#6e8f48" d="M27.173 13.17c-2.403-.622-3.865-1.95-5.285-3.016-.749-.56-1.48-1.127-2.234-1.687-.819-.609-1.434-1.263-2.11-1.908-.048-.045-.21-.013-.175.036.517.681 1.361 1.295 2.111 1.922.77.643 1.617 1.267 2.456 1.89 1.292.96 2.643 2.116 4.738 2.737-2.59-.148-4.91-.915-6.947-1.643a32.678 32.678 0 01-5.743-2.7c-.065-.04-.208.013-.144.053 1.705 1.071 3.744 2.008 6.01 2.808 2.106.744 4.59 1.514 7.273 1.598.102.003.136-.068.05-.09zm.328-.345c-1.757-1.083-3.078-2.271-4.274-3.513-.622-.647-1.287-1.284-1.9-1.933-.616-.651-.643-1.38-1.27-2.018-.049-.051-.22-.015-.186.037.423.66.587 1.345 1.187 1.979.632.668 1.305 1.33 1.979 1.989 1.242 1.215 2.478 2.472 4.38 3.49.04.022.121-.008.084-.031zM23.42 6.19c-.015-.025-.095-.02-.096.006-.028.575.006 1.169.048 1.745.037.504.21.977.723 1.423.048.04.167.004.128-.037-.525-.554-.645-1.15-.663-1.75-.013-.456.102-.943-.14-1.387z"/><path fill="#6e8f48" d="M19.864 10.48a7.663 7.663 0 00-2.009-1.238c-.063-.026-.14.014-.09.044.694.4 1.38.792 1.935 1.24.062.05.225.005.164-.046z"/><path fill="#47a93a" d="M36.822 2.966a3.529 3.529 0 00-1.332-.021c-.268.048-.499.139-.767.186-.789.136-1.336-.06-1.736-.37-.493-.382-.954-1.043-2.189-.913-.397.042-.65.179-.756.363-.07.123-.043.25-.08.376-.118.386-.675.494-1.392.403-1.384-.174-1.874-1.148-3.424-1.154-1.102-.006-1.269.537-1.109.946.185.475.403 1.005-.988 1.08-.67.037-1.397-.086-2.056-.01-1.106.129-.789.668-.33 1.017.732.555 2.486 1.034 2.198 1.794-.16.424-1.254.484-1.525.874-.15.216.023.449.24.639.817.716 2.273 1.332 3.517 1.877 1.565.688 3.27 1.302 4.786 2.016.91.427 1.693.908 2.432 1.403.635.426 1.061.953 2.173 1.113a7.263 7.263 0 003.221-.293c.963-.317 1.686-.815 1.928-1.363.288-.651-.14-1.308-.603-1.917a33.446 33.446 0 00-2.124-2.495c-.339-.365-.724-.746-.655-1.157.065-.394.488-.751.858-1.096.91-.847 2.281-2.76-.287-3.298z"/><path fill="#6cb856" d="M25.01 5.812c.142 1.326 2.846 2.32 4.677 3.168.316.147.622.297.92.45a30.734 30.734 0 01-2.89-.364c-1.034-.188-1.974-.45-2.945-.7-.062-.015-.117.03-.064.05 1.66.653 3.965 1.024 6.108 1.125 2.015 1.067 3.594 2.3 4.662 3.65.043.055.218.023.177-.03-1-1.336-2.509-2.553-4.48-3.609.073-.012.083-.07-.013-.077l-.159-.013a17.568 17.568 0 00-.307-.158c-1.085-.546-2.292-1.034-3.347-1.595-1.074-.57-1.753-1.18-2.226-1.91-.02-.03-.117-.018-.114.013z"/><path fill="#6cb856" d="M27.664 5.334c.917.649 1.816 1.248 2.53 1.959.644.642 1.237 1.295 1.847 1.944 1.308 1.389 2.632 2.774 3.948 4.16.044.047.2.02.157-.028-1.362-1.462-2.716-2.926-4.087-4.386-.646-.688-1.263-1.384-1.978-2.057-.613-.576-1.292-1.201-2.328-1.632-.053-.022-.127.013-.089.04zm6.978-1.04c-.31.696-.924 1.346-1.201 2.045a3.57 3.57 0 00-.19 1.901c.233 1.467 1.23 2.868 2.256 4.244.032.043.169.018.139-.025-.946-1.4-1.955-2.817-2.163-4.295-.097-.689-.021-1.387.312-2.06.29-.589 1.09-1.193.979-1.808-.007-.037-.117-.037-.132-.002zm-2.674-.129c-.006.765.54 1.562 1.152 2.26.04.045.186.02.15-.026-.588-.734-.837-1.478-1.18-2.24-.017-.036-.122-.032-.122.006z"/><path fill="#47a93a" d="M42.701 25.714c-.454-.322-.962-.652-1.126-1.04-.17-.404.117-.804.363-1.187a25.35 25.35 0 001.486-2.597c.308-.63.57-1.307.121-1.937-.376-.53-1.219-.985-2.254-1.244-1.014-.255-2.2-.332-3.27-.109-1.065.222-1.357.77-1.88 1.228-.61.533-1.27 1.056-2.066 1.532-1.328.794-2.868 1.5-4.25 2.271-1.099.613-2.392 1.307-3.024 2.064-.168.202-.282.442-.079.648.366.372 1.466.37 1.732.782.476.738-1.147 1.312-1.735 1.905-.369.372-.55.926.581.991.672.04 1.364-.124 2.04-.126 1.4-.005 1.314.534 1.25 1.016-.058.416.243.945 1.336.877 1.537-.095 1.781-1.088 3.112-1.34.69-.13 1.27-.056 1.481.321.07.123.074.251.174.37.151.176.437.297.841.316 1.26.06 1.552-.622 1.946-1.03.321-.33.815-.556 1.633-.465.277.031.53.108.808.14.461.052.908.02 1.317-.095 2.415-.68.576-2.502-.537-3.29z"/><path fill="#6cb856" d="M30.799 26.847c-.188-1.325 2.249-2.465 3.855-3.411.278-.163.544-.33.802-.5-.956.14-1.89.305-2.78.527-.98.245-1.846.56-2.75.862-.057.019-.122-.022-.075-.046 1.486-.743 3.68-1.242 5.785-1.463 1.734-1.174 2.995-2.487 3.719-3.89.029-.055.21-.034.183.022-.66 1.382-1.855 2.676-3.551 3.836.078.008.102.065.009.078l-.155.02c-.088.06-.175.118-.266.176-.941.604-2.017 1.157-2.925 1.773-.925.628-1.447 1.27-1.735 2.022-.012.033-.112.025-.116-.006z"/><path fill="#6cb856" d="M33.554 27.172c.75-.696 1.492-1.342 2.024-2.089.48-.673.905-1.356 1.35-2.035.951-1.452 1.921-2.902 2.882-4.354.033-.048.195-.03.163.02-.987 1.528-1.968 3.058-2.965 4.586-.47.72-.909 1.446-1.45 2.154-.466.608-.984 1.266-1.906 1.752-.047.025-.129-.005-.098-.034zm7.187.637c-.48-.674-1.253-1.284-1.703-1.963a4.023 4.023 0 01-.66-1.877c-.136-1.47.505-2.916 1.181-4.341.021-.045.163-.028.144.017-.59 1.443-1.239 2.908-1.077 4.388.075.689.324 1.378.823 2.027.435.568 1.38 1.123 1.423 1.74.002.037-.107.043-.13.009zm-2.621.28c-.198-.76.145-1.581.58-2.31.027-.046.18-.03.155.018-.4.762-.463 1.515-.613 2.29-.008.039-.113.04-.123.002z"/><path fill="#47a93a" d="M32.956 13.914c-3.493-.286-7.1-.307-10.5-.822-3.755-.568-6.444-1.908-9.762-2.846-1.057-.299-2.483-.667-3.65-.274-.389.13-.624.316-.65.543-.047.39.615.835-.289 1.11-.536.162-1.196.17-1.7.368-.444.174-.745.44-.82.71-.16.578.752 1.003 1.333 1.458.461.36.544.665.034 1.031-.325.232-.74.461-.596.761.281.584 2.532.734 1.747 1.457-.453.417-1.599.745-1.407 1.28.215.6 2.08.92 3.075 1.122 7.335 1.492 16.054.391 23.04-1.042a.134.134 0 00.07-.032c2.273-.513 4.11-1.475 4.936-2.608 1.141-1.563-2.365-2.01-4.86-2.216z"/><path fill="#6cb856" d="M36.546 15.767c-.38.078-.764.148-1.148.215-4.268.016-8.699-.223-12.643-1.029-1.688-.346-3.069-.847-4.37-1.43.071-.006.093-.058.01-.065-.063-.004-.126-.01-.188-.015a39.43 39.43 0 01-.689-.323c-1.344-.647-2.735-1.366-4.587-1.67-.096-.016-.148.057-.06.08 1.915.477 3.346 1.158 4.854 1.872a65.647 65.647 0 01-3.129-.338c-1.247-.168-2.427-.428-3.67-.598-.058-.008-.082.032-.035.046 1.052.308 2.322.484 3.503.645 1.165.16 2.34.274 3.54.344l.02.01c1.578.745 3.305 1.314 5.394 1.692 3.586.647 7.567.942 11.42.885-6.028.968-12.42.76-18.673.276.017-.032-.047-.068-.123-.046-.033.01-.067.02-.1.028-1.98-.155-3.947-.337-5.883-.517-.143-.014-.193.091-.049.105 1.836.18 3.703.356 5.585.51-1.44.396-2.915.707-4.429 1.043-.07.016-.013.062.053.055 1.657-.157 3.342-.584 4.694-1.073 6.626.53 13.43.74 19.78-.399l.396-.01c.084-.004.097-.052.047-.072.184-.035.37-.07.553-.108.145-.029.074-.143-.073-.113z"/><path fill="#6cb856" d="M15.4 15.03c1.536.657 3.474 1.155 5.317 1.583.085.02.152-.04.069-.061-1.832-.482-3.521-1.061-5.315-1.57-.06-.016-.122.026-.071.048zm14.51 1.777a59.569 59.569 0 01-8.632 1.505c-3.063.307-6.062.29-9.167.223-.069-.002-.078.05-.01.056 2.971.258 6.18.13 9.13-.138 3.085-.281 6.07-.812 8.765-1.58.092-.025.006-.09-.087-.066z"/><path fill="#efe107" d="M38.043 7.629c-.042-.292-.354-.584-.854-.738-.58-.18-1.315-.136-1.846.06-.433.16-.76.408-.777.673-.02.329.508.635 1.128.768.565.12 1.268.095 1.762-.083.447-.162.624-.421.587-.68z"/><path fill="#f7e35b" d="M38.043 7.629c.037.259-.14.517-.587.679-.493.179-1.196.204-1.762.083-.62-.132-1.147-.438-1.127-.768.016-.264.344-.512.776-.672.53-.196 1.267-.24 1.846-.061.5.155.813.447.854.739zm-1.337.28c.499-.066.738-.311.553-.537-.142-.174-.495-.303-.886-.307a1.431 1.431 0 00-.693.098c-.336.148-.361.405-.08.573.254.15.713.225 1.106.173z" opacity=".69"/><path fill="#efe107" d="M48.724 26.363c-.041-.292-.354-.584-.854-.738-.58-.179-1.315-.136-1.846.061-.432.16-.76.408-.777.672-.02.329.508.636 1.128.768.565.12 1.268.095 1.762-.083.447-.162.624-.421.587-.68z"/><path fill="#f7e35b" d="M48.723 26.363c.038.26-.139.518-.587.68-.493.178-1.196.203-1.762.082-.619-.13-1.147-.438-1.127-.767.016-.264.344-.512.776-.673.531-.196 1.267-.239 1.846-.06.501.154.813.446.854.738zm-1.337.28c.5-.066.738-.31.553-.537-.142-.174-.495-.302-.886-.307a1.443 1.443 0 00-.693.098c-.336.148-.36.405-.079.573.253.151.713.225 1.105.173z" opacity=".69"/><path fill="#8da9ae" d="M44.945 26.113c-5.182-.855-10.425-1.663-15.73-2.327-1.842-.23-3.69-.45-5.525-.692-.34-.045-1.328-.29-1.396.004-.624 2.72 2.39 5.711 8.469 6.335 2.6.267 5.457.274 7.99-.183 2.982-.539 4.734-1.704 6.313-2.966.078-.063.032-.146-.121-.17z" opacity=".5"/><path fill="#e11e25" d="M43.85 25.591c-5.183-.855-10.425-1.663-15.73-2.327-1.842-.23-3.69-.451-5.526-.692-.34-.044-1.328-.291-1.396.005-.623 2.719 2.391 5.71 8.47 6.334 2.6.267 5.457.274 7.991-.183 2.98-.538 4.733-1.704 6.311-2.966.08-.063.032-.146-.12-.171z"/><path fill="#f2583e" d="M24.831 26.218c1.693 1.042 4.213 1.818 6.97 2.002 4.547.306 8.833-.94 10.638-2.86-4.723-.768-9.495-1.492-14.32-2.095-1.809-.227-3.625-.444-5.429-.68-.738 1.188.682 2.736 2.141 3.633z"/><path fill="#e11e25" d="M40.604 25.404c-.138-.094-.351-.158-.562-.214-.75-.202-5.145-1.083-5.212-.098-.007.109.047.217.076.325.043.157-.011.299-.187.434a1.279 1.279 0 01-.418.214c-.845.257-2.288.055-3.043-.184-.286-.091-.55-.204-.719-.347-.48-.403.119-.701.697-.975.354-.17.4-.385-.011-.548-.4-.158-.948-.242-1.435-.316a80.19 80.19 0 00-4.224-.547c-.618-.059-1.324-.092-1.487.265-.625 1.367 1.617 2.787 3.796 3.464 2.521.784 5.837.98 8.789.506.373-.059.734-.133 1.08-.222 1.067-.276 2.05-.697 2.701-1.19.203-.153.407-.385.179-.554l-.02-.014z"/><path fill="#fbc40a" d="M28.594 24.154c-.443.007-1.251-.027-1.47.202-.041.045.017.09.085.12.19.08.459.05.687.032.247-.021.492-.05.74-.07.33-.025.305-.288-.042-.283zm-.259.834c-.216.074-.418.138-.579.24-.165.105.105.212.319.175.249-.043.442-.124.651-.2.309-.112-.083-.32-.391-.215zm1.625 1.088c.14-.189-.437-.272-.607-.098-.13.134-.379.31-.29.462.042.074.224.135.383.09.318-.089.4-.298.514-.454zm2.428.571c.116-.173-.43-.262-.56-.09-.06.08-.121.156-.148.241-.04.13.383.198.517.083.088-.074.136-.152.19-.234zm2.715.197c-.003-.108-.115-.205-.202-.303-.17-.191-.8-.045-.609.143.083.082.151.182.294.243.17.073.521.053.517-.083zm1.692-.612c-.145-.083-.374-.13-.566-.187-.336-.095-.678.143-.343.241.19.055.39.135.61.158.258.027.487-.103.3-.212zm.663-.912c-.327-.06-.491.18-.174.244.242.05.462.116.699.17.152.033.419.076.508-.023.174-.193-.783-.344-1.033-.39z"/><path fill="#9fd738" d="M22.933 21.69c.162.148.4.25.697.307.506.112 1.134.11 1.698.057.025.008.05.015.076.026-.175.248-.242.512-.04.76.174.217.546.424 1.008.507.206.036.428.049.645.038.065-.003.632-.058.615-.098.155.362.392.769 1.136.94.556.127 1.165.085 1.545-.123.598.36 1.667.655 2.343-.002 1.614-1.568 3.788-2.756 6.332-3.92.744-.341 1.925-.861 1.219-1.402-.63-.483-2.264-.161-3.111-.014-1.471.254-2.847.625-4.346.843-1.58.23-3.231.225-4.861.29-1.362.055-2.852.156-4.01.53-.854.278-1.476.78-.946 1.262z"/><path fill="#b3df5c" d="M30.85 23.106c-.064.056.12.096.187.042 1.984-1.593 4.64-2.876 7.946-3.852.067-.02 0-.065-.067-.047-3.369.884-6.216 2.249-8.066 3.857zm-4.938-2.041c1.029-.202 2.055-.18 3.142-.236A36.68 36.68 0 0032 20.554c.412-.055.819-.117 1.223-.182-1.296.528-3.302.952-3.305 1.86 0 .032.106.034.116.003.314-.94 2.257-1.29 3.513-1.916a62.626 62.626 0 004.29-.898c.084-.02.012-.089-.071-.07a71.35 71.35 0 01-4.08.844.111.111 0 00-.078.005l-.027.012c-.631.108-1.27.206-1.92.288a36.982 36.982 0 01-3.33.271c-.824.027-1.79-.018-2.465.251-.04.016-.013.054.045.043z"/><path fill="#b3df5c" d="M26.927 21.96c-.028.02.018.053.065.034 1.136-.45 2.088-.875 3.47-1.16.058-.01.028-.056-.032-.044-1.295.24-2.701.61-3.503 1.17z"/><path fill="#efe107" d="M26.54 16.767c-.04-.292-.353-.584-.853-.738-.58-.179-1.315-.136-1.846.061-.433.16-.76.408-.777.672-.02.33.508.636 1.128.768.565.12 1.268.095 1.762-.083.447-.162.624-.42.587-.68z"/><path fill="#f7e35b" d="M26.54 16.768c.037.259-.139.517-.587.68-.493.178-1.196.203-1.762.082-.619-.131-1.147-.438-1.127-.767.016-.264.344-.512.776-.673.531-.196 1.267-.24 1.846-.061.501.155.813.447.854.739zm-1.337.28c.5-.066.738-.311.553-.537-.142-.174-.495-.302-.886-.307a1.443 1.443 0 00-.693.098c-.336.148-.36.405-.079.573.253.15.713.225 1.105.173z" opacity=".69"/><path fill="#efe107" d="M40.234 16.31c-.041-.291-.354-.583-.854-.738-.58-.178-1.315-.135-1.846.06-.433.16-.76.409-.777.674-.02.329.508.635 1.128.767.565.12 1.268.096 1.762-.082.447-.162.624-.421.587-.68z"/><path fill="#f7e35b" d="M40.233 16.31c.038.26-.138.519-.586.68-.494.18-1.197.204-1.763.083-.619-.131-1.147-.438-1.127-.767.016-.264.344-.512.776-.673.531-.196 1.267-.24 1.846-.061.501.155.813.447.854.739zm-1.336.28c.499-.065.738-.31.553-.536-.143-.174-.496-.302-.887-.307a1.443 1.443 0 00-.693.098c-.335.148-.36.405-.078.573.252.15.711.225 1.104.173z" opacity=".69"/><path fill="#efe107" d="M42.15 11.937c-.04-.292-.353-.584-.853-.738-.58-.18-1.315-.136-1.846.06-.433.16-.76.409-.777.673-.02.329.508.636 1.128.768.565.12 1.268.095 1.762-.083.447-.162.624-.421.587-.68z"/><path fill="#f7e35b" d="M42.15 11.937c.038.259-.138.517-.586.68-.494.178-1.197.203-1.763.082-.619-.131-1.147-.438-1.127-.767.016-.264.344-.512.776-.673.531-.196 1.267-.239 1.846-.061.501.155.813.447.854.739zm-1.337.28c.5-.066.738-.31.553-.537-.142-.174-.495-.302-.886-.307a1.443 1.443 0 00-.693.098c-.336.148-.36.405-.079.573.253.151.713.225 1.105.173z" opacity=".69"/><path fill="#efe107" d="M49.678 10.603c-.042-.292-.354-.584-.854-.738-.58-.18-1.315-.136-1.847.06-.432.16-.76.408-.776.673-.02.329.508.635 1.127.768.566.12 1.269.095 1.762-.083.448-.162.625-.421.588-.68z"/><path fill="#f7e35b" d="M49.678 10.603c.037.259-.14.517-.588.679-.493.179-1.196.204-1.762.083-.62-.132-1.147-.438-1.127-.768.016-.264.344-.512.776-.672.53-.196 1.267-.239 1.846-.061.5.155.813.447.855.739zm-1.338.28c.499-.066.738-.311.553-.537-.142-.174-.494-.303-.886-.307a1.431 1.431 0 00-.693.098c-.336.148-.36.405-.08.573.254.151.714.225 1.106.173z" opacity=".69"/><path fill="#efe107" d="M54.749 16.071c-.042-.292-.354-.584-.854-.738-.58-.179-1.315-.136-1.847.061-.432.16-.76.408-.776.672-.02.329.508.636 1.128.768.565.12 1.268.095 1.761-.083.448-.162.625-.421.588-.68z"/><path fill="#f7e35b" d="M54.749 16.071c.037.26-.14.517-.587.68-.494.178-1.197.203-1.762.082-.62-.13-1.147-.438-1.127-.767.015-.264.344-.512.776-.673.53-.196 1.267-.239 1.846-.06.5.154.813.446.854.738zm-1.337.28c.498-.066.737-.31.552-.537-.141-.174-.494-.302-.885-.307a1.447 1.447 0 00-.694.098c-.335.148-.36.405-.078.573.252.151.712.225 1.105.173z" opacity=".69"/><path fill="#efe107" d="M47.97 21.451c-.042-.292-.354-.584-.854-.738-.58-.179-1.315-.136-1.846.061-.433.16-.76.407-.777.672-.02.33.508.635 1.128.768.565.12 1.268.095 1.761-.083.448-.162.625-.42.588-.68z"/><path fill="#f7e35b" d="M47.97 21.452c.037.259-.14.517-.587.679-.493.179-1.196.204-1.762.083-.62-.132-1.147-.438-1.127-.768.016-.264.344-.512.776-.672.53-.196 1.267-.24 1.846-.061.5.155.813.447.854.739zm-1.337.28c.498-.066.738-.311.553-.537-.142-.174-.495-.303-.886-.307a1.431 1.431 0 00-.693.098c-.336.148-.361.405-.08.573.254.15.713.225 1.106.173z" opacity=".69"/><path fill="#efe107" d="M35.783 21.06c-.042-.292-.354-.584-.854-.738-.58-.18-1.315-.136-1.846.06-.433.16-.76.408-.777.673-.02.329.508.635 1.128.768.565.12 1.268.095 1.761-.083.448-.162.625-.421.588-.68z"/><path fill="#f7e35b" d="M35.783 21.06c.037.259-.14.518-.587.68-.493.179-1.197.203-1.762.083-.62-.132-1.147-.44-1.127-.768.015-.264.344-.512.776-.672.53-.197 1.267-.24 1.846-.061.5.154.813.446.854.738zm-1.337.28c.498-.065.738-.31.553-.537-.142-.174-.495-.302-.886-.306a1.43 1.43 0 00-.693.098c-.336.147-.361.404-.08.572.254.152.713.225 1.106.173z" opacity=".69"/><path fill="#efe107" d="M58.446 11.045c-.042-.292-.354-.584-.854-.738-.58-.18-1.315-.136-1.847.06-.432.16-.76.409-.776.673-.02.329.508.636 1.127.768.566.12 1.27.095 1.762-.083.448-.162.625-.421.588-.68z"/><path fill="#f7e35b" d="M58.446 11.045c.037.259-.14.517-.587.68-.494.178-1.197.203-1.762.082-.62-.131-1.147-.438-1.127-.767.015-.264.344-.512.776-.673.53-.196 1.266-.24 1.846-.061.5.155.813.447.854.739zm-1.337.28c.498-.066.737-.311.552-.537-.141-.174-.494-.302-.885-.307a1.447 1.447 0 00-.694.098c-.335.148-.36.405-.078.573.252.15.712.225 1.105.173z" opacity=".69"/><path fill="#fdf6ce" d="M33.006 15.012c1.168 2.673-2.43 5.337-8.17 5.727-5.694.386-10.622-1.467-11.4-4.16-.48-1.659.613-3.408 3.558-4.405 2.514-.85 5.854-.893 8.767-.576 3.635.396 6.474 1.652 7.245 3.414zm-7.81 5.168c4.987-.5 7.94-3.003 6.533-5.319-1.878-3.09-12.48-4.284-16.12-1.292-1.18.97-1.506 2.152-1.038 3.246 1.012 2.36 5.645 3.864 10.625 3.365zM63.527 8.1a.486.486 0 00-.376.042c-.086.064-.08.145-.077.221.063 1.116-.81 2.243-2.422 3.054-1.61.811-3.946 1.291-6.289 1.267-2.342-.024-4.65-.56-6.095-1.439-1.004-.612-1.585-1.37-1.732-2.144-.148-.773.127-1.559.708-2.284.028-.036-.336-.058-.375-.06-.25-.016-.363-.013-.475.107-.644.685-.956 1.431-.86 2.181.072.585.381 1.164.928 1.69 1.273 1.224 3.812 2.134 6.636 2.37 2.825.235 5.866-.21 7.917-1.165 2.051-.956 3.055-2.398 2.596-3.747a.13.13 0 00-.084-.094z"/><path fill="#fdf6ce" d="M36.277 4.181c-.14.032-.168.136-.082.201.095.07.269.105.43.138 2.389.484 4.368 1.422 5.34 2.57.975 1.146.914 2.488-.216 3.602-1.13 1.114-3.324 1.976-5.847 2.265-1.754.201-3.625.13-5.327-.155-1.702-.285-3.236-.779-4.501-1.392-.063-.029-.277.136-.3.153-.15.114-.193.17.009.278 1.15.624 2.583 1.117 4.212 1.417a20.62 20.62 0 003.998.332c3.175-.049 6.263-.849 8.062-2.097 1.799-1.248 2.258-2.913 1.182-4.338-1.075-1.425-3.661-2.57-6.723-2.97a.775.775 0 00-.198-.01c-.014.001-.027.004-.04.006zm1.229 19.155c.096.047.292.03.383-.024.1-.06.113-.141.125-.216.184-1.114 1.302-2.19 3.082-2.916 1.78-.727 4.209-1.087 6.534-.945 2.324.14 4.5.789 5.744 1.736.864.658 1.274 1.443 1.25 2.219-.023.776-.47 1.544-1.207 2.236-.036.034.32.074.359.078.247.029.358.03.497-.083.79-.648 1.265-1.375 1.336-2.126.057-.584-.124-1.176-.551-1.726-.997-1.282-3.321-2.313-6.078-2.69-2.757-.375-5.88-.085-8.13.763-2.25.847-3.566 2.232-3.407 3.596.003.029.008.059.04.084l.023.014z"/><path fill="#8da9ae" d="M46.211 15.143a9.228 9.228 0 00-.286.07c-2.003.532-1.856 1.638-1.479 2.587.37.926 1.136 1.803 1.915 2.664.844.933 1.836 2.156 3.455 2.86.93.402 1.37-.779 1.458-.992.25-.594.43-1.194.541-1.797.268-1.446.243-2.979-.47-4.396-.607-1.205-2.889-1.508-5.134-.996z" opacity=".5"/><path fill="#f79821" d="M45.116 14.621a8.01 8.01 0 00-.286.07c-2.003.532-1.857 1.638-1.479 2.587.368.926 1.135 1.803 1.915 2.664.844.933 1.836 2.156 3.455 2.86.93.402 1.37-.779 1.458-.992.25-.594.43-1.194.541-1.797.267-1.446.243-2.979-.47-4.396-.607-1.205-2.889-1.508-5.134-.996z"/><path fill="#f9d0a7" d="M50.25 15.617c.713 1.417.737 2.95.47 4.395a8.746 8.746 0 01-.54 1.798c-.09.213-.53 1.393-1.459.99-1.619-.702-2.61-1.925-3.455-2.858-.78-.86-1.547-1.739-1.915-2.664-.378-.95-.524-2.056 1.48-2.587a8.01 8.01 0 01.285-.07c2.244-.512 4.527-.209 5.133.995zm-2.786 5.474c2 .471 1.498-4.125 1.137-4.923-.153-.34-.315-.947-1.135-1.244-.918-.332-2.386-.141-2.94.263-.666.484-.727 1.184-.567 1.738.234.812.744 1.6 1.335 2.368.478.622 1.194 1.569 2.17 1.799z"/><path fill="#f9a942" d="M45.319 15.27c-.62.406-.607.875-.61 1.36-.001.436-.123 1.058.54 1.394.153.078.4.067.5-.032.34-.34.07-.724.019-1.089-.067-.467-.22-1.016.189-1.458.169-.183-.39-.338-.638-.175zm.88 3.282c-.105-.215-.8-.178-.725.047.05.15.163.572.68.515.513-.057.109-.43.045-.562zm.435.94c-.083-.155-.538-.097-.444.059.132.217.232.43.572.593.045.02.146.019.15-.02.018-.224-.16-.416-.278-.632z"/><path fill="#6c4430" d="M45.715 12.748c.915.542.383 1.314-.732 1.695-1.178.402-2.896.18-3.439-.463-.345-.408-.176-.9.477-1.215.592-.285 1.481-.457 2.324-.383.52.046 1.034.168 1.37.366zm-1.233.83c.065-.14.013-.33-.327-.402a1.681 1.681 0 00-.71.02c-.358.106-.309.402-.152.548.134.124.45.16.74.097a.818.818 0 00.394-.187.29.29 0 00.055-.077zm-.478 6.577c.914.542.383 1.314-.732 1.695-1.18.402-2.896.179-3.44-.463-.344-.408-.175-.901.478-1.215.591-.285 1.48-.457 2.323-.383.52.045 1.034.168 1.37.366zm-1.233.829c.063-.14.012-.33-.328-.401a1.687 1.687 0 00-.711.019c-.357.107-.308.403-.15.549.133.124.448.16.737.097a.817.817 0 00.395-.187.273.273 0 00.057-.077z"/><path fill="#9fd738" d="M32.855 9.709c-.333-.167-1.007-.554-1.602-.503-.65.055-.57.508-.691.732-.506.935-2.096.066-3.063-.046-.524-.061-1.204.004-1.415.273-.167.213.096.426.334.599.172.126.546.307.55.467.01.437-1.253.248-1.723.259-1.414.034-1.694.852-.562 1.2.27.084.588.119.886.17.23.039.786.102.719.283.005-.014-.557.148-.544.144-.48.158-.91.397-.87.695.1.782 2.32.46 3.27.386 1.528-.12 2.654.047 3.719.576.798.397 1.587.768 2.59 1.05.606.169 1.377.34 2.09.218.404-.07.719-.224.764-.433.029-.137-.035-.274-.101-.407-.462-.953-.888-1.911-1.424-2.855-.572-1.007-1.394-2.04-2.927-2.808z"/><path fill="#b3df5c" d="M31.56 13.008c-1.213-.556-3.014-.655-4.572-.863-.102-.014-.159.048-.064.071.613.155 1.306.21 1.973.29 1.041.122 1.941.295 2.702.667.662.323 1.214.703 1.763 1.07.272.182.535.365.8.55.095.067.307.27.511.426-.14-.084-.282-.17-.335-.197-.248-.126-.495-.252-.752-.374-.627-.295-1.3-.573-2.05-.793a11.74 11.74 0 00-3.955-.45c-.104.005-.085.08.02.076 3.185-.129 5.642 1.002 7.578 2.058.05.027.128-.003.091-.032-1.04-.864-2.196-1.802-3.71-2.499zm1.26-.275c-1.432-.757-3.172-1.396-4.838-2.03-.066-.025-.14.023-.079.05 1.578.677 3.305 1.295 4.744 2.042 1.554.808 2.535 1.76 3.455 2.755.033.036.151.014.12-.022-.883-.98-1.889-1.995-3.402-2.795zm.125-1.676c-.055-.024-.155.01-.12.043.612.568 1.1 1.079 1.418 1.705.276.537.516 1.075.995 1.583.047.049.212.019.166-.032-.565-.617-.787-1.282-1.119-1.933-.245-.48-.564-1.02-1.34-1.366z"/><path fill="#8da9ae" d="M25.356 6.782a8.775 8.775 0 00-.309-.042c-2.224-.266-3.704.589-4.79 1.405-1.059.795-1.759 1.686-2.425 2.568-.723.956-1.753 2.172-1.58 3.212.1.596 2.115-.122 2.485-.248a42.717 42.717 0 002.973-1.134c2.27-.968 4.451-2.094 5.963-3.361 1.286-1.078.055-2.043-2.317-2.4z" opacity=".5"/><path fill="#f79821" d="M24.261 6.259c-.104-.016-.207-.029-.309-.042-2.224-.265-3.704.59-4.79 1.405-1.059.796-1.759 1.686-2.425 2.569-.723.955-1.753 2.171-1.58 3.211.1.597 2.114-.121 2.485-.247a42.219 42.219 0 002.973-1.135c2.27-.968 4.45-2.094 5.963-3.361 1.286-1.076.055-2.041-2.317-2.4z"/><path fill="#f9d0a7" d="M26.578 8.66c-1.513 1.266-3.695 2.392-5.963 3.36-.946.403-1.939.783-2.973 1.135-.37.126-2.386.844-2.485.247-.173-1.04.857-2.256 1.58-3.212.666-.882 1.366-1.773 2.425-2.568 1.086-.815 2.566-1.67 4.79-1.405.102.012.205.026.31.042 2.37.36 3.601 1.323 2.316 2.4zm-9.886 3.085c.783.996 7.01-2.52 7.892-3.22.376-.299 1.13-.795.958-1.279-.193-.542-1.538-.88-2.523-.767-1.179.136-2.228.627-2.906 1.083-.995.67-1.753 1.41-2.424 2.163-.543.61-1.379 1.534-.997 2.02z"/><path fill="#f9a942" d="M23.478 6.8c-1.034.093-1.697.44-2.396.792-.627.318-1.608.732-1.605 1.194 0 .106.195.18.41.14.735-.138 1.091-.506 1.575-.789.622-.363 1.298-.814 2.231-1.003.386-.078.2-.373-.215-.335zm-4.065 2.68c.232-.191-.328-.391-.597-.202-.18.126-.701.47-.242.598.456.125.696-.278.839-.396zm-1.031.828c.16-.14-.253-.247-.408-.102-.216.2-.448.39-.434.62.002.03.079.06.136.034.336-.158.48-.356.706-.552z"/><path fill="#6c4430" d="M26.682 12.88c.915.54.383 1.313-.732 1.694-1.178.402-2.896.18-3.44-.463-.344-.408-.175-.9.478-1.214.592-.285 1.48-.458 2.324-.384.52.046 1.034.168 1.37.367zm-1.233.828c.065-.14.013-.33-.327-.401a1.681 1.681 0 00-.711.019c-.357.107-.308.403-.151.549.134.124.45.16.739.097a.818.818 0 00.395-.187.29.29 0 00.055-.077zm11.121 3.708c.913.541.382 1.313-.733 1.694-1.179.402-2.896.18-3.439-.463-.345-.408-.176-.9.477-1.214.592-.286 1.48-.458 2.324-.384.52.046 1.034.168 1.37.367zm-1.234.828c.064-.139.013-.33-.327-.4a1.687 1.687 0 00-.712.018c-.356.107-.307.403-.15.55.134.123.45.16.738.096.181-.04.318-.109.395-.187a.273.273 0 00.056-.077zM49.578 7.69c.915.542.383 1.313-.732 1.694-1.178.403-2.896.18-3.44-.462-.344-.41-.175-.901.478-1.215.592-.285 1.48-.458 2.324-.384.52.046 1.034.168 1.37.367zm-1.233.828c.065-.14.013-.33-.327-.401a1.698 1.698 0 00-.711.019c-.357.107-.308.403-.151.549.134.125.45.16.739.097.18-.04.317-.108.395-.187a.29.29 0 00.055-.077z"/></svg>