<svg xmlns="http://www.w3.org/2000/svg" width="80" height="44"><path fill="#c4c9a7" d="M79.436 26.407c0 9.582-16.873 17.35-37.686 17.35-20.812 0-37.684-7.767-37.684-17.35 0-9.582 16.872-17.35 37.684-17.35 20.814 0 37.686 7.768 37.686 17.35z" opacity=".5"/><path fill="#fff" d="M75.926 24.196c0 9.583-16.872 17.35-37.685 17.35-20.813 0-37.685-7.767-37.685-17.35 0-9.582 16.872-17.35 37.685-17.35 20.813 0 37.685 7.768 37.685 17.35z"/><path fill="#eaebdd" d="M66.136 24.196c0 7.093-12.49 12.842-27.895 12.842-15.406 0-27.894-5.749-27.894-12.842 0-7.092 12.488-12.842 27.894-12.842 15.406 0 27.895 5.75 27.895 12.842z"/><path fill="#eaebdd" d="M13.117 25.6c0-7.093 12.49-12.843 27.895-12.843 7.441 0 14.196 1.344 19.198 3.53-5.107-3.002-13.045-4.934-21.969-4.934-15.406 0-27.895 5.75-27.895 12.843 0 3.667 3.343 6.972 8.697 9.312-3.709-2.18-5.926-4.925-5.926-7.909z"/><path fill="#872328" d="M50.148 9.945l-.136-.068c-2.488-1.23-5.98-1.69-9.07-1.202-3.146.5-4.57 2.06-5.123 3.931-.438 1.481-.915 3.193-3.03 3.942-1.754.62-3.89.326-5.748.725-1.814.39-3.507 1.368-3.662 2.603-.264 2.115 4.14 3.757 2.797 5.912-.88 1.414-3.963 1.7-5.62 2.816-1.952 1.314-1.4 3.491.306 4.93 2.394 2.02 6.817 3.035 10.768 2.471 1.717-.246 3.354-.76 5.116-.783 2.534-.032 4.768.945 7.148 1.483 2.243.508 4.757.625 7.03.172 2.274-.453 4.266-1.51 5.101-2.89.68-1.127.607-2.428 1.662-3.438 1.26-1.205 3.715-1.64 5.726-2.36 3.648-1.305 6.083-3.833 6.121-6.434.04-2.602-2.353-5.176-6.047-6.43-2.59-.88-5.692-1.135-8.105-2.19-2.005-.876-3.343-2.223-5.234-3.19z"/><path fill="#a4524b" d="M37.855 11.594c-.353 0-.354.338 0 .338.352 0 .353-.339 0-.339zm-11.828 6.483c-1.069.302-2.558 1.452-1.462 2.137.075.048.234.043.284-.023.221-.29.2-.593.373-.892.211-.364.6-.674 1.133-.876.362-.138.047-.45-.328-.346zm-3.209 10.159c-.854.146-1.549.436-2.027.899-.359.348-.847.98-.348 1.348.062.045.215.048.275 0 .374-.297.308-.748.606-1.088.36-.411.95-.76 1.633-.955.19-.054.054-.237-.139-.204zm-2.255 2.628c-.364 0-.365.35 0 .35.364 0 .364-.35 0-.35zm4.562-9.909c-.099-.272-.789-.157-.68.116.048.12.083.238.18.348a.287.287 0 00.155.086c-.017.01-.018.029.013.029.025 0 .027-.015.018-.025.183.028.405-.054.413-.19.006-.124-.055-.244-.099-.364zm28.429 14.023c-.812.31-1.357.791-2.247 1.058-1.13.34-2.371.425-3.598.275-.285-.034-.408.231-.121.271 1.277.176 2.565.121 3.775-.197.915-.24 2.122-.678 2.395-1.31.03-.07-.1-.137-.204-.097zm.941-.815c-.13.087-.248.182-.386.266-.31.19.221.464.49.232.15-.13.232-.257.212-.417-.01-.093-.2-.159-.316-.08zm12.31-8.97c-.223.105-.312.221-.47.367a4.443 4.443 0 01-.784.55c-.542.315-1.118.605-1.761.84-.394.144-.036.525.362.38.695-.254 1.34-.554 1.842-.947.374-.29.992-.73 1.034-1.11.007-.065-.135-.122-.223-.08zm1.106-1.286c-.454 0-.455.435 0 .435.453 0 .454-.435 0-.435zM42.66 35.362c-.137-.033-.277-.047-.42-.065-.394-.05-.539.286-.165.37.137.03.27.065.412.081.157.019.274-.013.366-.091.037-.031.05-.064.044-.101-.01-.097-.095-.158-.238-.193z"/><path fill="#d6d8bf" d="M11.077 27.571c.607.811 1.94 1.137 3.3 1.219.791.048 1.62.031 2.337-.183.94-.281 1.57-.88 1.753-1.514.011-.041.021-.083.03-.124.275-1.331-1.093-2.879-3.425-2.98-2.7-.117-5.132 2.064-3.995 3.582z"/><path fill="#e11e25" d="M18.116 26.563c-.009.042-.02.083-.03.124-.183.634-.814 1.233-1.753 1.514-.717.213-1.546.231-2.337.183-1.36-.082-2.692-.408-3.3-1.219-1.137-1.518 1.293-3.699 3.995-3.582 2.332.101 3.7 1.648 3.425 2.98z"/><path fill="#ead9bb" d="M10.696 27.165c-1.136-1.517 1.293-3.699 3.995-3.582 2.332.101 3.7 1.648 3.425 2.98a1.728 1.728 0 01-.031.124c-.182.634-.813 1.233-1.752 1.514-.717.213-1.546.231-2.337.183-1.36-.083-2.692-.408-3.3-1.219zm1.347-2.288c-.819.892-.07 1.93 1.463 2.238 1.468.296 3.385-.159 3.728-1.163.131-.38-.019-.806-.313-1.145-.614-.709-2.417-.87-3.549-.615-.558.125-1.035.366-1.329.685z"/><path fill="#ea604e" d="M14.955 24.575c.495-.22 1.135.011 1.438.27.321.271.491.681.048.945-.247.147-.667.22-.98.1-.239-.092-.403-.209-.482-.376-.018-.038-.03-.075-.05-.112-.007 0-.04-.03-.062-.05-.016-.018-.164-.209-.087-.107-.052-.069-.11-.13-.132-.208-.052-.185.058-.35.307-.462z"/><path fill="#d6d8bf" d="M22.973 20.511c-.292-.701-1.09-1.28-1.955-1.768-.14-.078-.287-.162-.331-.275-.036-.096.01-.196.054-.291.428-.942.559-2.252-.547-3.057l.002-.001-.025-.015c-.028-.02-.053-.041-.083-.06-.041-.027-.085-.049-.128-.073l-.05-.027c-.031-.017-.063-.036-.097-.052-.05-.027-.098-.054-.151-.079-1.242-.583-2.35-.331-3.704-.483-.896-.1-1.303-.5-2.141-.666-.931-.184-2.08-.025-3.026.226.61.351 1.602.268 2.518.072-.062.526.24 1.025.775 1.42a.228.228 0 00-.017.127c.03.183.285.321.378.496.207.391-.417.738-.88 1.035-.861.556-1.325 1.339-1.248 2.107.076.767.693 1.509 1.659 1.995.426.214.935.396 1.163.704a.735.735 0 01.094.188 4.81 4.81 0 00-.537.002 5.537 5.537 0 00-.994.176c-.97.247-1.894.6-2.542 1.109-.381.298-.667.648-1.14.892-.28.143-.61.241-.902.374-.5.226-.864.54-1.165.87-.366.402-.262.544.274.861.815.482 1.956.758 3.088.721a8.189 8.189 0 001.299-.154c1.439-.282 2.806-.929 3.134-1.839.027-.074.052-.156.146-.205a.781.781 0 01.27-.06c1.455-.149 3.235-.411 4.463-.914 1.082-.442 1.885-1.012 2.165-1.759.302-.516.4-1.069.18-1.597z"/><path fill="#e11e25" d="M25.548 4.123c.052.027.103.055.15.084.759.443 1.223 1.098 1.085 1.736-.104.487-.537.924-1.038 1.305-.86.655-2.034 1.162-3.466 1.028-2.678-.25-4.293-2.702-2.648-4.03 1.42-1.145 4.268-.998 5.917-.123z"/><path fill="#ead9bb" d="M22.279 8.277c-2.678-.25-4.293-2.703-2.648-4.03 1.42-1.146 4.268-.998 5.917-.124.052.028.103.055.15.084.759.443 1.223 1.098 1.085 1.736-.104.487-.537.924-1.038 1.305-.86.654-2.034 1.161-3.466 1.028zm-2.354-1.953c.755.913 2.57 1.098 3.834.478 1.208-.593 1.647-1.831.478-2.561-.444-.276-1.101-.434-1.722-.47-1.3-.072-2.508.768-2.786 1.49-.137.356-.075.735.196 1.062z"/><path fill="#ea604e" d="M21.12 4.657c-.027-.377.638-.579 1.154-.593.545-.015 1.194.123 1.307.495.063.21-.069.465-.405.561a1.63 1.63 0 01-.774.041c-.06-.011-.118-.025-.179-.034-.003.003-.063.004-.102.003-.033-.001-.373-.03-.19-.014-.124-.011-.24-.015-.355-.046-.28-.076-.444-.224-.457-.413z"/><path fill="#d6d8bf" d="M20.632 15.535c.49.115.836.385 1.269.568 1.35.573 3.333.16 4.335-.641.178-.142.336-.296.556-.414.906-.49 2.412-.188 3.43-.583.747-.29 1.03-.876 1.089-1.42.134-1.26-.677-2.548-2.158-3.422a3.852 3.852 0 00-1.288-.507c-1.172-.214-2.37.22-3.574.35-.453.048-.93.056-1.338.188-.625.202-.933.647-1.093 1.07-.162.425-.23.874-.577 1.253-.458.502-1.33.805-1.892 1.264-.631.516-.964 1.342-.828 1.986.173.82 1.158.094 2.069.308z"/><path fill="#bbe26b" d="M26.741 10.036c-.004-.014 0-.027-.008-.042-.576-1.111-1.21-2.534-2.275-3.5-.677-.612-1.676-.692-2.85-.756-1.049-.058-2.018-.071-2.845.354-1.413.728-2.5 2.069-3.5 3.014l-.005.005-.005.003c-.2.149.224.372.377.449.258.133.536.236.826.328.018.062.124.096.22.07.025.007.047.016.073.023.2.053.433-.098.281-.212-.012-.01-.026-.016-.039-.026.46-.358.855-.75 1.295-1.118.18-.15 1.457-1.317 1.66-1.271.393.09.174 1.565.182 1.844.012.504-.07 1.016.01 1.517-.207.019-.378.073-.345.223.12.552 2.467.123 2.796-.14.128-.103.035-.23-.152-.265.4-.702.617-2.166.773-2.89.22.279.728 1.26.95 1.537.295.37.316 1.005.748 1.323.49.36 1.454.025 1.843-.258.094-.068.067-.153-.01-.212z"/><path fill="#55ae44" d="M31.22 11.93c-.107-1.709-3.072-3.327-5.781-2.424-.568-.49-1.764-.697-2.748-.58-.595.07-1.31.33-1.847.673-.873-.787-2.858-.937-4.32-.536-.658-1.019-2.746-1.459-4.374-.77-.982.416-1.594 1.2-1.575 1.931.012.53.462.933 1.085 1.247-1.053.457-1.76 1.246-1.265 2.043.472.766 1.756.696 2.914.447-.125 1.064 1.235 2.023 3.018 2.215 1.465.158 3.433-.429 4.123-1.313.87.841 2.207 1.515 3.94 1.154 1.322-.275 2.298-1.228 2.177-2.097.762.31 1.714.4 2.673.217 1.513-.289 2.038-1.32 1.98-2.208z"/><path fill="#89c570" d="M21.782 13.892c.533.234 1.125.457 1.8.333.514-.093.975-.389.737-.73-.082-.12-.32-.11-.46-.048-.21.095-.376.227-.64.268-.382.06-.787-.029-1.128-.126-.332-.094-.622.166-.309.303zm6.258-1.646c.11-.078.23-.154.265-.259.023-.075-.025-.17-.166-.19a1.32 1.32 0 00-.465.03c-.688.141-.025.692.365.42zm-12.95 1.439c.892.48 2.268.123 2.839-.424.296-.284-.416-.558-.72-.28-.187.174-.45.303-.781.354-.356.055-.697-.021-1.053-.041-.306-.017-.526.26-.284.39zm4.343-2.033c.395.174.837.352 1.343.34.376-.006 1.004-.132.956-.428-.014-.09-.086-.183-.243-.207-.28-.042-.51.067-.79.069-.34.002-.666-.088-.975-.17-.387-.101-.6.26-.291.396zm-6.121.281c.409.152.808-.25.392-.385-.22-.071-.71-.348-.946-.151-.257.216.322.45.554.536zm-.272-1.89c.216.247.555.458.992.55.364.075.973.08 1.169-.172.068-.086.061-.165-.036-.24-.172-.134-.48-.165-.722-.232-.237-.066-.425-.138-.587-.267-.355-.285-1.085.056-.816.361zM24.196 11.5c.27-.03.534-.083.692-.228.138-.125-.026-.292-.259-.298-.182-.004-.335.046-.514.056-.554.03-.47.531.081.47z"/><path fill="#d7eea6" d="M29.294 9.735c.34.37.53.792.515 1.218-.026.714-.641 1.417-1.625 1.792-.985.375-2.313.392-3.293.013.395.727-.473 1.608-1.701 1.726-1.155.11-2.225-.363-3.126-.822-.902.557-2.272.809-3.521.645-1.248-.163-2.335-.737-2.791-1.472.07.113-1.181.39-1.317.41a5.842 5.842 0 01-1.524.033c-.166-.02-.41-.091-.655-.147.02.127.059.255.139.384.472.765 1.755.696 2.914.447-.125 1.064 1.235 2.023 3.018 2.215 1.465.158 3.433-.43 4.123-1.314.87.842 2.206 1.516 3.94 1.155 1.323-.276 2.298-1.228 2.176-2.097.763.31 1.714.4 2.673.217 1.514-.29 2.038-1.321 1.982-2.208-.055-.857-.827-1.69-1.927-2.195z"/><path fill="#bbe26b" d="M14.269 24.505c.023 0 .043.005.068.003 1.877-.136 4.263-.25 6-.71 1.106-.293 1.423-.883 1.75-1.583.29-.623.498-1.208-.021-1.79-.888-.994-2.816-1.909-4.128-2.695l-.007-.003c-.002 0-.002-.003-.003-.004-.2-.149-.635.065-.788.142a4.07 4.07 0 00-.68.44c-.1-.002-.174.055-.152.118-.016.014-.035.026-.051.04-.123.111.075.282.283.211.018-.005.033-.013.049-.019.484.347 1.032.662 1.534.998.202.136 1.817 1.134 1.705 1.248-.22.22-2.523-.193-2.968-.242-.805-.089-1.603-.236-2.416-.284.008-.128-.045-.242-.29-.25-.9-.033-.665 1.47-.31 1.72.14.097.36.065.45-.042 1.04.375 3.329.787 4.452 1.02-.486.08-2.144.2-2.628.282-.645.108-1.66 0-2.246.2-.666.228-.318.876.058 1.165.09.07.232.071.339.035z"/><path fill="#55ae44" d="M10.402 26.857c2.737.26 5.877-1.227 4.958-3.04.89-.25 1.444-.936 1.446-1.554.002-.373-.274-.855-.718-1.246 1.418-.379 2.035-1.553 1.676-2.514 1.746-.205 2.846-1.386 2.06-2.503-.475-.674-1.604-1.194-2.772-1.322a3.792 3.792 0 00-2.19.42c-.526-.726-1.647-1.304-3.01-1.157-1.308.141-1.443.931-1.267 1.68-1.669-.279-3.454.362-4.1 1.406-.53.856.027 2.16 1.303 2.747-1.506.367-2.83 1.047-2.588 2.166.186.854 1.515 1.625 2.921 1.718-.639.403-.963.962-.856 1.578.171.971 1.713 1.486 3.137 1.621z"/><path fill="#d7eea6" d="M14.905 15.077c.991.134 2.033.406 2.63.938.514.459.618 1.053.141 1.54-.51.522-1.415.89-2.393.975.76.334.97 1.015.652 1.556-.316.542-1.057.953-1.872 1.233.616.334.96.852.9 1.357-.06.505-.523.985-1.212 1.26.4.32.303.782.054 1.155-.619.93-2.115 1.598-3.722 1.725.106.014.213.03.32.04 2.736.26 5.876-1.226 4.957-3.04.89-.25 1.444-.934 1.446-1.552.002-.374-.274-.856-.718-1.247 1.42-.38 2.035-1.553 1.676-2.514 1.746-.205 2.846-1.385 2.06-2.503-.475-.673-1.604-1.194-2.772-1.322a3.778 3.778 0 00-2.147.399z"/><path fill="#89c570" d="M7.594 20.85c-.474.277-.94.593-.874 1.026.052.33.434.664 1.024.586.204-.028.236-.174.162-.27-.112-.146-.29-.27-.304-.44-.022-.242.196-.47.416-.658.213-.183-.146-.409-.424-.245zm1.426 4.102c.104.083.2.17.36.21.117.03.279.02.334-.064.068-.097.064-.183.042-.287-.092-.443-1.096-.147-.736.141zm.18-8.115c-.934.448-.628 1.349.134 1.799.396.234.967-.145.581-.382-.239-.146-.396-.33-.413-.541-.019-.226.167-.418.265-.63.086-.182-.312-.368-.567-.246zm2.407 3.017c-.353.206-.719.44-.8.748-.059.229.022.634.501.66.146.01.308-.016.376-.107.12-.16-.01-.321.041-.49.062-.208.268-.388.455-.56.236-.214-.299-.411-.573-.251zm.72-3.761c-.32.219.245.537.537.311.155-.12.69-.364.421-.544-.294-.197-.776.109-.958.233zm3.059.196c-.434.084-.834.249-1.062.496-.192.207-.316.574.048.74.124.058.25.069.389.025.246-.08.354-.26.507-.393.149-.131.3-.232.536-.305.522-.161.119-.667-.418-.563zm-4.445 6.479c-.003.17.027.34.228.462.173.107.47.04.524-.1.042-.109-.01-.212.01-.322.06-.34-.755-.386-.762-.04z"/><path fill="#d6d8bf" d="M44.861 6.184c-.132-.25-.417-.456-.696-.655-.529-.377-1.078-.764-1.806-.982-.905-.27-1.968-.243-2.962-.144-.993.1-1.98.264-2.986.247-.842-.014-1.686-.155-2.519-.075-1.282.125-2.267.74-3.402 1.13a9.506 9.506 0 01-2.896.483c-.333.005-.679-.005-.98.082a1.47 1.47 0 00-.673.436 2.542 2.542 0 00-.53.904 6.307 6.307 0 00-.953-1.115c-.393-.356-.896-.529-1.477-.627.05 1.827 2.577 3.267 5.433 3.412.266.014.547.026.771.115.171.068.292.174.41.276a25.504 25.504 0 001.876 1.48c.34.243.7.487 1.162.634.734.233 1.607.19 2.428.141.795-.047 1.661-.115 2.22-.467.345-.217.52-.513.7-.796a13.353 13.353 0 012.077-2.488c.528.364 1.428.46 2.188.325a4.446 4.446 0 001.894-.844c.551-.413.988-.963.721-1.472z"/><path fill="#bbe26b" d="M29.083 7.916c.009.013.01.026.021.04.923 1.018 2.004 2.335 3.359 3.149.861.518 1.866.474 3.038.393 1.045-.073 2.001-.18 2.673-.697 1.15-.886 1.783-2.335 2.459-3.384.002-.001.001-.003.002-.005l.005-.003c.146-.17-.341-.337-.515-.394a6.336 6.336 0 00-.916-.22c-.038-.058-.152-.08-.237-.042-.028-.004-.052-.01-.08-.013-.212-.028-.393.15-.207.24.015.009.031.015.046.022-.334.408-.595.84-.908 1.255-.127.168-1.003 1.47-1.216 1.45-.415-.041-.675-1.512-.773-1.785-.175-.492-.259-1.004-.499-1.485.195-.044.346-.118.266-.262-.296-.525-2.457.183-2.695.482-.093.116.039.229.234.24-.164.737.093 2.199.174 2.928-.304-.247-1.12-1.145-1.426-1.39-.409-.327-.635-.946-1.159-1.205-.596-.292-1.434.155-1.723.479-.07.079-.018.159.077.207z"/><path fill="#55ae44" d="M24.083 6.61c.656 1.66 4.084 2.882 6.448 1.665.715.412 1.953.466 2.88.23a3.753 3.753 0 001.592-.886c1.11.664 3.104.567 4.407-.005.974.918 3.162 1.093 4.535.218.828-.528 1.175-1.371.921-2.086-.183-.518-.755-.858-1.467-1.09.886-.576 1.323-1.435.581-2.157-.71-.691-1.945-.466-3-.08-.22-1.058-1.863-1.83-3.672-1.8-1.487.026-3.225.842-3.617 1.794-1.125-.718-2.651-1.214-4.233-.647-1.207.432-1.855 1.485-1.457 2.322a4.865 4.865 0 00-2.689.115c-1.39.469-1.571 1.545-1.229 2.408z"/><path fill="#d7eea6" d="M43.448 4.674c.177.616.168 1.315-.4 1.858-.492.468-1.34.755-2.252.67-.978-.092-1.874-.467-2.375-.992-.21.56-1.15.94-2.082.966-.932.027-1.83-.238-2.563-.596-.265.48-.908.873-1.687 1.032-.78.16-1.676.08-2.352-.209-.324.351-1.054.472-1.708.473-1.63.002-3.203-.595-4.007-1.463.02.066.035.133.061.198.656 1.66 4.084 2.881 6.448 1.664.715.411 1.953.466 2.88.231a3.78 3.78 0 001.592-.887c1.11.664 3.104.567 4.407-.006.974.918 3.162 1.094 4.535.218.828-.528 1.175-1.37.921-2.085-.18-.506-.73-.84-1.418-1.072z"/><path fill="#89c570" d="M32.007 2.713c-.6-.164-1.25-.31-1.872-.105-.474.154-.83.5-.486.807.119.107.35.068.465-.01.177-.12.295-.27.542-.342.356-.105.78-.068 1.146-.015.356.052.556-.24.205-.335zm-5.601 2.381c-.084.091-.178.18-.177.287.001.077.08.164.224.165.172.001.298-.034.446-.086.63-.222-.2-.681-.493-.366zM38.63 2.095c-1.026-.362-2.26.157-2.643.763-.2.316.587.497.794.186.129-.192.344-.351.653-.442.33-.097.69-.065 1.045-.09.306-.02.432-.318.152-.417zM35.032 4.62c-.442-.123-.934-.242-1.426-.17-.366.053-.94.254-.799.538.043.087.144.17.305.174.288.006.48-.129.751-.165.334-.044.683.004 1.011.046.412.052.503-.328.158-.423zm5.908-1.027c-.45-.099-.71.345-.26.425.24.042.808.254.975.032.182-.243-.46-.401-.715-.457zm.876 1.818a2.25 2.25 0 00-1.149-.417c-.383-.029-.98.041-1.092.312-.038.093-.005.168.114.23.211.111.523.104.781.14.254.035.462.083.661.19.442.235 1.046-.189.685-.455zm-11.403-.056c-.255.062-.497.146-.605.307-.095.14.12.283.35.26.18-.018.314-.087.485-.118.534-.095.291-.577-.23-.45z"/><path fill="#d6d8bf" d="M32.546 9.181c2.677.256 4.26 2.717 2.604 4.04-.884.707-2.301.842-3.657.736-.79-.062-1.59-.193-2.211-.5-.815-.4-1.214-1.073-1.164-1.716.004-.042.009-.083.015-.125.212-1.335 2.104-2.657 4.413-2.435zm-.117 3.606c1.606-.09 2.71-1 2.233-1.98-.17-.353-.55-.652-1.048-.852-1.012-.403-2.828-.494-3.683.113-.408.29-.708.684-.718 1.073-.026 1.027 1.679 1.733 3.216 1.646z"/><path fill="#e11e25" d="M27.995 11.149a1.331 1.331 0 00-.015.125c-.05.643.35 1.314 1.165 1.716.622.306 1.424.437 2.213.498 1.356.105 2.773-.03 3.656-.738 1.653-1.325.067-3.784-2.61-4.04-2.31-.22-4.2 1.103-4.409 2.439z"/><path fill="#ead9bb" d="M32.404 8.71c2.677.255 4.263 2.715 2.61 4.04-.883.707-2.3.843-3.656.737-.789-.06-1.59-.19-2.212-.498-.816-.4-1.216-1.072-1.166-1.716a1.31 1.31 0 01.015-.124c.209-1.336 2.099-2.659 4.409-2.439zm-.112 3.607c1.605-.092 2.709-1 2.23-1.983-.171-.35-.551-.65-1.049-.849-1.013-.404-2.828-.494-3.683.114-.408.291-.707.685-.717 1.074-.024 1.026 1.682 1.732 3.219 1.644z"/><path fill="#ea604e" d="M31.791 9.642c-.404-.283-1.111-.145-1.5.065-.41.222-.723.6-.386.916.188.178.571.306.921.231.266-.056.467-.147.604-.3.031-.035.056-.069.09-.102a.466.466 0 00.078-.04c.022-.016.235-.182.123-.093.075-.06.154-.113.203-.184.118-.174.07-.35-.133-.493z"/><path fill="#d6d8bf" d="M19.707 19.94c-2.659-.322-4.098-2.816-2.36-4.098 1.5-1.106 4.335-.881 5.921.037.05.029.098.058.145.088.726.463 1.142 1.13.96 1.764-.14.483-.604.908-1.13 1.275-.906.631-2.116 1.106-3.536.934zm-2.214-2.015c.69.933 2.491 1.167 3.796.582 1.25-.56 1.777-1.785.661-2.545-.424-.289-1.07-.464-1.687-.516-1.292-.109-2.56.698-2.89 1.413-.162.352-.127.732.12 1.066z"/><path fill="#e11e25" d="M22.622 15.651c.05.03.098.058.145.088.725.463 1.142 1.13.96 1.764-.14.483-.604.908-1.13 1.275-.907.631-2.117 1.106-3.537.934-2.659-.322-4.097-2.816-2.359-4.098 1.5-1.106 4.334-.88 5.921.037z"/><path fill="#ead9bb" d="M19.06 19.712c-2.658-.322-4.097-2.816-2.36-4.098 1.5-1.106 4.335-.881 5.922.037.049.029.098.058.145.088.726.463 1.142 1.13.959 1.764-.14.483-.603.908-1.13 1.276-.905.63-2.115 1.105-3.535.933zm-2.213-2.015c.689.933 2.49 1.167 3.796.582 1.25-.56 1.777-1.785.66-2.545-.423-.289-1.07-.464-1.686-.516-1.292-.109-2.561.698-2.89 1.414-.162.351-.127.731.12 1.065z"/><path fill="#ea604e" d="M18.16 16.065c0-.377.678-.56 1.195-.562.546 0 1.184.156 1.27.531.05.21-.102.463-.445.55a1.65 1.65 0 01-.775.02c-.06-.014-.116-.03-.177-.04a.747.747 0 01-.102 0c-.032-.002-.37-.04-.19-.019-.122-.014-.238-.022-.35-.056-.275-.082-.428-.235-.427-.424z"/><path fill="#d6d8bf" d="M64.153 12.112c-3.596-2.805-10.84-3.804-16.235-2.703-7.074 1.445-12.374 6.059-14.274 10.337-1.098 2.475-.979 5.075-.517 7.602.08.434.14.847.287 1.246-2.004 1.732-4.17 3.399-7.308 4.4-1.945.62-5.785.433-7.104 1.639-.774.706-.425 1.656.531 2.231 1.157.697 2.75.625 4.141.308-.386 1.154.656 2.389 2.902 2.326 1.117-.031 2.075-.411 2.598-1.018 1.046-1.214.077-2.336 1.748-3.473 1.346-.916 2.982-1.793 4.556-2.634.053.196 1.03.23 1.416.26 2.277.182 4.3.114 6.573-.073a58.537 58.537 0 0013.058-2.627c5.512-1.796 9.552-4.477 10.86-8.307 1.113-3.262.165-6.864-3.232-9.514z"/><path fill="#e9d6b7" d="M38.047 28.82c-.225-1.122-2.904-3.209-4.874-2.345-.236.104-.204.283-.048.378-2.246 1.976-4.56 3.977-8.127 5.115-1.945.621-5.785.434-7.104 1.64-.774.705-.425 1.655.53 2.231 1.158.697 2.75.624 4.143.308-.387 1.153.655 2.388 2.9 2.326 1.118-.03 2.076-.412 2.6-1.019 1.045-1.214.076-2.336 1.747-3.473 1.759-1.198 4.015-2.329 5.98-3.399 1.089-.592 2.447-.789 2.253-1.763z"/><path fill="#bc4d20" d="M32.536 18.72c1.9-4.277 7.2-8.892 14.273-10.336 5.395-1.102 12.64-.102 16.236 2.702 3.397 2.65 4.345 6.253 3.231 9.514-1.307 3.83-5.347 6.512-10.859 8.307a58.425 58.425 0 01-13.058 2.627c-2.273.187-4.297.255-6.573.074-.409-.033-1.495-.067-1.428-.295.167-.566-.003-1.221-.42-1.748-.28-.355-.665-.671-1-1.006-.698-.7-.772-1.432-.92-2.236-.46-2.528-.58-5.128.518-7.602z"/><path fill="#ead9bb" d="M63.045 11.086c3.398 2.651 4.345 6.252 3.232 9.513-1.308 3.83-5.348 6.513-10.86 8.307a58.36 58.36 0 01-13.057 2.628c-2.274.187-4.297.255-6.574.074-.41-.032-1.495-.066-1.427-.295.167-.566-.003-1.221-.42-1.747-.281-.355-.665-.671-1-1.006-.7-.7-.773-1.433-.92-2.237-.462-2.528-.581-5.128.517-7.603 1.9-4.278 7.2-8.892 14.274-10.337 5.394-1.102 12.639-.102 16.235 2.703zM60.09 15.3c.854-2.125-.296-3.68-2.455-4.909C51.92 8.388 45.94 9.206 41.01 11.646c-1.375.68-2.595 1.484-3.483 2.428-.877.933-1.41 1.97-1.876 3.01-.412.913-.773 1.85-.97 2.793.035 1.32.827 2.709 2.698 3.403 1.853.687 4.344.532 6.367.304a31.43 31.43 0 009.374-2.575c3.086-1.393 6.025-3.363 6.969-5.709z"/><path fill="#d0ad72" d="M66.707 17.577v.033"/><path fill="#ead9bb" d="M34.233 30.05c-.54.135-.995.382-1.426.63l-4.036 2.322c-.29.167-.586.338-.782.55-.679.736.015 1.7-.448 2.495-.393.675-1.684 1.096-2.81.917-1.125-.18-1.922-.935-1.734-1.643-1.274.4-2.896.458-4.09-.026-.542-.219-.948-.56-1.156-.938a.843.843 0 01-.094-.478c-.442.663-.07 1.455.767 1.96 1.158.696 2.75.624 4.142.307-.387 1.154.655 2.388 2.901 2.326 1.118-.03 2.076-.41 2.6-1.019 1.045-1.213.075-2.336 1.746-3.473 1.347-.916 2.983-1.793 4.557-2.633-.003-.012-.015-.022-.012-.035.12-.402.064-.848-.125-1.262z"/><path fill="#dabd8c" d="M66.62 19.198c.011-.072.02-.145.03-.217a7.85 7.85 0 00.05-.528l.01-.176a7.418 7.418 0 00-.003-.667v-.033a7.742 7.742 0 00-.23-1.504v-.001a7.494 7.494 0 00-.223-.727l-.013-.036a8.122 8.122 0 00-.299-.714c.013.072.03.144.038.215.426 3.252-2.512 6.323-6.02 8.763-2.967 2.062-6.453 3.875-10.473 5.081-4.019 1.206-8.598 1.782-13.018 1.372-.667-.062-1.358-.145-2.007-.033-.08.015-.153.038-.229.058.19.414.244.86.125 1.262-.003.012.01.023.012.034.053.196 1.03.23 1.416.261 2.276.181 4.3.113 6.573-.074a58.425 58.425 0 0013.058-2.627c5.512-1.795 9.552-4.477 10.86-8.307a8.73 8.73 0 00.2-.691c.017-.068.03-.136.044-.204.038-.168.072-.338.098-.507z"/><path fill="#f2e7d3" d="M23.348 32.906c-.614-.297-1.64-.094-2.326.024-.82.141-1.575.376-2.092.802-.232.191.224.464.533.329a7.237 7.237 0 012.05-.576c.582-.075 1.415-.016 1.835-.314.098-.07.136-.199 0-.265zm1.217-.134a2.975 2.975 0 00-.542.004c-.52.04-.324.503.164.374.17-.045.33-.089.47-.164.114-.059.057-.197-.092-.214zm4.44-1.972c-.352.16-.65.396-.964.585-.363.22-.77.429-1.184.611-.17.075-.027.222.162.171a5.846 5.846 0 001.335-.529c.336-.188.732-.465.86-.738.032-.069-.106-.147-.21-.1zm1.6-1.018l-.398.158c-.322.128.112.397.32.197l.256-.246c.07-.067-.07-.152-.178-.109z"/><path fill="#cf7e50" d="M53.734 8.489c-.872-.236-1.785-.284-2.732-.302-.917-.018-1.895-.036-2.695.269-.147.056-.117.193.047.224.795.151 1.627.069 2.447.074.93.006 1.853.108 2.783.078.266-.008.443-.264.15-.343zm-6.991.327c-.4 0-.402.385 0 .385.401 0 .401-.385 0-.385zm-4.696 1.609a7.233 7.233 0 00-1.204.423c-.32.147-.703.318-.776.575-.03.1.097.196.27.168.388-.063.65-.27.962-.415a7.05 7.05 0 011.094-.387c.404-.11.053-.468-.346-.364zm-7.613 6.49c-.731 1.09-1.398 2.397-.925 3.58.047.117.336.116.384 0 .48-1.159.554-2.325 1.234-3.462.162-.272-.52-.375-.693-.118z"/><path fill="#872328" d="M54.122 23.432c-2.095-1.159-5.07-1.818-7.634-2.494a96.987 96.987 0 00-8.207-1.777c-.4-.07-.555.296-.17.38 2.98.654 5.942 1.351 8.826 2.151 2.304.638 4.521 1.561 6.945 1.994.23.041.426-.15.24-.254zm5.352-2.554c-5.44-2.795-12.05-4.555-19.021-5.222-.376-.036-.548.312-.161.36 6.899.868 13.053 2.679 18.653 5.286.392.183.91-.228.529-.424zm3.399-4.109c-4.74-2.772-12.375-4.052-18.721-4.302-.485-.02-.466.427 0 .46 3.262.225 6.504.656 9.575 1.38 3.146.744 5.732 1.876 8.658 2.852.391.13.83-.19.488-.39zm-2.907-5.219c-1.826-.89-4.502-1.207-6.758-1.368-.411-.03-.402.364 0 .396 2.362.188 4.29.792 6.522 1.222.219.041.43-.156.236-.25z"/><path fill="#ef8329" d="M37.83 20.363c-.385 0-.386.37 0 .37.384 0 .385-.37 0-.37zm6.558 1.614c-.23 0-.23.22 0 .22.229 0 .229-.22 0-.22zM40 21.832c-.412 0-.413.396 0 .396s.413-.396 0-.396zm-.139 2.106c-.417 0-.418.4 0 .4s.42-.4 0-.4zm5.728.876c-.552 0-.553.529 0 .529.55 0 .552-.53 0-.53zm2.17-6.339c-.223 0-.223.214 0 .214.224 0 .224-.214 0-.214zm4.665 1.427c-.457 0-.458.438 0 .438.457 0 .457-.438 0-.438zm1.154 2.601c-.558 0-.559.534 0 .534.558 0 .558-.534 0-.534zm-3.833 2.687c-.479 0-.48.46 0 .46s.48-.46 0-.46zm-14.179 1.033c-.345 0-.346.332 0 .332s.347-.332 0-.332zm-.23-5.272c-.585 0-.586.561 0 .561.585 0 .586-.56 0-.56zm3.972-7.936c-.558 0-.558.534 0 .534s.559-.534 0-.534zm-.278 3.328c-.272 0-.273.262 0 .262s.273-.262 0-.262zm4.665-2.791c-.508 0-.508.486 0 .486.507 0 .508-.486 0-.486zm4.71.552c-.663 0-.664.636 0 .636.663 0 .664-.636 0-.636zm.139 1.571c-.534 0-.535.513 0 .513s.536-.512 0-.512zm5.912-.465c-.613 0-.614.589 0 .589.612 0 .613-.588 0-.588zm1.801 2.194c-.613 0-.614.588 0 .588.612 0 .613-.588 0-.588zm3.879-4.2c-.58 0-.58.556 0 .556s.58-.556 0-.556zm-8.913-2.487c-.535 0-.535.513 0 .513s.536-.513 0-.513zm-3.833-.968c-.356 0-.357.342 0 .342.356 0 .357-.342 0-.342zm7.804-1.344c-.484 0-.485.466 0 .466s.485-.466 0-.466zm3.649 2.077c-.017 0-.017.016 0 .016s.017-.016 0-.016zm-.185-.497c-.34 0-.34.326 0 .326s.341-.326 0-.326zM42.402 17.53c-.53 0-.53.507 0 .507s.53-.506 0-.506zm16.996.273c-.436 0-.437.417 0 .417.434 0 .434-.416 0-.416zm3.878-4.05c-.562 0-.563.54 0 .54.562 0 .563-.54 0-.54zm-7.574-1.381c-.59 0-.59.566 0 .566.591 0 .592-.566 0-.566z"/></svg>