<svg xmlns="http://www.w3.org/2000/svg" width="40" height="67"><path fill="#c2ebfb" d="M38.006 64.358c0 1.082-5.255 1.958-11.736 1.958-6.482 0-11.736-.876-11.736-1.958 0-1.081 5.254-1.957 11.736-1.957 6.481 0 11.736.876 11.736 1.957z"/><path fill="#c2ebfb" d="M38.006 63.746c0 1.081-5.255 1.957-11.736 1.957-6.482 0-11.736-.876-11.736-1.957 0-1.08 5.254-1.957 11.736-1.957 6.481 0 11.736.876 11.736 1.957zM.359.964C.532.372 1.181.022 1.81.185L12.783 3.02c2.2.57 4.294 2.661 4.766 4.764l6.212 27.64-2.311.461-6.212-27.639c-.29-1.292-1.73-2.73-3.08-3.079L1.186 2.332c-.63-.162-1-.775-.827-1.368z"/><path fill="#c4c3c3" d="M.672.463c.996.96 2.365 1.631 3.675 2.126a40.912 40.912 0 004.91 1.525c1.738.415 3.966.62 5.329 1.832.948.845 1.297 1.833 1.51 3.021.208 1.151.552 2.225.92 3.338.81 2.44 1.172 4.938 1.636 7.45.239 1.283.495 2.57.862 3.828.182.626.41 1.236.532 1.877.239 1.251.399 2.515.64 3.766.308 1.598.799 5.19 2.955 5.658l.12.538-2.311.462-6.212-27.639c-.29-1.292-1.73-2.73-3.08-3.079L1.187 2.332C.557 2.17.187 1.557.36.964.417.767.528.597.673.464z"/><path fill="#c2ebfb" d="M14.86 8.183a.536.536 0 00.634.389l1.87-.374a.505.505 0 00.413-.597.535.535 0 00-.634-.388l-1.872.373c-.288.058-.473.325-.411.597z"/><path fill="#c2ebfb" d="M14.511 7.383a.553.553 0 00.726.2l1.677-.865a.488.488 0 00.212-.684.55.55 0 00-.724-.2l-1.679.865a.49.49 0 00-.212.684zm-.675-1.043a.552.552 0 00.726.2l1.678-.865a.487.487 0 00.212-.683.55.55 0 00-.726-.2l-1.678.865a.488.488 0 00-.211.683z"/><path fill="#c2ebfb" d="M13.094 5.776a.558.558 0 00.753.06l1.46-1.167a.484.484 0 00.061-.71.557.557 0 00-.753-.058l-1.459 1.165a.485.485 0 00-.062.71z"/><path fill="#f3d28b" d="M13.84 20.367a2.2 2.2 0 01-.363-1.423c.106-1.109 1.047-1.99 2.256-2.24 0-.024-.004-.047-.004-.072 0-1.715 1.64-3.106 3.662-3.106.345 0 .677.044.994.12.405-.6 1.167-1.006 2.042-1.006.053 0 .105.004.158.007.442-1.195 1.757-2.062 3.312-2.062 1.587 0 2.922.904 3.336 2.136.21-.052.431-.08.662-.08.952 0 1.77.48 2.141 1.17.464-.18.98-.285 1.522-.285 2.023 0 3.664 1.391 3.664 3.106 0 .146-.017.29-.039.43.547.23.924.71.924 1.263 0 .164-.035.32-.096.467.717.46 1.183 1.185 1.183 2.005 0 1.39-1.33 2.516-2.969 2.516-1.639 0-20.802-.237-21.722-.237-.92 0-1.667-.632-1.667-1.413 0-.58.413-1.078 1.004-1.296z"/><path fill="#fff" d="M28.032 13.933c-.518-.062-.794-.927-1.246-1.142-1.007-.479-2.175-.635-3.41.993-.81-.069-2.432.223-3.138 1.691-1.252-.872-2.311-.643-3.6-.218a4.006 4.006 0 012.516-.859c.345 0 .677.043.993.118.406-.599 1.168-1.004 2.043-1.004.053 0 .68-.174.734-.17.44-1.196 1.18-1.886 2.737-1.886 1.548 0 2.854.862 3.3 2.05-.23.282-.52.477-.93.427z"/><path fill="#e4c5bc" d="M13.84 20.367a2.2 2.2 0 01-.363-1.423c.084-.88.694-1.614 1.546-2.006-.39.54-.327 1.12.53 1.147-.824 1.38.921 3.682 4.044 2.94.707 1.873 6.88 2.691 8.05-.214 3.087 1.45 7.625.55 6.754-2.899.756-1.053 1.435-2.322 1.585-3.6.756.568 1.236 1.396 1.236 2.32 0 .146-.017.29-.039.43.547.23.924.71.924 1.263 0 .164-.035.32-.096.467.717.46 1.183 1.185 1.183 2.005 0 1.39-1.33 2.516-2.969 2.516-1.639 0-20.802-.237-21.722-.237-.92 0-1.667-.632-1.667-1.413 0-.58.413-1.078 1.004-1.296z"/><path fill="#c2ebfb" d="M26.153 63.624c-4.154 0-5.9-1.522-5.9-1.522s7.068-2.209 2.206-10.112c-2.525-.979-8.414-5.367-8.414-11.417 0-7.454 3.299-11.048-.294-16.869H38.73c-3.594 5.821-.295 9.415-.295 16.87 0 6.315-6.417 10.818-8.724 11.523-5.505 7.184 2.089 10.005 2.089 10.005s-.774.79-2.76 1.231z"/><path fill="#5a3114" d="M36.288 31.025c.279 2.554 1.193 5.251 1.193 9.02 0 5.821-5.915 9.971-8.042 10.621-2 .687-4.914 1.083-6.684-.099C20.429 49.665 15 45.62 15 40.044c0-3.768.913-6.465 1.192-9.019z"/><path fill="#c2ebfb" d="M13.783 24.781h24.652c.718 0 .718-1.575 0-1.575H13.783c-.717 0-.717 1.575 0 1.575z"/><path fill="#c4c3c3" d="M27.64 24.41c2.177-.15 4.403-.04 6.503-.529.246-.057.444-.142.602-.244h3.688c.72 0 .72 1.144 0 1.144H23.798c1.28-.133 2.557-.282 3.842-.37z"/><path fill="#fff" d="M21.934 34.48c0 .288.247.52.552.52.304 0 .552-.232.552-.52 0-.286-.248-.52-.552-.52-.305 0-.552.234-.552.52zm-2.937 3.048c0 .908.78 1.644 1.745 1.644.963 0 1.744-.736 1.744-1.644 0-.907-.781-1.644-1.744-1.644-.964 0-1.745.737-1.745 1.644zm.795-2.6c0 .247.213.447.475.447s.475-.2.475-.447-.213-.447-.475-.447-.475.2-.475.447zm-2.726 2.213c0 .406.349.734.778.734.431 0 .78-.328.78-.734 0-.405-.349-.734-.78-.734-.429 0-.778.33-.778.734zm2.921 2.906c0 .287.247.52.552.52.304 0 .55-.233.55-.52 0-.288-.246-.52-.55-.52-.305 0-.552.232-.552.52zm-1.834.122c0 .219.189.397.423.397a.41.41 0 00.42-.397.41.41 0 00-.42-.398c-.234 0-.423.178-.423.398zm1.426 2.558c0 .517.445.937.994.937.55 0 .995-.42.995-.937 0-.518-.445-.937-.995-.937s-.994.419-.994.937z"/><path fill="#fabcad" d="M18.153 37.815c-2.181 8.222 6.652 14.188 4.886 14.188-12.983-7.339-7.051-16.513-6.597-20.06.455-3.548-.98-6.762.788-6.762 1.767 0 2.678 6.02.923 12.634z" opacity=".4"/><path fill="#fabcad" d="M20.908 37.93c-1.84 8.295 5.279 13.808 5.279 13.808s-10.19-5.134-5.573-17.609c.505-2.587-.446-8.734-.446-8.734s2.22 5.86.74 12.534z" opacity=".4"/><path fill="#fff" d="M24.854 57.478c0 2.145-1.476 3.026-1.093 3.026.382 0 2.48-.881 2.48-3.026 0-2.146-2.098-4.74-2.48-4.74-.383 0 1.093 2.594 1.093 4.74z"/><path fill="#b7dbea" d="M27.287 57.08c.456 3.975 3.396 5.076 3.183 5.076-.07 0-1.495 1.024-1.98.765-.186-.1.532-.765.325-.917-.945-.69-1.871-2.54-2.013-4.771-.136-2.141 1.477-4.65 1.69-4.65.214 0-1.45 2.366-1.205 4.498z"/><path fill="#fff" d="M15.388 63.624c0 .354 2.674 1.162 3.917 1.162 1.242 0-2.109-.716-2.109-1.07 0-.355 3.741-1.07 2.498-1.07-1.243 0-4.306.624-4.306.978z"/><path fill="#b7dbea" d="M37.481 63.654c0 .354-4.391 1.452-5.632 1.452-1.243 0 2.823-1.005 2.823-1.36 0-.355-2.74-1.07-1.498-1.07 1.243 0 4.307.624 4.307.978z"/><path fill="#c4c3c3" d="M36.602 31.942c5.176 13.248-6.32 19.38-7.563 19.38-1.243 0 7.625-6.935 1.981-18.865-.4-.849-3.374-7.276-3.374-7.276h9.021c1.243 0-.648 2.786-.065 6.761z"/><path fill="#fff" d="M14.185 23.864c0 .146 4.287.263 9.576.263 5.288 0 9.575-.117 9.575-.263 0-.145-4.287-.262-9.575-.262-5.289 0-9.576.117-9.576.262zM2.613.827c-.041.134 2.313.895 5.257 1.7 2.943.808 5.363 1.352 5.405 1.219.04-.133-2.312-.895-5.257-1.701C5.074 1.239 2.654.694 2.613.827zM13.28 5.435c.047.053.452-.19.904-.546.452-.355.782-.686.734-.739-.047-.054-.452.191-.905.545-.452.356-.781.687-.733.74zm.847.611c.036.061.48-.113.992-.388.512-.274.896-.546.86-.606-.037-.06-.481.113-.992.388s-.896.546-.86.606zm.797 1.053c.037.06.481-.113.992-.388s.897-.546.861-.607c-.038-.06-.48.114-.993.389-.51.274-.896.546-.86.606zm.346.909c.012.069.492.045 1.071-.052.58-.097 1.04-.231 1.027-.299-.013-.069-.494-.045-1.073.051-.58.098-1.039.232-1.026.3z"/><path fill="#58311e" d="M30.404 17.907a1.318 1.318 0 00-.417-.646 1.738 1.738 0 00-.64-.347c-.227-.06-.457-.087-.652-.038a.863.863 0 00-.467.271.445.445 0 01-.6.066.398.398 0 01-.156-.25l-.012-.07a.894.894 0 00-.75-.755c-.401-.074-.81.069-.996.398l-.023.04a.43.43 0 01-.564.162l-.015-.008a1.535 1.535 0 00-.608-.2 1.427 1.427 0 00-.66.113 1.54 1.54 0 00-.573.432c-.153.19-.264.432-.233.709-.164-.234-.175-.568-.07-.852.103-.288.298-.551.564-.747.26-.202.597-.334.953-.363.358-.04.723.042 1.036.184l-.601.194a1.59 1.59 0 01.81-.823 1.96 1.96 0 011.167-.14c.388.07.763.26 1.03.554.272.292.41.674.424 1.027l-.77-.255a1.611 1.611 0 011.03-.42c.372-.01.719.086 1 .256.284.165.517.394.664.663.15.264.202.576.129.845z"/><path fill="#fff" d="M25.569 16.513c0 .203.504-.169.989-.144.906.048 1.043.72 1.043.516 0-.203-.098-.86-1.016-.883-.486-.012-1.016.308-1.016.511zm2.377.922c0 .203.504-.17.989-.145.906.05 1.043.72 1.043.517 0-.204-.098-.86-1.016-.883-.487-.012-1.016.308-1.016.511zm-4.736.402c.151.144.231-.455.597-.758.679-.566 1.278-.179 1.127-.324-.152-.144-.711-.546-1.382.045-.354.314-.493.893-.341 1.037z"/></svg>