<svg xmlns="http://www.w3.org/2000/svg" width="42" height="55"><path fill="#3f722e" d="M36.39 13.42V1.661c0-.612-1.536-1.109-3.43-1.109-1.894 0-3.43.497-3.43 1.11v11.756c-2.985.94-5.07 3.063-5.07 5.537v31.731c0 1.24 3.805 2.932 8.5 2.932s8.5-1.693 8.5-2.932v-31.73c0-2.475-2.086-4.599-5.07-5.538z"/><path fill="#3f722e" d="M32.96 19.714c-3.948 0-7.255-1.197-8.21-2.314a4.397 4.397 0 00-.29 1.556v30.52c0 1.24 3.806 2.932 8.5 2.932 4.695 0 8.5-1.693 8.5-2.932v-30.52a4.42 4.42 0 00-.29-1.556c-.954 1.117-4.261 2.314-8.21 2.314z" opacity=".5"/><path fill="#3f722e" d="M35.686 13.67V1.662c0-.612-1.22-1.109-2.727-1.109.64 0 1.157.497 1.157 1.11v12.311c1.005.94 1.707 2.51 1.707 4.982v31.731c0 1.24-1.282 2.931-2.863 2.932 3.731 0 6.755-1.693 6.755-2.932v-31.73c0-2.474-1.657-4.347-4.029-5.287z" opacity=".3"/><path fill="#af1e2d" d="M32.96.553c-1.894 0-3.43.497-3.43 1.109v8.931c0 .613 1.536 1.109 3.43 1.109 1.895 0 3.43-.496 3.43-1.109V1.662c0-.612-1.535-1.109-3.43-1.109z"/><path fill="#af1e2d" d="M34.116 1.662v9.971c.632-.074 1.173-.204 1.57-.373V1.662c0-.612-1.22-1.109-2.726-1.109.638 0 1.156.497 1.156 1.11z"/><path fill="#f25733" d="M35.823 1.662c0-.512-1.281-.926-2.863-.926-1.581 0-2.863.414-2.863.926s1.282.927 2.863.927c1.582 0 2.863-.415 2.863-.927z"/><path fill="#f7dec2" d="M32.96 26.24c-4.694 0-8.5-1.52-8.5-2.63v18.383c0 1.11 3.806 2.628 8.5 2.628 4.695 0 8.5-1.518 8.5-2.629V23.611c0 1.11-3.805 2.628-8.5 2.628z"/><path fill="#fff" d="M28.397 51.292V19.563c.091-4.769 2.402-4.877 3.407-5.817V2.744c-.632-.076-1.173-.212-1.57-.389v11.19c-2.372.938-4.029 2.937-4.029 5.411v31.731c0 1.24 3.024 2.327 6.754 2.327-.965-.216-4.562-.483-4.562-1.722z" opacity=".5"/><path fill="#e0bb8e" d="M39.715 43.44V25.057c-.986.417-2.332.779-3.893.989v18.383c1.561-.21 2.907-.572 3.893-.99z" opacity=".5"/><path fill="#fff" d="M26.502 48.252c0 1.195-.153 2.165-.344 2.165-.188 0-.343-.97-.343-2.165s.155-2.166.343-2.166c.19 0 .344.971.344 2.166zm0-26.025c0 1.195-.153 2.165-.344 2.165-.188 0-.343-.97-.343-2.165 0-1.194.155-2.164.343-2.164.19 0 .344.97.344 2.164zm.79-5.306c-.25.517-.748.903-1.12.864-.37-.04-.468-.49-.22-1.008.247-.516.747-.903 1.118-.863.369.04.469.49.222 1.007zm1.219-1.805c-.304.284-.726.45-.943.372-.219-.078-.15-.372.154-.657.301-.284.724-.45.942-.372.218.079.15.373-.153.657z"/><path fill="#749aa7" d="M9.787 55.074c-3.908 0-7.213-1.066-7.213-2.329 0-1.262 3.305-2.329 7.213-2.329 3.91 0 7.214 1.067 7.214 2.33 0 1.262-3.303 2.328-7.214 2.328z"/><path fill="#e0eef3" d="M9.787 54.938c-3.68 0-6.788-1.004-6.788-2.192 0-1.19 3.108-2.193 6.788-2.193 3.682 0 6.79 1.004 6.79 2.193 0 1.188-3.108 2.192-6.79 2.192z"/><path fill="#fff" d="M5.962 52.097c-1.282.687-2.06 1.33-2.18 1.723.656.184 1.494.49 2.568.613.057-.4.587-1.16 1.443-1.932a10.018 10.018 0 01-1.831-.404z" opacity=".4"/><path fill="#749aa7" d="M14.294 51.819a5.762 5.762 0 01-1.104.407c.756.689 1.224 1.424 1.224 1.742l-.002.014c1.033-.235 1.67-.52 1.67-.765 0-.253-.683-.853-1.788-1.398z"/><path fill="#749aa7" d="M16.988 52.66c-.035-.294-.241-.575-.596-.833.059.153.093.287.093.391 0 1.051-3.23 2.488-7.215 2.488-2.673 0-5.001-.648-6.247-1.392 1.012.883 3.645 1.755 6.745 1.76h.019c3.893 0 7.055-1.37 7.2-2.414zm-7.201-.231c-1.573 0-2.903-.43-2.903-.938s1.33-.938 2.903-.938c1.575 0 2.905.43 2.905.938s-1.33.938-2.905.938z"/><path fill="#e0eef3" d="M9.787 52.088c-1.286 0-2.374-.352-2.374-.769 0-.414 1.088-.766 2.374-.766 1.289 0 2.376.352 2.376.766 0 .417-1.087.77-2.376.77z"/><path fill="#fff" d="M8.449 51.094c-.448.239-.721.465-.763.604.23.063.524.17.9.213.019-.14.204-.406.505-.676a3.518 3.518 0 01-.642-.141z" opacity=".4"/><path fill="#749aa7" d="M11.364 50.996a2 2 0 01-.386.143c.265.24.428.498.428.61l-.001.004c.362-.082.585-.182.585-.268 0-.089-.238-.299-.626-.489z"/><path fill="#e0eef3" d="M9.787 41.88c-.627 0-1.652.164-1.652.367l.518 8.48c0 .203.507.367 1.134.367.627 0 1.137-.164 1.137-.367l.515-8.48c0-.203-1.025-.367-1.652-.367z"/><path fill="#aab7b7" d="M9.145 51.029c.14.03.3.05.473.06l-.379-9.176c-.194.02-.387.05-.559.086z" opacity=".5"/><path fill="#749aa7" d="M10.641 41.914l-.484 9.201c.298-.067.496-.18.496-.307l.53-8.642c0-.097-.232-.185-.542-.252z"/><path fill="#d2e1e4" d="M19.27 29.42c0-1-4.275-2.467-9.483-2.467-5.207 0-9.483 1.466-9.483 2.466 0 2.333 0 12.912 9.483 12.912S19.27 31.752 19.27 29.42z"/><path fill="#af1e2d" d="M18.874 34.085c0-1.159-4.161-2.138-9.087-2.138-4.924 0-9.085.98-9.085 2.138 0 1.16 4.16 2.14 9.085 2.14 4.926 0 9.087-.98 9.087-2.14z"/><path fill="#c72027" d="M9.787 36.224c-4.598 0-8.526-.854-9.03-1.91.795 3.722 2.984 8.017 9.03 8.017 6.046 0 8.236-4.295 9.03-8.017-.501 1.056-4.43 1.91-9.03 1.91z"/><path fill="#aab7b7" d="M17.034 31.128c-.354 3.487-1.858 8.936-8.253 8.936-6.94 0-8.121-6.418-8.322-9.782.218 3.814 1.49 11.091 8.973 11.091 7.483 0 8.756-7.277 8.974-11.09-.254.305-.73.59-1.372.845z" opacity=".5"/><path fill="#aab7b7" d="M13.38 36.042c-.348 2.261-.957 4.563-2.025 6.186 2.8-.579 4.094-3.599 4.694-6.61-.776.175-1.678.32-2.67.424z" opacity=".3"/><path fill="#af1e2d" d="M9.641 41.489c-2.825 0-4.847-.857-6.293-2.137 1.336 1.62 3.324 2.769 6.293 2.769 2.971 0 4.958-1.148 6.294-2.769-1.446 1.28-3.467 2.137-6.294 2.137z"/><path fill="#fff" d="M6.088 28.822c0-.54.665-1.202 1.737-1.738-2.57.348-4.465 1.399-4.465 2.16 0 2.035-.885 9.903 4.324 10.899C5.2 36.655 6.088 30.727 6.088 28.82z" opacity=".7"/><path fill="#749aa7" d="M19.27 29.42c0-1.383-4.245-2.503-9.483-2.503-5.237 0-9.483 1.12-9.483 2.502 0 1.383 4.246 2.503 9.483 2.503 5.238 0 9.483-1.12 9.483-2.503z"/><path fill="#d2e1e4" d="M18.572 29.66c.069-1.28-3.808-2.426-8.66-2.559-4.851-.133-8.84.798-8.908 2.08-.07 1.278 3.808 2.423 8.658 2.557 4.852.132 8.84-.798 8.91-2.078z" opacity=".5"/><path fill="#e0eef3" d="M9.787 31.342c-4.608 0-8.504-.917-8.504-2.002 0-1.084 3.896-2.002 8.504-2.002 4.61 0 8.505.918 8.505 2.002 0 1.085-3.895 2.002-8.505 2.002z"/><path fill="#fff" d="M2.05 30.436c-.07.16.82.5 1.993.76 1.172.26 2.178.344 2.247.183.071-.158-.949-.211-2.12-.471-1.174-.261-2.053-.631-2.12-.472zm.45 2.275c-.027-.697-.281-1.256-.565-1.25-.285.007-.493.574-.463 1.27.026.695.28 1.255.565 1.251.282-.006.492-.576.464-1.27zm6.858 14.401c-.077-1.898-.272-3.437-.438-3.432-.166.003-.239 1.544-.161 3.442.078 1.9.274 3.435.438 3.432.165-.002.238-1.545.161-3.442zm-3.794 5.897c.455-.348.591-.783.304-.974-.286-.189-.888-.061-1.342.287-.454.347-.589.783-.302.973.284.19.887.062 1.34-.286zM8.45 51.47c.13-.101.104-.271-.062-.382-.167-.109-.41-.117-.54-.016-.131.1-.102.271.064.381.166.11.407.119.538.017zM2.72 35.793c-.155-.716-.429-1.277-.612-1.256-.185.02-.209.614-.054 1.327.154.713.428 1.275.611 1.254.184-.019.21-.613.054-1.325z"/><path fill="#aab7b7" d="M9.787 31.922c-3.257 0-6.133-.434-7.838-1.095-.007.39-.002.783.014 1.185.212 5.235 2.239 9.44 4.533 9.392 2.277-.044 3.968-4.29 3.769-9.488-.16.001-.316.006-.478.006z" opacity=".5"/><path fill="#fff" d="M16.54 27.98c.039-.23-1.655-.57-3.79-.76-2.133-.19-3.896-.158-3.935.073-.042.228 1.729.154 3.863.344 2.134.19 3.823.573 3.863.344z"/></svg>