<svg xmlns="http://www.w3.org/2000/svg" width="78" height="31"><path fill="#f4e9d5" d="M76.88 15.372c0 8.015-16.963 14.512-37.89 14.512-20.925 0-37.89-6.497-37.89-14.512S18.066.86 38.99.86c20.927 0 37.89 6.497 37.89 14.512z"/><path fill="none" stroke="#802429" stroke-miterlimit="20" stroke-width=".75" d="M76.88 15.372c0 8.015-16.963 14.512-37.89 14.512-20.925 0-37.89-6.497-37.89-14.512S18.066.86 38.99.86c20.927 0 37.89 6.497 37.89 14.512z"/><path fill="#f7d6a4" d="M74.299 11.777c-.41-.478-4.383-1.556-4.693-2.008a3.774 3.774 0 01-.2-.408s-3.494-.603-5.11.325c-.6.343-4.49-1.024-8.581-.643 1.997-.692 4.11-1.222 5.63-.936 0 0-1.481-1.245-2.778-2.582-.435-.448-1.228-1.445-1.562-1.875a3.432 3.432 0 01-.22-.394s-3.522-.36-5.085.677c-.744.493-7.06-1.47-12.02 1.01-5.597 2.8-11.587.983-13.481 2.38-.203.152-.404.295-.605.434-1.27-.714-2.856-1.144-4.583-1.144a9.705 9.705 0 00-3.627.682v-.001c-.001 0-.002 0-.002.002a8.08 8.08 0 00-.757.354c-.056.029-.111.06-.167.09a7.727 7.727 0 00-.584.36c-.037.027-.076.05-.114.077a6.639 6.639 0 00-.612.49c-.03.028-.056.057-.085.084a5.772 5.772 0 00-.38.389c-.967.194-5.16-.037-6.347.032-4.565.266-4.632 4.43-4.632 7.199 0 2.82 4.023 3.356 8.042 6.756 2.38 2.013 7.862 2.349 11.612 2.349 1.44 0 2.64-.261 3.699-.651.696 1.065 1.763 1.045 3.79 2.76 2.38 2.014 10.419.776 14.169.776 5.064 0 7.444-.948 10.565-1.95 4.28-1.373 5.676-2.81 5.676-5.008 0-2.66-4.171-.705-6.635-4.682a2.642 2.642 0 00-.456-.518c1.098.19 2.029.37 2.614.445 2.287.29 4.775.482 7.339-.36s9.809-2.715 12.382-2.048c0 0-.98-1.04-2.202-2.463z"/><path fill="#fff" d="M75.1 14.24c0 3.141-2.589 5.982-5.037 5.982-2.447 0 1.617-2.841 1.617-5.982s-5.963-5.982-3.516-5.982c2.448 0 6.935 2.841 6.935 5.982zm-7.167 7.777c.174.588-.29 1.293-1.036 1.575-.746.281-1.492.033-1.666-.555-.174-.588.29-1.293 1.036-1.575.746-.28 1.492-.033 1.666.555z"/><path fill="#f7d6a4" d="M63.147 15.372c0 5.109-10.815 9.25-24.155 9.25-13.341 0-24.156-4.141-24.156-9.25 0-5.11 10.815-9.251 24.156-9.251 13.34 0 24.155 4.142 24.155 9.25z"/><path fill="none" stroke="#802429" stroke-miterlimit="20" stroke-width=".75" d="M23.194 22.323c-5.064-1.689-8.265-4.177-8.265-6.952 0-5.089 10.773-9.215 24.062-9.215 13.288 0 24.061 4.127 24.061 9.215 0 1.427-.846 2.778-2.358 3.984m-10.268 4.128c-3.401.705-7.296 1.105-11.435 1.105a61.63 61.63 0 01-5.508-.243"/><path fill="#ed1735" d="M19.998 8.8l.318-.096c.032-.009 3.11-.96 6.636-3.565.859-.634 2.387-.66 4.32-.694 2.668-.046 5.987-.103 9.202-1.71 1.77-.887 3.87-1.317 6.419-1.317 1.423 0 2.701.132 3.728.24.64.065 1.145.118 1.494.118.274 0 .342-.034.35-.038.975-.646 2.626-.782 3.84-.782.81 0 1.401.06 1.426.062l.16.016.066.146c.717 1.574 4.45 4.721 4.486 4.752l.816.685-1.048-.196a4.764 4.764 0 00-.87-.074c-2.349 0-5.662 1.353-7.855 2.25l-.583.238c-1.602.647-3.34.95-5.469.95-.665 0-1.319-.029-1.957-.066a38.36 38.36 0 01-1.678-.16c-1.428-.156-3.384-.37-5.225-.37-2.544 0-4.24.413-5.043 1.224-2.277 2.304-9.798 4.575-10.117 4.67l-.225.068z"/><path fill="#802429" d="M57.703 1.296c.752 1.651 4.56 4.85 4.56 4.85a5.022 5.022 0 00-.923-.079c-2.619 0-6.306 1.603-8.542 2.507-1.82.738-3.63.932-5.364.932-.659 0-1.308-.03-1.94-.065-1.277-.074-4.193-.53-6.92-.53-2.18 0-4.24.292-5.24 1.305-2.255 2.28-10 4.599-10 4.599l-2.936-5.843s3.108-.94 6.72-3.607c1.893-1.398 7.884.419 13.48-2.38 2.03-1.015 4.286-1.287 6.294-1.287 2.308 0 4.288.359 5.224.359.24 0 .412-.024.502-.084.922-.611 2.526-.736 3.686-.736.807 0 1.4.06 1.4.06zm-5.357.186a1.287 1.287 0 01-.23.014c-.335 0-.859-.054-1.466-.117-1.033-.107-2.319-.24-3.758-.24-2.593 0-4.734.44-6.544 1.346-3.158 1.579-6.44 1.636-9.08 1.68-1.985.034-3.552.062-4.483.75-3.48 2.571-6.52 3.512-6.55 3.521l-.635.193.298.594 2.936 5.842.21.42.45-.135c.322-.096 7.91-2.387 10.237-4.742.747-.756 2.377-1.139 4.843-1.139 1.826 0 3.774.212 5.196.367.681.074 1.27.138 1.691.162a32.93 32.93 0 001.973.066c2.166 0 3.937-.308 5.574-.97l.585-.239c2.172-.887 5.454-2.228 7.747-2.228.3 0 .575.023.82.07l2.095.392-1.632-1.37c-1.032-.869-3.838-3.396-4.41-4.655l-.134-.292L57.76.74c-.025-.002-.63-.063-1.456-.063-1.794 0-3.125.271-3.958.806z"/><path fill="#f472b8" d="M57.917 1.683c-2.791.816-6.053 1.779-7.477 1.603-2.355-.29-4.078-.02-4.078-.02-2.954-.25-6.983.64-8.188 1.849-1.204 1.209-6.446.672-8.248.72-1.802.05-1.991 1.497-4.291 3.467-1.199 1.028-2.82 1.61-4.099 1.935l1.325 2.637c3.876-.856 5.239-6.27 7.896-6.058 3.29.263 7.83-.008 10.957-1.511 3.127-1.504 8.835.22 10.114-.85.787-.66 4.873-1.06 7.657-1.89-.437-.45-1.236-1.455-1.568-1.882z"/><path fill="#f797d0" d="M59.048 3.115c-3.307.56-7.21 2.311-8.635 2.136-2.356-.291-9.958.014-11.163 1.223-1.204 1.21-6.38.668-8.182.717-1.802.049-2.59 1.537-4.89 3.508-1.199 1.028-2.342 2.246-3.62 2.57l.303.605c3.875-.856 5.238-6.27 7.896-6.058 3.29.263 7.83-.008 10.957-1.512 3.126-1.503 8.834.221 10.113-.849.788-.659 4.874-1.059 7.658-1.89-.437-.45-.105-.023-.437-.45z"/><path fill="#ed1735" d="M32.285 12.293l.328-.075c.03-.008 3.154-.744 6.813-3.1.507-.327 1.226-.467 2.402-.467.585 0 1.241.035 1.951.071.814.042 1.735.09 2.688.09 2.603 0 4.696-.37 6.587-1.163 1.456-.61 3.166-.92 5.083-.92 1.966 0 3.78.314 5.105.544.732.128 1.312.228 1.648.228.143 0 .185-.019.187-.019.64-.367 1.605-.553 2.87-.553 1.272 0 2.38.188 2.426.196l.157.027.057.147c.631 1.622 4.186 5.02 4.222 5.055l.781.744-1.044-.27a5.436 5.436 0 00-1.344-.15c-2.305 0-5.297.993-7.48 1.718l-.598.197c-1.273.42-2.629.622-4.145.622-1.195 0-2.347-.126-3.316-.25-.408-.05-.983-.154-1.665-.276-1.834-.329-4.346-.778-6.546-.778-1.802 0-3.063.31-3.746.921-2.399 2.144-10.03 3.892-10.354 3.965l-.227.052z"/><path fill="#802429" d="M64.89 7.781c.147 0 .257-.017.324-.055.703-.403 1.76-.517 2.733-.517 1.263 0 2.379.192 2.379.192.662 1.7 4.29 5.155 4.29 5.155a5.699 5.699 0 00-1.415-.158c-2.577 0-6.024 1.228-8.164 1.93-1.38.453-2.74.607-4.056.607-1.13 0-2.227-.112-3.282-.247-1.487-.189-5.187-1.057-8.247-1.056-1.644 0-3.103.25-3.932.991-2.373 2.121-10.23 3.902-10.23 3.902l-2.614-6.035s3.153-.723 6.902-3.137c.51-.328 1.284-.422 2.25-.421 1.268 0 2.868.16 4.639.16 2.08 0 4.4-.222 6.696-1.185 1.616-.678 3.344-.899 4.974-.899 3.05 0 5.76.773 6.754.773zm-11.944-.39c-1.855.779-3.914 1.141-6.48 1.141-.944 0-1.862-.047-2.672-.089a38.98 38.98 0 00-1.966-.071c-1.233 0-1.997.153-2.553.511-3.624 2.333-6.694 3.055-6.724 3.062l-.656.15.267.618 2.615 6.034.185.426.452-.102c.327-.075 8.027-1.839 10.479-4.03.63-.564 1.828-.85 3.559-.85 2.177 0 4.674.447 6.497.773.676.121 1.26.226 1.68.279.977.124 2.14.252 3.352.252 1.545 0 2.929-.208 4.23-.635l.597-.198c2.045-.679 5.134-1.705 7.393-1.705.485 0 .915.048 1.275.141l2.088.541-1.562-1.487c-.984-.938-3.65-3.656-4.154-4.954l-.115-.294-.312-.054c-.047-.008-1.18-.201-2.474-.201-1.29 0-2.288.192-2.972.569a.69.69 0 01-.084.004c-.313 0-.91-.104-1.601-.224-1.335-.232-3.162-.55-5.153-.55-1.954 0-3.7.317-5.191.943z"/><path fill="#f472b8" d="M70.519 7.801c-2.83.622-6.138 1.358-7.55 1.085-2.335-.451-4.069-.301-4.069-.301-2.936-.452-7.005.156-8.273 1.28-1.267 1.125-6.471.228-8.272.152-1.801-.075-2.068 1.356-4.47 3.164-1.253.944-2.902 1.413-4.196 1.649l1.181 2.723c3.914-.588 5.567-5.898 8.208-5.502 3.269.49 7.816.533 11.019-.753 3.202-1.286 8.805.829 10.14-.151.822-.603 4.921-.72 7.745-1.358-.412-.48-1.155-1.538-1.463-1.987z"/><path fill="#f797d0" d="M71.57 9.309c-3.33.33-7.323 1.81-8.734 1.537-2.335-.453-9.94-.672-11.208.452-1.268 1.124-6.405.226-8.206.15-1.8-.075-2.668 1.357-5.07 3.165-1.253.944-2.46 2.08-3.754 2.316l.271.625c3.915-.588 5.568-5.898 8.21-5.503 3.268.489 7.815.532 11.017-.753 3.203-1.286 8.806.828 10.141-.151.821-.604 4.921-.721 7.745-1.36-.412-.478-.104-.03-.412-.478z"/><path fill="#fff" d="M24.276 23.796c-5.93 0-9.898-.812-11.793-2.416-1.419-1.2-2.748-2.037-3.92-2.775-2.113-1.33-3.64-2.293-3.64-4.262 0-2.76 2.597-6.734 7.473-7.018 1.935-.112 3.477-.473 4.967-.822 1.703-.4 3.311-.777 5.378-.777 1.996 0 3.681.473 5.31.931 1.597.448 3.105.871 4.865.871h.001c.212 0 .426-.006.645-.019.134-.008.266-.012.396-.012 4.09 0 6.601 3.987 6.601 6.846 0 2.44-1.646 3.918-5.87 5.274-1.078.346-2.049.967-3.076 1.624-1.873 1.198-3.996 2.555-7.337 2.555z"/><path fill="#802429" d="M32.916 7.808c.218 0 .438-.006.663-.02.128-.008.255-.011.38-.011 4.054 0 6.32 3.986 6.32 6.566 0 2.197-1.395 3.634-5.675 5.008-3.12 1.002-5.264 4.165-10.328 4.165-3.75 0-9.232-.336-11.612-2.349-4.018-3.4-7.46-4.002-7.46-6.824 0-2.769 2.643-6.473 7.208-6.738 4.142-.241 6.468-1.598 10.33-1.598 3.86 0 6.525 1.801 10.174 1.801zM17.3 6.23c-1.479.347-3.008.705-4.919.816-5.048.294-7.736 4.426-7.736 7.297 0 2.124 1.663 3.171 3.77 4.498 1.164.734 2.484 1.565 3.89 2.753 1.945 1.647 5.973 2.482 11.972 2.482 3.423 0 5.582-1.381 7.487-2.599 1.012-.647 1.968-1.258 3.012-1.593 4.363-1.401 6.064-2.954 6.064-5.541 0-2.976-2.618-7.125-6.88-7.125-.136 0-.274.003-.413.012a10.36 10.36 0 01-.63.019c-1.722 0-3.212-.419-4.789-.862-1.648-.462-3.35-.94-5.386-.94-2.099 0-3.723.38-5.442.783z"/><path fill="#f4e9d5" d="M27.751 11.241c0 3.047-3.374 3.521-7.536 3.521-4.162 0-7.536-.474-7.536-3.521 0-3.047 3.374-5.517 7.536-5.517 4.162 0 7.536 2.47 7.536 5.517z"/><path fill="#f4e9d5" d="M34.604 19.351c4.28-1.374 5.675-2.81 5.675-5.008 0-.89-.356-1.158-.875-2.16-6.791-2.252-9.918 1.622-12.305 3.783-2.39 2.165-4.237 2.364-7.279 1.587-3.042-.777-5.975 2.004-8.039-1.183-2.064-3.187.109-5.279-1.086-6.858-1.1-1.454-2.756-.234-3.012-.03-1.605 1.378-2.479 3.272-2.479 4.861 0 2.821 3.442 3.424 7.46 6.824 2.38 2.013 7.862 2.35 11.612 2.35 5.064 0 7.207-3.165 10.328-4.166z"/><path fill="#fff" d="M35.22 27.865c-1.66 0-2.805-.285-3.499-.873-3.917-3.313-4.902-4.547-4.902-7.548 0-2.76 2.597-6.734 7.473-7.018 1.935-.112 3.476-.474 4.967-.823 1.702-.399 3.311-.776 5.378-.776 4.274 0 10.001 1.947 11.141 3.787 1.244 2.009 2.942 2.431 4.305 2.77 1.22.303 2.371.589 2.371 2.06 0 2.44-1.645 3.918-5.869 5.274l-.858.278c-2.768.905-5.158 1.685-9.793 1.685-1.216 0-2.899.26-4.68.534-2.074.32-4.218.65-6.034.65z"/><path fill="#802429" d="M55.54 14.761c2.465 3.977 6.635 2.023 6.635 4.682 0 2.198-1.395 3.635-5.675 5.008-3.121 1.002-5.501 1.95-10.565 1.95-2.64 0-7.335 1.185-10.715 1.185-1.423 0-2.613-.21-3.318-.807-4.018-3.4-4.803-4.514-4.803-7.336 0-2.768 2.644-6.472 7.209-6.738 4.142-.24 6.468-1.598 10.329-1.598 4.09 0 9.8 1.872 10.904 3.654zm-16.345-3.43c-1.48.346-3.008.704-4.92.816-5.047.293-7.735 4.426-7.735 7.296 0 3.116 1.005 4.382 5 7.763.747.632 1.95.94 3.68.94 1.838 0 3.993-.333 6.077-.654 1.77-.273 3.443-.53 4.638-.53 4.679 0 7.088-.788 9.878-1.699l.858-.279c4.363-1.4 6.064-2.954 6.064-5.54 0-1.69-1.313-2.016-2.583-2.332-1.384-.344-2.951-.733-4.136-2.646-1.307-2.11-7.35-3.919-11.38-3.919-2.098 0-3.722.381-5.441.784z"/><path fill="#f4e9d5" d="M44.636 25.009c-1.504.174-5.097.947-4.468-1.846-1.702-.286-4.02.632-4.92-1.687-.185-.474-.317-1.464-.872-1.557-.457-.077-.932-.082-1.386-.187-.425-.097-.927-.233-1.2-.654-.766-1.176-.227-3.344.244-4.544.244-.622.543-1.172.91-1.63-3.72.84-5.845 4.062-5.845 6.54 0 2.82.784 3.936 4.803 7.336 2.38 2.012 10.282-.379 14.032-.379 3.39 0 5.576-.426 7.587-1.007-2.967-.19-5.919-.73-8.885-.386z"/><path fill="#f4e9d5" d="M50.288 17.247c0 3.047-3.374 3.52-7.536 3.52-4.162 0-7.536-.473-7.536-3.52s3.374-5.517 7.536-5.517c4.162 0 7.536 2.47 7.536 5.517z"/><path fill="#fbd605" d="M44.125 19.56c-4.06 0-7.816-.46-7.816-3.8 0-3.197 3.506-5.797 7.816-5.797 4.31 0 7.816 2.6 7.816 5.797 0 3.34-3.756 3.8-7.816 3.8z"/><path fill="#802429" d="M51.661 15.76c0 3.046-3.374 3.52-7.536 3.52-4.163 0-7.537-.474-7.537-3.52 0-3.048 3.374-5.517 7.537-5.517 4.162 0 7.536 2.47 7.536 5.516zm-15.632 0c0 4.08 5.266 4.08 8.096 4.08s8.097 0 8.097-4.08c0-3.35-3.632-6.077-8.096-6.077S36.03 12.41 36.03 15.76z"/><path fill="#fae758" d="M50.07 16.057c-.576.856-1.077-.197-2.407-1.34-1.33-1.142-2.985-1.94-2.408-2.797.576-.856 2.122-.624 3.452.518s1.94 2.763 1.364 3.62z"/><path fill="#f7960f" d="M39.63 14.691c-.258-1.066-.336-2.264-.118-3.288-1.776 1.01-2.924 2.583-2.924 4.356 0 3.047 3.375 3.521 7.537 3.521.613 0 1.206-.013 1.776-.04-2.654-.27-5.535-1.512-6.27-4.549z"/><path fill="#fbd605" d="M21.93 13.97c-4.06 0-7.816-.46-7.816-3.8 0-3.197 3.506-5.797 7.816-5.797 4.31 0 7.816 2.6 7.816 5.797 0 3.34-3.756 3.8-7.816 3.8z"/><path fill="#802429" d="M29.466 10.17c0 3.046-3.374 3.52-7.536 3.52-4.162 0-7.536-.473-7.536-3.52 0-3.048 3.374-5.517 7.536-5.517 4.162 0 7.536 2.47 7.536 5.516zm-15.632 0c0 4.08 5.266 4.08 8.096 4.08 2.829 0 8.096 0 8.096-4.08 0-3.35-3.632-6.077-8.096-6.077s-8.096 2.726-8.096 6.076z"/><path fill="#fae758" d="M28.4 10.66c-.576.856-1.077-.198-2.407-1.34-1.33-1.143-2.985-1.94-2.408-2.797.576-.857 2.122-.625 3.452.518 1.33 1.142 1.94 2.763 1.364 3.62z"/><path fill="#f7960f" d="M22.433 13.082c-2.374-.319-4.578-1.744-4.771-4.723-.077-1.195.167-2.203.64-3.025-2.328.938-3.908 2.751-3.908 4.835 0 3.047 3.374 3.521 7.536 3.521 2.108 0 4.012-.123 5.38-.639-1.555.275-3.15.263-4.877.031z"/></svg>