<svg xmlns="http://www.w3.org/2000/svg" width="68" height="55"><path fill="#9d433c" d="M67.86 24.693c2.006-3.064-36.496-21.17-37.69-21.17-6.93.812-29.803 6.353-25.923 13.87-.44 3.483 60.374 12.247 63.613 7.3z"/><path fill="#bf504f" d="M67.86 24.695l-.096 7.28c-.02 1.545-.047 3.276-.067 5.081-.038 3.02-.086 6.276-.133 9.359-.01 1.188-.028 2.368-.048 3.482-.02 1.374-.03 2.683-.05 3.872l.012.682c-3.585.043-6.94-.454-10.523-.682-17.461-1.946-35.86-1.72-52.88-7.192 0 0-1.29-22.076.172-29.183z"/><path fill="#fde6b7" d="M67.764 31.975c-.02 1.546-.047 3.276-.067 5.082-3.45.055-8.142-.486-11.096-.79-9.03-.702-44.1-6.203-52.796-8.597l.355-3.623c8.411.94 16.821 2.822 25.232 4 9.041 1.407 17.968 3.289 27.103 3.528 3.098 0 7.676 0 11.27.4zm-.2 14.439c-.01 1.188-.028 2.368-.048 3.482-3.412-.02-7.78-.172-10.915-.703-9.347-1.524-18.799-1.524-28.145-3.17-7.885-1.405-16.401-3.288-23.98-6.11l-.421-4.11c8.621 2.931 17.395 5.342 26.379 6.576 8.898 1.223 17.442 1.71 26.167 2.532 3.479.215 7.522.821 10.963 1.503z"/><path fill="#f35b6d" d="M25.449 16.057c-1.87-1.881-.624-4.82 1.974-4.701 2.906.117 3.944 4.466.933 5.288-.83.235-2.492.352-2.907-.587zm18.275.653c-1.66-1.655.727-4.12 2.284-4.356 2.804-.235 3.22 4.475.416 5.297-.934.235-2.284.12-2.7-.94zm-26.791-1.125c-2.7.354-1.766-5.287.935-4.936 2.908.354 2.18 5.281-.935 4.936zm20.679 3.367c-2.046-.292-2.313-3.497-.64-4.633 3.197-2.17 5.244 5.067.64 4.633zm18.158-.898c-1.766-.822-1.35-3.994.311-4.7 2.804-1.293 5.504 3.054 2.804 4.935-1.038.706-2.492.587-3.323-.353z"/><path fill="#f35b6d" d="M51.908 19.201c-1.143.352-2.077-1.294-1.87-2.468.52-3.526 6.128-1.88 4.466 1.292-.52.941-1.661 1.06-2.596 1.176zM37.37 10.298c-1.348-.706-1.66-2.585-.622-3.762 1.974-2.232 6.438.824 3.946 3.408-.934 1.06-2.18.942-3.323.354z"/><path fill="#9d433c" d="M32.441 3.888c-.836 1.758-5.734 1.486-7.407 1.758-5.018 1.082-10.394 2.974-14.814 6.22-1.911 1.487-5.35 3.522-5.734 6.353-.843 6.215.478 16.9 0 25.149-.119 1.35-.04 3.92-1.354 4.19-3.026.362-3.186-3.605-3.186-5.947 0-1.623.638-2.704.797-4.147 0-1.623-.956-2.885-.797-4.686.16-1.444 1.433-2.525 1.433-3.967 0-1.803-1.114-2.524-.795-4.508.159-.721 1.274-1.261 1.274-2.162.159-.721-1.115-3.63-1.115-4.351 0-.721 1.911-2.274 1.115-3.897-.717-2.298 1.911-3.515 3.584-2.975.717-2.84 2.628-2.433 4.659-3.245 2.27-.81 3.464-2.838 5.854-3.38 1.194-.27 2.15-.27 3.344-.81 1.076-.677 2.032-1.893 3.226-2.435 1.912-.676 4.421.136 6.451-.405 2.27-.405 3.823 0 3.823 3.245z"/><path fill="#8dcf70" d="M29.706 10.768c-2.27-.947-4.871-.284-6.532 1.126.198-4.887 3.625-5.357 5.7-3.947-1.438-2.903 2.543-6.145 3.892-5.203.635 2.147-1.606 3.675-1.814 5.79 1.558-1.174 5.088-.704 4.776 2.116-2.18.118-4.05 1.88-6.022.118z"/><path fill="#f35b6d" d="M33.493 14.349c-2.541.093-3.164-4.051-.88-4.756 3.427-1.176 4.154 4.65.88 4.756z"/><path fill="#dca081" d="M4.854 12.364c-.002.014-.185-.036-.42 0-.235.007-.505.114-.702.194-.19.095-.45.21-.61.395-.176.164-.272.349-.28.343-.019.018-.294-.111-.288-.145.01.007.048-.25.214-.532.15-.305.471-.572.746-.703.28-.113.664-.152.952-.071.291.053.483.197.484.182.02.042-.067.323-.096.338zm8.725-4.732l-.354.15a7.62 7.62 0 00-.857.446c-.666.392-1.53.948-2.301 1.161-.188.06-.398.09-.61.137-.157.024-.406.093-.605.135-.421.09-.824.192-1.155.34-.343.132-.557.366-.707.541-.072.09-.102.185-.14.238l-.047.091c-.04.067-.321-.044-.29-.136l.045-.118c.035-.072.066-.192.143-.316.154-.243.423-.579.804-.773.368-.212.805-.365 1.22-.485.219-.062.383-.126.634-.182.192-.05.38-.082.553-.139.693-.185 1.539-.633 2.267-.968.36-.168.694-.29.933-.36.24-.066.388-.105.388-.105.086.007.146.297.079.343zm6.157-2.98s-.34.08-.816.297l-1.513.724-2.392 1.016c-.05.019-.182-.283-.14-.318 0 0 .338-.238.797-.514a16.351 16.351 0 011.506-.823 11.98 11.98 0 011.604-.58c.266-.058.48-.127.663-.137l.284-.021c.06.027.053.325.007.356zM29.95 1.816s-.153.005-.41.01c-.255.002-.613.016-1.021.048-.813.042-1.818.179-2.601.28-.78.124-1.783.262-2.563.497-.196.056-.38.107-.547.153l-.423.163-.385.148c-.081.027-.207-.277-.132-.323l.383-.202.426-.22c.165-.072.352-.14.549-.217.79-.326 1.813-.552 2.617-.684.806-.1 1.84-.157 2.67-.115.416.01.78.036 1.039.066l.416.042c.085.038.067.335-.017.354zM1.875 18.466c.012-.001-.093-.229-.107-.573-.03-.353.107-.772.247-1.038.144-.264.376-.531.527-.74.167-.207.242-.382.252-.381.016-.023.3.081.297.116-.007-.01-.034.254-.156.537-.116.295-.283.605-.402.829-.115.221-.268.476-.307.718-.053.24-.035.451-.045.45-.029.035-.283.111-.306.082zm.409 7.793c.013-.007-.157-.175-.268-.488-.14-.309-.135-.749-.084-1.067.079-.308.244-.669.426-.9.082-.124.168-.218.23-.285l.096-.107c.023-.021.253.192.246.221l-.053.128c-.035.078-.084.185-.127.313-.104.248-.166.564-.226.791-.033.229-.11.526-.064.766.014.245.099.43.088.436-.016.041-.233.209-.264.192zm-.246 8.811c.017-.015-.398-.205-.698-.82a2.152 2.152 0 01-.168-1.074c.023-.373.114-.708.2-.988.18-.56.48-1.198.632-1.726.075-.264.112-.498.13-.668l.007-.273c.003-.055.297-.11.31-.046l.043.32c.009.2.004.481-.044.792-.097.62-.343 1.318-.505 1.836-.173.514-.345 1.16-.183 1.62.039.114.073.225.136.311.055.09.097.178.157.234l.17.197c.019.065-.13.31-.187.286zm-.148 9.944l-.285-.275a2.906 2.906 0 01-.555-.878c-.356-.818-.226-1.951-.04-2.701.187-.773.524-1.683.703-2.426.087-.372.132-.701.155-.94l.008-.38c.005-.077.3-.12.313-.034 0 0 .014.159.04.423.003.262-.009.63-.067 1.04-.119.817-.393 1.77-.565 2.497-.179.72-.345 1.653-.119 2.33.098.34.263.61.39.792l.225.282c.03.082-.136.314-.204.27zm25.581-26.705s-1.616-.14-3.752-.321l-1.693-.156c-.58-.07-1.177-.14-1.772-.21-1.187-.151-2.368-.3-3.405-.43-1.038-.134-2.215-.328-3.402-.47-1.188-.144-2.382-.292-3.448-.423l-3.742-.482c-.223-.031-.192-.366.024-.355l3.76.319 3.465.313c1.194.108 2.374.28 3.414.412l3.406.487 1.768.264 1.67.213 3.75.486a.178.178 0 01-.043.353zm23.644 3.551l-3.963-.7c-1.128-.21-2.396-.41-3.655-.626a183.097 183.097 0 00-3.611-.594c-2.195-.4-5.007-.764-7.273-1.04l-3.992-.266c-.238-.02-.23-.355 0-.355l4.026.103c2.283.195 5.124.478 7.325.876 1.105.173 2.358.396 3.612.649 1.255.248 2.518.488 3.639.74 2.243.49 3.94.863 3.94.863.228.08.184.375-.048.35zm14.29 1.816s-.25-.005-.662-.016c-.207-.006-.456-.012-.735-.021-.28-.011-.583-.067-.91-.105-1.312-.144-2.904-.519-4.144-.804-1.238-.275-2.81-.69-4.09-.785-.32-.028-.621-.083-.891-.083l-.713.016-.646.013c-.135-.001-.17-.334-.037-.354l.662-.065.735-.069c.28-.02.588.014.918.022 1.327.017 2.938.358 4.186.631 1.242.288 2.81.742 4.083.963.318.057.616.133.887.164l.712.071.646.067c.133.043.133.341-.001.355z"/><path fill="#941647" d="M28.061 5.29l-1.06.387c-.329.124-.728.257-1.169.435l-1.45.6c-2.092.846-4.74 1.758-6.74 2.636-1.02.386-2.129.973-3.268 1.503-1.128.547-2.233 1.198-3.258 1.704-1.026.505-1.95.91-2.65 1.074-.174.045-.326.098-.466.122-.139.018-.26.035-.358.05l-.303.037c-.239.03-.24-.309-.028-.353l.286-.052.337-.06c.132-.029.278-.088.442-.138.664-.184 1.553-.618 2.546-1.15.994-.536 2.084-1.225 3.22-1.812 1.14-.565 2.256-1.178 3.287-1.57 2.034-.89 4.695-1.717 6.806-2.484l1.471-.543c.448-.16.856-.278 1.192-.388l1.08-.343c.23-.04.293.248.083.344zM5.722 13.124c-.007-.006.046-.136.06-.308.03-.169-.007-.38-.013-.536-.014-.156-.019-.372-.067-.54-.032-.176-.102-.288-.096-.296-.004-.019.204-.258.225-.248-.009.006.15.096.275.297.143.19.247.485.27.728.01.244-.039.562-.165.775-.105.22-.244.333-.235.337-.037 0-.246-.182-.254-.209zm15.075-7.927s-.037-.134-.092-.29a4.096 4.096 0 00-.194-.446c-.052-.123-.11-.278-.197-.38-.078-.118-.18-.173-.176-.182-.01-.013.058-.34.08-.343-.004.011.154-.012.345.087.2.082.403.301.49.503.095.202.12.481.107.691-.012.21-.05.357-.05.357-.029.022-.292.02-.313.003zM3.888 22.492s-.118.07-.286.136c-.168.067-.396.13-.589.108a1.027 1.027 0 01-.59-.288c-.162-.144-.224-.302-.23-.295-.01-.02.202-.256.22-.254.003-.008.102.066.237.097.13.045.288.044.418.054.251.042.76.092.76.092.021.032.074.324.06.35zm.109-6.779l-.187-.11c-.042-.039-.103-.055-.16-.07-.057-.015-.098-.049-.147-.064l-.542-.264a1.506 1.506 0 010-.355s.108-.033.259-.062c.146-.046.354-.004.506.04.142.086.33.23.404.4.083.165.127.285.127.285a1.256 1.256 0 01-.26.2zm-.375 20.611s-.621.243-1.05.297c-.412.004-1.051-.148-1.051-.148-.022-.007-.02-.343 0-.354 0 0 .625-.176 1.025-.186.382-.046 1.015.042 1.015.042.028.032.08.325.06.349zm-.686-7.545s-.082-.1-.19-.195c-.106-.111-.245-.17-.332-.227-.09-.051-.217-.13-.353-.164-.133-.039-.25-.055-.25-.055-.018-.006-.077-.335-.06-.348 0 0 .118-.07.302-.116a.888.888 0 01.637.069c.182.11.36.337.425.534.045.094.062.181.078.242l.023.098a.987.987 0 01-.28.161z"/><path fill="#b61848" d="M12.798 21.899l-.169.036c-.106.02-.255.063-.43.063a2.39 2.39 0 01-1.126-.18c-.326-.155-.715-.474-.9-.842a1.647 1.647 0 01-.202-.461l-.06-.191c-.009-.042.271-.155.293-.13l.09.14c.05.087.12.21.234.314.194.243.522.41.774.533.26.114.61.255.918.297.151.039.288.038.387.05.098.012.158.017.158.017.035.034.065.33.033.354zm10.345 1.487l-1.053.092c-.599.05-1.37.071-1.983-.068-.608-.122-1.38-.547-1.8-1.113a4 4 0 01-.47-.724l-.148-.315c-.028-.066.233-.226.272-.178l.174.264c.112.159.275.377.49.578.415.432 1.064.702 1.602.813.535.125 1.263.191 1.86.223l1.056.072c.062.035.061.333 0 .356zm.087 1.629c-.004-.014-.196.15-.504.23-.306.119-.72.068-1.022-.042-.29-.146-.63-.424-.786-.747-.178-.297-.216-.568-.228-.56-.009-.036.267-.164.287-.145.011-.007.106.195.295.372.17.207.45.33.65.437.211.07.494.193.744.17.247.014.44-.057.442-.043.036.024.142.297.121.328zm9.532-.736s-.083.016-.22.039c-.139.025-.334.062-.557.07-.449.05-1.016-.01-1.452-.12-.429-.141-.967-.394-1.324-.735-.19-.145-.329-.315-.428-.433l-.158-.187c-.03-.041.182-.276.22-.254l.174.135c.106.085.25.207.44.3.352.237.848.38 1.226.506.387.097.888.236 1.31.267.208.032.394.038.528.044.134.01.215.013.215.013.046.033.07.33.026.355zm3.543 2.378l-.576.09a4.72 4.72 0 01-1.09.044c-.335-.044-.777-.172-1.089-.416-.078-.06-.15-.114-.212-.166a10.306 10.306 0 01-.262-.337c-.023-.035.21-.246.238-.233l.125.092.13.1.192.08c.264.124.644.157.94.193l1.025.122.58.076c.033.034.032.333 0 .354zm6.444-1.784l-.491.101c-.282.056-.651.115-.954.088-.298-.02-.716-.164-.98-.44a1.4 1.4 0 01-.257-.397l-.057-.178c-.01-.04.265-.166.286-.148l.076.11a.967.967 0 00.227.194c.199.118.498.156.754.171l.883.08c.287.024.512.063.512.063.03.035.029.333 0 .356zm-30.215 8.184s-.37.124-.875.203c-.505.083-1.152.105-1.66-.003-.504-.093-1.146-.407-1.541-.848a2.737 2.737 0 01-.404-.626l-.104-.286c-.02-.06.258-.182.287-.143l.124.218c.088.127.22.29.396.442.362.295.906.485 1.352.566.444.097 1.035.16 1.519.162.483.004.85-.036.85-.035.056.026.104.319.056.35zm3.911 3.263s-.192.013-.451-.01c-.258-.015-.592-.081-.844-.23-.124-.064-.258-.195-.375-.325-.11-.158-.21-.318-.242-.495-.06-.165-.047-.312-.046-.415l.005-.161c.004-.034.3-.028.314-.006l.038.118c.022.07.042.172.109.254.093.19.304.315.479.42.342.222 1.059.497 1.059.497.019.04-.018.335-.046.353zm3.811-1.934l-.447.018c-.256.004-.586-.002-.855-.093-.13-.029-.285-.136-.427-.224-.137-.134-.277-.257-.343-.433a.95.95 0 01-.12-.414c-.01-.104-.019-.166-.019-.166 0-.038.294-.078.311-.058l.052.109c.03.068.068.161.148.225.054.085.166.125.251.186.116.034.207.09.32.114.203.073.496.162.74.238l.433.146c.021.04-.016.333-.044.352zm6.316 5.209s-.332.048-.774.019c-.443-.027-.997-.146-1.407-.353-.411-.192-.895-.622-1.134-1.105a2.32 2.32 0 01-.2-.643l-.018-.269c-.002-.056.296-.079.31-.04 0 0 .023.079.057.209.045.125.119.29.232.453.237.325.646.602 1 .765.346.177.823.364 1.223.467.399.106.713.143.713.143.042.036.043.333-.002.354zm2.121-2.974s-.15.043-.354.054a1.612 1.612 0 01-.654-.082 1.547 1.547 0 01-.575-.413c-.161-.173-.228-.374-.23-.367-.01-.025.24-.207.258-.202.008-.002.089.081.242.147.147.07.344.13.5.182.15.061.348.157.515.218.166.067.3.108.3.108.018.036.019.334-.002.355zm4.48 2.978c0-.001-.224.077-.535.124-.309.053-.72.052-1.043-.074-.32-.105-.71-.471-.83-.86a1.748 1.748 0 01-.1-.473 29.072 29.072 0 00-.007-.188c.001-.04.298-.072.313-.044 0 0 .053.239.198.458.141.227.392.375.623.455.225.09.555.176.838.206.282.037.505.042.505.042.033.032.066.328.038.354zm4.979-1.341s-.18.044-.424.062a2.11 2.11 0 01-.803-.065c-.24-.085-.543-.268-.722-.511a1.139 1.139 0 01-.197-.312l-.061-.134c-.011-.03.247-.199.268-.187.009-.01.104.136.284.234.165.118.41.183.598.248.373.14 1.058.31 1.058.31.023.035.024.334-.001.355zM8.24 44.912s-.125-.05-.288-.13a2.086 2.086 0 01-.487-.346c-.118-.158-.27-.347-.33-.56a4.882 4.882 0 01-.112-.349c-.004-.022.263-.17.28-.16l.209.21c.094.126.28.233.37.358.11.114.234.288.342.428l.192.254c-.004.04-.15.288-.175.295zm6.025 1.379l-.21.08a2.207 2.207 0 01-.552.088c-.448.02-1-.155-1.374-.417-.38-.249-.764-.753-.932-1.236a2.608 2.608 0 01-.126-.629l.004-.257c.003-.055.301-.047.314-.008l.037.203c.034.123.091.29.184.462.191.343.533.681.84.877.294.211.715.426 1.082.486.18.033.343.035.461.031l.186-.023c.046.025.125.31.086.343zm3.625 1.183s-.193.014-.455-.023a1.77 1.77 0 01-.832-.32c-.229-.182-.48-.543-.517-.883-.045-.161-.028-.303-.026-.402.005-.097.01-.156.01-.156.003-.034.3-.028.313-.006.011-.005.03.199.136.392.082.21.28.363.431.489.157.123.387.284.602.383.211.107.385.174.385.174.018.04-.018.335-.047.352zm32.607-5.053s-.273.042-.624.004c-.352-.033-.786-.143-1.11-.326a1.91 1.91 0 01-.5-.407c-.156-.189-.29-.454-.296-.734.043-.56.344-.724.319-.737.029-.033.249.195.24.228.013-.007-.148.245-.101.466.03.105.108.21.22.311.122.097.256.188.39.257.257.15.62.325.925.431.305.112.54.152.54.152.03.037.034.334-.003.355zm-6.631-1.812s-.187-.055-.426-.177a2.192 2.192 0 01-.72-.546c-.175-.238-.354-.611-.371-.937-.041-.318.014-.55.003-.547.005-.033.302-.03.314-.005.01-.003.033.199.127.416.072.229.255.437.38.61.14.166.322.403.508.568.177.175.327.3.327.3.006.046-.111.312-.142.318zm5.061-14.547s-.78.182-1.322.096a2.079 2.079 0 01-.848-.36c-.248-.163-.383-.367-.388-.356-.02-.025.168-.284.194-.28.007-.01.16.103.387.166.22.082.513.109.742.148l1.235.232c.026.035.026.333 0 .354zm-1.012 2.528l-.154.067a2.245 2.245 0 01-.395.14c-.32.105-.746.131-1.08.081-.33-.079-.755-.254-1.008-.55-.141-.12-.223-.273-.287-.373l-.097-.16c-.018-.036.227-.227.253-.21 0 0 .043.037.114.102.07.061.155.16.288.22.229.171.577.226.835.291.268.04.624.101.92.084.15.003.28-.008.375-.02l.15-.015c.039.027.113.313.086.343zm7.212.597s-.22.084-.517.14c-.295.06-.673.089-.982.033a1.51 1.51 0 01-.506-.191c-.171-.106-.375-.282-.432-.56a.878.878 0 01.09-.553l.096-.158c.023-.031.272.153.27.183.009-.016-.092.252-.017.37.047.099.353.194.6.229.244.05.583.104.86.128.277.027.488.027.488.027.033.032.077.325.05.352zm.087-2.237s-.152.011-.36-.014c-.205-.033-.478-.102-.66-.28-.096-.069-.177-.212-.25-.34-.055-.152-.106-.302-.098-.445-.014-.278.084-.446.07-.449.01-.026.3.046.31.064.01-.004.003.152.072.29.05.148.168.252.275.341.092.102.266.223.414.32.157.091.28.16.28.16.012.04-.03.334-.053.352zm6.259 2.825s-.15.116-.375.22c-.223.109-.528.195-.786.177a1.114 1.114 0 01-.794-.438 1.141 1.141 0 01-.168-.352c-.02-.091-.03-.148-.03-.148-.005-.032.28-.133.296-.118 0-.001.077.149.216.239.14.092.34.123.52.129.176.016.426.026.635.008.21-.016.371-.047.371-.047.031.023.131.3.115.33zm-1.505-2.822s-.044.008-.116.018c-.072.01-.176.03-.293.022a1.796 1.796 0 01-.743-.162 2.405 2.405 0 01-.607-.475c-.168-.172-.275-.318-.275-.318-.015-.022.165-.29.187-.285 0 0 .592.296.938.445.173.082.386.213.573.281.093.045.178.065.24.086l.098.033c.02.037.021.334-.002.355zM25.137 48.072c.003-.013-.229.05-.53 0-.309-.023-.664-.179-.92-.337a3.097 3.097 0 01-.707-.72 2.818 2.818 0 01-.216-.336l-.078-.139c-.014-.032.22-.24.245-.225l.104.096c.063.062.154.144.263.228.21.183.491.357.7.503.212.133.477.333.714.424.234.116.43.138.43.151.023.038.026.335-.005.355zm5.15 1.936c0 .001-.194.077-.466.128a2.38 2.38 0 01-.894.021 2.116 2.116 0 01-.84-.404c-.24-.176-.374-.375-.38-.365-.02-.026.17-.285.195-.279.005-.01.163.104.394.181.222.095.514.141.738.19.226.042.52.116.769.136.247.034.44.04.44.04.03.033.068.328.044.352zm17.695-12.649s-.764.033-1.256-.221a1.93 1.93 0 01-.374-.267c-.115-.135-.236-.252-.3-.415-.035-.076-.07-.142-.091-.207l-.032-.185-.022-.161c-.002-.035.293-.084.308-.065l.056.099c.015.029.032.066.053.105.026.036.065.068.098.107.129.154.368.265.555.36.367.205 1.058.499 1.058.5.018.039-.025.333-.053.35zm7.069 2.671s-.195.185-.495.298a2.203 2.203 0 01-.993.16 1.783 1.783 0 01-.967-.425 1.401 1.401 0 01-.286-.362l-.073-.178c-.014-.04.256-.182.277-.168l.08.099c.058.051.14.118.248.171.22.107.528.157.775.176.247.03.573.048.834.02.264-.02.443-.098.443-.098.038.018.177.27.157.308zm5.782 2.082s-.104.09-.26.2c-.148.13-.378.176-.552.219-.176-.007-.407-.034-.568-.117-.164-.076-.28-.143-.28-.143-.016-.011.056-.337.074-.345l.273-.027c.152-.002.324-.063.459-.056.126-.037.308.015.449-.024.147-.015.265-.025.265-.025.029.025.148.29.14.318zm-23.134-1.187s-.04.029-.103.078c-.065.046-.151.124-.268.18a1.528 1.528 0 01-.816.216c-.265-.026-.61-.175-.794-.406-.202-.205-.277-.415-.285-.406-.013-.027.22-.234.244-.224.004-.011.126.122.305.206.17.109.4.122.57.142.177.011.423.021.633-.022.107-.008.197-.043.265-.057l.109-.026c.035.021.154.288.14.319zm-.315 8.042l-.124.038c-.079.02-.188.066-.32.075-.259.044-.608.033-.875-.095a1.262 1.262 0 01-.396-.308c-.116-.152-.213-.314-.245-.488-.059-.163-.043-.308-.043-.408l.006-.158c.004-.034.302-.028.314-.006l.037.115c.023.068.041.17.107.247.088.188.291.289.456.37.165.085.42.173.642.212.11.031.21.027.282.039.072.01.117.014.117.014.027.034.065.329.042.353zm7.307 2.52s-.129.011-.293.022c-.159.004-.369.041-.523.022-.318-.02-.83-.185-.83-.185-.017-.007-.016-.344.001-.356 0 0 .517-.162.863-.147.174.024.389.071.561.154.173.077.296.144.296.144.011.04-.054.327-.075.346zm9.306 1.772c-.01-.005-.256.067-.408.058-.154-.021-.43-.186-.43-.186a2.104 2.104 0 010-.355s.287-.164.492-.145c.213.019.495.309.484.31a2.1 2.1 0 01-.138.318z"/><path fill="#fefae7" d="M16.197 14.424s-.073-.287-.1-.685c-.031-.394.004-.906.139-1.296.116-.385.478-.867.882-.989.195-.066.368-.065.485-.056.115.02.185.03.185.03.039.01.004.344-.026.354l-.147.022a.97.97 0 00-.321.131c-.23.142-.4.462-.492.76a5.198 5.198 0 00-.245 1.06c-.047.352-.048.628-.048.628-.028.04-.29.08-.312.041zm9.333.484l-.085-.213a2.287 2.287 0 01-.137-.582 1.799 1.799 0 01.097-.83c.11-.28.298-.503.479-.653.375-.29.91-.408 1.315-.396.41.001.706.085.706.084.042.012.009.346-.03.356 0 0-.282.002-.636.078a2.515 2.515 0 00-1.007.443c-.118.101-.24.22-.326.372a1.321 1.321 0 00-.14.53c-.01.183 0 .361.025.485l.033.202c-.018.052-.263.161-.294.124zm5.92-3.064l.018-.201c.007-.125.042-.305.11-.506.063-.205.198-.42.367-.597a1.52 1.52 0 01.559-.332c.358-.116.785-.095 1.106-.093.323.009.557-.015.557-.014.032 0 .106.326.073.346 0-.001-.251.112-.584.186-.331.079-.728.148-.985.238a1.61 1.61 0 00-.387.174c-.111.09-.225.195-.298.331-.077.13-.14.263-.17.366l-.055.165c-.04.028-.3-.019-.31-.063zm5.129-3.871c.01.003.01-.262.123-.604.096-.36.429-.727.736-.88a1.825 1.825 0 011.01-.091c.152.015.276.058.365.08.089.026.144.04.144.04.029.013-.01.346-.038.354l-.14.01c-.086.01-.207.01-.338.035-.272.02-.566.129-.771.208-.19.106-.43.247-.563.489-.141.22-.215.447-.222.44-.038.02-.296-.042-.306-.081zm-.002 9.645l-.115-.19a2.47 2.47 0 01-.194-.539c-.11-.453-.064-1.067.126-1.49.179-.425.612-.87 1.039-.97a1.43 1.43 0 01.519-.056l.202.03c.042.01.01.343-.022.354l-.167.024c-.1.021-.24.057-.376.137-.287.141-.521.488-.65.786a2.583 2.583 0 00-.217 1.102c.009.182.04.34.068.453l.057.176c-.011.052-.233.213-.27.183zm7.755-1.334l-.137-.218a1.933 1.933 0 01-.203-.647c-.073-.573.198-1.26.518-1.62a2.98 2.98 0 011.24-.872c.433-.164.78-.153.78-.153.05 0 .074.335.037.353 0 0-.294.067-.64.28-.35.204-.728.554-.97.856-.257.292-.49.736-.506 1.128-.005.195.03.372.068.497l.075.198c-.008.056-.221.232-.262.198zm6.304 2.369s-.195-.296-.276-.747c-.09-.445-.087-1.025.042-1.466.104-.43.482-1.013.971-1.113.476-.09.75.14.75.119.041.02-.067.335-.1.337.005.01-.267-.08-.52.044-.25.115-.437.488-.522.827-.1.33-.175.802-.166 1.183.002.385.097.645.097.646-.013.05-.24.203-.276.17zm5.45-.95l-.215-.095a1.973 1.973 0 01-.469-.38c-.34-.36-.582-.984-.61-1.502-.049-.508.154-1.229.56-1.572.195-.173.397-.253.537-.292l.225-.042c.05-.006.092.327.06.35 0 0-.065.028-.17.077-.1.057-.23.148-.34.29-.224.276-.3.765-.266 1.144.02.377.137.88.352 1.21.104.164.22.286.307.368l.151.116c.02.052-.072.331-.122.328z"/><path fill="#5a9f35" d="M30.396 10.792l-.23-.22c-.15-.128-.323-.359-.59-.508a49.784 49.784 0 01-.394-.268c-.139-.085-.298-.133-.445-.203-.29-.163-.616-.182-.884-.266-.547-.075-1.278-.104-1.847.098-.293.057-.532.176-.707.256l-.282.124c-.059.022-.207-.27-.154-.312l.28-.179c.174-.114.417-.279.728-.387.596-.3 1.436-.372 2.076-.28.311.091.683.148 1.006.361.163.095.337.172.484.283l.41.354c.273.205.432.48.573.641l.212.273c.025.076-.178.267-.236.233z"/><path fill="#5a9f35" d="M30.385 10.718s-.168-.456-.36-1.084c-.194-.626-.385-1.445-.406-2.127-.022-.671.137-1.592.535-2.165.182-.294.39-.501.54-.637l.252-.2c.054-.04.222.237.186.285l-.197.217c-.115.142-.27.347-.393.611-.272.518-.333 1.274-.314 1.866.014.596.12 1.379.238 2.011l.22 1.119c-.013.074-.265.161-.3.104z"/><path fill="#5a9f35" d="M33.431 8.812l-.168.054c-.103.03-.25.073-.408.138-.328.105-.686.317-.952.476-.25.183-.582.412-.76.715-.198.276-.292.552-.303.544-.02.033-.305-.063-.3-.107 0 0 .02-.077.048-.205.038-.127.061-.32.165-.507.151-.416.525-.808.845-1.038a2.879 2.879 0 011.16-.385c.182-.031.341-.032.455-.035l.182-.003c.04.03.067.326.036.353z"/><path fill="#f6c683" d="M20.142 30.317l-.59-.255a14.61 14.61 0 00-1.514-.481c-1.225-.321-2.79-.502-4.022-.67-1.23-.17-2.817-.44-4.062-.847a12.938 12.938 0 01-1.53-.615c-.367-.197-.589-.32-.589-.32-.12-.066.015-.366.135-.32l.587.262c.373.144.9.329 1.511.489 1.224.317 2.79.5 4.021.666 1.232.172 2.82.44 4.063.85a13.5 13.5 0 011.53.607l.59.31c.111.09-.004.358-.13.324zM39.05 33.16l-.839-.199c-.533-.09-1.284-.188-2.15-.354-.868-.233-1.807-.383-2.747-.577-.949-.158-1.898-.286-2.734-.413-1.524-.2-3.433-.59-3.885-.707l.018.003c-.819-.125-1.465-.373-2.034-.536a14.402 14.402 0 00-1.407-.382 3.043 3.043 0 00-.492-.078c-.138-.009-.257-.04-.346-.026l-.27.021c-.166.01-.24-.317-.05-.35l.31-.043c.105-.02.228.005.381.008.152.005.33.02.524.058.397.06.881.177 1.452.332.572.142 1.24.366 1.98.457l.018.003c.462.042 2.351.356 3.88.556.835.13 1.791.281 2.748.472.955.228 1.935.432 2.744.692.832.202 1.587.341 2.127.463l.857.257c.17.082.087.365-.086.342zm24.962 2.712l-4.08-.053c-1.16-.05-2.467-.145-3.766-.226-.647-.047-1.297-.078-1.92-.138-.622-.072-1.223-.143-1.787-.207l-3.689-.462c-1.284-.132-2.595-.306-3.744-.575-.288-.068-.567-.137-.834-.2a9.502 9.502 0 01-.756-.273c-.464-.182-.869-.349-1.21-.427-.172-.05-.325-.053-.46-.079-.134-.007-.248.005-.342.005-.184.015-.278.065-.279.057a.176.176 0 01-.083-.343c.001.008.114-.054.327-.082.107-.006.24-.024.394-.022.148.02.327.02.51.065.377.07.803.227 1.271.39.233.086.474.164.727.233l.82.165c1.131.223 2.416.353 3.712.454 1.292.12 2.57.278 3.695.407l1.784.224c.62.068 1.261.113 1.903.175 1.287.116 2.581.234 3.736.34l4.072.217c.24.043.236.34 0 .355zM18.98 42.84l-2.29-.484c-1.307-.263-2.94-.615-4.195-1.012l-.988-.347c-.344-.126-.7-.257-1.036-.345-.688-.194-1.43-.28-2.097-.429a4.427 4.427 0 01-1.613-.707c-.186-.129-.308-.274-.404-.354l-.143-.133c-.11-.107.098-.348.205-.269l.14.112c.093.067.213.193.39.296.35.211.862.448 1.505.543.64.104 1.39.146 2.146.324.39.087.74.204 1.078.317l.978.327c1.234.394 2.834.823 4.128 1.168l2.267.646c.127.068.064.357-.072.346zm21.215 3.8s-.128-.063-.373-.188c-.248-.12-.614-.3-1.103-.488-.486-.183-1.1-.41-1.816-.473-.365-.045-.71.007-1.13.139-.41.125-.921.256-1.45.17.01 0 .015 0 .036.003-.078-.006-.187-.012-.314-.032-.115-.037-.263-.072-.396-.143-.282-.125-.58-.324-.895-.478-.585-.322-1.452-.273-2.21-.195-.961.099-2.123.333-3.312.133-1.17-.213-2.241-.694-3.206-1.038-.964-.341-1.815-.63-2.436-.69-.31-.066-.556-.057-.727-.052H20.6c-.204-.001-.242-.334-.028-.353l.28-.016a3.08 3.08 0 01.775.017c.662.034 1.545.29 2.532.597.985.308 2.068.743 3.152.907 1.076.154 2.17-.082 3.177-.191a7.748 7.748 0 011.256-.042c.219.03.426.038.643.09.225.054.423.145.604.238.358.19.64.393.87.506.118.07.215.09.3.13l.198.04.036.004c.438.08.846-.01 1.269-.123.415-.124.888-.183 1.276-.117.79.098 1.41.359 1.909.568.496.214.864.415 1.11.547l.374.21c.178.137.055.402-.138.32zm24.967 2.88l-.305-.057a5.338 5.338 0 00-.847-.105c-.362-.042-.802-.031-1.298-.037-.496.023-1.056-.017-1.654-.063-2.395-.162-5.237-1.112-7.458-1.66-1.11-.253-2.381-.571-3.666-.63-1.29-.061-2.614.005-3.795 0-1.183.01-2.231-.08-2.973-.208-.373-.037-.663-.158-.866-.2l-.313-.083c-.244-.07-.148-.39.08-.345l.305.069c.199.03.477.135.843.156.723.094 1.746.143 2.917.092 1.172-.037 2.49-.146 3.824-.115 1.347.032 2.643.335 3.776.592 2.255.56 5.047 1.577 7.366 1.815.576.063 1.119.125 1.62.12.5.025.949.033 1.322.092.374.04.672.088.876.145.203.049.314.074.314.074.24.088.165.374-.068.348z"/></svg>