<svg xmlns="http://www.w3.org/2000/svg" width="99" height="47"><defs><linearGradient id="a" x1="57.79" x2="81.21" y1="13.99" y2="40.12" gradientUnits="userSpaceOnUse"><stop offset="0" stop-color="#fff"/><stop offset="1" stop-color="#060808"/></linearGradient></defs><path fill="#e0bb8e" d="M98.675 19.904c0-5.56-14.77-10.066-32.986-10.066-18.217 0-32.986 4.506-32.986 10.066 0 5.559 14.769 26.585 32.986 26.585 18.216 0 32.986-21.026 32.986-26.585z"/><path fill="#f7dec2" d="M98.675 19.614c0-5.399-14.77-9.777-32.986-9.777-18.217 0-32.986 4.379-32.986 9.777 0 5.4 14.769 25.823 32.986 25.823 18.216 0 32.986-20.422 32.986-25.822z"/><path fill="#feecd7" d="M36.41 15.803c-2.052 2.219-2.922 4.619-2.188 6.852 1.765 5.366 17.344 23.673 28.33 21.221 10.986-2.452 13.218-24.732 11.455-30.097-.337-1.024-.988-1.938-1.893-2.73a106.26 106.26 0 00-7.209-.244c-12.159 0-22.774 2.01-28.495 4.998z"/><path fill="#fdf5d9" d="M98.675 19.904c0-5.56-14.77-10.066-32.986-10.066-18.217 0-32.986 4.506-32.986 10.066 0 5.559 14.769 10.066 32.986 10.066 18.216 0 32.986-4.507 32.986-10.066z"/><path fill="#ecd4b8" d="M65.689 28.356c-16.771 0-30.94-4.02-30.94-8.774 0-4.758 14.169-8.777 30.94-8.777 16.77 0 30.94 4.019 30.94 8.777 0 4.755-14.17 8.774-30.94 8.774z"/><path fill="#dece33" d="M65.689 28.356c12.303 0 23.197-2.163 28.133-5.193-1.032-4.093-13.49-7.453-28.134-7.453-14.643 0-27.101 3.36-28.131 7.453 4.935 3.03 15.83 5.193 28.131 5.193z"/><path fill="url(#a)" d="M42.132 25.192c5.724 1.921 14.233 3.164 23.556 3.164 11.239 0 21.287-1.808 26.707-4.43-3.624-3.649-13.44-6.346-24.642-6.346-12.462 0-23.21 3.336-25.621 7.612z" opacity=".6"/><path fill="#fff" d="M37.576 24.185c-.253.67 2.99 2.1 7.247 3.194 4.255 1.094 7.91 1.438 8.164.769.253-.668-3.45-.887-7.705-1.981-4.257-1.094-7.452-2.65-7.706-1.982zm8.121 7.788c-1.124-1.377-2.43-2.275-2.916-2.005-.485.269.03 1.603 1.153 2.98 1.124 1.378 2.43 2.275 2.916 2.004.487-.267-.03-1.602-1.153-2.98zm3.596 4.56c-.665-.447-1.4-.613-1.643-.369-.242.246.1.806.765 1.254.665.446 1.399.611 1.643.367.241-.243-.101-.805-.765-1.252z"/><path fill="#bbb7b2" d="M49.988 24.889c2.607.445 7.238.867 7.238.867s1.088.059 1.052.304c-.036.244-.905.192-.905.192-3.704-.064-10.519-.697-13.788-2.102-3.269-1.406-10.25-1.998-10.25-1.998l-12.326-1.616c.84.124 1.11-.984 1.11-.984s.063-1.138-.777-1.263l12.263 2.028s6.855 1.457 10.39 1.059c3.537-.397 10.242.973 13.806 1.986 0 0 .847.202.811.446-.036.244-1.095-.015-1.095-.015s-4.553-.938-7.179-1.267c-2.624-.328-2.827.164-2.917.775-.09.61-.04 1.14 2.567 1.588z"/><path fill="#87331f" d="M.555 16.358c.288-1.585 3.229-1.151 3.229-1.151s16.719 2.958 17.558 3.082c.84.125.778 1.263.778 1.263s-.27 1.108-1.112.984c-.839-.124-17.698-2.14-17.698-2.14S.371 17.96.555 16.358zm3.538.524c.062-.414-.376-.822-.976-.911-.6-.09-1.137.176-1.199.589-.06.415.376.823.977.912.601.089 1.137-.175 1.198-.59z"/><path fill="#eae3e0" d="M43.995 21.376c-3.535.397-10.39-1.06-10.39-1.06L21.342 18.29c.841.125.777 1.263.777 1.263s-.024.098-.079.231c4.664.923 9.347 1.727 14.09 2.114 5.38.617 11.571-1.17 16.632 1 2.331.396 4.755.896 4.755.896s1.06.26 1.095.015c.036-.244-.81-.447-.81-.447-3.565-1.012-10.27-2.382-13.807-1.985z"/><path fill="#a9472c" d="M21.342 18.29c-.84-.125-17.56-3.083-17.56-3.083s-2.185-.322-2.97.606c.54.07 1.079.143 1.618.22.198-.072.436-.099.687-.062.252.038.472.132.642.26 6.129.944 12.19 2.35 18.28 3.552.056-.133.08-.23.08-.23s.064-1.139-.777-1.264z"/><path fill="#bbb7b2" d="M65.507 21.838c2.4 1.113 6.759 2.732 6.759 2.732s1.035.342.936.57c-.1.224-.924-.053-.924-.053-3.558-1.03-9.97-3.426-12.758-5.638-2.786-2.212-9.37-4.612-9.37-4.612l-11.473-4.784c.779.34 1.33-.659 1.33-.659s.358-1.082-.42-1.422l11.305 5.166s6.235 3.2 9.75 3.742c3.518.542 9.63 3.62 12.805 5.53 0 0 .765.416.666.643-.098.226-1.052-.3-1.052-.3s-4.15-2.1-6.598-3.104c-2.447-1.003-2.77-.58-3.02-.014-.246.564-.335 1.09 2.064 2.203z"/><path fill="#87331f" d="M20.03.668c.694-1.456 3.416-.266 3.416-.266s15.363 7.23 16.141 7.57c.778.34.42 1.422.42 1.422s-.55.999-1.33.659c-.777-.34-16.52-6.698-16.52-6.698S19.433 2.165 20.03.668zm3.278 1.43c.168-.383-.148-.89-.704-1.134-.556-.243-1.143-.13-1.31.255-.168.384.146.893.703 1.136.557.242 1.143.128 1.311-.256z"/><path fill="#eae3e0" d="M60.643 16.88c-3.516-.542-9.751-3.742-9.751-3.742L39.587 7.972c.779.34.42 1.422.42 1.422s-.05.09-.137.203c4.26 2.11 8.568 4.111 13.045 5.726 5.03 2.004 11.475 1.9 15.79 5.318 2.146.994 4.356 2.111 4.356 2.111s.954.527 1.053.301c.098-.227-.666-.644-.666-.644-3.175-1.91-9.287-4.987-12.805-5.529z"/><path fill="#a9472c" d="M39.587 7.972c-.777-.34-16.141-7.57-16.141-7.57S21.42-.482 20.42.208c.503.208 1.004.42 1.504.636.21-.018.447.019.68.12.234.102.42.252.55.418 5.67 2.517 11.153 5.458 16.716 8.215.088-.114.138-.203.138-.203s.358-1.082-.42-1.422z"/><path fill="#e05a1d" d="M74.164 17.737c-.253.046-.556-.085-.95-.014-1.592.287-5.244 8.596-4.602 9.047.198.14 1.057.058 1.148.062 1.361.05 8.025-2.527 8.372-3.118.37-.633-2.376-6.264-3.968-5.977z"/><path fill="#b63b22" d="M76.23 19.845c-1.047-.044-2.066-.22-3.103-.331-.498-.055-1.004-.125-1.51-.145-1.64 2.521-3.476 7.07-3.005 7.401.199.139 1.057.057 1.148.061 1.361.052 8.025-2.526 8.371-3.118.208-.355-.565-2.285-1.566-3.859a9.363 9.363 0 01-.335-.009z"/><path fill="none" stroke="#802429" stroke-miterlimit="20" stroke-width=".25" d="M74.164 17.737v0s-.556-.085-.95-.014c-1.592.287-5.244 8.596-4.602 9.047.198.14 1.057.058 1.148.062 1.361.05 8.025-2.527 8.372-3.118.37-.633-2.376-6.264-3.968-5.977z"/><path fill="#fcf1aa" d="M69.764 26.575c.613.432 7.824-2.327 8.177-2.93.352-.603-2.267-5.976-3.786-5.702-1.52.274-5.003 8.201-4.391 8.632z"/><path fill="#fcd48a" d="M75.447 18.632l-.04.013a4.302 4.302 0 00-.93.452c-.167.108-.386.293-.595.324-.59.091-.63-.407-.509-.916-1.677 1.88-4.13 7.69-3.609 8.058.614.431 7.824-2.327 8.177-2.93.264-.452-1.136-3.572-2.494-5z"/><path fill="none" stroke="#802429" stroke-miterlimit="20" stroke-width=".25" d="M69.764 26.575c.613.432 7.824-2.327 8.177-2.93.352-.603-2.267-5.976-3.786-5.702-1.52.274-5.003 8.201-4.391 8.632z"/><path fill="#e05a1d" d="M52.692 25.764c.136.218.127.548.34.888.86 1.37 9.93 1.67 10.11.906.056-.235-.34-1.003-.37-1.088-.458-1.283-5.33-6.51-6.009-6.611-.724-.11-4.93 4.535-4.07 5.905z"/><path fill="#b63b22" d="M53.88 23.063c.35.986.565 1.999.847 3.002.135.483.258.98.427 1.456 2.95.586 7.856.598 7.989.037.055-.235-.34-1.003-.371-1.088-.457-1.283-5.33-6.51-6.008-6.611-.406-.061-1.91 1.375-3 2.89.04.104.08.209.117.314z"/><path fill="none" stroke="#802429" stroke-miterlimit="20" stroke-width=".25" d="M52.692 25.764v0s.127.548.34.888c.86 1.37 9.93 1.67 10.11.906.056-.235-.34-1.003-.37-1.088-.458-1.283-5.33-6.51-6.009-6.611-.724-.11-4.93 4.535-4.07 5.905z"/><path fill="#fcf1aa" d="M62.533 26.56c.172-.728-5.07-6.395-5.76-6.5-.692-.103-4.705 4.328-3.886 5.636.82 1.307 9.474 1.594 9.646.865z"/><path fill="#fcd48a" d="M53.046 24.24l.027.034c.229.261.485.496.766.694.162.113.415.25.522.431.303.514-.143.736-.661.813 2.367.857 8.675.974 8.822.352.17-.728-5.071-6.396-5.761-6.5-.518-.077-2.894 2.383-3.715 4.175z"/><path fill="none" stroke="#802429" stroke-miterlimit="20" stroke-width=".25" d="M62.533 26.56c.172-.728-5.07-6.395-5.76-6.5-.692-.103-4.705 4.328-3.886 5.636.82 1.307 9.474 1.594 9.646.865z"/><path fill="#e05a1d" d="M86.54 22.537c-.087.015-.191-.028-.327-.005-.548.094-1.805 2.818-1.583 2.966.067.046.363.018.394.02.469.017 2.762-.829 2.881-1.022.127-.208-.817-2.054-1.365-1.959z"/><path fill="#b63b22" d="M87.251 23.228c-.36-.014-.711-.071-1.067-.108-.172-.018-.347-.041-.521-.048-.564.827-1.195 2.318-1.033 2.427.067.045.363.018.394.019.469.018 2.762-.828 2.881-1.021.072-.118-.195-.75-.539-1.266-.039 0-.077-.001-.115-.003z"/><path fill="none" stroke="#802429" stroke-miterlimit="20" stroke-width=".25" d="M86.54 22.537v0s-.191-.028-.327-.005c-.548.094-1.805 2.818-1.583 2.966.067.046.363.018.394.02.469.017 2.762-.829 2.881-1.022.127-.208-.817-2.054-1.365-1.959z"/><path fill="#fcf1aa" d="M85.026 25.435c.211.14 2.691-.764 2.813-.961.122-.198-.78-1.96-1.302-1.87-.524.09-1.722 2.689-1.51 2.83z"/><path fill="#fcd48a" d="M86.981 22.83l-.015.004a1.57 1.57 0 00-.319.148c-.058.036-.133.096-.205.107-.202.03-.217-.134-.175-.3-.577.615-1.42 2.52-1.24 2.641.21.141 2.69-.763 2.812-.96.091-.149-.39-1.17-.858-1.64z"/><path fill="none" stroke="#802429" stroke-miterlimit="20" stroke-width=".25" d="M85.026 25.435c.211.14 2.691-.764 2.813-.961.122-.198-.78-1.96-1.302-1.87-.524.09-1.722 2.689-1.51 2.83z"/></svg>