<svg xmlns="http://www.w3.org/2000/svg" width="83" height="53"><path fill="#a8c8b6" d="M82.52 18.77c-1.116-3.197-4.094-5.916-8.466-5.477-4.514.454-7.926 4.045-8.36 7.606-.09.724 1.166.996 1.622.42 1.494-1.885 2.345-4.084 4.985-5.186 2.71-1.131 5.336-.21 6.638 1.98 1.845 3.106.927 6.992-1.429 9.729-1.249 1.45-2.89 2.566-4.867 3.303-1.656.617-3.52.996-4.826 2.104-1.954 1.657-1.996 4.53.6 5.743 1.974.923 3.914-1.486 1.936-2.43-1.15-.546.376-1.671.902-1.964.527-.293 1.137-.464 1.72-.665 1.115-.385 2.162-.778 3.168-1.332 1.702-.938 3.162-2.178 4.275-3.587 2.35-2.971 3.297-6.81 2.101-10.243zM49.042 4.056c.765-.542 1.386-1.226 1.904-1.796.398-.437-.05-.879-.744-.954a94.61 94.61 0 00-10.46-.542c-.708.002-1.25.602-.685.972 1.114.73 2.258 1.495 3.537 2.116C35.89 4.88 32.52 9.916 30.832 14.322c-.234.177-.352.433-.197.674.469.732 1.183.738 2.304.881 2.902.371 6.01.445 8.96.5 5.638.106 11.244-.199 16.793-.843.41-.047.797-.343.784-.624-.207-4.588-3.646-9.458-10.434-10.854z"/><path fill="#93baa6" d="M59.428 51.22c-1.13-1.353-2.245-3.333-3.757-4.384-1.126-.782-2.587-.54-3.999-.53-5.502.045-11.009.048-16.509.166-.162-.15-.452-.22-.66-.052-1.732 1.406-3.436 2.736-5.44 3.886-.365.21-.195.748.22.828 9.743 1.871 19.715 2.158 29.62 1.006.462-.054.8-.592.525-.92z"/><path fill="#a8c8b6" d="M68.82 21.21c-2.605-2.283-6.786-2.957-9.03-5.57-.012-.014-.03-.013-.043-.021.052-.175-.05-.371-.327-.356-4.832.26-9.673.367-14.515.3a216.74 216.74 0 01-7.256-.222c-1.115-.052-2.23-.11-3.344-.177-1.031-.061-2.192-.284-3.197-.052-.007-.117-.163-.234-.314-.16-2.348 1.147-4.571 2.497-6.828 3.758-1.595.89-3.29 1.77-4.43 3.073-2.383 2.723-1.89 6.692-.741 9.706 1.29 3.39 3.657 6.432 6.196 9.284 1.272 1.43 2.614 2.827 4.142 4.083 1.342 1.1 3.079 2.504 4.934 2.953a.332.332 0 00.25-.046c3.535.883 7.367 1.162 11.045 1.134a54.983 54.983 0 005.279-.295c1.822-.19 3.982-.333 5.63-1.027a.237.237 0 00.062-.04c3.469-1.011 6.207-3.548 8.235-5.937 2.75-3.24 4.998-6.905 5.992-10.78.803-3.13 1.148-7.08-1.74-9.608z"/><path fill="#a8c8b6" d="M7.423 29.364c-.172-1.765-.43-3.515-1.15-5.16-.985-2.239-2.897-5.08-5.51-6.745.47-.515.955-1.017 1.478-1.487.624-.56 1.297-1.078 1.816-1.687 5.143 1.527 7.31 6.006 10.6 9.216.871.851 1.84 1.645 2.975 2.263 1.154.63 2.476 1 3.66 1.584 2.741 1.357 3.19 3.953 3.842 6.322.43 1.554.79 3.121 1.084 4.696.152.814.601 2.018.071 2.811-1.01 1.512-4.703.64-6.264.282-5.424-1.24-9.647-4.603-11.484-8.919-.43-1.01-.779-2.086-1.118-3.176z"/><path fill="#c1e9d3" d="M67.303 19.43c.94-2.156 2.2-4.464 5.236-4.965 3.07-.506 5.691.913 7.603 2.737.072.068-.046.17-.119.103-1.804-1.681-4.526-2.977-7.343-2.445-2.797.528-3.874 2.713-4.734 4.703-.14.325-.786.197-.643-.132zm-6.752 23.19c3.484-3.853 6.818-7.746 7.887-12.562.512-2.31.82-5.489-.806-7.56-1.549-1.973-4.28-3.162-6.614-4.41-.07-.039-.014-.126.064-.096 2.356.887 5.083 2.38 6.684 4.073 1.786 1.887 1.69 4.741 1.358 6.988-.756 5.118-4.129 9.973-8.445 13.666-.08.07-.194-.027-.128-.1z"/><path fill="#c1e9d3" d="M62.157 42.172c1.704-1.791 3.48-3.416 4.787-5.445 1.282-1.993 2.14-4.122 2.773-6.308.013-.048.096-.03.087.018-.425 2.235-1.36 4.384-2.638 6.389-1.227 1.923-2.838 4.032-4.91 5.424-.067.046-.155-.02-.1-.078zM39.86 47.86c3.759.104 7.408.486 11.159-.043 3.26-.461 6.414-1.49 9.06-3.126.105-.066.25.078.147.148-5.418 3.687-13.666 4.472-20.381 3.119-.065-.013-.056-.1.015-.098zm-11.728-4.847c1.25.956 2.366 1.94 3.852 2.67a16.676 16.676 0 004.724 1.478c.13.021.076.172-.049.16-3.292-.317-7.033-1.718-8.645-4.229-.039-.06.052-.129.118-.079zM58.814 17.9c1.882.45 3.406 1.407 4.818 2.488 1.469 1.124 2.527 2.191 2.935 3.84.01.038-.054.052-.072.016-.382-.739-.651-1.526-1.217-2.19-.488-.575-1.164-1.069-1.782-1.548-1.39-1.074-2.893-1.992-4.703-2.534-.054-.016-.036-.086.021-.072zm9.546 3.785c1.498 1.081 2.258 2.954 2.056 4.571-.01.07-.131.096-.16.02-.598-1.624-.505-3.163-1.968-4.528-.045-.042.02-.1.073-.063zM23.5 20.49c1.674-1.562 3.79-2.955 5.98-4.007.014-.007.033.01.02.02-1.73 1.32-3.68 2.419-5.285 3.854-1.57 1.405-2.444 2.906-3.379 4.615-.043.08-.219.046-.207-.043.232-1.662 1.555-3.209 2.871-4.439zm-3.479 2.388c.351-.512.833-.94 1.361-1.335.091-.068.227.033.141.108-.472.411-.85.88-1.166 1.378-.252.396-.342.92-.705 1.251-.046.041-.145.025-.159-.032-.118-.453.262-.983.528-1.37zm36.113 25.155c1.086 1.035 1.902 2.319 2.76 3.485.126.172-.196.334-.326.163-.887-1.151-1.92-2.326-2.56-3.585-.029-.056.078-.11.126-.063zm-.064 1.44c.252.383.519.761.782 1.138.238.337.532.662.713 1.021.037.073-.1.14-.162.081-.646-.603-1.056-1.452-1.464-2.174-.04-.07.083-.138.13-.066zm-25.22.427c8.257 2.258 16.69 1.505 25.19 1.003.068-.004.087.088.02.098-8.277 1.23-17.263 1.477-25.33-.713-.297-.08-.18-.47.12-.387zm39.759-16.354c.998-.86 2.376-1.358 3.596-1.972 1.316-.663 2.5-1.461 3.527-2.406 1.997-1.838 3.325-4.22 3.712-6.655.007-.047.105-.038.1.01-.27 2.36-1.226 4.526-2.98 6.43-1.972 2.142-4.883 3.566-7.74 4.808-.167.073-.354-.095-.215-.215zm-1.652 3.471c.08-.056.225-.03.225.07 0 .248-.055.468.055.709.113.244.326.45.618.558.192.072.066.319-.132.277-.427-.091-.76-.322-.921-.66-.14-.293-.17-.732.155-.954z"/><path fill="#d4f0df" d="M49.841 16.041c2.831-.276 5.993.675 8.598-.917.112-.068.238.074.126.152-2.458 1.707-5.953 1.5-8.728.988-.122-.023-.14-.209.004-.223z"/><path fill="#c1e9d3" d="M4.782 15.202c2.507 1.013 4.228 3.043 5.744 4.885 1.845 2.24 3.61 4.556 6.445 6.05 1.337.705 2.782 1.304 3.975 2.175 1.189.868 1.973 1.984 2.556 3.184 1.234 2.542 2.387 5.986 1.05 8.642-.1.2-.448.06-.407-.13a12.487 12.487 0 00-1.693-9.453c-1.625-2.539-4.828-3.162-7.327-4.913-2.017-1.413-3.431-3.283-4.867-5.082-1.597-2-3.26-3.763-5.637-5.178-.131-.078.027-.234.16-.18z"/><path fill="#c1e9d3" d="M8.08 27.257c.03-.11.21-.077.226.021.306 1.906.476 3.637 1.51 5.404.868 1.482 2.075 2.802 3.54 3.924 3.05 2.33 7.504 4.13 11.749 3.905.105-.005.127.126.028.148-2.165.485-4.431-.08-6.448-.75-2.103-.7-4.077-1.683-5.755-2.935-3.024-2.253-5.822-6.249-4.85-9.717z"/><path fill="#c1e9d3" d="M10.727 31.119c.705.893 1.206 1.87 1.98 2.734a13.5 13.5 0 002.96 2.47c.118.074-.04.206-.157.136-2.08-1.248-4.43-3.116-4.954-5.278-.02-.083.11-.14.171-.062zM3.448 18.285c2.32 2.098 3.584 4.783 4.504 7.467.04.117-.167.163-.22.052-.658-1.402-1.24-2.826-2.063-4.173-.667-1.09-1.984-2.108-2.348-3.283-.018-.056.072-.112.127-.063zM48.01 4.45c3.301.689 6.792 3.683 6.62 6.615-.007.103-.193.136-.228.028-.469-1.433-.824-2.715-1.965-3.923-1.166-1.235-2.722-2.042-4.48-2.61-.078-.025-.025-.126.053-.11zm-10.616 5.987c.927-2.377 2.356-5.033 5.375-6.03.09-.03.144.084.066.123-2.77 1.406-3.816 3.7-5.047 6.033-.096.18-.467.06-.394-.126zm9.973-7.109c.195-.152.464-.23.672-.372a2.16 2.16 0 00.569-.57c.047-.069.182-.028.156.05a1.44 1.44 0 01-.49.684c-.21.167-.527.362-.838.335-.072-.006-.132-.078-.07-.127zM27.47 40.703c1.115 1.156 2.056 2.305 3.515 3.213a14.747 14.747 0 005.064 1.964c.102.02.063.145-.039.128-3.44-.58-7.389-2.403-8.655-5.263-.027-.06.073-.084.114-.042zm1.257-.13c.365.253.643.6.97.887.333.292.678.569 1.05.828.05.035-.02.095-.07.06a14.497 14.497 0 01-1.138-.839c-.317-.265-.689-.548-.89-.884-.026-.042.032-.084.078-.052z"/><path fill="#5e7c29" d="M53.392 43.323C49.1 39.088 46.129 34 45.228 28.536c-.02-.11.143-.16.243-.12-.171-.154.06-.448.343-.344 1.532.56 2.46 1.609 3.384 2.713 1.238 1.48 2.394 3.02 3.384 4.62 1.53 2.473 2.626 5.212 1.286 7.903-.088.177-.36.13-.476.015zm-7.9-14.893l.008.004-.007-.004z"/><path fill="#506222" d="M53.713 43.452c-.496-2.753-1.957-5.42-3.238-7.98-1.326-2.648-3.425-4.947-4.9-7.541-.034-.06-.162-.012-.13.048 1.433 2.606 3.527 4.896 4.865 7.534 1.324 2.61 2.37 5.246 3.384 7.94.003.01.021.008.02-.001z"/><path fill="#506222" d="M46.134 31.935a3.927 3.927 0 01.683-1.81c.044-.065-.082-.12-.126-.054-.39.583-.683 1.186-.577 1.862.001.008.018.01.02.002zm1.743 4.012c.184-.586.314-1.178.536-1.756.117-.305.25-.604.4-.899.07-.136.116-.21.085-.357-.009-.053-.12-.049-.127.003-.032.216-.179.421-.268.627a9.41 9.41 0 00-.316.827c-.166.503-.308 1.03-.33 1.554 0 .009.017.01.02.002zm2.396 3.694c.407-.782.359-1.79 1.018-2.472.069-.072-.055-.169-.132-.098-.343.318-.448.717-.566 1.12-.137.473-.314.956-.36 1.443-.001.016.032.022.04.007zm1.995 2.433c.298-.417.475-.966.58-1.438.02-.087-.136-.116-.164-.03-.08.241-.145.487-.226.729-.079.24-.185.48-.238.724-.006.024.033.036.048.015zm.59.557c.041-.216.055-.436.076-.653.026-.24.081-.495.059-.737-.003-.027-.054-.033-.062-.005-.056.213-.047.44-.061.657-.017.244-.045.491-.04.736 0 .013.025.016.028.002zm-1.838-2.025c.123-.387.19-.782.333-1.166.142-.382.385-.735.524-1.115.015-.04-.059-.073-.09-.04-.277.302-.429.713-.562 1.07-.147.397-.274.83-.257 1.247.001.024.044.027.052.004zm-2.101-2.856c.41-1.035.51-2.131.952-3.167.027-.065-.106-.105-.139-.042-.496.962-.795 2.164-.845 3.207-.001.016.026.016.032.002zm-1.989-3.623c.15-.41.253-.832.396-1.243.15-.426.265-.955.573-1.323.102-.122-.207-.219-.229-.069-.065.457-.345.916-.482 1.366-.125.415-.245.84-.29 1.266-.003.016.026.016.031.003zm-1.36-4.108c.126-.425.272-.84.436-1.255.019-.05-.081-.08-.106-.032a3.799 3.799 0 00-.374 1.284c-.002.02.039.023.045.003zm1.731 4.961c.185-.475.31-.965.474-1.444.162-.474.391-.954.497-1.437.01-.043-.066-.07-.09-.028-.248.423-.378.91-.52 1.363-.159.505-.322 1.021-.389 1.541-.002.015.022.02.028.005zm1.224 1.937c-.159-.068.358-1.49.404-1.646.158-.53.331-1.056.502-1.583.028-.084-.131-.113-.161-.03a18.943 18.943 0 00-.556 1.844c-.07.284-.134.57-.193.855-.033.164-.145.404-.058.564a.02.02 0 00.024.011.695.695 0 01.037-.01c.003 0 .003-.004.001-.005zm1.205 2.073c.25-1.095.52-2.175.813-3.263.024-.087-.127-.111-.16-.03-.422 1.017-.7 2.214-.676 3.292 0 .01.02.012.022.001zm1.795 2.198c.185-.294.3-.623.419-.937.118-.308.294-.643.296-.968.001-.03-.05-.037-.067-.012-.183.271-.236.606-.337.903-.113.333-.257.668-.329 1.01-.002.007.013.012.018.004zm-5.014-8.37c.156-.394.235-.816.352-1.219.104-.359.318-.754.32-1.122 0-.07-.11-.079-.15-.028-.25.321-.31.797-.399 1.167-.092.39-.187.801-.178 1.198.001.026.045.027.055.004z"/><path fill="#738c29" d="M53.83 43.112c1.059-3.108-.092-5.804-1.882-8.572a30.466 30.466 0 00-3.288-4.246c-.827-.886-1.746-1.882-3.047-2.321-.117-.039-.288.065-.191.168 1.916 2.043 3.88 3.953 5.426 6.217a30.21 30.21 0 012.395 4.241c.71 1.515.604 2.917.452 4.502-.007.066.115.07.136.011z" opacity=".7"/><path fill="#506222" d="M45.81 30.953c.061-.28.11-.558.198-.833.087-.273.265-.53.336-.803.006-.024-.036-.046-.056-.024-.188.216-.284.522-.364.776a2.777 2.777 0 00-.13.883c0 .007.014.009.015 0zM54.002 42.5c-.152-.141-.312-.277-.46-.422-.127-.125-.237-.27-.388-.375-.017-.013-.053 0-.042.02.166.303.556.595.86.805.022.016.05-.01.03-.027zm.178-.634c-.133-.19-.35-.343-.525-.507a11.646 11.646 0 01-.658-.678c-.048-.054-.158 0-.11.056.328.384.766.919 1.29 1.131.001 0 .003-.001.002-.002zm.292-1.093c-.604-.525-1.374-1.135-2.135-1.502-.053-.026-.092.034-.056.066.575.543 1.445 1.053 2.183 1.444.007.004.012-.004.008-.008zm-2.678-2.286c.47-.063 1.005.184 1.413.352.353.146.672.327 1.006.5.05.025.103-.039.06-.069-.419-.28-.922-.49-1.42-.656-.309-.103-.753-.302-1.064-.134-.005.003 0 .007.004.007zm2.143-.194a14.85 14.85 0 00-1.308-.565c-.396-.155-.8-.344-1.228-.432-.068-.014-.093.06-.04.089.385.203.853.327 1.272.477.428.154.854.317 1.291.452.017.005.03-.013.013-.021zm-.955-2.195c-.84-.28-1.595-.659-2.527-.412-.035.01-.029.055.009.052.408-.034.773-.1 1.182-.016.454.094.877.275 1.315.41.026.007.048-.025.021-.034zm-.922-1.403c-.347-.117-.728-.18-1.096-.236-.362-.055-.764-.12-1.134-.099-.048.003-.059.062-.009.071.366.061.748.071 1.118.12.371.05.74.127 1.112.164.014.001.024-.015.01-.02zm-.726-1.024c-.316-.067-.648-.09-.973-.115-.312-.023-.676-.082-.981-.013-.064.014-.054.086.004.1.289.067.627.036.927.052.337.018.68.05 1.018.018.028-.003.034-.036.005-.042zm-.662-.782c-.6-.105-1.277-.086-1.879-.007-.076.009-.078.104.003.1.313-.014.624-.05.937-.064.313-.016.624.005.936-.003.018 0 .022-.023.003-.026zm-.64-.92a2.99 2.99 0 00-.907-.09c-.3.009-.658.02-.936.111-.05.016-.037.068.014.072.3.022.623-.06.926-.076.302-.016.595.024.897.038.04.002.039-.045.006-.055zm-.59-.686a3.497 3.497 0 00-1.692.088c-.064.02-.036.1.031.084.278-.07.551-.138.845-.153.271-.014.541.012.812.015.025 0 .027-.03.004-.034zm-.585-.768c-.542-.126-1.296-.178-1.831-.012-.045.014-.035.066.014.067.283.009.576-.052.862-.06.316-.008.628.022.942.048.034.003.047-.035.013-.043zm-.476-.612a2.155 2.155 0 00-.923-.1c-.166.014-.64.004-.678.168-.006.031.035.057.07.04.188-.096.541-.105.76-.118a4.48 4.48 0 01.76.037c.018.002.031-.02.011-.027z"/><path fill="#506222" d="M47.893 29.36c-.246-.073-.522-.09-.782-.098-.25-.01-.55-.027-.79.04-.044.012-.05.073.003.079.245.027.504-.016.752-.013.27.002.546.035.814.015.018-.001.018-.02.003-.023zm-.719-.51a3.978 3.978 0 00-.579-.083c-.169-.014-.389-.04-.542.029-.037.017-.023.06.015.07.162.036.361-.004.532.005.19.01.378.035.568.026.033-.002.038-.04.006-.047zm6.342 8.295c-.37-.146-.777-.24-1.169-.34-.433-.109-.876-.255-1.324-.306-.1-.012-.17.105-.066.145.375.141.797.21 1.195.301.436.101.885.216 1.336.262.043.003.072-.044.028-.062zm-1.011-1.779c-.704-.248-1.585-.356-2.347-.405a.053.053 0 00-.012.105c.39.057.786.09 1.176.147.39.057.78.145 1.172.178.016.001.03-.018.011-.025zm-.753-1.231c-.792-.151-1.564-.212-2.33-.459-.08-.026-.144.072-.063.098.737.235 1.59.444 2.39.38.013-.001.015-.016.002-.019zm-.732-.861c-.355-.098-.739-.134-1.109-.18-.329-.04-.679-.11-1.012-.094-.049.003-.054.057-.009.068.353.087.754.092 1.12.134.333.038.67.093 1.007.098.02 0 .02-.022.003-.026zm-.651-.846a8.644 8.644 0 01-1.116-.127c-.34-.069-.65-.192-.98-.278-.046-.012-.063.043-.027.061.584.303 1.444.418 2.125.39.036-.002.032-.043-.002-.045zm-.613-.761c-.235-.097-.536-.07-.79-.062-.369.012-.69.007-1.035-.113-.058-.02-.099.043-.045.07.25.127.558.135.844.126.34-.01.686-.005 1.025-.019.002 0 .003-.002.001-.002zm-.672-.747c-.263-.06-.546-.061-.818-.061-.261 0-.577-.02-.822.06-.034.01-.042.059.002.064.25.025.522-.028.776-.035.286-.007.574.016.859-.001.019-.001.022-.022.003-.026z"/><path fill="#a9a134" d="M32.12 29.744c-.053-.018-.132-.019-.188-.03-2.166-.43-2.496-.427-2.763-.42-.566.01.949.302.739.273 1.496.207 1.844.39 2.786.64 4.954 1.315 10.542 1.524 15.475.446.147-.032.082-.238-.07-.213-5.767.978-11.287.814-15.978-.696z"/><path fill="#a9a134" d="M40.008 29.908c1.65.197 3.106.657 4.66 1.118.085.025.131-.07.054-.105-1.403-.65-3.114-.933-4.703-1.07-.045-.003-.055.052-.01.057zm-2.53 2.236c1.501.064 3.371-.216 4.644-.903.096-.053.002-.157-.095-.135-.755.178-1.47.45-2.233.618-.765.168-1.536.253-2.315.364-.036.005-.042.054 0 .056zM35.4 29.265a92.629 92.629 0 013.213 1.798c.088.05.192-.057.103-.11a61.31 61.31 0 00-3.253-1.755c-.055-.03-.121.037-.063.067zm-3.732 1.871c1.392.105 3.036.127 4.33-.361.072-.027.047-.122-.037-.113-1.46.16-2.787.463-4.285.428-.036-.001-.046.044-.008.046zm-1.795-3.629c.995.976 2.206 2.159 3.597 2.757.073.032.116-.053.067-.092-.54-.446-1.213-.798-1.79-1.216a20.723 20.723 0 01-1.81-1.49c-.034-.03-.097.008-.064.04z"/><path fill="#a9a134" d="M41.306 31.485c-.49.61-1.24 1.077-2.09 1.3-1.15.303-2.41.163-3.577.418.123-.587.722-1.048 1.395-1.28.671-.23 1.415-.273 2.142-.312l2.143-.115z"/><path fill="#a9a134" d="M41.279 31.468a4.31 4.31 0 01-2.1 1.246c-.51.13-1.03.166-1.556.202-.324.022-1.115.19-1.406.1-.333.092-.364-.051-.096-.43.19-.2.422-.35.696-.454.526-.253 1.119-.332 1.717-.385.93-.081 1.866-.1 2.796-.175.12-.01.095-.153-.023-.15-1.903.05-5.156-.17-5.782 1.768-.018.056.06.12.129.108 2.167-.407 4.289-.094 5.68-1.796.024-.03-.028-.064-.055-.035zm-6.017-.571c-.77.608-1.592 1.239-2.63 1.454-.954.197-1.96.013-2.899-.222.492-.761 1.39-1.341 2.412-1.555 1.021-.215 2.15-.061 3.03.412z"/><path fill="#a9a134" d="M35.236 30.868c-.608.443-1.227.935-1.974 1.22-.707.271-2.445.564-2.887-.12-.291-.453.122-.598.557-.854a4.22 4.22 0 011.568-.532c.94-.123 1.84.077 2.643.465.09.043.154-.079.065-.122-2.002-.969-4.371-.453-5.553 1.176-.023.03.004.082.044.092 1.02.243 2.088.448 3.135.177.993-.256 1.754-.855 2.463-1.452.034-.029-.024-.076-.061-.05zm-2.906-1.473c-1.123-.257-2.328-.558-3.034-1.315-.273-.292-.451-.634-.671-.955a5.237 5.237 0 00-.91-1.004c1.052-.09 2.149.126 2.994.644.844.517 1.412 1.342 1.449 2.204.005.116-.081.28-.212.234z"/><path fill="#a9a134" d="M32.34 29.377c-.84-.202-1.76-.413-2.452-.874-.737-.49-1.012-1.216-1.537-1.835-.328-.387-.599-.554.217-.488a4.9 4.9 0 011.603.405c.504.225.913.525 1.252.905.085.096 1.105 1.598.517 1.67-.067.01-.054.093.012.085.817-.1-.205-1.693-.449-1.952-.903-.958-2.36-1.326-3.797-1.23-.052.002-.085.06-.049.093.775.69 1.12 1.653 1.965 2.275.746.55 1.76.772 2.704.982.026.006.038-.03.013-.036zm5.372 1.089c-.943.042-1.867-.28-2.62-.743-.755-.462-1.365-1.061-1.968-1.654.341.14.747.02 1.127-.011.447-.035.897.06 1.302.216 1.057.402 1.862 1.22 2.116 2.15z"/><path fill="#a9a134" d="M37.716 30.44a5.039 5.039 0 01-2.695-.831c-.205-.133-1.772-1.26-1.697-1.42l.824-.037a3.46 3.46 0 011.762.4 3.64 3.64 0 011.707 1.889c.02.048.118.028.106-.022-.176-.766-.68-1.45-1.45-1.915a3.849 3.849 0 00-1.207-.486c-.636-.125-1.299.15-1.91-.01-.07-.018-.15.046-.095.1 1.188 1.16 2.628 2.474 4.654 2.385.036-.002.037-.051.001-.052zm5.792.119c-1.12.294-2.388.187-3.409-.288-.71-.33-1.305-.828-2.064-1.08.79-.22 1.624-.401 2.452-.314.417.044.82.155 1.207.289.772.267 1.563.694 1.76 1.36z"/><path fill="#a9a134" d="M43.505 30.535c-.955.12-1.869.181-2.79-.11-.6-.189-1.652-.655-2.09-1.07-.281-.269-.595-.16.458-.336a5.01 5.01 0 011.546-.043c1.115.16 2.325.675 2.727 1.583.045.107.24.04.197-.067-.742-1.865-3.706-1.842-5.55-1.368-.078.02-.066.11-.003.134 1.035.405 1.825 1.118 2.946 1.386.835.2 1.763.21 2.573-.064.03-.01.018-.049-.015-.045zm2.497.899c-.195.658-1.053 1.1-1.74 1.48-.689.377-1.479.61-2.259.84.103-.722.697-1.359 1.453-1.744.756-.385 1.657-.54 2.546-.576z"/><path fill="#a9a134" d="M45.968 31.423c-.275.618-.9.999-1.55 1.348a9.558 9.558 0 01-.99.468c-.174.068-.986.44-1.156.38-.56-.202.733-1.264 1.033-1.443.8-.477 1.752-.591 2.703-.706.046-.005.052-.07.001-.07-1.826-.02-3.758.764-4.07 2.347-.009.042.044.072.09.058 1.37-.41 3.555-1.066 4.008-2.358.013-.037-.052-.062-.069-.024z"/><path fill="#a9a134" d="M44.64 32.115c1.008-.415 2.062-.914 2.975-1.456.051-.03.003-.106-.057-.082a23.066 23.066 0 00-2.945 1.501c-.024.014 0 .048.026.037zm-17.613-2.811c1.622.049 3.12.306 4.713.515.052.007.073-.055.025-.072-1.444-.506-3.184-.597-4.737-.49-.032.003-.034.046-.001.047z"/><path fill="#a9a134" d="M30.09 29.506c-.759-.093-1.487.238-2.237.37-1.309.23-2.685-.162-3.776-.795 1.216-.292 2.51-.584 3.73-.31.71.159 1.343.5 2.051.668z"/><path fill="#a9a134" d="M30.093 29.487c-1.78-.124-3.48.948-5.196-.083-.868-.521.254-.521.843-.6.545-.071 1.094-.111 1.645-.04.881.117 1.61.545 2.465.717.058.012.081-.062.028-.081-.93-.333-1.849-.751-2.883-.8-1.002-.046-1.996.195-2.949.417-.06.014-.069.09-.02.118.823.454 1.732.8 2.737.86 1.17.07 2.18-.477 3.33-.47.025 0 .025-.036 0-.038z"/><path fill="#948620" d="M24.708 29.096c.687.293 1.575.235 2.335.278.848.048 1.696.094 2.547.1.018 0 .018-.024 0-.026-1.615-.178-3.27-.151-4.874-.372-.016-.002-.02.015-.008.02zm7.252-.024c-1.207-.818-1.768-2.462-3.477-2.715-.028-.005-.043.034-.013.04 1.678.41 2.195 1.86 3.481 2.684.007.005.016-.005.01-.01z"/><path fill="#beb234" d="M24.421 29.18c.93.91 3.21.996 4.43.478.095-.041.06-.147-.046-.145-.778.01-1.524.099-2.299-.02-.682-.105-1.308-.36-1.997-.434-.077-.008-.14.069-.088.12zm7.527-.004c-.651-.638-1.624-.819-2.17-1.573-.461-.639-.848-1.166-1.69-1.5-.078-.031-.136.05-.096.101.525.68.799 1.423 1.512 2.01.66.544 1.595.605 2.28 1.094.1.071.248-.049.164-.132zm1.341-1.008c.447.22.937.164 1.432.256.844.158 1.35.674 2.024 1.056.06.035.166-.014.125-.077-.29-.45-.835-.883-1.398-1.102a2.787 2.787 0 00-.892-.19c-.418-.018-.791.072-1.197-.072-.093-.033-.186.084-.094.129zm1.92 2.692c-.815.15-1.354.567-2.1.851-1.005.382-2.037.292-3.098.41-.046.005-.035.056.009.056.993-.006 1.858.402 2.85.147.944-.243 1.539-.939 2.386-1.319.083-.037.064-.166-.047-.145zm5.86.617c-1.397.208-5.002-.191-5.353 1.468-.027.128.158.2.278.134.853-.48 1.406-.953 2.486-1.123.876-.14 1.76-.176 2.624-.371.075-.016.04-.12-.035-.108zm1.199 2.02c.563-1.265 1.954-1.453 3.35-1.778.135-.032.057-.18-.06-.18-1.457-.004-3.018.736-3.503 1.883-.049.115.161.19.213.075zm-4.156-4.2a8.138 8.138 0 002.146 1.188c.944.337 1.807.225 2.788.095.092-.012.089-.115.002-.132-1.114-.214-2.103-.331-3.07-.861-.52-.286-1.174-.56-1.814-.442-.092.017-.12.099-.052.152z"/><path fill="#948620" d="M30.325 32.019c1.517-.407 3.063-.652 4.61-.957.032-.006.028-.045-.006-.042-1.563.193-3.151.479-4.614.979-.015.006-.006.024.01.02zm7.275-1.576c-.626-.462-1.017-1.017-1.74-1.4a9.63 9.63 0 00-1.998-.779c-.048-.013-.077.04-.032.06.718.297 1.473.512 2.142.888.624.35 1.033.861 1.615 1.243.01.006.021-.006.012-.012zm-1.568 2.578c.026-.33 1.3-.549 1.605-.608.473-.092.957-.139 1.435-.208.758-.11 1.476-.265 2.11-.635.024-.014 0-.049-.026-.038-1.19.468-2.475.47-3.717.774-.262.064-1.5.365-1.43.715.002.01.023.011.023 0zm7.536-2.391c-1.306-.814-2.98-1.362-4.622-1.465-.04-.003-.048.043-.01.049 1.71.264 3.134.688 4.616 1.434.014.006.03-.01.016-.017zm-1.108 2.838a59.551 59.551 0 013.038-1.752c.02-.011.002-.038-.02-.03-1.123.409-2.202 1.032-3.04 1.763-.015.012.006.028.021.019zm-15.117-3.811c.198-.047.424-.158.557-.287.02-.019-.012-.041-.036-.029-.092.045-.176.102-.266.151-.089.049-.187.086-.277.134-.023.012 0 .036.022.031zm-1.179-.729c.097.1.212.186.336.263.107.067.242.15.376.175.023.004.033-.022.017-.034-.107-.077-.25-.125-.37-.193-.12-.07-.23-.147-.34-.225-.012-.008-.028.005-.02.014zm3.798-.832c.14.056.303.064.454.086.175.026.348.05.525.062.034.003.05-.037.017-.048-.283-.092-.688-.186-.991-.123-.015.002-.02.017-.005.023zm.173-.756c.127-.243.004-.523-.237-.684-.02-.014-.055.01-.034.028.216.179.271.403.23.646-.005.02.031.029.041.01z"/><path fill="#948620" d="M33.114 31.833c.273-.104.655-.323.76-.567.009-.021-.02-.044-.044-.028-.124.082-.213.2-.327.292a3.441 3.441 0 01-.411.272c-.02.012-.001.039.022.03zm-2.146-.393c.238 0 .478.007.713.037.21.027.405.097.612.124.034.005.06-.035.028-.052-.367-.2-.942-.206-1.356-.125-.013.003-.01.017.003.017zm4.772-1.663c.34.044.8.074 1.129-.017.03-.008.024-.049-.008-.052-.173-.014-.35.017-.523.026-.2.01-.4.012-.597.022-.015.001-.015.02-.001.021zm-.1-.839a1.282 1.282 0 00-.2-.597c-.023-.033-.09-.024-.084.018.035.2.123.419.26.587.007.009.023 0 .023-.008zm3.446 3.575c.116-.047.213-.127.31-.197.086-.062.205-.12.254-.208.014-.023-.017-.046-.044-.037-.112.034-.2.134-.283.201-.087.071-.186.141-.25.228-.004.007.002.017.013.013zm-2.402-.319c.303-.003.604-.013.906.002.265.014.527.065.79.073.036.002.06-.042.02-.054-.51-.155-1.195-.139-1.72-.047-.02.004-.017.026.004.026zm4.653-1.885c.33.038.72-.031 1.002-.176.05-.025.003-.088-.05-.071-.154.05-.301.107-.463.143-.161.035-.324.047-.488.066-.025.004-.027.035-.001.038zm-1.115-1.281c.113.137.294.242.445.349.158.11.307.227.49.309.022.01.044-.016.03-.032-.13-.132-.298-.233-.459-.34-.154-.104-.312-.23-.495-.297-.009-.004-.016.005-.01.01zm3.509 3.942c.197-.06.371-.222.496-.356.133-.144.262-.312.285-.495.003-.023-.038-.042-.055-.019-.117.148-.193.313-.317.458-.125.146-.296.256-.423.397-.007.008.002.018.014.015z"/><path fill="#beb234" d="M28.41 25.924c-.002-.013-.026-.01-.024.002.002.014.026.011.024-.002z"/><path fill="#a9a134" d="M39.72 24.47c-.022-.044-.076-.091-.106-.132-1.13-1.569-1.363-1.76-1.553-1.912-.404-.324.394.767.272.624.862 1.02.943 1.35 1.38 2.077 2.293 3.818 6 7.237 10.382 9.376.131.064.267-.118.14-.188-4.877-2.699-8.576-6.047-10.515-9.846z"/><path fill="#a9a134" d="M45.069 29.204c.976 1.104 1.586 2.278 2.262 3.508.037.068.152.029.13-.041-.406-1.275-1.348-2.474-2.335-3.5-.028-.03-.083.004-.057.033zm-3.729.075c.99.924 2.537 1.824 4.027 2.091.115.02.14-.108.053-.149-.682-.319-1.418-.547-2.098-.878-.68-.331-1.293-.723-1.93-1.103-.03-.018-.078.014-.052.039zm1.084-3.223c.251 1.04.463 2.086.658 3.135.016.087.183.073.167-.015a40.557 40.557 0 00-.72-3.13c-.015-.052-.118-.044-.105.01zm-4.244-.883c.877.89 2.003 1.867 3.333 2.285.074.023.141-.058.074-.1-1.158-.745-2.347-1.31-3.36-2.213-.025-.022-.07.004-.047.028zm1.942-3.578c-.165 1.262-.361 2.795.08 4.027.024.064.128.03.129-.026.016-.626-.144-1.265-.177-1.894-.036-.7-.015-1.4.049-2.097.003-.042-.075-.053-.081-.01z"/><path fill="#a9a134" d="M44.586 31.062a4.786 4.786 0 01-2.6-.319c-1.065-.462-1.821-1.298-2.856-1.804.601-.337 1.423-.307 2.095-.075.672.233 1.226.64 1.766 1.038l1.593 1.176z"/><path fill="#a9a134" d="M44.583 31.034c-.9.081-1.754-.007-2.56-.363-.468-.207-.861-.488-1.26-.77-.244-.175-.944-.522-1.068-.755-.311-.13-.207-.248.313-.355a2.24 2.24 0 01.884.092c.588.132 1.072.424 1.534.737.719.488 1.387 1.023 2.1 1.516.093.064.202-.05.118-.118-1.372-1.08-3.444-3.137-5.582-2.156a.085.085 0 00-.005.151c1.866.987 3.068 2.448 5.533 2.077.044-.006.038-.06-.007-.056zm-3.689-3.921c-1.07-.03-2.197-.07-3.109-.53-.838-.42-1.377-1.137-1.826-1.851 1.014-.242 2.15-.12 3.05.33.9.447 1.55 1.216 1.746 2.061z"/><path fill="#a9a134" d="M40.9 27.077c-.812-.048-1.675-.068-2.445-.307-.732-.226-2.2-1.04-1.906-1.776.195-.485.61-.344 1.139-.267.56.081 1.103.27 1.559.548a3.196 3.196 0 011.432 1.872c.025.082.176.034.153-.048-.543-1.847-2.646-2.876-4.903-2.433-.041.008-.068.06-.05.09.499.767 1.06 1.535 2.028 1.96.917.403 1.973.431 2.992.431a.035.035 0 00.002-.07zm-.727-2.729c-.557-.837-1.132-1.752-.957-2.694.067-.363.243-.705.372-1.057.146-.4.23-.815.25-1.232.811.553 1.385 1.346 1.518 2.201.132.855-.197 1.762-.929 2.385-.099.084-.303.147-.353.04z"/><path fill="#a9a134" d="M40.195 24.342c-.407-.633-.862-1.319-.938-2.045-.083-.773.364-1.439.542-2.178.113-.462.07-.737.58-.213.353.362.61.776.76 1.222.155.451.176.9.077 1.363-.025.117-.634 1.76-1.11 1.466-.052-.033-.117.033-.064.066.657.408 1.346-1.299 1.404-1.623.213-1.196-.48-2.306-1.563-3.08-.038-.028-.113-.008-.116.037-.067.932-.675 1.805-.633 2.735.038.819.546 1.567 1.02 2.268.013.018.053.001.04-.018zm2.785 3.906c-.695-.523-1.056-1.288-1.173-2.053-.118-.764-.016-1.538.086-2.304.113.297.502.45.794.652.341.237.57.567.716.913.383.899.223 1.94-.417 2.737z"/><path fill="#a9a134" d="M43.005 28.232c-.687-.61-1.049-1.335-1.147-2.158-.024-.213-.124-1.916.068-1.983l.605.457c.464.348.752.81.876 1.311.2.803-.016 1.6-.471 2.316-.03.044.057.087.093.046.55-.636.8-1.408.673-2.183a2.465 2.465 0 00-.412-1.046c-.333-.46-1.037-.656-1.322-1.125-.032-.053-.145-.057-.153.013-.194 1.505-.346 3.263 1.144 4.388.026.02.07-.014.046-.036zm3.928 3.475c-1.038-.45-1.827-1.268-2.12-2.197-.205-.647-.18-1.34-.488-1.96.744.31 1.484.671 1.984 1.217.252.274.434.587.586.907.304.64.478 1.4.03 1.978z"/><path fill="#a9a134" d="M46.952 31.69c-.77-.477-1.461-.97-1.847-1.712-.25-.483-.574-1.423-.512-1.969.039-.353-.274-.46.613.034.433.241.815.52 1.114.875.637.764 1.026 1.833.506 2.7-.061.101.134.168.197.07 1.122-1.734-.962-3.455-2.663-4.205-.071-.03-.14.038-.118.093.364.887.288 1.846.833 2.69a3.668 3.668 0 001.848 1.463c.029.01.055-.024.029-.04zm.948 2.089c-.714.343-1.7.148-2.511.008-.812-.138-1.567-.438-2.313-.735.707-.442 1.68-.538 2.546-.363.864.174 1.63.593 2.279 1.09z"/><path fill="#a9a134" d="M47.887 33.75c-.734.27-1.505.168-2.265.03a10.407 10.407 0 01-1.1-.254c-.18-.053-1.075-.27-1.14-.412-.212-.468 1.622-.45 1.988-.4.976.137 1.741.616 2.503 1.093.037.023.098-.02.063-.05-1.254-1.082-3.288-1.668-4.899-.75-.043.025-.032.077.012.094 1.315.518 3.414 1.34 4.865.707.041-.018.02-.075-.027-.058z"/><path fill="#a9a134" d="M46.352 33.454c1.068.302 2.24.572 3.354.729.062.009.094-.072.031-.09-1.07-.3-2.256-.525-3.37-.68-.029-.003-.043.033-.015.04zM36.56 21.178c1.087.984 1.903 2.041 2.828 3.12.03.036.101.006.081-.035-.559-1.199-1.692-2.282-2.868-3.117-.023-.017-.063.012-.04.032z"/><path fill="#a9a134" d="M38.516 23.113c-.446-.509-1.245-.706-1.884-1.053-1.114-.606-1.726-1.686-1.929-2.765 1.103.51 2.26 1.063 2.87 1.968.354.528.494 1.136.84 1.667z"/><path fill="#a9a134" d="M38.535 23.102c-1.131-1.129-3.257-1.379-3.546-3.102-.146-.872.635-.214 1.114.077.444.27.86.562 1.18.936.513.597.644 1.322 1.088 1.943.03.042.11.003.09-.04-.354-.777-.627-1.607-1.304-2.246-.657-.619-1.56-1.034-2.42-1.438-.055-.026-.128.023-.117.071.174.798.5 1.572 1.148 2.202.754.734 1.938.944 2.734 1.623.017.015.05-.009.033-.026z"/><path fill="#948620" d="M35.129 19.675c.22.607.89 1.085 1.38 1.561.549.53 1.099 1.06 1.686 1.562.013.012.034-.005.023-.017-.968-1.071-2.144-2.021-3.068-3.115-.007-.01-.025-.001-.021.01zm5.071 4.232c-.121-1.276.934-2.75-.033-3.927-.017-.02-.061-.002-.047.02.809 1.268-.105 2.581.066 3.908 0 .007.015.006.014-.001z"/><path fill="#beb234" d="M34.855 19.566c-.154 1.178 1.359 2.573 2.664 2.928.102.027.17-.068.096-.129-.551-.447-1.148-.823-1.583-1.36-.383-.472-.595-1.016-1.01-1.472-.046-.05-.158-.034-.167.033zm5.245 4.406c.106-.826-.412-1.522-.129-2.367.24-.715.436-1.308.142-2.033-.028-.068-.138-.046-.156.013-.23.781-.694 1.46-.714 2.284-.019.766.58 1.357.627 2.1.005.106.215.11.23.003zm1.82.084c.116.416.508.663.77 1.016.45.605.35 1.26.483 1.922.011.06.127.087.154.02a2.205 2.205 0 00-.004-1.587 1.865 1.865 0 00-.455-.655c-.275-.258-.614-.412-.77-.751-.035-.078-.203-.05-.179.035zm-1.03 2.999c-.7-.374-1.44-.398-2.21-.637-1.037-.323-1.677-.99-2.52-1.53-.036-.023-.074.019-.043.044.698.578.941 1.369 1.856 1.772.871.385 1.896.248 2.821.479.09.023.191-.077.095-.128zm3.538 3.863c-1.157-.673-3.316-3.063-5.019-2.113-.13.073-.067.232.077.255 1.015.167 1.816.16 2.718.674.732.417 1.38.909 2.153 1.28.067.032.134-.06.071-.096zm-.942 2.109c1.506-.55 2.639.133 3.896.724.123.058.2-.092.119-.16-1.013-.856-2.75-1.255-4.097-.74-.135.051-.055.226.082.176zm.8-5.36c.012.684.155 1.44.45 2.084.36.79 1.06 1.216 1.858 1.7.076.046.163-.028.117-.09-.587-.802-1.174-1.463-1.38-2.399-.11-.503-.325-1.077-.876-1.37-.078-.042-.171-.002-.17.075z"/><path fill="#948620" d="M36.47 25c1.413.606 2.706 1.34 4.052 2.036.027.014.058-.016.032-.033-1.259-.782-2.616-1.512-4.075-2.021-.015-.005-.025.013-.01.019zm6.45 3.165c-.028-.688.187-1.303.02-1.995a6.17 6.17 0 00-.706-1.712c-.022-.037-.089-.017-.074.023.239.628.574 1.22.71 1.873.127.61-.037 1.206.032 1.812 0 .011.018.01.018 0zm-3.358.878c.31-.215 1.39.379 1.653.517.41.212.787.463 1.182.695.624.368 1.26.68 2.027.794.03.004.044-.033.015-.042-1.239-.371-2.135-1.123-3.269-1.638-.239-.11-1.365-.625-1.624-.34-.006.009.006.02.016.014zm7.35 2.749c-.192-1.333-.876-2.694-1.93-3.729-.024-.024-.07.002-.05.03.959 1.185 1.579 2.314 1.955 3.701.004.013.027.012.025-.002zm-3.267 1.327c1.234.158 2.438.338 3.657.56.024.004.033-.025.012-.033a11.61 11.61 0 00-3.668-.553c-.019 0-.019.024 0 .026zM36.47 21.61c.18.083.433.139.64.127.031-.002.027-.036.001-.042-.105-.022-.212-.032-.319-.05-.105-.018-.206-.05-.31-.07-.027-.004-.033.026-.013.035zm-.181-1.199c-.02.126-.016.254.003.38.017.11.037.246.108.341.013.018.043.005.042-.013-.007-.117-.064-.234-.087-.35-.022-.119-.031-.238-.041-.358-.001-.01-.023-.012-.025 0zm3.377 1.646c.048.12.154.222.24.326.1.12.198.238.312.35.02.022.068.005.054-.023-.117-.23-.317-.533-.583-.667-.011-.007-.028 0-.023.014zm.786-.425c.302-.095.462-.362.437-.616-.003-.021-.048-.023-.05 0-.006.252-.164.44-.408.585-.02.01-.002.038.02.03z"/><path fill="#948620" d="M38.575 26.505c.283.088.74.16 1.028.051.025-.009.025-.043-.006-.046-.16-.015-.324.015-.484.012-.178-.003-.351-.027-.525-.05-.025-.005-.036.026-.013.033zm-1.15-1.53c.166.14.328.284.466.443.122.141.196.305.316.445.021.023.072.01.066-.02-.08-.353-.475-.695-.834-.88-.012-.007-.023.004-.014.012zm4.787 1.638c.196.229.49.52.8.649.03.013.06-.02.04-.041-.108-.11-.258-.193-.386-.29-.146-.11-.288-.224-.435-.333-.012-.007-.028.005-.02.015zm.668-.645c.17-.143.306-.345.384-.533.014-.035-.04-.069-.073-.036-.15.16-.283.364-.335.561-.003.011.014.015.023.008zm-.745 4.51c.122.035.26.036.39.044.114.008.25.036.36.004.028-.008.027-.042.001-.052-.108-.041-.257-.022-.374-.024-.123-.002-.254-.012-.374.012-.009 0-.014.013-.003.016zm-1.391-1.629c.214.175.432.345.629.533.173.164.309.352.485.512.025.023.078.006.062-.026-.218-.406-.708-.796-1.155-1.04-.018-.01-.036.009-.021.02zm4.897 1.413c.196.22.53.4.854.465.056.012.08-.061.027-.08-.152-.055-.305-.101-.448-.171-.143-.07-.268-.157-.4-.24-.02-.013-.049.008-.033.026zm.351-1.546c-.042.162-.008.34.004.504.012.169.014.338.068.501.007.021.046.016.049-.004.025-.169-.003-.337-.02-.505-.016-.163-.014-.343-.083-.497-.003-.008-.016-.006-.018.001zm-1.024 4.801c.191.074.454.063.66.042.22-.022.456-.063.633-.177.022-.014.011-.052-.022-.046-.21.035-.41.106-.624.134-.214.029-.43.005-.643.029-.012 0-.014.014-.004.018z"/><path fill="#beb234" d="M40.495 19.636c.01-.01-.01-.023-.02-.013s.01.022.02.012z"/><path fill="#847b29" d="M48.508 32.718c1.54 1.293 4.134 1.208 6.227.631 1.892-.521 3.65-1.367 5.125-2.467 1.54-1.149 1.777-1.939 2.978-3.33-2.947.145-5.068-.349-7.836.49-2.766.838-5.444 2.425-6.494 4.676z"/><path fill="#847b29" d="M48.455 32.768c2.02 1.819 5.32 1.27 7.76.367 1.5-.557 2.902-1.312 4.086-2.252 1.177-.933 1.899-2.118 2.814-3.214.136-.163-.075-.38-.288-.371-3.09.11-5.977-.252-8.881.839-2.487.933-4.562 2.416-5.566 4.527-.067.14.179.25.259.109 1.219-2.18 3.792-3.744 6.524-4.53 2.52-.725 5.093-.35 7.828-.51l-.287-.371c-1.716 2-2.976 3.637-5.603 4.843-2.516 1.155-5.963 1.994-8.502.447-.083-.051-.214.053-.144.116z"/><path fill="#968d41" d="M49.443 33.12c2.093 1.008 4.866.663 6.948-.182 2.776-1.126 4.736-2.95 6.317-5.059.113-.15-.151-.266-.29-.164-2.025 1.477-4.328 2.897-6.855 3.75-1.992.672-4.052.987-6.1 1.484-.1.024-.102.13-.02.17z" opacity=".7"/><path fill="#665b1c" d="M62.89 27.583c-4.717 1.815-8.81 4.637-14.17 5.028-.1.007-.092.12.006.125 2.364.129 4.622-.58 6.69-1.453 2.57-1.087 5.145-2.29 7.526-3.633.052-.03.003-.088-.052-.067z"/><path fill="#665b1c" d="M61.483 29.415c-.509-.053-.98-.187-1.476-.28-.049-.01-.075.047-.03.067.446.196 1 .251 1.5.265.036.001.043-.048.006-.052z"/><path fill="#665b1c" d="M60.058 29.074c-.185-.094-.003-.596.034-.732.054-.203.13-.4.162-.605.011-.063-.087-.096-.128-.038-.195.274-.252.601-.29.913-.02.174-.067.451.178.532.058.019.098-.043.044-.07zm-1.064 2.387c-.4-.117-.833-.17-1.24-.274-.447-.114-.883-.253-1.32-.392-.076-.024-.133.06-.06.094.738.345 1.752.657 2.614.617.034 0 .034-.037.006-.045zm-2.705-.761c.306-.47.497-.983.765-1.467.29-.525.677-.973 1.135-1.408.046-.044-.02-.113-.083-.08-1.107.585-1.632 1.923-1.915 2.925-.013.048.07.072.098.03zm-2.747 1.088c.12-1.373.671-2.545 1.517-3.724.042-.058-.066-.119-.12-.067a4.936 4.936 0 00-1.46 3.793c.002.035.06.031.064-.002zm3.558.947c-1.075-.284-2.16-.556-3.239-.829-.075-.019-.117.08-.047.104 1.022.372 2.163.65 3.27.777.042.004.054-.042.015-.052zm-4.635.585c-.538-.236-.998-.54-1.48-.84-.06-.036-.127.024-.078.068.414.367.962.633 1.506.854.066.026.116-.055.052-.083z"/><path fill="#665b1c" d="M51.063 32.57c-.022-1.206.436-2.205 1.184-3.226.051-.071-.079-.142-.146-.082-.963.874-1.325 2.167-1.143 3.312.008.054.106.053.105-.003z"/><path fill="#847b29" d="M44.266 31.137c-2.143-.437-4.292.752-5.698 2.143-1.272 1.258-2.218 2.734-2.76 4.303-.566 1.638-.259 2.412-.38 4.11 2.41-1.39 4.53-1.884 6.341-3.788 1.81-1.903 3.06-4.403 2.497-6.768z"/><path fill="#847b29" d="M44.28 31.072c-2.891-.677-5.343 1.209-6.83 3.028-.915 1.119-1.618 2.364-2.018 3.671-.397 1.301-.245 2.617-.314 3.943-.011.196.308.29.484.191 2.554-1.424 5.24-2.359 7.004-4.535 1.51-1.863 2.317-4.016 1.806-6.242-.033-.147-.315-.137-.29.018.37 2.377-.804 4.813-2.618 6.657-1.675 1.702-4.102 2.49-6.323 3.803l.485.192c.165-2.439.178-4.372 1.633-6.527 1.39-2.064 3.778-4.261 6.935-4.038.104.007.148-.138.047-.161z"/><path fill="#968d41" d="M43.213 31.198c-2.43.043-4.563 1.53-5.787 3.144-1.63 2.152-2.117 4.546-2.1 7.018.002.176.3.16.353.015.766-2.126 1.806-4.324 3.402-6.136 1.26-1.43 2.806-2.583 4.226-3.887.07-.063.002-.154-.094-.153z" opacity=".7"/><path fill="#665b1c" d="M35.364 41.69c2.835-3.572 4.49-7.731 8.793-10.37.08-.05 0-.141-.086-.104-2.093.908-3.553 2.482-4.745 4.114-1.483 2.029-2.894 4.16-4.05 6.326-.025.048.055.076.088.034z"/><path fill="#665b1c" d="M35.376 39.527c.467-.174.954-.263 1.436-.396.048-.013.032-.073-.018-.07-.507.025-1.013.216-1.446.42-.033.014-.005.06.028.046z"/><path fill="#665b1c" d="M36.807 39.204c.217 0 .387.505.444.637.085.195.147.395.252.584.033.057.136.044.134-.023-.01-.318-.175-.619-.344-.9-.094-.158-.233-.414-.494-.377-.06.01-.055.08.008.08zm-.637-2.486c.414-.074.816-.214 1.23-.3.455-.096.914-.166 1.374-.236.081-.012.076-.107-.009-.105-.85.024-1.913.195-2.62.6-.029.016-.005.046.024.04zm2.79-.518c.043.532.212 1.05.297 1.576.094.57.054 1.119-.055 1.685-.011.057.09.088.122.032.563-.974.146-2.337-.261-3.31-.02-.046-.108-.031-.104.018zm1.63-2.107c.785 1.218 1.073 2.452 1.117 3.817.002.068.132.074.144.007.23-1.34-.28-2.75-1.207-3.853-.025-.028-.074 0-.054.03zm-3.633.727c1.097-.221 2.194-.456 3.287-.69.075-.015.049-.116-.028-.108-1.11.124-2.257.38-3.28.748-.04.014-.02.058.02.05zm3.559-2.49c.61-.033 1.196.028 1.802.075.073.005.091-.076.02-.09-.589-.134-1.226-.125-1.83-.078-.073.006-.065.096.008.092z"/><path fill="#665b1c" d="M42.192 32.362c.798 1.016 1.055 2.063 1.078 3.25.002.084.159.089.177.009.254-1.157-.274-2.412-1.168-3.307-.042-.042-.124 0-.087.048z"/><path fill="#a9a134" d="M56.064 27.097c.057-.01.123-.044.179-.06 2.097-.614 2.371-.765 2.59-.889.464-.263-.998.173-.802.102-1.389.5-1.802.504-2.757.718-5.024 1.127-9.831 3.461-13.224 6.576-.101.093.093.236.201.147 4.158-3.407 8.877-5.748 13.813-6.594z"/><path fill="#a9a134" d="M49.367 30.503c-1.511.576-3.037.846-4.644 1.16-.088.016-.063.115.025.111 1.61-.088 3.23-.62 4.648-1.22.04-.016.012-.067-.03-.05zm.605-3.003c-1.297.62-2.669 1.693-3.268 2.838-.045.088.104.132.17.07.51-.487.923-1.035 1.448-1.518.525-.485 1.111-.902 1.687-1.344.027-.02 0-.064-.037-.047zm3.677 1.47c-1.299.007-2.597-.018-3.896-.058-.107-.003-.121.134-.012.137 1.3.04 2.599.036 3.9.006.066-.002.076-.085.008-.085zm1.856-3.239c-1.234.537-2.622 1.258-3.373 2.246-.041.055.044.124.107.078 1.112-.789 2.016-1.638 3.29-2.28.031-.017.008-.059-.025-.044zm3.944 2.225c-1.487-.368-3.297-.812-4.861-.687-.082.007-.061.096.007.108.75.129 1.549.12 2.312.212.85.1 1.688.248 2.516.429.049.012.077-.05.026-.062z"/><path fill="#a9a134" d="M47.22 29.768c-.002-.729.311-1.457.87-2.025.755-.768 1.902-1.218 2.704-1.954.293.545.104 1.2-.302 1.694-.404.496-.997.865-1.579 1.223-.57.353-1.14.706-1.712 1.058z"/><path fill="#a9a134" d="M47.255 29.77c.07-.735.336-1.404.913-1.982.338-.34.748-.601 1.164-.868.255-.164.803-.66 1.107-.715.214-.226.337-.121.37.316a1.339 1.339 0 01-.277.69c-.268.45-.71.782-1.173 1.094-.72.486-1.49.922-2.217 1.402-.094.063.024.17.12.115 1.555-.897 4.42-2.175 3.637-4.073-.023-.055-.13-.074-.18-.032-1.537 1.312-3.52 2.004-3.533 4.05 0 .036.065.04.07.004zm5.409-2.224c.234-.854.494-1.75 1.217-2.395.663-.593 1.627-.892 2.57-1.118.102.858-.258 1.745-.966 2.383-.71.638-1.755 1.017-2.808 1.016z"/><path fill="#a9a134" d="M52.705 27.557c.21-.643.395-1.33.826-1.905.408-.544 1.662-1.57 2.493-1.196.547.247.3.553.11.963a3.102 3.102 0 01-.951 1.148c-.703.525-1.587.762-2.521.8-.103.003-.074.134.028.13 2.326-.09 3.956-1.585 3.845-3.477-.002-.034-.06-.066-.1-.056-1.015.256-2.044.564-2.737 1.26-.656.66-.888 1.501-1.077 2.318-.01.04.07.054.084.015zm3.42-.074c1.112-.29 2.32-.58 3.42-.265.426.122.805.327 1.204.496.454.191.938.336 1.437.431a4.938 4.938 0 01-2.934.806c-1.054-.053-2.084-.487-2.695-1.19-.083-.095-.122-.27.018-.29z"/><path fill="#a9a134" d="M56.129 27.502c.838-.208 1.749-.445 2.637-.372.945.08 1.664.56 2.519.843.535.176.874.194.149.505a4.92 4.92 0 01-1.613.382 4.522 4.522 0 01-1.655-.194c-.136-.042-2-.837-1.557-1.163.05-.036-.018-.101-.069-.064-.612.45 1.314 1.32 1.693 1.428 1.4.394 2.865.046 4-.677.04-.026.029-.09-.024-.101-1.11-.228-2.048-.878-3.175-1.018-.991-.122-1.987.146-2.92.395-.023.007-.01.042.015.036zm-5.22 1.503c.759-.459 1.746-.605 2.688-.557.943.048 1.856.275 2.758.5-.38.035-.636.318-.933.514-.35.23-.79.351-1.232.404-1.154.14-2.378-.183-3.217-.845z"/><path fill="#a9a134" d="M50.921 29.029c.863-.436 1.804-.591 2.812-.516.261.019 2.33.257 2.374.424l-.664.4c-.504.307-1.114.45-1.74.458-1.005.01-1.922-.312-2.7-.811-.048-.031-.115.03-.072.066.662.56 1.545.905 2.501.948.441.02.92-.013 1.336-.136.616-.181.983-.71 1.6-.85.072-.016.097-.106.013-.126-1.774-.436-3.86-.885-5.494.1-.028.017.004.059.034.043zm-4.916 2.502c.737-.749 1.868-1.229 3.041-1.291.816-.043 1.647.106 2.45-.025-.51.539-1.085 1.065-1.835 1.364a5.47 5.47 0 01-1.202.301c-.825.124-1.773.122-2.386-.346z"/><path fill="#a9a134" d="M46.025 31.55c.716-.53 1.437-.992 2.403-1.163.629-.11 1.821-.194 2.466-.044.418.098.607-.133-.155.486a4.217 4.217 0 01-1.262.73c-1.038.368-2.396.481-3.344-.097-.11-.069-.226.075-.12.144 1.877 1.224 4.337-.126 5.557-1.35.052-.052-.019-.12-.089-.113-1.137.127-2.276-.114-3.393.166-.833.208-1.614.616-2.106 1.208-.019.022.018.05.043.032zm-2.692.37c-.28-.638.138-1.39.458-2.017.319-.625.82-1.174 1.317-1.716.4.65.334 1.447-.038 2.108-.371.661-1.017 1.197-1.737 1.625z"/><path fill="#a9a134" d="M43.37 31.915c-.187-.64.078-1.24.386-1.822.152-.287.316-.567.51-.836.1-.134.527-.811.71-.836.604-.083.24 1.384.11 1.669-.347.757-1.065 1.28-1.781 1.803-.035.025.003.082.046.059 1.539-.803 2.623-2.325 1.818-3.788-.022-.04-.086-.04-.115-.007-.87.957-2.25 2.487-1.758 3.769.013.036.086.028.074-.011z"/><path fill="#a9a134" d="M44.012 30.739c-.562.8-1.106 1.689-1.503 2.552-.023.05.07.09.103.043a16.734 16.734 0 001.447-2.576c.01-.022-.03-.04-.047-.019zm16.603-5.562c-1.388.688-2.812 1.146-4.283 1.686-.048.018-.025.08.027.072 1.547-.226 3.062-.932 4.286-1.718.026-.017-.002-.054-.03-.04z"/><path fill="#a9a134" d="M57.92 26.384c.696-.263 1.081-.867 1.618-1.314.939-.78 2.353-1.07 3.69-1.03-.82.789-1.702 1.614-2.906 1.933-.7.186-1.459.185-2.163.364z"/><path fill="#a9a134" d="M57.93 26.402c1.57-.696 2.268-2.354 4.396-2.265 1.076.046.138.549-.3.88-.408.305-.838.585-1.348.772-.813.299-1.71.268-2.54.509-.058.016-.026.088.03.08 1.001-.14 2.051-.204 2.947-.627.868-.411 1.536-1.058 2.182-1.672.04-.04-.004-.107-.063-.108-.993-.01-1.987.109-2.866.51-1.023.468-1.498 1.379-2.462 1.889-.022.012.002.042.024.032z"/><path fill="#948620" d="M62.691 24.31c-.771.062-1.473.51-2.137.815a46.22 46.22 0 00-2.194 1.06c-.016.008.001.03.017.022 1.469-.577 2.832-1.34 4.322-1.878.013-.005.006-.02-.008-.02zm-6.041 3.277c1.56.14 3.136 1.262 4.734.707.028-.01.014-.05-.015-.042-1.678.413-3.087-.566-4.716-.676-.01-.001-.011.01-.002.01z"/><path fill="#beb234" d="M62.874 24.111c-1.39-.343-3.352.61-4.021 1.59-.052.077.049.15.136.1.642-.358 1.205-.766 1.933-1.015.64-.219 1.334-.288 1.96-.535.07-.028.07-.12-.008-.14zm-6.283 3.383c.974.24 1.908-.046 2.872.339.816.326 1.494.593 2.422.494.087-.01.08-.103.012-.128-.896-.331-1.625-.83-2.616-1-.918-.157-1.74.212-2.642.11-.13-.013-.174.154-.048.185zm-.441 1.444c-.52.016-.892.284-1.366.43-.812.246-1.583.043-2.404.026-.073 0-.127.086-.051.121a3.922 3.922 0 001.91.292c.308-.035.605-.114.873-.242.36-.172.61-.415 1.048-.477.1-.014.098-.154-.01-.15zm-3.416-1.386c.58-.491.747-1.081 1.18-1.653.582-.771 1.503-1.159 2.31-1.735.034-.024-.01-.063-.045-.043-.825.452-1.823.5-2.48 1.159-.624.626-.652 1.474-1.102 2.172-.045.068.057.167.137.1zm-5.31 2.118c1.026-.803 4.306-2.088 3.48-3.63-.064-.12-.266-.099-.322.012-.389.784-.532 1.427-1.319 2.055-.638.51-1.35.937-1.942 1.487-.05.048.046.12.103.075zm-2.363-1.15c.382 1.31-.652 2.09-1.598 2.989-.093.088.073.178.171.125 1.22-.652 2.023-1.971 1.655-3.147-.037-.117-.263-.086-.228.033zm6.302 1.641c-.825-.118-1.763-.145-2.593-.028-1.015.142-1.661.624-2.391 1.173-.07.052.002.135.087.11 1.074-.32 1.978-.668 3.143-.658.626.005 1.358-.06 1.814-.447.064-.055.033-.137-.06-.15z"/><path fill="#948620" d="M56.03 24.39c-.991 1.022-2.117 1.922-3.204 2.87-.023.02.008.05.033.033 1.176-.863 2.309-1.816 3.193-2.89.009-.012-.011-.022-.021-.012zm-5.012 4.584c.834.105 1.534.393 2.397.388a10.498 10.498 0 002.193-.246c.05-.012.037-.07-.014-.064-.8.073-1.575.233-2.388.219-.756-.012-1.443-.255-2.186-.312-.013-.001-.014.014-.002.015zm-.43-2.857c.201.288-.715 1.043-.93 1.229-.333.289-.706.545-1.057.818-.559.432-1.054.884-1.334 1.478-.01.023.031.04.047.019.678-.924 1.751-1.502 2.582-2.315.175-.171 1.006-.98.712-1.24-.008-.007-.027.002-.02.01zm-4.68 5.381c1.64.094 3.407-.2 4.849-.852.033-.015.009-.057-.027-.044-1.606.547-3.08.832-4.82.875-.016 0-.02.02-.002.02zm-.988-2.868c-.42.96-.862 1.892-1.356 2.829-.009.018.024.03.037.015.661-.845 1.142-1.85 1.351-2.838.003-.015-.025-.02-.032-.005zm15.193-3.606a.92.92 0 00-.272.49c-.004.025.038.03.049.01.046-.082.078-.166.12-.248.04-.08.098-.156.142-.236.01-.02-.024-.03-.04-.016zm1.475.079a2.193 2.193 0 00-.458-.068c-.135-.007-.303-.017-.43.023-.024.007-.014.033.007.036.142.016.294-.008.44-.004.145.003.29.019.435.034.015 0 .02-.017.006-.021zm-2.61 2.401c-.154.016-.296.083-.437.132a6.287 6.287 0 00-.48.184c-.03.013-.019.054.018.048.298-.051.7-.155.911-.343.01-.008.004-.022-.012-.021zm.364.709c.06.26.35.438.66.465.027.002.037-.034.01-.039a.857.857 0 01-.628-.437c-.01-.018-.046-.009-.042.011z"/><path fill="#948620" d="M53.828 25.8c-.16.21-.331.563-.253.813.006.022.046.028.056.004.048-.124.043-.262.076-.39.036-.142.098-.277.16-.412.008-.019-.026-.034-.04-.016zm2.055-.637a5.015 5.015 0 01-.62.29c-.193.072-.403.1-.595.17-.032.013-.024.057.012.058.44 0 .925-.252 1.217-.505.008-.008-.003-.02-.014-.013zm-2.863 3.532c-.313.115-.718.297-.932.521-.02.021.013.052.042.04.154-.067.281-.17.42-.256.16-.098.324-.189.484-.288.01-.007 0-.022-.014-.017zm.65.655c.14.163.357.311.568.41.04.017.092-.022.059-.053a1.84 1.84 0 00-.613-.374c-.013-.004-.021.01-.014.017zm-5.289-1.438c-.064.092-.092.202-.126.303-.03.092-.09.194-.072.29.005.024.046.03.063.01.07-.079.074-.202.1-.295.024-.099.06-.202.054-.303 0-.007-.013-.013-.019-.005zm2.22-.812c-.25.139-.495.283-.758.406-.229.108-.482.182-.708.294-.03.015-.02.06.021.053.53-.098 1.091-.42 1.466-.731.015-.013-.003-.03-.02-.021zm-2.613 3.664a1.46 1.46 0 00-.72.597c-.024.044.059.075.09.037.097-.11.18-.225.292-.327.11-.1.238-.185.362-.275.02-.014-.001-.04-.024-.032zm1.794.57c-.187-.063-.408-.07-.607-.091-.205-.022-.41-.052-.617-.04-.025.003-.026.035-.004.042.2.05.407.06.613.078.199.017.415.052.614.026.009-.002.01-.013 0-.015zm-5.587-1.717c-.124.14-.16.352-.174.521-.014.18-.01.377.095.541.014.02.06.018.059-.009-.002-.177-.05-.348-.044-.525.005-.178.075-.347.085-.522 0-.009-.014-.014-.021-.006z"/><path fill="#beb234" d="M61.738 28.62c.01.01.028-.003.019-.013-.011-.01-.03.003-.02.013z"/><path fill="#5e7c29" d="M57.529 20.701c-2.91 4.957-7.32 9.293-13.017 12.255-.115.06-.238-.04-.235-.13-.1.191-.524.142-.527-.11-.02-1.37.756-2.5 1.596-3.646 1.127-1.538 2.354-3.04 3.717-4.447 2.109-2.172 4.695-4.132 8.249-4.268.234-.01.296.211.217.346zM44.284 32.796l-.002.007a.049.049 0 01.003-.007z"/><path fill="#506222" d="M57.537 20.408c-2.854 1.523-5.205 3.725-7.515 5.749-2.387 2.093-4.063 4.613-6.33 6.795-.051.049.056.124.109.075 2.297-2.155 3.964-4.667 6.336-6.765 2.346-2.077 4.839-3.957 7.41-5.841.009-.006 0-.018-.01-.013z"/><path fill="#506222" d="M47.91 30.857c-.773.22-1.48.3-2.3.254-.09-.005-.097.111-.006.116.812.044 1.606.007 2.313-.355a.008.008 0 00-.006-.015zm3.731-2.975c-.729.109-1.44.26-2.178.339-.387.042-.776.069-1.167.08-.18.007-.284.005-.433.088-.055.03-.004.11.057.094.253-.068.543-.045.81-.065a16.14 16.14 0 001.051-.113c.63-.088 1.275-.204 1.866-.408.011-.004.005-.016-.006-.015zm3.102-3.326c-1.04.027-2.142.485-3.175.284-.11-.022-.165.111-.054.138.497.121.986.031 1.482-.05.584-.097 1.196-.169 1.756-.34.019-.006.012-.032-.01-.032zm1.867-2.499c-.588-.045-1.272.053-1.841.174-.105.022-.072.15.034.134.304-.042.604-.097.907-.139.299-.042.612-.064.905-.127.028-.006.026-.04-.004-.042zm.373-.67c-.257.06-.507.143-.759.217-.278.083-.585.148-.843.266-.029.014-.014.054.021.048.26-.047.509-.15.756-.23.278-.09.564-.173.835-.28.014-.005.007-.026-.01-.022zm-1.481 2.211c-.482.071-.949.187-1.437.242-.484.056-.977.024-1.458.08-.052.006-.058.075-.006.084.45.078.97.018 1.423-.033.504-.058 1.038-.145 1.495-.333.026-.01.011-.044-.017-.04zm-2.293 2.756c-1.323.129-2.584.517-3.922.624-.084.006-.073.122.012.12 1.278-.036 2.74-.32 3.92-.72.018-.005.007-.025-.01-.024zm-3.195 2.994c-.519.06-1.03.16-1.549.227-.535.069-1.173.205-1.712.13-.177-.023-.155.247.02.2.536-.143 1.164-.128 1.721-.217.515-.081 1.038-.17 1.531-.315.018-.005.007-.027-.01-.025zm-3.998 2.73c-.525.086-1.046.152-1.577.205-.064.006-.056.094.01.091a6.565 6.565 0 001.583-.26c.024-.009.008-.04-.016-.036zm4.791-3.364c-.605.062-1.203.176-1.805.255-.595.08-1.224.111-1.806.235-.052.011-.05.077.007.078.575.007 1.17-.1 1.733-.186.63-.095 1.27-.19 1.877-.359.017-.004.013-.025-.006-.023zm1.641-1.719c-.01.146-1.81.36-2 .39-.656.106-1.313.199-1.972.294-.104.015-.07.144.034.13a31.58 31.58 0 002.285-.361c.345-.067.689-.14 1.032-.215.196-.045.51-.062.65-.194.008-.006.01-.016.003-.023-.01-.007-.017-.015-.026-.022-.002-.002-.006-.001-.006 0zm1.8-1.762c-1.323.274-2.637.527-3.971.766-.106.019-.07.14.034.13 1.308-.113 2.756-.408 3.944-.878.012-.005.006-.02-.007-.018zm1.69-2.253c-.404-.014-.818.04-1.218.082-.391.042-.839.052-1.201.187-.033.012-.019.053.015.055.378.022.774-.08 1.146-.13.418-.055.851-.09 1.259-.179.011-.002.01-.016-.001-.016zm-7.204 7.227c-.503.05-1.006.167-1.503.25-.443.074-.972.081-1.382.235-.077.03-.042.115.032.122.462.05 1.017-.105 1.465-.194.47-.095.97-.197 1.407-.37.029-.013.01-.046-.02-.043z"/><path fill="#738c29" d="M57.156 20.57c-1.836.554-3.424 1.053-4.814 2.221-1.333 1.12-2.584 2.293-3.712 3.555-1.872 2.095-3.17 4.353-4.64 6.631-.073.114-.261.032-.266-.072-.057-1.147.662-2.244 1.3-3.229.96-1.48 2.098-2.887 3.343-4.218 2.327-2.489 4.84-4.472 8.742-4.994.072-.009.124.082.047.105z"/><path fill="#506222" d="M46.956 31.51c-.336.071-.668.151-1.01.201-.341.05-.7.027-1.034.09-.03.005-.037.045-.003.05.318.05.698-.009 1.015-.056a4.798 4.798 0 001.037-.274c.008-.003.004-.014-.005-.012zm9.402-10.917c-.094.172-.178.348-.277.518-.086.147-.2.29-.255.444-.007.02.024.04.042.023.264-.25.428-.66.533-.974.008-.023-.031-.032-.043-.01zm-.78.136c-.156.177-.234.402-.344.602a9.809 9.809 0 01-.477.77c-.04.06.065.118.108.059.289-.405.7-.953.716-1.43 0-.001-.002-.002-.003-.001zm-1.339.241c-.33.668-.685 1.495-.774 2.212-.006.05.076.054.097.015.363-.655.565-1.513.69-2.225 0-.006-.01-.006-.013-.001zm-1.417 2.944c-.268-.322-.218-.821-.202-1.194.014-.324.082-.637.134-.955.006-.048-.087-.062-.102-.016-.136.428-.157.888-.133 1.328.015.27-.021.684.296.843.005.003.01-.002.007-.006zm-1.116-1.507c-.06.398-.072.805-.08 1.206-.005.358-.045.738.036 1.091.013.057.106.044.115-.007.065-.37.006-.769-.003-1.143-.008-.38-.006-.766-.04-1.146-.001-.015-.026-.017-.028 0zm-2.039 1.629c.04.74-.063 1.458.603 2.045.024.022.073-.002.053-.029-.208-.287-.435-.53-.513-.869-.086-.376-.062-.765-.097-1.145-.003-.023-.047-.026-.046-.002zm-1.174 1.272c.016.306.105.615.198.91.09.293.187.618.366.883.024.035.093.018.082-.023-.085-.297-.235-.584-.335-.878-.101-.296-.168-.602-.286-.894-.004-.01-.025-.011-.025.002zm-.834.968c.059.263.172.518.28.77.107.24.194.535.399.731.042.041.118.004.108-.044-.046-.242-.223-.48-.331-.709-.122-.258-.23-.525-.407-.762-.015-.02-.054-.01-.05.014zm-.592.818c.134.488.44.982.78 1.396.043.052.149.014.111-.045-.147-.226-.317-.442-.465-.667-.149-.226-.256-.464-.396-.692-.008-.014-.034-.007-.03.008zm-.754.861c.027.248.144.489.281.71.136.218.298.479.516.647.038.03.092-.002.074-.041-.101-.232-.329-.436-.474-.654-.144-.218-.223-.451-.334-.68-.015-.032-.066-.011-.063.018zm-.515.725c.122.47.387.88.808 1.216.048.04.127-.016.08-.058-.197-.177-.385-.35-.525-.562-.13-.196-.214-.406-.324-.608-.01-.018-.044-.008-.039.011zm-.609.756c.087.455.347 1.034.755 1.36.034.029.088 0 .069-.037-.109-.214-.3-.405-.428-.614-.143-.231-.24-.474-.342-.718-.012-.027-.06-.02-.054.009zm-.481.609c.005.263.114.5.277.726.085.117.274.473.47.43.038-.007.05-.048.017-.066-.187-.1-.344-.358-.451-.515a2.618 2.618 0 01-.278-.577c-.005-.015-.035-.016-.035.002z"/><path fill="#506222" d="M44.308 30.635c.023.212.121.423.22.62.095.19.2.419.376.569.032.027.102.006.087-.036-.074-.192-.23-.367-.33-.551-.112-.202-.19-.419-.326-.61-.008-.013-.028-.006-.027.008zm-.264.746c.03.157.085.313.149.463.057.132.12.306.26.39.035.021.079-.009.072-.04-.027-.135-.155-.267-.216-.396-.068-.146-.12-.295-.21-.433-.016-.024-.06-.01-.055.016zm6.563-8.181c-.008.336.058.678.112 1.01.061.366.085.756.215 1.11.029.079.189.082.189-.013 0-.337-.102-.678-.166-1.011-.072-.366-.131-.746-.271-1.1-.013-.034-.079-.035-.079.005zm-1.555 1.497c.02.626.27 1.324.534 1.909.027.055.14.022.121-.036-.099-.313-.228-.62-.329-.934-.099-.312-.165-.638-.294-.942-.006-.013-.032-.015-.032.002zM48 25.772c.164.649.42 1.248.468 1.918.005.07.14.077.136.006-.05-.644-.174-1.364-.583-1.93-.005-.01-.023-.005-.021.006zm-.65.903c.04.305.16.604.265.897.093.261.163.549.32.79.022.035.085.016.078-.023-.05-.297-.214-.597-.32-.885-.098-.263-.178-.536-.314-.787-.008-.015-.032-.006-.03.008zm-.667.837c.13.29.253.578.325.88.067.281.06.561.103.842.007.04.074.03.08-.005.092-.559-.142-1.245-.459-1.737-.017-.026-.062-.006-.049.02zm-.591.773c-.009.215.147.427.264.612.168.268.297.51.307.814.002.051.09.055.098.004.037-.238-.084-.47-.214-.678-.155-.249-.294-.506-.45-.752a.003.003 0 00-.005 0zm-.548.812c.045.22.162.43.275.633.11.193.221.434.412.583.025.02.083.006.07-.03-.077-.195-.25-.373-.364-.558-.128-.21-.222-.433-.362-.636-.01-.013-.034-.007-.03.008z"/><path fill="#eff2c9" d="M46.078 32.12c.612-.41 1.225-.818 1.837-1.227.489-.326.984-.656 1.556-.878.57-.222 1.233-.328 1.84-.186.608.144 1.134.573 1.187 1.087.059.576-.476 1.104-1.116 1.349-.642.244-1.372.267-2.08.285l-3.248.084z"/><path fill="#eff2c9" d="M46.133 32.27c.771-.188 5.46-3.128 5.497-1.221.027 1.453-4.565.909-5.732 1.379-.195.078-.184.352.016.42 1.796.61 8.431.55 7.271-2.363-.446-1.117-2.043-1.55-3.336-1.244-1.524.362-3.22 1.706-3.943 2.805-.078.12.068.264.227.225z"/><g opacity=".5" fill="#dbca2e"><path d="M45.827 32.484a4.928 4.928 0 011.548-1.756c.182-.13.405-.258.647-.228.099.012.2.06.226.14a.181.181 0 01-.011.12c-.09.256-.348.442-.598.613-.537.37-1.077.741-1.672 1.047a10.142 10.142 0 012.662-1.108c.15-.04.309-.077.467-.053.156.023.308.123.315.253.009.157-.18.266-.348.337-.95.403-2.013.593-3.076.711 1.042-.118 2.116-.234 3.139-.015.157.034.35.134.293.257-.031.065-.123.095-.205.113-.346.077-.71.085-1.07.073a10.222 10.222 0 01-2.201-.312z" opacity=".5"/><path d="M45.87 32.503c.22-.328 1.38-1.872 1.938-1.701.217-.012.246.035.085.139a1.037 1.037 0 01-.244.22c-.14.113-.3.212-.45.314-.43.293-.864.564-1.325.82.06.083.124.166.185.249.43-.27.883-.501 1.37-.695.264-.105.535-.2.81-.285.293-.09.535-.263.663.005.145.304-.413.353-.725.444a9.733 9.733 0 01-.658.165c-.52.113-1.05.178-1.58.252-.213.03-.114.289.096.26a14.529 14.529 0 012.21-.1c.208.013.413.036.617.07.36.072.396.114.109.128-.404.138-1.157.028-1.561-.015a12.328 12.328 0 01-1.425-.245c-.233-.054-.31.239-.083.297a9.69 9.69 0 002.466.33c.315 0 1.154.028 1.246-.337.23-.912-3.173-.436-3.633-.394.004.09.008.182.01.273.57-.052 4.068-.465 3.529-1.341-.225-.367-.801-.213-1.158-.113-.89.25-1.706.628-2.488 1.052-.191.104-.01.349.185.249.373-.19 3.16-1.612 2.195-2.14-.42-.23-.921.127-1.204.347-.62.48-.998 1.07-1.27 1.725-.018.043.064.065.09.027z" opacity=".5"/></g><path fill="#eff2c9" d="M46.327 32.574l1.974 1.075c.526.287 1.057.577 1.484.958.427.381.744.867.755 1.383.01.516-.34 1.053-.927 1.244-.657.214-1.432-.049-1.905-.478-.475-.429-.714-.993-.943-1.539l-1.047-2.512z"/><path fill="#eff2c9" d="M46.163 32.657c.504.616 1.206 1.017 1.91 1.47.477.303.987.613 1.314 1.04.346.452.86 1.815-.785 1.428-.95-.221-1.248-1.6-1.546-2.238-.3-.641-.554-1.325-1.136-1.828-.143-.125-.47-.06-.491.122-.198 1.67 1.677 6.502 4.755 5.052 1.249-.588 1.379-1.975.698-2.919-.817-1.13-2.98-2.116-4.512-2.363-.156-.026-.303.119-.207.236z"/><g opacity=".5" fill="#dbca2e"><path d="M45.827 32.484a6.774 6.774 0 012.51.695c.206.105.42.242.457.44.014.08-.012.174-.098.216a.335.335 0 01-.145.027c-.326.006-.62-.144-.892-.288-.591-.31-1.184-.624-1.716-1a8.516 8.516 0 012.076 1.755c.09.106.18.22.199.348a.292.292 0 01-.205.321c-.181.053-.364-.06-.497-.173-.748-.623-1.283-1.398-1.731-2.194.44.78.893 1.584.935 2.446.006.133-.055.314-.216.304-.086-.005-.147-.068-.193-.127-.191-.248-.306-.529-.398-.812a5.714 5.714 0 01-.277-1.81z" opacity=".5"/><path d="M45.816 32.523c.467.08.907.199 1.348.35.166.058 1.017.295 1.081.45l-.158.278-.173-.078c-.16-.037-.394-.213-.536-.288a23.35 23.35 0 01-1.385-.822l-.244.213c.389.223.821.529 1.171.826.171.146 1.42 1.095.693 1.26-.169.038-.819-.842-.939-1-.283-.372-.511-.762-.752-1.155-.096-.158-.377-.012-.283.144.225.375.41.772.574 1.167.082.193.512 1.175.267 1.3-.076.04-.458-1.051-.486-1.17a6.513 6.513 0 01-.171-1.371c-.006-.198-.372-.187-.374.009-.007.696.083 1.4.346 2.064.098.247.31.89.764.836 1.114-.132-.411-2.563-.614-2.943l-.321.077c.247.459 1.599 2.916 2.538 2.408 1.034-.56-1.667-2.321-2.097-2.61-.176-.118-.418.089-.244.213.359.256 2.802 1.99 3.151 1.096.155-.395-.415-.687-.752-.842-.742-.343-1.55-.47-2.395-.49-.055-.001-.063.069-.009.078z" opacity=".5"/></g><path fill="#eff2c9" d="M45.868 32.901c-.228.618-.455 1.237-.684 1.855-.181.494-.366.994-.688 1.438-.321.444-.798.835-1.4.994-.601.158-1.332.043-1.727-.36-.443-.45-.361-1.132.003-1.628.363-.495.954-.847 1.527-1.185l2.638-1.552z"/><path fill="#eff2c9" d="M45.726 32.793c-.57.572-.836 1.231-1.159 1.913-.218.46-.434.945-.829 1.328-.366.355-1.688 1.23-1.933-.023-.168-.86 1.511-1.6 2.17-2.01.666-.416 1.404-.825 1.823-1.425.137-.196-.112-.383-.346-.345-1.95.32-7.289 3.417-4.345 5.27 1.081.681 2.604.384 3.486-.386 1.108-.967 1.624-2.948 1.468-4.219-.016-.125-.22-.216-.335-.103z"/><g opacity=".5" fill="#dbca2e"><path d="M45.827 32.484c.177.714.148 1.46-.081 2.163-.063.191-.16.4-.381.484-.09.035-.208.042-.282-.012a.228.228 0 01-.075-.106c-.101-.252-.012-.525.077-.78.192-.552.386-1.106.67-1.632a7.276 7.276 0 01-1.45 2.133.92.92 0 01-.35.257c-.146.053-.341.038-.436-.066-.113-.126-.033-.3.059-.438.512-.766 1.263-1.41 2.064-1.993-.784.573-1.595 1.16-2.592 1.445-.154.044-.384.048-.42-.08-.018-.068.037-.135.093-.188.234-.22.53-.393.835-.547a9.511 9.511 0 012.04-.746z" opacity=".5"/><path d="M45.778 32.486c.037.333.034.656.002.989-.017.16-.031 1.018-.228 1.136l-.375-.031.042-.157c-.003-.135.113-.334.159-.466.155-.437.329-.864.535-1.287l-.332-.101a5.97 5.97 0 01-.655 1.182c-.141.2-.376.576-.574.715-.054.06-.11.118-.166.177-.43.042-.56-.02-.393-.186.04-.331.65-.774.923-1.021.33-.3.69-.571 1.048-.848.157-.122-.087-.306-.244-.187-.376.284-.78.545-1.195.789a7.041 7.041 0 01-.662.348c-.141.063-.761.432-.64.167.14-.304.832-.542 1.182-.69.466-.197.949-.357 1.447-.49.229-.061.124-.35-.106-.292-.82.198-1.613.473-2.32.87-.267.153-.913.466-.726.808.463.852 2.978-1.138 3.34-1.388a75.652 75.652 0 01-.245-.187c-.367.246-3.053 2.222-2.03 2.73.99.493 2.136-1.956 2.367-2.413.086-.17-.231-.3-.326-.127-.203.372-1.51 2.702-.402 2.786.56.043.745-.601.82-.921.152-.651.063-1.284-.15-1.92-.014-.041-.101-.03-.096.015z" opacity=".5"/></g><path fill="#eff2c9" d="M45.35 32.638l-2.373.009c-.632.002-1.272.004-1.886-.117-.614-.121-1.212-.38-1.573-.803-.362-.423-.439-1.027-.084-1.454.398-.477 1.222-.613 1.908-.473.687.14 1.272.497 1.835.847l2.59 1.604z"/><path fill="#eff2c9" d="M45.44 32.498c-1.138-.378-5.486-.03-5.455-1.518.019-.899 1.262-.664 1.83-.445.606.234 1.141.616 1.682.936.683.405 1.372.863 2.204 1.016.259.048.436-.182.318-.362-.938-1.424-6.348-4.779-7.491-1.768-1.172 3.09 4.782 3.146 6.877 2.432.137-.046.208-.233.035-.29z"/><g opacity=".5" fill="#dbca2e"><path d="M45.827 32.484a6.887 6.887 0 01-2.558.57c-.242.006-.513-.009-.678-.157-.068-.06-.111-.15-.07-.224a.27.27 0 01.103-.089c.266-.153.612-.163.937-.168.704-.01 1.409-.022 2.108.047a11.108 11.108 0 01-2.923-.508c-.148-.047-.3-.1-.403-.199-.105-.099-.145-.255-.05-.359.113-.126.344-.115.53-.083 1.047.175 2.022.574 2.939 1.03-.901-.445-1.826-.907-2.451-1.603-.096-.107-.17-.285-.03-.35.076-.035.169-.01.248.017.327.118.616.3.886.493a7.56 7.56 0 011.47 1.374z" opacity=".5"/><path d="M45.813 32.447a8.236 8.236 0 01-1.273.308c-.156.026-1.448.28-1.596.121l.086-.264a2.92 2.92 0 01.438-.039c.208-.01.418-.008.626-.01.53-.006 1.053.01 1.58.045l-.011-.29a9.9 9.9 0 01-2.29-.324 9.16 9.16 0 01-.551-.157c-.183-.322-.155-.445.084-.367.411-.06 1.101.28 1.468.419.451.17.877.376 1.309.575.188.087.342-.153.155-.242-.204-.097-2.552-1.34-2.359-1.564.272-.315 2.122 1.555 2.245 1.697.139.159.453.006.319-.16-.52-.638-1.14-1.242-1.914-1.687-.239-.138-.717-.433-1.006-.21-.812.627 2.126 1.943 2.56 2.166l.155-.242c-.5-.26-3.374-1.684-3.734-.796-.379.932 2.96 1.135 3.57 1.183.2.015.235-.267.034-.288-.452-.046-3.663-.385-3.379.515.127.404.805.392 1.189.368.858-.052 1.615-.315 2.334-.686.044-.023.013-.09-.039-.071z" opacity=".5"/></g><path fill="#eff2c9" d="M45.507 32.157l-.704-1.85c-.188-.492-.376-.991-.413-1.506-.038-.515.09-1.057.48-1.463.39-.406 1.075-.643 1.68-.49.675.172 1.074.774 1.111 1.351.037.577-.212 1.138-.456 1.68l-1.124 2.49z"/><path fill="#eff2c9" d="M45.7 32.152c.093-.81-1.553-4.95.52-4.67 1.887.255-.55 3.965-.434 4.895.025.212.32.307.513.157.685-.536.98-1.396 1.32-2.106.304-.634.65-1.272.71-1.96.098-1.095-.694-2.32-2.2-2.3-1.403.02-2.384 1.056-2.48 2.135-.11 1.267.74 3.005 1.726 3.97.122.118.312-.005.325-.12z"/><g opacity=".5" fill="#dbca2e"><path d="M45.827 32.484a4.753 4.753 0 01-1.414-1.83c-.08-.187-.14-.404-.016-.576.05-.07.144-.13.243-.118.05.005.094.028.134.053.257.163.37.43.47.682.22.546.438 1.094.562 1.66a6.225 6.225 0 01-.26-2.43c.012-.129.03-.264.116-.374.085-.109.257-.187.406-.144.18.053.235.235.253.39.1.87-.082 1.746-.348 2.595.257-.833.529-1.69 1.16-2.38.098-.107.286-.216.403-.126.062.048.062.128.052.198-.043.29-.17.568-.32.835a6.853 6.853 0 01-1.18 1.55z" opacity=".5"/><path d="M45.868 32.464a5.916 5.916 0 01-.732-.901c-.096-.143-.708-.936-.586-1.1.143.03.288.059.43.087.042.093.08.187.119.28.062.152.123.304.18.456.14.367.256.735.356 1.11l.342-.083a5.36 5.36 0 01-.268-1.262 5.932 5.932 0 01-.025-.565c0-.21.247-1.177.464-.653.149.358.013.977-.047 1.33-.067.406-.184.8-.291 1.198-.046.172.278.233.327.06a8.57 8.57 0 01.424-1.144c.08-.18.415-1.047.703-1.042.195.003-.023.32-.085.447a5.57 5.57 0 01-.306.526 7.837 7.837 0 01-.921 1.156c-.145.153.118.362.273.209.556-.551 1.032-1.151 1.346-1.821.112-.238.422-.807.057-1.008-.955-.528-1.696 2.257-1.818 2.617l.327.06c.167-.486.985-3.101-.151-3.152-1.2-.055-.477 2.627-.351 3.127.046.186.379.098.342-.083-.081-.386-.632-2.956-1.598-2.446-.452.239-.18.814-.026 1.11.32.619.823 1.102 1.44 1.536.04.028.11-.013.075-.05z" opacity=".5"/></g><path fill="#dbca2e" d="M44.857 31.77s-.542.657-.268 1.139c.298.522 1.437.852 2.107.268.966-.842-.872-2.248-1.839-1.406 0 0 .967-.842 0 0z"/><path fill="#fff" d="M41.193 26.731c.058 3.934 5.812 10.74 12.16 10.678 6.349-.062 10.887-6.967 10.829-10.9-.057-3.934-5.25-7.073-11.597-7.012-6.35.062-11.45 3.3-11.392 7.234zm5.783-19.34c.012.782 1.155 2.134 2.417 2.122 1.262-.012 2.115-1.012 2.104-1.793-.01-.782-.995-1.779-2.256-1.767-1.262.012-2.276.656-2.265 1.438z" opacity=".37"/></svg>