<svg xmlns="http://www.w3.org/2000/svg" width="67" height="38"><defs><linearGradient id="a" x1="25.91" x2="49.32" y1="4.94" y2="31.06" gradientUnits="userSpaceOnUse"><stop offset="0" stop-color="#fff"/><stop offset="1" stop-color="#060808"/></linearGradient></defs><path fill="#e0bb8e" d="M66.79 10.848C66.79 5.288 52.021.782 33.804.782S.819 5.289.819 10.848c0 5.56 14.77 26.585 32.986 26.585 18.217 0 32.986-21.025 32.986-26.585z"/><path fill="#f7dec2" d="M66.79 10.56c0-5.4-14.769-9.778-32.986-9.778S.819 5.16.819 10.56c0 5.399 14.77 25.822 32.986 25.822 18.217 0 32.986-20.423 32.986-25.822z"/><path fill="#feecd7" d="M4.526 6.747c-2.052 2.22-2.922 4.62-2.188 6.852 1.764 5.366 17.343 23.673 28.33 21.221 10.986-2.45 13.218-24.732 11.454-30.096-.337-1.025-.987-1.938-1.893-2.73a106.907 106.907 0 00-7.208-.245c-12.16 0-22.775 2.01-28.495 4.998z"/><path fill="#fdf5d9" d="M66.79 10.848C66.79 5.288 52.021.782 33.804.782S.819 5.289.819 10.848c0 5.56 14.77 10.066 32.986 10.066 18.217 0 32.986-4.506 32.986-10.066z"/><path fill="#ecd4b8" d="M33.804 19.301c-16.77 0-30.94-4.02-30.94-8.775 0-4.758 14.17-8.777 30.94-8.777 16.771 0 30.941 4.019 30.941 8.777 0 4.755-14.17 8.775-30.94 8.775z"/><path fill="#e22025" d="M33.804 19.301c12.303 0 23.197-2.163 28.133-5.193-1.03-4.094-13.489-7.454-28.133-7.454-14.643 0-27.102 3.36-28.132 7.454 4.935 3.03 15.83 5.193 28.132 5.193z"/><path fill="url(#a)" d="M10.247 16.136c5.726 1.921 14.234 3.165 23.557 3.165 11.239 0 21.286-1.809 26.706-4.431-3.623-3.649-13.439-6.345-24.641-6.345-12.462 0-23.21 3.337-25.622 7.611z" opacity=".6"/><path fill="#fff" d="M5.692 15.13c-.253.67 2.99 2.1 7.247 3.193 4.254 1.094 7.91 1.438 8.164.77.253-.669-3.45-.888-7.705-1.982-4.257-1.094-7.452-2.65-7.706-1.98zm8.121 7.787c-1.125-1.376-2.43-2.275-2.917-2.005-.485.27.03 1.604 1.154 2.98 1.124 1.378 2.43 2.275 2.915 2.005.487-.267-.029-1.603-1.153-2.98zm3.595 4.562c-.665-.448-1.4-.613-1.642-.37-.243.246.1.806.765 1.255.664.446 1.4.61 1.642.366.241-.243-.1-.805-.765-1.251z"/><path fill="#60b133" d="M27.277 9.554c.967.135 1.169 1.048 2.046 1.33.589.19 1.514-.141 1.35-.758-.276-1.04-2.691-1.637-3.535-.8-.03.03-.025.064-.007.09 0 .064.07.127.146.138z"/><path fill="#3f722e" d="M28.195 9.623a3.405 3.405 0 00-.648-.33 3.462 3.462 0 011.69.346c.129.062 1.367.814.989.964-.331.133-.705-.218-.93-.382-.331-.24-.753-.375-1.101-.598z"/><path fill="#60b133" d="M10.06 14.054c1.251.053 1.675 1.186 2.84 1.436.781.167 1.895-.367 1.574-1.13-.54-1.286-3.715-1.745-4.633-.577-.032.042-.02.084.01.116.01.079.11.15.208.155z"/><path fill="#3f722e" d="M11.237 14.028a4.538 4.538 0 00-.882-.339 4.496 4.496 0 012.207.23c.176.063 1.885.864 1.434 1.102-.397.21-.935-.19-1.252-.37-.465-.263-1.024-.382-1.507-.622z"/><path fill="#f89d0e" d="M48.455 9.73c0 .688-1.744 1.247-3.895 1.247s-3.895-.56-3.895-1.246c0-.69 1.744-1.247 3.895-1.247 2.15 0 3.895.558 3.895 1.247z"/><path fill="#fdde6e" d="M40.69 9.65c.69.347 1.897.579 3.28.579 2.065 0 3.738-.516 3.869-1.166-.691-.348-1.898-.58-3.28-.58-2.065 0-3.738.517-3.87 1.167z"/><path fill="#f89d0e" d="M44.981 9.413c0 .23-.583.416-1.3.416-.719 0-1.301-.187-1.301-.416 0-.23.582-.416 1.301-.416.717 0 1.3.186 1.3.416zm-17.568 1.368c0 .688-1.744 1.246-3.895 1.246-2.152 0-3.895-.557-3.895-1.245 0-.689 1.743-1.248 3.895-1.248 2.151 0 3.895.56 3.895 1.247z"/><path fill="#fdde6e" d="M19.648 10.7c.691.348 1.897.58 3.28.58 2.065 0 3.738-.517 3.87-1.167-.692-.348-1.899-.579-3.28-.579-2.066 0-3.739.516-3.87 1.166z"/><path fill="#f89d0e" d="M23.94 10.464c0 .23-.584.416-1.3.416-.72 0-1.303-.187-1.303-.416 0-.23.583-.416 1.302-.416.717 0 1.3.186 1.3.416zm-1.733 4.016c0 .689-1.743 1.247-3.895 1.247-2.15 0-3.895-.558-3.895-1.246s1.745-1.247 3.896-1.247c2.152 0 3.895.559 3.895 1.247z"/><path fill="#fdde6e" d="M14.443 14.4c.69.348 1.898.579 3.28.579 2.065 0 3.738-.516 3.869-1.166-.691-.348-1.898-.58-3.28-.58-2.065 0-3.738.518-3.87 1.167z"/><path fill="#f89d0e" d="M18.734 14.163c0 .23-.582.416-1.3.416-.72 0-1.301-.187-1.301-.416 0-.23.582-.416 1.3-.416.719 0 1.3.186 1.3.416z"/><path fill="#60b133" d="M26.742 18.098c.89.018 1.214.815 2.046.976.558.107 1.337-.29 1.093-.825-.41-.904-2.673-1.183-3.3-.34-.02.029-.012.059.01.082.01.055.081.104.151.107z"/><path fill="#3f722e" d="M27.577 18.062a3.32 3.32 0 00-.632-.228 3.203 3.203 0 011.57.13c.126.043 1.355.586 1.04.762-.276.154-.667-.121-.895-.244-.336-.181-.735-.257-1.083-.42z"/><path fill="#f89d0e" d="M45.819 14.58c0 .688-1.744 1.246-3.895 1.246-2.152 0-3.895-.558-3.895-1.246 0-.689 1.743-1.247 3.895-1.247 2.15 0 3.895.558 3.895 1.247z"/><path fill="#fdde6e" d="M38.054 14.5c.691.347 1.897.578 3.28.578 2.065 0 3.738-.516 3.87-1.166-.692-.348-1.899-.579-3.28-.579-2.066 0-3.739.516-3.87 1.166z"/><path fill="#f89d0e" d="M42.345 14.263c0 .229-.583.416-1.3.416-.719 0-1.302-.187-1.302-.416 0-.23.583-.416 1.302-.416.717 0 1.3.186 1.3.416z"/><path fill="#60b133" d="M42.772 11.356c1.493.45 1.49 1.955 2.788 2.619.87.444 2.463.142 2.422-.882-.067-1.725-3.705-3.264-5.35-2.133-.058.04-.064.094-.043.142-.021.1.066.218.183.254z"/><path fill="#3f722e" d="M44.21 11.69a4.958 4.958 0 00-.914-.685 5.282 5.282 0 012.57.96c.184.132 1.89 1.632 1.234 1.78-.576.133-1.046-.52-1.348-.835-.442-.463-1.066-.781-1.542-1.22z"/><path fill="#60b133" d="M52.929 7.805c.019-.034.019-.074-.02-.106-1.107-.91-3.87.017-4.052 1.266-.11.742 1.025 1.045 1.69.769.996-.414 1.11-1.507 2.23-1.755.088-.021.16-.101.152-.174z"/><path fill="#3f722e" d="M50.49 8.95c-.243.214-.635.662-1.043.535-.465-.14.89-1.14 1.035-1.226a3.958 3.958 0 011.94-.563 3.81 3.81 0 00-.717.448c-.38.295-.857.493-1.214.805z"/><path fill="#60b133" d="M47.64 15.614c.012-.027.01-.059-.022-.08-.915-.657-2.995.18-3.057 1.155-.037.578.86.764 1.359.522.743-.365.762-1.215 1.613-1.456.066-.02.118-.085.107-.142z"/><path fill="#3f722e" d="M45.825 16.607c-.175.176-.45.54-.774.46-.37-.09.616-.923.722-.995a3.017 3.017 0 011.467-.52 2.869 2.869 0 00-.526.379c-.275.244-.632.418-.889.676z"/><path fill="#60b133" d="M34.473 14.683c.02-.041.016-.088-.033-.123-1.384-.998-4.54.262-4.639 1.74-.06.877 1.298 1.162 2.055.796 1.13-.55 1.162-1.838 2.454-2.2.101-.028.18-.128.163-.213z"/><path fill="#3f722e" d="M31.717 16.179c-.267.267-.686.817-1.176.694-.559-.137.94-1.395 1.102-1.505a4.579 4.579 0 012.226-.781 4.286 4.286 0 00-.8.572c-.419.37-.962.63-1.352 1.02z"/><path fill="#f14c1c" d="M18.121 10.145c1.048 0 2.012.288 2.791.769-.933-.892-2.31-1.457-3.85-1.457-2.313 0-4.262 1.27-4.88 3.01.477.042 1.014.077 1.601.105.686-1.421 2.368-2.427 4.338-2.427z"/><path fill="#af1e2d" d="M20.912 10.913a5.324 5.324 0 00-2.791-.769c-1.97 0-3.651 1.006-4.337 2.427.958.047 2.039.072 3.187.072 2.17 0 4.11-.09 5.4-.236-.326-.596-.831-1.107-1.46-1.494z"/><path fill="#f14c1c" d="M38.413 16.29a5.31 5.31 0 012.79.768c-.932-.892-2.31-1.457-3.85-1.457-2.312 0-4.261 1.27-4.88 3.01a40.62 40.62 0 001.602.105c.686-1.42 2.368-2.427 4.338-2.427z"/><path fill="#af1e2d" d="M41.203 17.058a5.324 5.324 0 00-2.79-.77c-1.97 0-3.652 1.007-4.338 2.428.957.047 2.038.072 3.187.072 2.17 0 4.11-.091 5.401-.236-.327-.596-.833-1.107-1.46-1.494z"/><path fill="#f14c1c" d="M55.603 11.47c1.048 0 2.012.288 2.791.769-.932-.892-2.31-1.457-3.85-1.457-2.313 0-4.262 1.27-4.88 3.01.477.042 1.014.077 1.602.105.685-1.421 2.367-2.427 4.337-2.427z"/><path fill="#af1e2d" d="M58.395 12.239a5.324 5.324 0 00-2.792-.77c-1.97 0-3.651 1.007-4.336 2.428.957.046 2.038.071 3.187.071 2.17 0 4.109-.09 5.4-.236-.326-.596-.832-1.107-1.46-1.494z"/><path fill="#f14c1c" d="M35.998 7.84c.77 0 1.478.218 2.049.581-.684-.674-1.695-1.102-2.826-1.102-1.698 0-3.13.961-3.583 2.276.35.032.744.058 1.176.08.503-1.075 1.738-1.835 3.185-1.835z"/><path fill="#af1e2d" d="M38.047 8.421a3.823 3.823 0 00-2.048-.58c-1.447 0-2.682.76-3.185 1.834.702.035 1.496.056 2.34.056 1.594 0 3.017-.07 3.966-.18a3.078 3.078 0 00-1.073-1.13z"/><path fill="#f14c1c" d="M23.55 14.845c.769 0 1.477.218 2.049.582-.685-.675-1.695-1.103-2.827-1.103-1.698 0-3.13.961-3.583 2.277.35.031.745.058 1.176.079.504-1.074 1.739-1.835 3.185-1.835z"/><path fill="#af1e2d" d="M25.599 15.427a3.816 3.816 0 00-2.05-.582c-1.445 0-2.68.761-3.184 1.835.703.036 1.497.056 2.34.056 1.594 0 3.018-.071 3.966-.18a3.06 3.06 0 00-1.072-1.129z"/><path fill="#f89d0e" d="M23.534 18.664c.875.02 1.729.001 2.565.04-.023-.684-1.753-1.234-3.891-1.234-1.553 0-2.883.293-3.508.714 1.6.284 3.182.447 4.834.48z"/><path fill="#fdde6e" d="M23.534 18.664c.428.01.85.01 1.27.011.387-.18.637-.394.684-.626-.691-.348-1.898-.579-3.28-.579-1.555 0-2.885.293-3.506.714a30.88 30.88 0 004.832.48z"/><path fill="#f89d0e" d="M22.432 18.617c.123-.063.197-.138.197-.218 0-.23-.582-.416-1.3-.416-.709 0-1.283.181-1.298.406.794.107 1.592.184 2.401.228zm27.408-.709c.932-.282 1.97-.437 2.85-.645.8-.187 1.692-.52 2.608-.834-.687-.283-1.668-.495-2.778-.562-2.146-.13-3.935.32-3.997 1.007-.034.383.488.754 1.318 1.034z"/><path fill="#fdde6e" d="M52.69 17.264c.8-.187 1.69-.521 2.603-.835-.685-.282-1.662-.494-2.773-.561-2.06-.126-3.775.287-3.965.927.595.35 1.617.63 2.823.744.455-.091.9-.177 1.312-.275z"/><path fill="#f89d0e" d="M52.856 16.82c-.02.23-.619.38-1.334.335-.717-.043-1.28-.265-1.26-.493.02-.23.617-.38 1.334-.335.717.043 1.281.265 1.26.494z"/><path fill="#fdf3b6" d="M42.882 11.668c.217.07.179.31-.055.33a6.111 6.111 0 01-.633.018c.236.1.462.21.663.338.162.105.01.288-.151.3-.88.063-1.678-.086-2.543-.195-.791-.1-1.613-.144-2.385-.323-.202-.046-.261-.223-.195-.36-.204-.01-.41-.016-.611-.035.077.02.16.03.234.057.196.071.133.28 0 .363-.461.29-.987.304-1.544.36-.367.038-.73.093-1.09.16a.49.49 0 01.12.004c.49.103.989.175 1.496.195.16.006.317.006.472.01-.052-.14.083-.309.304-.266 1.05.203 2.352-.198 3.286.331.13.074.097.21-.041.256-.741.255-1.796.3-2.658.092-.016.014-.026.032-.051.042-.015.006-.031.01-.047.014.16.035.317.073.464.124.442.152.369.627-.11.675-.78.077-1.811-.493-2.548-.193a.551.551 0 01-.583-.093c.043.077.03.167-.091.21-.11.038-.225.063-.337.095.278.135.553.274.822.437.138.084.155.3-.053.333-.628.1-1.255-.042-1.813-.312a6.017 6.017 0 01-.78-.167c-1.075.072-2.191.011-3.243-.06a1.79 1.79 0 00-.281.24.21.21 0 01-.135.064.21.21 0 01-.054.198c-.394.39-1.106.461-1.683.512-.41.037-.503-.54-.097-.592.523-.067 1.026-.28 1.556-.249-.036-.058-.044-.126.009-.19a.384.384 0 00.027-.029c-.074-.006-.152-.01-.224-.017-.264-.017-.386-.206-.37-.375-.042-.086-.032-.193.05-.26a9.036 9.036 0 011.086-.727 33.003 33.003 0 00-2.037-.073.195.195 0 01-.177-.093l-.274.081c.103.021.208.037.308.063.125.032.15.211 0 .23a4.295 4.295 0 01-1.11-.022c-.122.045-.25.082-.37.13-.33.134-.572-.087-.553-.301l-.158-.033c-1.003.27-2.14.322-3.174.23-.182-.015-.19-.23 0-.237 1.143-.043 2.246-.447 3.39-.405.12.004.185.069.199.14l.07.009c.854-.276 1.74-.54 2.638-.741-.045-.033-.092-.062-.135-.094-.234 0-.352-.13-.371-.274a11.225 11.225 0 00-.688-.48c-.323-.202-.026-.656.327-.46.327.183.67.375 1.014.572.438.06.876.109 1.314.149-.036-.012-.075-.026-.112-.037-.456-.142-.263-.748.204-.61l.696.209c-.097-.118-.047-.31.17-.292.657.053 1.282.25 1.876.509-.208-.11-.422-.221-.616-.331-.277-.158-.017-.534.267-.375.485.273 1 .488 1.51.71l.539-.11a13.967 13.967 0 01-.816-.307c-.247-.103-.142-.472.146-.444.78.074 1.545.223 2.297.415.115-.026.23-.047.346-.073.233-.05.385.117.379.27a.164.164 0 01.01.003c.793-.287 1.636-.564 2.476-.51.232.015.287.23.112.34-.415.26-.917.42-1.442.532.28.095.559.19.836.289a7.57 7.57 0 011.05-.083l-.617-.164c-.24-.062-.207-.385.06-.372 1.453.069 2.877.287 4.233.726zm-10.38.453c-.437.164-.883.311-1.333.456.807.034 1.61.09 2.41.168a.45.45 0 01-.202-.272 4.096 4.096 0 01-.875-.353zm-3.088-.17c-.064.03-.133.05-.2.078.089.065.18.13.265.195.194.003.386.012.576.027.098.008.136.134.025.151-.11.018-.221.03-.332.044.036.031.077.061.11.092l.152.002c.022.003.044-.004.065-.001.394-.176.792-.35 1.194-.518-.602-.042-1.204-.087-1.806-.117-.014.017-.022.034-.05.047zm1.225 1.276a41.6 41.6 0 011.284.4 2.805 2.805 0 01-.336-.506c-.38-.013-.761-.03-1.141-.053a.389.389 0 01-.206.204c-.326.155-.625.333-.937.487l.017.001a.95.95 0 01.536-.065.134.134 0 01.105.092c.148.006.296.015.445.02-.405-.15-.21-.707.233-.58zm4.094.088a9.76 9.76 0 01-.235-.047c-.37-.077-.31-.465-.036-.564-.136.026-.274.05-.41.084a.688.688 0 01.044.004c.206.023.127.258-.046.275-.555.054-1.11.071-1.665.07.313.207.634.408.97.59a9.927 9.927 0 011.119.015.262.262 0 01.132.051c-.112-.156-.096-.36.127-.478zm-.551-1.742c.606.011 1.21.021 1.818.037-.406-.07-.81-.155-1.204-.261-.257.05-.513.102-.774.15.053.024.108.048.16.074z"/><path fill="#60b133" d="M24.031 13.142c1.103.189 1.287 1.244 2.28 1.6.665.238 1.744-.11 1.588-.822-.262-1.205-3.003-1.975-4.015-1.043-.036.033-.033.072-.012.103-.003.072.073.146.16.162z"/><path fill="#3f722e" d="M25.081 13.254a3.776 3.776 0 00-.726-.402 3.904 3.904 0 011.92.457c.147.076 1.529.983 1.088 1.142-.387.142-.798-.275-1.05-.47-.366-.289-.843-.458-1.231-.727z"/></svg>