<svg xmlns="http://www.w3.org/2000/svg" width="46" height="72"><path fill="#cfcebd" d="M31.843 20.12c-4.753.425-8.65.265-11.146-.126l.035-.63a59.962 59.962 0 015.537-.16c1.83.021 3.78.021 5.478.045a.994.994 0 01.036.264c.035.195.047.401.06.607z"/><path fill="#c5c3ae" d="M20.732 19.363l-.034.631a14.84 14.84 0 01-1.687-.356c0-.022 0-.069.011-.102a28.95 28.95 0 011.71-.173zm15.079.299c-.737.103-1.474.194-2.175.274-.617.081-1.21.138-1.793.184a5.403 5.403 0 00-.059-.607c0-.092-.013-.173-.036-.264 1.698.022 3.171.068 4.04.172 0 .034.011.057.011.092 0 .045.012.103.012.15z"/><path fill="#e3e2cf" d="M39.257 14.053c-.014.321-.12 1.881-.844 2.282-.82.447-2.067 1.87-2.103 2.008 0 0-.096.585-.773.046-.023-.068-.047-.149-.083-.23a9.382 9.382 0 00-.808-1.491c.19.173.5.253 1.105-.149.974-.643 1.69-2.374 1.19-3.464a1.7 1.7 0 00-.287-.424c-.999-.998-2.116-1.537-3.73-1.101-.403.114-.642.459-.773.779-.142.322-.178.608-.178.608l-.76-4.003c.082.218.428 1.113 1.151 1.021.832-.104 2.817-.758 4.836.551 1.165.756 1.926 2.19 2.057 3.567z"/><path fill="#f0efdc" d="M31.748 19.25c-1.7-.024-3.648-.024-5.48-.047a59.975 59.975 0 00-5.536.16l.074-.607c.237-1.48.843-3.04 2.067-4.21.166 0 .689-.023 1.4-.046.453.068.999.148 1.605.194 0 0 .013 0 .036.012.025 0 .047.013.083.013.07.01.166.033.272.045.06.01.12.023.19.034.418.08 1.012.172 1.64.253.203.023.405.046.62.068.177.012.355.034.534.046.094.012.179.023.262.023.094.011.177.011.26.011.095.012.19.012.274.012.14.012.272.012.404 0 0 0 .832 1.411 1.21 3.452.037.195.072.391.085.586z"/><path fill="#cfcaa7" d="M24.344 9.017l-1.175 5.208-.012.058h-.012l-.357-.092.951-5.312h.024c.012 0 .035.012.071.012.166.057.345.092.51.126z"/><path fill="#f0efdc" d="M30.453 13.662s-.855 1.136-4.575 1.032a21.412 21.412 0 01-1.604-.194s-.01 0-.047-.012a14.082 14.082 0 01-1.07-.206l.013-.058 1.175-5.208c.418.092.82.151 1.224.196 0 0 .012 0 .036.012.309.068 3.04.653 4.36.562 0 0 .25.033.25.31 0 0 .7 2.786.238 3.566z"/><path fill="#fff" d="M35.533 17.447s1.623-.814 2.116-2.075c.186-.475-.233-.887-.334-.376-.264 1.34-1.652 2.222-1.782 2.45z"/><path fill="#cfcaa7" d="M24.274 14.5c-.712.023-1.235.046-1.401.046-1.224 1.17-1.83 2.73-2.068 4.21l-.073.607c-.734.058-1.307.116-1.71.173v-.023c.013-.092.023-.184.048-.287.012-.092.036-.183.059-.287.037-.183.083-.378.143-.585.761-2.57 3.517-4.164 3.517-4.164s.131.035.356.092h.012c.249.057.618.138 1.07.206.036.012.047.012.047.012zm11.514 4.921c-.868-.104-2.342-.149-4.04-.172a5.167 5.167 0 00-.084-.586c-.38-2.04-1.211-3.452-1.211-3.452-.12 0-.263.012-.404 0-.083 0-.18 0-.274-.012-.083 0-.166 0-.26-.01-.083 0-.168-.012-.262-.024-.18-.012-.357-.034-.534-.046-.215-.022-.417-.045-.62-.068a29.036 29.036 0 01-1.64-.253c-.07-.01-.13-.023-.19-.034-.106-.012-.202-.035-.272-.045 1.71.125 3.92.08 6.215-.528 0 0 1.117.642 2.173 2.1a.18.18 0 01.037.044c.047.07.106.22.213.321 0 .012.01.012.01.012.288.436.572.93.81 1.491.036.08.06.161.083.23.07.183.118.367.167.551.023.103.047.194.06.286.01.057.01.127.023.195z"/><path fill="#cfcaa7" d="M38.507 16.633c-.974 1.01-1.734 1.813-2.257 2.868a4.685 4.685 0 00-.2.436 6.029 6.029 0 00-.322.941c.071-.379.106-.792.083-1.216 0-.046-.012-.103-.012-.149 0-.034-.012-.058-.012-.092-.012-.068-.012-.138-.023-.195-.013-.092-.036-.183-.06-.286-.049-.184-.58-1.563-.396-1.106.762 1.176.833.728 1.002.509.304-.394 1.283-1.561 2.103-2.008.724-.401.83-1.961.844-2.282.096.985-.13 1.95-.75 2.58z"/><path fill="#ebe9d6" d="M31.378 14.366c.278-.06.552-.1.834-.175l-.239-1.274-.76-4.002c-.012-.035 0-.15 0-.15l-.36.089c.167.793.884 4.249.818 4.994 0 0-.04.247-.293.517z"/><path fill="#cfcaa7" d="M32.924 11.53c1.614-.436 2.731.104 3.73 1.102.124.125.22.269.291.426-.108-.865-2.017-2.548-3.766-2.547-.312 0-.968.236-1.324-.088 0 0 .446.956.293 1.889.137-.322.376-.673.776-.782z"/><path fill="#fff" d="M23.157 14.775s2.539 0 3.482.389c0 0-2.373-.097-3.071.386 0 0-1.435 1.035-1.92 3.067 0 0-.142-2.133 1.509-3.842z"/><path fill="#ebe9d6" d="M35.007 19.353c.294.02.56.042.78.068-.012-.068-.012-.137-.023-.195-.013-.092-.036-.183-.06-.286-.049-.184-.095-.367-.167-.551-.023-.068-.047-.15-.083-.23a9.35 9.35 0 00-.808-1.491s-.012 0-.012-.011c-.106-.103-.166-.252-.213-.322a.161.161 0 00-.037-.045 8.456 8.456 0 00-1.928-1.937c-.362.147-1.85.35-1.85.35.687.02 1.334.004 1.605.08.57.162 2.1 2.417 2.672 3.492.411.767.255 1.003.124 1.078z"/><path fill="#cfcaa7" d="M32.212 14.19c-2.295.608-4.506.654-6.216.529-.035 0-.056-.012-.082-.012-.023-.012-.036-.012-.036-.012 3.72.103 4.575-1.032 4.575-1.032.463-.781-.233-3.345-.233-3.345 0-.274-.25-.31-.25-.31-5.174-.012-5.338-.83-5.647-.897.57.057 2.41.193 2.945.193.048 0 .12 0 .179-.011.57 0 1.128-.046 1.65-.116.036 0 .072 0 .107-.01.665-.046 1.355-.241 2.01-.401 0 0-.012.113 0 .149l.76 4.003z"/><path fill="#fff" d="M33.18 10.511s.866-.2 2.186 0c0 0 1.17.312 1.651 1.259 0 0 .261.765-.695.256 0 0-1.892-1.515-3.143-1.515z"/><path fill="#cd2b25" d="M34.883 65.637s-.426.849-3.076.849h-2.65c-.06-1.802-1.092-3.121-1.545-3.615h1.058s4.444.126 5.727.976c0 0 .761.929.486 1.79z"/><path fill="#e23422" d="M29.158 66.486H25.64c-6.475-.437-5.94-1.802-5.94-1.802.379-1.284 2.529-1.686 3.955-1.812h3.957c.452.493 1.484 1.812 1.545 3.614z"/><path fill="#b82026" d="M34.48 23.47c-.272.161-.784.321-1.426.481h-.012c-.143.036-.285.07-.44.104.275-.068.548-.149.81-.23.023-.011.034-.011.058-.022h.013c.011 0 .022-.012.035-.012a.633.633 0 00.144-.046c.283-.08.557-.171.817-.275z"/><path fill="#cd2b25" d="M34.255 61.324c-1.236 1.1-4.35 1.238-6.856 1.33 8.66-14.694 2.921-37.739 2.921-37.739 1.842-.125 3.815-.377 3.935-.343.475.104 8.14 11.08 8.686 17.825 0 0 .32 10.898-8.686 18.927z"/><path fill="#e23422" d="M27.399 62.654c-.95.032-1.818.068-2.447.16h-.096c-3.755-.354-4.752-1.478-4.752-1.478-1.83-1.262-10.028-7.984-11.003-16.6-.973-8.613 10.267-19.465 10.267-19.465.652-.825 1.271-1.066 1.271-1.066 1.579.47 3.242.309 3.242.309.477.092.939.16 1.402.218.168.012.322.034.488.046.249.023.498.034.748.046h.036c.166.092.665.138 1.283.138.071 0 .165.01.261.01.12.013.249.013.393.013.522.01 1.165-.023 1.829-.07 0 0 5.738 23.046-2.922 37.739z"/><path fill="#b82026" d="M25.641 66.486h-7.807c-.726-1.251 1.58-3.614 1.58-3.614S9.78 55.106 8.65 44.84C7.51 34.574 20.27 23.47 20.27 23.47c.582.425 2.602.815 3.611 1.044 0 0-1.663.16-3.242-.31 0 0-.619.242-1.27 1.067 0 0-11.242 10.852-10.268 19.466.975 8.615 9.173 15.337 11.003 16.599 0 0 .997 1.124 4.752 1.479-.19 0-.642.012-1.2.057-1.426.126-3.577.528-3.955 1.812 0 0-.536 1.365 5.94 1.802zm10.17-46.824c.023.424-.012.837-.083 1.216-.049.16-.083.32-.119.492-.333 1.102-.95 1.882-1.094 2.065-.01.024-.023.035-.036.035-.26.103-.534.195-.817.275-.049.023-.096.034-.144.046-.013 0-.024.012-.035.012h-.013c-.024.01-.035.01-.059.022-.26.08-.534.161-.809.23.155-.035.297-.069.44-.104-1.9.586-3.813.896-5.75.884-.213 0-.428 0-.653-.012.225-.012.451-.022.664-.046.167-.01.321-.034.477-.057.022 0 .047-.01.07-.01h.024c.202-.035.404-.07.594-.116.226-.045.44-.092.642-.16a9.566 9.566 0 001.165-.402c.141-.058.284-.127.415-.183.262-.126.5-.253.725-.379a9.411 9.411 0 00.44-3.05c0-.105-.012-.207-.012-.3a34.656 34.656 0 001.793-.184c.701-.08 1.438-.17 2.175-.274z"/><path fill="#e23422" d="M31.854 20.42a9.411 9.411 0 01-.439 3.05c-.226.126-.463.253-.725.38-.13.055-.273.125-.415.182-.358.15-.749.287-1.165.402-.202.057-.429.115-.642.16-.19.046-.392.081-.594.115h-.024c-.023 0-.048.011-.07.011-.155.023-.31.046-.477.057-.213.024-.439.035-.664.046h-.119c-.25-.01-.499-.022-.748-.046-.166-.01-.32-.034-.488-.046a20.07 20.07 0 01-1.402-.217c-.13-.035-.259-.069-.403-.115-.737-.24-1.532-.676-1.842-.848a1.056 1.056 0 00-.13-.08c-.417-.196-.844-1.596-.82-3.327 0-.046 0-.104.012-.15 2.495.391 6.392.551 11.145.126 0 .093.011.195.011.3z"/><path fill="#f68a55" d="M21.051 19.685c.19.59.852 2.358 1.468 2.999.488.509 1.541 1.702 3.397 2.105 0 0-4.337-.26-5.302-1.89-.762-1.283.14-2.401.083-2.904-.013-.124.094-1.127.354-.31z"/><path fill="#b82026" d="M23.881 24.514c-1.009-.23-3.029-.62-3.61-1.044a1.22 1.22 0 01-.203-.161c-.428-.39-1.33-1.49-1.057-3.67a15.088 15.088 0 001.686.355c-.012.046-.012.104-.012.15-.024 1.73.404 3.132.82 3.326 0 0 .048.023.131.08.31.173 1.104.609 1.842.85.143.046.272.079.403.114z"/><path fill="#f46d33" d="M13.274 53.054c-2.971-5.65.504-11.165 2.247-13.797.746-1.127 3.501-10.407 3.501-10.407-4.342 3.228-6.648 6.945-7.561 10.992l-1.416 3.668-.14 4.708c2.346 6.899 8.624 12.03 10.199 13.117 0 0 .915.989 4.155 1.402h1.452c-7.523-.134-12.437-9.683-12.437-9.683z"/><path fill="#fbc848" d="M11.37 51.423c-2.62-7.623 3.422-17.536 3.574-17.785-1.912 2.27-3.483 6.204-3.483 6.204l-1.416 3.668-.14 4.708c.407 1.198.94 2.338 1.538 3.42a5.389 5.389 0 00-.072-.215z"/><path fill="#cd2b25" d="M23.881 24.514s-1.663.16-3.242-.31c0 0-.619.242-1.272 1.067 0 0-11.24 10.85-10.266 19.466.301 2.655 1.288 5.128 2.564 7.319-6.704-13.544 12.216-27.542 12.216-27.542z"/><path fill="#fbc848" d="M21.965 23.21c.48.478 1.024.661.906.746-.119.086-1.153-.36-1.47-.793-.165-.223-.278-.537-.158-.623.12-.085.528.475.722.67zm11.077.741c-.143.035-.284.07-.44.104l.047.002c.132-.037.263-.066.393-.106z"/><path fill="#852d22" d="M35.17 19.748c-.038.952-.327 2.898-1.106 3.501 0 0-1.216.711-1.462.806.275-.069.547-.15.808-.23.025-.012.035-.012.06-.022h.013c.01 0 .022-.012.035-.012.048-.012.094-.022.143-.046.283-.08.558-.172.818-.275.012 0 .025-.01.036-.034.143-.184.76-.964 1.093-2.066.037-.172.071-.332.12-.492.071-.379.106-.792.083-1.216-.216.03-.422.052-.636.08z"/><path fill="#b82026" d="M46.112 42.844c0-3.682-4.17-12.675-11.633-19.374-1.342.588-5.25 1.377-7.187 1.365-.213 0-.428 0-.653-.012h-.084c.166.092.665.138 1.284.138.07 0 .165.012.26.012.12.012.249.012.393.012.522.01 1.165-.024 1.829-.07 1.842-.126 3.814-.378 3.935-.343.474.103 8.138 11.08 8.685 17.825 0 0 .319 10.897-8.685 18.926-1.237 1.101-4.35 1.239-6.857 1.331-.95.033-1.818.069-2.447.161h-.096c-.19 0-.641.011-1.2.056h5.015s4.444.126 5.726.976c0 0 .762.929.486 1.79 0 0-.425.849-3.076.849h4.705s0-2.077-1.296-3.615c0 0 10.896-8.304 10.896-20.027z"/><path fill="#852d22" d="M34.48 23.47c-.325.144-.808.298-1.37.449.426-.088 1.06-.205 1.202-.156 0 0 5.911 5.701 9.161 11.238-1.973-3.728-5.009-7.954-8.994-11.531zm-2.295 39.184c2.463-.055 3.313.837 3.614 2.295.302 1.458-1.416 1.537-1.416 1.537h2.13s-.008-.729-.273-1.636l-.282-.778a4.995 4.995 0 00-.742-1.2s1.734-1.333 3.812-3.657c-3.265 3.485-6.843 3.438-6.843 3.438z"/><path fill="#fddb83" d="M32.976.824c0 .287-1.698.528-4.028.62h-.106c-.38 0-.714 0-.986.01-.38 0-.619.012-.619.012a42.62 42.62 0 01-3.124-.103h-.024c-1.557-.114-2.59-.31-2.59-.54 0-.125.297-.24.808-.332 0 0-.119.264 1.068.332 1.202.058 9.246.436 8.805-.332.512.092.796.207.796.332z"/><path fill="#fbc33a" d="M32.18.491c.44.768-7.604.39-8.805.332-1.187-.068-1.068-.332-1.068-.332.998-.195 2.84-.32 4.93-.32 2.103 0 3.945.125 4.943.32z"/><path fill="#d57d1a" d="M25.242 9.233c-.712-.081-1.235-.173-1.437-.207-.037 0-.06-.012-.072-.012-.012-.011-.024-.011-.024-.011v.01a13.081 13.081 0 01-2.554-.927l.344-7.262c0 .229 1.033.426 2.59.54-.225.022-1.901.149-2.244.102l-.346 6.332s1.83.998 3.743 1.435zm8.139-1.148c-.797.412-2.305.963-4.206 1.216-.036.012-.072.012-.108.012-.415.044-.83.056-1.236.056 1.116-.207 3.09-.803 3.72-.986.761-.218.963-.792 1.02-1.17.11-.643 0-3.59 0-4.795 0-.4-.202-.63-.39-.688-.677-.217-2.093-.276-3.234-.287 2.33-.09 4.03-.333 4.03-.62z"/><path fill="#fab80a" d="M32.572 7.213c-.058.378-.26.952-1.021 1.17-.63.184-2.603.78-3.72.986h-.011a23.39 23.39 0 01-2.566-.136h-.012c-1.913-.437-3.743-1.435-3.743-1.435l.345-6.332c.344.047 2.02-.08 2.246-.103h.023c.903.07 1.973.103 3.124.103 0 0 .238-.012.619-.012.273-.01.606-.01.987-.01h.105c1.14.01 2.557.07 3.232.286.19.057.392.287.392.688 0 1.204.108 4.152 0 4.795z"/><path fill="#f8a20e" d="M32.18 1.73c-.676-.217-2.092-.275-3.232-.286h-.351c.001.007.36 4.834-.906 7.922.045 0 .083.004.13.004h.01c1.117-.207 3.09-.803 3.72-.987.761-.217.963-.792 1.021-1.17.108-.642 0-3.59 0-4.795 0-.401-.203-.63-.392-.688z"/><path fill="#fde3a7" d="M22.303 6.993l-.504-4.73-.3 5.535s1.83.998 3.742 1.434h.012c.478.053 1.048.09 1.653.112-3.047-.812-4.603-2.35-4.603-2.35zm0-5.215s2.235.314 3.302 0c0 0-2.939.915-3.302.779-.363-.133 0-.78 0-.78z"/><path fill="#9c2921" d="M38.5 40.171c-1.377-2.397-3.527-5.288-5.643-6.837H22.759s-3.423 3.476-5.514 6.837c-.951 1.526-1.628 3.03-1.604 4.187 0 0 .083 1.365.7 3.143 1.13 3.326 4.1 8.11 11.717 8.121 5.547.012 9.458-4.21 11.073-8.12.57-1.332.855-2.628.855-3.717 0-.654-.571-2.03-1.485-3.614z"/><path fill="#fab80a" d="M39.52 43.382c0 1.09-.287 2.387-.857 3.72h-22.79c-.618-1.78-.7-3.146-.7-3.146-.023-1.158.653-2.66 1.604-4.186h21.256c.914 1.583 1.486 2.96 1.486 3.612z"/><path fill="#fbc496" d="M38.033 39.77h-2.757c-1.02-1.606-2.351-3.35-3.742-4.542h-8.198a46.335 46.335 0 00-3.744 4.542h-2.815c2.092-3.36 5.513-6.836 5.513-6.836h10.099c2.116 1.549 4.266 4.44 5.644 6.836zm.63 7.33c-1.615 3.91-5.525 8.132-11.073 8.12-7.616-.01-10.587-4.794-11.716-8.12h2.47c1.07 2.627 3.554 5.814 9.256 5.828h.013c3.267 0 5.548-1.882 6.892-3.477a12.485 12.485 0 001.568-2.35z"/><path fill="#c22028" d="M35.276 39.77H19.591a46.493 46.493 0 013.745-4.542h8.198c1.39 1.192 2.721 2.936 3.742 4.542zm.797 7.33a12.485 12.485 0 01-1.568 2.35c-1.344 1.596-3.625 3.478-6.892 3.478H27.6c-5.702-.014-8.185-3.201-9.256-5.827z"/><path fill="#8b182f" d="M31.534 35.228h-8.198l7.892.547s2.383 2.49 2.983 3.995h1.065c-1.02-1.606-2.351-3.35-3.742-4.542z"/><path fill="#feebde" d="M17.57 39.367s4.264-5.63 5.02-6.033h4.619l-4.321.563z"/><path fill="#8b182f" d="M28.101 52.892c3.002-.18 5.13-1.93 6.403-3.441a12.493 12.493 0 001.57-2.35h-1.19s-2.826 5.287-6.783 5.79z"/><path fill="#feebde" d="M16.462 47.562s1.925 4.33 4.152 5.212"/><path fill="#edea11" d="M8.402 71.072c-1.231-.373-2.381-.976-3.453-1.537-1.015-.53-2.143-1.007-3.07-1.637C.97 67.28.61 66.484.444 65.55c-.352-1.948.237-4.186.596-6.125.676-3.667 5.328-5.725 8.967-7.3.087-.038.817-.265.839-.353l-.893 3.419 10.132 14.236c.045.064-5.204 1.585-5.822 1.705-1.934.376-3.988.506-5.86-.06z"/><path fill="#fbc221" d="M14.359 71.492c-2.411.47-4.415.446-6.123-.072-1.273-.385-2.471-1.013-3.53-1.566a46.313 46.313 0 00-.944-.474c-.741-.363-1.508-.739-2.178-1.196-1.142-.772-1.451-1.781-1.592-2.573-.306-1.69.074-3.596.409-5.278.066-.325.13-.644.188-.958.35-1.903 1.734-3.579 4.23-5.121 1.632-1.008 3.487-1.809 4.979-2.456.027-.012.095-.036.185-.067.104-.036.399-.138.514-.194a.514.514 0 01.355-.136c.218-.001.405.125.442.299.004.022.007.037-.013.137l.01.002a.255.255 0 01-.023.058c-.066.288-.265 1.05-.834 3.224l10.045 14.117c.115.161.055.377-.131.492-.37.228-5.666 1.7-5.99 1.762zM1.489 59.47c-.058.315-.122.64-.188.968-.34 1.708-.691 3.473-.407 5.05.18 1 .563 1.635 1.28 2.123.623.421 1.358.782 2.07 1.131.324.16.646.317.957.48 1.08.565 2.185 1.145 3.368 1.503 1.536.465 3.366.479 5.597.048.497-.098 4.025-1.116 5.268-1.511L9.556 55.381a.314.314 0 01-.05-.26l.697-2.666c-1.452.629-3.272 1.416-4.842 2.386-2.292 1.416-3.56 2.93-3.871 4.629z"/><path fill="#edea11" d="M.64 66.294a6.263 6.263 0 002.112 1.494c1.226.54 4.273 1.805 5.646.807.597-.434.5-.895.14-1.377-1.119-1.494-2.044-3.296-2.436-5.02-.774-3.396-.512-7.25 2.616-9.509.437-.196.87-.383 1.287-.565.088-.038.818-.265.84-.352l-.893 3.418 10.131 14.238c.045.063-5.204 1.585-5.82 1.704-1.935.376-3.989.507-5.86-.06-1.233-.373-2.382-.975-3.454-1.537-1.015-.53-2.143-1.008-3.07-1.637A3.113 3.113 0 01.64 66.294z"/><path fill="#edea11" d="M6.981 63.389c2.398 4.869 8.154 7.883 12.69 6.337 4.539-1.545 6.138-7.066 3.737-11.934-2.402-4.871-8.027-7.565-12.563-6.02-4.537 1.547-6.266 6.747-3.864 11.617z"/><path fill="#fbc221" d="M21.366 69.35a7.538 7.538 0 01-1.527.718c-2.315.788-5 .51-7.562-.79-2.447-1.24-4.533-3.335-5.72-5.746-2.147-4.352-1.096-9.122 2.498-11.34a8.075 8.075 0 011.621-.763c4.765-1.622 10.665 1.167 13.155 6.218 2.194 4.45 1.134 9.481-2.464 11.702zM7.404 63.245c1.12 2.27 3.075 4.24 5.368 5.402 2.305 1.168 4.696 1.431 6.731.737a6.5 6.5 0 001.322-.621c3.278-2.024 4.205-6.678 2.16-10.828-2.306-4.672-7.676-7.283-11.973-5.821a6.943 6.943 0 00-1.415.665c-3.267 2.017-4.189 6.418-2.193 10.465z"/><path fill="#fddf71" d="M11.379 52.604c.204-.376.757-.784 2.212-.754 1.53.029 1.91.59 1.91.59l-.31 8.148-3.92-7.95.107-.034z"/><path fill="#fff" d="M11.098 52.556l.115-.04c.023-.006.043-.015.068-.022l.001-.001c.311-.53 1.098-.795 2.289-.771 1.561.03 1.989.597 2.033.66l.027.04-.327 8.66zm.394.124l-.017.034-.029.009 3.637 7.374.288-7.631c-.112-.108-.563-.467-1.761-.49-1.123-.021-1.856.224-2.118.704z"/><path fill="#fddf71" d="M9.239 53.28c1.029-.745 1.983-.623 1.983-.623a.177.177 0 01.049-.018l3.92 7.95-7.098-5.625s.113-.938 1.146-1.684z"/><path fill="#fff" d="M7.956 55.003l.01-.078c.004-.04.13-.991 1.185-1.752.29-.211.603-.375.928-.484.35-.121.857-.198 1.1-.162l.148-.05 4.204 8.528zm1.369-1.614c-.816.589-1.038 1.31-1.09 1.54l6.622 5.247-3.647-7.396a2.688 2.688 0 00-1.011.152 3.338 3.338 0 00-.874.457z"/><path fill="#fddf71" d="M6.705 56.566c.309-1.196 1.389-1.603 1.389-1.603l7.098 5.625L6.817 58.8s-.421-1.041-.112-2.234z"/><path fill="#fff" d="M6.729 58.907l-.03-.08a4.02 4.02 0 01-.118-2.315c.316-1.23 1.404-1.652 1.45-1.668l.067-.027 7.569 5.998zm.178-.213l7.815 1.67-6.628-5.251c-.23.106-1.014.539-1.265 1.503-.246.959-.007 1.819.078 2.078z"/><path fill="#fddf71" d="M7.76 63.06s-.633-.717-1.04-2.108c-.35-1.19-.014-1.877.094-2.052 0-.033.001-.068.003-.1l8.375 1.788-7.406 2.527a.569.569 0 00-.026-.056z"/><path fill="#fff" d="M7.781 63.257l-.049.018-.075-.158c-.103-.119-.676-.843-1.061-2.153-.346-1.185-.036-1.895.091-2.119v-.01c0-.023-.001-.043.001-.064l.005-.125 8.982 1.921-7.885 2.687-.005.008zm-.838-4.304l-.017.026c-.101.171-.415.821-.084 1.958.292 1 .708 1.646.901 1.912l.029-.039.069.143 6.87-2.342z"/><path fill="#fddf71" d="M7.787 63.114l7.405-2.525-4.455 6.163c-2.484-.704-2.95-3.637-2.95-3.637z"/><path fill="#fff" d="M10.723 66.873c-2.553-.723-3.06-3.73-3.063-3.763l-.016-.09 7.911-2.698-4.75 6.576zM7.93 63.206c.046.22.19.8.517 1.43.53 1.015 1.281 1.676 2.227 1.968l4.156-5.75z"/><path fill="#fddf71" d="M10.737 66.752l4.455-6.164-.305 8.152s-.547.292-2.076-.275c-1.531-.568-2.074-1.713-2.074-1.713z"/><path fill="#fff" d="M10.623 66.788l-.033-.07 4.748-6.566-.324 8.615-.005.06-.048.028s-.017.01-.06.026c-.207.07-.828.182-2.118-.295-1.574-.586-2.137-1.748-2.16-1.797zm.262-.007c.142.243.703 1.102 1.947 1.563 1.194.446 1.76.35 1.93.299l.285-7.613z"/><path fill="#fddf71" d="M14.887 68.74l.001-.061.304-8.09 3.922 7.952s-.448.738-1.738.86c-1.036.1-2.007-.425-2.355-.637-.042-.005-.088-.015-.134-.023z"/><path fill="#fff" d="M14.994 68.885l-.02-.004a.85.85 0 01-.094-.017l-.126-.028.328-8.739 4.18 8.47-.036.053c-.01.02-.302.49-1.074.753a3.296 3.296 0 01-.742.155c-1.044.101-2.02-.403-2.416-.643zm.31-7.802l-.284 7.558.031.004.024.015c.352.217 1.28.71 2.266.614a3.07 3.07 0 00.688-.144c.561-.192.846-.5.94-.62z"/><path fill="#fddf71" d="M22.294 66.215s-.037.937-.711 1.485c-.67.547-1.864 1.112-2.47.841l-3.921-7.953z"/><path fill="#fff" d="M19.028 68.633l-4.171-8.457 7.505 5.944.063.051-.001.072c-.005.038-.048.994-.747 1.563a5.001 5.001 0 01-1.424.791c-.493.168-.886.186-1.173.06zm-3.497-7.628l3.67 7.442c.216.071.543.038.929-.093a4.801 4.801 0 001.364-.757c.523-.428.64-1.118.665-1.34z"/><path fill="#fddf71" d="M23.57 62.378s.53 1.148.17 2.174c-.365 1.024-1.446 1.663-1.446 1.663l-7.102-5.627z"/><path fill="#fff" d="M14.722 60.364l8.855 1.89.076.016.033.073c.024.05.55 1.21.176 2.268-.371 1.048-1.442 1.692-1.49 1.717l-.07.043zm.945.452l6.616 5.243c.24-.158 1.039-.737 1.336-1.568.29-.821-.028-1.742-.132-2.002z"/><path fill="#fddf71" d="M15.192 60.588l7.409-2.52s.762.53 1.097 1.774c.279 1.033-.015 2.055-.121 2.37-.003.054-.003.112-.007.166z"/><path fill="#fff" d="M14.71 60.612l7.891-2.69.06.043c.035.025.817.58 1.16 1.866.284 1.056-.013 2.103-.118 2.425v.01c-.002.047-.002.094-.005.142l-.002.124zm.965-.044l7.771 1.66v-.013l.001-.045.005-.016c.098-.285.392-1.293.121-2.3-.26-.977-.803-1.497-.975-1.643z"/><path fill="#fddf71" d="M15.192 60.588l4.457-6.16s.755.044 1.876 1.347c.77.892 1.143 1.96 1.051 2.238h-.003c.009.017.02.035.028.054z"/><path fill="#fff" d="M22.624 58.201l-7.794 2.654 4.711-6.514.033-.042h.06c.032.003.828.065 1.982 1.403.713.826 1.161 1.904 1.094 2.317l.064.131-.112.038-.014.033zm-.395-.612l.221.175c-.062-.382-.387-1.189-1.015-1.917-.885-1.026-1.526-1.239-1.715-1.28l-4.165 5.755 6.871-2.339z"/><path fill="#fddf71" d="M15.502 52.44h.005c.65-.024 1.312-.17 2.555.446 1.246.617 1.587 1.54 1.587 1.54l-4.457 6.162z"/><path fill="#fff" d="M15.375 52.316l.106-.005c.084-.003.17-.008.255-.013.587-.036 1.253-.075 2.363.474 1.29.64 1.656 1.591 1.67 1.631l.024.065-4.746 6.561zm.421.237a4.385 4.385 0 01-.17.01l-.288 7.588 4.164-5.758c-.097-.207-.493-.906-1.48-1.395-1.045-.519-1.645-.48-2.226-.445z"/><path fill="#fff" d="M14.076 61.714c-.024.075.149.162.21.156.23-.027.387-.233.569-.37.105.273.13.543.175.827.012.074.234.302.237.206.013-.305.048-.699.139-.973.229.337.525.775.704 1.135.026.05.144.103.13.004-.036-.263-.298-.748-.185-.98.106-.217.772.284.985.431v.001c.015.008.025.016.034.023.105.067.21.01.08-.08a3.293 3.293 0 01-.821-.789c-.153-.226.687-.176.788-.17.15.01-.055-.147-.11-.168a5.898 5.898 0 01-.71-.304c.116-.188.372-.42.576-.527.084-.043-.271-.083-.32-.082-.162.005-.32.03-.48.05.05-.15.055-.478.099-.63.022-.076-.143-.017-.202.02-.016.01-.03.017-.046.028a1.96 1.96 0 00.024-.1c0-.009-.022-.024-.026-.017-.028.06-.443.562-.51.14a1.634 1.634 0 01-.012-.435c.007-.044-.14-.122-.147-.079-.005.015-.007.031-.01.046-.073.315-.312.683-.623.091-.062-.118-.123-.236-.196-.35 0-.006-.005-.01-.01-.016-.021-.032-.174-.108-.142-.033.148.342.31 1.19-.347.864-.153-.069-.082.07.014.121.197.087.62.58.223.58-.107.003.088.145.118.154.11.038.219.083.324.137-.26.193-.586.366-.923.408-.102.001.107.175.184.175.089-.002.432-.05.514-.048-.115.176-.245.34-.307.554z"/></svg>