<svg xmlns="http://www.w3.org/2000/svg" width="15" height="13"><path fill="#fff9ee" d="M10.537 5.013c.124-.11.374-.19.729-.19.332 0 .728.037 1.102.117l.315-1.277c-.645-.171-1.311-.218-2-.218-.687 0-1.23.079-1.666.269-.437.182-.73.389-.894.69-.167.269-.25.719-.25 1.288v.5H6.538v1.46h1.335v4.586c.56.096 1.144.142 1.749.142.227 0 .458 0 .686-.031V7.652h1.769v-1.46h-1.77v-.47c0-.36.065-.581.23-.71z"/><path fill="#f9f3e7" d="M4.803 12.736c-2.245 0-4.07-1.622-4.07-3.615V4.266c0-1.993 1.825-3.615 4.07-3.615h5.466c2.244 0 4.07 1.622 4.07 3.615v4.855c0 1.993-1.826 3.615-4.07 3.615zm0-11.583c-1.934 0-3.507 1.396-3.507 3.113v4.855c0 1.717 1.573 3.113 3.507 3.113h5.466c1.932 0 3.506-1.396 3.506-3.113V4.266c0-1.717-1.574-3.113-3.506-3.113z"/></svg>