<svg xmlns="http://www.w3.org/2000/svg" width="14" height="13"><path fill="#f9f3e7" d="M5.467 9.39c-1.242 0-2.252-.897-2.252-2V4.858c0-1.104 1.01-2 2.252-2H8.32c1.242 0 2.252.896 2.252 2V7.39c0 1.103-1.01 2-2.252 2zm0-6.043c-.938 0-1.702.678-1.702 1.51V7.39c0 .833.764 1.51 1.702 1.51H8.32c.938 0 1.701-.677 1.701-1.51V4.858c0-.833-.763-1.511-1.7-1.511z"/><path fill="#f9f3e7" d="M5.033 6.123c0-.911.835-1.652 1.86-1.652 1.027 0 1.862.74 1.862 1.652 0 .912-.835 1.653-1.861 1.653s-1.861-.741-1.861-1.653zm.564 0c0 .636.582 1.153 1.297 1.153S8.19 6.759 8.19 6.123c0-.634-.582-1.151-1.297-1.151s-1.297.517-1.297 1.15zm3.845-1.832c0 .238-.217.431-.485.431-.267 0-.484-.193-.484-.43 0-.238.217-.43.484-.43.268 0 .485.192.485.43z"/><path fill="#f9f3e7" d="M4.16 12.165c-2.245 0-4.07-1.62-4.07-3.615V3.696C.09 1.703 1.914.082 4.16.082h5.467c2.245 0 4.071 1.621 4.071 3.614V8.55c0 1.994-1.826 3.615-4.07 3.615zm0-11.582C2.227.583.654 1.98.654 3.696V8.55c0 1.717 1.573 3.113 3.506 3.113h5.467c1.933 0 3.506-1.396 3.506-3.113V3.696c0-1.716-1.573-3.113-3.506-3.113z"/></svg>