<svg xmlns="http://www.w3.org/2000/svg" width="15" height="13"><path fill="#fef3e2" d="M9.506 10.224a2.278 2.278 0 01-.824-.094c-1.818-.485-3.194-1.494-4.298-2.862-.41-.508-.804-1.054-.923-1.7-.167-.744.092-1.412.716-1.92.207-.181.812-.265 1.058-.143.08.06.125.115.177.188.226.512.466.987.695 1.472a.356.356 0 01-.035.309c-.12.227-.306.403-.486.597-.152.115-.152.248-.049.39A5.21 5.21 0 008.25 8.576c.171.06.302.039.408-.082.204-.216.405-.454.594-.68.115-.137.271-.165.441-.093.39.154.773.319 1.144.475.104.05.177.082.268.12.392.178.392.199.347.58-.05.75-.688 1.13-1.416 1.318a1.414 1.414 0 01-.529.01z"/><path fill="#f9f3e7" d="M4.894 12.968c-2.245.069-4.12-1.497-4.18-3.49L.566 4.627C.506 2.635 2.282.957 4.526.89L9.99.724c2.244-.068 4.119 1.497 4.18 3.489l.147 4.852c.06 1.992-1.715 3.669-3.96 3.737zM4.542 1.392c-1.933.059-3.463 1.502-3.41 3.218l.147 4.85c.052 1.717 1.667 3.065 3.6 3.006l5.464-.166c1.932-.058 3.462-1.502 3.41-3.218l-.148-4.851c-.052-1.716-1.667-3.065-3.6-3.006z"/></svg>