<svg width="2534" height="142" fill="none" xmlns="http://www.w3.org/2000/svg"><g clip-path="url(#clip0)" fill="#201C1C"><path d="M0 0h2616v134H0z"/><path fill-rule="evenodd" clip-rule="evenodd" d="M0 135.464V0h436.192v135.464l-14.979 6.02-13.958-6.02-14.979 6.02-14.638-6.02-14.638 6.02-13.277-6.02-15.319 6.02-14.298-6.02-14.978 6.02-13.958-6.02-14.978 6.02-13.277-6.02-16 6.02-13.277-6.02-6.995 2.632-8.43 3.388-.267-.115-.307.115-14.019-5.765-14.344 5.765-14.638-6.02-14.638 6.02-13.277-6.02-15.319 6.02-14.298-6.02-14.978 6.02-13.958-6.02-14.978 6.02-13.277-6.02-16 6.02-13.277-6.02-15.999 6.02L0 135.464z"/><path fill-rule="evenodd" clip-rule="evenodd" d="M436 135.464V0h436.192v135.464l-14.979 6.02-13.958-6.02-14.979 6.02-14.638-6.02-14.638 6.02-13.277-6.02-15.319 6.02-14.298-6.02-14.978 6.02-13.958-6.02-14.978 6.02-13.277-6.02-16 6.02-13.277-6.02-6.996 2.632-8.429 3.388-.267-.115-.307.115-14.019-5.765-14.344 5.765-14.638-6.02-14.638 6.02-13.277-6.02-15.319 6.02-14.298-6.02-14.978 6.02-13.958-6.02-14.978 6.02-13.277-6.02-16 6.02-13.277-6.02-15.999 6.02-14.639-6.02z"/><path fill-rule="evenodd" clip-rule="evenodd" d="M872 135.464V0h436.19v135.464l-14.98 6.02-13.95-6.02-14.98 6.02-14.64-6.02-14.64 6.02-13.28-6.02-15.32 6.02-14.29-6.02-14.98 6.02-13.96-6.02-14.98 6.02-13.27-6.02-16 6.02-13.28-6.02-7 2.632-8.43 3.388-.26-.115-.31.115-14.02-5.765-14.34 5.765-14.64-6.02-14.64 6.02-13.28-6.02-15.32 6.02-14.294-6.02-14.978 6.02-13.958-6.02-14.978 6.02-13.277-6.02-16 6.02-13.277-6.02-15.999 6.02-14.639-6.02z"/><path fill-rule="evenodd" clip-rule="evenodd" d="M1308 135.464V0h436.19v135.464l-14.98 6.02-13.95-6.02-14.98 6.02-14.64-6.02-14.64 6.02-13.28-6.02-15.32 6.02-14.29-6.02-14.98 6.02-13.96-6.02-14.98 6.02-13.27-6.02-16 6.02-13.28-6.02-7 2.632-8.43 3.388-.26-.115-.31.115-14.02-5.765-14.34 5.765-14.64-6.02-14.64 6.02-13.28-6.02-15.32 6.02-14.29-6.02-14.98 6.02-13.96-6.02-14.98 6.02-13.27-6.02-16 6.02-13.28-6.02-16 6.02-14.64-6.02z"/><path fill-rule="evenodd" clip-rule="evenodd" d="M1744 135.464V0h436.19v135.464l-14.98 6.02-13.95-6.02-14.98 6.02-14.64-6.02-14.64 6.02-13.28-6.02-15.32 6.02-14.29-6.02-14.98 6.02-13.96-6.02-14.98 6.02-13.27-6.02-16 6.02-13.28-6.02-7 2.632-8.43 3.388-.26-.115-.31.115-14.02-5.765-14.34 5.765-14.64-6.02-14.64 6.02-13.28-6.02-15.32 6.02-14.29-6.02-14.98 6.02-13.96-6.02-14.98 6.02-13.27-6.02-16 6.02-13.28-6.02-16 6.02-14.64-6.02z"/><path fill-rule="evenodd" clip-rule="evenodd" d="M2180 135.464V0h436.19v135.464l-14.98 6.02-13.95-6.02-14.98 6.02-14.64-6.02-14.64 6.02-13.28-6.02-15.32 6.02-14.29-6.02-14.98 6.02-13.96-6.02-14.98 6.02-13.27-6.02-16 6.02-13.28-6.02-7 2.632-8.43 3.388-.26-.115-.31.115-14.02-5.765-14.34 5.765-14.64-6.02-14.64 6.02-13.28-6.02-15.32 6.02-14.29-6.02-14.98 6.02-13.96-6.02-14.98 6.02-13.27-6.02-16 6.02-13.28-6.02-16 6.02-14.64-6.02z"/></g><defs><clipPath id="clip0"><path fill="#fff" d="M0 0h2534v142H0z"/></clipPath></defs></svg>