<svg xmlns="http://www.w3.org/2000/svg" width="1191" height="144"><path fill="#201c1c" d="M16.09 0L0 .038V136.68l14.18 5.838 16-6.027 13.277 6.027 16-6.027 13.277 6.027 14.978-6.027 13.957 6.027 14.98-6.027 14.298 6.027 15.32-6.027 13.276 6.027 14.637-6.027 14.64 6.027 14.977-6.027 13.96 6.027 14.976-6.027V.001z"/><path fill="none" stroke="#201c1c" stroke-miterlimit="20" d="M-.457 136.492v0l14.638 6.026v0l16-6.026v0l13.277 6.026v0l16-6.026v0l13.276 6.026v0l14.979-6.026v0l13.957 6.026v0l14.979-6.026v0l14.298 6.026v0l15.32-6.026v0l13.276 6.026v0l14.638-6.026v0l14.638 6.026v0l14.979-6.026v0l13.958 6.026v0l14.978-6.026v0-137 0L-.457.04v136.453z"/><path fill="#201c1c" d="M232.734 0v136.47l14.638 6.048 16-6.049 13.277 6.05 16-6.05 13.277 6.05 14.978-6.05 13.958 6.05 14.979-6.05 14.297 6.05 15.32-6.05 13.276 6.05 14.638-6.05 14.638 6.05 14.979-6.05 13.958 6.05 14.979-6.05V0z"/><path fill="none" stroke="#201c1c" stroke-miterlimit="20" d="M232.734 136.469v0l14.638 6.049v0l16-6.049v0l13.277 6.049v0l16-6.049v0l13.276 6.049v0l14.979-6.049v0l13.958 6.049v0l14.978-6.049v0l14.298 6.049v0l15.32-6.049v0l13.276 6.049v0l14.638-6.049v0l14.638 6.049v0l14.979-6.049v0l13.958 6.049v0l14.978-6.049v0V-1.058v0L232.734-.51v136.979z"/><path fill="#201c1c" d="M465.592 0v136.808l14.638 6.064 16-6.064 13.277 6.064 16-6.064 13.277 6.064 14.977-6.064 13.958 6.064 14.979-6.064 14.299 6.064 15.318-6.064 13.277 6.064 14.638-6.064 14.638 6.064 14.979-6.064 13.957 6.064 14.979-6.064V0z"/><path fill="none" stroke="#201c1c" stroke-miterlimit="20" d="M465.591 136.809v0l14.638 6.064v0l16-6.064v0l13.277 6.064v0l16-6.064v0l13.276 6.064v0l14.98-6.064v0l13.957 6.064v0l14.978-6.064v0l14.298 6.064v0l15.32-6.064v0l13.276 6.064v0l14.638-6.064v0l14.638 6.064v0l14.98-6.064v0l13.957 6.064v0l14.978-6.064v0V-1.058v0l-233.19.549v137.318z"/><path fill="#201c1c" d="M698.606 0v136.448l14.638 6.07 16.001-6.07 13.276 6.07 16-6.07 13.277 6.07 14.977-6.07 13.96 6.07 14.977-6.07 14.3 6.07 15.317-6.07 13.277 6.07 14.64-6.07 14.636 6.07 14.98-6.07 13.957 6.07 14.978-6.07V0z"/><path fill="none" stroke="#201c1c" stroke-miterlimit="20" d="M698.606 136.448v0l14.639 6.07v0l16-6.07v0l13.276 6.07v0l16-6.07v0l13.276 6.07v0l14.979-6.07v0l13.958 6.07v0l14.978-6.07v0l14.298 6.07v0l15.32-6.07v0l13.276 6.07v0l14.639-6.07v0l14.637 6.07v0l14.98-6.07v0l13.957 6.07v0l14.978-6.07v0V-1.554v0l-233.191.549v137.453z"/><path fill="#201c1c" d="M931.797 0v136.448l14.639 6.07 16-6.07 13.276 6.07 16.001-6.07 13.276 6.07 14.978-6.07 13.958 6.07 14.979-6.07 14.297 6.07 15.32-6.07 13.276 6.07 14.639-6.07 14.638 6.07 14.979-6.07 13.957 6.07 14.979-6.07V0z"/><path fill="none" stroke="#201c1c" stroke-miterlimit="20" d="M931.797 136.448v0l14.64 6.07v0l16-6.07v0l13.275 6.07v0l16-6.07v0l13.276 6.07v0l14.98-6.07v0l13.957 6.07v0l14.98-6.07v0l14.296 6.07v0l15.32-6.07v0l13.276 6.07v0l14.64-6.07v0l14.636 6.07v0l14.98-6.07v0l13.957 6.07v0l14.978-6.07v0V-1.554v0l-233.19.549v137.453z"/><path fill="#201c1c" d="M1164.989 0v136.448l12.68 6.07 12.425-6.07V0z"/><path fill="none" stroke="#201c1c" stroke-miterlimit="20" d="M1164.989 136.448v0l12.68 6.07v0l12.424-6.07v0V-1.36v0l-25.104-.194v138.002z"/><path fill="#d4d5c9" d="M543.009 130.272c-.153-1.666-.324-3.331-.482-4.997-.168-1.781-.46-3.63-.222-5.411.009-.063.057-.111.119-.145.754-2.073 4.93-3.066 7.756-3.277 5.313-.396 10.807-.322 16.126-.046 5.35.277 10.679.867 15.842 1.883 2.809.553 10.036 1.654 8.976 4.63.074.043.126.1.125.177-.001.136-.005.272-.008.408.069.098.076.218-.006.335-.057 2.774-.276 5.552-.568 8.328a.925.925 0 01.342-.005c2.642.44 5.266.939 7.892 1.423 1.707.315 3.856.49 4.686 1.729.864 1.292.447 3.115.38 4.487-.015.342-.061.683-.088 1.024l-1.296.523c.036-.378.086-.755.109-1.134.082-1.322.45-3.003-.107-4.288-.576-1.327-4.058-1.48-5.712-1.771-2.07-.365-4.142-.727-6.198-1.125-.036-.007-.066-.017-.097-.026-.118 1.065-.245 2.13-.376 3.195 1.85.117 3.71.564 5.51.87 1.019.173 2.807.219 3.393.947.652.812.156 2.269.069 3.15a29.733 29.733 0 01-.216 1.645l-1.463.59c.132-.74.245-1.481.322-2.225.08-.774.658-2.39-.418-2.872-.421-.19-1.265-.214-1.74-.294l-2.321-.39c-1.085-.182-2.196-.32-3.24-.592-.124 1-.244 1.996-.37 2.995l-1.432-.63c.778-6.457 1.522-12.313 1.956-14.823-1.48.9-3.524 1.583-5.174 2.165a48.897 48.897 0 01-6.58 1.803 52.64 52.64 0 01-14.488.852c-4.886-.392-9.651-1.44-13.94-3.104-2-.776-4.914-1.976-6.551-3.523.092.703.159 1.407.237 2.097.205 1.803.369 3.608.535 5.412.32 3.47.608 6.942.86 10.415.026.365.043.73.068 1.097l-1.256.519c-.033-.466-.053-.933-.086-1.4a533.19 533.19 0 00-.868-10.621zm10.143-13.041c-3.96.127-8.563.459-9.947 3.313.773 1.116 1.655 2.057 3.097 2.905 1.74 1.023 3.77 1.84 5.81 2.542 4.105 1.412 8.614 2.29 13.188 2.545a50.772 50.772 0 0013.314-1.015 46.674 46.674 0 006.218-1.77c1.839-.666 3.479-1.667 5.31-2.311-.192-.051-.334-.17-.311-.361.235-2.02-2.543-2.66-4.836-3.202a92.233 92.233 0 00-5.894-1.181c-4.286-.718-8.663-1.161-13.062-1.381-4.288-.213-8.593-.222-12.887-.084z" opacity=".55"/><path fill="#d4d5c9" d="M127.81 89.069a6.123 6.123 0 014.656 4.947c.224 1.373-.12 2.728-.845 4.039-.582 1.05-1.268 2.274-2.587 3.014-1.504.84-6.712 2.01-8.44.883a22.86 22.86 0 01-.948 2.66c-.13.3-.27.596-.421.887 3.522-.064 7.525.024 9.659 2.174 1.822 1.836.608 3.968-1.914 5.256-2.841 1.45-6.558 2.133-9.802 2.967a351.184 351.184 0 01-12.248 2.94c-8.055 1.766-16.281 3.174-24.626 3.827-3.907.306-7.97.56-11.862.31-3.314-.212-6.613-1.05-8.372-3.06-1.498-1.711-1.247-3.774.725-5.364 2.197-1.771 5.682-2.443 8.896-2.515a30.26 30.26 0 01-.976-.766c-4.488-3.677-7.668-8.465-7.897-13.406-.283.048-.543-.2-.327-.408 3.065-2.938 8.317-4.716 12.925-6.234 4.8-1.581 9.817-2.814 14.95-3.677 10.03-1.684 21.138-2.225 31.073-.654.447.07.547.352.412.576a.446.446 0 01.154.148 11.472 11.472 0 011.354 3.285c1.27-1.515 4.029-2.43 6.46-1.83zm-66.353 8.387a.183.183 0 01.052.087c.012.052.027.103.04.155 3.767 1.147 7.924 1.672 12.18 1.768a2.45 2.45 0 01.232-.754c1.04-2.113 5.55-1.542 4.96.67 4.27-.221 8.525-.793 12.48-1.534 5.066-.948 9.996-2.303 14.644-4.04a79.286 79.286 0 006.592-2.801c2.092-1.006 3.999-2.326 6.163-3.232.008-.003.016-.005.025-.01-.002-.012-.001-.024-.001-.037-4.997-.47-9.922-.844-15.021-.728a106.82 106.82 0 00-15.081 1.413c-4.93.822-9.765 1.983-14.392 3.474-4.44 1.43-9.354 3.12-12.873 5.569zm16.829 1.908c-.065-1.786-3.15-1.413-3.258.117 1.089.003 2.182-.02 3.275-.068-.007-.016-.016-.031-.017-.05zm49.65 9.087c-1.708-2.114-5.731-2.081-8.874-2.027a.883.883 0 01-.327-.052 15.08 15.08 0 01-2.001 2.603c.885.133 1.53.643 1.737 1.326.353 1.174-1.023 2.124-2.418 2.682-4.411 1.767-9.638 2.919-14.457 3.944-5.037 1.07-10.2 1.9-15.388 2.4-3.906.376-9.211.736-12.522-.917-1.135-.568-1.886-1.436-1.667-2.45.137-.63.649-1.276 1.464-1.544a25.099 25.099 0 01-3.083-1.86c-3.445.527-7.614.928-9.455 3.369-1.987 2.635 1.425 5.086 4.83 5.78 2.953.602 6.234.456 9.317.335 3.463-.137 6.92-.42 10.357-.818 6.84-.794 13.583-2.054 20.213-3.535a344.456 344.456 0 009.469-2.267c3.093-.783 6.368-1.471 9.314-2.515 2.416-.857 5.08-2.488 3.49-4.454zm-53.74 6.313c-1.841 1.145-.823 2.69 1.216 3.319 1.82.56 4.027.668 6.027.656 4.35-.025 8.782-.671 13.037-1.362a139.315 139.315 0 0013.14-2.782 123.29 123.29 0 006.5-1.888c.87-.281 1.844-.577 2.517-1.075.645-.477 1.01-2.12-.604-1.873a.814.814 0 01-.11.009c-2.284 2.092-5.328 3.745-9.088 4.894-6.315 1.93-13.878 2.784-20.637 2.576-3.253-.1-6.486-.516-9.405-1.456a22.726 22.726 0 01-2.593-1.018zm44.988-12.31c.837-2.66 1.422-5.45 1.349-8.184a.301.301 0 01-.003-.09c-.061-1.934-.451-3.838-1.328-5.65-1.65 1.307-4.086 2.364-6.116 3.329a80.005 80.005 0 01-7.1 2.958 90.695 90.695 0 01-15.031 4.009c-5.004.887-10.474 1.53-15.804 1.48.114.365.294.72.484 1.058.695 1.24 1.796 2.254 3.15 3.155a.645.645 0 01.482.11c.253-.15.508-.3.769-.442 1.09-.597 1.84-.436 2.776.117 1.607.948 3.185 1.92 4.773 2.884.658.399 2.567 1.099 2.283 1.887-.167.463-1.135.888-1.605 1.196l-2.587 1.692c-.734.479-2.24 1.939-3.442 1.756-.351-.053-.535-.238-.751-.41-.756-.596-1.323-1.36-1.963-2.02l-3.595-3.707c-.18-.186-.127-.376.035-.514-.072-.093-.056-.221.013-.312.373-.486 1.24-.875 1.834-1.235l.307-.188c-1.907-1.13-4.066-3.134-4.372-5.057-4.244-.14-8.366-.748-12.053-2.057 1.442 5.17 4.242 9.987 9.63 13.757 4.782 3.346 10.945 4.597 17.827 4.432 6.353-.152 13.277-.988 19.026-3.11 6.268-2.313 9.559-6.226 11.012-10.843zm-39.72 3.202c-.801.46-1.616.904-2.437 1.344.024.018.048.036.069.057 1.635 1.685 3.273 3.368 4.907 5.053l.653.675a2.16 2.16 0 01.737-.597c.412-.292.868-.565 1.296-.845.987-.643 2.076-1.64 3.239-2.112.158-.162.379-.215.665-.16l-.866-.526-1.73-1.052c-1.008-.615-2.014-1.231-3.021-1.847-.613-.375-1.21-1.031-2.194-.751-.382.11-.997.576-1.318.76zm42.278-11.237c-.002.659-.038 1.32-.104 1.978a34.24 34.24 0 01-.423 2.923c3.094.614 5.32-1.58 5.58-3.523.11-.821.237-2.227-.758-2.8-1.365-.782-3.403.71-4.295 1.422zm9.418.699a5.14 5.14 0 00-2.566-4.685c-2.496-1.48-5.524-.231-7.038 1.477.066.41.112.826.143 1.242 1.23-.823 2.896-1.553 4.442-1.163 1.975.498 2.096 2.357 1.97 3.598-.147 1.476-.906 3.057-2.793 3.952-1.313.624-2.868.82-4.23.435-.091.43-.191.86-.303 1.29.969-.071 1.917.16 2.926.079 1.274-.104 2.943-.33 4.066-.8 1.245-.52 1.84-1.565 2.363-2.441.577-.964.975-1.952 1.02-2.984z"/><path fill="#d4d5c9" d="M349.9 56.632c2.48.602 3.116 2.088 3.254 3.372.141 1.298-.14 2.878-2.747 4.212-2.422 1.24-5.989 1.908-9.16 2.278l-.049 1.116c-.06 1.4.202 2.856-1.212 4.367-.062.066-.194.113-.33.135a.548.548 0 01-.18.112c-3.199 1.391-7.164 2.4-11.099 3.044-4.002.656-8.338 1.098-12.09 1.065-.216-.002-.227-.092-.12-.165a.156.156 0 01-.042-.043c-1.715-2.716-3.429-5.43-5.142-8.147-.857-1.357-1.72-2.714-2.566-4.074-.797-1.279-1.747-2.552-2.242-3.899-.15-.012-.304-.022-.452-.036-.349-.034-.082-.248.248-.299a.475.475 0 01.188-.097c3.433-1.039 7.115-1.902 10.733-2.71 3.727-.832 7.568-1.65 11.372-2.265a5.218 5.218 0 01-.91-2.058c-.188-.987.346-2.675 3.432-3.399 3.252-.763 5.014.537 5.235 1.522.207.926-.084 1.964-.54 3.004 1.795-.256 4.043-.48 5.394-.255.108.018.152.056.158.1.26-.078.594-.08.653.05.316.71.04 1.588.007 2.358l-.068 1.655c2.755-.885 5.915-1.517 8.275-.943zm-12.182-2.784c-.79.037-1.584.083-2.384.143-.224.478-.475.954-.724 1.417.612-.165 1.221-.332 1.83-.502 1.336-.373 2.724-.853 4.127-1.133.048-.01.095-.015.141-.019l.008-.02c-.048.01-.1.02-.155.026-.963.1-1.9.044-2.843.088zm-7-4.214c-2.876.9-2.336 2.61-1.947 3.502.495 1.14 1.496 2.132 2.376 3.175a174.004 174.004 0 002.355-.606c-.086-.03-.126-.082-.085-.16.656-1.255 1.213-2.52 1.428-3.739.107-.606.092-1.223-.443-1.708-.523-.474-1.969-1-3.685-.464zm-13.41 7.598c-3.399.752-6.718 1.603-10.077 2.406 2.337-.04 4.64-.093 7.108-.32a95.762 95.762 0 008.316-1.159 131.11 131.11 0 007.717-1.657 7.247 7.247 0 01-1.804-1.515 1.863 1.863 0 01-.106.025c-3.736.721-7.453 1.401-11.155 2.22zm22.727 10.381l.193-4.634c.063-1.544.13-3.089.197-4.634l.101-2.317c.025-.592-.09-1.209.041-1.829-1.258.465-2.796.837-4.15 1.213a200.07 200.07 0 01-4.682 1.24c-3.14.791-6.35 1.507-9.6 2.077-4.868.854-10.506 1.547-15.032 1.334.978 1.123 1.63 2.347 2.382 3.522.87 1.355 1.722 2.714 2.581 4.072l5.208 8.24c.02.032.02.064.005.094 3.576-.358 7.061-.54 10.7-1.128 3.868-.625 7.565-1.57 10.8-2.887a1.41 1.41 0 01.541-.102c.728-1.473.658-2.86.715-4.26zm1.994-8.257a1.09 1.09 0 01-.48.064l-.147 3.45c-.023.56-.047 1.117-.072 1.675 1.782-.045 3.723-.4 5.034-1.168 1.228-.718 1.18-1.447 1.166-2.126-.012-.663.22-1.566-.387-2.11-.74-.665-3.518-.35-5.114.215zm9.935.885c-.103-1.1-.568-2.296-2.272-2.977-2.1-.839-5.16-.11-8.082.66l-.012.313c-.01.264-.023.527-.033.791 1.66-.708 4.378-.926 5.83-.6 1.748.392 1.294 1.81 1.301 2.653.008.948-.137 1.922-2.209 2.843-1.503.67-3.506 1.035-5.17.954l-.05 1.142c2.75-.316 5.928-.873 8.111-1.927 2.478-1.197 2.695-2.67 2.586-3.852z" opacity=".72"/><path fill="#d4d5c9" d="M427.95 94.47c3.999 5.15 2.64 11.781-2.702 16.106-1.35 1.091-7.02 4.25-7.756 1.094-.38-1.62.06-3.34-.215-4.983-.268-1.59-.99-3.107-2.471-4.28-.694.576-1.597.976-2.708 1.024-1.573.068-3.076-.534-4.37-1.145a.755.755 0 01-.544.046c-2.34 1.475-5.39 2.451-8.248 3.217-.53.142-.994.214-1.448.186l.015.04c.454 1.901.082 4.461-2.304 5.444a.344.344 0 01.105.166c.927 3.333 6.165 4.292 7.958 7.194 1.427 2.307-1.41 3.796-4.122 4.385-3.236.702-6.812.333-9.852-.69-3.035-1.023-5.618-2.72-7.301-4.844-1.48-1.869-2.776-4.657-2.066-6.87a4.981 4.981 0 01-.721-.293c-1.115-.569-1.33-1.48-1.357-2.418-.124-4.109 2.17-8.836 6.668-11.413a.41.41 0 01.188-.048c-.38-.6-.572-1.244-.393-1.937.396-1.523 2.117-2.746 3.637-3.724 2.018-1.295 4.344-2.34 6.845-3.053 1.969-.56 4.26-1.09 6.315-.436.816.26 1.486.667 2.054 1.151 1.87-.648 4.03-.925 6.076-1.065 1.869-.129 3.85-.176 5.699.102 1.619.243 2.655.907 3.289 1.778 4.216.377 7.673 2.614 9.73 5.265zm-26.532 23.432c-2.47-2.12-6.313-3.4-7.136-6.362-.005-.016-.005-.03-.007-.045a5.93 5.93 0 01-.497.081c-1.616.192-3.364.068-4.991-.006a74.192 74.192 0 01-5.486-.454c-.804-.097-1.696-.17-2.53-.34.162 1.23.146 2.442.608 3.661.557 1.474 1.54 2.872 2.868 4.052 2.542 2.26 6.314 3.796 10.303 4.032 2.042.122 4.168-.093 6-.786.96-.362 1.98-.92 2.073-1.779.084-.767-.556-1.497-1.205-2.054zm-4.867-12.077c0-.107.064-.188.155-.243a3.574 3.574 0 01-.471-.193c-1.198-.586-2.311-1.37-3.376-2.08a51.003 51.003 0 01-5.852-4.534c-.682-.614-1.473-1.275-2.036-1.997-1.988 1.765-3.792 3.58-4.864 5.757a11.863 11.863 0 00-1.078 3.292c-.18 1.088-.633 3.058.73 3.793 1.358.73 3.673.756 5.279.912 1.756.17 3.52.278 5.29.323 1.939.05 4.266.268 5.48-1.09 1.074-1.202.717-2.594.743-3.94zm10.328-3.9c.262-3.729-.651-7.476-2.765-10.883-.802-1.292-1.888-2.8-3.887-3.224-2.174-.46-4.764.405-6.678 1.09-2.02.722-3.884 1.664-5.516 2.797-1.39.965-3.204 2.33-2.661 3.881.303.866 1.25 1.616 1.99 2.297a48.27 48.27 0 002.112 1.838 52.466 52.466 0 004.967 3.604c.83.533 1.953 1.481 3.083 1.607 1.06.118 2.435-.487 3.403-.804 2.034-.665 3.936-1.515 5.952-2.204zm5.455.72c1.773-.232 2.52-1.607 3.096-2.7 1.102-2.088 2.209-4.245 2.529-6.489.167-1.178.21-2.489-.416-3.608a.364.364 0 01-.171-.27c-.832-1.164-2.418-1.45-4.134-1.534-3.327-.163-6.342.343-9.537.86.534.563.966 1.187 1.34 1.79 2.108 3.388 3.073 7.107 2.904 10.82a.619.619 0 01.156.046c1.226.55 2.72 1.28 4.233 1.084zm16.863-.543c.562-4.89-3.354-11.167-10.516-12.079.477 1.127.485 2.444.298 3.618-.222 1.406-.731 2.776-1.345 4.113-.608 1.324-1.192 2.757-2.157 3.967a4.241 4.241 0 01-.234.271c2.856 1.758 3.213 4.656 3.227 7.251.004.734-.13 1.55.044 2.273.245 1.02 1.745.708 2.63.41 1.81-.61 3.272-1.692 4.438-2.859 2.022-2.025 3.325-4.452 3.615-6.965z" opacity=".53"/><path fill="#d4d5c9" d="M943.264 20.614c2.673.415 4.344 1.629 3.478 2.999-.983 1.555-4.373 2.607-7.709 2.888.282 1.043.253 2.129.3 3.199.026.625.052 1.25.08 1.875.023.553.22 1.124-.11 1.693-.036.063-.134.12-.253.165.15.1.137.268-.115.39-1.7.824-4.117 1.524-6.228 2.119a80.693 80.693 0 01-6.34 1.5c-4.537.887-9.393 1.495-13.994 1.526-.23.098-.603.136-.856.044-1.11-.399-1.847-1.024-2.68-1.536l-2.572-1.579c-1.513-.929-2.979-1.873-4.499-2.799-2.15.899-5.19 1.295-7.415.465-2.818-1.052-.8-4.631 3.884-5.19-4.77-.778-5.977-3.489-5.067-5.722 1.991-4.883 14.252-8.809 24.841-9.936 5.138-.547 10.564-.415 13.453 1.23 3.334 1.897 4.1 4.744 3.271 7.391 2.451-.835 6.298-1.068 8.531-.722zm-48.388 4.901c.058-.006.12-.008.186-.006 3.46.164 10.361-.103 11.416-2.274.323-.667.137-1.335 1.026-1.986.78-.571 2.103-.97 3.466-1.21 1.966-.344 3.965-.327 5.941-.604 1.995-.28 3.892-.824 5.386-1.524 1.585-.741 2.611-1.651 2.957-2.559.33-.867-.195-1.511-.607-2.272-2.844-.16-6.08.112-9.016.548-5.022.745-10.05 2.03-14.05 3.717-3.908 1.649-6.672 3.707-7.185 5.849-.206.863-.019 1.629.48 2.321zm50.387-1.798c.942-1.203-.677-2.276-3.084-2.564-1.36-.163-2.93-.079-4.42.161-1.334.214-2.418.614-3.696.863-.233.045-.423.008-.529-.061-.26-.025-.455-.114-.393-.275.588-1.515.6-2.995-.043-4.393-.625-1.362-1.78-2.881-4.299-3.689a14.224 14.224 0 00-2.398-.515c1.16 1.218.157 3.036-1.79 4.28-2.61 1.666-6.41 2.446-10.503 2.762-2.905.223-5.575.625-6.013 2.088-.23.771-.374 1.462-1.723 2.146-2.8 1.421-7.77 1.821-11.138 1.427.783.819 2.03 1.529 3.608 2.165.128.051.078.142-.044.209.046-.003.091-.008.14-.01.192-.01.278.111.1.17-1.67.553-3.005 1.025-3.816 1.875-.748.785-1.19 1.929-.16 2.528.967.563 3.08.652 4.79.223 1.856-.466 2.9-1.34 3.091-2.151.09-.382 1.26-.4 1.43-.115 1.085 1.816 9.454.654 8.393-1.15a2.304 2.304 0 01-.239-.233.072.072 0 01-.022-.062c-.028-.025-.05-.05-.083-.075-.348-.274.697-.554 1.16-.375.581.224.833.515.841.831 1.113.419 2.493.689 4.277.533 2.101-.183 4.066-1.044 4.045-1.859-.419-.194-.67-.456-.662-.794.007-.268.874-.573 1.297-.331.382.218.61.464.7.723 1.108.413 3.58.247 4.966-.139 2.105-.585 2.257-1.438 1.915-2.229-.107-.248.778-.458 1.12-.285 1.744.883-.403 2.543-2.958 3.14-1.507.352-3.607.474-5.12.251-.406.755-1.754 1.499-3.658 1.885-2.35.477-4.647.308-6.208-.245-.573.666-1.925 1.321-3.388 1.623-2.468.51-5.355.41-6.882-.282-.318.339-.766.661-1.302.95 2.01.724 3.365 1.798 4.86 2.714l2.736 1.676c.742.454 1.674.893 2.222 1.411 4.633-.288 9.21-.746 13.741-1.645a79.158 79.158 0 006.55-1.589c1.962-.567 3.687-1.26 5.59-1.856-.007-.005-.017-.008-.022-.015-.4-.537-.25-1.182-.272-1.776l-.068-1.876c-.039-1.059-.146-2.118.054-3.198-2.52.085-4.854-.299-5.902-1.273-.118-.11.245-.252.482-.193 1.778.439 3.4.905 5.601.882.164-.117.577-.131.7-.024.22-.012.443-.028.675-.05 2.442-.236 4.921-1.129 5.751-2.189z" opacity=".63"/><g opacity=".63" fill="#d4d5c9"><path d="M857.874 103.713c2.831.966 4.01 3.31 4.482 5.43.453 2.039.366 4.37-1.449 6.058-1.336 1.24-3.943 2.26-6.1 1.645-.25 2.467-1.492 4.85-4.325 6.294.097.074.141.182.077.314-.969 2.005-4.32 2.765-6.92 2.996-1.865.165-6.019.044-5.523-2.047a16.505 16.505 0 01-1.143-.261c-4.316-1.173-5.92-4.31-7.05-7.331-1.48-3.964-2.718-7.978-3.404-12.06-.016-.091.04-.16.123-.202.714-1.471 2.555-2.264 4.456-2.816 2.456-.715 5.12-1.173 7.71-1.538 2.734-.384 5.538-.596 8.324-.45 1.385.072 4.666.167 4.655 1.65.125.03.228.105.26.238.212.872.411 1.745.607 2.619 1.257-1 3.54-1.112 5.22-.54zm-4.613 3.084c-.016.006-.032.009-.049.014l.397 1.828c.404 1.869.912 3.75 1.137 5.642 1.405.409 2.984-.006 3.852-.916.877-.92.958-2.093.668-3.164-.279-1.031-.865-2.405-1.968-3.124-1.137-.741-2.74-.771-4.037-.28zm-15.422-5.715c-3.672.584-8.233 1.177-10.628 3.526 3.373 1.76 8.604 1.637 12.487 1.129a31.637 31.637 0 006.191-1.434c.944-.325 1.86-.694 2.74-1.104.15-.071.298-.148.446-.226-.683-.13-1.316-.295-2.057-.345a35.42 35.42 0 00-2.46-.072 43.93 43.93 0 00-10.546 1.278c-1.61.399-3.123.986-4.727 1.383-.383.095-.527-.3-.25-.447 1.485-.796 3.407-1.285 5.141-1.706a43.135 43.135 0 015.803-.991 45.57 45.57 0 015.655-.234c1.354.03 3.162 0 4.246.69.416-.23.838-.45 1.293-.61l-.022-.113c-.003-.012 0-.023-.002-.035a.38.38 0 01-.215-.192c-.41-.904-1.905-.954-2.994-1.041a34.498 34.498 0 00-3.28-.098c-2.298.037-4.577.285-6.82.642zm7.012 24.512c1.65-.287 3.721-.827 4.59-1.997-3.069 1.185-7.226 1.486-10.716.917.598 1.769 4.35 1.388 6.126 1.08zm5.901-3.577c3.56-2.342 3.314-6.22 2.677-9.393-.665-3.312-1.452-6.611-2.104-9.924-1.353 1.056-3.587 1.81-5.282 2.37a33.055 33.055 0 01-6.668 1.457c-2.367.267-4.77.298-7.146.056-1.67-.17-3.436-.442-4.804-1.192 1.045 3.763 2.106 7.524 3.495 11.229 1.176 3.135 2.845 6.223 7.57 7.056 3.911.69 9.16.383 12.262-1.66zm10.644-12.553c-.344-1.747-1.113-3.654-3.137-4.744-1.799-.97-3.905-.853-5.455.202.083.379.164.758.246 1.138 1.45-.55 3.296-.427 4.617.29 1.621.88 2.444 2.78 2.691 4.185.244 1.392-.213 2.978-1.757 3.894-1.075.639-2.539.836-3.796.463.011.126.025.253.032.38.017.274.022.549.016.825 2.29.277 4.365-.255 5.632-1.781 1.19-1.435 1.23-3.232.911-4.852z" opacity=".63"/><path d="M835.03 111.036c1.66-2.174 6.604.893 5.36 2.802-1.563 2.396-6.68-.482-5.644-2.532.036-.07.147-.118.243-.11a.205.205 0 01.04-.16zm3.428.621c-.82-.588-1.735-.737-2.667-.343a24.76 24.76 0 001.801 1.195c.575.352 1.322.64 1.91 1.006.41-.614-.478-1.453-1.044-1.858zm-2.122 1.534c.535.44 1.584.955 2.436.768-.6-.256-1.162-.639-1.63-.947-.708-.465-1.271-.983-1.806-1.545a.404.404 0 01-.11-.02c.33.607.479 1.225 1.11 1.744zm9.701-2.241c1.631.087 2.907 1.24 2.45 2.445-.448 1.18-2.416 2.805-4.215 2.76-1.901-.048-2.04-1.756-1.608-2.787.438-1.045 1.556-1.984 2.987-2.286.07-.085.198-.142.386-.132zm-2.011 1.84c-.452.563-.884 1.519-.506 2.164.04.068.084.127.131.18.412-.591.897-1.16 1.393-1.712.46-.511.912-1.167 1.623-1.504a.407.407 0 01.25-.026 2.205 2.205 0 00-.891-.255.585.585 0 01-.244-.074c-.704.307-1.321.688-1.756 1.228zm3.079 1.043c.526-.561.569-1.278.084-1.741a.171.171 0 01-.002.124c-.255.595-.984 1.117-1.466 1.627-.501.529-.966 1.075-1.459 1.608 1.004.099 2.421-1.168 2.843-1.618z" opacity=".63"/></g><path fill="#d4d5c9" d="M1050.013 86.47a3989.915 3989.915 0 01-7.162 5.52c-1.777 1.368-3.618 3.138-5.932 3.996-.804.3-1.671.456-2.494.362-1.021-.117-2.261-.84-3.403-.628-.021.08-.083.16-.195.224-3.223 1.855-5.437 4.497-7.82 6.891a446.266 446.266 0 01-7.168 7.044c-2.193 2.107-4.379 4.23-6.692 6.271-1.721 1.52-3.606 3.196-6.017 4.098-1.9.71-4.044.688-5.207-.476-1.252-1.252-.976-3.136.159-4.643 1.53-2.03 4.253-3.582 6.554-5.13 2.675-1.803 5.351-3.604 8.027-5.405l8.027-5.403c2.373-1.597 5.354-3.217 6.872-5.338.049-1.44-1.184-2.642-.386-4.202.407-.794 1.146-1.502 1.903-2.157 1.078-.934 2.216-1.837 3.346-2.737a171.439 171.439 0 018.865-6.6c.448-.313.922-.72 1.479-.919.565-.2 1.156-.2 1.294.191h.003c.164-.082.336-.045.428.05.518.54.012 1.102-.581 1.603-1.099.925-2.254 1.82-3.382 2.728l-3.387 2.724-1.693 1.362c-.653.526-1.67 1.225-.808 1.82.011.007.02.015.029.024.685-.297 1.196-.855 1.699-1.29a169.624 169.624 0 017.855-6.365c.46-.352.981-.859 1.574-1.089.578-.224 1.247-.104 1.372.3 1.63.432-2.495 3.48-2.95 3.847a96.397 96.397 0 01-3.931 2.98c-.709.512-3.95 2.393-3.299 3.172 1.479-.327 2.688-1.852 3.651-2.674a98.073 98.073 0 013.843-3.119c.854-.66 4.81-4.256 5.683-2.213.089.21-.162.368-.407.387-.679 1.637-2.917 2.937-4.605 4.065-1.138.76-2.291 1.508-3.359 2.324-.448.342-3.272 2.563-2.167 2.714a.4.4 0 01.074.02c1.194-.154 2.629-1.743 3.314-2.298a221.086 221.086 0 013.353-2.659c1.177-.915 2.37-1.82 3.575-2.714.518-.384 1.274-1.079 1.995-.823a.419.419 0 01.315.055c1.854 1.221-.915 3.084-2.244 4.11zm.013-.825c.892-.684 2.84-1.979 1.663-2.8-.726.13-1.512.931-2.031 1.322-.574.433-1.146.868-1.715 1.304a227.843 227.843 0 00-3.662 2.861c-1.043.833-2.052 1.85-3.248 2.56-.465.275-1.001.435-1.483.396-.75.281-1.267-.339-1.101-.868.136-.43.601-.836.967-1.194a19.898 19.898 0 011.951-1.656c1.358-1.023 2.84-1.946 4.263-2.914 1.37-.93 2.957-1.949 3.727-3.206-.388-.649-1.949.653-2.318.924-.578.425-1.151.855-1.716 1.29a99.707 99.707 0 00-3.32 2.655c-1.036.865-1.99 1.825-3.101 2.637-.48.351-1.013.644-1.609.734-.083.194-.455.371-.728.23-.827-.426-.615-1.274.043-1.898 1.045-.988 2.506-1.835 3.714-2.718a88.967 88.967 0 003.765-2.883c.939-.766 2.217-1.61 2.655-2.577-.193.014-.37-.063-.353-.252.031-.334-.976.392-1.027.43a176.8 176.8 0 00-2.303 1.78 202.246 202.246 0 00-3.104 2.49 204.23 204.23 0 00-3.032 2.534c-.696.593-1.327 1.21-2.352 1.432-.153.033-.268 0-.335-.08-.892-.16-.993-.946-.557-1.57.351-.502.957-.919 1.474-1.335l1.977-1.588c1.317-1.06 2.633-2.12 3.952-3.178.659-.529 1.321-1.057 1.981-1.586.22-.177.619-.449.762-.663.101-.153.083-.3.076-.445-.151.055-.351.04-.442-.059-.276-.297-3.059 1.823-3.386 2.058-.985.708-1.96 1.426-2.926 2.15a178.942 178.942 0 00-5.535 4.315c-1.518 1.234-3.838 2.763-3.892 4.452-.034 1.048.627 1.906.419 2.924.083.045.125.122.072.217-1.293 2.27-4.191 3.877-6.624 5.516-2.776 1.871-5.557 3.74-8.335 5.611l-7.411 4.986c-2.268 1.528-4.969 3.037-6.655 4.95-1.403 1.592-1.994 4.234.484 5.015 2.096.66 4.613-.8 6.195-1.974 2.319-1.724 4.321-3.686 6.342-5.59a453.394 453.394 0 006.064-5.824 452.705 452.705 0 006.085-6.074c1.748-1.777 3.515-3.577 5.898-4.929 1.27-1.005 3.204.103 4.537.193 2.186.15 4.162-1.585 5.627-2.714 2.149-1.656 4.296-3.313 6.45-4.966l3.158-2.425z" opacity=".83"/><path fill="#d4d5c9" d="M48.834 65.176c-3.117.328-6.287-1.02-8.348-2.643-2.2-1.732-3.487-3.935-4.556-6.126a.332.332 0 01-.266-.112c-1.386-1.676-3.82-2.665-6.1-3.59-2.4-.974-4.87-1.848-7.338-2.723-2.217-.787-4.434-1.574-6.598-2.436-1.862-.743-4.068-1.502-5.296-2.823-.902-.97-1.122-2.423.072-3.302 1.256-.924 3.253-.776 4.76-.267 2.038.69 3.885 1.833 5.633 2.851 1.917 1.117 3.755 2.304 5.567 3.511 1.78 1.187 3.533 2.395 5.312 3.582 1.82 1.214 3.697 2.406 6.036 3.042 3.648.235 7.432-.052 10.876 1.06 2.802.905 4.78 2.86 4.847 5.108.06 2.011-1.605 4.553-4.6 4.868zm-7.484-2.65c1.945 1.396 5.228 2.762 8.024 2.09 1.496-.36 2.542-1.489 3.037-2.528.468-.984.52-2.056.12-3.065-.897-2.25-3.628-3.505-6.639-3.964-2.639-.402-5.339-.29-7.988-.585-.052.042-.132.064-.237.044-.249-.05-.49-.108-.729-.173-.083-.012-.167-.024-.25-.038-.064-.01-.1-.036-.117-.068-1.826-.557-3.367-1.517-4.838-2.486-1.889-1.245-3.737-2.523-5.614-3.778a118.523 118.523 0 00-5.132-3.27c-1.755-1.047-3.583-2.139-5.572-2.942-1.649-.666-4.598-.978-5.14.783-.518 1.684 1.653 2.891 3.388 3.653 3.977 1.75 8.236 3.124 12.38 4.64 2.035.744 4.068 1.51 6 2.39 1.56.711 3.021 1.543 4.026 2.675.141-.013.3.031.36.158 1.118 2.321 2.464 4.7 4.921 6.463zM240.189 46.06c.072.237-.21.362-.484.348-.075.128-.227.227-.456.227a55.211 55.211 0 01-2.224-.058c-.005.445-.347.777-.666 1.243-.464.682-.954 1.355-1.435 2.03-.964 1.352-1.938 2.7-2.907 4.048l-6.061 8.431-6.061 8.431-2.91 4.047c-.953 1.326-1.756 2.945-3.082 4.09a.464.464 0 01-.228.1c-.038.117-.15.222-.36.272-5.485 1.316-11.954-.417-17.002-2.14-5.726-1.956-11.308-4.803-15.106-8.508-.065-.063-.083-.132-.067-.196-.236-.1-.384-.3-.233-.528 3.762-5.646 7.472-11.295 10.823-17.08a241.198 241.198 0 004.823-8.732c1.49-2.838 2.74-5.776 4.447-8.548-.747-.652-1.42-1.33-1.968-2.038-.161-.208.062-.465.335-.467a.19.19 0 01.009-.142c.37-.774 1.769-1.242 2.64-1.73.937-.525 1.85-1.194 2.905-1.604-.06-.142.086-.282.276-.336.449-1.36 1.359-2.648 2.382-3.816.212-.242.618-.249.888-.133.844-.377 1.796-.456 2.847-.42 1.815.061 3.645.303 5.422.586a59.767 59.767 0 0110.24 2.57c3.265 1.14 6.365 2.557 9.182 4.213 1.442.847 2.834 1.757 4.097 2.743.919.716 1.805 1.52 2.03 2.496.036.155-.041.262-.168.324.002.01.007.016.008.025.065.64-.388 1.217-.697 1.801-.38.715-.76 1.45-1.268 2.12a.346.346 0 01-.061.06.36.36 0 01.124.192c.479 2-.646 4.06-.034 6.08zm-31.541-22.285l-.101.127c.299.166.527.382.806.61a52.442 52.442 0 001.89 1.495 45.346 45.346 0 003.303 2.24 49.4 49.4 0 007.896 3.912 56.27 56.27 0 008.829 2.638 58.65 58.65 0 004.607.784c1.319.172 3.788.71 4.946.157a.51.51 0 01.456-.004l.058-.049a.401.401 0 01-.068-.075c-1.386-2.097-3.943-3.639-6.44-5.069-2.581-1.477-5.381-2.745-8.336-3.786a57.535 57.535 0 00-9.474-2.45 64.673 64.673 0 00-4.668-.618c-1.217-.115-2.504-.223-3.674.044-.01.014-.017.03-.03.044zm-.61.777c-.726.968-1.37 1.962-2.076 2.94 4.713 3.002 9.538 5.771 15.135 7.881 5.722 2.157 11.757 3.536 18.048 4.413a.85.85 0 01.189.05.444.444 0 01.09-.075.211.211 0 01-.055-.219c.2-.684.532-1.354.852-2.01.123-.253.23-.53.356-.803-.682.132-1.583.006-2.212-.047a58.826 58.826 0 01-5.318-.692 58.666 58.666 0 01-9.877-2.638c-3.21-1.17-6.248-2.61-9.01-4.28a40.484 40.484 0 01-3.943-2.703c-.652-.508-1.657-1.136-2.178-1.817zm-4.017 12.26c.166-.225.12-.485.269-.715a.288.288 0 01.058-.063 34.438 34.438 0 01-2.625-1.892c.047.235.232.544.3.71.105.246.23.488.366.726a7.17 7.17 0 001.16 1.496.407.407 0 01.059.072 1.17 1.17 0 00.413-.335zm-2.745-1.636c-.171.415-.351.83-.54 1.241.418.426 1.072.84 1.785.915-.505-.612-.921-1.262-1.167-1.95a4.662 4.662 0 00-.078-.206zm8.439 40.032c-1.986.333-2.157 2.476-2.112 3.63.56.036 1.119.052 1.672.046-.004-.035-.005-.069-.008-.103a.251.251 0 01.009-.092 11.67 11.67 0 01.439-3.48zm.618 3.631c.178-.012.356-.022.533-.04.004-.014.005-.029.012-.043.319-.59.835-1.052.919-1.719.096-.772-.278-1.756-1.42-1.86a15.21 15.21 0 01-.044 3.662zm5.566-4.409l2.375-3.303c-8.883-.842-17.92-3.708-24.708-8.188-.376 1.815-3.128 4.512-5.745 3.273-3.127-1.479.385-4.696 2.507-5.68a29.163 29.163 0 01-1.998-1.844c-2.008 3.235-4.107 6.44-6.35 9.582a.497.497 0 01-.064.072c4.293 3.082 8.786 5.847 14.253 7.791 3.183 1.131 7.06 2.326 10.86 2.661-.713-1.699.449-4.71 3.537-4.386 2.485.261 2.897 2.852 1.674 4.193.223-.042.445-.087.663-.139a.826.826 0 01.216-.022c.577-1.393 1.859-2.729 2.78-4.01zm-23.83-12.538c-.268.582-.823 1.08-1.302 1.582-.662.693-1.276 1.412-1.994 2.075a.264.264 0 01-.101.055c.89.244 2.065-.435 2.676-.949.809-.68 1.029-1.449 1.294-2.305.003-.01.008-.02.013-.03-.2-.14-.391-.285-.586-.428zm-2.092 1.208c.447-.582.83-1.193 1.522-1.635-.25-.192-.5-.385-.741-.582-1.354.924-3.738 2.75-2.842 4.15.102.157.219.281.347.375a.15.15 0 01.024-.09c.504-.762 1.123-1.48 1.69-2.218zm34.895-1.148l4.713-6.553c-3.035.032-6.392-.688-9.28-1.324a65.128 65.128 0 01-8.775-2.577c-5.385-2.012-10.522-4.698-14.39-8.106a244.016 244.016 0 01-4.225 7.627 287.977 287.977 0 01-4.19 7.034c3.877 3.25 8.21 6.12 13.396 8.258 5.166 2.13 10.847 3.501 16.71 4.03l.008.001c2.01-2.797 4.02-5.593 6.033-8.39zM201.02 42.684a18.261 18.261 0 011.935-.87c-1.55-1.087-3.705.874-4.143 1.894l.445.3c-.041-.074-.047-.156.015-.232.394-.476 1.126-.776 1.748-1.092zm2.308-.522c-.538.35-1.108.671-1.662 1.008-.586.356-1.125.833-1.843 1.043a.524.524 0 01-.255.005c.36.24.72.48 1.086.714a.425.425 0 01.315-.126l.12.005a.626.626 0 01.17.034c1.522-.23 2.906-1.644 2.069-2.683zm32.119 5.131c.233-.304.378-.56.608-.764a63.282 63.282 0 01-7.811-.976c.816 1.418.43 3.5-2.201 3.51-2.963.014-3.542-3.119-3.181-4.743a69.227 69.227 0 01-6.07-1.949c-3.444-1.287-6.713-2.842-9.705-4.63a94.862 94.862 0 01-1.773-1.086c-.062.65-1.181 1.33-1.952 1.446-1.057.16-2.287-.268-2.982-.92-.828 1.72-1.767 3.416-2.652 5.104-.085.163-.173.325-.26.488.259.183.518.365.779.546.23-1.026 1.173-1.93 2.543-2.314 1.224-.343 2.652-.143 3.399.706.71.808.578 1.844-.143 2.594-.402.418-1.401 1.127-2.325 1.303 3.166 1.966 6.545 3.718 10.305 5.121a63.134 63.134 0 008.695 2.55c1.486.32 2.99.594 4.509.815 1.512.22 3.085.282 4.578.548.1.02.183.054.249.1l.878-1.22c.969-1.349 1.936-2.699 2.913-4.046.528-.729 1.047-1.463 1.599-2.183zm-10.438-.59a3.915 3.915 0 01-.143-1.872c-.433-.104-.866-.21-1.297-.322.243 1.107.175 2.491 1.3 3.317.298.218.636.335.97.366-.487-.372-.682-1.023-.83-1.489zm.449-1.732c.079.54.21 1.08.443 1.6.22.486.73.971.796 1.473 0 .011-.003.02-.003.03.29-.117.54-.307.71-.565.423-.644.063-1.382-.38-1.977a.328.328 0 01-.071-.234 66.079 66.079 0 01-1.495-.327zm-8.167-3.373c6.892 2.575 14.175 3.82 21.812 4.194-.272-.719-.267-1.439-.216-2.192.062-.945-.021-2.014.179-2.98-.036 0-.072 0-.11-.004-6.432-.712-12.793-2.357-18.568-4.556-5.394-2.053-10.655-4.664-14.8-7.933-.762.688-1.937 1.207-2.895 1.742-.844.471-1.841 1.272-2.957 1.325 1.343.958 2.51 2.051 3.823 3.032a49.484 49.484 0 004.126 2.765c2.96 1.784 6.185 3.33 9.606 4.607z"/><path fill="#d4d5c9" d="M236.514 32.858c.59.464.866 1.25-.05 1.598-.986.373-2.248-.183-3.045-.6-.654-.341-2.12-1.168-1.495-1.826.052-.054.173-.084.267-.074.01-.156.149-.301.42-.308 1.379-.038 2.955.469 3.903 1.21zm-.736.985c.702-.376-.967-1.009-1.243-1.108-.63-.225-1.28-.294-1.953-.4a.706.706 0 01-.09-.02c.185.32 2.675 1.856 3.286 1.528zm-21.359 9.671c.249 1.11-.787 2.063-2.39 2.01-2.996-.103-4.875-4.313-2.1-4.882.108-.12.308-.188.54-.094l.079.031c.032 0 .06-.003.094-.003.142.001.242.073.27.153 1.519.63 3.218 1.49 3.507 2.784zm-1.098.657c.237-.522-.238-1.243-.78-1.648-.573-.428-1.298-.716-1.95-1.07.533.762 2.322 2.317 2.73 2.718zm-3.541-2.617c-.877 1.254.822 3.677 2.812 3.133.007-.001.013-.004.02-.006a.485.485 0 01-.061-.05c-.85-.827-1.638-1.71-2.402-2.578a2.802 2.802 0 01-.37-.5zm8.208 7.598c1.23.47 1.609 1.81.892 2.647-.933 1.092-3.415 1.225-4.962.778-1.544-.446-2.652-1.792-1.733-2.904.992-1.2 3.961-.865 5.572-.687.146.017.216.088.231.166zm-3.51.41c-1.134.102-1.708.724-1.468 1.337.593-.439 1.866-.457 2.666-.569.604-.084 1.21-.159 1.817-.23.114-.014.22-.029.325-.039-.268-.218-.636-.35-.979-.517a.408.408 0 01-.111-.077c-.751.03-1.506.027-2.25.094zm2.921 2.17c.401-.17.678-.46.759-.78a.584.584 0 01-.161-.06l-.06.001-.331.036-.827.09c-.442.046-.884.088-1.326.131-.664.064-1.543.257-2.216.092.131.137.303.27.53.39.945.496 2.642.524 3.632.1zm14.954.679c.762 1.3-.545 2.493-2.06 3.073-1.244.478-3.596 1.084-4.523-.122-.859-1.116.78-2.319 1.972-2.845.941-.416 3.165-1.108 4.108-.347.217-.003.411.086.503.241zm-1.397.03c-1.566-.083-4.05 1.174-4.252 2.07a1.17 1.17 0 00-.019.124c.8-.258 1.614-.466 2.368-.804.682-.306 1.245-.743 1.906-1.059-.09-.092-.087-.23-.003-.331zm-.778 2.174c.615-.304 1.092-.698 1.25-1.173-1 .848-2.859 1.531-4.347 1.758.827.256 2.683-.38 3.097-.585zM197.046 73.7c.061 1.238-1.005 2.74-2.999 2.61-2.292-.15-3.295-2.354-3.338-3.726-.042-1.331.837-2.607 2.55-3.047a.38.38 0 01.235-.057c.131-.026.265-.05.404-.066a.372.372 0 01.249.049.608.608 0 01.103.024c1.99.669 2.724 2.778 2.796 4.213zm-5.256-.867c.147.898.871 2.757 2.5 2.7-.665-1.693-.801-3.57-1.038-5.334-1.132.579-1.634 1.585-1.462 2.634zm3.361 2.493c1.146-.564.812-2.078.524-2.903-.316-.91-.761-1.683-1.78-2.28.619 1.67 1.278 3.488 1.256 5.183zm13.659-3.186c2.03.61 3.082 2.23 1.098 3.342-1.724.966-4.993.562-6.756-.236-1.796-.814-2.63-2.605-.87-3.687 1.842-1.13 4.603-.508 6.33.55a.74.74 0 01.198.03zm-4.73-.404c-.685.137-1.165.415-1.426.756 1.226.245 2.428.55 3.654.798 1.16.235 2.364.379 3.497.68a.415.415 0 01.075.027c.018-.554-.726-.952-1.498-1.193-.238-.074-.318-.218-.293-.355-1.28-.43-2.575-1-4.01-.713zm3.75 3.479c.646-.05 1.316-.213 1.717-.585l-.023-.003c-2.317-.164-5.017-.974-7.035-1.832-.191.525.066 1.132.834 1.6 1.096.668 3.115.927 4.507.82zm966.48 26.038c.45.722-.276 1.31-.796 1.862-1.01 1.067-2.017 2.136-3.041 3.196-.525.543-.968 1.367-1.803 1.694a.36.36 0 01-.102.355c-4.744 5.018-9.752 10.082-16.892 13.568-5.687 2.774-12.31 4.092-19.446 3.974-7.6-.127-15.42-1.39-22.725-3.113-13.684-3.228-28.257-9.89-32.97-20.012-.308-.068-.534-.345-.298-.584 1.178-1.192 2.524-2.289 3.937-3.344.315-.235.772-.149 1.028.047a.704.704 0 01.59.084c5.448 3.47 11.884 5.957 18.812 7.473 12.272 2.685 25.027 2.318 37.34 1.378 6.182-.472 12.428-.92 18.543-1.628 2.815-.326 5.629-.867 7.867-2.086 2.08-1.13 3.588-2.675 5.012-4.215.098-.519.622-.912 1.543-.623a.655.655 0 01.533.016c1.008.443 2.375 1.165 2.869 1.958zm-3.406-1.227l-.344.374c.066.097.132.178.175.22.19.181.413.345.66.487.477.275 1 .421 1.562.526-.023-.207-.217-.402-.63-.695-.452-.32-.951-.606-1.423-.912zm-90.758.292c-.721.55-1.444 1.1-2.17 1.648.065-.013.129-.024.192-.042a3.402 3.402 0 001.193-.64c.355-.292.577-.627.785-.966zm92.353 2.174l.072-.092c-1.06-.178-2.054-.644-2.685-1.28-1.48 1.553-3.11 3.048-5.334 4.107-2.46 1.171-5.433 1.662-8.392 1.982-6.614.714-13.326 1.244-20.005 1.72-6.544.463-13.157.735-19.797.44-12.291-.545-25.392-3.156-34.748-9.419-.411 1.244-2.01 2.804-3.935 2.802 3.136 4.97 7.853 9.23 14.079 12.587 6.429 3.466 13.968 5.768 21.62 7.312 6.963 1.405 14.35 2.498 21.493 2.276 15.593-.486 24.878-9.003 32.646-17.215a.552.552 0 01.312-.167c.079-.282.357-.485.688-.838.633-.676 1.273-1.35 1.913-2.024.686-.722 1.474-1.432 2.073-2.19z"/><path fill="#d4d5c9" d="M1155.051 109.841c-16.818 8.397-39.938 9.28-59.022 1.622-5.757-2.31-10.633-5.328-15.274-8.639-.272-.194-.719.08-.483.296 7.052 6.452 18.22 10.973 29.124 13.09 10.352 2.007 21.246 1.83 31.146-.339 5.471-1.196 10.621-2.997 15.188-5.344.581-.3-.088-.98-.679-.686zm-11.503-35.566c6.63 5.553 8.132 13.761 1.89 19.247-3.1 2.725-7.33 5.29-12.25 6.282-4.61.929-9.69.564-14.173-.954-.002.566-.402 1.153-.367 1.741.023.38.21 1.569.782 2.038a.506.506 0 01.162.106c.08.041.164.072.256.083.334.043.323.339.067.419a1.537 1.537 0 01-.49.068.791.791 0 01-.378.053c-4.402-.384-9.513-3.949-7.056-7.086-10.142-2.414-16.58-10.696-14.976-17.702 1.55-6.777 9.209-11.711 18.98-12.385 9.965-.687 20.899 2.519 27.553 8.09zm-2.056 20.817c1.987-1.333 3.852-2.78 5.02-4.553 3.999-6.054.36-13.395-6.884-17.921-7.194-4.493-17.724-6.801-26.78-5.218-8.885 1.553-15.066 7.299-14.918 13.801.15 6.526 6.61 11.833 14.776 14.779.154.056.2.173.168.27a.224.224 0 01.004.121c-.315 1.325-.337 2.596.827 3.814 1.065 1.114 2.623 1.786 4.352 2.171-.755-1.287-.758-3.48.242-3.982a.467.467 0 01.125-.04c.037-.273.418-.519.89-.356 4.876 1.676 10.585 1.91 15.367.458 2.58-.784 4.809-2.001 6.81-3.344z"/><path fill="#d4d5c9" d="M1137.943 83.515c.95 2.623-.828 4.963-4.02 6.17-1.887.71-3.997 1.084-6.086 1.451-2.68.472-5.36.94-8.043 1.41a.943.943 0 01-.55-.062.397.397 0 01-.44.08c-3.625-1.629-6.325-4.562-7.94-7.273-1.526-2.562-2.14-5.538-.089-7.895 1.758-2.02 5.546-3.267 8.677-1.508 2.308 1.297 3.572 3.5 3.573 5.544 1.48-1.564 4.086-2.542 6.95-2.423 3.66.151 7.05 1.968 7.968 4.506zm-7.726 6.172c3.163-.674 6.387-1.897 6.668-4.468.276-2.532-2.42-4.812-6.02-5.278-3.795-.49-6.863 1.215-8.169 3.51-.119.208-.51.178-.69.032-.325-.024-.62-.2-.543-.497.585-2.216-.01-4.868-2.832-6.436-3.482-1.935-7.03.875-7.686 3.06-.706 2.351.58 4.892 2.221 7.027 1.535 1.997 3.634 3.578 5.72 5.282.041-.129.17-.239.417-.282 3.633-.64 7.34-1.188 10.914-1.95z"/><g opacity=".63" fill="#d4d5c9"><path d="M954.639 77.185c7.803 1.3 12.8 6.715 11.357 12.41-1.625 6.408-10.038 10.006-18.226 11.887a.292.292 0 01-.207-.023c-.476.081-.963.134-1.46.156-2.623.116-5.117-.623-7.047-1.736-2.51-1.448-3.98-3.58-4.982-5.74-.995-2.145-1.737-4.418-1.852-6.715-.184-3.682 2.117-8.47 7.74-9.776a.411.411 0 01.208-.134c2.248-.76 4.747-.698 7.123-.73 2.472-.035 4.967.005 7.346.401zm-14.02 22.633c2.072.96 4.708 1.43 7.257.888 2.519-.535 4.519-1.962 5.752-3.57 2.828-3.689 1.213-7.859-.83-11.297-2.107-3.546-5.364-7.446-11.561-7.524-.385.04-.8.015-1.18.053-.283.03-.633.123-.941.125-5.04 2.316-6.495 6.62-5.727 10.583.746 3.855 2.465 8.535 7.23 10.742zm19.505-3.806c5.846-3.937 6.93-10.305 2.306-14.56-2.314-2.13-5.728-3.453-9.563-3.857-1.975-.209-4.007-.209-6.022-.176-1.502.024-3.074-.002-4.574.23 6.876.33 10.428 5.62 12.416 9.63 1.863 3.761 2.415 8.247-1.68 11.704-.27.228-.557.443-.858.647 2.858-.968 5.637-2.043 7.975-3.618z" opacity=".63"/><path d="M945.981 92.072c-.371-.26-.965.143-.626.421 1.325 1.089 2.551 2.212 3.524 3.483.454.592 1.172 1.401.828 2.134-.363.771-1.775 1.212-2.781 1.388-1.399.246-2.832.138-3.228-.954-.238-.653-.14-1.37-.067-2.047.152-1.389.463-2.793.944-4.159.07-.2-.324-.279-.429-.081-1.304 2.473-3.686 9.031 2.958 7.871 2.196-.383 4.151-1.555 3.432-3.207-.783-1.795-2.711-3.556-4.555-4.849zm-3.244.079c-.624 1.048-1.19 2.11-1.814 3.157-.164.273-.328.546-.5.816-.23.36-.668.912-1.383.873-.66-.037-1.282-1.009-1.563-1.348-.534-.649-2.241-2.793-1.044-3.479.658-.376 2.014-.369 2.78-.383.787-.015 1.569.026 2.348.064.542.028.596-.569.058-.595-1.201-.058-2.414-.114-3.628.013-.815.085-2.07.242-2.61.777-.542.538-.125 1.33.082 1.862a7.829 7.829 0 001.519 2.426c.705.775 2.239 2.076 3.59.911.684-.59 1.048-1.5 1.427-2.189.509-.926.92-1.854 1.2-2.817.064-.217-.336-.3-.462-.088zm-4.463-6.83c-1.14-.482-4.022-1.687-4.626-.01-.252.698.16 1.554.331 2.219.197.775.475 1.499 1.286 2.048 1.631 1.101 4.272 1.146 6.477.826.243-.036.19-.268-.025-.282-1.8-.115-3.637.014-5.209-.674-1.602-.702-1.809-2.262-2.018-3.511-.158-.272-.034-.478.374-.618.178-.275.413-.347.705-.217.407-.011.905.241 1.271.365.853.289 1.658.65 2.383 1.07a10.105 10.105 0 013.104 2.746c.239.325.975.034.744-.293-1.075-1.521-2.729-2.794-4.797-3.669zm4.898-5.52c-1.227-.12-2.67-.209-3.925-.07-2.662.295-1.745 2.584-.895 3.637.667.827 1.522 1.585 2.312 2.352.902.874 1.78 1.987 2.976 2.675.07.04.172.063.261.023l.073-.032c.053-.024.092-.069.077-.113a1.824 1.824 0 00-.019-.055c-.007-.024-.033-.04-.064-.045a19.438 19.438 0 00-.454-.558c-.297-.344-.617-.677-.937-1.012-.639-.67-1.297-1.331-1.956-1.99-.692-.692-4.184-4.137-.986-4.279a25.36 25.36 0 013.098.073c.73.058 1.46.141 1.856.628.33.407.286.94.248 1.405-.136 1.659-.555 3.32-.613 4.979-.015.405.795.395.882.001.263-1.195.35-2.409.493-3.609.11-.915.427-2.006-.048-2.869-.405-.737-1.299-1.036-2.379-1.141zm6.603 3.107c-.878-.675-2.588-1.406-3.261-.038-.323.659-.056 1.435-.219 2.12-.206.853-.745 1.696-.777 2.558-.004.12.23.177.329.062.651-.755.987-1.705 1.226-2.55.119-.417.168-.823.158-1.243-.005-.205-.106-.608.053-.801.597-.723 1.408-.055 1.764.204.919.669 1.789 1.728 2.075 2.662.224.735-.138 1.093-1.188 1.38-.831.228-1.711.369-2.551.578-.523.13-.383.696.164.584 1.46-.298 4.227-.566 4.475-1.912.231-1.257-1.144-2.757-2.248-3.604z" opacity=".63"/><path d="M952.75 88.992c.54.526.61 1.32.75 1.95.155.697.41 1.46.264 2.181-.258 1.281-1.92 1.535-3.313 1.02-1.894-.7-3.523-1.907-4.73-3.122a.116.116 0 01-.032-.054l-.019.008a.897.897 0 01-.51.021c-.346.048-.675.235-.722.486-.04.224-.525.36-.663.124-.179-.305-.527-.46-1.005-.455-.375.004-.409-.309-.169-.442-.014-.055.013-.113.108-.14.56-.16.788-.684.36-.97-.2-.134-.01-.382.255-.383.431-.002.75-.213.81-.513.058-.29.671-.297.65.001 0 .016-.006.032-.008.048.072.34.342.622.878.648.28.014.505.288.222.44-.232.124-.51.268-.468.49.032.171.193.204.35.32a.17.17 0 01.072.127c.106-.043.241-.052.331.014 1.06.78 2.157 1.515 3.391 2.16.526.274 1.137.656 1.8.767 1.626.273 1.602-.753 1.525-1.44a12.936 12.936 0 00-.302-1.626c-.1-.415-.15-1.107-.619-1.397-.596-.368-1.993.072-2.7.191l-2.494.412c-.564.094-.734-.512-.17-.603 1.458-.235 2.961-.567 4.436-.7.722-.066 1.298.026 1.721.437zm-8.118 1.506c-.072-.29.094-.542.353-.754-.24-.117-.424-.279-.526-.469a1.641 1.641 0 01-.648.324c.173.378-.033.833-.512 1.08.302.05.572.163.78.32a1.34 1.34 0 01.672-.266.623.623 0 01-.119-.235z" opacity=".63"/></g><path fill="#d4d5c9" d="M692.002 107.837c-.028 3.04-3.07 5.393-6.263 7.039-3.559 1.836-7.787 3.018-11.92 3.988-1.577.369-3.34.62-4.912.052-1.266-.458-2.174-1.325-2.498-2.31-3.468.714-7.22-1.196-8.507-3.532-.773-1.4-1.035-2.99-1.254-4.475-.225-1.516-.266-3.055.056-4.559.61-2.85 2.496-5.664 5.66-7.427 2.885-1.608 6.721-2.022 10.16-1.062 3.06.854 5.321 2.759 6.277 5.004.65-1.438 1.905-2.882 3.488-4.07a.13.13 0 01-.009-.047c-2.317-.36-4.285-1.597-5.109-3.245a4.052 4.052 0 01-.372-2.52c.107-.616.406-1.757 1.134-2.151.773-.419 2.302.655 2.894.977 1.152.629 2.21 1.378 2.908 2.305.837 1.112 1.017 2.367.46 3.467a13.384 13.384 0 013.447-1.29c.395-.086.733.335.346.495-1.945.805-3.776 1.521-5.367 2.7-1.568 1.16-2.608 2.511-3.605 3.957.035.108.067.218.096.328 2.485-.803 5.731-.637 8.024.244 3.05 1.172 4.89 3.655 4.866 6.132zm-11.13-17.499c-.542-.329-1.175-.716-1.832-1.003.523.927.9 1.906 1.497 2.815.743 1.13 1.64 2.194 2.651 3.208.667-1.03.577-2.219-.256-3.294-.52-.671-1.25-1.236-2.06-1.726zm-2.84 2.754c.755 1.469 2.498 2.53 4.492 3.026.101-.089.194-.181.281-.274a.396.396 0 01-.165-.096 19.17 19.17 0 01-2.718-3.306c-.645-1.003-1.373-2.176-1.564-3.302-.514.422-.667 1.407-.72 1.866-.08.7.055 1.424.394 2.086zm8.352 20.606c2.75-1.625 5.09-3.828 4.718-6.568-.313-2.307-2.34-4.413-5.366-5.211-3.084-.813-5.929-.144-8.555 1.043-.242.11-.528-.115-.342-.278a5.902 5.902 0 011.6-.974.326.326 0 01-.168-.2c-.738-2.828-3.756-5.148-7.64-5.71-7.692-1.114-12.696 4.466-13.215 9.406-.139 1.332-.01 2.678.231 4.003.237 1.303.486 2.67 1.232 3.883 1.35 2.196 4.37 3.075 7.437 3.141-.008-.049-.018-.097-.024-.147-.044-.396.766-.436.836-.045.28 1.584 2.098 2.657 4.257 2.546 1.801-.092 3.61-.702 5.278-1.155 3.441-.933 6.853-2.04 9.721-3.734z" opacity=".65"/><g opacity=".53" fill="#d4d5c9"><path d="M280.595 113.692c1.415 2.515.998 5.166-1.288 7.025-2.465 2.004-6.27 2.498-9.745 2.282-3.59-.222-7.093-1.2-10.463-2.327-3.409-1.139-6.954-2.284-10.068-3.953-2.917-1.564-5.592-3.789-6.56-6.567-.717-2.054-.42-4.413 1.263-5.949a.193.193 0 01.05-.16c.141-.159.29-.31.442-.46.125-.187.278-.363.468-.523a.188.188 0 01.171-.038c2.036-1.642 4.822-2.506 7.783-2.699 3.834-.249 7.695.732 11.231 2.1 3.362 1.301 6.67 2.904 9.664 4.742 2.82 1.731 5.565 3.885 7.052 6.527zm-3.117-2.695a21.463 21.463 0 00-1.19-1.053c.153.235.294.477.43.724.25.452.477.914.792 1.343.387.526.833.804 1.406 1.18.365.24.694.535.983.863-.588-1.102-1.472-2.147-2.42-3.057zm-17.388-9.134c-2.337-.625-4.85-.957-7.25-.843 2.052 1.29 4.758.77 7.25.843zm11.608 20.501c3.084-.1 6.304-.979 7.967-3.105-.613.37-1.387.58-2.198.626-2.03.117-3.94-.806-5.786-1.458-1.008-.357-2.082-.68-3.169-.696-1.134-.016-2.12.373-3.194.558-1.508.261-3.115.102-4.583-.407-1.41-.489-2.679-1.29-3.57-2.325-1.032-1.194-1.43-2.62-2.229-3.902-.936-1.499-2.348-2.186-4.31-2.406-1.45-.163-2.99-.183-4.332-.793-1.42-.645-2.407-2.066-2.463-3.398-1.307 2.016-1.15 4.535.313 6.686 1.9 2.794 5.287 4.607 8.698 5.97a101.21 101.21 0 009.296 3.211c3.097.897 6.33 1.544 9.56 1.44zm8.438-4.577c.054-.118.174-.173.3-.18.262-.978-.125-1.957-.734-2.857-.303-.45-.635-.848-1.136-1.169-.34-.218-.68-.4-.974-.666-1.252-1.134-1.466-2.722-2.555-3.93-1.598-1.152-3.356-2.157-5.152-3.079-2.38-1.223-4.846-2.388-7.42-3.296-1.059-.098-2.082-.189-3.145-.182-.97.006-1.94.048-2.915-.007-1.37-.078-3.198-.367-4.102-1.368-2.942.224-5.673 1.146-7.637 3.054-.254.96-.104 1.956.656 2.862 1.057 1.26 2.837 1.452 4.503 1.603 1.277.115 2.616.24 3.745.843 1.081.58 1.76 1.486 2.276 2.422.63 1.14 1.046 2.385 1.956 3.42.942 1.071 2.342 1.866 3.856 2.26 1.77.46 3.257.21 4.933-.172 1.544-.353 3.02-.225 4.567.257 1.622.506 3.15 1.286 4.848 1.58 1.61.277 3.53-.066 4.13-1.395z" opacity=".53"/><path d="M269.689 109.373c.454.757.236 1.56-.551 2.02-1.992 1.169-5.136.07-7.138-.781-1.128-.48-2.431-1.025-3.114-1.956-.468-.637-.622-1.447-.148-2.035-.016-.097.028-.196.165-.257 2.55-1.141 5.603-.233 8.01 1.016.999.517 2.238 1.093 2.776 1.993zm-1.356 1.664c2.656-1.004-1.532-3.051-2.733-3.593-2-.902-4.262-1.338-6.302-.56a.423.423 0 01-.136.028c-.37 1.66 1.808 2.613 3.465 3.29 1.627.664 3.988 1.485 5.706.835zm-16.294-8.234c.24.25.59.732.239.99-.29.214-.77.055-1.03-.156-.395-.32-.553-.744-.575-1.17h-.004c-.29-.074-.188-.435.103-.364.497.123.94.359 1.267.7zm-.09.63c.006-.183-.352-.493-.504-.607a2.01 2.01 0 00-.487-.264c.067.186.173.366.304.529.05.062.678.64.687.343zm-2.241-.943c.06.026.11.072.123.14.066.358.135.78-.178 1.06a.975.975 0 01-.947.171c-.4-.152-.489-.538-.304-.822.246-.378.786-.414 1.125-.702.094-.08.282.032.204.127-.007.01-.016.016-.023.025zm-.354.836c.104-.175.095-.388.07-.589a4.146 4.146 0 01-.24.158c-.146.092-.6.413-.33.591.177.117.427-.038.5-.16zm29.372 13.329c.26.134.056.428-.214.321-.014-.005-.027-.009-.04-.015-.293.166-.586.313-.984.323-.376.01-.892-.129-.954-.49-.057-.337.323-.558.695-.56.499-.005 1.07.201 1.497.421zm-1.474.212c.195.12.576.064.904-.022a4.038 4.038 0 00-.397-.118 2.406 2.406 0 00-.402-.073c-.19-.012-.274.11-.105.213zm1.4-2.645c.258.39.625.967.491 1.402-.022.07-.085.1-.153.099-.035.059-.139.093-.227.035-.37-.241-.787-.53-.824-.935-.03-.314.147-.566.494-.678.072-.023.183.022.22.077zm-.23.305c-.28.219.02.605.303.873-.03-.128-.044-.261-.085-.387a2.479 2.479 0 00-.217-.486zm-1.641.001c.376.107.625.41.721.71.057.182-.2.268-.339.177-.276.1-.6.176-.909.092-.347-.095-.518-.414-.375-.671.151-.272.54-.412.902-.308zm-.48.48c-.133.308.49.233.735.186a.607.607 0 00-.325-.308c-.157-.06-.352-.015-.41.122zm-4.114-6.478c.075.19.193.402.19.6-.007.3-.345.453-.688.393-1.006-.175-.597-1.385-.329-1.846.046-.08.164-.057.215.004a.227.227 0 01.282.1c.134.244.23.497.33.75zm-.38.311c-.025-.106-.08-.22-.119-.325a7.407 7.407 0 01-.148-.435 3.79 3.79 0 00-.03.354c-.007.171-.05.476.113.62.263.233.207-.115.184-.214zm2.22.544c.154.288.282.736-.154.877-.364.12-.794-.146-.981-.402-.268-.364-.291-.816-.193-1.205-.153-.137-.002-.349.229-.257.495.197.883.58 1.099.987zm-.364.491c.21-.116-.142-.549-.272-.694a2.3 2.3 0 00-.446-.365c.068.416.305 1.285.718 1.06zm-11.43 6.025a.794.794 0 01.09.531c-.064.308-.37.555-.783.45-.427-.11-.601-.513-.621-.835-.03-.434.15-.825.474-1.144.088-.086.243.03.192.12-.01.015-.015.031-.024.046.077-.074.236-.07.283.047.109.274.253.52.389.785zm-.448.577c.272-.107-.076-.629-.143-.752-.097-.18-.183-.363-.133-.547a1.572 1.572 0 00-.15.67c.002.124.067.771.426.63zm2.988-.715c.299.134.562.418.429.69-.162.335-.7.308-1.067.22a2.125 2.125 0 01-1.13-.676c-.078-.09.033-.19.139-.18a.22.22 0 01.114-.023c.51.017 1.01-.256 1.515-.031zm.047.512c.012-.088-.161-.187-.241-.22-.16-.064-.316-.042-.478-.02-.176.026-.342.06-.513.08.098.058.202.109.315.15.154.058.883.27.917.01zm-4.867-1.483c.192.277.255.709-.16.838-.443.136-.963-.2-1.19-.498-.287-.378-.353-.813-.357-1.233 0-.091.17-.111.2-.017.007.028.017.058.026.088a.274.274 0 01.15-.004c.536.128 1.048.415 1.331.826zm-.32.348c.01-.123-.169-.29-.262-.373a1.9 1.9 0 00-.765-.402c.11.287.263.572.524.756.131.093.485.25.503.019z" opacity=".53"/></g><g opacity=".83" fill="#d4d5c9"><path d="M1051.067 46.134c.255.528-.489.88-1.059 1.008-.646.146-1.679.127-2.535-.229-.349-.145-.518-.29-.572-.43a.485.485 0 01-.054-.057 131.582 131.582 0 00-4.155-4.933c-.808-.91-1.782-2.084-3.462-2.124-1.197-.029-1.88.538-2.53.975-1.286.863-2.566 1.73-3.848 2.595.656.48 1.17.983 1.56 1.54.38.546.823 1.276.402 1.648.32.106.422.428.07.44l-.254.003c-4.469 3.34-9.276 6.474-13.9 9.718-4.74 3.324-9.366 6.716-14.038 10.081-.165.12-.486.045-.703-.084-2.598.566-7.172-1.83-9.722-3.22-2.124-1.158-4.136-2.458-5.893-3.842-.85-.67-3.072-2.32-2.522-2.96-.139-.089-.229-.2-.174-.292 2.641-4.425 5.613-8.714 8.606-12.979a265.592 265.592 0 014.704-6.478c1.572-2.104 3.063-4.264 4.923-6.225.067-.07.203-.044.308.017.537-.739 2.694-.313 4.095.01 1.973.454 3.93 1.204 5.805 2.041 2.15.96 4.226 2.034 6.29 3.103 2.182 1.131 4.304 2.308 6.243 3.634.215-.16.428-.322.641-.485 2.082-1.589 4.193-3.307 7.085-4.352 2.448-.884 6.024 1.257 7.931 3.1 1.362 1.316 2.304 2.72 3.332 4.074 1.106 1.457 2.205 2.915 3.306 4.372.072.097.073.175.033.231a.31.31 0 01.087.1zm-8.85-9.805a12.196 12.196 0 00-1.605-.958c.385.777.676 1.536.872 2.281.176-.424.38-.837.615-1.237a.2.2 0 01.118-.086zm-2.664-1.412c-.77-.27-1.415-.314-1.974-.232a22.241 22.241 0 011.922 2.504l-.088-.614c-.086-.593-.292-1.246.14-1.658zm-2.867.01c-.449.177-.85.41-1.24.617l2.431 2.116c-.476-.919-.902-1.832-1.19-2.734zm-30.045-4.222c-.034.045-.103.052-.178.04 2.062 3.776 5.261 7.443 10.671 10.47a37.411 37.411 0 005.61 2.547c1.673-1.526 3.586-2.925 5.465-4.335-.013-.008-.028-.016-.042-.026-3.204-2.167-6.984-4.06-10.64-5.822-1.66-.8-3.369-1.552-5.133-2.14-1.444-.48-5.114-1.573-5.753-.734zm-.546 35.004c4.511-3.394 9.194-6.687 13.901-9.96 1.33-.925 2.658-1.853 3.993-2.776-2.06-.312-6.187-2.169-7.046-2.594-1.923-.953-3.74-2.017-5.537-3.086-1.866-1.11-3.752-2.225-5.454-3.443-2.2-1.574-4.897-3.96-5.113-5.789a371.387 371.387 0 00-3.72 5.231c-3 4.292-5.762 8.687-8.61 13.048-.037.058-.114.08-.207.075.39.305.568.66.9.997.608.616 1.381 1.211 2.133 1.78a43.288 43.288 0 004.786 3.135c2.662 1.507 6.993 3.863 9.78 3.372a.496.496 0 01.194.01zm-4.34-27.44c.415.883.864 1.728 1.722 2.651 1.158 1.246 2.69 2.396 4.321 3.471 2.96 1.95 6.24 3.92 9.56 5.57 1.695.841 3.482 1.592 5.312 2.112.214.061.707.24.916.241.19.001.515-.118.436-.325-.088-.233-.686-.676-.915-.882a30.303 30.303 0 00-1.797-1.484c-5.7-4.368-13.175-7.464-19.556-11.354zm23.296 13.97c2.832-1.944 5.714-3.859 8.754-5.668-5.428-.1-12.043-2.125-17.218-5.057-4.972-2.816-9.442-6.908-10.56-10.499-1.327 2.012-2.899 3.916-4.335 5.875l-.37.51a.248.248 0 01.044.047.778.778 0 01.337.12c4.556 2.791 9.563 5.158 14.22 7.86 1.873 1.088 3.696 2.232 5.358 3.454.862.634 1.68 1.29 2.435 1.964.484.432 1.095.925 1.335 1.394zm8.6-7.764a8.262 8.262 0 00-1.16-1.292c-1.134.765-2.228 1.59-3.499 2.27 1.734.322 3.455.525 5.133.614-.058-.042-.103-.092-.103-.13 0-.24.177-.353.083-.632-.09-.269-.264-.556-.455-.83zm1.854-4.324c.582-.393 1.131-.85 1.895-1.122-1.085-1.014-1.966-2.07-2.616-3.13-4.308 2.355-7.354 5.538-11.315 8.116 1.542.522 3.102.941 4.655 1.265 1.366-1.255 3.18-2.289 4.803-3.385zm2.296-1.24c.185-.043.374-.073.567-.089l-2.075-1.802c.44.631.942 1.26 1.508 1.891zm1.511-.068c.126.015.253.037.38.062a17.871 17.871 0 00-1.728-2.752c.378.89.857 1.79 1.348 2.69zm1.327.35c.096.038.191.08.286.124-.033-1.043-.293-2.134-.774-3.252.02.4.158.845.21 1.21l.278 1.917zm6.888 6.587c.613-.259 1.505-.38 2.467-.17-1.799-2.406-3.457-4.873-5.528-7.25a12.786 12.786 0 00-1.547-1.496 13.364 13.364 0 00-1.13 2.85.13.13 0 01-.046.067c.296.202.578.432.837.69 1.763 1.76 3.24 3.631 4.683 5.442.088-.052.18-.097.264-.133zm2.157.745c.312-.107.422-.32.62-.483-.1.004-.233-.009-.323-.007a7.86 7.86 0 00-.954.061 3.233 3.233 0 00-.804.213c-.108.047-.223.161-.345.193l-.043.01a.294.294 0 01.078.004c.686.147 1.281.177 1.771.01z" opacity=".83"/><path d="M1002.083 43.52c-.005-.182-.456-.33-.574-.209a.354.354 0 01-.344.113c-.161-.03-.313-.15-.347-.248-.088-.262.508-.28.803-.275.19.004.139-.209-.085-.24-.415-.058-.848-.093-1.128.034-.263.12-.305.378-.073.646.5.577 1.765.741 1.748.18zm1.845.474c-.202-.366-.716-.797-1.325-.906-.202-.036-.3.127-.073.233.361.17.64.364.761.618.052.11.073.218.031.306-.045.095-.187.14-.196.25-.009.1.116.261.33.292.655.097.661-.45.472-.793zm-1.194 1.134c.032-.122-.248-.272-.396-.212-.117.047-.238.09-.354.136-.065.026-.17.075-.276.051-.162-.038-.2-.176-.187-.243.026-.14.24-.209.4-.272.152-.06-.097-.297-.28-.252-.291.071-.6.154-.665.373-.06.196.092.464.437.648.66.352 1.235.093 1.32-.229zm2.181 18.996c-.02-.145-.34-.25-.443-.16-.18.154-.23.42-.566.471-.125.02-.328.015-.462-.087-.116-.089-.121-.208.007-.222.222-.024.032-.286-.211-.294-.696-.022-.476.626.195.891.96.38 1.545-.102 1.48-.599zm-2.046-1.481c-.704-.164-1.011.334-.323.704.185.1.382-.014.2-.132-.304-.196-.023-.35.289-.197.38.187.24.411.252.593.007.124.279.23.405.182.545-.206-.064-.974-.823-1.15zm3.765.532c-.089-.16-.449-.276-.55-.158-.159.184-.303.515-.873.262-.389-.172-.38-.505.034-.437.256.043.311-.187.017-.28-.416-.131-.774-.074-.926.113-.172.212-.015.53.372.79.408.271.947.42 1.366.375.431-.047.754-.32.56-.666z" opacity=".83"/></g><path fill="#d4d5c9" d="M1160.015 28.542c.36 1.828.277 3.742-.97 5.419-2.697 3.619-9.767 4.595-15.116 5.136-7.226.73-14.605.563-21.87.256-6.796-.286-13.776-.633-20.42-1.689-5.558-.882-11.08-2.535-14.566-5.719-2.464-2.253-3.8-5.096-2.9-7.785a.345.345 0 01-.044-.129c-.466-4.489 5.47-7.583 11.307-8.583 3.712-.636 7.608-.711 11.416-.799 4.191-.097 8.39-.071 12.556.292 7.11.617 14.248 1.663 21.214 2.797 3.511.572 7.01 1.218 10.412 2.042 2.498.604 4.986 1.395 6.466 2.956 1.57 1.655 2.136 3.886 2.515 5.806zm-13.13-8.781c-2.973-.617-6.049-1.084-9.075-1.514.733.364 1.443.784 2.238 1.1 1.97.786 4.478.581 6.837.414zm-51.08-3.407c-.434.074-.866.16-1.296.258.856.087 1.696.294 2.582.444 2.598.441 4.665-.02 7.008-.76a25.832 25.832 0 012.792-.706c-.629.014-1.258.03-1.886.049-3.084.092-6.195.203-9.2.715zm-10.142 5.911c.152.053.256.161.187.289-.177.33-.318.663-.428.998.461 1.606 2.636 2.733 5.274 3.035 3.39.389 6.817-.29 10.22-.032 5.574.422 9.074 3.505 13.392 5.546 2.59 1.224 5.6 2.112 8.794 1.564 2.917-.501 5.302-1.819 7.954-2.715 2.226-.752 4.737-1.311 7.238-.943 2.753.405 4.66 2.286 7.5 2.428 2.874.143 3.218-2.304 5.416-3.072 1.01-.352 2.15-.396 3.265-.377.38.007 4.016.207 3.968-.113-.022-.138.061-.243.191-.314-.204-.998-.55-1.987-.928-2.948-.814-2.076-2.266-3.514-5.195-4.424a53.017 53.017 0 00-3.304-.905c-2.48.223-5.52.539-7.963.126-2.735-.463-4.162-2.495-7.07-2.64a.242.242 0 01-.14-.053c-6.124-.868-12.33-1.82-18.586-2.084-2.027.181-4.076.122-6.103.357-2.24.26-4.13.863-6.197 1.465-1.632.475-3.364.681-5.13.494-1.72-.182-3.236-.954-4.977-.952-3.452 1.023-6.483 2.824-7.378 5.27zm73.098 8.934c.063-.462.075-.926.046-1.39-1.642.447-5.014.018-6.013.157-3.063.424-3.023 3.349-6.55 3.415-3.219.06-5.153-1.932-8.066-2.442-3.639-.639-7.098 1.053-10.072 2.22-2.63 1.032-5.434 1.863-8.538 1.539-3.03-.316-5.647-1.538-7.969-2.825-2.525-1.399-4.9-3.034-7.966-3.887-3.516-.978-7.199-.319-10.854-.353-2.679-.025-5.6-.443-7.332-1.949a4.248 4.248 0 01-.319-.31c-.005 2.89 2.115 5.737 5.294 7.691 4.696 2.886 11.347 3.836 17.437 4.408 6.4.601 12.86.95 19.314 1.111 6.438.161 12.96.149 19.293-.746 5.493-.775 11.688-2.272 12.295-6.639z"/><path fill="#d4d5c9" d="M1131.43 21.502c.675 1.037.14 2.12-1.182 2.766-3.465 1.695-9.342.553-12.758-.63-1.327-.46-2.796-1.268-2.718-2.387.043-.616.45-1.026 1.044-1.274-.396-2.076 9.305-.984 10.69-.714 1.907.372 4.063.92 4.923 2.24zm-2.948 2.35c1.711-.44 2.561-1.583 1.018-2.605-1.005-.665-2.602-.95-3.917-1.18a27.982 27.982 0 00-4.364-.41c-.55-.008-2.374-.092-3.403.101-.007.033-.042.066-.107.07-.098.004-.185.017-.273.028-.197.072-.323.164-.342.286-.052.346-.558.482-.909.341-.41.616-.028 1.502.858 1.953.983.501 2.206.772 3.364 1.028 2.456.543 5.557 1.037 8.075.388zm27.308 3.188c.16.024.224.153.176.258.07.262-.473.455-.708.207-.762.103-1.55.126-2.217-.2-.573-.28-.894-.778-.57-1.234.316-.44 1.084-.684 1.737-.418.68.277 1.196.892 1.582 1.387zm-1.72.006c.268.052.549.06.83.05a6.723 6.723 0 00-.472-.467c-.24-.212-.878-.812-1.177-.295-.207.357.387.629.82.712zm.772-2.866c.123.033.17.168.03.22-.917.337-2.078.652-3.148.485-.754-.119-1.17-.58-.965-1.09.56-1.402 3.323-.572 4.046.275.03.035.038.072.037.11zm-3.297-.335c-.543.742 1.507.578 2.602.427-.326-.178-.598-.4-.97-.542-.47-.179-1.324-.306-1.632.114zm-32.73 6.125c.602.351.932 1.06.864 1.585-.02.162-.22.243-.403.226a.367.367 0 01-.148.034c-.852.011-1.837-.084-2.397-.568-.462-.399-.553-1.01.059-1.366.579-.335 1.48-.228 2.025.09zm-1.455.281c-.504.21-.104.697.257.86.377.167.841.217 1.287.267-.086-.28-.114-.566-.354-.82-.226-.242-.768-.482-1.19-.307zm6.926-.867c.969.092 1.615.71.99 1.313-.716.692-2.7 1.055-3.861.902-.032-.004-.056-.014-.082-.022a.459.459 0 01-.33-.214c-.193-.299.114-.642.352-.886.622-.637 1.749-1.205 2.93-1.093zm-.955 1.443c.418-.086 2.262-.582 1.036-.94-.534-.158-1.202.075-1.63.27a3.686 3.686 0 00-.666.386 3.94 3.94 0 00-.4.343.762.762 0 00-.141.163c.596-.093 1.208-.1 1.8-.222zM1091 22.665c.535.427 1.003 1.235.037 1.569-.863.298-1.933-.2-2.452-.649-.435-.376-.646-.802-.658-1.252-.151-.121-.134-.327.049-.432.003-.014.004-.028.008-.042.044-.163.38-.146.46-.018.975.025 1.92.316 2.557.824zm-.798 1.031c1.103.138.033-.759-.325-.931a3.55 3.55 0 00-1.302-.323c.234.565.816 1.153 1.627 1.254zm2.686-3.696c.346.514-.015 1.083-.72 1.351-.866.329-1.847.173-2.724-.053l-.023.023c-.29.307-1.017.02-.722-.286.671-.697 3.223-2.471 4.19-1.035zm-1.54 1.01c.48-.095 1.08-.41.785-.793-.424-.551-1.617.204-2.287.733.494.088 1.016.156 1.501.06zm4.312.893c.722.07 1.627.343 1.433.947-.168.525-1.1.7-1.789.682-.948-.027-1.798-.295-2.473-.727l-.009.003c-.458.134-.829-.267-.398-.461.923-.416 2.148-.55 3.235-.444zm.523.926c.202-.498-1.354-.4-1.68-.376-.382.029-.729.1-1.073.187.365.16.766.28 1.201.342.277.038 1.437.133 1.552-.153zm16.607-6.07c.217.067.069.289-.146.262 0 .024-.006.05-.022.077-.251.453-.69.973-1.411 1.137-.587.133-1.34-.03-1.635-.412-.371-.48.243-.91.859-1.1.764-.236 1.604-.198 2.355.036zm-2.451.877c.635.49 1.3-.36 1.582-.685a3.429 3.429 0 00-.72.072c-.314.067-1.231.328-.862.613zm4.345-.876c.305.507.558 1.163.07 1.658-.307.311-.93.471-1.466.4-1.884-.254-.085-1.812.646-2.226a.306.306 0 01.26-.016c.188-.019.4.035.49.184zm-1.187 1.515c.962.067.66-.778.462-1.216-.432.42-1.083 1.173-.462 1.216z"/><g opacity=".63" fill="#d4d5c9"><path d="M884.989 79.29c2.853 5.662 1.402 13.094-6.248 16.085-8.838 3.455-18.902-1.692-27.012-4.541l-.001-.001c-.185.456-.54.868-.643 1.359-.165.776.036 1.576.54 2.305.235.338-.053.852-.69.705-2.828-.654-5.113-2.223-6.093-4.206-.42-.848-.761-2.052-.285-2.887.06-.106.137-.208.227-.295-7.738-4.174-9.205-12.401-4.114-17.541 2.35-2.373 5.879-4.134 9.987-4.772 4.54-.706 9.445-.171 13.956.882 8.827 2.063 17.185 6.572 20.376 12.908zm-32.662 10.707c8.36 2.938 20.178 8.87 28.187 3.18 5.55-3.941 5.665-10.576 1.963-15.622-4.101-5.591-12.41-9.316-20.808-10.793-4.097-.721-8.464-.938-12.366.022-3.765.925-6.847 2.929-8.631 5.4-1.785 2.473-2.151 5.369-1.116 8.16 1.02 2.758 3.269 5.067 6.106 7.13a.388.388 0 01.145.174c.047.023.095.049.143.08.127.085.06.247-.117.243-1.065-.02.667 3.428.905 3.718.769.937 1.869 1.704 3.196 2.206-.508-1.368-.491-3.081 1.106-3.768a.636.636 0 01.46-.01c.176-.157.482-.241.827-.12z" opacity=".63"/><path d="M848.26 73.146c.458-.485.398-.66 1.334-.48.936.18.915.42.812 1.079-.043.282.547.488.725.199.53-.86.346-2.332-1.35-2.548-2.088-.268-3.278 1.933-4.128 2.868-.933 1.025-2.308 2.485-.8 3.712 1.071.873 2.934.632 3.308-.415.166-.465-.917-.772-1.175-.323l-1.375-.094-.09-.598c.037-.276.243-.555.416-.796.337-.468.793-.903 1.19-1.344.377-.42.742-.846 1.133-1.26zm7.403.836c2.429 1.425.009 3.97-1.154 5.282-.96 1.084-3.764 1.91-4.683.142-.875-1.684 1.154-3.884 2.797-4.878.494-.3 1.612-1.013 2.425-.71.043.016.078.035.114.054a.827.827 0 01.5.11zm-2.332 4.829c.328-.343.566-.74.833-1.108.596-.822 2-2.126.782-3.036-.111-.026-.205-.092-.218-.178l-.02-.023c-.172.232-1.238.677-1.52.887-.393.296-.746.61-1.047.958-.54.62-.958 1.327-1.108 2.064-.208 1.035 1.64 1.12 2.298.436zm8.325-1.989c-.923-.716-2.376-1.54-3.27-.581-.728.781-1.222 1.77-1.782 2.619-.58.879-1.153 1.764-1.616 2.682-.164.326.44.566.708.272a24.16 24.16 0 001.466-1.802c.189.098.378.194.57.288.295.143.513.255.873.188.269-.051.423-.267.326-.458-.13-.256-.38-.323-.707-.419-.211-.061-.422-.12-.634-.177l.245-.337c.31-.431.623-.862.928-1.296.188-.266.399-.789.728-1.066.53.221.997.513 1.573.686.575.172 1.027-.262.592-.599zm3.504 2.442c.523.104.704-.333.413-.577-.516-.43-1.19-.693-1.854-1.002-.304-.141-.76-.032-.896.178-1.111 1.71-2.45 3.31-3.71 4.96-.282.37.545.815.92.47a18.836 18.836 0 001.487-1.537c.332.298.827.517 1.355.535.317.01.564-.205.54-.418-.026-.238-.314-.392-.633-.407a2.44 2.44 0 00-.228.004 1.159 1.159 0 01-.207-.05.954.954 0 01-.366-.213 28.88 28.88 0 001.756-2.43c.449.202.892.38 1.424.487zm1.683 6.291c-.57-.366-1.21-.585-1.9-.74l.841-1.032c.228.118.466.227.705.328.395.168.752.344 1.207.243.264-.059.4-.286.226-.465-.254-.262-.57-.298-.969-.392a8.53 8.53 0 01-.759-.225 30.839 30.839 0 001.924-2.654c.526.13 1.08.31 1.504.563.691.414 1.443-.349.66-.667a7.41 7.41 0 00-1.818-.506c-.005-.228-.428-.44-.663-.224-1.712 1.582-3.1 3.365-4.517 5.09-.212.257.07.633.49.698.864.133 1.613.398 2.432.626.576.16 1.181-.295.637-.643zm4.861-.095c-.157-.046-.355-.119-.555-.168.825-1.007 1.524-2.078 2.024-3.162.518.244 1.055.5 1.604.642.483.126.855-.395.439-.614-.53-.279-1.206-.469-1.831-.663-.057-.105-.244-.156-.406-.128-.42-.126-.715.198-.492.421-1.546 1.671-3.017 3.415-4.463 5.13-.275.325.274.713.725.68.284.171.638.311.882.404.583.223 1.358.24 1.548-.267.115-.309-.366-.529-.746-.48-.27.034-.592-.133-.863-.253.386-.369.756-.756 1.109-1.154a.85.85 0 00.05.001c.194.093.407.176.589.258.372.17.657.338 1.109.267.223-.036.384-.24.285-.399-.208-.329-.572-.39-1.008-.516z" opacity=".63"/></g><path fill="#d4d5c9" d="M112.587 45.446c8.393 2.087 14.236 7.67 13.85 14.058-.356 5.93-6.676 11.416-15.074 12.912.47.94.163 1.979-.653 2.889-1.272 1.417-3.566 2.132-5.668 2.765-.601.18-1.275-.343-.78-.712 1.575-1.178 1.744-2.656.927-3.98-3.66 2.34-9.88 1.375-13.637.048-4.46-1.575-8.164-4.248-10.42-7.336-4.094-5.603-1.32-12.7 5.635-17.027 7.075-4.403 17.334-5.726 25.82-3.617zm12.326 11.79c-1.108-5.793-7.452-10.176-15.53-11.432-8.033-1.25-17.214.52-23.145 4.905-6.247 4.619-7.434 11.368-2.642 16.382 2.183 2.286 5.142 4.286 8.715 5.515 3.572 1.228 8.876 1.998 12.514.103a.743.743 0 01.157-.06c.182-.101.5-.121.677 0 1.453 1 1.65 2.544.909 3.875 2.306-.88 4.418-2.177 3.34-4.106-.161-.291.196-.581.573-.642.094-.12.254-.22.489-.258 9.149-1.531 15.133-8.062 13.943-14.282z"/><path fill="#d4d5c9" d="M92.993 56.329c-.766-.167-1.572.125-2.33.358a.78.78 0 00-.4.115c-.786.208-1.955.349-2.318.93-.074.12.01.229.159.284.628.23 1.509-.064 2.207-.261.528 1.544 1.578 3.068 2.373 4.52.973 1.777 1.905 3.608 3.154 5.293.334.449 1.333.165 1.097-.332-.827-1.75-1.922-3.44-2.864-5.157-.818-1.495-1.417-3.173-2.403-4.63.596-.134 1.18-.31 1.494-.64.154-.162.127-.415-.17-.48zm8.591-1.715c.534-.249.116-.728-.398-.708-.771.029-1.551.296-2.28.492-.806.216-1.623.415-2.396.692a.437.437 0 00-.234.176c-.106.085-.165.203-.115.321.782 1.827 2.059 3.55 3.132 5.292 1.002 1.625 1.753 3.49 3.098 4.978.177.197.575.177.832.045a.683.683 0 00.508.107c1.086-.159 2.913-.478 3.61-1.141.305-.29-.011-.641-.491-.613-.584.033-1.09.292-1.63.455-.583.176-1.18.305-1.781.444a.64.64 0 00-.107.033c-.22-.61-.534-1.216-.89-1.816.51-.112 1.008-.254 1.506-.395.607-.171 1.239-.256 1.55-.687.12-.167-.01-.399-.256-.455-.635-.145-1.163.12-1.76.313-.5.161-1.001.323-1.481.512-.515-.802-1.071-1.589-1.546-2.354-.98-1.578-1.917-3.225-3.203-4.694.648-.104 1.286-.244 1.927-.374.817-.165 1.685-.288 2.405-.623zm16.32 7c.424.51-.54 1.076-1.111.608a7.202 7.202 0 01-.492-.419c-.107-.096-.135-.197-.111-.29-.32-.376-.647-.749-.978-1.12a.909.909 0 01-.197.078c-.991.264-2.015.48-3.026.694-.462.098-.96.26-1.42.252.252.738.478 1.48.648 2.227.09.397-.805.564-.993.198-1.232-2.395-1.992-4.95-2.898-7.423-.39-1.062-1.014-2.174-1.177-3.272-.068-.448.102-1.008.839-1.157.95-.192 1.587.54 2.09.946a64.379 64.379 0 013.207 2.756 59.837 59.837 0 015.62 5.922zm-6.194-1.303c.928-.239 1.863-.485 2.808-.682a57.73 57.73 0 00-4.383-4.266c-.654-.575-1.446-1.62-2.35-1.97-.192-.206-.24-.2-.14.013l.296.808.443 1.212c.346.942.695 1.884 1.036 2.827.294.815.607 1.632.901 2.453.387-.2.939-.279 1.39-.395z"/><g opacity=".36" fill="#d4d5c9"><path d="M436.926 8.77c7.277 4.411 7.543 11.927 2.729 17.58-5.222 6.132-15.35 9.815-25.331 10.614.066.762.236 1.515.575 2.24.313.666.745 1.678 1.649 2.041.31.125.143.38-.128.447-.016.076-.07.153-.177.215-1.957 1.131-4.606.272-6.245-.674-1.658-.958-3.126-2.335-3.075-3.897-5.474.693-10.22-2.053-13.131-4.9-3.262-3.189-5.621-7.034-5.198-11.047.337-3.194 2.534-6.07 6.179-8.11 3.622-2.026 8.072-3.183 12.415-4.218 9.355-2.229 21.384-5.353 29.738-.29zm-23.341 27.472c10.512-.728 21.526-4.783 26.153-11.65 3.842-5.704 2.33-12.929-5.695-16.312-4.144-1.747-9.137-1.688-13.831-1.06-4.963.662-9.818 1.837-14.571 3.034-3.908.984-7.886 2.156-11.003 4.121-3.563 2.246-5.21 5.426-4.936 8.675.287 3.412 2.543 6.662 5.455 9.343 2.857 2.63 6.867 4.585 11.887 4.325.24-.013.405.084.465.203.14.03.26.104.29.222.597 2.236 3.846 5.288 7.603 4.268-.607-.357-.968-.94-1.264-1.436a6.65 6.65 0 01-.896-2.58c-.137-.05-.236-.156-.24-.287l-.005-.158c-.003-.088.068-.163.159-.223-.096-.207.025-.457.429-.485z" opacity=".36"/><path d="M400.535 22.033c-.097-.21-.408-.246-.665-.175a7.53 7.53 0 00-.836.088c-.154.026-.31.052-.463.081l-.23.045-.032.003a1.12 1.12 0 00-.355-.026.535.535 0 00-.434.27c-.071.126-.034.27.088.372.333.276.782.158 1.215.063.27-.06.527-.124.78-.197.327.93.907 2.051-.026 2.877-1.227 1.086-2.658-.13-3.192-.904-.661-.957-1.05-2.026-1.247-3.08-.081-.426-.386-1.387.09-1.775.595-.482 1.782-.017 2.39.184.29.096.614-.212.377-.365-1.25-.805-3.508-1.215-4.022.341-.281.852.037 1.88.29 2.705.289.928.7 1.9 1.386 2.721.826.988 2.49 1.858 4.145 1.076 2.095-.99 1.357-2.955.74-4.304zm6.528-3.464c.717 1.31 2.045 4.115-.226 5.149-2.376 1.082-4.308-.932-4.894-2.228-.563-1.244-1.71-4.218 1.078-4.692a.278.278 0 01.214.038 2.95 2.95 0 011.738-.103c1.141.272 1.696 1.117 2.09 1.836zm-1.552 4.646c2.116-.041 1.323-2.331 1.048-3.13-.202-.583-.46-1.194-.852-1.731-.339-.464-1.46-1.445-2.246-.643-.233.237-.628.198-.85.044-.524.87-.147 1.916.144 2.819.286.885 1.013 2.675 2.756 2.64zm8.459-5.267c.49 1.291 1.08 3.793-1.465 4.361-2.626.588-4.06-1.56-4.55-2.922-.463-1.28-.728-3.989 2.116-4.076l.027.002c2.185-.796 3.451 1.526 3.872 2.635zm-1.963 3.621c1.707-.22 1.275-2.029 1.055-2.838-.193-.705-1.007-3.379-2.749-2.627a.61.61 0 01-.654-.104c-1.182.795-1.017 2.028-.654 3.095.318.936 1.165 2.712 3.002 2.474zm7.919-5.432c.732 1.39.73 4.688-2.327 4.843a.821.821 0 01-.134-.006c-.174.227-.677.306-.862.015-.64-1.005-.922-2.139-1.466-3.177-.55-1.05-1.196-2.067-1.82-3.094-.142-.232.17-.394.437-.35.895-.575 2.361-.512 3.432-.23 1.32.345 2.265 1.097 2.74 2zm-2.46 4.275c2.18-.392 1.978-2.992 1.364-4.064-.38-.666-1.072-1.216-2.052-1.479-.907-.245-1.568-.085-2.427.028a16.91 16.91 0 011.858 2.736c.476.862 1.057 1.837 1.256 2.78zM409.2 28.03c-.395-.62-1.082-1.682-2.354-1.485-1.563.242-1.631 1.654-1.288 3.076-1.215-1.229-2.695-2.185-3.886-1.23-.994.796.006 2.133.458 2.913.444.768 1.066 2.296 2.56 2.331.368.01.507-.342.156-.437-.733-.196-1.165-1.333-1.458-1.81-.16-.257-1.662-2.644-.24-2.434.745.11 1.829 1.511 2.158 1.89.52.602.97 1.231 1.423 1.86.267.37 1.26.192 1.074-.242a18.69 18.69 0 01-.92-2.6c-.141-.533-.681-1.77-.12-2.225.872-.71 1.733 1.256 1.92 1.61.46.866.682 1.762 1.043 2.645.179.437 1.064.331 1.022-.129-.116-1.268-.814-2.588-1.547-3.734zm3.63-2.696c1.916.719 2.886 2.693 2.99 4.116.074.99-.18 2.677-2.228 2.396-2.16-.296-3.007-2.193-3.15-3.501-.104-.969-.184-2.813 1.743-2.986.027-.003.05.001.076.003a.687.687 0 01.568-.028zm1.256 5.615c1.163-.306.56-2.151.243-2.806-.445-.921-1.331-1.515-2.098-2.277-1.107.461-.795 2.044-.642 2.742.162.736.986 2.74 2.497 2.341zm8.51-1.252c.403.388-.408.875-.85.495-1.212-1.042-2.517-1.983-3.904-2.903l.046.098c.402.938.855 1.885 1.1 2.852.08.311-.59.461-.774.173-.812-1.27-1.314-2.658-1.903-3.987-.255-.576-1.323-1.828.023-2.115 2.298-.49 4.187 1.76 2.161 2.621 1.594.733 2.996 1.704 4.101 2.766zm-4.925-3.33c1.417-.454-.065-1.437-.841-1.367.103.49.358.998.615 1.493a.599.599 0 01.226-.126zm5.213-3.371c-.34-.432-1.368-.097-1.025.34.777.987 1.546 1.978 2.192 3.006a47.752 47.752 0 00-3.167-2.766c-.403-.322-1.113.021-.9.402 1.043 1.87 2.08 3.74 3.34 5.542.14.2.665.102.57-.128-.508-1.192-1.099-2.362-1.723-3.525a42.973 42.973 0 013.206 3.246c.301.34 1.214.221 1.07-.24-.664-2.11-2.087-4-3.563-5.877zm3.996 2.07c-.502-1.002-.984-2.039-1.667-2.987-.307-.426-1.163-.115-.961.318.447.96 1.057 1.888 1.566 2.834.507.938.918 1.93 1.624 2.803.16.2.6.108.564-.126-.147-.973-.667-1.926-1.126-2.842zm6.057.681c-1.08-1.86-2.025-3.81-3.303-5.606-.304-.43-1.166-.114-.965.319.522 1.124 1.177 2.228 1.85 3.326a35.61 35.61 0 00-3.086-2.145c-.407-.25-1.063.16-.819.475 1.318 1.7 2.081 3.484 3.061 5.279.134.247.636.096.611-.137-.13-1.19-.645-2.382-1.324-3.513 1.052.78 2.044 1.6 3.032 2.423.411.342 1.172-.025.943-.421zm2.937-4.938c-.16-.218-.585-.294-.871-.124a4.57 4.57 0 00-.674.474c-.314.256.187.68.61.5.08-.033.149-.062.212-.091.406.574.783 1.17 1.008 1.786.095.257.434.966-.25.915-.26-.02-.764-.591-.92-.734-.888-.823-3.32-4.022-.942-4.64.3-.077.22-.434-.102-.43-1.761.017-2.003 1.243-1.83 2.21.253 1.403 1.169 2.75 2.512 3.797.778.607 1.89 1.174 2.587.122.766-1.16-.622-2.807-1.34-3.785zm-3.97-10.712c1.624 1.748-1.828 3.492-3.76 4.203a.686.686 0 01-.494.005c-2.547.13-5.542-1.523-5.138-3.379.167-.769 1.014-1.526 2.213-1.563 1.042-.032 1.746.425 2.259.974 1.15-1.151 3.64-1.618 4.92-.24zm-.82 1.224c.274-.775-.698-1.409-1.82-1.282a2.074 2.074 0 00-1.724 1.289c-.134.336-.851.315-1.038.038-.44-.648-1.88-1.937-2.736-.7-.36.519-.118 1.148.298 1.597.795.86 2.217 1.015 3.35 1.523a.502.502 0 01.259-.186c1.285-.473 3.042-1.233 3.412-2.279z" opacity=".36"/></g><path fill="#d4d5c9" d="M713.846 1.879A7.694 7.694 0 01712.8.737h-1.7c.79 1.303 1.935 2.418 3.36 3.239.468.27 1.238-.193 1.112-.697a13.314 13.314 0 01-.378-2.542h-1.45c.021.383.051.765.103 1.142z" opacity=".44"/><path fill="#d4d5c9" d="M777.986 10.043c1.09.62 2.142 1.354 3.018 2.19 1.374 1.31 2.498 3.43 1.12 5.295-.154.21-.436.29-.685.262-4.329 5.162-11.674 6.553-18.173 6.492-13.756-.13-27.816-2.352-40.053-6.737-6.068-2.174-11.779-4.964-16.806-8.508-2.746-1.936-6.704-4.866-6.727-8.3h1.403c.25 1.96 1.782 3.72 3.337 5.012 2.41 2.002 5.104 3.771 7.906 5.36 9.813 5.566 21.393 8.716 33.29 10.406 5.991.852 12.19 1.502 18.382 1.493 5.89-.01 12.585-1.29 16.434-6.056a.802.802 0 01.65-.309c.26-1.824-.559-3.04-2.088-4.242-.867-.68-1.828-1.268-2.839-1.79-.528-.273-1.06-.447-1.454-.776-1.76 2.32-3.203 4.62-4.162 7.235-.209.57-1.04.561-1.316.161-1.824-2.642-2.06-5.979-.644-9.1-2.262-.68-4.584-1.336-6.61-2.393-.007.012-.01.025-.018.037-1.949 3.326-3.513 6.567-4.258 10.158-.11.525-.842.836-1.258.447-3.322-3.103-3.052-7.64-1.487-11.82-2.23-.752-4.539-1.359-6.772-2.102-1.404 3.77-3.032 7.435-4.108 11.272-.165.585-1.093.568-1.343.165-2.406-3.877-2.96-8.477-1.675-13.063-.127-.034-.256-.062-.383-.096h1.86c-.04.135-.082.27-.119.405 1.39-.312 3.667.102 4.353 1.005a.433.433 0 01.072.144c.05-.089.093-.18.143-.269a.783.783 0 01.42-.36.376.376 0 01.332-.123c2.93.26 5.7 1.112 8.34 2.043.297.105.487.325.44.61 1.517-.107 3.32.25 4.305 1.16.253-.346.757-.332 1.027-.13 2.775.282 5.34 1.164 7.913 1.926.328.097.568.416.402.745-.033.064-.06.13-.092.194 1.262.153 2.616.553 3.287 1.415.146-.172.291-.345.444-.513.352-.388.886-.329 1.121-.069 1.134-.084 2.214.638 3.071 1.124zm-34.779 1.64c.864-2.96 1.875-5.994 3.322-8.814a.645.645 0 01-.366.04c-.714-.128-1.28-.56-1.977-.75-.632-.174-1.316-.184-1.954-.32-.79 3.42-.439 6.818.975 9.843zm13.421 2.79c.713-2.786 1.83-5.582 3.498-8.13-.508-.325-.944-.722-1.516-.984-.715-.327-1.504-.473-2.325-.552-1.255 3.333-1.655 6.932.343 9.665zm13.17.833c.728-1.677 1.645-3.33 2.79-4.856-.542-.307-.966-.76-1.52-1.065a10.04 10.04 0 00-1.31-.605c-.888 2.236-.872 4.506.04 6.526z" opacity=".44"/><path fill="#d4d5c9" d="M730.298 10.423a33.23 33.23 0 01.456-5.956c.212-1.242.63-2.49.973-3.73h-1.6c-.315 1.09-.517 2.212-.71 3.234a32.32 32.32 0 00-.5 4.086c-1.18-2.28-1.609-4.772-1.929-7.32h-1.5c.255 3.672 1.273 7.277 3.523 10.144.323.413 1.293.07 1.287-.458z" opacity=".44"/><g opacity=".88" fill="#d4d5c9"><path d="M167.057 19.219c2.351-.955-.305-2.856-.977-3.599-3.195-3.529-6.413-7.049-9.622-10.573L152.38.565l-1.34.012c.77.842 1.54 1.683 2.307 2.524 2.977 3.256 5.95 6.514 8.924 9.77a952.57 952.57 0 002.173 2.375c.767.836 1.746 1.656 2.34 2.559.932 1.417-2.834.941-3.822.844-1.512-.148-2.998-.347-4.482-.544a485.013 485.013 0 00-17.473-2.019 474.498 474.498 0 00-17.022-1.332c.472-3.906 2.701-7.981 6.763-11.414 1.108-.936 2.348-1.797 3.68-2.601l-1.436.014a28.01 28.01 0 00-3.404 2.56c-3.92 3.483-6.106 7.469-6.622 11.38-.7-.04-1.4-.081-2.103-.119.3-4.064 3.002-8.234 7.252-11.764a36.474 36.474 0 012.737-2.036l-1.464.014a35.379 35.379 0 00-2.519 1.947c-4.253 3.658-6.926 7.896-7.175 12.058-.012.192.178.282.408.29.04.101.161.179.381.192 13.134.745 25.961 2.015 38.651 3.627a93.16 93.16 0 004.511.485c1.007.079 2.362.259 3.413-.168z" opacity=".88"/><path d="M135.886 3.19c-.905.008-1.63.464-1.62 1.018.01.553.751.995 1.657.986.905-.008 1.631-.464 1.621-1.018-.01-.554-.753-.996-1.658-.987zm19.817 9.26c-.622.005-1.12.318-1.113.7.007.38.516.683 1.137.676.622-.005 1.12-.319 1.114-.699-.007-.38-.517-.684-1.138-.678zm-18.031-.436c-.897.009-1.617.46-1.606 1.01.009.549.745.987 1.642.979.898-.01 1.617-.461 1.608-1.01-.01-.55-.747-.988-1.644-.98zm10.645-5.222c-1.085.01-1.954.557-1.941 1.22.011.664.9 1.193 1.984 1.182 1.085-.01 1.954-.556 1.942-1.22-.011-.663-.901-1.193-1.985-1.182zm-10.072 1.299c-.543.005-.978.279-.972.61.007.332.45.597.993.591.542-.005.977-.278.97-.61-.005-.332-.45-.596-.991-.591z" opacity=".88"/></g><path fill="#d4d5c9" d="M62.095 18.152c2.393 1.205 3.76 2.789.767 4.215-3.443 1.64-7.178.884-9.32-.187-2.078-1.04-2.063-2.073-1.1-3.922.24-.27.173-.36 1.1-.68 2.202-.76 6.251-.585 8.553.574zm-7.124 3.595c1.57.61 5.402 1.55 7.602.253-3.5-.851-6.539-2.258-9.546-3.496-.709 1.335.111 2.53 1.944 3.243zm8.332-.223c.753-1.334-1.336-2.948-2.91-3.527-1.806-.664-5.775-.926-7.122.155 2.974.966 7.16 2.09 10.032 3.372z" opacity=".98"/><path fill="#d4d5c9" d="M332.359 97.632c2.393 1.205 3.759 2.789.767 4.215-3.443 1.64-7.178.884-9.32-.188-2.078-1.04-2.063-2.072-1.101-3.921.241-.27.174-.36 1.101-.68 2.202-.76 6.251-.585 8.553.574zm-7.124 3.594c1.569.61 5.402 1.55 7.602.254-3.5-.852-6.538-2.26-9.546-3.497-.709 1.336.111 2.53 1.944 3.243zm8.332-.222c.753-1.334-1.336-2.95-2.91-3.528-1.806-.664-5.775-.926-7.122.156 2.974.965 7.16 2.09 10.032 3.372zM750.59 119.92c2.668-.838 5.222-.837 5.262 1.781.046 3.011-2.823 4.921-5.204 5.675-2.308.731-3.491.17-5.104-1.417-.181-.293-.321-.299-.193-1.046.303-1.772 2.672-4.187 5.239-4.993zm.325 6.34c1.542-.647 4.677-2.52 4.36-4.576-2.854 1.713-6.1 2.842-9.135 4.043 1.159 1.155 2.973 1.286 4.775.532zm4.204-5.284c-1.134-1.18-4.11-.75-5.62-.085-1.731.764-4.156 3.083-3.632 4.497 2.703-1.327 6.239-3.318 9.252-4.412zM560.674 16.445c1.223 2.252 1.21 4.44-2.644 4.574-4.434.154-7.235-2.232-8.334-4.241-1.068-1.95-.235-2.983 2.107-4.426.433-.165.443-.285 1.541-.204 2.608.192 6.154 2.129 7.33 4.297zm-9.335.517c.946 1.296 3.69 3.91 6.72 3.561-2.512-2.379-4.16-5.116-5.918-7.67-1.704 1.036-1.905 2.595-.802 4.11zm7.761 3.4c1.743-1.014 1.122-3.547.148-4.814-1.116-1.455-4.52-3.444-6.606-2.942 1.942 2.266 4.86 5.219 6.458 7.757z" opacity=".53"/><path fill="#d4d5c9" d="M998.109 5.173c2.864-.345 5.343.104 4.53 2.653-.937 2.93-4.346 4.283-6.903 4.597-2.48.305-3.445-.448-4.495-2.271-.08-.316-.213-.347.154-1.05.87-1.667 3.958-3.596 6.714-3.93zm-1.751 6.212c1.708-.357 5.363-1.625 5.725-3.678-3.33 1.163-6.85 1.69-10.188 2.325.749 1.324 2.468 1.77 4.463 1.353zm5.804-4.392c-.716-1.345-3.746-1.45-5.43-1.068-1.928.438-5.04 2.264-4.992 3.73 3.058-.815 7.14-2.128 10.422-2.662z" opacity=".98"/><path fill="#d4d5c9" d="M632.03 36.426c.244.04.232.348.099.588.083.124.104.305.002.509a55.123 55.123 0 01-1.03 1.97c.397.203.545.656.822 1.147.408.717.796 1.453 1.191 2.183.789 1.46 1.57 2.927 2.354 4.392l4.902 9.154 4.9 9.154 2.353 4.395c.77 1.439 1.871 2.873 2.315 4.567a.462.462 0 01-.012.249c.089.086.134.233.087.443-1.233 5.504-5.637 10.549-9.408 14.322-4.277 4.28-9.291 8.039-14.289 9.818-.087.03-.156.016-.207-.026-.194.167-.439.212-.576-.024-3.413-5.864-6.851-11.682-10.571-17.24a241.797 241.797 0 00-5.715-8.172c-1.892-2.59-3.979-5.004-5.717-7.757-.914.383-1.819.688-2.695.869-.259.053-.392-.26-.273-.506a.184.184 0 01-.123-.07c-.531-.675-.337-2.135-.392-3.132-.058-1.073-.256-2.188-.16-3.316-.154-.008-.216-.201-.18-.395-1.025-1.003-1.78-2.385-2.378-3.82-.123-.296.049-.664.272-.854.033-.923.381-1.814.876-2.743.855-1.601 1.877-3.137 2.914-4.61a59.728 59.728 0 016.817-8.062c2.461-2.43 5.097-4.588 7.825-6.388 1.395-.921 2.826-1.771 4.266-2.471 1.048-.51 2.16-.951 3.136-.724.154.036.216.153.217.294.008.002.017 0 .025.004.603.222.922.884 1.31 1.419.475.655.967 1.32 1.346 2.072.012.025.02.053.026.082a.354.354 0 01.228-.028c2.006.45 3.361 2.367 5.443 2.707zm-33.897 18.506l.069.147c.281-.195.575-.305.903-.454a50.69 50.69 0 002.175-1.041 45.063 45.063 0 003.466-1.978 49.307 49.307 0 006.988-5.367 56.187 56.187 0 006.257-6.765 59.228 59.228 0 002.732-3.791c.736-1.11 2.305-3.088 2.319-4.372a.513.513 0 01.197-.412l-.019-.072a.404.404 0 01-.096.027c-2.495.322-5.004 1.937-7.388 3.55-2.463 1.667-4.834 3.623-7.069 5.817a57.693 57.693 0 00-6.373 7.428 63.627 63.627 0 00-2.609 3.92c-.64 1.042-1.303 2.149-1.579 3.318.009.015.02.028.027.045zm.43.89c.548 1.079 1.158 2.094 1.725 3.159 4.769-2.91 9.381-6.023 13.74-10.12 4.456-4.187 8.35-8.998 11.909-14.26a.823.823 0 01.128-.147.417.417 0 01-.027-.116.21.21 0 01-.222-.046c-.524-.481-.98-1.074-1.431-1.65-.172-.221-.373-.44-.562-.673-.183.672-.693 1.424-1.017 1.966a58.511 58.511 0 01-2.963 4.469 58.702 58.702 0 01-6.716 7.707c-2.465 2.367-5.095 4.46-7.811 6.205a40.55 40.55 0 01-4.163 2.35c-.743.362-1.75.988-2.59 1.156zm9.237 9.004c-.129-.246-.382-.32-.523-.556a.25.25 0 01-.031-.08 34.53 34.53 0 01-2.854 1.525c.232.06.591.03.77.042.266.015.539.01.812-.007a7.212 7.212 0 001.855-.385.4.4 0 01.091-.02 1.179 1.179 0 00-.12-.52zm-2.676 1.745c.296.337.588.68.876 1.032.566-.188 1.225-.593 1.608-1.201-.772.186-1.539.273-2.266.19-.064-.008-.138-.014-.218-.021zm39.658 10.05c-.575 1.93 1.273 3.027 2.329 3.495.279-.488.539-.982.777-1.481-.032-.012-.063-.027-.096-.038a.252.252 0 01-.079-.05 11.668 11.668 0 01-2.931-1.925zm3.532 1.045c.067-.166.137-.33.198-.497-.01-.01-.023-.016-.032-.03-.391-.546-.578-1.213-1.14-1.581-.651-.427-1.699-.524-2.295.455 1.125.399 2.277.99 3.269 1.653zm-1.508-6.94l-1.92-3.586c-4.668 7.605-11.22 14.457-18.23 18.578 1.464 1.137 2.674 4.795.409 6.6-2.706 2.156-4.048-2.414-3.998-4.753-.842.372-1.688.7-2.533.983 2.019 3.227 3.972 6.523 5.806 9.919a.438.438 0 01.037.09c4.657-2.496 9.118-5.313 13.27-9.366 2.417-2.36 5.197-5.315 7.172-8.58-1.84-.107-4.032-2.477-2.381-5.106 1.328-2.116 3.836-1.345 4.503.343.06-.218.116-.437.166-.656a.846.846 0 01.075-.204c-.996-1.132-1.632-2.87-2.376-4.261zm-21.75 15.875c.406.498.606 1.214.847 1.867.331.898.706 1.766.985 2.702a.258.258 0 01.005.117c.612-.694.519-2.047.326-2.822-.255-1.026-.847-1.561-1.5-2.175-.007-.008-.013-.018-.021-.026-.213.117-.427.226-.642.337zm.163 2.41c-.325-.656-.706-1.27-.798-2.086-.282.14-.565.279-.848.409.233 1.623.822 4.566 2.473 4.378.188-.021.35-.071.492-.145a.138.138 0 01-.071-.061c-.462-.788-.835-1.66-1.248-2.494zm14.335-31.834l-3.809-7.118c-1.307 2.739-3.431 5.436-5.275 7.748a65.04 65.04 0 01-6.176 6.745c-4.178 3.948-8.852 7.379-13.615 9.35a244.471 244.471 0 014.988 7.153 289.674 289.674 0 014.469 6.859c4.624-2.051 9.111-4.678 13.314-8.392 4.187-3.7 7.92-8.196 10.975-13.23l.005-.005-4.876-9.11zm-27.802 12.93c-.01-.698-.002-1.4.069-2.12-1.656.912-.845 3.712-.122 4.554.155-.088.31-.18.465-.268-.084.005-.16-.026-.202-.116-.253-.563-.2-1.352-.21-2.05zm.547-2.302c.078.637.115 1.29.173 1.937.062.682.253 1.376.125 2.113a.501.501 0 01-.107.23 60.65 60.65 0 001.119-.66.423.423 0 01.026-.337l.056-.106a.648.648 0 01.106-.14c.462-1.467-.197-3.33-1.498-3.037zm18.749-26.58c-.169-.341-.336-.584-.419-.88a63.161 63.161 0 01-4.315 6.583c1.633-.108 3.331 1.154 2.184 3.522-1.293 2.666-4.362 1.806-5.66.767a69.238 69.238 0 01-4.422 4.592c-2.673 2.526-5.507 4.775-8.431 6.674a80.14 80.14 0 01-1.756 1.114c.557.342.674 1.646.439 2.389-.322 1.02-1.248 1.936-2.14 2.273 1.181 1.5 2.29 3.09 3.416 4.629l.324.447c.278-.151.556-.304.833-.458-.82-.658-1.218-1.903-.958-3.303.232-1.248 1.039-2.444 2.131-2.74 1.037-.282 1.909.293 2.265 1.27.199.546.395 1.755.147 2.662 3.158-1.977 6.22-4.24 9.136-6.998a62.921 62.921 0 006.116-6.685 66.117 66.117 0 002.718-3.69c.862-1.26 1.611-2.644 2.508-3.867a.638.638 0 01.199-.18l-.709-1.325c-.784-1.465-1.57-2.927-2.35-4.397-.422-.796-.851-1.585-1.256-2.398zm-5.126 9.114a3.922 3.922 0 01-1.743-.696c-.284.344-.57.685-.86 1.022 1.101.27 2.313.94 3.551.293.327-.171.581-.422.756-.71-.549.275-1.219.163-1.704.09zm-1.357-1.166c.52.166 1.063.286 1.632.305.534.019 1.193-.226 1.674-.064.009.003.015.01.024.014a1.502 1.502 0 00-.193-.885c-.393-.663-1.214-.664-1.943-.53a.33.33 0 01-.242-.038c-.313.403-.631.802-.952 1.198zm-6.624 5.847c5.346-5.053 9.671-11.044 13.37-17.737-.766-.072-1.409-.393-2.064-.77-.821-.473-1.817-.868-2.596-1.474-.016.032-.031.064-.053.097-3.471 5.462-7.749 10.448-12.266 14.666-4.217 3.938-8.878 7.51-13.639 9.794.283.988.231 2.27.289 3.366.051.966.332 2.214-.112 3.239 1.451-.784 2.947-1.35 4.406-2.097a49.696 49.696 0 004.299-2.487c2.905-1.874 5.713-4.088 8.366-6.597z" opacity=".65"/><g opacity=".63" fill="#d4d5c9"><path d="M497.33 89.957c-7.887-.615-13.337-5.575-12.394-11.375 1.062-6.525 9.13-10.841 17.122-13.427a.287.287 0 01.208.005 11.88 11.88 0 011.441-.282c2.603-.344 5.153.175 7.172 1.116 2.626 1.224 4.276 3.22 5.462 5.286 1.178 2.049 2.115 4.248 2.43 6.527.503 3.652-1.373 8.623-6.862 10.412a.414.414 0 01-.195.152c-2.173.953-4.668 1.108-7.03 1.348-2.462.249-4.95.426-7.354.238zm11.997-23.766c-2.148-.776-4.815-1.014-7.306-.254-2.464.753-4.33 2.347-5.42 4.057-2.496 3.92-.525 7.935 1.81 11.183 2.406 3.348 5.991 6.95 12.171 6.489.381-.073.796-.085 1.17-.155.28-.054.621-.178.928-.207 4.817-2.745 5.895-7.16 4.784-11.042-1.079-3.774-3.198-8.287-8.137-10.071zm-19.1 5.488c-5.48 4.43-6.007 10.869-1.03 14.706 2.49 1.92 6.006 2.94 9.862 3.01 1.986.036 4.01-.141 6.015-.348 1.494-.155 3.062-.266 4.536-.628-6.879.27-10.877-4.69-13.206-8.513-2.184-3.585-3.123-8.006.655-11.806.248-.25.517-.49.798-.72-2.763 1.214-5.438 2.527-7.63 4.299z" opacity=".63"/><path d="M504.66 74.374c.392.227.948-.227.586-.475-1.414-.968-2.733-1.98-3.814-3.162-.502-.55-1.29-1.294-1.01-2.054.295-.8 1.663-1.36 2.649-1.625 1.373-.367 2.81-.383 3.3.67.293.63.258 1.353.244 2.034a18.653 18.653 0 01-.578 4.225c-.053.205.348.25.435.043 1.083-2.577 2.886-9.318-3.632-7.584-2.155.573-4 1.91-3.14 3.493.936 1.721 3.01 3.307 4.96 4.435zm3.224-.361c.53-1.098 1.002-2.205 1.533-3.303.138-.286.278-.572.426-.856.198-.38.587-.967 1.303-.99.66-.02 1.365.894 1.673 1.208.588.599 2.476 2.587 1.342 3.374-.62.432-1.973.542-2.735.624-.782.083-1.565.11-2.345.139-.542.02-.544.619-.006.598 1.202-.046 2.415-.095 3.613-.327.804-.156 2.042-.422 2.533-1.002.493-.583.01-1.335-.243-1.848a7.813 7.813 0 00-1.726-2.284c-.769-.712-2.41-1.874-3.655-.595-.63.646-.913 1.585-1.23 2.304-.427.967-.756 1.927-.953 2.91-.044.222.363.27.47.048zm5.04 6.417c1.178.38 4.154 1.33 4.61-.394.19-.718-.297-1.534-.523-2.182-.265-.754-.604-1.452-1.46-1.928-1.72-.955-4.355-.77-6.524-.259-.239.056-.166.283.05.278 1.803-.04 3.621-.33 5.246.218 1.658.56 2 2.097 2.317 3.323.181.257.076.473-.319.648-.153.29-.38.382-.684.277-.404.047-.923-.16-1.298-.253a13.185 13.185 0 01-2.467-.858c-1.364-.638-2.462-1.482-3.33-2.466-.266-.302-.975.051-.716.357 1.203 1.422 2.96 2.546 5.098 3.238zm-4.399 5.924c1.232.013 2.679-.024 3.916-.27 2.626-.527 1.514-2.727.575-3.703-.736-.766-1.654-1.447-2.508-2.142-.974-.793-1.947-1.824-3.197-2.406a.302.302 0 00-.264 0 2.073 2.073 0 01-.068.038c-.052.028-.085.077-.067.12l.023.052c.01.024.036.038.069.04.162.174.329.346.5.516.326.318.674.622 1.021.927a120.97 120.97 0 002.122 1.813c.75.63 4.528 3.757 1.356 4.176-1.02.135-2.081.19-3.093.197-.734.006-1.468-.013-1.905-.464-.364-.377-.366-.912-.369-1.378-.008-1.664.264-3.356.178-5.014-.02-.404-.826-.324-.879.076-.159 1.214-.138 2.431-.177 3.638-.03.921-.251 2.035.297 2.854.468.7 1.384.92 2.47.93zm-6.849-2.52c.934.596 2.701 1.175 3.252-.247.265-.684-.068-1.434.035-2.13.13-.868.594-1.754.55-2.616-.006-.121-.244-.156-.333-.033-.582.808-.834 1.784-.999 2.646a4.132 4.132 0 00-.049 1.253c.023.204.16.597.017.803-.533.772-1.399.177-1.776-.051-.973-.586-1.93-1.564-2.298-2.471-.288-.713.042-1.1 1.063-1.478.81-.3 1.673-.516 2.491-.798.51-.175.321-.726-.215-.567-1.427.423-4.16.93-4.29 2.294-.122 1.272 1.38 2.647 2.552 3.395z" opacity=".63"/><path d="M498.184 78.03c-.584-.477-.722-1.26-.917-1.876-.216-.68-.536-1.418-.453-2.15.145-1.299 1.78-1.697 3.212-1.305 1.947.532 3.675 1.594 4.983 2.7.02.015.03.032.037.05l.018-.01a.901.901 0 01.506-.065c.34-.078.652-.293.677-.548.022-.225.492-.404.65-.18.205.288.564.412 1.041.366.373-.037.433.271.207.425.018.054-.004.115-.096.15-.543.21-.725.75-.272.998.208.114.041.378-.224.403-.429.04-.728.277-.762.581-.032.295-.64.355-.647.056 0-.017.003-.033.004-.05-.1-.332-.396-.589-.932-.568-.279.011-.528-.244-.259-.419.221-.144.485-.31.424-.529-.047-.168-.21-.186-.377-.288a.17.17 0 01-.083-.12c-.1.052-.236.072-.33.014-1.123-.684-2.28-1.32-3.566-1.855-.549-.228-1.19-.556-1.859-.609-1.644-.13-1.532.89-1.395 1.568.108.54.265 1.07.442 1.593.137.404.245 1.09.74 1.337.624.315 1.977-.245 2.671-.424l2.45-.628c.552-.142.776.446.22.586-1.43.361-2.9.822-4.358 1.084-.713.127-1.295.087-1.752-.287zm7.955-2.206c.098.283-.046.55-.285.782.25.096.446.241.564.421.158-.159.372-.292.617-.379-.205-.36-.04-.832.416-1.119a1.797 1.797 0 01-.805-.25 1.332 1.332 0 01-.646.321.622.622 0 01.14.224z" opacity=".63"/></g><path fill="#d4d5c9" d="M745.792 43.227a4568.01 4568.01 0 014.533 7.825c1.122 1.941 2.634 4 3.182 6.406.19.836.233 1.716.031 2.52-.249.997-1.129 2.131-1.069 3.291.075.031.147.102.195.222 1.417 3.44 3.745 5.981 5.805 8.657a448.69 448.69 0 016.042 8.031c1.801 2.451 3.616 4.898 5.338 7.46 1.28 1.904 2.694 3.993 3.272 6.501.455 1.977.15 4.1-1.156 5.1-1.405 1.076-3.237.555-4.582-.767-1.812-1.784-2.992-4.686-4.226-7.172l-4.302-8.667-4.303-8.667c-1.27-2.562-2.485-5.729-4.388-7.513-1.423-.239-2.776.827-4.217-.17-.734-.507-1.338-1.332-1.889-2.169-.784-1.192-1.529-2.438-2.273-3.677a172.83 172.83 0 01-5.379-9.655c-.25-.486-.592-1.009-.716-1.587-.126-.586-.047-1.173.36-1.257-.002 0-.002-.003-.003-.004-.057-.173.001-.338.108-.417.603-.444 1.093.132 1.511.787.775 1.211 1.51 2.473 2.261 3.71l2.256 3.716c.376.62.752 1.24 1.13 1.857.435.716.993 1.816 1.695 1.04a.307.307 0 01.03-.025c-.206-.719-.692-1.298-1.058-1.854a173.095 173.095 0 01-5.277-8.623c-.288-.503-.723-1.085-.872-1.704-.147-.602.06-1.25.477-1.32.643-1.559 3.122 2.93 3.426 3.43a95.783 95.783 0 012.436 4.287c.416.771 1.855 4.23 2.713 3.687-.13-1.509-1.483-2.908-2.172-3.97a99.286 99.286 0 01-2.587-4.219c-.542-.934-3.587-5.327-1.447-5.924.22-.06.344.208.33.453 1.534.89 2.53 3.278 3.425 5.1.604 1.227 1.195 2.47 1.863 3.634.281.49 2.111 3.581 2.406 2.505a.312.312 0 01.03-.07c.003-1.204-1.383-2.835-1.843-3.588a214.532 214.532 0 01-2.196-3.673 199.114 199.114 0 01-2.22-3.9c-.313-.564-.903-1.405-.555-2.086a.429.429 0 01.096-.306c1.453-1.676 2.937 1.313 3.78 2.765zm-.815-.12c-.56-.974-1.59-3.076-2.558-2.017.033.737.725 1.621 1.044 2.187.354.626.71 1.25 1.067 1.871a218.135 218.135 0 002.356 4.006c.69 1.144 1.564 2.277 2.111 3.556.211.498.3 1.05.198 1.522.18.78-.503 1.212-1.005.978-.41-.19-.749-.706-1.057-1.116a19.684 19.684 0 01-1.385-2.15c-.835-1.482-1.556-3.07-2.33-4.61-.743-1.48-1.544-3.187-2.688-4.115-.694.3.392 2.018.612 2.42a101.513 101.513 0 003.249 5.511c.721 1.138 1.548 2.21 2.206 3.418.286.523.506 1.09.518 1.692.181.11.307.5.132.752-.532.764-1.344.443-1.876-.292-.843-1.165-1.49-2.725-2.207-4.039a88.43 88.43 0 00-2.364-4.11c-.636-1.032-1.304-2.41-2.205-2.97-.01.192-.112.358-.297.316-.327-.075.26 1.02.292 1.075a238.885 238.885 0 001.461 2.516 207.62 207.62 0 002.06 3.404 203.47 203.47 0 002.116 3.34c.495.767 1.026 1.473 1.111 2.52.011.154-.037.264-.124.32-.277.863-1.068.861-1.63.345-.45-.413-.786-1.069-1.129-1.636l-1.316-2.168c-.877-1.444-1.755-2.889-2.63-4.335-.439-.723-.875-1.449-1.313-2.172-.147-.242-.363-.673-.557-.843-.138-.12-.286-.122-.43-.134.034.157-.007.353-.118.431-.33.234 1.406 3.272 1.595 3.627.574 1.07 1.157 2.13 1.747 3.183a177.512 177.512 0 003.552 6.053c1.023 1.667 2.234 4.168 3.902 4.444 1.035.17 1.972-.372 2.954-.032.056-.077.137-.108.224-.042 2.081 1.58 3.293 4.663 4.6 7.29 1.49 3 2.976 6 4.466 9.001l3.97 8c1.216 2.45 2.358 5.325 4.032 7.248 1.395 1.6 3.937 2.533 5.036.178.93-1.99-.187-4.677-1.144-6.399-1.403-2.526-3.086-4.769-4.708-7.022a444.957 444.957 0 00-10.199-13.606c-1.532-1.967-3.085-3.954-4.112-6.494-.83-1.39.523-3.163.788-4.472.434-2.149-1.026-4.335-1.953-5.935-1.359-2.349-2.719-4.695-4.076-7.047l-1.988-3.449z" opacity=".83"/></svg>