<svg xmlns="http://www.w3.org/2000/svg" width="1164" height="141"><path fill="#fdf3b6" d="M748.067 568.024l.014.015.077-.06-.02-.023c-.025.022-.046.047-.07.068z"/><path fill="#d0ad72" d="M759.65 183.98l-.03.218.03-.217zm.059-.703c-.002.059-.006.117-.01.176.003-.06.008-.117.01-.176zm-.468-2.967c.004.011.01.023.013.035l-.013-.036zm.236 4.599c.017-.068.03-.136.044-.204-.015.068-.027.136-.044.204zm-32.107 11.438c.053.196 1.03.23 1.416.26-.387-.03-1.363-.064-1.416-.26z"/><path fill="#d4d5c9" d="M532.466 127.237c-.152-1.664-.323-3.33-.482-4.995-.168-1.782-.459-3.63-.22-5.413.007-.061.055-.11.118-.143.753-2.074 4.931-3.067 7.756-3.278 5.312-.397 10.806-.322 16.125-.046 5.351.277 10.68.866 15.842 1.883 2.81.553 10.036 1.654 8.976 4.63.074.042.126.101.125.176 0 .137-.005.273-.008.41a.275.275 0 01-.006.334c-.057 2.774-.276 5.551-.568 8.328a.925.925 0 01.342-.005c2.642.441 5.267.94 7.892 1.423 1.707.315 3.857.49 4.687 1.73.863 1.292.446 3.115.38 4.487-.016.341-.062.681-.088 1.023l-1.297.523c.036-.378.086-.755.11-1.134.082-1.321.45-3.003-.107-4.288-.576-1.327-4.059-1.478-5.713-1.77-2.069-.366-4.142-.727-6.198-1.125-.035-.007-.066-.017-.097-.027a264.969 264.969 0 01-.376 3.196c1.851.117 3.71.564 5.511.87 1.018.173 2.806.219 3.392.947.652.812.157 2.269.07 3.15-.055.549-.13 1.097-.216 1.645l-1.463.59c.131-.74.244-1.482.321-2.226.08-.773.658-2.388-.417-2.872-.422-.188-1.266-.214-1.74-.293l-2.322-.39c-1.085-.182-2.195-.321-3.239-.592-.124 1-.245 1.996-.37 2.994l-1.433-.628c.778-6.458 1.522-12.314 1.956-14.824-1.48.9-3.523 1.583-5.174 2.164a48.67 48.67 0 01-6.58 1.804 52.632 52.632 0 01-14.487.852c-4.887-.392-9.65-1.44-13.94-3.104-2-.776-4.915-1.977-6.552-3.523.092.703.16 1.407.238 2.097.204 1.803.368 3.608.535 5.412.32 3.47.607 6.942.86 10.414.026.366.042.732.068 1.097l-1.257.52c-.033-.467-.053-.933-.086-1.4a533.902 533.902 0 00-.868-10.622zm10.143-13.04c-3.959.128-8.562.46-9.947 3.314.774 1.116 1.655 2.057 3.097 2.905 1.741 1.023 3.771 1.84 5.811 2.542 4.105 1.41 8.614 2.29 13.188 2.545a50.764 50.764 0 0013.313-1.015 46.631 46.631 0 006.218-1.77c1.84-.666 3.48-1.667 5.312-2.311-.194-.051-.335-.171-.313-.362.235-2.02-2.543-2.66-4.836-3.201a92.067 92.067 0 00-5.893-1.182c-4.286-.718-8.664-1.16-13.063-1.38-4.288-.213-8.593-.222-12.887-.084z" opacity=".55"/><path fill="#d4d5c9" d="M117.268 86.035a6.124 6.124 0 014.656 4.947c.224 1.373-.12 2.728-.846 4.04-.582 1.051-1.267 2.274-2.586 3.013-1.504.842-6.712 2.011-8.44.884a22.78 22.78 0 01-.948 2.66c-.13.3-.271.596-.421.887 3.522-.065 7.524.023 9.658 2.173 1.823 1.836.609 3.968-1.913 5.256-2.841 1.451-6.56 2.133-9.803 2.967a352.374 352.374 0 01-12.248 2.941c-8.054 1.765-16.281 3.173-24.626 3.826-3.907.307-7.968.56-11.861.311-3.314-.212-6.613-1.049-8.372-3.06-1.498-1.712-1.247-3.775.725-5.365 2.197-1.77 5.68-2.443 8.896-2.515a30.26 30.26 0 01-.976-.766c-4.488-3.676-7.67-8.465-7.897-13.406-.283.048-.543-.2-.327-.407 3.064-2.938 8.317-4.716 12.925-6.234 4.8-1.582 9.817-2.815 14.952-3.677 10.029-1.684 21.136-2.225 31.07-.655.448.07.548.352.413.576a.454.454 0 01.154.148 11.483 11.483 0 011.354 3.285c1.27-1.514 4.029-2.428 6.46-1.829zm-66.353 8.387a.182.182 0 01.05.087l.042.156c3.767 1.146 7.924 1.671 12.18 1.767.036-.256.11-.508.23-.753 1.042-2.114 5.552-1.543 4.962.67 4.27-.222 8.525-.794 12.48-1.535 5.065-.947 9.996-2.302 14.644-4.039a79.115 79.115 0 006.59-2.8c2.094-1.008 4-2.328 6.164-3.233l.026-.009c-.002-.013-.001-.025-.001-.038-4.997-.47-9.922-.844-15.021-.729-5.058.116-10.12.587-15.081 1.413a101.425 101.425 0 00-14.393 3.474c-4.438 1.43-9.353 3.12-12.872 5.57zm16.829 1.91c-.065-1.788-3.15-1.414-3.258.116a71.638 71.638 0 003.274-.069c-.006-.016-.015-.03-.016-.048zm49.65 9.085c-1.708-2.114-5.731-2.08-8.874-2.027a.883.883 0 01-.327-.052 15.137 15.137 0 01-2.001 2.604c.885.132 1.53.642 1.736 1.325.354 1.175-1.022 2.124-2.417 2.683-4.411 1.766-9.64 2.92-14.458 3.943-5.036 1.07-10.2 1.9-15.388 2.4-3.906.376-9.211.736-12.521-.917-1.135-.568-1.887-1.436-1.667-2.449.137-.63.649-1.277 1.464-1.545a24.975 24.975 0 01-3.083-1.859c-3.445.527-7.614.927-9.455 3.368-1.987 2.635 1.425 5.087 4.83 5.78 2.953.602 6.233.457 9.316.335 3.463-.137 6.92-.419 10.358-.818 6.839-.794 13.583-2.054 20.213-3.535a340.844 340.844 0 009.469-2.267c3.093-.782 6.368-1.47 9.314-2.515 2.416-.857 5.08-2.488 3.49-4.454zm-53.74 6.313c-1.841 1.145-.824 2.69 1.216 3.32 1.82.56 4.027.667 6.027.656 4.349-.026 8.78-.67 13.037-1.362a139.633 139.633 0 0013.14-2.783c2.192-.577 4.37-1.198 6.5-1.887.87-.282 1.843-.578 2.517-1.075.645-.477 1.01-2.12-.604-1.873-.037.005-.074.007-.11.01-2.284 2.09-5.33 3.743-9.09 4.892-6.313 1.931-13.877 2.784-20.635 2.576-3.253-.1-6.487-.516-9.405-1.456a22.471 22.471 0 01-2.593-1.018zm44.988-12.309c.837-2.66 1.422-5.449 1.35-8.184a.279.279 0 01-.004-.09c-.062-1.934-.452-3.839-1.328-5.65-1.65 1.307-4.086 2.364-6.117 3.33a79.98 79.98 0 01-7.1 2.956 90.721 90.721 0 01-15.03 4.01c-5.004.886-10.474 1.53-15.804 1.48.114.364.294.72.483 1.057.695 1.241 1.797 2.255 3.15 3.155a.647.647 0 01.483.111c.253-.15.508-.3.769-.443 1.09-.597 1.84-.436 2.776.117 1.606.95 3.184 1.921 4.772 2.884.659.4 2.568 1.1 2.284 1.887-.167.463-1.135.888-1.605 1.196l-2.587 1.692c-.734.48-2.24 1.94-3.442 1.757-.352-.054-.535-.239-.751-.41-.756-.596-1.323-1.36-1.963-2.02l-3.595-3.708c-.181-.186-.127-.376.034-.514-.072-.092-.055-.22.014-.312.373-.485 1.24-.874 1.834-1.235l.307-.188c-1.908-1.129-4.067-3.133-4.372-5.057-4.245-.14-8.366-.747-12.053-2.057 1.44 5.17 4.242 9.987 9.63 13.757 4.782 3.347 10.944 4.597 17.827 4.433 6.352-.152 13.277-.988 19.026-3.11 6.268-2.313 9.559-6.227 11.012-10.844zm-39.72 3.201c-.801.461-1.616.904-2.437 1.345.024.018.048.035.069.057 1.635 1.684 3.273 3.368 4.907 5.053l.653.674c.18-.236.426-.435.737-.597.412-.292.867-.565 1.296-.844.986-.643 2.076-1.639 3.238-2.112.158-.162.38-.216.666-.16l-.866-.526c-.576-.35-1.153-.7-1.73-1.053-1.008-.615-2.014-1.23-3.021-1.847-.613-.374-1.21-1.03-2.194-.75-.382.11-.997.575-1.318.76zM111.2 91.385a21.08 21.08 0 01-.104 1.978 34.643 34.643 0 01-.423 2.923c3.094.614 5.32-1.578 5.58-3.523.11-.82.237-2.226-.76-2.798-1.363-.784-3.402.71-4.293 1.42zm9.418.7a5.142 5.142 0 00-2.567-4.686c-2.495-1.478-5.523-.23-7.037 1.477.066.412.112.826.143 1.242 1.23-.823 2.895-1.553 4.442-1.163 1.975.498 2.096 2.357 1.97 3.598-.147 1.476-.906 3.057-2.793 3.953-1.313.623-2.868.82-4.23.435-.091.431-.191.861-.303 1.29.968-.072 1.917.16 2.925.078 1.275-.104 2.944-.33 4.067-.799 1.245-.52 1.84-1.566 2.363-2.442.576-.964.975-1.952 1.02-2.984z"/><path fill="#d4d5c9" d="M339.358 53.598c2.48.602 3.116 2.09 3.255 3.373.14 1.298-.141 2.878-2.747 4.212-2.423 1.24-5.99 1.908-9.161 2.278l-.048 1.116c-.061 1.4.2 2.856-1.213 4.367-.062.066-.194.112-.33.135a.555.555 0 01-.181.112c-3.197 1.391-7.163 2.4-11.097 3.044-4.002.656-8.338 1.098-12.091 1.064-.216-.002-.227-.09-.12-.164a.146.146 0 01-.042-.044l-5.142-8.146c-.857-1.358-1.72-2.714-2.566-4.074-.796-1.279-1.747-2.552-2.242-3.899-.15-.013-.304-.022-.452-.036-.348-.034-.082-.248.248-.299a.468.468 0 01.189-.097c3.432-1.039 7.114-1.902 10.732-2.71 3.728-.833 7.569-1.65 11.372-2.265a5.218 5.218 0 01-.91-2.058c-.187-.988.346-2.675 3.433-3.4 3.252-.762 5.013.538 5.234 1.523.207.926-.084 1.964-.54 3.004 1.795-.256 4.043-.48 5.395-.255.107.018.152.056.158.1.26-.078.594-.08.652.05.317.71.039 1.588.007 2.358l-.068 1.654c2.755-.884 5.915-1.516 8.275-.943zm-12.182-2.783c-.791.037-1.584.083-2.383.142-.225.48-.476.955-.724 1.418.61-.166 1.22-.333 1.828-.502 1.338-.374 2.725-.853 4.128-1.133a1.04 1.04 0 01.14-.019l.009-.02c-.048.01-.1.02-.155.026-.963.1-1.9.044-2.843.088zm-7.001-4.214c-2.875.9-2.335 2.608-1.946 3.502.495 1.14 1.496 2.132 2.376 3.175a132.723 132.723 0 002.355-.607c-.085-.029-.125-.08-.085-.159.657-1.255 1.213-2.52 1.428-3.739.107-.606.092-1.224-.443-1.708-.522-.474-1.97-1-3.685-.464zm-13.41 7.598c-3.397.752-6.717 1.603-10.076 2.406 2.337-.04 4.64-.093 7.108-.32a95.838 95.838 0 008.317-1.159 132.1 132.1 0 007.717-1.657 7.274 7.274 0 01-1.805-1.515 1.82 1.82 0 01-.105.025c-3.737.721-7.454 1.4-11.156 2.22zm22.729 10.381l.192-4.634c.064-1.545.13-3.089.197-4.634l.1-2.317c.026-.593-.09-1.209.042-1.829-1.258.464-2.796.837-4.151 1.212-1.546.43-3.106.844-4.681 1.241-3.141.791-6.35 1.507-9.6 2.077-4.868.854-10.505 1.546-15.032 1.333.979 1.124 1.63 2.348 2.382 3.523.869 1.355 1.723 2.714 2.58 4.071l5.209 8.24a.089.089 0 01.005.095c3.576-.358 7.06-.54 10.699-1.128 3.869-.625 7.566-1.57 10.8-2.887.186-.076.38-.105.542-.102.728-1.473.658-2.86.716-4.26zm1.994-8.257a1.111 1.111 0 01-.482.064c-.048 1.15-.095 2.3-.145 3.45l-.072 1.674c1.782-.045 3.722-.4 5.034-1.167 1.227-.718 1.179-1.447 1.166-2.127-.013-.662.22-1.566-.388-2.11-.741-.665-3.517-.35-5.113.216zm9.934.885c-.103-1.1-.568-2.296-2.272-2.977-2.1-.839-5.16-.112-8.082.66l-.012.313c-.011.263-.023.527-.033.791 1.66-.708 4.378-.926 5.829-.6 1.749.392 1.295 1.81 1.302 2.653.009.948-.137 1.922-2.208 2.843-1.504.668-3.507 1.034-5.171.954l-.05 1.142c2.75-.316 5.928-.874 8.11-1.927 2.479-1.197 2.697-2.67 2.587-3.852z" opacity=".72"/><path fill="#d4d5c9" d="M417.408 91.435c3.998 5.151 2.64 11.783-2.703 16.107-1.348 1.092-7.018 4.251-7.756 1.095-.378-1.62.062-3.342-.214-4.983-.268-1.59-.99-3.108-2.472-4.28a4.466 4.466 0 01-2.708 1.024c-1.572.067-3.075-.534-4.368-1.146a.75.75 0 01-.545.047c-2.339 1.474-5.39 2.451-8.249 3.217-.529.142-.993.214-1.448.186.005.013.011.025.015.04.454 1.901.082 4.461-2.304 5.444a.335.335 0 01.105.166c.927 3.333 6.165 4.292 7.96 7.193 1.425 2.308-1.41 3.797-4.123 4.386-3.236.702-6.813.333-9.853-.69-3.035-1.023-5.618-2.72-7.3-4.844-1.48-1.87-2.777-4.657-2.067-6.87a4.981 4.981 0 01-.72-.293c-1.116-.569-1.33-1.48-1.358-2.418-.124-4.11 2.172-8.836 6.668-11.413a.411.411 0 01.188-.049c-.379-.6-.572-1.243-.392-1.936.395-1.524 2.116-2.746 3.637-3.724 2.017-1.295 4.343-2.342 6.844-3.054 1.97-.56 4.261-1.09 6.316-.435a5.877 5.877 0 012.053 1.151c1.87-.648 4.032-.925 6.077-1.066 1.868-.128 3.85-.175 5.7.103 1.617.242 2.653.907 3.287 1.778 4.216.377 7.673 2.613 9.73 5.264zm-26.533 23.433c-2.47-2.12-6.313-3.4-7.136-6.36-.004-.017-.004-.032-.006-.046-.16.032-.324.06-.497.081-1.616.192-3.365.068-4.992-.006a74.192 74.192 0 01-5.486-.454c-.804-.097-1.695-.17-2.53-.34.162 1.23.147 2.442.608 3.661.558 1.474 1.54 2.872 2.868 4.052 2.542 2.26 6.314 3.796 10.303 4.032 2.042.122 4.168-.093 6.002-.786.96-.362 1.978-.92 2.071-1.779.084-.768-.556-1.497-1.205-2.055zm-4.867-12.076c.002-.107.064-.188.155-.243a3.645 3.645 0 01-.47-.193c-1.199-.586-2.312-1.37-3.376-2.08a50.81 50.81 0 01-5.853-4.534c-.682-.615-1.473-1.275-2.035-1.997-1.988 1.765-3.793 3.58-4.865 5.757a11.817 11.817 0 00-1.077 3.292c-.18 1.087-.634 3.058.731 3.793 1.356.73 3.671.756 5.277.912a74.62 74.62 0 005.291.323c1.938.05 4.266.268 5.48-1.09 1.073-1.202.716-2.594.742-3.94zm10.328-3.9c.263-3.729-.65-7.476-2.765-10.883-.802-1.292-1.888-2.8-3.886-3.224-2.175-.46-4.765.405-6.679 1.09-2.019.721-3.884 1.664-5.516 2.797-1.389.965-3.204 2.33-2.66 3.881.302.866 1.25 1.616 1.99 2.297.68.628 1.384 1.24 2.111 1.838a52.41 52.41 0 004.967 3.603c.832.533 1.953 1.482 3.084 1.608 1.06.117 2.434-.488 3.402-.804 2.034-.665 3.937-1.516 5.952-2.204zm5.455.72c1.773-.232 2.521-1.607 3.097-2.7 1.101-2.088 2.21-4.245 2.528-6.489.167-1.178.211-2.489-.416-3.608a.364.364 0 01-.17-.27c-.833-1.164-2.419-1.45-4.134-1.534-3.328-.163-6.343.342-9.538.86.535.563.966 1.187 1.341 1.79 2.108 3.388 3.072 7.107 2.904 10.82a.624.624 0 01.155.046c1.226.55 2.721 1.28 4.233 1.084zm16.863-.543c.563-4.89-3.354-11.167-10.515-12.079.476 1.126.484 2.443.298 3.618-.223 1.405-.732 2.776-1.346 4.113-.607 1.324-1.192 2.757-2.156 3.967a5.356 5.356 0 01-.235.271c2.856 1.758 3.213 4.656 3.227 7.251.005.734-.129 1.55.045 2.272.245 1.021 1.745.71 2.63.411 1.81-.61 3.271-1.693 4.437-2.859 2.023-2.026 3.326-4.452 3.615-6.965z" opacity=".53"/><path fill="#d4d5c9" d="M933.722 19.581c2.673.414 4.345 1.628 3.478 2.998-.982 1.555-4.372 2.607-7.708 2.888.28 1.044.252 2.13.298 3.2l.08 1.874c.024.553.22 1.124-.108 1.694-.037.063-.135.12-.254.164.149.1.137.27-.115.391-1.7.824-4.117 1.523-6.227 2.118a80.17 80.17 0 01-6.341 1.5c-4.537.887-9.393 1.495-13.994 1.527-.23.097-.603.135-.856.044-1.11-.399-1.847-1.025-2.68-1.536l-2.572-1.58c-1.513-.929-2.98-1.873-4.5-2.799-2.15.9-5.19 1.296-7.414.465-2.818-1.052-.8-4.63 3.885-5.19-4.771-.777-5.978-3.488-5.068-5.72 1.99-4.884 14.252-8.81 24.84-9.938 5.14-.547 10.565-.415 13.454 1.23 3.334 1.898 4.099 4.744 3.27 7.391 2.452-.835 6.299-1.068 8.532-.72zm-48.387 4.9a1.25 1.25 0 01.186-.005c3.459.164 10.36-.104 11.415-2.275.323-.666.137-1.334 1.026-1.986.78-.57 2.104-.97 3.466-1.209 1.966-.345 3.966-.327 5.94-.605 1.996-.28 3.893-.824 5.388-1.524 1.584-.74 2.61-1.65 2.956-2.559.33-.867-.194-1.51-.607-2.272-2.843-.16-6.08.113-9.016.548-5.021.745-10.051 2.03-14.05 3.717-3.908 1.65-6.672 3.707-7.185 5.85-.206.862-.02 1.628.48 2.32zm50.386-1.798c.943-1.203-.676-2.275-3.084-2.563-1.36-.163-2.93-.079-4.421.16-1.333.214-2.416.614-3.695.863-.232.045-.423.01-.528-.06-.262-.025-.456-.115-.393-.275.587-1.516.599-2.996-.043-4.394-.626-1.362-1.782-2.88-4.3-3.688a14.103 14.103 0 00-2.398-.516c1.159 1.218.158 3.036-1.79 4.28-2.61 1.667-6.41 2.446-10.503 2.762-2.905.224-5.575.625-6.013 2.088-.23.771-.374 1.462-1.723 2.146-2.8 1.422-7.77 1.821-11.138 1.427.783.82 2.03 1.53 3.608 2.165.128.051.078.143-.044.21.047-.003.092-.008.139-.01.193-.01.279.11.1.17-1.67.552-3.003 1.024-3.815 1.874-.748.785-1.19 1.93-.16 2.528.967.564 3.079.653 4.79.224 1.857-.466 2.899-1.34 3.09-2.15.09-.383 1.26-.4 1.43-.116 1.087 1.815 9.455.654 8.394-1.15a2.402 2.402 0 01-.24-.233.08.08 0 01-.021-.063c-.028-.025-.05-.05-.082-.075-.35-.274.697-.553 1.158-.375.583.224.835.516.843.831 1.112.42 2.492.69 4.276.534 2.1-.184 4.066-1.045 4.046-1.86-.42-.194-.671-.455-.663-.794.007-.268.874-.572 1.298-.33.38.217.608.463.699.722 1.108.413 3.58.247 4.967-.139 2.104-.584 2.256-1.437 1.914-2.228-.107-.249.779-.459 1.119-.286 1.745.883-.402 2.544-2.957 3.14-1.507.353-3.607.475-5.121.251-.405.756-1.753 1.5-3.656 1.885-2.351.477-4.647.308-6.21-.245-.571.666-1.924 1.322-3.386 1.623-2.47.51-5.356.411-6.883-.28-.318.338-.766.66-1.301.95 2.009.722 3.364 1.796 4.859 2.712l2.736 1.677c.742.454 1.674.892 2.222 1.411 4.633-.288 9.21-.747 13.74-1.646a79.183 79.183 0 006.552-1.588c1.96-.567 3.686-1.26 5.588-1.856-.006-.006-.016-.009-.021-.016-.4-.537-.25-1.18-.271-1.776l-.07-1.876c-.038-1.058-.145-2.118.055-3.197-2.52.084-4.854-.3-5.902-1.274-.118-.11.246-.25.482-.193 1.778.44 3.399.906 5.602.882.164-.117.577-.13.699-.024.22-.012.443-.027.675-.05 2.442-.235 4.92-1.129 5.75-2.189z" opacity=".63"/><g opacity=".63" fill="#d4d5c9"><path d="M847.332 100.68c2.83.965 4.01 3.31 4.481 5.428.453 2.04.366 4.371-1.449 6.058-1.335 1.242-3.943 2.261-6.1 1.646-.25 2.466-1.491 4.851-4.324 6.294.097.074.14.182.077.314-.97 2.005-4.32 2.765-6.921 2.995-1.864.166-6.018.045-5.522-2.046a17.249 17.249 0 01-1.143-.26c-4.317-1.174-5.92-4.31-7.05-7.332-1.482-3.964-2.719-7.979-3.405-12.059-.015-.093.04-.16.123-.204.714-1.47 2.556-2.263 4.456-2.815 2.458-.715 5.12-1.173 7.71-1.538 2.736-.384 5.539-.596 8.325-.45 1.385.072 4.666.167 4.655 1.651.126.03.228.104.26.237.212.872.411 1.745.607 2.62 1.256-1 3.54-1.113 5.22-.54zm-4.614 3.083a.434.434 0 01-.048.014c.131.61.264 1.22.396 1.828.404 1.87.913 3.751 1.137 5.642 1.405.41 2.985-.006 3.852-.916.877-.92.958-2.093.668-3.164-.279-1.03-.865-2.406-1.968-3.124-1.136-.74-2.739-.77-4.037-.28zm-15.421-5.716c-3.671.585-8.232 1.178-10.628 3.527 3.374 1.76 8.604 1.637 12.487 1.13a31.663 31.663 0 006.192-1.435 28.04 28.04 0 002.738-1.105c.152-.07.3-.147.448-.225-.684-.13-1.316-.295-2.057-.346a36.061 36.061 0 00-2.462-.07 43.902 43.902 0 00-10.545 1.277c-1.61.4-3.123.986-4.727 1.383-.382.094-.527-.299-.25-.447 1.485-.797 3.407-1.285 5.142-1.706a43.308 43.308 0 015.802-.992 45.772 45.772 0 015.655-.233c1.354.03 3.162.001 4.246.69.416-.23.838-.449 1.293-.609l-.022-.114c-.002-.012-.001-.024-.002-.035a.375.375 0 01-.214-.192c-.412-.904-1.906-.954-2.995-1.04a34.487 34.487 0 00-3.28-.099c-2.299.037-4.578.284-6.822.641zm7.011 24.513c1.651-.287 3.722-.827 4.59-1.998-3.069 1.186-7.226 1.487-10.716.918.598 1.77 4.35 1.388 6.126 1.08zm5.903-3.577c3.559-2.342 3.313-6.22 2.676-9.393-.665-3.312-1.452-6.61-2.104-9.924-1.353 1.056-3.587 1.81-5.282 2.37a33.098 33.098 0 01-6.667 1.457c-2.368.267-4.77.298-7.146.056-1.672-.17-3.437-.442-4.805-1.192 1.046 3.762 2.106 7.524 3.495 11.228 1.177 3.136 2.845 6.224 7.569 7.057 3.912.69 9.16.383 12.264-1.659zm10.644-12.553c-.344-1.747-1.114-3.654-3.137-4.744-1.8-.97-3.906-.853-5.456.202l.246 1.138c1.449-.55 3.296-.427 4.617.29 1.62.88 2.444 2.781 2.69 4.185.245 1.391-.213 2.977-1.757 3.894-1.074.638-2.537.836-3.795.463.01.126.026.253.032.38.017.274.022.55.016.825 2.29.276 4.365-.255 5.632-1.78 1.19-1.436 1.23-3.233.912-4.853z" opacity=".63"/><path d="M824.487 108.002c1.661-2.174 6.605.893 5.36 2.803-1.562 2.395-6.679-.482-5.643-2.532.035-.07.146-.118.242-.11a.211.211 0 01.041-.161zm3.43.622c-.821-.588-1.735-.737-2.668-.343.569.42 1.183.816 1.801 1.195.576.352 1.323.64 1.91 1.006.409-.615-.478-1.453-1.043-1.858zm-2.124 1.534c.536.44 1.584.955 2.436.768-.6-.256-1.162-.64-1.63-.948-.708-.465-1.271-.982-1.805-1.544a.445.445 0 01-.111-.021c.33.608.479 1.226 1.11 1.745zm9.702-2.242c1.631.088 2.907 1.24 2.45 2.446-.448 1.18-2.416 2.803-4.216 2.76-1.9-.049-2.04-1.757-1.607-2.788.437-1.045 1.555-1.984 2.986-2.286.07-.085.198-.142.387-.132zm-2.011 1.841c-.451.561-.884 1.517-.506 2.163.04.068.085.127.13.18.413-.59.898-1.158 1.395-1.711.459-.513.912-1.168 1.622-1.505a.4.4 0 01.25-.026 2.205 2.205 0 00-.89-.255.585.585 0 01-.245-.073c-.704.306-1.321.686-1.756 1.227zm3.078 1.042c.527-.562.57-1.278.084-1.74a.166.166 0 01-.002.123c-.255.595-.983 1.117-1.466 1.627-.5.53-.966 1.075-1.459 1.607 1.005.1 2.421-1.167 2.843-1.617z" opacity=".63"/></g><path fill="#d4d5c9" d="M1039.471 83.436a3663.706 3663.706 0 01-7.163 5.521c-1.776 1.367-3.618 3.137-5.932 3.996-.804.298-1.67.456-2.494.362-1.02-.117-2.26-.84-3.403-.628-.02.079-.082.159-.194.223-3.224 1.856-5.438 4.498-7.82 6.892a446.338 446.338 0 01-7.169 7.044c-2.192 2.107-4.379 4.228-6.692 6.271-1.72 1.519-3.605 3.196-6.016 4.098-1.9.71-4.044.688-5.208-.476-1.25-1.252-.976-3.136.16-4.643 1.53-2.031 4.252-3.582 6.553-5.131l8.027-5.404 8.027-5.403c2.373-1.597 5.354-3.217 6.872-5.338.05-1.441-1.184-2.643-.386-4.202.407-.794 1.146-1.502 1.903-2.157 1.078-.934 2.216-1.837 3.346-2.737a172.117 172.117 0 018.865-6.601c.45-.313.923-.719 1.48-.918.564-.201 1.155-.2 1.293.191l.004-.002c.163-.08.335-.043.427.052.52.54.012 1.102-.58 1.602-1.1.926-2.255 1.821-3.383 2.729l-3.387 2.724c-.564.454-1.13.907-1.693 1.362-.653.526-1.67 1.225-.808 1.819a.37.37 0 01.03.024c.684-.296 1.195-.855 1.7-1.29a167.466 167.466 0 017.854-6.365c.46-.351.98-.858 1.573-1.088.578-.224 1.248-.105 1.373.3 1.63.432-2.496 3.479-2.95 3.847a97.994 97.994 0 01-3.93 2.979c-.71.513-3.952 2.394-3.3 3.173 1.48-.327 2.687-1.852 3.65-2.675a98.996 98.996 0 013.843-3.119c.854-.659 4.81-4.255 5.683-2.212.09.209-.162.368-.407.386-.679 1.638-2.917 2.938-4.605 4.066-1.138.759-2.29 1.508-3.359 2.323-.448.343-3.272 2.563-2.167 2.715a.32.32 0 01.074.019c1.194-.154 2.63-1.742 3.314-2.297a222.535 222.535 0 013.354-2.66 195.894 195.894 0 013.574-2.713c.518-.384 1.274-1.08 1.995-.823a.422.422 0 01.315.054c1.854 1.222-.915 3.084-2.243 4.11zm.013-.824c.891-.684 2.84-1.98 1.662-2.8-.726.129-1.512.931-2.03 1.322-.575.433-1.147.868-1.716 1.304a227.757 227.757 0 00-3.66 2.861c-1.045.833-2.053 1.849-3.25 2.559-.465.276-1 .436-1.483.397-.749.281-1.267-.34-1.1-.868.136-.431.6-.836.967-1.194a19.633 19.633 0 011.95-1.656c1.358-1.023 2.84-1.946 4.264-2.915 1.37-.931 2.957-1.948 3.726-3.205-.388-.649-1.949.653-2.318.924a106.604 106.604 0 00-5.036 3.945c-1.036.865-1.99 1.825-3.1 2.637-.48.351-1.014.644-1.609.734-.084.194-.456.371-.729.23-.827-.426-.615-1.274.044-1.898 1.044-.989 2.505-1.835 3.714-2.718a89.58 89.58 0 003.764-2.883c.94-.767 2.217-1.61 2.656-2.577-.194.014-.37-.063-.354-.252.031-.334-.976.392-1.027.43-.29.22-.579.442-.868.664a202.156 202.156 0 00-7.571 6.14c-.696.592-1.327 1.21-2.352 1.432-.152.033-.268-.001-.335-.08-.892-.161-.993-.946-.556-1.571.35-.501.957-.919 1.474-1.334l1.976-1.588c1.317-1.06 2.633-2.12 3.952-3.179.66-.529 1.322-1.056 1.981-1.585.221-.177.62-.449.763-.663.101-.153.083-.3.075-.446-.15.056-.35.041-.442-.058-.276-.297-3.059 1.823-3.386 2.058-.985.708-1.96 1.426-2.926 2.149a180.148 180.148 0 00-5.535 4.316c-1.517 1.233-3.837 2.763-3.892 4.452-.033 1.047.628 1.906.42 2.924.082.045.125.121.071.217-1.293 2.27-4.19 3.877-6.622 5.516-2.778 1.871-5.558 3.74-8.337 5.61l-7.41 4.987c-2.269 1.527-4.969 3.037-6.655 4.949-1.404 1.593-1.995 4.235.484 5.016 2.096.66 4.612-.8 6.194-1.974 2.32-1.724 4.322-3.686 6.342-5.59a453.394 453.394 0 006.064-5.824 452.705 452.705 0 006.085-6.074c1.748-1.778 3.515-3.577 5.898-4.929 1.27-1.005 3.205.103 4.538.193 2.186.149 4.162-1.586 5.627-2.714 2.148-1.656 4.296-3.313 6.45-4.967l3.158-2.424z" opacity=".83"/><path fill="#d4d5c9" d="M39.293 64.143c-3.117.327-6.288-1.02-8.35-2.644-2.2-1.732-3.486-3.935-4.555-6.126a.334.334 0 01-.266-.11c-1.386-1.678-3.82-2.667-6.101-3.592-2.4-.974-4.87-1.848-7.337-2.723-2.216-.787-4.434-1.574-6.598-2.436C4.224 45.77 2.018 45.01.79 43.69c-.902-.97-1.122-2.424.07-3.303 1.257-.924 3.254-.776 4.76-.266 2.039.69 3.887 1.832 5.634 2.85 1.917 1.118 3.756 2.305 5.567 3.512 1.78 1.186 3.533 2.394 5.313 3.581 1.819 1.214 3.696 2.406 6.035 3.042 3.648.235 7.432-.05 10.876 1.061 2.802.904 4.78 2.86 4.847 5.107.06 2.011-1.605 4.553-4.6 4.87zm-7.485-2.652c1.946 1.397 5.228 2.763 8.024 2.091 1.496-.36 2.542-1.488 3.037-2.528.468-.984.52-2.056.119-3.065-.896-2.25-3.627-3.504-6.638-3.963-2.64-.403-5.338-.29-7.988-.586-.052.042-.132.065-.236.044a11.101 11.101 0 01-.73-.172c-.083-.013-.167-.025-.25-.039-.064-.01-.101-.036-.117-.067-1.826-.558-3.367-1.517-4.838-2.486-1.888-1.246-3.737-2.524-5.614-3.779a118.523 118.523 0 00-5.132-3.27c-1.755-1.047-3.583-2.138-5.572-2.94-1.65-.668-4.598-.979-5.14.781-.518 1.684 1.653 2.891 3.388 3.654 3.977 1.75 8.236 3.124 12.38 4.64 2.035.743 4.068 1.51 6 2.39 1.559.71 3.02 1.543 4.026 2.675.14-.014.299.031.36.157 1.118 2.321 2.464 4.7 4.92 6.463zm198.839-16.464c.072.237-.21.362-.484.348-.077.128-.229.227-.457.227a55.163 55.163 0 01-2.223-.058c-.006.445-.347.777-.666 1.243-.465.681-.954 1.355-1.436 2.03-.963 1.352-1.937 2.7-2.906 4.048l-6.061 8.431-6.062 8.431-2.91 4.047c-.953 1.326-1.756 2.945-3.082 4.09a.46.46 0 01-.229.1c-.038.117-.149.222-.359.272-5.485 1.316-11.954-.417-17.002-2.14-5.726-1.956-11.308-4.803-15.106-8.508-.065-.064-.083-.132-.068-.196-.235-.1-.384-.3-.232-.528 3.762-5.647 7.472-11.295 10.823-17.08a241.17 241.17 0 004.822-8.732c1.492-2.838 2.741-5.776 4.448-8.549-.747-.65-1.419-1.33-1.968-2.037-.16-.208.062-.466.335-.467a.19.19 0 01.008-.142c.373-.774 1.77-1.242 2.64-1.73.938-.525 1.851-1.194 2.906-1.604-.058-.142.087-.283.277-.336.449-1.36 1.358-2.648 2.382-3.817.212-.24.618-.249.887-.132.844-.377 1.797-.457 2.848-.42 1.815.061 3.644.303 5.422.586a59.721 59.721 0 0110.24 2.57c3.265 1.14 6.365 2.556 9.182 4.213 1.44.847 2.834 1.757 4.097 2.742.919.717 1.804 1.521 2.03 2.497.036.154-.041.262-.168.324.002.01.007.016.008.025.065.64-.388 1.217-.697 1.8-.38.716-.76 1.45-1.268 2.121a.321.321 0 01-.062.06.353.353 0 01.125.192c.479 2-.646 4.06-.034 6.08zm-31.541-22.285l-.101.126c.299.167.527.383.805.611a50.538 50.538 0 001.892 1.494 44.824 44.824 0 003.302 2.241 49.36 49.36 0 007.896 3.912 56.378 56.378 0 008.828 2.638 58.65 58.65 0 004.607.784c1.32.172 3.788.71 4.946.156a.517.517 0 01.456-.004c.02-.016.04-.03.057-.048a.433.433 0 01-.067-.075c-1.387-2.097-3.943-3.639-6.44-5.069-2.58-1.478-5.38-2.745-8.336-3.787a57.618 57.618 0 00-9.475-2.45 63.544 63.544 0 00-4.667-.617c-1.218-.116-2.504-.223-3.675.043-.009.015-.016.03-.029.045zm-.61.777c-.728.968-1.37 1.962-2.077 2.94 4.712 3.002 9.538 5.771 15.135 7.881 5.722 2.157 11.757 3.536 18.048 4.413.072.01.133.028.188.05a.42.42 0 01.092-.075.212.212 0 01-.056-.219c.201-.684.532-1.354.852-2.01.122-.253.23-.53.356-.803-.683.132-1.583.005-2.212-.048a58.423 58.423 0 01-5.318-.69 58.666 58.666 0 01-9.877-2.639c-3.21-1.17-6.248-2.61-9.01-4.28a40.981 40.981 0 01-3.944-2.703c-.65-.508-1.656-1.136-2.177-1.817zm-4.018 12.26c.165-.225.12-.486.27-.716a.282.282 0 01.058-.062c-.91-.6-1.802-1.23-2.626-1.892.047.235.232.544.301.71.104.246.228.488.364.726a7.175 7.175 0 001.162 1.496.458.458 0 01.058.072 1.17 1.17 0 00.413-.335zm-2.745-1.636c-.17.415-.352.828-.54 1.24.418.427 1.072.84 1.785.915-.506-.61-.92-1.26-1.167-1.949-.02-.06-.049-.13-.078-.206zm8.44 40.032c-1.986.333-2.157 2.476-2.112 3.63.56.036 1.119.052 1.672.046-.004-.035-.005-.069-.008-.103a.23.23 0 01.009-.092 11.666 11.666 0 01.438-3.48zm.618 3.631c.177-.012.356-.023.533-.04.003-.014.004-.029.011-.043.32-.59.835-1.053.918-1.72.098-.77-.276-1.755-1.418-1.859.136 1.184.112 2.48-.045 3.662zm5.566-4.409l2.375-3.303c-8.883-.842-17.921-3.708-24.708-8.188-.376 1.815-3.128 4.512-5.745 3.273-3.127-1.48.385-4.696 2.507-5.68a29.419 29.419 0 01-1.998-1.844c-2.008 3.235-4.107 6.44-6.35 9.582a.497.497 0 01-.064.072c4.292 3.082 8.786 5.847 14.253 7.791 3.182 1.131 7.06 2.326 10.86 2.661-.713-1.699.449-4.71 3.537-4.386 2.485.261 2.896 2.852 1.674 4.193.223-.042.444-.087.663-.139a.785.785 0 01.216-.022c.577-1.393 1.859-2.729 2.78-4.01zm-23.83-12.538c-.268.582-.823 1.078-1.303 1.581-.661.693-1.275 1.413-1.993 2.075a.25.25 0 01-.102.056c.892.244 2.066-.435 2.677-.949.808-.68 1.028-1.449 1.292-2.305l.014-.03c-.198-.14-.39-.285-.585-.428zm-2.092 1.208c.446-.582.83-1.193 1.522-1.635-.25-.193-.5-.386-.741-.582-1.355.923-3.739 2.748-2.843 4.15a1.4 1.4 0 00.347.375.135.135 0 01.024-.09c.504-.762 1.123-1.48 1.69-2.218zm34.894-1.148l4.712-6.553c-3.034.032-6.39-.688-9.278-1.324a65.085 65.085 0 01-8.776-2.577c-5.385-2.012-10.523-4.698-14.39-8.106a245.16 245.16 0 01-4.225 7.627 286.74 286.74 0 01-4.19 7.034c3.877 3.25 8.211 6.12 13.396 8.257 5.166 2.131 10.846 3.502 16.71 4.031l.008.001 6.033-8.39zm-23.853-19.268a18.58 18.58 0 011.936-.872c-1.549-1.085-3.706.876-4.143 1.895.147.101.296.201.445.301-.042-.075-.047-.157.015-.232.394-.476 1.126-.776 1.747-1.092zm2.31-.522c-.538.35-1.11.671-1.662 1.008-.586.355-1.125.833-1.843 1.043a.524.524 0 01-.255.005c.36.24.72.48 1.086.714a.423.423 0 01.315-.126l.119.004a.666.666 0 01.172.035c1.52-.232 2.905-1.644 2.068-2.683zm32.119 5.13c.233-.303.378-.56.607-.763a63.676 63.676 0 01-7.81-.976c.815 1.418.43 3.5-2.202 3.51-2.962.014-3.542-3.12-3.18-4.743a69.227 69.227 0 01-6.07-1.949c-3.445-1.287-6.713-2.842-9.705-4.63a94.862 94.862 0 01-1.773-1.086c-.062.65-1.181 1.33-1.952 1.445-1.057.161-2.287-.267-2.983-.92-.827 1.72-1.766 3.417-2.652 5.105-.085.163-.173.325-.26.488.26.183.519.365.78.546.229-1.026 1.172-1.93 2.543-2.314 1.223-.343 2.652-.143 3.399.706.71.808.578 1.844-.143 2.593-.403.42-1.401 1.128-2.326 1.304 3.166 1.966 6.546 3.718 10.306 5.121a63.134 63.134 0 008.695 2.55c1.486.32 2.99.594 4.509.815 1.512.22 3.085.281 4.577.548a.64.64 0 01.25.1l.877-1.22c.97-1.349 1.937-2.699 2.913-4.046.529-.73 1.049-1.463 1.6-2.184zm-10.44-.589a3.914 3.914 0 01-.142-1.872c-.434-.104-.867-.21-1.297-.322.242 1.107.175 2.491 1.3 3.317.299.218.637.335.972.366-.49-.372-.683-1.023-.832-1.489zm.45-1.732c.08.54.21 1.08.444 1.6.22.486.73.971.796 1.473 0 .011-.003.02-.003.03.29-.117.54-.307.71-.565.423-.644.062-1.382-.38-1.977a.33.33 0 01-.071-.234 79.171 79.171 0 01-1.495-.327zm-8.166-3.373c6.89 2.574 14.175 3.82 21.812 4.194-.272-.719-.267-1.439-.217-2.193.063-.945-.02-2.013.18-2.979-.036 0-.071 0-.11-.004-6.432-.712-12.793-2.357-18.57-4.556-5.392-2.053-10.653-4.664-14.798-7.934-.762.69-1.937 1.208-2.895 1.742-.846.471-1.843 1.273-2.958 1.326 1.343.958 2.51 2.051 3.823 3.032a49.632 49.632 0 004.126 2.765 57.907 57.907 0 009.607 4.607z"/><path fill="#d4d5c9" d="M226.972 31.825c.59.463.865 1.25-.05 1.597-.986.374-2.25-.182-3.046-.599-.653-.342-2.12-1.169-1.494-1.827.052-.054.173-.084.267-.074.009-.156.148-.3.42-.308 1.378-.038 2.955.47 3.903 1.211zm-.736.984c.702-.375-.967-1.008-1.243-1.107-.63-.226-1.28-.295-1.954-.4a.73.73 0 01-.09-.02c.186.32 2.675 1.855 3.287 1.527zm-21.36 9.671c.25 1.11-.787 2.065-2.389 2.01-2.997-.102-4.876-4.312-2.099-4.881.106-.121.306-.187.538-.094.026.01.053.02.08.032.031-.001.061-.004.094-.004.141.002.241.073.27.153 1.52.63 3.217 1.49 3.506 2.784zm-1.098.659c.238-.523-.238-1.245-.78-1.65-.573-.427-1.298-.715-1.949-1.07.532.763 2.321 2.318 2.73 2.72zm-3.54-2.62c-.877 1.257.821 3.68 2.811 3.136l.021-.008a.485.485 0 01-.062-.05c-.85-.827-1.638-1.708-2.402-2.577-.14-.16-.278-.33-.369-.5zm7.208 5.6c1.23.469 1.609 1.809.892 2.647-.933 1.091-3.415 1.225-4.962.778-1.545-.446-2.652-1.792-1.733-2.904.992-1.201 3.96-.865 5.572-.687.145.017.216.087.23.166zm-3.51.409c-1.134.103-1.708.724-1.468 1.338.593-.439 1.865-.457 2.666-.569.604-.084 1.21-.16 1.817-.231.114-.013.22-.028.324-.038-.267-.218-.635-.351-.978-.517a.393.393 0 01-.111-.077c-.751.029-1.506.027-2.25.094zm2.92 2.171c.402-.172.679-.46.76-.78a.604.604 0 01-.162-.061l-.06.002-.33.036-.828.089c-.441.047-.883.089-1.325.132-.664.064-1.544.257-2.216.092.13.137.302.27.53.389.945.497 2.642.525 3.632.101zm14.954.679c.763 1.3-.544 2.493-2.058 3.073-1.245.478-3.596 1.083-4.524-.122-.858-1.116.78-2.319 1.972-2.846.94-.415 3.165-1.107 4.108-.346.217-.003.41.086.503.241zm-1.395.03c-1.567-.084-4.051 1.174-4.253 2.07a1.192 1.192 0 00-.02.123c.8-.259 1.615-.467 2.369-.804.682-.305 1.245-.743 1.906-1.058-.09-.093-.087-.23-.002-.332zm-.78 2.174c.617-.304 1.093-.698 1.25-1.174-1 .85-2.858 1.532-4.345 1.758.827.256 2.682-.38 3.096-.584zm-33.131 19.085c.06 1.238-1.006 2.74-3 2.61-2.291-.15-3.295-2.354-3.338-3.726-.041-1.332.838-2.607 2.55-3.048a.385.385 0 01.236-.056c.13-.027.265-.05.404-.066a.369.369 0 01.249.049.577.577 0 01.102.024c1.99.669 2.725 2.778 2.797 4.213zm-5.256-.868c.147.899.87 2.758 2.5 2.7-.665-1.692-.801-3.57-1.038-5.333-1.132.579-1.635 1.585-1.462 2.633zm3.36 2.494c1.147-.564.812-2.078.525-2.903-.316-.91-.761-1.683-1.78-2.281.619 1.672 1.278 3.489 1.256 5.184zm13.66-3.188c2.029.612 3.082 2.232 1.098 3.343-1.724.966-4.993.562-6.756-.237-1.796-.813-2.63-2.605-.87-3.686 1.84-1.13 4.602-.508 6.33.55.064.001.13.01.198.03zm-4.73-.403c-.685.137-1.165.415-1.426.756 1.225.245 2.427.551 3.653.798 1.16.235 2.365.38 3.498.68a.731.731 0 01.075.026c.018-.553-.726-.95-1.5-1.193-.236-.073-.316-.217-.291-.355-1.281-.429-2.576-.998-4.01-.712zm3.75 3.48c.646-.05 1.316-.214 1.716-.586l-.022-.004c-2.317-.163-5.017-.973-7.035-1.83-.192.524.066 1.131.834 1.6 1.095.667 3.115.926 4.507.82zm966.48 26.038c.45.723-.276 1.31-.797 1.862-1.008 1.067-2.017 2.136-3.04 3.196-.525.543-.969 1.367-1.803 1.694.03.116.007.24-.102.355-4.745 5.018-9.752 10.083-16.893 13.568-5.687 2.774-12.309 4.092-19.445 3.974-7.6-.126-15.42-1.39-22.726-3.113-13.684-3.228-28.257-9.89-32.969-20.012-.308-.068-.535-.345-.299-.584 1.178-1.191 2.524-2.288 3.937-3.343.316-.236.772-.15 1.028.047a.7.7 0 01.591.083c5.448 3.469 11.883 5.957 18.811 7.473 12.272 2.685 25.027 2.318 37.34 1.378 6.182-.472 12.428-.92 18.543-1.628 2.815-.325 5.63-.866 7.868-2.086 2.08-1.131 3.588-2.674 5.011-4.215.1-.52.622-.912 1.543-.623a.659.659 0 01.533.016c1.008.443 2.376 1.166 2.87 1.959zm-3.407-1.227l-.344.374c.066.097.132.178.175.22.19.18.413.345.66.488.477.275 1 .42 1.562.526-.023-.208-.217-.402-.629-.696-.453-.321-.95-.605-1.424-.912zm-90.758.292c-.72.55-1.443 1.1-2.168 1.649.063-.014.128-.024.19-.043a3.393 3.393 0 001.193-.641c.355-.291.577-.626.785-.965zm92.353 2.174l.072-.091c-1.059-.178-2.053-.645-2.685-1.281-1.479 1.554-3.11 3.048-5.334 4.107-2.458 1.17-5.433 1.663-8.392 1.982-6.613.714-13.326 1.245-20.004 1.719-6.544.464-13.157.736-19.798.44-12.29-.543-25.392-3.155-34.748-9.417-.41 1.243-2.008 2.803-3.934 2.802 3.135 4.969 7.852 9.229 14.08 12.586 6.428 3.466 13.966 5.769 21.62 7.313 6.961 1.404 14.35 2.498 21.491 2.275 15.594-.486 24.878-9.003 32.646-17.215a.556.556 0 01.312-.167c.08-.281.358-.485.688-.837a328.65 328.65 0 011.914-2.025c.685-.721 1.473-1.431 2.072-2.191z"/><path fill="#d4d5c9" d="M1144.509 106.808c-16.818 8.396-39.938 9.28-59.021 1.621-5.758-2.31-10.634-5.327-15.275-8.638-.272-.195-.72.08-.483.296 7.052 6.452 18.22 10.973 29.125 13.09 10.352 2.007 21.246 1.83 31.145-.339 5.47-1.198 10.62-2.998 15.188-5.345.58-.299-.088-.98-.68-.685zm-11.504-35.566c6.631 5.553 8.132 13.76 1.891 19.247-3.099 2.725-7.33 5.29-12.25 6.282-4.61.929-9.69.564-14.174-.954-.002.565-.402 1.153-.367 1.74.023.38.21 1.57.782 2.039a.51.51 0 01.162.105c.08.04.164.072.256.084.334.042.323.339.067.419a1.537 1.537 0 01-.489.068.79.79 0 01-.379.053c-4.4-.384-9.512-3.95-7.056-7.087-10.142-2.413-16.579-10.695-14.976-17.702 1.551-6.776 9.21-11.71 18.981-12.384 9.964-.687 20.9 2.519 27.552 8.09zm-2.056 20.817c1.987-1.333 3.852-2.78 5.022-4.553 3.998-6.054.36-13.395-6.886-17.921-7.194-4.493-17.724-6.802-26.779-5.22-8.886 1.555-15.067 7.3-14.918 13.803.15 6.526 6.61 11.833 14.775 14.779.154.055.2.172.168.27a.223.223 0 01.004.12c-.315 1.326-.336 2.597.828 3.814 1.064 1.114 2.622 1.786 4.351 2.172-.754-1.288-.757-3.48.242-3.982a.467.467 0 01.125-.04c.037-.273.418-.52.891-.356 4.875 1.676 10.584 1.91 15.366.457 2.58-.783 4.81-2 6.811-3.343z"/><path fill="#d4d5c9" d="M1127.4 80.481c.95 2.624-.827 4.964-4.02 6.17-1.886.711-3.996 1.085-6.084 1.452-2.681.472-5.362.939-8.044 1.409a.939.939 0 01-.55-.061.401.401 0 01-.441.08c-3.623-1.629-6.324-4.562-7.94-7.273-1.525-2.563-2.14-5.538-.087-7.895 1.757-2.021 5.546-3.267 8.676-1.508 2.309 1.297 3.572 3.499 3.573 5.544 1.48-1.564 4.087-2.542 6.949-2.424 3.66.152 7.05 1.969 7.969 4.506zm-7.725 6.173c3.163-.674 6.387-1.897 6.668-4.468.276-2.532-2.42-4.812-6.02-5.278-3.795-.491-6.863 1.215-8.17 3.51-.117.208-.51.178-.69.031-.324-.023-.62-.199-.541-.496.584-2.216-.011-4.868-2.832-6.436-3.483-1.935-7.032.875-7.687 3.059-.706 2.352.58 4.893 2.22 7.028 1.537 1.997 3.635 3.578 5.72 5.281.042-.128.17-.238.418-.281 3.634-.64 7.339-1.188 10.914-1.95z"/><g opacity=".63" fill="#d4d5c9"><path d="M944.096 74.153c7.803 1.299 12.801 6.714 11.357 12.409-1.625 6.409-10.038 10.006-18.225 11.888a.294.294 0 01-.208-.024c-.476.08-.963.134-1.459.156-2.624.116-5.118-.623-7.048-1.736-2.51-1.447-3.979-3.581-4.982-5.741-.994-2.143-1.737-4.416-1.852-6.714-.184-3.682 2.118-8.471 7.742-9.775a.402.402 0 01.206-.135c2.248-.76 4.747-.697 7.123-.731 2.473-.034 4.967.007 7.346.403zm-14.02 22.632c2.073.96 4.708 1.429 7.257.888 2.52-.535 4.519-1.961 5.752-3.57 2.828-3.688 1.214-7.86-.829-11.297-2.107-3.546-5.365-7.446-11.562-7.523-.385.039-.8.014-1.178.052-.284.029-.635.123-.943.126-5.039 2.315-6.495 6.619-5.727 10.583.747 3.854 2.465 8.534 7.23 10.74zm19.506-3.806c5.845-3.937 6.93-10.305 2.306-14.56-2.315-2.13-5.729-3.453-9.564-3.857-1.975-.21-4.007-.208-6.022-.176-1.502.024-3.074-.001-4.574.23 6.876.329 10.428 5.619 12.416 9.63 1.863 3.76 2.415 8.247-1.679 11.704-.271.228-.558.443-.858.648 2.858-.97 5.636-2.044 7.975-3.62z" opacity=".63"/><path d="M935.438 89.038c-.37-.26-.965.143-.626.422 1.325 1.088 2.551 2.211 3.524 3.482.455.592 1.172 1.401.828 2.135-.363.77-1.775 1.211-2.78 1.388-1.398.246-2.832.137-3.228-.955-.238-.652-.14-1.37-.066-2.047.15-1.389.463-2.793.943-4.159.07-.2-.324-.279-.43-.08-1.303 2.472-3.685 9.03 2.959 7.871 2.196-.384 4.15-1.556 3.432-3.207-.783-1.796-2.711-3.557-4.555-4.85zm-3.244.08c-.624 1.048-1.19 2.109-1.814 3.157-.163.273-.328.546-.499.816-.23.36-.669.912-1.384.872-.658-.036-1.282-1.008-1.562-1.348-.534-.648-2.242-2.792-1.044-3.478.657-.376 2.013-.37 2.78-.383.787-.015 1.57.026 2.347.064.542.027.596-.57.058-.595-1.2-.06-2.413-.115-3.627.012-.815.086-2.07.243-2.61.778-.543.538-.125 1.329.082 1.862a7.822 7.822 0 001.52 2.426c.704.775 2.238 2.076 3.59.91.683-.59 1.047-1.5 1.425-2.188.51-.926.921-1.854 1.201-2.818.063-.216-.337-.3-.463-.087zm-4.462-6.831c-1.14-.482-4.023-1.687-4.627-.01-.252.7.161 1.554.331 2.22.198.774.475 1.498 1.287 2.047 1.63 1.102 4.271 1.147 6.477.826.242-.035.19-.268-.026-.28-1.8-.117-3.637.012-5.208-.676-1.603-.7-1.81-2.262-2.019-3.51-.158-.273-.034-.479.374-.618.178-.275.413-.348.706-.217.406-.01.905.24 1.27.364.853.29 1.66.65 2.384 1.07 1.303.755 2.323 1.691 3.103 2.747.24.324.975.034.744-.294-1.075-1.52-2.728-2.794-4.796-3.669zm4.898-5.519c-1.227-.12-2.671-.21-3.925-.07-2.661.295-1.745 2.583-.895 3.637.668.827 1.522 1.585 2.312 2.352.902.874 1.78 1.987 2.977 2.674.07.04.17.063.26.024l.073-.032c.053-.024.092-.07.077-.113l-.018-.055c-.008-.024-.034-.04-.065-.045a18.148 18.148 0 00-.454-.558c-.296-.345-.617-.678-.937-1.012a114.4 114.4 0 00-1.956-1.99c-.692-.692-4.184-4.137-.986-4.28a25.355 25.355 0 013.098.074c.73.058 1.46.14 1.856.628.33.407.286.94.248 1.405-.136 1.659-.555 3.32-.613 4.979-.015.405.795.395.883 0 .263-1.195.348-2.41.492-3.608.11-.915.427-2.006-.048-2.87-.405-.736-1.3-1.035-2.38-1.14zm6.603 3.106c-.879-.674-2.589-1.406-3.26-.038-.325.66-.058 1.436-.22 2.12-.206.853-.746 1.696-.777 2.558-.005.122.23.177.328.062.652-.754.988-1.704 1.226-2.548a4.08 4.08 0 00.158-1.244c-.005-.206-.106-.609.053-.802.597-.723 1.408-.055 1.764.204.92.67 1.79 1.728 2.075 2.662.225.736-.137 1.093-1.188 1.38-.83.228-1.71.37-2.55.58-.523.13-.383.694.164.583 1.46-.298 4.226-.566 4.474-1.913.232-1.257-1.143-2.757-2.247-3.604z" opacity=".63"/><path d="M942.207 85.96c.54.525.61 1.318.75 1.948.156.697.41 1.46.265 2.182-.258 1.281-1.92 1.535-3.313 1.02-1.893-.7-3.522-1.908-4.73-3.122a.119.119 0 01-.032-.054c-.007.002-.012.006-.018.008a.9.9 0 01-.511.021c-.345.048-.675.235-.721.486-.042.223-.526.36-.663.124-.18-.305-.527-.46-1.006-.455-.375.003-.408-.309-.17-.443-.013-.055.014-.113.109-.14.559-.16.788-.683.359-.97-.2-.133-.008-.38.257-.382.43-.002.749-.214.809-.513.058-.29.67-.297.65.001-.001.016-.005.032-.008.048.072.34.343.621.879.648.279.014.505.288.22.44-.231.124-.51.268-.467.49.033.171.193.204.35.32.046.033.069.08.072.127.106-.044.242-.052.332.014 1.058.78 2.156 1.515 3.39 2.16.526.274 1.137.656 1.799.767 1.627.273 1.604-.753 1.526-1.44a12.902 12.902 0 00-.302-1.626c-.101-.415-.15-1.107-.62-1.397-.594-.368-1.992.072-2.7.19-.83.14-1.661.276-2.493.413-.563.094-.734-.512-.17-.603 1.458-.236 2.962-.568 4.437-.7.72-.066 1.297.025 1.72.437zm-8.116 1.505c-.072-.29.093-.542.352-.754-.241-.118-.423-.28-.526-.469a1.641 1.641 0 01-.648.324c.174.378-.032.833-.512 1.08.303.05.572.162.78.32.183-.142.418-.239.672-.266a.635.635 0 01-.118-.235z" opacity=".63"/></g><path fill="#d4d5c9" d="M681.46 104.803c-.028 3.04-3.071 5.393-6.263 7.04-3.558 1.835-7.787 3.018-11.921 3.988-1.576.37-3.34.62-4.911.051-1.265-.458-2.173-1.324-2.498-2.31-3.468.714-7.221-1.196-8.507-3.53-.772-1.402-1.035-2.992-1.254-4.477-.225-1.515-.265-3.055.056-4.559.61-2.85 2.497-5.663 5.659-7.426 2.887-1.609 6.722-2.022 10.16-1.062 3.06.854 5.322 2.76 6.278 5.003.649-1.438 1.905-2.882 3.488-4.07a.15.15 0 01-.01-.046c-2.316-.36-4.284-1.598-5.107-3.246a4.038 4.038 0 01-.372-2.52c.106-.616.405-1.757 1.133-2.15.773-.419 2.302.654 2.894.977 1.152.628 2.21 1.377 2.908 2.304.837 1.112 1.017 2.367.46 3.468a13.35 13.35 0 013.447-1.29c.395-.087.733.334.346.495-1.945.804-3.776 1.521-5.367 2.7-1.567 1.16-2.608 2.511-3.605 3.956.035.11.067.218.097.328 2.485-.803 5.73-.636 8.023.245 3.05 1.172 4.89 3.654 4.866 6.131zm-11.13-17.499c-.542-.329-1.175-.715-1.831-1.002.522.926.899 1.906 1.496 2.814.743 1.131 1.64 2.195 2.65 3.208.668-1.03.578-2.219-.255-3.294-.521-.67-1.25-1.236-2.06-1.726zm-2.84 2.754c.755 1.47 2.498 2.53 4.492 3.026.1-.089.194-.18.282-.274a.388.388 0 01-.165-.095 19.099 19.099 0 01-2.72-3.307c-.644-1.003-1.372-2.176-1.563-3.302-.514.423-.667 1.408-.72 1.866-.081.7.055 1.424.394 2.086zm8.352 20.606c2.75-1.625 5.09-3.827 4.718-6.567-.313-2.307-2.34-4.414-5.366-5.212-3.084-.812-5.93-.144-8.554 1.043-.242.11-.528-.114-.342-.278a5.92 5.92 0 011.599-.974.324.324 0 01-.168-.2c-.738-2.828-3.756-5.148-7.64-5.71-7.692-1.114-12.696 4.467-13.215 9.406-.14 1.332-.011 2.678.23 4.004.238 1.302.488 2.67 1.233 3.882 1.35 2.196 4.37 3.076 7.437 3.142-.008-.049-.018-.098-.023-.147-.045-.396.766-.437.835-.045.28 1.583 2.099 2.656 4.257 2.546 1.802-.093 3.61-.703 5.278-1.156 3.442-.933 6.854-2.04 9.72-3.734z" opacity=".65"/><g opacity=".53" fill="#d4d5c9"><path d="M270.052 110.66c1.416 2.514 1 5.164-1.288 7.024-2.464 2.004-6.27 2.498-9.745 2.282-3.59-.222-7.092-1.2-10.463-2.327-3.408-1.139-6.953-2.284-10.067-3.953-2.917-1.564-5.593-3.789-6.56-6.567-.717-2.054-.42-4.413 1.263-5.949a.188.188 0 01.05-.16 8.71 8.71 0 01.442-.46c.124-.187.278-.363.467-.523a.186.186 0 01.171-.038c2.036-1.642 4.822-2.506 7.784-2.699 3.834-.249 7.695.732 11.231 2.1 3.362 1.3 6.67 2.903 9.664 4.742 2.82 1.73 5.565 3.885 7.051 6.527zm-3.117-2.696c-.38-.364-.778-.714-1.19-1.053.154.235.295.476.431.723.25.453.477.915.792 1.344.386.526.833.804 1.406 1.18.364.24.694.534.982.863-.588-1.102-1.47-2.147-2.42-3.057zm-17.387-9.134c-2.337-.625-4.85-.957-7.25-.844 2.051 1.29 4.758.77 7.25.844zm11.607 20.5c3.085-.1 6.305-.979 7.968-3.104-.613.37-1.388.58-2.198.626-2.03.117-3.94-.806-5.786-1.458-1.008-.357-2.083-.68-3.17-.696-1.133-.016-2.12.373-3.193.558-1.509.261-3.115.101-4.584-.408-1.409-.488-2.678-1.29-3.57-2.324-1.03-1.194-1.429-2.622-2.229-3.902-.935-1.499-2.347-2.186-4.309-2.407-1.45-.162-2.99-.182-4.332-.792-1.42-.645-2.407-2.066-2.463-3.399-1.307 2.017-1.15 4.536.313 6.687 1.9 2.794 5.286 4.607 8.698 5.968a100.918 100.918 0 009.296 3.213c3.096.896 6.33 1.544 9.56 1.438zm8.44-4.576c.052-.118.173-.173.298-.18.262-.979-.125-1.957-.733-2.857-.303-.45-.635-.848-1.136-1.169-.342-.218-.68-.4-.974-.666-1.252-1.134-1.466-2.722-2.555-3.93-1.598-1.152-3.357-2.158-5.152-3.079-2.38-1.223-4.846-2.388-7.42-3.296-1.06-.098-2.082-.189-3.146-.182-.97.005-1.94.048-2.914-.007-1.37-.078-3.198-.367-4.102-1.368-2.942.224-5.673 1.146-7.637 3.054-.254.96-.105 1.956.656 2.862 1.057 1.26 2.837 1.452 4.503 1.603 1.276.115 2.616.24 3.744.843 1.081.58 1.76 1.486 2.277 2.422.63 1.14 1.046 2.385 1.956 3.418.942 1.073 2.341 1.868 3.856 2.261 1.77.46 3.257.211 4.933-.17 1.544-.354 3.02-.226 4.567.256 1.622.506 3.15 1.286 4.848 1.58 1.61.276 3.53-.066 4.13-1.395z" opacity=".53"/><path d="M259.147 106.34c.453.757.235 1.56-.552 2.02-1.992 1.169-5.137.07-7.138-.781-1.128-.48-2.43-1.025-3.115-1.956-.468-.637-.622-1.447-.147-2.035-.017-.097.027-.196.165-.258 2.55-1.14 5.602-.232 8.011 1.016.998.518 2.237 1.094 2.775 1.994zm-1.356 1.664c2.656-1.004-1.532-3.052-2.733-3.593-2.001-.902-4.262-1.338-6.302-.56a.423.423 0 01-.136.028c-.37 1.66 1.808 2.613 3.464 3.29 1.628.664 3.989 1.485 5.707.835zm-16.295-8.235c.24.252.59.732.24.99-.29.215-.77.056-1.03-.155-.395-.32-.553-.745-.576-1.17h-.004c-.29-.074-.187-.435.104-.364.497.123.94.359 1.266.699zm-.09.632c.006-.184-.351-.495-.503-.608a2.031 2.031 0 00-.487-.265c.067.186.172.367.304.53.05.062.678.64.687.343zm-2.24-.945c.06.027.11.073.123.14.066.359.136.78-.178 1.062a.974.974 0 01-.947.17c-.4-.152-.49-.538-.304-.822.245-.378.785-.413 1.124-.702.094-.08.282.032.204.128-.005.008-.014.015-.022.024zm-.355.837c.104-.175.095-.388.07-.588a6.227 6.227 0 01-.24.158c-.146.09-.6.412-.33.59.177.117.427-.037.5-.16zm29.371 13.328c.262.135.057.43-.214.322l-.039-.015c-.294.166-.587.313-.984.323-.376.01-.893-.129-.954-.49-.057-.337.323-.558.694-.56.5-.005 1.07.201 1.497.42zm-1.472.213c.195.12.576.064.904-.022a4.355 4.355 0 00-.398-.119c-.127-.03-.27-.065-.4-.072-.19-.012-.275.11-.106.213zm1.4-2.646c.258.39.625.967.491 1.403-.022.07-.086.1-.153.098-.035.059-.139.093-.228.035-.37-.241-.787-.528-.824-.935-.029-.314.148-.566.494-.677.073-.024.184.02.22.076zm-.23.305c-.28.219.02.605.303.873-.03-.128-.045-.26-.086-.387a2.474 2.474 0 00-.217-.486zm-1.64.001c.375.107.624.411.72.711.057.181-.2.267-.339.175-.277.1-.6.177-.909.092-.347-.095-.518-.413-.375-.67.151-.272.54-.412.902-.308zm-.482.48c-.132.308.492.233.736.186a.607.607 0 00-.325-.308c-.158-.059-.352-.015-.41.122zm-4.113-6.477c.075.19.193.401.189.6-.006.3-.344.452-.687.392-1.006-.175-.597-1.385-.33-1.846.047-.08.165-.056.216.005a.226.226 0 01.282.1c.134.243.23.497.33.75zm-.38.311c-.025-.107-.081-.222-.12-.326a7.391 7.391 0 01-.146-.434 3.792 3.792 0 00-.031.353c-.006.172-.05.476.114.621.262.233.206-.115.183-.214zm2.22.544c.153.287.282.735-.155.877-.364.119-.793-.146-.98-.402-.269-.365-.292-.817-.194-1.206-.153-.135 0-.347.23-.256.494.197.882.58 1.1.986zm-.365.49c.21-.114-.14-.547-.272-.693a2.259 2.259 0 00-.446-.365c.068.415.305 1.285.718 1.058zm-11.429 6.026a.8.8 0 01.09.531c-.065.307-.37.555-.784.45-.426-.11-.6-.514-.62-.836-.029-.433.15-.824.473-1.143.088-.086.243.03.192.12l-.023.046c.076-.075.235-.07.282.047.11.273.253.52.39.785zm-.449.577c.273-.107-.076-.63-.142-.752-.098-.18-.184-.363-.134-.547a1.556 1.556 0 00-.149.67c.002.124.066.771.425.63zm2.988-.715c.3.132.562.417.43.69-.163.334-.7.306-1.068.22a2.126 2.126 0 01-1.129-.678c-.079-.089.032-.188.138-.179a.23.23 0 01.114-.024c.51.018 1.011-.255 1.515-.03zm.047.511c.012-.088-.16-.187-.24-.22-.16-.065-.316-.042-.478-.019-.176.025-.343.06-.514.08.098.056.202.108.315.15.155.057.883.27.917.01zm-4.867-1.483c.193.277.257.71-.16.838-.442.136-.962-.198-1.19-.498-.286-.377-.352-.812-.355-1.233-.001-.09.168-.11.198-.016.009.028.019.057.027.087a.269.269 0 01.15-.003c.537.128 1.049.415 1.33.825zm-.32.348c.01-.123-.168-.289-.26-.373a1.916 1.916 0 00-.766-.402c.11.287.264.573.525.756.13.093.484.251.502.02z" opacity=".53"/></g><g opacity=".83" fill="#d4d5c9"><path d="M1041.525 45.1c.255.529-.488.88-1.058 1.009-.647.146-1.68.127-2.536-.23-.35-.144-.518-.291-.572-.43a.727.727 0 01-.054-.056 131.582 131.582 0 00-4.155-4.933c-.808-.911-1.782-2.084-3.462-2.124-1.196-.03-1.88.538-2.53.975-1.286.863-2.566 1.729-3.848 2.594.656.48 1.17.984 1.559 1.54.38.547.825 1.277.404 1.648.318.107.422.429.069.44l-.253.004c-4.47 3.339-9.277 6.474-13.902 9.718-4.74 3.324-9.364 6.716-14.036 10.08-.165.12-.486.046-.704-.083-2.597.565-7.172-1.831-9.722-3.22-2.124-1.158-4.135-2.458-5.893-3.843-.851-.67-3.072-2.32-2.522-2.96-.14-.088-.23-.2-.174-.291 2.64-4.425 5.614-8.714 8.607-12.98 1.528-2.177 3.1-4.334 4.703-6.477 1.573-2.104 3.064-4.264 4.924-6.225.066-.07.203-.044.308.016.537-.738 2.693-.312 4.094.01 1.974.455 3.93 1.205 5.805 2.042 2.149.959 4.226 2.034 6.289 3.103 2.183 1.13 4.305 2.308 6.245 3.634.214-.161.427-.322.64-.485 2.082-1.59 4.193-3.307 7.085-4.352 2.449-.884 6.024 1.257 7.93 3.1 1.363 1.316 2.306 2.72 3.334 4.074 1.106 1.457 2.204 2.915 3.305 4.372.073.097.074.174.033.23a.31.31 0 01.087.1zm-8.85-9.804a12.088 12.088 0 00-1.605-.958c.385.777.676 1.536.873 2.28.176-.423.379-.836.614-1.236a.203.203 0 01.118-.086zm-2.664-1.412c-.771-.27-1.414-.314-1.974-.232a22.124 22.124 0 011.922 2.504l-.088-.615c-.085-.592-.292-1.246.14-1.657zm-2.867.009c-.45.178-.85.41-1.241.618l2.433 2.116c-.476-.92-.902-1.833-1.192-2.734zm-30.045-4.221c-.033.045-.102.052-.178.04 2.062 3.776 5.26 7.443 10.67 10.469a37.522 37.522 0 005.612 2.548c1.672-1.526 3.585-2.926 5.465-4.335-.014-.008-.03-.016-.043-.026-3.203-2.167-6.984-4.06-10.641-5.822-1.66-.8-3.368-1.553-5.132-2.14-1.444-.481-5.113-1.574-5.753-.734zm-.546 35.004c4.51-3.394 9.195-6.687 13.902-9.96 1.33-.926 2.657-1.853 3.992-2.776-2.061-.312-6.187-2.17-7.046-2.595-1.922-.953-3.74-2.016-5.537-3.085-1.866-1.11-3.752-2.226-5.453-3.443-2.202-1.574-4.898-3.96-5.114-5.79a363.305 363.305 0 00-3.72 5.232c-2.998 4.292-5.762 8.687-8.61 13.048-.037.057-.114.079-.206.075.389.305.568.66.9.997.607.616 1.38 1.21 2.132 1.78a43.431 43.431 0 004.786 3.135c2.663 1.507 6.994 3.862 9.78 3.372a.474.474 0 01.194.01zm-4.341-27.44c.416.883.865 1.727 1.723 2.65 1.158 1.247 2.69 2.397 4.32 3.472 2.96 1.949 6.24 3.919 9.562 5.569 1.694.842 3.482 1.593 5.31 2.113.216.06.708.239.918.24.19.002.514-.117.435-.325-.088-.232-.685-.676-.914-.881a30.63 30.63 0 00-1.797-1.484c-5.701-4.368-13.175-7.465-19.557-11.354zm23.297 13.97c2.832-1.945 5.714-3.86 8.754-5.668-5.428-.102-12.043-2.125-17.218-5.057-4.971-2.816-9.442-6.908-10.56-10.5-1.327 2.013-2.9 3.916-4.335 5.876l-.37.509c.018.014.032.03.045.048a.787.787 0 01.337.12c4.555 2.79 9.563 5.158 14.218 7.86 1.875 1.088 3.697 2.232 5.359 3.454a33.45 33.45 0 012.435 1.963c.484.432 1.095.926 1.335 1.395zm8.599-7.764a8.217 8.217 0 00-1.16-1.292c-1.132.765-2.226 1.589-3.497 2.269 1.733.323 3.455.526 5.132.615-.057-.042-.102-.092-.102-.131-.001-.24.176-.352.082-.631-.091-.27-.264-.556-.455-.83zm1.856-4.324c.582-.393 1.13-.85 1.894-1.122-1.085-1.014-1.966-2.071-2.616-3.13-4.308 2.355-7.354 5.538-11.315 8.116a40.08 40.08 0 004.655 1.265c1.366-1.255 3.18-2.29 4.803-3.386l2.579-1.743zm2.295-1.24c.186-.043.374-.073.567-.09l-2.075-1.801c.44.63.942 1.259 1.508 1.89zm1.51-.068c.128.015.254.036.38.062a17.94 17.94 0 00-1.726-2.752c.377.89.856 1.789 1.347 2.69zm1.328.349c.097.039.19.08.286.125-.033-1.043-.293-2.134-.774-3.252.02.399.158.845.21 1.209l.278 1.918zm6.888 6.588c.613-.26 1.505-.381 2.467-.171-1.8-2.405-3.456-4.872-5.527-7.25a12.798 12.798 0 00-1.548-1.495 13.417 13.417 0 00-1.131 2.85.116.116 0 01-.044.066c.296.203.577.433.836.69 1.763 1.76 3.239 3.63 4.683 5.443.088-.052.18-.097.264-.133zm2.157.745c.313-.107.422-.321.62-.483-.1.003-.233-.01-.323-.007a7.86 7.86 0 00-.954.06 3.245 3.245 0 00-.804.214c-.107.046-.222.16-.345.193l-.043.01a.256.256 0 01.078.004c.687.147 1.282.177 1.77.009z" opacity=".83"/><path d="M992.541 42.487c-.006-.182-.457-.331-.575-.209a.354.354 0 01-.344.113c-.161-.031-.313-.151-.347-.248-.088-.262.509-.281.803-.275.191.004.139-.209-.085-.24-.415-.058-.848-.093-1.128.033-.263.119-.305.379-.073.647.5.577 1.765.741 1.749.179zm1.845.474c-.202-.366-.716-.798-1.325-.907-.202-.036-.301.128-.073.234.362.168.64.364.76.618.053.11.074.218.033.305-.045.096-.188.14-.197.25-.01.101.116.262.329.293.657.097.662-.45.473-.793zm-1.195 1.134c.032-.122-.248-.272-.396-.212-.117.046-.238.089-.354.136-.065.026-.17.075-.276.05-.16-.037-.2-.176-.187-.243.027-.14.24-.208.4-.271.152-.061-.097-.297-.279-.252-.29.071-.599.154-.666.373-.059.196.092.464.437.648.661.352 1.235.093 1.321-.229zm2.181 18.996c-.02-.146-.34-.25-.442-.161-.18.155-.23.42-.567.472-.125.019-.328.014-.462-.087-.116-.089-.12-.208.008-.222.221-.024.031-.286-.212-.294-.696-.022-.476.626.195.891.96.379 1.546-.103 1.48-.599zm-2.046-1.481c-.704-.164-1.01.334-.323.704.185.1.382-.014.2-.131-.304-.197-.023-.351.29-.198.38.187.24.41.251.594.007.124.28.229.405.18.545-.205-.064-.973-.823-1.15zm3.767.53c-.09-.158-.45-.274-.551-.157-.16.186-.303.517-.873.263-.388-.172-.38-.505.034-.437.256.042.31-.188.017-.28-.416-.131-.774-.074-.925.112-.173.213-.015.53.372.79.407.272.947.42 1.365.376.43-.046.755-.32.56-.666z" opacity=".83"/></g><path fill="#d4d5c9" d="M1150.473 27.508c.36 1.828.278 3.742-.971 5.42-2.696 3.618-9.765 4.594-15.115 5.135-7.225.73-14.604.563-21.871.257-6.795-.286-13.775-.634-20.42-1.689-5.557-.883-11.08-2.536-14.565-5.72-2.464-2.252-3.801-5.096-2.901-7.784a.356.356 0 01-.043-.13c-.465-4.488 5.469-7.583 11.307-8.582 3.712-.636 7.608-.712 11.416-.8 4.192-.097 8.39-.07 12.556.292 7.11.618 14.248 1.663 21.214 2.798 3.51.571 7.01 1.218 10.413 2.041 2.497.604 4.985 1.395 6.465 2.957 1.57 1.655 2.136 3.885 2.515 5.805zm-13.13-8.78c-2.973-.617-6.05-1.084-9.075-1.515.733.364 1.444.784 2.239 1.101 1.969.785 4.477.58 6.836.413zm-51.08-3.408c-.433.074-.866.16-1.296.258.856.088 1.696.294 2.583.444 2.597.441 4.664-.019 7.007-.759a25.832 25.832 0 012.792-.707c-.63.014-1.258.031-1.886.05-3.084.091-6.195.202-9.2.714zm-10.142 5.911c.152.053.256.161.187.29-.177.33-.317.662-.428.997.46 1.606 2.637 2.733 5.275 3.036 3.388.388 6.817-.29 10.218-.033 5.575.423 9.075 3.505 13.393 5.547 2.59 1.224 5.6 2.112 8.794 1.563 2.917-.5 5.302-1.819 7.954-2.715 2.226-.75 4.737-1.31 7.238-.943 2.753.405 4.659 2.286 7.499 2.428 2.875.144 3.219-2.304 5.417-3.07 1.01-.354 2.15-.398 3.265-.378.38.006 4.016.207 3.968-.114-.021-.138.062-.243.19-.314-.203-.998-.55-1.987-.927-2.948-.814-2.076-2.266-3.514-5.195-4.424a53.687 53.687 0 00-3.303-.905c-2.482.223-5.522.54-7.964.126-2.735-.463-4.162-2.494-7.07-2.64a.242.242 0 01-.141-.052c-6.123-.869-12.33-1.82-18.585-2.085-2.027.181-4.075.122-6.103.357-2.24.26-4.13.864-6.196 1.466-1.633.475-3.365.68-5.132.494-1.72-.182-3.235-.954-4.976-.953-3.452 1.023-6.482 2.824-7.378 5.27zm73.098 8.934c.064-.462.075-.926.046-1.39-1.642.447-5.013.018-6.013.157-3.063.424-3.023 3.35-6.551 3.416-3.218.06-5.152-1.932-8.064-2.443-3.64-.638-7.098 1.053-10.073 2.22-2.631 1.032-5.434 1.863-8.538 1.54-3.03-.317-5.647-1.539-7.968-2.826-2.525-1.399-4.901-3.034-7.967-3.887-3.515-.978-7.2-.318-10.853-.352-2.68-.026-5.601-.443-7.332-1.95a4.242 4.242 0 01-.32-.309c-.005 2.89 2.115 5.736 5.294 7.69 4.696 2.887 11.347 3.837 17.437 4.408 6.399.601 12.86.951 19.314 1.112 6.438.16 12.96.148 19.293-.746 5.493-.776 11.688-2.273 12.295-6.64z"/><path fill="#d4d5c9" d="M1121.886 20.47c.676 1.036.141 2.118-1.18 2.765-3.465 1.695-9.343.554-12.759-.63-1.327-.46-2.796-1.268-2.718-2.387.043-.615.45-1.026 1.044-1.274-.396-2.076 9.305-.984 10.69-.714 1.907.372 4.063.92 4.923 2.24zm-2.946 2.349c1.71-.441 2.56-1.583 1.017-2.604-1.005-.666-2.6-.952-3.917-1.181a28.08 28.08 0 00-4.364-.41c-.55-.008-2.374-.092-3.402.1-.007.035-.043.067-.108.07-.097.005-.184.018-.272.029-.198.072-.324.165-.343.286-.05.346-.558.483-.908.34-.41.617-.029 1.503.857 1.954.984.5 2.206.772 3.365 1.028 2.455.543 5.556 1.038 8.075.388zm27.307 3.187c.161.024.224.153.177.258.07.262-.474.454-.709.207-.762.103-1.55.126-2.217-.199-.573-.28-.894-.779-.569-1.235.315-.439 1.083-.684 1.736-.418.68.277 1.196.891 1.582 1.387zm-1.719.006c.267.052.548.06.83.05a6.511 6.511 0 00-.473-.467c-.239-.212-.878-.812-1.177-.295-.207.357.387.628.82.712zm.772-2.866c.123.034.17.168.029.22-.917.337-2.078.652-3.148.485-.754-.118-1.17-.58-.965-1.09.56-1.401 3.323-.571 4.046.276.03.035.039.072.038.109zm-3.297-.335c-.544.742 1.506.578 2.602.427-.327-.178-.598-.4-.971-.541-.47-.178-1.324-.305-1.631.114zm-32.731 6.126c.602.35.932 1.059.864 1.585-.02.162-.219.243-.402.226a.376.376 0 01-.149.034c-.85.01-1.837-.084-2.397-.568-.462-.4-.553-1.011.06-1.366.578-.336 1.48-.228 2.024.089zm-1.454.281c-.505.209-.105.697.256.858.377.169.841.219 1.287.269-.085-.28-.114-.566-.354-.821-.226-.241-.767-.481-1.189-.306zm6.926-.866c.968.09 1.614.709.99 1.313-.716.69-2.7 1.055-3.862.9-.03-.003-.056-.013-.082-.021a.457.457 0 01-.328-.214c-.195-.3.112-.642.35-.886.623-.637 1.75-1.204 2.932-1.092zm-.956 1.442c.418-.085 2.262-.581 1.036-.941-.534-.157-1.202.077-1.63.27-.245.112-.466.24-.666.387a3.948 3.948 0 00-.399.344.761.761 0 00-.142.162c.596-.093 1.208-.1 1.801-.222zm-32.33-8.162c.534.427 1.002 1.235.036 1.569-.863.298-1.933-.2-2.452-.65-.435-.375-.646-.801-.657-1.251-.152-.121-.134-.327.048-.432l.008-.042c.044-.164.38-.146.461-.018.975.025 1.92.315 2.556.824zm-.798 1.03c1.103.138.033-.758-.325-.93a3.58 3.58 0 00-1.302-.324c.233.566.815 1.153 1.627 1.255zm2.687-3.695c.346.514-.016 1.083-.721 1.35-.866.33-1.847.174-2.724-.052l-.023.023c-.29.307-1.017.02-.722-.287.672-.697 3.223-2.47 4.19-1.034zm-1.542 1.01c.482-.096 1.08-.41.786-.793-.424-.552-1.617.204-2.287.733.494.088 1.016.156 1.5.06zm4.313.893c.722.07 1.628.343 1.434.947-.17.525-1.101.7-1.79.68-.948-.026-1.798-.293-2.472-.725a.126.126 0 01-.01.003c-.458.134-.83-.267-.398-.461.924-.416 2.148-.551 3.236-.444zm.524.926c.2-.498-1.354-.401-1.682-.376-.38.029-.727.1-1.071.187a4.48 4.48 0 001.2.34c.278.04 1.437.135 1.553-.151zm16.605-6.071c.217.067.069.29-.145.261a.171.171 0 01-.022.078c-.251.453-.69.973-1.411 1.137-.587.133-1.341-.029-1.636-.412-.371-.48.244-.91.859-1.1.765-.237 1.604-.198 2.355.036zm-2.451.877c.635.491 1.302-.359 1.582-.685a3.429 3.429 0 00-.72.072c-.313.066-1.231.327-.862.613zm4.345-.875c.305.506.558 1.163.071 1.658-.307.31-.93.47-1.467.399-1.884-.253-.085-1.811.646-2.225a.303.303 0 01.261-.016c.187-.02.4.034.49.184zm-1.187 1.515c.962.067.661-.778.462-1.216-.432.419-1.083 1.173-.462 1.216z"/><g opacity=".63" fill="#d4d5c9"><path d="M874.447 76.257c2.852 5.662 1.402 13.094-6.249 16.085-8.838 3.455-18.9-1.692-27.012-4.541V87.8c-.186.456-.54.868-.644 1.358-.165.777.037 1.577.542 2.306.233.338-.054.852-.69.705-2.83-.654-5.114-2.223-6.095-4.206-.419-.848-.76-2.052-.285-2.887a1.32 1.32 0 01.227-.295c-7.738-4.174-9.204-12.401-4.114-17.541 2.35-2.373 5.88-4.134 9.987-4.773 4.541-.705 9.446-.171 13.956.883 8.827 2.062 17.185 6.572 20.377 12.907zm-32.662 10.707c8.36 2.938 20.177 8.87 28.187 3.18 5.55-3.942 5.664-10.576 1.962-15.622-4.1-5.592-12.408-9.317-20.808-10.793-4.096-.721-8.464-.938-12.365.022-3.766.925-6.848 2.929-8.632 5.4-1.785 2.473-2.15 5.369-1.116 8.16 1.021 2.757 3.27 5.067 6.106 7.13a.398.398 0 01.146.174c.047.023.094.049.143.08.126.085.06.246-.117.243-1.065-.02.666 3.427.905 3.718.77.937 1.87 1.704 3.196 2.206-.509-1.37-.492-3.081 1.106-3.768a.636.636 0 01.46-.01c.176-.158.481-.242.827-.12z" opacity=".63"/><path d="M837.718 70.112c.458-.484.399-.658 1.335-.478.936.18.914.42.81 1.077-.042.283.548.489.726.2.53-.86.346-2.333-1.35-2.549-2.088-.267-3.278 1.934-4.128 2.868-.933 1.025-2.307 2.485-.8 3.712 1.072.873 2.935.633 3.309-.414.166-.466-.918-.773-1.176-.324l-1.375-.093-.09-.599c.037-.275.244-.555.417-.795.336-.47.792-.905 1.188-1.345.378-.42.743-.845 1.134-1.26zm7.403.837c2.428 1.425.008 3.97-1.154 5.282-.96 1.084-3.765 1.91-4.684.142-.874-1.685 1.154-3.884 2.798-4.878.494-.3 1.612-1.013 2.425-.71.043.016.078.035.114.054a.823.823 0 01.501.11zm-2.333 4.829c.328-.343.566-.74.834-1.108.595-.822 2-2.126.781-3.036-.11-.026-.204-.092-.218-.178a.385.385 0 00-.019-.023c-.173.23-1.239.677-1.52.887-.394.296-.747.61-1.048.958-.539.62-.958 1.327-1.107 2.064-.209 1.035 1.641 1.12 2.297.436zm8.325-1.989c-.923-.716-2.376-1.541-3.27-.582-.728.782-1.222 1.77-1.782 2.62-.579.879-1.153 1.764-1.616 2.682-.164.326.44.566.708.272a24.16 24.16 0 001.466-1.802c.19.097.38.194.571.288.295.143.512.255.872.188.27-.051.423-.267.326-.458-.129-.256-.378-.323-.707-.42-.21-.06-.422-.12-.634-.176l.246-.338c.31-.431.622-.862.927-1.295.188-.266.4-.79.73-1.067.528.222.995.514 1.571.687.575.172 1.027-.262.592-.6zm3.507 2.441c.52.105.702-.333.41-.576-.515-.43-1.189-.693-1.853-1.002-.304-.142-.76-.033-.897.177-1.11 1.711-2.449 3.311-3.71 4.962-.282.368.545.813.921.468a18.662 18.662 0 001.486-1.537c.332.3.827.517 1.355.535.318.012.564-.205.541-.418-.026-.238-.315-.39-.633-.407a2.856 2.856 0 00-.229.004 1.079 1.079 0 01-.207-.05.93.93 0 01-.366-.213 29.273 29.273 0 001.757-2.428c.448.201.891.378 1.424.485zm1.68 6.292c-.57-.365-1.21-.585-1.9-.74.28-.342.562-.686.842-1.032.228.118.467.227.705.329.395.168.753.344 1.207.242.264-.06.4-.285.227-.465-.255-.262-.571-.298-.97-.391a8.213 8.213 0 01-.76-.226c.692-.867 1.35-1.75 1.925-2.654.527.129 1.079.309 1.504.564.69.413 1.443-.35.66-.667a7.356 7.356 0 00-1.818-.507c-.005-.228-.428-.441-.662-.224-1.713 1.582-3.102 3.366-4.518 5.089-.212.258.07.634.49.699.865.133 1.613.398 2.432.626.576.16 1.18-.294.637-.643zm4.862-.096c-.158-.046-.356-.118-.556-.167.825-1.007 1.524-2.078 2.024-3.162.518.244 1.055.499 1.605.642.482.126.854-.395.44-.614-.53-.279-1.207-.469-1.833-.663-.057-.106-.243-.156-.405-.129-.42-.126-.716.199-.492.422-1.547 1.671-3.018 3.415-4.464 5.129-.275.326.274.714.725.68a5.7 5.7 0 00.883.405c.582.223 1.357.239 1.547-.267.116-.309-.366-.529-.745-.481-.27.035-.593-.132-.863-.252.386-.369.755-.756 1.108-1.154a.45.45 0 00.052 0c.192.094.406.177.587.259.373.169.658.338 1.11.267.223-.036.383-.241.284-.4-.207-.328-.572-.389-1.007-.515z" opacity=".63"/></g><path fill="#d4d5c9" d="M103.044 44.413c8.394 2.087 14.237 7.67 13.852 14.057-.357 5.93-6.678 11.416-15.075 12.912.47.94.163 1.979-.653 2.889-1.272 1.417-3.566 2.132-5.67 2.766-.6.18-1.273-.344-.778-.713 1.574-1.177 1.744-2.656.927-3.98-3.66 2.34-9.88 1.376-13.637.048-4.46-1.575-8.164-4.247-10.421-7.336-4.093-5.603-1.32-12.7 5.636-17.027 7.074-4.403 17.333-5.726 25.819-3.616zm12.327 11.789c-1.11-5.793-7.453-10.175-15.53-11.431-8.034-1.25-17.214.519-23.145 4.904-6.247 4.619-7.434 11.369-2.643 16.382 2.184 2.286 5.143 4.286 8.716 5.515 3.572 1.228 8.876 1.998 12.514.103a.705.705 0 01.157-.06c.182-.101.5-.121.677 0 1.453 1 1.65 2.544.909 3.875 2.305-.88 4.418-2.177 3.34-4.106-.162-.29.196-.581.573-.642.094-.12.254-.22.489-.258 9.149-1.531 15.133-8.062 13.943-14.282z"/><path fill="#d4d5c9" d="M83.45 55.295c-.765-.167-1.572.125-2.33.358a.768.768 0 00-.398.116c-.788.208-1.957.348-2.319.93-.075.12.01.23.16.283.627.231 1.508-.063 2.206-.26.527 1.543 1.577 3.067 2.372 4.52.973 1.776 1.905 3.608 3.154 5.292.334.45 1.333.165 1.098-.332-.828-1.749-1.923-3.439-2.864-5.157-.819-1.495-1.418-3.173-2.404-4.63.597-.134 1.181-.308 1.494-.639.155-.163.127-.416-.169-.48zm8.591-1.715c.534-.25.116-.727-.398-.707-.771.029-1.551.296-2.279.49-.807.218-1.624.417-2.397.694a.434.434 0 00-.233.176c-.107.085-.166.203-.115.32.781 1.827 2.058 3.55 3.131 5.293 1.002 1.625 1.753 3.49 3.098 4.978.178.197.575.177.832.045a.683.683 0 00.508.107c1.086-.16 2.913-.478 3.61-1.141.305-.29-.01-.641-.491-.613-.584.032-1.09.292-1.63.455-.583.176-1.179.305-1.781.443a.884.884 0 00-.106.033c-.221-.61-.535-1.215-.891-1.815.51-.113 1.008-.254 1.507-.395.606-.171 1.238-.256 1.55-.687.121-.168-.01-.4-.256-.456-.636-.145-1.164.12-1.76.314a24.15 24.15 0 00-1.482.512c-.515-.802-1.071-1.59-1.546-2.354-.98-1.578-1.916-3.225-3.203-4.694.648-.104 1.286-.245 1.927-.374.817-.165 1.686-.288 2.405-.623zm16.322 7.001c.422.51-.541 1.076-1.113.608a7.453 7.453 0 01-.491-.419c-.108-.096-.135-.197-.111-.29-.32-.376-.647-.749-.979-1.12a.909.909 0 01-.197.078c-.991.263-2.014.478-3.026.693-.462.098-.959.261-1.418.253.25.738.476 1.48.646 2.227.09.397-.804.564-.993.198-1.232-2.395-1.991-4.95-2.898-7.424-.389-1.062-1.014-2.173-1.177-3.27-.067-.449.103-1.009.84-1.158.949-.192 1.586.54 2.091.946a64.835 64.835 0 013.206 2.756 59.954 59.954 0 015.62 5.922zm-6.195-1.303c.927-.24 1.862-.485 2.807-.682a55.258 55.258 0 00-2.001-2.06 61.363 61.363 0 00-2.381-2.206c-.654-.575-1.446-1.62-2.35-1.97-.193-.206-.24-.2-.14.013l.295.808.444 1.211c.345.943.695 1.885 1.035 2.828.295.814.608 1.631.903 2.452.386-.2.937-.278 1.388-.394z"/><g opacity=".36" fill="#d4d5c9"><path d="M427.384 7.737c7.277 4.411 7.543 11.926 2.729 17.578-5.222 6.133-15.35 9.817-25.331 10.616.066.762.235 1.515.575 2.24.312.666.743 1.678 1.648 2.041.311.125.143.38-.129.446-.015.077-.069.153-.176.216-1.957 1.131-4.607.272-6.245-.674-1.658-.958-3.126-2.336-3.076-3.897-5.473.693-10.218-2.054-13.13-4.9-3.262-3.189-5.622-7.034-5.199-11.047.338-3.195 2.535-6.07 6.18-8.11 3.621-2.026 8.072-3.183 12.414-4.218 9.356-2.229 21.385-5.354 29.74-.29zM404.043 35.21c10.512-.728 21.526-4.783 26.153-11.65 3.842-5.705 2.33-12.929-5.695-16.312-4.144-1.747-9.137-1.688-13.832-1.06-4.962.662-9.817 1.837-14.571 3.034-3.907.983-7.885 2.156-11.003 4.121-3.562 2.246-5.21 5.426-4.935 8.675.287 3.412 2.543 6.662 5.455 9.343 2.856 2.63 6.867 4.585 11.887 4.324.24-.012.405.085.465.203.14.03.259.105.29.223.596 2.236 3.845 5.288 7.603 4.267-.607-.357-.968-.94-1.264-1.435a6.64 6.64 0 01-.896-2.58c-.138-.05-.236-.156-.24-.287l-.005-.158c-.003-.088.068-.163.159-.223-.097-.207.024-.457.429-.485z" opacity=".36"/><path d="M390.992 21c-.096-.21-.408-.247-.665-.175-.28.016-.549.04-.836.088-.154.026-.309.052-.462.081l-.23.045-.032.003a1.128 1.128 0 00-.356-.026.537.537 0 00-.415.238l-.018.032c-.072.126-.035.27.088.372.332.275.781.158 1.215.063.27-.06.527-.124.78-.197.326.93.906 2.051-.027 2.877-1.226 1.086-2.658-.13-3.192-.905-.66-.956-1.049-2.025-1.247-3.079-.08-.426-.386-1.388.092-1.775.593-.482 1.78-.017 2.388.184.29.096.614-.212.377-.365-1.25-.805-3.507-1.215-4.02.34-.283.853.035 1.881.29 2.706.287.928.698 1.9 1.384 2.72.826.99 2.491 1.86 4.145 1.077 2.095-.99 1.357-2.955.741-4.304zm6.528-3.465c.718 1.31 2.046 4.116-.224 5.149-2.376 1.082-4.31-.931-4.895-2.228-.563-1.244-1.711-4.218 1.078-4.692a.278.278 0 01.214.038 2.966 2.966 0 011.738-.103c1.14.273 1.697 1.118 2.09 1.836zm-1.551 4.646c2.116-.041 1.324-2.33 1.048-3.13-.202-.583-.46-1.193-.852-1.731-.338-.463-1.46-1.444-2.246-.643-.233.237-.628.198-.851.044-.523.87-.145 1.917.146 2.819.285.886 1.012 2.675 2.755 2.64zm8.459-5.266c.49 1.29 1.08 3.792-1.465 4.36-2.626.589-4.06-1.56-4.55-2.921-.463-1.282-.729-3.99 2.116-4.077.01 0 .017.003.027.003 2.185-.797 3.451 1.526 3.872 2.635zm-1.963 3.62c1.707-.22 1.275-2.028 1.054-2.837-.192-.705-1.007-3.38-2.748-2.627a.61.61 0 01-.654-.104c-1.182.795-1.018 2.028-.654 3.095.318.936 1.165 2.712 3.002 2.474zm7.919-5.431c.732 1.39.73 4.688-2.327 4.842a.712.712 0 01-.133-.005c-.174.227-.678.305-.863.015-.64-1.005-.922-2.139-1.466-3.177-.55-1.05-1.196-2.067-1.82-3.094-.142-.233.169-.394.438-.35.894-.575 2.36-.512 3.43-.23 1.32.345 2.266 1.097 2.74 2zm-2.46 4.275c2.18-.392 1.978-2.992 1.365-4.064-.381-.666-1.073-1.216-2.052-1.479-.908-.245-1.57-.085-2.428.028.732.87 1.34 1.795 1.859 2.736.475.862 1.056 1.837 1.256 2.78zm-8.266 7.617c-.396-.619-1.082-1.68-2.355-1.484-1.563.242-1.63 1.654-1.288 3.076-1.215-1.229-2.695-2.186-3.886-1.23-.994.795.006 2.133.458 2.913.445.768 1.066 2.296 2.561 2.331.368.01.507-.343.155-.438-.733-.196-1.165-1.333-1.458-1.809-.159-.257-1.66-2.644-.239-2.435.745.11 1.83 1.511 2.158 1.891.52.602.97 1.231 1.422 1.86.267.37 1.261.192 1.074-.242a18.787 18.787 0 01-.919-2.602c-.14-.532-.682-1.769-.12-2.224.871-.71 1.732 1.256 1.921 1.611.46.866.68 1.762 1.042 2.645.18.437 1.063.331 1.021-.13-.116-1.267-.813-2.587-1.547-3.733zm3.63-2.696c1.916.72 2.885 2.694 2.99 4.116.074.99-.18 2.678-2.228 2.397-2.16-.296-3.007-2.193-3.15-3.501-.104-.97-.184-2.813 1.744-2.986.026-.003.05 0 .076.003a.687.687 0 01.568-.028zm1.255 5.616c1.163-.307.56-2.152.243-2.806-.446-.921-1.33-1.515-2.098-2.277-1.107.46-.796 2.044-.642 2.74.162.738.986 2.74 2.497 2.343zm8.511-1.252c.403.388-.408.875-.85.495-1.212-1.043-2.518-1.983-3.904-2.904.015.033.032.067.046.1.402.937.855 1.884 1.1 2.85.08.312-.59.462-.775.174-.81-1.27-1.313-2.658-1.902-3.987-.255-.576-1.323-1.828.023-2.115 2.297-.492 4.186 1.76 2.161 2.621 1.593.733 2.996 1.704 4.101 2.766zm-4.926-3.33c1.417-.454-.065-1.438-.84-1.367.102.49.357.998.614 1.492a.585.585 0 01.226-.125zm5.214-3.371c-.34-.432-1.369-.097-1.025.34.776.987 1.546 1.978 2.192 3.006a48.007 48.007 0 00-3.167-2.766c-.403-.322-1.114.021-.9.402 1.043 1.87 2.08 3.74 3.34 5.542.14.198.665.101.568-.128-.506-1.192-1.097-2.363-1.72-3.525a43.152 43.152 0 013.205 3.245c.301.34 1.214.222 1.07-.24-.664-2.11-2.087-4-3.563-5.876zm3.995 2.069c-.502-1.002-.984-2.039-1.667-2.987-.307-.426-1.163-.114-.961.318.448.961 1.057 1.89 1.567 2.834.506.938.917 1.93 1.623 2.804.16.2.6.107.564-.127-.147-.973-.667-1.925-1.126-2.842zm6.057.681c-1.08-1.86-2.025-3.808-3.303-5.605-.304-.43-1.166-.115-.965.318.523 1.124 1.179 2.228 1.85 3.326a35.61 35.61 0 00-3.085-2.145c-.407-.25-1.063.16-.82.475 1.318 1.701 2.081 3.484 3.061 5.28.135.246.636.096.611-.137-.13-1.19-.645-2.383-1.323-3.514 1.051.782 2.043 1.602 3.031 2.423.411.342 1.173-.025.943-.42zm2.938-4.937c-.16-.218-.585-.294-.872-.124-.297.177-.42.268-.673.474-.314.256.187.68.61.5.08-.033.149-.063.212-.091.406.574.783 1.17 1.008 1.785.093.258.432.967-.25.916-.26-.02-.765-.591-.92-.734-.889-.823-3.32-4.022-.943-4.64.301-.077.221-.434-.102-.431-1.761.018-2.002 1.244-1.828 2.212.252 1.402 1.168 2.749 2.51 3.796.779.607 1.89 1.173 2.587.122.767-1.16-.621-2.807-1.34-3.785zm-3.97-10.712c1.624 1.748-1.828 3.492-3.76 4.203a.683.683 0 01-.494.005c-2.548.13-5.543-1.523-5.139-3.38.167-.768 1.015-1.526 2.213-1.562 1.042-.032 1.746.424 2.259.974 1.15-1.151 3.641-1.618 4.921-.24zm-.82 1.224c.274-.776-.699-1.41-1.82-1.282a2.072 2.072 0 00-1.725 1.289c-.133.335-.85.315-1.038.038-.439-.648-1.88-1.937-2.736-.7-.359.519-.118 1.148.298 1.597.795.86 2.217 1.015 3.35 1.523a.502.502 0 01.259-.186c1.286-.473 3.042-1.233 3.412-2.28z" opacity=".36"/></g><path fill="#d4d5c9" d="M704.304.845a7.8 7.8 0 01-1.047-1.142h-1.701c.792 1.303 1.937 2.418 3.36 3.24.47.27 1.24-.194 1.113-.698a13.323 13.323 0 01-.377-2.542H704.2c.022.383.052.764.104 1.142z" opacity=".44"/><path fill="#d4d5c9" d="M768.444 9.01c1.09.62 2.143 1.354 3.019 2.19 1.373 1.31 2.497 3.43 1.12 5.295-.155.21-.436.29-.686.261-4.328 5.163-11.674 6.554-18.173 6.493-13.756-.13-27.816-2.353-40.053-6.737-6.067-2.174-11.78-4.964-16.806-8.508-2.745-1.936-6.704-4.867-6.727-8.3h1.404c.249 1.96 1.78 3.72 3.336 5.012 2.41 2.002 5.104 3.77 7.906 5.36 9.813 5.565 21.394 8.716 33.29 10.406 5.99.852 12.19 1.502 18.383 1.492 5.889-.009 12.584-1.289 16.433-6.055a.802.802 0 01.649-.309c.26-1.824-.558-3.04-2.087-4.242-.867-.68-1.828-1.268-2.84-1.79-.526-.273-1.06-.448-1.452-.776-1.762 2.32-3.203 4.62-4.163 7.234-.208.57-1.04.562-1.316.162-1.824-2.642-2.06-5.979-.644-9.1-2.262-.68-4.584-1.337-6.611-2.393l-.017.037c-1.948 3.325-3.513 6.566-4.258 10.157-.11.526-.842.836-1.258.448-3.322-3.103-3.052-7.64-1.487-11.82-2.23-.752-4.54-1.359-6.772-2.102-1.404 3.77-3.031 7.435-4.108 11.272-.165.585-1.093.568-1.343.164-2.405-3.876-2.961-8.476-1.674-13.063-.127-.034-.257-.062-.384-.095h1.86l-.12.405c1.39-.313 3.669.102 4.354 1.005a.436.436 0 01.073.144c.048-.089.093-.18.142-.27a.794.794 0 01.42-.36.378.378 0 01.332-.122c2.93.26 5.699 1.112 8.34 2.043.297.105.487.325.44.61 1.518-.107 3.319.25 4.305 1.16.254-.346.758-.332 1.028-.13 2.775.282 5.338 1.163 7.912 1.926.328.097.569.416.402.744-.032.065-.061.13-.092.195 1.262.152 2.616.553 3.287 1.415.146-.173.292-.345.444-.513.352-.388.886-.329 1.122-.069 1.133-.084 2.213.638 3.07 1.124zm-34.778 1.64c.863-2.96 1.875-5.994 3.32-8.814a.642.642 0 01-.364.04c-.715-.128-1.282-.56-1.977-.75-.633-.174-1.317-.184-1.955-.32-.79 3.42-.438 6.818.976 9.843zm13.42 2.788c.714-2.784 1.83-5.58 3.498-8.128-.507-.325-.943-.722-1.515-.984-.715-.327-1.505-.473-2.326-.552-1.254 3.333-1.655 6.932.344 9.664zm13.17.835c.728-1.677 1.645-3.33 2.79-4.856-.542-.307-.966-.76-1.52-1.065a10.053 10.053 0 00-1.311-.606c-.886 2.237-.871 4.506.042 6.527z" opacity=".44"/><path fill="#d4d5c9" d="M720.756 9.39a33.132 33.132 0 01.457-5.957c.212-1.242.629-2.489.973-3.73h-1.601c-.315 1.09-.516 2.212-.71 3.233a32.335 32.335 0 00-.501 4.087c-1.18-2.279-1.607-4.773-1.928-7.32h-1.5c.255 3.672 1.274 7.277 3.523 10.144.323.413 1.293.07 1.287-.458z" opacity=".44"/><g opacity=".88" fill="#d4d5c9"><path d="M157.515 18.186c2.35-.956-.304-2.857-.976-3.6-3.196-3.528-6.413-7.048-9.623-10.572l-4.08-4.483-1.34.013 2.309 2.524c2.976 3.256 5.949 6.513 8.923 9.77.723.792 1.447 1.584 2.173 2.375.767.835 1.746 1.656 2.34 2.559.933 1.417-2.834.94-3.821.844-1.513-.148-2.998-.347-4.483-.545a484.7 484.7 0 00-17.472-2.018 474.554 474.554 0 00-17.023-1.332c.473-3.906 2.7-7.981 6.763-11.414 1.108-.936 2.349-1.798 3.68-2.601l-1.436.014a27.92 27.92 0 00-3.403 2.56c-3.92 3.483-6.107 7.469-6.622 11.38a720.85 720.85 0 00-2.104-.12c.299-4.063 3.002-8.233 7.252-11.763a36.474 36.474 0 012.737-2.036l-1.463.014a35.11 35.11 0 00-2.52 1.947c-4.253 3.658-6.926 7.896-7.175 12.057-.011.193.179.282.408.29.04.1.16.18.38.193 13.135.745 25.962 2.015 38.652 3.626 1.489.189 2.985.367 4.51.486 1.008.079 2.363.259 3.414-.168z" opacity=".88"/><path d="M126.344 2.155c-.905.01-1.63.466-1.62 1.02.01.554.751.996 1.657.987.905-.01 1.63-.465 1.621-1.02-.01-.553-.753-.995-1.658-.986zm19.816 9.261c-.622.006-1.12.32-1.113.7.007.38.516.683 1.138.677.621-.005 1.12-.319 1.113-.699-.007-.38-.516-.684-1.138-.678zm-18.03-.436c-.898.01-1.618.462-1.608 1.01.01.55.746.988 1.643.979.898-.01 1.617-.461 1.607-1.01-.01-.55-.746-.987-1.643-.978zm10.644-5.222c-1.084.01-1.954.557-1.94 1.22.01.663.9 1.193 1.983 1.182 1.085-.01 1.955-.557 1.942-1.22-.01-.663-.9-1.193-1.985-1.182zm-10.072 1.3c-.542.005-.977.278-.97.61.005.332.45.597.991.59.543-.004.978-.277.972-.61-.007-.331-.45-.595-.993-.59z" opacity=".88"/></g><path fill="#d4d5c9" d="M52.553 17.119c2.392 1.205 3.758 2.789.766 4.215-3.442 1.64-7.178.884-9.319-.188-2.078-1.04-2.064-2.072-1.1-3.921.24-.27.172-.36 1.1-.68 2.202-.76 6.251-.585 8.553.574zm-7.125 3.593c1.57.611 5.403 1.551 7.602.254-3.5-.852-6.537-2.259-9.546-3.496-.708 1.336.112 2.53 1.944 3.243zm8.333-.221c.752-1.334-1.336-2.948-2.91-3.528-1.806-.664-5.775-.925-7.123.156 2.975.966 7.161 2.09 10.033 3.372z" opacity=".98"/><path fill="#d4d5c9" d="M321.817 94.598c2.393 1.205 3.758 2.789.766 4.215-3.442 1.64-7.178.884-9.32-.187-2.077-1.04-2.063-2.073-1.1-3.922.24-.269.173-.359 1.1-.679 2.203-.761 6.252-.586 8.554.573zm-7.125 3.595c1.57.61 5.403 1.55 7.602.253-3.5-.851-6.537-2.258-9.546-3.496-.708 1.335.112 2.53 1.944 3.243zm8.333-.223c.752-1.334-1.336-2.948-2.91-3.527-1.806-.664-5.775-.926-7.122.155 2.974.966 7.16 2.091 10.032 3.372zm417.023 18.917c2.667-.838 5.221-.837 5.261 1.781.047 3.011-2.823 4.921-5.203 5.674-2.309.732-3.49.17-5.105-1.416-.18-.293-.32-.299-.193-1.046.303-1.772 2.672-4.187 5.24-4.993zm.324 6.34c1.543-.648 4.678-2.52 4.36-4.576-2.853 1.713-6.098 2.842-9.135 4.043 1.16 1.154 2.974 1.286 4.775.532zm4.204-5.284c-1.133-1.18-4.109-.75-5.619-.085-1.732.763-4.157 3.083-3.633 4.497 2.703-1.327 6.24-3.318 9.252-4.412zM551.132 15.411c1.222 2.252 1.21 4.44-2.645 4.574-4.433.154-7.234-2.232-8.334-4.24-1.067-1.95-.234-2.985 2.108-4.427.432-.165.442-.285 1.541-.204 2.608.192 6.154 2.13 7.33 4.297zm-9.335.518c.945 1.296 3.69 3.91 6.72 3.561-2.512-2.379-4.16-5.116-5.918-7.67-1.704 1.036-1.905 2.595-.802 4.11zm7.761 3.4c1.743-1.016 1.122-3.548.148-4.816-1.116-1.453-4.522-3.442-6.606-2.94 1.942 2.265 4.86 5.217 6.458 7.756z" opacity=".53"/><path fill="#d4d5c9" d="M988.566 4.14c2.864-.346 5.344.103 4.53 2.652-.937 2.931-4.346 4.283-6.903 4.597-2.48.305-3.445-.448-4.495-2.27-.079-.317-.213-.347.154-1.05.871-1.668 3.958-3.597 6.714-3.929zm-1.75 6.211c1.708-.356 5.362-1.625 5.725-3.678-3.33 1.163-6.849 1.691-10.189 2.326.75 1.323 2.47 1.77 4.463 1.352zm5.803-4.392c-.716-1.345-3.746-1.449-5.429-1.068-1.929.438-5.04 2.265-4.992 3.73 3.057-.814 7.14-2.128 10.421-2.662z" opacity=".98"/></svg>