<svg xmlns="http://www.w3.org/2000/svg" width="346" height="57"><path fill="#edc90c" d="M36.446 31.197c-5.702 0-11.404.034-17.104-.024-1.49-.015-1.907.417-1.807 1.537.256 2.867 1.545 5.412 3.59 7.73 4.814 5.451 12.09 6.04 18.894 4.444 3.362-.789 6.036-2.639 8.556-4.568 1.049-.803 2.14-1.57 3.204-2.362 2.429-1.81 6.32-1.736 8.799-.102.982.648 1.3 1.464 1.454 2.396.47 2.882-1.347 5.056-3.555 7.031-3.356 3.003-7.64 4.703-12.481 5.791-7.26 1.632-14.558 1.461-21.78.395-5.7-.84-10.775-3.173-14.836-6.502-4.154-3.404-6.662-7.602-8.07-12.282C-.125 29.897-.281 25.08.67 20.315c.924-4.623 3.138-8.875 7.374-12.403 2.83-2.359 6.01-4.167 9.737-5.262C23.202 1.058 28.9.36 34.645.951c3.036.312 6.162.68 9.03 1.68 4.16 1.451 7.945 3.308 11.14 5.996a23.652 23.652 0 016.059 7.728c1.778 3.597 2.756 7.37 1.02 11.216-.566 1.253-1.833 2.177-3.301 2.58-2.458.675-4.988 1.177-7.675 1.123-4.821-.097-9.648-.028-14.472-.028zm8.238-7.523c1.354-.015 2.068-.689 1.643-1.569-.783-1.62-1.041-3.357-1.964-4.964-1.283-2.237-3.147-3.936-5.726-5.25-1.432-.73-3.004-.938-4.556-1.29-3.441-.779-6.795-.386-9.725 1.076-4.602 2.297-6.68 5.885-7.067 10.164-.093 1.028.2 1.42 1.658 1.5 6.295.344 9.945.306 15.82.321 2.736 0 7.182.042 9.917.012z"/><path fill="#fff" d="M158.681 52.44c-2.625-1.48-4.626-3.515-6.075-5.829-2.249-3.59-3.027-7.443-2.555-11.408.465-3.903 1.971-7.598 5.335-10.522 2.396-2.084 5.453-3.433 8.977-4.236 4-.91 7.98-.995 11.955-.433 4.192.592 7.833 2.068 11.006 4.547 5.804 4.534 7.017 9.568 6.526 16.654-.254 3.526-1.75 5.728-4.289 8.504-1.403 1.536-3.683 3.108-5.828 3.931-3.88 1.49-7.955 2.466-12.04 2.124-4.99-.015-9.242-1.206-13.012-3.332zm21.472-22.444c-.869-1.15-2.076-2.16-3.684-2.682-2.856-.928-5.735-1.142-8.68-.108-2.284.802-3.83 2.154-4.795 3.911-1.63 2.97-1.599 6.131-1.287 9.283.164 1.657.845 3.31 1.873 4.675 2.143 2.845 6.186 5.03 11.304 3.765 2.424-.6 4.151-1.652 5.478-3.245 1.934-2.322 2.024-4.908 2.086-8.978-.363-3.383-.47-4.208-2.295-6.62z"/><path fill="#fffdfb" d="M122.705 55.181c-4.074.345-8.379-.594-12.295-2.37-3.076-1.395-5.506-3.416-7.275-6.007-3.287-4.817-3.466-9.95-2.242-15.049 1.15-4.8 4.26-8.767 10.147-11.022 2.534-.97 5.06-1.708 7.851-1.78 2.843-.076 5.704-.26 8.521.207 2.844.472 5.396 1.49 7.99 2.546 2.806 1.143 4.513 3.001 6 4.951 1.185 1.554 1.598 3.56.167 5.261-1.2 1.43-3.09 1.946-5.264 1.611-1.83-.282-2.608-1.556-3.567-2.57-1.499-1.587-3.053-3.05-5.226-4.099-2.094-1.01-7.44-.9-9.57.092-3.994 1.86-5.499 4.722-5.679 8.21-.096 1.84-.15 3.684.291 5.51.925 3.834 3.507 6.513 8.248 7.746 3.035.79 8.666-.649 10.564-2.78a63.372 63.372 0 002.752-3.317c1.45-1.868 5.636-2.036 7.615-.589 2.263 1.656 1.877 5.088-.352 7.343-4.658 4.71-10.92 6.333-18.676 6.106zM328.05 40.65c-3.62 0-7.24.058-10.855-.03-1.385-.035-1.681.374-1.652 1.355.09 3.031 1.375 5.73 4.587 7.301 2.25 1.103 4.836 1.556 7.858.96 4.252-.84 6.89-3.272 10.065-5.212 1.442-.88 3.02-.726 4.505-.342 1.318.341 1.423 1.398 1.464 2.395.082 2.012-1.198 3.478-2.937 4.737-4.406 3.188-9.58 4.681-15.527 4.468-2.876-.103-5.714-.085-8.54-.862-4.093-1.126-7.266-3.403-9.662-6.174-1.057-1.103-2.803-5.162-2.973-8.16-.06-3.128.315-5.667.668-6.835 1.46-4.829 4.284-8.78 9.894-11.407 4.778-2.236 9.793-2.278 14.954-1.922 4.177.29 7.789 1.703 10.614 4.184 4.196 3.684 5.64 8.05 4.357 12.925-.35 1.328-1.765 1.97-3.367 2.281-2.703.525-5.455.3-8.188.345-1.754.03-3.51.005-5.265.005zm-2.737-4.907c2.681 0 5.362-.03 8.042.016 1.017.017 1.308-.245 1.273-1.055-.063-1.506-.668-2.852-1.432-4.202-.804-1.418-2.165-2.442-3.837-2.949-6.384-1.934-13.06 1.691-13.48 7.162-.065.832.221 1.07 1.23 1.053 2.734-.042 5.47-.014 8.205-.014zm-110.415 4.374c0 3.734.082 7.47-.024 11.202-.093 3.238-2.896 5.226-7.002 4.483-1.695-.307-2.824-1.333-3.433-2.654-.365-.793-.417-1.63-.418-2.469-.006-7.249-.048-14.499.017-21.748.01-1.195-.424-1.654-1.899-1.615a18.86 18.86 0 01-3.099-.177c-1.939-.272-2.897-1.48-2.97-3.236-.073-1.716 1.408-2.783 3.071-2.987 1.025-.125 2.086-.203 3.111-.132 1.532.106 1.864-.46 1.771-1.537-.08-.916.016-1.843.038-2.766.05-2.034.704-3.956 1.863-5.746 1.5-2.318 4.198-3.309 7.207-3.652 4.163-.474 8.33-.665 12.385.718 1.753.597 2.538 1.791 2.626 2.982.086 1.162-.73 2.502-2.218 3.053-1.17.433-2.61.306-3.867-.046-4.525-.343-5.85.084-6.545 3.05-.24 1.027-.506 2.035-.547 3.083-.022.597.206.938 1.001.882 1.615-.115 3.808-.252 5.374-.049 1.505.195 2.415 1.08 2.81 2.201.425 1.217.544 3.241-.959 3.958-1.792.855-4.068.768-6.523.637-1.526-.08-1.723.11-1.718 1.098.017 3.822.007 7.645.007 11.467zm18.752 4.324c.188-4.89.352-10.148.624-15.402.057-1.08-.386-1.392-1.642-1.352-1.513.048-3.023.138-4.437-.588-1.306-.67-2.009-1.72-1.8-3.24.177-1.282.823-2.162 2.602-2.435 1.494-.23 3.04-.023 4.517-.525.653-.223.79-.409.81-.896.058-1.403.275-2.806.244-4.207-.043-1.956 1.226-3.593 1.837-5.388.087-.255.432-.484.72-.66 1.888-1.153 3.85-2.056 6.33-2.322 3.76-.402 7.486-.474 11.157.211 2.673.498 4.022 2.01 3.774 3.786-.209 1.495-2.015 3.025-4.127 2.682-1.277-.208-2.613-.237-3.924-.248-3.187-.028-4.17.581-4.767 3.074-.255 1.068-.236 2.181-.302 3.275-.044.75.391 1.08 1.386 1.067 1.527-.019 3.065-.053 4.573.253 2.091.425 3.276 1.68 2.94 3.587-.23 1.3-1.828 2.48-3.69 2.562-1.259.056-2.522.106-3.777.06-1.122-.042-1.527.262-1.529 1.186-.004 3.512.148 7.04-.22 10.53-.42 3.984-.324 7.961-.4 11.941-.057 2.957-1.959 4.782-5.787 4.622-2.329-.097-4.482-1.453-4.86-3.315-.534-2.618-.138-5.26-.252-8.258zm47.758-3.791c-3.62 0-7.24.058-10.856-.03-1.385-.035-1.68.374-1.651 1.355.09 3.031 1.375 5.73 4.586 7.301 2.25 1.103 4.836 1.556 7.858.96 4.253-.84 6.89-3.272 10.066-5.212 1.44-.88 3.02-.726 4.504-.342 1.319.341 1.424 1.398 1.465 2.395.082 2.012-1.198 3.478-2.937 4.737-4.406 3.188-9.581 4.681-15.527 4.468-2.877-.103-5.714-.085-8.54-.862-4.094-1.126-7.266-3.403-9.663-6.174-1.057-1.103-2.802-5.162-2.972-8.16-.06-3.128.314-5.667.667-6.835 1.46-4.829 4.285-8.78 9.895-11.407 4.778-2.236 9.793-2.278 14.953-1.922 4.178.29 7.79 1.703 10.615 4.184 4.196 3.684 5.64 8.05 4.357 12.925-.35 1.328-1.765 1.97-3.367 2.281-2.703.525-5.456.3-8.19.345-1.753.03-3.508.005-5.263.005zm-2.736-4.907c2.68 0 5.362-.03 8.04.016 1.019.017 1.31-.245 1.275-1.055-.064-1.506-.67-2.852-1.433-4.202-.804-1.418-2.164-2.442-3.836-2.949-6.385-1.934-13.062 1.691-13.482 7.162-.063.832.222 1.07 1.23 1.053 2.734-.042 5.47-.014 8.206-.014zM90.724 39.787H72.596A3.798 3.798 0 0168.809 36a3.798 3.798 0 013.787-3.787h18.128A3.798 3.798 0 0194.51 36a3.798 3.798 0 01-3.787 3.787z"/></svg>